G04 #@! TF.GenerationSoftware,KiCad,Pcbnew,(5.1.0)-1*
G04 #@! TF.CreationDate,2019-07-24T00:39:13-06:00*
G04 #@! TF.ProjectId,twinkletwinkie,7477696e-6b6c-4657-9477-696e6b69652e,rev?*
G04 #@! TF.SameCoordinates,PX89e92d0PY44794c0*
G04 #@! TF.FileFunction,Profile,NP*
%FSLAX46Y46*%
G04 Gerber Fmt 4.6, Leading zero omitted, Abs format (unit mm)*
G04 Created by KiCad (PCBNEW (5.1.0)-1) date 2019-07-24 00:39:13*
%MOMM*%
%LPD*%
G04 APERTURE LIST*
%ADD10C,0.200000*%
G04 APERTURE END LIST*
D10*
X-28478868Y3390167D02*
X-28447353Y3470733D01*
X-28510554Y3309707D02*
X-28478868Y3390167D01*
X-28542422Y3229359D02*
X-28510554Y3309707D01*
X-28682132Y2878889D02*
X-28646818Y2968060D01*
X-29009630Y2032310D02*
X-28978630Y2113586D01*
X-28851129Y2445860D02*
X-28818263Y2530825D01*
X-31304726Y-2532303D02*
X-31303176Y-2529870D01*
X-28610944Y3058135D02*
X-28574488Y3149133D01*
X-28818263Y2530825D02*
X-28784953Y2616589D01*
X-29321491Y1215349D02*
X-29212514Y1499367D01*
X-31300076Y-2525004D02*
X-31298525Y-2522571D01*
X-29645549Y405048D02*
X-29536714Y669456D01*
X-30397275Y-1141622D02*
X-30253761Y-882248D01*
X-28915627Y2278247D02*
X-28883576Y2361674D01*
X-29212514Y1499367D02*
X-29100899Y1792455D01*
X-28716911Y2790601D02*
X-28682132Y2878889D01*
X-29872142Y-113021D02*
X-29756927Y144644D01*
X-28751176Y2703175D02*
X-28716911Y2790601D01*
X-30119264Y-625201D02*
X-29992490Y-369214D01*
X-31298525Y-2522571D02*
X-31296975Y-2520138D01*
X-28261112Y3955878D02*
X-28230424Y4036952D01*
X-29070741Y1871765D02*
X-29040326Y1951710D01*
X-29040326Y1951710D02*
X-29009630Y2032310D01*
X-28230424Y4036952D02*
X-28199802Y4118066D01*
X-28947304Y2195558D02*
X-28915627Y2278247D01*
X-28784953Y2616589D02*
X-28751176Y2703175D01*
X-29429126Y939134D02*
X-29321491Y1215349D01*
X-30716534Y-1672414D02*
X-30551101Y-1404589D01*
X-29536714Y669456D02*
X-29429126Y939134D01*
X-30551101Y-1404589D02*
X-30397275Y-1141622D01*
X-28291879Y3874852D02*
X-28261112Y3955878D01*
X-28415996Y3551395D02*
X-28384783Y3632146D01*
X-28646818Y2968060D02*
X-28610944Y3058135D01*
X-28883576Y2361674D02*
X-28851129Y2445860D01*
X-28978630Y2113586D02*
X-28947304Y2195558D01*
X-28447353Y3470733D02*
X-28415996Y3551395D01*
X-31303176Y-2529870D02*
X-31301626Y-2527437D01*
X-28353702Y3712978D02*
X-28322738Y3793883D01*
X-31301626Y-2527437D02*
X-31300076Y-2525004D01*
X-29992490Y-369214D02*
X-29872142Y-113021D01*
X-28574488Y3149133D02*
X-28542422Y3229359D01*
X-31087401Y-2227706D02*
X-30894869Y-1946364D01*
X-29100899Y1792455D02*
X-29070741Y1871765D01*
X-30253761Y-882248D02*
X-30119264Y-625201D01*
X-29756927Y144644D02*
X-29645549Y405048D01*
X-30894869Y-1946364D02*
X-30716534Y-1672414D01*
X-31306277Y-2534736D02*
X-31304726Y-2532303D01*
X-28322738Y3793883D02*
X-28291879Y3874852D01*
X-31296975Y-2520138D02*
X-31295425Y-2517704D01*
X-31307827Y-2537169D02*
X-31306277Y-2534736D01*
X-28384783Y3632146D02*
X-28353702Y3712978D01*
X-31295425Y-2517704D02*
X-31087401Y-2227706D01*
X-28375435Y-11573319D02*
X-28882524Y-11156117D01*
X-27838185Y-11966439D02*
X-28375435Y-11573319D01*
X-24740885Y-13542274D02*
X-25411212Y-13281792D01*
X-24047489Y-13773784D02*
X-24740885Y-13542274D01*
X-21434732Y-14350574D02*
X-21725560Y-14306392D01*
X-31318679Y-2554201D02*
X-31317129Y-2551768D01*
X-18223866Y-14581751D02*
X-18516192Y-14577560D01*
X-32001626Y-5461280D02*
X-32015083Y-5088485D01*
X-31738082Y-6907144D02*
X-31831821Y-6556129D01*
X-29801491Y-10252724D02*
X-30211006Y-9768165D01*
X-27271956Y-12334661D02*
X-27838185Y-11966439D01*
X-17931555Y-14583118D02*
X-18223866Y-14581751D01*
X-18808507Y-14570410D02*
X-19100788Y-14560165D01*
X-20852316Y-14426137D02*
X-21143643Y-14390444D01*
X-18516192Y-14577560D02*
X-18808507Y-14570410D01*
X-22596214Y-14146624D02*
X-23332204Y-13975505D01*
X-23332204Y-13975505D02*
X-24047489Y-13773784D01*
X-19977165Y-14509511D02*
X-20269052Y-14485536D01*
X-21143643Y-14390444D02*
X-21434732Y-14350574D01*
X-31516650Y-2897212D02*
X-31320229Y-2556634D01*
X-31900787Y-3972138D02*
X-31805127Y-3606791D01*
X-31309377Y-2539602D02*
X-31307827Y-2537169D01*
X-31505708Y-7577309D02*
X-31628777Y-7248146D01*
X-31677682Y-3247874D02*
X-31516650Y-2897212D01*
X-31310928Y-2542035D02*
X-31309377Y-2539602D01*
X-31312478Y-2544469D02*
X-31310928Y-2542035D01*
X-31314028Y-2546902D02*
X-31312478Y-2544469D01*
X-31966465Y-4342087D02*
X-31900787Y-3972138D01*
X-31317129Y-2551768D02*
X-31315579Y-2549335D01*
X-32003963Y-4714811D02*
X-31966465Y-4342087D01*
X-30924187Y-8737392D02*
X-31225489Y-8192810D01*
X-25411212Y-13281792D02*
X-26057288Y-12993153D01*
X-32015083Y-5088485D02*
X-32003963Y-4714811D01*
X-19100788Y-14560165D02*
X-19393008Y-14546690D01*
X-30211006Y-9768165D02*
X-30585631Y-9262782D01*
X-28882524Y-11156117D02*
X-29358270Y-10715647D01*
X-19685142Y-14529851D02*
X-19977165Y-14509511D01*
X-19393008Y-14546690D02*
X-19685142Y-14529851D01*
X-31320229Y-2556634D02*
X-31318679Y-2554201D01*
X-31370678Y-7892806D02*
X-31505708Y-7577309D01*
X-22016099Y-14257764D02*
X-22306326Y-14204553D01*
X-31805127Y-3606791D02*
X-31677682Y-3247874D01*
X-31965396Y-5831371D02*
X-32001626Y-5461280D01*
X-31831821Y-6556129D02*
X-31908193Y-6196929D01*
X-31225489Y-8192810D02*
X-31370678Y-7892806D01*
X-21725560Y-14306392D02*
X-22016099Y-14257764D01*
X-30585631Y-9262782D02*
X-30924187Y-8737392D01*
X-26677930Y-12677171D02*
X-27271956Y-12334661D01*
X-26057288Y-12993153D02*
X-26677930Y-12677171D01*
X-22306326Y-14204553D02*
X-22596214Y-14146624D01*
X-20269052Y-14485536D02*
X-20560777Y-14457789D01*
X-31315579Y-2549335D02*
X-31314028Y-2546902D01*
X-31908193Y-6196929D02*
X-31965396Y-5831371D01*
X-31628777Y-7248146D02*
X-31738082Y-6907144D01*
X-20560777Y-14457789D02*
X-20852316Y-14426137D01*
X-29358270Y-10715647D02*
X-29801491Y-10252724D01*
X31817028Y5248454D02*
X31842108Y5185874D01*
X31532964Y6853103D02*
X31524332Y6833071D01*
X31598552Y5713148D02*
X31625799Y5658196D01*
X31421224Y6119417D02*
X31437611Y6071823D01*
X31444544Y6645521D02*
X31435284Y6621921D01*
X31681211Y5546002D02*
X31709089Y5488478D01*
X31541534Y6873131D02*
X31532964Y6853103D01*
X31386279Y6256851D02*
X31395362Y6211925D01*
X31383102Y6447484D02*
X31380164Y6427830D01*
X31506943Y6793011D02*
X31496012Y6767847D01*
X31397260Y6509549D02*
X31391706Y6488367D01*
X31474617Y6718146D02*
X31464267Y6693657D01*
X31994050Y4305499D02*
X31984595Y4195651D01*
X31435284Y6621921D02*
X31426500Y6598664D01*
X31454224Y6669441D02*
X31444544Y6645521D01*
X31464267Y6693657D02*
X31454224Y6669441D01*
X31625799Y5658196D02*
X31653380Y5602568D01*
X31997408Y4417053D02*
X31994050Y4305499D01*
X31973665Y4716953D02*
X31983745Y4645338D01*
X31736812Y5429980D02*
X31764178Y5370489D01*
X31653380Y5602568D02*
X31681211Y5546002D01*
X31476317Y5973929D02*
X31498245Y5923618D01*
X31380164Y6427830D02*
X31376768Y6386383D01*
X31994147Y4530327D02*
X31997408Y4417053D01*
X31391706Y6488367D02*
X31386968Y6467670D01*
X31945959Y4856623D02*
X31961002Y4787376D01*
X31498245Y5923618D02*
X31521628Y5872390D01*
X31842108Y5185874D02*
X31866021Y5122228D01*
X31380022Y6300899D02*
X31386279Y6256851D01*
X31418250Y6575775D02*
X31410588Y6553277D01*
X31790984Y5309986D02*
X31817028Y5248454D01*
X31764178Y5370489D02*
X31790984Y5309986D01*
X31709089Y5488478D02*
X31736812Y5429980D01*
X31386968Y6467670D02*
X31383102Y6447484D01*
X31395362Y6211925D02*
X31407076Y6166116D01*
X31485218Y6742884D02*
X31474617Y6718146D01*
X31546271Y5820239D02*
X31571978Y5767160D01*
X31521628Y5872390D02*
X31546271Y5820239D01*
X31437611Y6071823D02*
X31456040Y6023329D01*
X31376786Y6344075D02*
X31380022Y6300899D01*
X31403573Y6531194D02*
X31397260Y6509549D01*
X31496012Y6767847D02*
X31485218Y6742884D01*
X31961002Y4787376D02*
X31973665Y4716953D01*
X31791520Y3473145D02*
X31752073Y3376375D01*
X31524332Y6833071D02*
X31515653Y6813039D01*
X31410588Y6553277D02*
X31403573Y6531194D01*
X31829045Y3571494D02*
X31791520Y3473145D01*
X31571978Y5767160D02*
X31598552Y5713148D01*
X31426500Y6598664D02*
X31418250Y6575775D01*
X31376768Y6386383D02*
X31376786Y6344075D01*
X31984595Y4195651D02*
X31969565Y4087492D01*
X31928736Y4924714D02*
X31945959Y4856623D01*
X31888565Y5057498D02*
X31909538Y4991666D01*
X31515653Y6813039D02*
X31506943Y6793011D01*
X31864125Y3671440D02*
X31829045Y3571494D01*
X31896239Y3772997D02*
X31864125Y3671440D01*
X31924865Y3876181D02*
X31896239Y3772997D01*
X31949481Y3981007D02*
X31924865Y3876181D01*
X31969565Y4087492D02*
X31949481Y3981007D01*
X31983745Y4645338D02*
X31994147Y4530327D01*
X31456040Y6023329D02*
X31476317Y5973929D01*
X31407076Y6166116D02*
X31421224Y6119417D01*
X31909538Y4991666D02*
X31928736Y4924714D01*
X31866021Y5122228D02*
X31888565Y5057498D01*
X29621066Y11923506D02*
X30037280Y11469160D01*
X31760931Y7773225D02*
X31750130Y7636440D01*
X31760708Y8053286D02*
X31764456Y7912184D01*
X31731416Y8341792D02*
X31749693Y8196499D01*
X31156191Y9893987D02*
X31176860Y9857138D01*
X31531241Y9098328D02*
X31585766Y8943117D01*
X31217321Y9783322D02*
X31237101Y9746374D01*
X31366569Y9487897D02*
X31383708Y9451109D01*
X22456678Y15818472D02*
X23188480Y15615961D01*
X31256571Y9709413D02*
X31275727Y9672448D01*
X30773825Y10508942D02*
X31092498Y10004184D01*
X21421058Y16060389D02*
X22456678Y15818472D01*
X30037280Y11469160D02*
X30421810Y10997453D01*
X31705880Y8489131D02*
X31731416Y8341792D01*
X31673089Y8638487D02*
X31705880Y8489131D01*
X31585766Y8943117D02*
X31633050Y8789826D01*
X31383708Y9451109D02*
X31400490Y9414384D01*
X31237101Y9746374D02*
X31256571Y9709413D01*
X31313069Y9598544D02*
X31331244Y9561624D01*
X31349079Y9524738D02*
X31366569Y9487897D01*
X31275727Y9672448D02*
X31294561Y9635488D01*
X31176860Y9857138D02*
X31197239Y9820246D01*
X25250123Y14866339D02*
X25889987Y14570961D01*
X26504795Y14253760D02*
X27093719Y13915294D01*
X31574898Y6953121D02*
X31566725Y6933150D01*
X31590817Y6992988D02*
X31582934Y6973069D01*
X31613400Y7052535D02*
X31606065Y7032725D01*
X31294561Y9635488D02*
X31313069Y9598544D01*
X28696896Y12777882D02*
X29173995Y12359933D01*
X25889987Y14570961D02*
X26504795Y14253760D01*
X23188480Y15615961D02*
X23898540Y15389397D01*
X19334212Y16407578D02*
X20380017Y16255710D01*
X31114004Y9967520D02*
X31135236Y9930784D01*
X31633050Y8789826D02*
X31673089Y8638487D01*
X31550028Y6893151D02*
X31541534Y6873131D01*
X31674021Y7239451D02*
X31634067Y7111682D01*
X31400490Y9414384D02*
X31469481Y9255428D01*
X28190598Y13176798D02*
X28696896Y12777882D01*
X31135236Y9930784D02*
X31156191Y9893987D01*
X23898540Y15389397D02*
X24586031Y15139337D01*
X31598532Y7012874D02*
X31590817Y6992988D01*
X31749693Y8196499D02*
X31760708Y8053286D01*
X24586031Y15139337D02*
X25250123Y14866339D01*
X31558430Y6913158D02*
X31550028Y6893151D01*
X31331244Y9561624D02*
X31349079Y9524738D01*
X31706679Y7369521D02*
X31674021Y7239451D01*
X31092498Y10004184D02*
X31114004Y9967520D01*
X31582934Y6973069D02*
X31574898Y6953121D01*
X31627417Y7092017D02*
X31620523Y7072300D01*
X29173995Y12359933D02*
X29621066Y11923506D01*
X18284301Y16519134D02*
X19334212Y16407578D01*
X31197239Y9820246D02*
X31217321Y9783322D01*
X27093719Y13915294D02*
X27655930Y13556121D01*
X30421810Y10997453D02*
X30773825Y10508942D01*
X27655930Y13556121D02*
X28190598Y13176798D01*
X31566725Y6933150D02*
X31558430Y6913158D01*
X31606065Y7032725D02*
X31598532Y7012874D01*
X31764456Y7912184D02*
X31760931Y7773225D01*
X20380017Y16255710D02*
X21421058Y16060389D01*
X31620523Y7072300D02*
X31613400Y7052535D01*
X31469481Y9255428D02*
X31531241Y9098328D01*
X31634067Y7111682D02*
X31627417Y7092017D01*
X31732047Y7501861D02*
X31706679Y7369521D01*
X31750130Y7636440D02*
X31732047Y7501861D01*
X-8641829Y14507272D02*
X-7725146Y14568723D01*
X5345943Y15826137D02*
X5432178Y15836559D01*
X5173473Y15805294D02*
X5259708Y15815716D01*
X5001003Y15784451D02*
X5087238Y15794873D01*
X-2207457Y15012850D02*
X-1286803Y15099276D01*
X4914768Y15774030D02*
X5001003Y15784451D01*
X553568Y15282603D02*
X1472880Y15379468D01*
X4569828Y15732344D02*
X4656063Y15742766D01*
X-10791896Y14377431D02*
X-10759792Y14379219D01*
X2391339Y15479778D02*
X3308743Y15583514D01*
X-5888456Y14702470D02*
X-4968854Y14774731D01*
X-10824000Y14375644D02*
X-10791896Y14377431D01*
X-7725146Y14568723D02*
X-6807288Y14633795D01*
X12996190Y16582236D02*
X14056760Y16625098D01*
X5604649Y15857401D02*
X6652501Y15984466D01*
X4656063Y15742766D02*
X4742298Y15753187D01*
X4483593Y15721923D02*
X4569828Y15732344D01*
X1472880Y15379468D02*
X2391339Y15479778D01*
X4311123Y15701080D02*
X4397358Y15711502D01*
X3308743Y15583514D02*
X4224888Y15690659D01*
X-1286803Y15099276D02*
X-366394Y15189200D01*
X-10663480Y14384580D02*
X-10631376Y14386367D01*
X-12447963Y14282240D02*
X-11958591Y14311820D01*
X-10599272Y14388154D02*
X-10567168Y14389941D01*
X-10952416Y14368496D02*
X-10920312Y14370283D01*
X-10984520Y14366709D02*
X-10952416Y14368496D01*
X4224888Y15690659D02*
X4311123Y15701080D01*
X-10470856Y14395303D02*
X-9557133Y14449459D01*
X-10631376Y14386367D02*
X-10599272Y14388154D01*
X-11470676Y14339714D02*
X-10984520Y14366709D01*
X-10759792Y14379219D02*
X-10727688Y14381006D01*
X-10888208Y14372070D02*
X-10856104Y14373857D01*
X-4048685Y14850560D02*
X-3128152Y14929939D01*
X5432178Y15836559D02*
X5518413Y15846980D01*
X10875238Y16435285D02*
X11935464Y16517917D01*
X5087238Y15794873D02*
X5173473Y15805294D01*
X4742298Y15753187D02*
X4828533Y15763609D01*
X-10502960Y14393516D02*
X-10470856Y14395303D01*
X-3128152Y14929939D02*
X-2207457Y15012850D01*
X-10727688Y14381006D02*
X-10695584Y14382793D01*
X11935464Y16517917D02*
X12996190Y16582236D01*
X-10695584Y14382793D02*
X-10663480Y14384580D01*
X-12938492Y14250189D02*
X-12447963Y14282240D01*
X5259708Y15815716D02*
X5345943Y15826137D01*
X4397358Y15711502D02*
X4483593Y15721923D01*
X5518413Y15846980D02*
X5604649Y15857401D01*
X-4968854Y14774731D02*
X-4048685Y14850560D01*
X9816170Y16337481D02*
X10875238Y16435285D01*
X7704144Y16108929D02*
X8758919Y16227648D01*
X-9557133Y14449459D02*
X-8641829Y14507272D01*
X-10920312Y14370283D02*
X-10888208Y14372070D01*
X-366394Y15189200D02*
X553568Y15282603D01*
X-10567168Y14389941D02*
X-10535064Y14391729D01*
X-6807288Y14633795D02*
X-5888456Y14702470D01*
X-10535064Y14391729D02*
X-10502960Y14393516D01*
X17230942Y16593522D02*
X18284301Y16519134D01*
X16174794Y16633883D02*
X17230942Y16593522D01*
X15116513Y16643361D02*
X16174794Y16633883D01*
X-10856104Y14373857D02*
X-10824000Y14375644D01*
X14056760Y16625098D02*
X15116513Y16643361D01*
X4828533Y15763609D02*
X4914768Y15774030D01*
X8758919Y16227648D02*
X9816170Y16337481D01*
X-11958591Y14311820D02*
X-11470676Y14339714D01*
X6652501Y15984466D02*
X7704144Y16108929D01*
X-28108197Y4361571D02*
X-28077706Y4442766D01*
X-27757444Y5287108D02*
X-27647322Y5569200D01*
X-23383115Y11326862D02*
X-23024122Y11565604D01*
X-25182565Y9784362D02*
X-25115578Y9854783D01*
X-26629199Y7783696D02*
X-26476819Y8049619D01*
X-22269102Y12013708D02*
X-21873762Y12222692D01*
X-27865527Y5005089D02*
X-27757444Y5287108D01*
X-25378526Y9569771D02*
X-25314053Y9641838D01*
X-25687648Y9202106D02*
X-25627635Y9276556D01*
X-27418837Y6132107D02*
X-27299412Y6412175D01*
X-25862032Y8976299D02*
X-25804860Y9051960D01*
X-27047538Y6967669D02*
X-26914027Y7242347D01*
X-15889111Y13961943D02*
X-15397959Y14025337D01*
X-26476819Y8049619D02*
X-26317087Y8311876D01*
X-26774758Y7514481D02*
X-26629199Y7783696D01*
X-26914027Y7242347D02*
X-26774758Y7514481D01*
X-23024122Y11565604D02*
X-22652670Y11794616D01*
X-16868269Y13810444D02*
X-16379315Y13890575D01*
X-18805576Y13386579D02*
X-18324627Y13509619D01*
X-21466993Y12421376D02*
X-21049137Y12609572D01*
X-22652670Y11794616D02*
X-22269102Y12013708D01*
X-24979187Y9993849D02*
X-24687635Y10278393D01*
X-25627635Y9276556D02*
X-25566703Y9350565D01*
X-24687635Y10278393D02*
X-24381909Y10554156D01*
X-25804860Y9051960D02*
X-25746727Y9127235D01*
X-28138701Y4280384D02*
X-28108197Y4361571D01*
X-28199802Y4118066D02*
X-28169232Y4199213D01*
X-19732484Y13109329D02*
X-19273715Y13253673D01*
X-25442135Y9497191D02*
X-25378526Y9569771D01*
X-26149472Y8570092D02*
X-25973441Y8823894D01*
X-20620538Y12787089D02*
X-20181539Y12953738D01*
X-21049137Y12609572D02*
X-20620538Y12787089D01*
X-21873762Y12222692D02*
X-21466993Y12421376D01*
X-25746727Y9127235D02*
X-25687648Y9202106D01*
X-25314053Y9641838D02*
X-25248728Y9713375D01*
X-27175823Y6690820D02*
X-27047538Y6967669D01*
X-24062352Y10820948D02*
X-23729306Y11078580D01*
X-24381909Y10554156D02*
X-24062352Y10820948D01*
X-25115578Y9854783D02*
X-25047781Y9924618D01*
X-25504865Y9424116D02*
X-25442135Y9497191D01*
X-25918230Y8900272D02*
X-25862032Y8976299D01*
X-27299412Y6412175D02*
X-27175823Y6690820D01*
X-16379315Y13890575D02*
X-15889111Y13961943D01*
X-17841226Y13620752D02*
X-17355673Y13720765D01*
X-27647322Y5569200D02*
X-27534630Y5850991D01*
X-25973441Y8823894D02*
X-25918230Y8900272D01*
X-23729306Y11078580D02*
X-23383115Y11326862D01*
X-28077706Y4442766D02*
X-27972104Y4723517D01*
X-26317087Y8311876D02*
X-26149472Y8570092D01*
X-25566703Y9350565D02*
X-25504865Y9424116D01*
X-13921816Y14175526D02*
X-13429876Y14214880D01*
X-14906158Y14081541D02*
X-14414010Y14131342D01*
X-27534630Y5850991D02*
X-27418837Y6132107D01*
X-28169232Y4199213D02*
X-28138701Y4280384D01*
X-13429876Y14214880D02*
X-12938492Y14250189D01*
X-14414010Y14131342D02*
X-13921816Y14175526D01*
X-15397959Y14025337D02*
X-14906158Y14081541D01*
X-27972104Y4723517D02*
X-27865527Y5005089D01*
X-17355673Y13720765D02*
X-16868269Y13810444D01*
X-18324627Y13509619D02*
X-17841226Y13620752D01*
X-25047781Y9924618D02*
X-24979187Y9993849D01*
X-25248728Y9713375D02*
X-25182565Y9784362D01*
X-19273715Y13253673D02*
X-18805576Y13386579D01*
X-20181539Y12953738D02*
X-19732484Y13109329D01*
X-1035230Y-13197506D02*
X-1881787Y-13278096D01*
X-15004688Y-14470937D02*
X-15369455Y-14495033D01*
X-14640381Y-14444770D02*
X-15004688Y-14470937D01*
X-13188747Y-14324771D02*
X-13550718Y-14356533D01*
X-5701466Y-13633219D02*
X-6235283Y-13682634D01*
X4079842Y-12653932D02*
X3225078Y-12754375D01*
X-7302918Y-13781466D02*
X-7836736Y-13830881D01*
X-11573459Y-14176790D02*
X-12107276Y-14226206D01*
X9193734Y-11923196D02*
X8345169Y-12062932D01*
X-8370554Y-13880297D02*
X-8904371Y-13929712D01*
X-3566196Y-13435557D02*
X-4100013Y-13484972D01*
X10039864Y-11775021D02*
X9193734Y-11923196D01*
X-1881787Y-13278096D02*
X-2725576Y-13357266D01*
X-13550718Y-14356533D02*
X-13913347Y-14387299D01*
X-12107276Y-14226206D02*
X-12466976Y-14259339D01*
X-11039641Y-14127375D02*
X-11573459Y-14176790D01*
X-9972006Y-14028544D02*
X-10505824Y-14077959D01*
X-7836736Y-13830881D02*
X-8370554Y-13880297D01*
X-8904371Y-13929712D02*
X-9438189Y-13979128D01*
X-6235283Y-13682634D02*
X-6769101Y-13732050D01*
X2370681Y-12850159D02*
X1517051Y-12941825D01*
X3225078Y-12754375D02*
X2370681Y-12850159D01*
X5788873Y-12436909D02*
X4934574Y-12548290D01*
X-14276584Y-14416801D02*
X-14640381Y-14444770D01*
X10734837Y-11646545D02*
X10560910Y-11679201D01*
X-9438189Y-13979128D02*
X-9972006Y-14028544D01*
X664590Y-13029911D02*
X-186304Y-13114958D01*
X8345169Y-12062932D02*
X7494570Y-12194770D01*
X10387064Y-11711524D02*
X10213362Y-11743476D01*
X-4633831Y-13534388D02*
X-5167648Y-13583803D01*
X-13913347Y-14387299D02*
X-14276584Y-14416801D01*
X-17931555Y-14583118D02*
X-17931555Y-14583118D01*
X-12466976Y-14259339D02*
X-12827483Y-14292284D01*
X1517051Y-12941825D02*
X664590Y-13029911D01*
X-5167648Y-13583803D02*
X-5701466Y-13633219D01*
X7494570Y-12194770D02*
X6642338Y-12319249D01*
X-15369455Y-14495033D02*
X-15734632Y-14516788D01*
X6642338Y-12319249D02*
X5788873Y-12436909D01*
X-10505824Y-14077959D02*
X-11039641Y-14127375D01*
X-17564951Y-14581051D02*
X-17931555Y-14583118D01*
X-4100013Y-13484972D02*
X-4633831Y-13534388D01*
X-186304Y-13114958D02*
X-1035230Y-13197506D01*
X10560910Y-11679201D02*
X10387064Y-11711524D01*
X-6769101Y-13732050D02*
X-7302918Y-13781466D01*
X-2725576Y-13357266D02*
X-3566196Y-13435557D01*
X-16100171Y-14535935D02*
X-16466022Y-14552204D01*
X4934574Y-12548290D02*
X4079842Y-12653932D01*
X10213362Y-11743476D02*
X10039864Y-11775021D01*
X-17198461Y-14575031D02*
X-17564951Y-14581051D01*
X-12827483Y-14292284D02*
X-13188747Y-14324771D01*
X-16832135Y-14565325D02*
X-17198461Y-14575031D01*
X-16466022Y-14552204D02*
X-16832135Y-14565325D01*
X-15734632Y-14516788D02*
X-16100171Y-14535935D01*
X16130363Y-10610751D02*
X15711124Y-10684352D01*
X25991120Y-9215357D02*
X25589098Y-9346335D01*
X19495618Y-10147902D02*
X19075148Y-10190045D01*
X20209657Y-10087139D02*
X20120316Y-10094160D01*
X23316085Y-9813459D02*
X23049062Y-9846758D01*
X18233357Y-10289657D02*
X17812312Y-10346382D01*
X26379772Y-9070409D02*
X25991120Y-9215357D01*
X20477797Y-10066715D02*
X20388399Y-10073432D01*
X20924988Y-10033869D02*
X20835528Y-10040392D01*
X24910876Y-9528264D02*
X24646639Y-9587828D01*
X21716934Y-9974624D02*
X21452066Y-9995083D01*
X24115879Y-9691400D02*
X23849631Y-9736153D01*
X23049062Y-9846758D02*
X22782055Y-9876984D01*
X23582987Y-9776715D02*
X23316085Y-9813459D01*
X26754590Y-8911818D02*
X26379772Y-9070409D01*
X23849631Y-9736153D02*
X23582987Y-9776715D01*
X19075148Y-10190045D02*
X18654349Y-10237421D01*
X11776670Y-11445667D02*
X11603545Y-11479551D01*
X12635825Y-11275850D02*
X12465062Y-11309744D01*
X17391352Y-10407226D02*
X16970615Y-10471816D01*
X18654349Y-10237421D02*
X18233357Y-10289657D01*
X19941699Y-10108617D02*
X19852428Y-10116083D01*
X20835528Y-10040392D02*
X20746077Y-10046922D01*
X13216833Y-11160437D02*
X12805932Y-11242064D01*
X21452066Y-9995083D02*
X21188039Y-10014707D01*
X14875114Y-10837965D02*
X14458619Y-10917235D01*
X19852428Y-10116083D02*
X19763182Y-10123729D01*
X15711124Y-10684352D02*
X15292662Y-10760214D01*
X20567210Y-10060068D02*
X20477797Y-10066715D01*
X22515201Y-9904511D02*
X22248638Y-9929711D01*
X16550239Y-10539782D02*
X16130363Y-10610751D01*
X16970615Y-10471816D02*
X16550239Y-10539782D01*
X17812312Y-10346382D02*
X17391352Y-10407226D01*
X21188039Y-10014707D02*
X20924988Y-10033869D01*
X20388399Y-10073432D02*
X20299019Y-10080235D01*
X24381594Y-9642083D02*
X24115879Y-9691400D01*
X19673964Y-10131571D02*
X19584776Y-10139623D01*
X19763182Y-10123729D02*
X19673964Y-10131571D01*
X20120316Y-10094160D02*
X20030996Y-10101314D01*
X20656637Y-10053476D02*
X20567210Y-10060068D01*
X21982503Y-9952958D02*
X21716934Y-9974624D01*
X24646639Y-9587828D02*
X24381594Y-9642083D01*
X11603545Y-11479551D02*
X11430133Y-11513322D01*
X14043315Y-10997651D02*
X13629340Y-11078842D01*
X25589098Y-9346335D02*
X25174169Y-9463017D01*
X22248638Y-9929711D02*
X21982503Y-9952958D01*
X12805932Y-11242064D02*
X12635825Y-11275850D01*
X19584776Y-10139623D02*
X19495618Y-10147902D01*
X22782055Y-9876984D02*
X22515201Y-9904511D01*
X20746077Y-10046922D02*
X20656637Y-10053476D01*
X10908785Y-11613593D02*
X10734837Y-11646545D01*
X11949446Y-11411708D02*
X11776670Y-11445667D01*
X12293704Y-11343709D02*
X12121811Y-11377710D01*
X25174169Y-9463017D02*
X24910876Y-9528264D01*
X11082691Y-11580380D02*
X10908785Y-11613593D01*
X11256494Y-11546944D02*
X11082691Y-11580380D01*
X11430133Y-11513322D02*
X11256494Y-11546944D01*
X12121811Y-11377710D02*
X11949446Y-11411708D01*
X12465062Y-11309744D02*
X12293704Y-11343709D01*
X13629340Y-11078842D02*
X13216833Y-11160437D01*
X20030996Y-10101314D02*
X19941699Y-10108617D01*
X20299019Y-10080235D02*
X20209657Y-10087139D01*
X14458619Y-10917235D02*
X14043315Y-10997651D01*
X15292662Y-10760214D02*
X14875114Y-10837965D01*
X31560744Y2951369D02*
X31552532Y2933594D01*
X30853358Y-2193267D02*
X30840000Y-2500000D01*
X30863314Y-1886737D02*
X30853358Y-2193267D01*
X30877525Y-1275748D02*
X30870994Y-1580775D01*
X31503970Y2827223D02*
X31496037Y2809537D01*
X31711224Y3281170D02*
X31669497Y3187513D01*
X31480350Y2774195D02*
X31472605Y2756538D01*
X30889650Y-741419D02*
X30883245Y-1007596D01*
X30957331Y556323D02*
X30936623Y301530D01*
X31097770Y1548685D02*
X31052568Y1304817D01*
X31536191Y2898086D02*
X31528071Y2880352D01*
X31464931Y2738891D02*
X31457334Y2721252D01*
X31552532Y2933594D02*
X31544346Y2915833D01*
X30897466Y-477316D02*
X30889650Y-741419D01*
X30936623Y301530D02*
X30920227Y44259D01*
X31052568Y1304817D02*
X31014578Y1058067D01*
X31150909Y1789569D02*
X31097770Y1548685D01*
X31472605Y2756538D02*
X31464931Y2738891D01*
X31283897Y2261983D02*
X31212710Y2027369D01*
X31457334Y2721252D02*
X31365197Y2493311D01*
X31627412Y3095390D02*
X31585492Y3004784D01*
X31496037Y2809537D02*
X31488162Y2791861D01*
X31669497Y3187513D02*
X31627412Y3095390D01*
X30907416Y-215390D02*
X30897466Y-477316D01*
X30146536Y-5782774D02*
X30004537Y-6063397D01*
X30380923Y-5209330D02*
X30271623Y-5497963D01*
X30625363Y-4324156D02*
X30556667Y-4622060D01*
X27115111Y-8739910D02*
X26754590Y-8911818D01*
X27460869Y-8555012D02*
X27115111Y-8739910D01*
X27791403Y-8357450D02*
X27460869Y-8555012D01*
X31577228Y2986963D02*
X31568977Y2969158D01*
X31365197Y2493311D02*
X31283897Y2261983D01*
X31519992Y2862630D02*
X31511956Y2844921D01*
X30920227Y44259D02*
X30907416Y-215390D01*
X28106247Y-8147550D02*
X27791403Y-8357450D01*
X28404938Y-7925640D02*
X28106247Y-8147550D01*
X30798575Y-3112609D02*
X30768256Y-3417753D01*
X31585492Y3004784D02*
X31577228Y2986963D01*
X31511956Y2844921D02*
X31503970Y2827223D01*
X31014578Y1058067D02*
X30983074Y808535D01*
X28687012Y-7692046D02*
X28404938Y-7925640D01*
X30883245Y-1007596D02*
X30877525Y-1275748D01*
X30475563Y-4917240D02*
X30380923Y-5209330D01*
X28952006Y-7447094D02*
X28687012Y-7692046D01*
X31212710Y2027369D02*
X31150909Y1789569D01*
X30822114Y-2806569D02*
X30798575Y-3112609D01*
X31528071Y2880352D02*
X31519992Y2862630D01*
X29831902Y-6360240D02*
X29639868Y-6647357D01*
X29199456Y-7191111D02*
X28952006Y-7447094D01*
X30730031Y-3721636D02*
X30682776Y-4023892D01*
X31568977Y2969158D02*
X31560744Y2951369D01*
X31488162Y2791861D02*
X31480350Y2774195D01*
X29428898Y-6924423D02*
X29199456Y-7191111D01*
X30271623Y-5497963D02*
X30146536Y-5782774D01*
X31544346Y2915833D02*
X31536191Y2898086D01*
X29639868Y-6647357D02*
X29428898Y-6924423D01*
X30004537Y-6063397D02*
X29831902Y-6360240D01*
X30870994Y-1580775D02*
X30863314Y-1886737D01*
X31752073Y3376375D02*
X31711224Y3281170D01*
X30556667Y-4622060D02*
X30475563Y-4917240D01*
X30983074Y808535D02*
X30957331Y556323D01*
X30682776Y-4023892D02*
X30625363Y-4324156D01*
X30768256Y-3417753D02*
X30730031Y-3721636D01*
X30840000Y-2500000D02*
X30822114Y-2806569D01*
M02*
