G04 #@! TF.GenerationSoftware,KiCad,Pcbnew,(5.1.0)-1*
G04 #@! TF.CreationDate,2019-07-24T00:39:13-06:00*
G04 #@! TF.ProjectId,twinkletwinkie,7477696e-6b6c-4657-9477-696e6b69652e,rev?*
G04 #@! TF.SameCoordinates,PX89e92d0PY44794c0*
G04 #@! TF.FileFunction,Paste,Bot*
G04 #@! TF.FilePolarity,Positive*
%FSLAX46Y46*%
G04 Gerber Fmt 4.6, Leading zero omitted, Abs format (unit mm)*
G04 Created by KiCad (PCBNEW (5.1.0)-1) date 2019-07-24 00:39:13*
%MOMM*%
%LPD*%
G04 APERTURE LIST*
%ADD10C,0.100000*%
%ADD11C,0.875000*%
%ADD12R,0.889000X1.270000*%
%ADD13C,0.143431*%
%ADD14C,0.200000*%
%ADD15C,0.690000*%
G04 APERTURE END LIST*
D10*
G36*
X-12802309Y2348947D02*
G01*
X-12781074Y2345797D01*
X-12760250Y2340581D01*
X-12740038Y2333349D01*
X-12720632Y2324170D01*
X-12702219Y2313134D01*
X-12684976Y2300346D01*
X-12669070Y2285930D01*
X-12654654Y2270024D01*
X-12641866Y2252781D01*
X-12630830Y2234368D01*
X-12621651Y2214962D01*
X-12614419Y2194750D01*
X-12609203Y2173926D01*
X-12606053Y2152691D01*
X-12605000Y2131250D01*
X-12605000Y1693750D01*
X-12606053Y1672309D01*
X-12609203Y1651074D01*
X-12614419Y1630250D01*
X-12621651Y1610038D01*
X-12630830Y1590632D01*
X-12641866Y1572219D01*
X-12654654Y1554976D01*
X-12669070Y1539070D01*
X-12684976Y1524654D01*
X-12702219Y1511866D01*
X-12720632Y1500830D01*
X-12740038Y1491651D01*
X-12760250Y1484419D01*
X-12781074Y1479203D01*
X-12802309Y1476053D01*
X-12823750Y1475000D01*
X-13336250Y1475000D01*
X-13357691Y1476053D01*
X-13378926Y1479203D01*
X-13399750Y1484419D01*
X-13419962Y1491651D01*
X-13439368Y1500830D01*
X-13457781Y1511866D01*
X-13475024Y1524654D01*
X-13490930Y1539070D01*
X-13505346Y1554976D01*
X-13518134Y1572219D01*
X-13529170Y1590632D01*
X-13538349Y1610038D01*
X-13545581Y1630250D01*
X-13550797Y1651074D01*
X-13553947Y1672309D01*
X-13555000Y1693750D01*
X-13555000Y2131250D01*
X-13553947Y2152691D01*
X-13550797Y2173926D01*
X-13545581Y2194750D01*
X-13538349Y2214962D01*
X-13529170Y2234368D01*
X-13518134Y2252781D01*
X-13505346Y2270024D01*
X-13490930Y2285930D01*
X-13475024Y2300346D01*
X-13457781Y2313134D01*
X-13439368Y2324170D01*
X-13419962Y2333349D01*
X-13399750Y2340581D01*
X-13378926Y2345797D01*
X-13357691Y2348947D01*
X-13336250Y2350000D01*
X-12823750Y2350000D01*
X-12802309Y2348947D01*
X-12802309Y2348947D01*
G37*
D11*
X-13080000Y1912500D03*
D10*
G36*
X-12802309Y3923947D02*
G01*
X-12781074Y3920797D01*
X-12760250Y3915581D01*
X-12740038Y3908349D01*
X-12720632Y3899170D01*
X-12702219Y3888134D01*
X-12684976Y3875346D01*
X-12669070Y3860930D01*
X-12654654Y3845024D01*
X-12641866Y3827781D01*
X-12630830Y3809368D01*
X-12621651Y3789962D01*
X-12614419Y3769750D01*
X-12609203Y3748926D01*
X-12606053Y3727691D01*
X-12605000Y3706250D01*
X-12605000Y3268750D01*
X-12606053Y3247309D01*
X-12609203Y3226074D01*
X-12614419Y3205250D01*
X-12621651Y3185038D01*
X-12630830Y3165632D01*
X-12641866Y3147219D01*
X-12654654Y3129976D01*
X-12669070Y3114070D01*
X-12684976Y3099654D01*
X-12702219Y3086866D01*
X-12720632Y3075830D01*
X-12740038Y3066651D01*
X-12760250Y3059419D01*
X-12781074Y3054203D01*
X-12802309Y3051053D01*
X-12823750Y3050000D01*
X-13336250Y3050000D01*
X-13357691Y3051053D01*
X-13378926Y3054203D01*
X-13399750Y3059419D01*
X-13419962Y3066651D01*
X-13439368Y3075830D01*
X-13457781Y3086866D01*
X-13475024Y3099654D01*
X-13490930Y3114070D01*
X-13505346Y3129976D01*
X-13518134Y3147219D01*
X-13529170Y3165632D01*
X-13538349Y3185038D01*
X-13545581Y3205250D01*
X-13550797Y3226074D01*
X-13553947Y3247309D01*
X-13555000Y3268750D01*
X-13555000Y3706250D01*
X-13553947Y3727691D01*
X-13550797Y3748926D01*
X-13545581Y3769750D01*
X-13538349Y3789962D01*
X-13529170Y3809368D01*
X-13518134Y3827781D01*
X-13505346Y3845024D01*
X-13490930Y3860930D01*
X-13475024Y3875346D01*
X-13457781Y3888134D01*
X-13439368Y3899170D01*
X-13419962Y3908349D01*
X-13399750Y3915581D01*
X-13378926Y3920797D01*
X-13357691Y3923947D01*
X-13336250Y3925000D01*
X-12823750Y3925000D01*
X-12802309Y3923947D01*
X-12802309Y3923947D01*
G37*
D11*
X-13080000Y3487500D03*
D10*
G36*
X-6547309Y-8416053D02*
G01*
X-6526074Y-8419203D01*
X-6505250Y-8424419D01*
X-6485038Y-8431651D01*
X-6465632Y-8440830D01*
X-6447219Y-8451866D01*
X-6429976Y-8464654D01*
X-6414070Y-8479070D01*
X-6399654Y-8494976D01*
X-6386866Y-8512219D01*
X-6375830Y-8530632D01*
X-6366651Y-8550038D01*
X-6359419Y-8570250D01*
X-6354203Y-8591074D01*
X-6351053Y-8612309D01*
X-6350000Y-8633750D01*
X-6350000Y-9146250D01*
X-6351053Y-9167691D01*
X-6354203Y-9188926D01*
X-6359419Y-9209750D01*
X-6366651Y-9229962D01*
X-6375830Y-9249368D01*
X-6386866Y-9267781D01*
X-6399654Y-9285024D01*
X-6414070Y-9300930D01*
X-6429976Y-9315346D01*
X-6447219Y-9328134D01*
X-6465632Y-9339170D01*
X-6485038Y-9348349D01*
X-6505250Y-9355581D01*
X-6526074Y-9360797D01*
X-6547309Y-9363947D01*
X-6568750Y-9365000D01*
X-7006250Y-9365000D01*
X-7027691Y-9363947D01*
X-7048926Y-9360797D01*
X-7069750Y-9355581D01*
X-7089962Y-9348349D01*
X-7109368Y-9339170D01*
X-7127781Y-9328134D01*
X-7145024Y-9315346D01*
X-7160930Y-9300930D01*
X-7175346Y-9285024D01*
X-7188134Y-9267781D01*
X-7199170Y-9249368D01*
X-7208349Y-9229962D01*
X-7215581Y-9209750D01*
X-7220797Y-9188926D01*
X-7223947Y-9167691D01*
X-7225000Y-9146250D01*
X-7225000Y-8633750D01*
X-7223947Y-8612309D01*
X-7220797Y-8591074D01*
X-7215581Y-8570250D01*
X-7208349Y-8550038D01*
X-7199170Y-8530632D01*
X-7188134Y-8512219D01*
X-7175346Y-8494976D01*
X-7160930Y-8479070D01*
X-7145024Y-8464654D01*
X-7127781Y-8451866D01*
X-7109368Y-8440830D01*
X-7089962Y-8431651D01*
X-7069750Y-8424419D01*
X-7048926Y-8419203D01*
X-7027691Y-8416053D01*
X-7006250Y-8415000D01*
X-6568750Y-8415000D01*
X-6547309Y-8416053D01*
X-6547309Y-8416053D01*
G37*
D11*
X-6787500Y-8890000D03*
D10*
G36*
X-4972309Y-8416053D02*
G01*
X-4951074Y-8419203D01*
X-4930250Y-8424419D01*
X-4910038Y-8431651D01*
X-4890632Y-8440830D01*
X-4872219Y-8451866D01*
X-4854976Y-8464654D01*
X-4839070Y-8479070D01*
X-4824654Y-8494976D01*
X-4811866Y-8512219D01*
X-4800830Y-8530632D01*
X-4791651Y-8550038D01*
X-4784419Y-8570250D01*
X-4779203Y-8591074D01*
X-4776053Y-8612309D01*
X-4775000Y-8633750D01*
X-4775000Y-9146250D01*
X-4776053Y-9167691D01*
X-4779203Y-9188926D01*
X-4784419Y-9209750D01*
X-4791651Y-9229962D01*
X-4800830Y-9249368D01*
X-4811866Y-9267781D01*
X-4824654Y-9285024D01*
X-4839070Y-9300930D01*
X-4854976Y-9315346D01*
X-4872219Y-9328134D01*
X-4890632Y-9339170D01*
X-4910038Y-9348349D01*
X-4930250Y-9355581D01*
X-4951074Y-9360797D01*
X-4972309Y-9363947D01*
X-4993750Y-9365000D01*
X-5431250Y-9365000D01*
X-5452691Y-9363947D01*
X-5473926Y-9360797D01*
X-5494750Y-9355581D01*
X-5514962Y-9348349D01*
X-5534368Y-9339170D01*
X-5552781Y-9328134D01*
X-5570024Y-9315346D01*
X-5585930Y-9300930D01*
X-5600346Y-9285024D01*
X-5613134Y-9267781D01*
X-5624170Y-9249368D01*
X-5633349Y-9229962D01*
X-5640581Y-9209750D01*
X-5645797Y-9188926D01*
X-5648947Y-9167691D01*
X-5650000Y-9146250D01*
X-5650000Y-8633750D01*
X-5648947Y-8612309D01*
X-5645797Y-8591074D01*
X-5640581Y-8570250D01*
X-5633349Y-8550038D01*
X-5624170Y-8530632D01*
X-5613134Y-8512219D01*
X-5600346Y-8494976D01*
X-5585930Y-8479070D01*
X-5570024Y-8464654D01*
X-5552781Y-8451866D01*
X-5534368Y-8440830D01*
X-5514962Y-8431651D01*
X-5494750Y-8424419D01*
X-5473926Y-8419203D01*
X-5452691Y-8416053D01*
X-5431250Y-8415000D01*
X-4993750Y-8415000D01*
X-4972309Y-8416053D01*
X-4972309Y-8416053D01*
G37*
D11*
X-5212500Y-8890000D03*
D12*
X11151000Y-6010000D03*
X12929000Y-6010000D03*
X-10659000Y-8890000D03*
X-8881000Y-8890000D03*
X19911000Y-4780000D03*
X21689000Y-4780000D03*
D13*
X-12240000Y-3290000D03*
D10*
G36*
X-12180245Y-2890961D02*
G01*
X-12170866Y-2893806D01*
X-12162221Y-2898427D01*
X-12154645Y-2904645D01*
X-12148427Y-2912221D01*
X-12143806Y-2920866D01*
X-12140961Y-2930245D01*
X-12140000Y-2940000D01*
X-12140000Y-3640000D01*
X-12140961Y-3649755D01*
X-12143806Y-3659134D01*
X-12148427Y-3667779D01*
X-12154645Y-3675355D01*
X-12162221Y-3681573D01*
X-12170866Y-3686194D01*
X-12180245Y-3689039D01*
X-12190000Y-3690000D01*
X-12290000Y-3690000D01*
X-12299755Y-3689039D01*
X-12309134Y-3686194D01*
X-12317779Y-3681573D01*
X-12325355Y-3675355D01*
X-12331573Y-3667779D01*
X-12336194Y-3659134D01*
X-12339039Y-3649755D01*
X-12340000Y-3640000D01*
X-12340000Y-2990711D01*
X-12339039Y-2980956D01*
X-12336194Y-2971577D01*
X-12331573Y-2962932D01*
X-12325355Y-2955356D01*
X-12274644Y-2904645D01*
X-12267068Y-2898427D01*
X-12258423Y-2893806D01*
X-12249044Y-2890961D01*
X-12239289Y-2890000D01*
X-12190000Y-2890000D01*
X-12180245Y-2890961D01*
X-12180245Y-2890961D01*
G37*
G36*
X-11785099Y-2890241D02*
G01*
X-11780245Y-2890961D01*
X-11775486Y-2892153D01*
X-11770866Y-2893806D01*
X-11766430Y-2895904D01*
X-11762221Y-2898427D01*
X-11758280Y-2901349D01*
X-11754645Y-2904645D01*
X-11751349Y-2908280D01*
X-11748427Y-2912221D01*
X-11745904Y-2916430D01*
X-11743806Y-2920866D01*
X-11742153Y-2925486D01*
X-11740961Y-2930245D01*
X-11740241Y-2935099D01*
X-11740000Y-2940000D01*
X-11740000Y-3640000D01*
X-11740241Y-3644901D01*
X-11740961Y-3649755D01*
X-11742153Y-3654514D01*
X-11743806Y-3659134D01*
X-11745904Y-3663570D01*
X-11748427Y-3667779D01*
X-11751349Y-3671720D01*
X-11754645Y-3675355D01*
X-11758280Y-3678651D01*
X-11762221Y-3681573D01*
X-11766430Y-3684096D01*
X-11770866Y-3686194D01*
X-11775486Y-3687847D01*
X-11780245Y-3689039D01*
X-11785099Y-3689759D01*
X-11790000Y-3690000D01*
X-11890000Y-3690000D01*
X-11894901Y-3689759D01*
X-11899755Y-3689039D01*
X-11904514Y-3687847D01*
X-11909134Y-3686194D01*
X-11913570Y-3684096D01*
X-11917779Y-3681573D01*
X-11921720Y-3678651D01*
X-11925355Y-3675355D01*
X-11928651Y-3671720D01*
X-11931573Y-3667779D01*
X-11934096Y-3663570D01*
X-11936194Y-3659134D01*
X-11937847Y-3654514D01*
X-11939039Y-3649755D01*
X-11939759Y-3644901D01*
X-11940000Y-3640000D01*
X-11940000Y-2940000D01*
X-11939759Y-2935099D01*
X-11939039Y-2930245D01*
X-11937847Y-2925486D01*
X-11936194Y-2920866D01*
X-11934096Y-2916430D01*
X-11931573Y-2912221D01*
X-11928651Y-2908280D01*
X-11925355Y-2904645D01*
X-11921720Y-2901349D01*
X-11917779Y-2898427D01*
X-11913570Y-2895904D01*
X-11909134Y-2893806D01*
X-11904514Y-2892153D01*
X-11899755Y-2890961D01*
X-11894901Y-2890241D01*
X-11890000Y-2890000D01*
X-11790000Y-2890000D01*
X-11785099Y-2890241D01*
X-11785099Y-2890241D01*
G37*
D14*
X-11840000Y-3290000D03*
D10*
G36*
X-11385099Y-2890241D02*
G01*
X-11380245Y-2890961D01*
X-11375486Y-2892153D01*
X-11370866Y-2893806D01*
X-11366430Y-2895904D01*
X-11362221Y-2898427D01*
X-11358280Y-2901349D01*
X-11354645Y-2904645D01*
X-11351349Y-2908280D01*
X-11348427Y-2912221D01*
X-11345904Y-2916430D01*
X-11343806Y-2920866D01*
X-11342153Y-2925486D01*
X-11340961Y-2930245D01*
X-11340241Y-2935099D01*
X-11340000Y-2940000D01*
X-11340000Y-3640000D01*
X-11340241Y-3644901D01*
X-11340961Y-3649755D01*
X-11342153Y-3654514D01*
X-11343806Y-3659134D01*
X-11345904Y-3663570D01*
X-11348427Y-3667779D01*
X-11351349Y-3671720D01*
X-11354645Y-3675355D01*
X-11358280Y-3678651D01*
X-11362221Y-3681573D01*
X-11366430Y-3684096D01*
X-11370866Y-3686194D01*
X-11375486Y-3687847D01*
X-11380245Y-3689039D01*
X-11385099Y-3689759D01*
X-11390000Y-3690000D01*
X-11490000Y-3690000D01*
X-11494901Y-3689759D01*
X-11499755Y-3689039D01*
X-11504514Y-3687847D01*
X-11509134Y-3686194D01*
X-11513570Y-3684096D01*
X-11517779Y-3681573D01*
X-11521720Y-3678651D01*
X-11525355Y-3675355D01*
X-11528651Y-3671720D01*
X-11531573Y-3667779D01*
X-11534096Y-3663570D01*
X-11536194Y-3659134D01*
X-11537847Y-3654514D01*
X-11539039Y-3649755D01*
X-11539759Y-3644901D01*
X-11540000Y-3640000D01*
X-11540000Y-2940000D01*
X-11539759Y-2935099D01*
X-11539039Y-2930245D01*
X-11537847Y-2925486D01*
X-11536194Y-2920866D01*
X-11534096Y-2916430D01*
X-11531573Y-2912221D01*
X-11528651Y-2908280D01*
X-11525355Y-2904645D01*
X-11521720Y-2901349D01*
X-11517779Y-2898427D01*
X-11513570Y-2895904D01*
X-11509134Y-2893806D01*
X-11504514Y-2892153D01*
X-11499755Y-2890961D01*
X-11494901Y-2890241D01*
X-11490000Y-2890000D01*
X-11390000Y-2890000D01*
X-11385099Y-2890241D01*
X-11385099Y-2890241D01*
G37*
D14*
X-11440000Y-3290000D03*
D10*
G36*
X-10985099Y-2890241D02*
G01*
X-10980245Y-2890961D01*
X-10975486Y-2892153D01*
X-10970866Y-2893806D01*
X-10966430Y-2895904D01*
X-10962221Y-2898427D01*
X-10958280Y-2901349D01*
X-10954645Y-2904645D01*
X-10951349Y-2908280D01*
X-10948427Y-2912221D01*
X-10945904Y-2916430D01*
X-10943806Y-2920866D01*
X-10942153Y-2925486D01*
X-10940961Y-2930245D01*
X-10940241Y-2935099D01*
X-10940000Y-2940000D01*
X-10940000Y-3640000D01*
X-10940241Y-3644901D01*
X-10940961Y-3649755D01*
X-10942153Y-3654514D01*
X-10943806Y-3659134D01*
X-10945904Y-3663570D01*
X-10948427Y-3667779D01*
X-10951349Y-3671720D01*
X-10954645Y-3675355D01*
X-10958280Y-3678651D01*
X-10962221Y-3681573D01*
X-10966430Y-3684096D01*
X-10970866Y-3686194D01*
X-10975486Y-3687847D01*
X-10980245Y-3689039D01*
X-10985099Y-3689759D01*
X-10990000Y-3690000D01*
X-11090000Y-3690000D01*
X-11094901Y-3689759D01*
X-11099755Y-3689039D01*
X-11104514Y-3687847D01*
X-11109134Y-3686194D01*
X-11113570Y-3684096D01*
X-11117779Y-3681573D01*
X-11121720Y-3678651D01*
X-11125355Y-3675355D01*
X-11128651Y-3671720D01*
X-11131573Y-3667779D01*
X-11134096Y-3663570D01*
X-11136194Y-3659134D01*
X-11137847Y-3654514D01*
X-11139039Y-3649755D01*
X-11139759Y-3644901D01*
X-11140000Y-3640000D01*
X-11140000Y-2940000D01*
X-11139759Y-2935099D01*
X-11139039Y-2930245D01*
X-11137847Y-2925486D01*
X-11136194Y-2920866D01*
X-11134096Y-2916430D01*
X-11131573Y-2912221D01*
X-11128651Y-2908280D01*
X-11125355Y-2904645D01*
X-11121720Y-2901349D01*
X-11117779Y-2898427D01*
X-11113570Y-2895904D01*
X-11109134Y-2893806D01*
X-11104514Y-2892153D01*
X-11099755Y-2890961D01*
X-11094901Y-2890241D01*
X-11090000Y-2890000D01*
X-10990000Y-2890000D01*
X-10985099Y-2890241D01*
X-10985099Y-2890241D01*
G37*
D14*
X-11040000Y-3290000D03*
D13*
X-10640000Y-3290000D03*
D10*
G36*
X-10630956Y-2890961D02*
G01*
X-10621577Y-2893806D01*
X-10612932Y-2898427D01*
X-10605356Y-2904645D01*
X-10554645Y-2955356D01*
X-10548427Y-2962932D01*
X-10543806Y-2971577D01*
X-10540961Y-2980956D01*
X-10540000Y-2990711D01*
X-10540000Y-3640000D01*
X-10540961Y-3649755D01*
X-10543806Y-3659134D01*
X-10548427Y-3667779D01*
X-10554645Y-3675355D01*
X-10562221Y-3681573D01*
X-10570866Y-3686194D01*
X-10580245Y-3689039D01*
X-10590000Y-3690000D01*
X-10690000Y-3690000D01*
X-10699755Y-3689039D01*
X-10709134Y-3686194D01*
X-10717779Y-3681573D01*
X-10725355Y-3675355D01*
X-10731573Y-3667779D01*
X-10736194Y-3659134D01*
X-10739039Y-3649755D01*
X-10740000Y-3640000D01*
X-10740000Y-2940000D01*
X-10739039Y-2930245D01*
X-10736194Y-2920866D01*
X-10731573Y-2912221D01*
X-10725355Y-2904645D01*
X-10717779Y-2898427D01*
X-10709134Y-2893806D01*
X-10699755Y-2890961D01*
X-10690000Y-2890000D01*
X-10640711Y-2890000D01*
X-10630956Y-2890961D01*
X-10630956Y-2890961D01*
G37*
D13*
X-9990000Y-2640000D03*
D10*
G36*
X-9630245Y-2540961D02*
G01*
X-9620866Y-2543806D01*
X-9612221Y-2548427D01*
X-9604645Y-2554645D01*
X-9598427Y-2562221D01*
X-9593806Y-2570866D01*
X-9590961Y-2580245D01*
X-9590000Y-2590000D01*
X-9590000Y-2690000D01*
X-9590961Y-2699755D01*
X-9593806Y-2709134D01*
X-9598427Y-2717779D01*
X-9604645Y-2725355D01*
X-9612221Y-2731573D01*
X-9620866Y-2736194D01*
X-9630245Y-2739039D01*
X-9640000Y-2740000D01*
X-10289289Y-2740000D01*
X-10299044Y-2739039D01*
X-10308423Y-2736194D01*
X-10317068Y-2731573D01*
X-10324644Y-2725355D01*
X-10375355Y-2674644D01*
X-10381573Y-2667068D01*
X-10386194Y-2658423D01*
X-10389039Y-2649044D01*
X-10390000Y-2639289D01*
X-10390000Y-2590000D01*
X-10389039Y-2580245D01*
X-10386194Y-2570866D01*
X-10381573Y-2562221D01*
X-10375355Y-2554645D01*
X-10367779Y-2548427D01*
X-10359134Y-2543806D01*
X-10349755Y-2540961D01*
X-10340000Y-2540000D01*
X-9640000Y-2540000D01*
X-9630245Y-2540961D01*
X-9630245Y-2540961D01*
G37*
G36*
X-9635099Y-2140241D02*
G01*
X-9630245Y-2140961D01*
X-9625486Y-2142153D01*
X-9620866Y-2143806D01*
X-9616430Y-2145904D01*
X-9612221Y-2148427D01*
X-9608280Y-2151349D01*
X-9604645Y-2154645D01*
X-9601349Y-2158280D01*
X-9598427Y-2162221D01*
X-9595904Y-2166430D01*
X-9593806Y-2170866D01*
X-9592153Y-2175486D01*
X-9590961Y-2180245D01*
X-9590241Y-2185099D01*
X-9590000Y-2190000D01*
X-9590000Y-2290000D01*
X-9590241Y-2294901D01*
X-9590961Y-2299755D01*
X-9592153Y-2304514D01*
X-9593806Y-2309134D01*
X-9595904Y-2313570D01*
X-9598427Y-2317779D01*
X-9601349Y-2321720D01*
X-9604645Y-2325355D01*
X-9608280Y-2328651D01*
X-9612221Y-2331573D01*
X-9616430Y-2334096D01*
X-9620866Y-2336194D01*
X-9625486Y-2337847D01*
X-9630245Y-2339039D01*
X-9635099Y-2339759D01*
X-9640000Y-2340000D01*
X-10340000Y-2340000D01*
X-10344901Y-2339759D01*
X-10349755Y-2339039D01*
X-10354514Y-2337847D01*
X-10359134Y-2336194D01*
X-10363570Y-2334096D01*
X-10367779Y-2331573D01*
X-10371720Y-2328651D01*
X-10375355Y-2325355D01*
X-10378651Y-2321720D01*
X-10381573Y-2317779D01*
X-10384096Y-2313570D01*
X-10386194Y-2309134D01*
X-10387847Y-2304514D01*
X-10389039Y-2299755D01*
X-10389759Y-2294901D01*
X-10390000Y-2290000D01*
X-10390000Y-2190000D01*
X-10389759Y-2185099D01*
X-10389039Y-2180245D01*
X-10387847Y-2175486D01*
X-10386194Y-2170866D01*
X-10384096Y-2166430D01*
X-10381573Y-2162221D01*
X-10378651Y-2158280D01*
X-10375355Y-2154645D01*
X-10371720Y-2151349D01*
X-10367779Y-2148427D01*
X-10363570Y-2145904D01*
X-10359134Y-2143806D01*
X-10354514Y-2142153D01*
X-10349755Y-2140961D01*
X-10344901Y-2140241D01*
X-10340000Y-2140000D01*
X-9640000Y-2140000D01*
X-9635099Y-2140241D01*
X-9635099Y-2140241D01*
G37*
D14*
X-9990000Y-2240000D03*
D10*
G36*
X-9635099Y-1740241D02*
G01*
X-9630245Y-1740961D01*
X-9625486Y-1742153D01*
X-9620866Y-1743806D01*
X-9616430Y-1745904D01*
X-9612221Y-1748427D01*
X-9608280Y-1751349D01*
X-9604645Y-1754645D01*
X-9601349Y-1758280D01*
X-9598427Y-1762221D01*
X-9595904Y-1766430D01*
X-9593806Y-1770866D01*
X-9592153Y-1775486D01*
X-9590961Y-1780245D01*
X-9590241Y-1785099D01*
X-9590000Y-1790000D01*
X-9590000Y-1890000D01*
X-9590241Y-1894901D01*
X-9590961Y-1899755D01*
X-9592153Y-1904514D01*
X-9593806Y-1909134D01*
X-9595904Y-1913570D01*
X-9598427Y-1917779D01*
X-9601349Y-1921720D01*
X-9604645Y-1925355D01*
X-9608280Y-1928651D01*
X-9612221Y-1931573D01*
X-9616430Y-1934096D01*
X-9620866Y-1936194D01*
X-9625486Y-1937847D01*
X-9630245Y-1939039D01*
X-9635099Y-1939759D01*
X-9640000Y-1940000D01*
X-10340000Y-1940000D01*
X-10344901Y-1939759D01*
X-10349755Y-1939039D01*
X-10354514Y-1937847D01*
X-10359134Y-1936194D01*
X-10363570Y-1934096D01*
X-10367779Y-1931573D01*
X-10371720Y-1928651D01*
X-10375355Y-1925355D01*
X-10378651Y-1921720D01*
X-10381573Y-1917779D01*
X-10384096Y-1913570D01*
X-10386194Y-1909134D01*
X-10387847Y-1904514D01*
X-10389039Y-1899755D01*
X-10389759Y-1894901D01*
X-10390000Y-1890000D01*
X-10390000Y-1790000D01*
X-10389759Y-1785099D01*
X-10389039Y-1780245D01*
X-10387847Y-1775486D01*
X-10386194Y-1770866D01*
X-10384096Y-1766430D01*
X-10381573Y-1762221D01*
X-10378651Y-1758280D01*
X-10375355Y-1754645D01*
X-10371720Y-1751349D01*
X-10367779Y-1748427D01*
X-10363570Y-1745904D01*
X-10359134Y-1743806D01*
X-10354514Y-1742153D01*
X-10349755Y-1740961D01*
X-10344901Y-1740241D01*
X-10340000Y-1740000D01*
X-9640000Y-1740000D01*
X-9635099Y-1740241D01*
X-9635099Y-1740241D01*
G37*
D14*
X-9990000Y-1840000D03*
D10*
G36*
X-9635099Y-1340241D02*
G01*
X-9630245Y-1340961D01*
X-9625486Y-1342153D01*
X-9620866Y-1343806D01*
X-9616430Y-1345904D01*
X-9612221Y-1348427D01*
X-9608280Y-1351349D01*
X-9604645Y-1354645D01*
X-9601349Y-1358280D01*
X-9598427Y-1362221D01*
X-9595904Y-1366430D01*
X-9593806Y-1370866D01*
X-9592153Y-1375486D01*
X-9590961Y-1380245D01*
X-9590241Y-1385099D01*
X-9590000Y-1390000D01*
X-9590000Y-1490000D01*
X-9590241Y-1494901D01*
X-9590961Y-1499755D01*
X-9592153Y-1504514D01*
X-9593806Y-1509134D01*
X-9595904Y-1513570D01*
X-9598427Y-1517779D01*
X-9601349Y-1521720D01*
X-9604645Y-1525355D01*
X-9608280Y-1528651D01*
X-9612221Y-1531573D01*
X-9616430Y-1534096D01*
X-9620866Y-1536194D01*
X-9625486Y-1537847D01*
X-9630245Y-1539039D01*
X-9635099Y-1539759D01*
X-9640000Y-1540000D01*
X-10340000Y-1540000D01*
X-10344901Y-1539759D01*
X-10349755Y-1539039D01*
X-10354514Y-1537847D01*
X-10359134Y-1536194D01*
X-10363570Y-1534096D01*
X-10367779Y-1531573D01*
X-10371720Y-1528651D01*
X-10375355Y-1525355D01*
X-10378651Y-1521720D01*
X-10381573Y-1517779D01*
X-10384096Y-1513570D01*
X-10386194Y-1509134D01*
X-10387847Y-1504514D01*
X-10389039Y-1499755D01*
X-10389759Y-1494901D01*
X-10390000Y-1490000D01*
X-10390000Y-1390000D01*
X-10389759Y-1385099D01*
X-10389039Y-1380245D01*
X-10387847Y-1375486D01*
X-10386194Y-1370866D01*
X-10384096Y-1366430D01*
X-10381573Y-1362221D01*
X-10378651Y-1358280D01*
X-10375355Y-1354645D01*
X-10371720Y-1351349D01*
X-10367779Y-1348427D01*
X-10363570Y-1345904D01*
X-10359134Y-1343806D01*
X-10354514Y-1342153D01*
X-10349755Y-1340961D01*
X-10344901Y-1340241D01*
X-10340000Y-1340000D01*
X-9640000Y-1340000D01*
X-9635099Y-1340241D01*
X-9635099Y-1340241D01*
G37*
D14*
X-9990000Y-1440000D03*
D13*
X-9990000Y-1040000D03*
D10*
G36*
X-9630245Y-940961D02*
G01*
X-9620866Y-943806D01*
X-9612221Y-948427D01*
X-9604645Y-954645D01*
X-9598427Y-962221D01*
X-9593806Y-970866D01*
X-9590961Y-980245D01*
X-9590000Y-990000D01*
X-9590000Y-1090000D01*
X-9590961Y-1099755D01*
X-9593806Y-1109134D01*
X-9598427Y-1117779D01*
X-9604645Y-1125355D01*
X-9612221Y-1131573D01*
X-9620866Y-1136194D01*
X-9630245Y-1139039D01*
X-9640000Y-1140000D01*
X-10340000Y-1140000D01*
X-10349755Y-1139039D01*
X-10359134Y-1136194D01*
X-10367779Y-1131573D01*
X-10375355Y-1125355D01*
X-10381573Y-1117779D01*
X-10386194Y-1109134D01*
X-10389039Y-1099755D01*
X-10390000Y-1090000D01*
X-10390000Y-1040711D01*
X-10389039Y-1030956D01*
X-10386194Y-1021577D01*
X-10381573Y-1012932D01*
X-10375355Y-1005356D01*
X-10324644Y-954645D01*
X-10317068Y-948427D01*
X-10308423Y-943806D01*
X-10299044Y-940961D01*
X-10289289Y-940000D01*
X-9640000Y-940000D01*
X-9630245Y-940961D01*
X-9630245Y-940961D01*
G37*
D13*
X-10640000Y-390000D03*
D10*
G36*
X-10580245Y9039D02*
G01*
X-10570866Y6194D01*
X-10562221Y1573D01*
X-10554645Y-4645D01*
X-10548427Y-12221D01*
X-10543806Y-20866D01*
X-10540961Y-30245D01*
X-10540000Y-40000D01*
X-10540000Y-689289D01*
X-10540961Y-699044D01*
X-10543806Y-708423D01*
X-10548427Y-717068D01*
X-10554645Y-724644D01*
X-10605356Y-775355D01*
X-10612932Y-781573D01*
X-10621577Y-786194D01*
X-10630956Y-789039D01*
X-10640711Y-790000D01*
X-10690000Y-790000D01*
X-10699755Y-789039D01*
X-10709134Y-786194D01*
X-10717779Y-781573D01*
X-10725355Y-775355D01*
X-10731573Y-767779D01*
X-10736194Y-759134D01*
X-10739039Y-749755D01*
X-10740000Y-740000D01*
X-10740000Y-40000D01*
X-10739039Y-30245D01*
X-10736194Y-20866D01*
X-10731573Y-12221D01*
X-10725355Y-4645D01*
X-10717779Y1573D01*
X-10709134Y6194D01*
X-10699755Y9039D01*
X-10690000Y10000D01*
X-10590000Y10000D01*
X-10580245Y9039D01*
X-10580245Y9039D01*
G37*
G36*
X-10985099Y9759D02*
G01*
X-10980245Y9039D01*
X-10975486Y7847D01*
X-10970866Y6194D01*
X-10966430Y4096D01*
X-10962221Y1573D01*
X-10958280Y-1349D01*
X-10954645Y-4645D01*
X-10951349Y-8280D01*
X-10948427Y-12221D01*
X-10945904Y-16430D01*
X-10943806Y-20866D01*
X-10942153Y-25486D01*
X-10940961Y-30245D01*
X-10940241Y-35099D01*
X-10940000Y-40000D01*
X-10940000Y-740000D01*
X-10940241Y-744901D01*
X-10940961Y-749755D01*
X-10942153Y-754514D01*
X-10943806Y-759134D01*
X-10945904Y-763570D01*
X-10948427Y-767779D01*
X-10951349Y-771720D01*
X-10954645Y-775355D01*
X-10958280Y-778651D01*
X-10962221Y-781573D01*
X-10966430Y-784096D01*
X-10970866Y-786194D01*
X-10975486Y-787847D01*
X-10980245Y-789039D01*
X-10985099Y-789759D01*
X-10990000Y-790000D01*
X-11090000Y-790000D01*
X-11094901Y-789759D01*
X-11099755Y-789039D01*
X-11104514Y-787847D01*
X-11109134Y-786194D01*
X-11113570Y-784096D01*
X-11117779Y-781573D01*
X-11121720Y-778651D01*
X-11125355Y-775355D01*
X-11128651Y-771720D01*
X-11131573Y-767779D01*
X-11134096Y-763570D01*
X-11136194Y-759134D01*
X-11137847Y-754514D01*
X-11139039Y-749755D01*
X-11139759Y-744901D01*
X-11140000Y-740000D01*
X-11140000Y-40000D01*
X-11139759Y-35099D01*
X-11139039Y-30245D01*
X-11137847Y-25486D01*
X-11136194Y-20866D01*
X-11134096Y-16430D01*
X-11131573Y-12221D01*
X-11128651Y-8280D01*
X-11125355Y-4645D01*
X-11121720Y-1349D01*
X-11117779Y1573D01*
X-11113570Y4096D01*
X-11109134Y6194D01*
X-11104514Y7847D01*
X-11099755Y9039D01*
X-11094901Y9759D01*
X-11090000Y10000D01*
X-10990000Y10000D01*
X-10985099Y9759D01*
X-10985099Y9759D01*
G37*
D14*
X-11040000Y-390000D03*
D10*
G36*
X-11385099Y9759D02*
G01*
X-11380245Y9039D01*
X-11375486Y7847D01*
X-11370866Y6194D01*
X-11366430Y4096D01*
X-11362221Y1573D01*
X-11358280Y-1349D01*
X-11354645Y-4645D01*
X-11351349Y-8280D01*
X-11348427Y-12221D01*
X-11345904Y-16430D01*
X-11343806Y-20866D01*
X-11342153Y-25486D01*
X-11340961Y-30245D01*
X-11340241Y-35099D01*
X-11340000Y-40000D01*
X-11340000Y-740000D01*
X-11340241Y-744901D01*
X-11340961Y-749755D01*
X-11342153Y-754514D01*
X-11343806Y-759134D01*
X-11345904Y-763570D01*
X-11348427Y-767779D01*
X-11351349Y-771720D01*
X-11354645Y-775355D01*
X-11358280Y-778651D01*
X-11362221Y-781573D01*
X-11366430Y-784096D01*
X-11370866Y-786194D01*
X-11375486Y-787847D01*
X-11380245Y-789039D01*
X-11385099Y-789759D01*
X-11390000Y-790000D01*
X-11490000Y-790000D01*
X-11494901Y-789759D01*
X-11499755Y-789039D01*
X-11504514Y-787847D01*
X-11509134Y-786194D01*
X-11513570Y-784096D01*
X-11517779Y-781573D01*
X-11521720Y-778651D01*
X-11525355Y-775355D01*
X-11528651Y-771720D01*
X-11531573Y-767779D01*
X-11534096Y-763570D01*
X-11536194Y-759134D01*
X-11537847Y-754514D01*
X-11539039Y-749755D01*
X-11539759Y-744901D01*
X-11540000Y-740000D01*
X-11540000Y-40000D01*
X-11539759Y-35099D01*
X-11539039Y-30245D01*
X-11537847Y-25486D01*
X-11536194Y-20866D01*
X-11534096Y-16430D01*
X-11531573Y-12221D01*
X-11528651Y-8280D01*
X-11525355Y-4645D01*
X-11521720Y-1349D01*
X-11517779Y1573D01*
X-11513570Y4096D01*
X-11509134Y6194D01*
X-11504514Y7847D01*
X-11499755Y9039D01*
X-11494901Y9759D01*
X-11490000Y10000D01*
X-11390000Y10000D01*
X-11385099Y9759D01*
X-11385099Y9759D01*
G37*
D14*
X-11440000Y-390000D03*
D10*
G36*
X-11785099Y9759D02*
G01*
X-11780245Y9039D01*
X-11775486Y7847D01*
X-11770866Y6194D01*
X-11766430Y4096D01*
X-11762221Y1573D01*
X-11758280Y-1349D01*
X-11754645Y-4645D01*
X-11751349Y-8280D01*
X-11748427Y-12221D01*
X-11745904Y-16430D01*
X-11743806Y-20866D01*
X-11742153Y-25486D01*
X-11740961Y-30245D01*
X-11740241Y-35099D01*
X-11740000Y-40000D01*
X-11740000Y-740000D01*
X-11740241Y-744901D01*
X-11740961Y-749755D01*
X-11742153Y-754514D01*
X-11743806Y-759134D01*
X-11745904Y-763570D01*
X-11748427Y-767779D01*
X-11751349Y-771720D01*
X-11754645Y-775355D01*
X-11758280Y-778651D01*
X-11762221Y-781573D01*
X-11766430Y-784096D01*
X-11770866Y-786194D01*
X-11775486Y-787847D01*
X-11780245Y-789039D01*
X-11785099Y-789759D01*
X-11790000Y-790000D01*
X-11890000Y-790000D01*
X-11894901Y-789759D01*
X-11899755Y-789039D01*
X-11904514Y-787847D01*
X-11909134Y-786194D01*
X-11913570Y-784096D01*
X-11917779Y-781573D01*
X-11921720Y-778651D01*
X-11925355Y-775355D01*
X-11928651Y-771720D01*
X-11931573Y-767779D01*
X-11934096Y-763570D01*
X-11936194Y-759134D01*
X-11937847Y-754514D01*
X-11939039Y-749755D01*
X-11939759Y-744901D01*
X-11940000Y-740000D01*
X-11940000Y-40000D01*
X-11939759Y-35099D01*
X-11939039Y-30245D01*
X-11937847Y-25486D01*
X-11936194Y-20866D01*
X-11934096Y-16430D01*
X-11931573Y-12221D01*
X-11928651Y-8280D01*
X-11925355Y-4645D01*
X-11921720Y-1349D01*
X-11917779Y1573D01*
X-11913570Y4096D01*
X-11909134Y6194D01*
X-11904514Y7847D01*
X-11899755Y9039D01*
X-11894901Y9759D01*
X-11890000Y10000D01*
X-11790000Y10000D01*
X-11785099Y9759D01*
X-11785099Y9759D01*
G37*
D14*
X-11840000Y-390000D03*
D13*
X-12240000Y-390000D03*
D10*
G36*
X-12180245Y9039D02*
G01*
X-12170866Y6194D01*
X-12162221Y1573D01*
X-12154645Y-4645D01*
X-12148427Y-12221D01*
X-12143806Y-20866D01*
X-12140961Y-30245D01*
X-12140000Y-40000D01*
X-12140000Y-740000D01*
X-12140961Y-749755D01*
X-12143806Y-759134D01*
X-12148427Y-767779D01*
X-12154645Y-775355D01*
X-12162221Y-781573D01*
X-12170866Y-786194D01*
X-12180245Y-789039D01*
X-12190000Y-790000D01*
X-12239289Y-790000D01*
X-12249044Y-789039D01*
X-12258423Y-786194D01*
X-12267068Y-781573D01*
X-12274644Y-775355D01*
X-12325355Y-724644D01*
X-12331573Y-717068D01*
X-12336194Y-708423D01*
X-12339039Y-699044D01*
X-12340000Y-689289D01*
X-12340000Y-40000D01*
X-12339039Y-30245D01*
X-12336194Y-20866D01*
X-12331573Y-12221D01*
X-12325355Y-4645D01*
X-12317779Y1573D01*
X-12309134Y6194D01*
X-12299755Y9039D01*
X-12290000Y10000D01*
X-12190000Y10000D01*
X-12180245Y9039D01*
X-12180245Y9039D01*
G37*
D13*
X-12890000Y-1040000D03*
D10*
G36*
X-12580956Y-940961D02*
G01*
X-12571577Y-943806D01*
X-12562932Y-948427D01*
X-12555356Y-954645D01*
X-12504645Y-1005356D01*
X-12498427Y-1012932D01*
X-12493806Y-1021577D01*
X-12490961Y-1030956D01*
X-12490000Y-1040711D01*
X-12490000Y-1090000D01*
X-12490961Y-1099755D01*
X-12493806Y-1109134D01*
X-12498427Y-1117779D01*
X-12504645Y-1125355D01*
X-12512221Y-1131573D01*
X-12520866Y-1136194D01*
X-12530245Y-1139039D01*
X-12540000Y-1140000D01*
X-13240000Y-1140000D01*
X-13249755Y-1139039D01*
X-13259134Y-1136194D01*
X-13267779Y-1131573D01*
X-13275355Y-1125355D01*
X-13281573Y-1117779D01*
X-13286194Y-1109134D01*
X-13289039Y-1099755D01*
X-13290000Y-1090000D01*
X-13290000Y-990000D01*
X-13289039Y-980245D01*
X-13286194Y-970866D01*
X-13281573Y-962221D01*
X-13275355Y-954645D01*
X-13267779Y-948427D01*
X-13259134Y-943806D01*
X-13249755Y-940961D01*
X-13240000Y-940000D01*
X-12590711Y-940000D01*
X-12580956Y-940961D01*
X-12580956Y-940961D01*
G37*
G36*
X-12535099Y-1340241D02*
G01*
X-12530245Y-1340961D01*
X-12525486Y-1342153D01*
X-12520866Y-1343806D01*
X-12516430Y-1345904D01*
X-12512221Y-1348427D01*
X-12508280Y-1351349D01*
X-12504645Y-1354645D01*
X-12501349Y-1358280D01*
X-12498427Y-1362221D01*
X-12495904Y-1366430D01*
X-12493806Y-1370866D01*
X-12492153Y-1375486D01*
X-12490961Y-1380245D01*
X-12490241Y-1385099D01*
X-12490000Y-1390000D01*
X-12490000Y-1490000D01*
X-12490241Y-1494901D01*
X-12490961Y-1499755D01*
X-12492153Y-1504514D01*
X-12493806Y-1509134D01*
X-12495904Y-1513570D01*
X-12498427Y-1517779D01*
X-12501349Y-1521720D01*
X-12504645Y-1525355D01*
X-12508280Y-1528651D01*
X-12512221Y-1531573D01*
X-12516430Y-1534096D01*
X-12520866Y-1536194D01*
X-12525486Y-1537847D01*
X-12530245Y-1539039D01*
X-12535099Y-1539759D01*
X-12540000Y-1540000D01*
X-13240000Y-1540000D01*
X-13244901Y-1539759D01*
X-13249755Y-1539039D01*
X-13254514Y-1537847D01*
X-13259134Y-1536194D01*
X-13263570Y-1534096D01*
X-13267779Y-1531573D01*
X-13271720Y-1528651D01*
X-13275355Y-1525355D01*
X-13278651Y-1521720D01*
X-13281573Y-1517779D01*
X-13284096Y-1513570D01*
X-13286194Y-1509134D01*
X-13287847Y-1504514D01*
X-13289039Y-1499755D01*
X-13289759Y-1494901D01*
X-13290000Y-1490000D01*
X-13290000Y-1390000D01*
X-13289759Y-1385099D01*
X-13289039Y-1380245D01*
X-13287847Y-1375486D01*
X-13286194Y-1370866D01*
X-13284096Y-1366430D01*
X-13281573Y-1362221D01*
X-13278651Y-1358280D01*
X-13275355Y-1354645D01*
X-13271720Y-1351349D01*
X-13267779Y-1348427D01*
X-13263570Y-1345904D01*
X-13259134Y-1343806D01*
X-13254514Y-1342153D01*
X-13249755Y-1340961D01*
X-13244901Y-1340241D01*
X-13240000Y-1340000D01*
X-12540000Y-1340000D01*
X-12535099Y-1340241D01*
X-12535099Y-1340241D01*
G37*
D14*
X-12890000Y-1440000D03*
D10*
G36*
X-12535099Y-1740241D02*
G01*
X-12530245Y-1740961D01*
X-12525486Y-1742153D01*
X-12520866Y-1743806D01*
X-12516430Y-1745904D01*
X-12512221Y-1748427D01*
X-12508280Y-1751349D01*
X-12504645Y-1754645D01*
X-12501349Y-1758280D01*
X-12498427Y-1762221D01*
X-12495904Y-1766430D01*
X-12493806Y-1770866D01*
X-12492153Y-1775486D01*
X-12490961Y-1780245D01*
X-12490241Y-1785099D01*
X-12490000Y-1790000D01*
X-12490000Y-1890000D01*
X-12490241Y-1894901D01*
X-12490961Y-1899755D01*
X-12492153Y-1904514D01*
X-12493806Y-1909134D01*
X-12495904Y-1913570D01*
X-12498427Y-1917779D01*
X-12501349Y-1921720D01*
X-12504645Y-1925355D01*
X-12508280Y-1928651D01*
X-12512221Y-1931573D01*
X-12516430Y-1934096D01*
X-12520866Y-1936194D01*
X-12525486Y-1937847D01*
X-12530245Y-1939039D01*
X-12535099Y-1939759D01*
X-12540000Y-1940000D01*
X-13240000Y-1940000D01*
X-13244901Y-1939759D01*
X-13249755Y-1939039D01*
X-13254514Y-1937847D01*
X-13259134Y-1936194D01*
X-13263570Y-1934096D01*
X-13267779Y-1931573D01*
X-13271720Y-1928651D01*
X-13275355Y-1925355D01*
X-13278651Y-1921720D01*
X-13281573Y-1917779D01*
X-13284096Y-1913570D01*
X-13286194Y-1909134D01*
X-13287847Y-1904514D01*
X-13289039Y-1899755D01*
X-13289759Y-1894901D01*
X-13290000Y-1890000D01*
X-13290000Y-1790000D01*
X-13289759Y-1785099D01*
X-13289039Y-1780245D01*
X-13287847Y-1775486D01*
X-13286194Y-1770866D01*
X-13284096Y-1766430D01*
X-13281573Y-1762221D01*
X-13278651Y-1758280D01*
X-13275355Y-1754645D01*
X-13271720Y-1751349D01*
X-13267779Y-1748427D01*
X-13263570Y-1745904D01*
X-13259134Y-1743806D01*
X-13254514Y-1742153D01*
X-13249755Y-1740961D01*
X-13244901Y-1740241D01*
X-13240000Y-1740000D01*
X-12540000Y-1740000D01*
X-12535099Y-1740241D01*
X-12535099Y-1740241D01*
G37*
D14*
X-12890000Y-1840000D03*
D10*
G36*
X-12535099Y-2140241D02*
G01*
X-12530245Y-2140961D01*
X-12525486Y-2142153D01*
X-12520866Y-2143806D01*
X-12516430Y-2145904D01*
X-12512221Y-2148427D01*
X-12508280Y-2151349D01*
X-12504645Y-2154645D01*
X-12501349Y-2158280D01*
X-12498427Y-2162221D01*
X-12495904Y-2166430D01*
X-12493806Y-2170866D01*
X-12492153Y-2175486D01*
X-12490961Y-2180245D01*
X-12490241Y-2185099D01*
X-12490000Y-2190000D01*
X-12490000Y-2290000D01*
X-12490241Y-2294901D01*
X-12490961Y-2299755D01*
X-12492153Y-2304514D01*
X-12493806Y-2309134D01*
X-12495904Y-2313570D01*
X-12498427Y-2317779D01*
X-12501349Y-2321720D01*
X-12504645Y-2325355D01*
X-12508280Y-2328651D01*
X-12512221Y-2331573D01*
X-12516430Y-2334096D01*
X-12520866Y-2336194D01*
X-12525486Y-2337847D01*
X-12530245Y-2339039D01*
X-12535099Y-2339759D01*
X-12540000Y-2340000D01*
X-13240000Y-2340000D01*
X-13244901Y-2339759D01*
X-13249755Y-2339039D01*
X-13254514Y-2337847D01*
X-13259134Y-2336194D01*
X-13263570Y-2334096D01*
X-13267779Y-2331573D01*
X-13271720Y-2328651D01*
X-13275355Y-2325355D01*
X-13278651Y-2321720D01*
X-13281573Y-2317779D01*
X-13284096Y-2313570D01*
X-13286194Y-2309134D01*
X-13287847Y-2304514D01*
X-13289039Y-2299755D01*
X-13289759Y-2294901D01*
X-13290000Y-2290000D01*
X-13290000Y-2190000D01*
X-13289759Y-2185099D01*
X-13289039Y-2180245D01*
X-13287847Y-2175486D01*
X-13286194Y-2170866D01*
X-13284096Y-2166430D01*
X-13281573Y-2162221D01*
X-13278651Y-2158280D01*
X-13275355Y-2154645D01*
X-13271720Y-2151349D01*
X-13267779Y-2148427D01*
X-13263570Y-2145904D01*
X-13259134Y-2143806D01*
X-13254514Y-2142153D01*
X-13249755Y-2140961D01*
X-13244901Y-2140241D01*
X-13240000Y-2140000D01*
X-12540000Y-2140000D01*
X-12535099Y-2140241D01*
X-12535099Y-2140241D01*
G37*
D14*
X-12890000Y-2240000D03*
D13*
X-12890000Y-2640000D03*
D10*
G36*
X-12530245Y-2540961D02*
G01*
X-12520866Y-2543806D01*
X-12512221Y-2548427D01*
X-12504645Y-2554645D01*
X-12498427Y-2562221D01*
X-12493806Y-2570866D01*
X-12490961Y-2580245D01*
X-12490000Y-2590000D01*
X-12490000Y-2639289D01*
X-12490961Y-2649044D01*
X-12493806Y-2658423D01*
X-12498427Y-2667068D01*
X-12504645Y-2674644D01*
X-12555356Y-2725355D01*
X-12562932Y-2731573D01*
X-12571577Y-2736194D01*
X-12580956Y-2739039D01*
X-12590711Y-2740000D01*
X-13240000Y-2740000D01*
X-13249755Y-2739039D01*
X-13259134Y-2736194D01*
X-13267779Y-2731573D01*
X-13275355Y-2725355D01*
X-13281573Y-2717779D01*
X-13286194Y-2709134D01*
X-13289039Y-2699755D01*
X-13290000Y-2690000D01*
X-13290000Y-2590000D01*
X-13289039Y-2580245D01*
X-13286194Y-2570866D01*
X-13281573Y-2562221D01*
X-13275355Y-2554645D01*
X-13267779Y-2548427D01*
X-13259134Y-2543806D01*
X-13249755Y-2540961D01*
X-13240000Y-2540000D01*
X-12540000Y-2540000D01*
X-12530245Y-2540961D01*
X-12530245Y-2540961D01*
G37*
G36*
X-10825592Y-1070831D02*
G01*
X-10808847Y-1073315D01*
X-10792426Y-1077428D01*
X-10776487Y-1083131D01*
X-10761184Y-1090369D01*
X-10746664Y-1099071D01*
X-10733067Y-1109156D01*
X-10720524Y-1120524D01*
X-10709156Y-1133067D01*
X-10699071Y-1146664D01*
X-10690369Y-1161184D01*
X-10683131Y-1176487D01*
X-10677428Y-1192426D01*
X-10673315Y-1208847D01*
X-10670831Y-1225592D01*
X-10670000Y-1242500D01*
X-10670000Y-1587500D01*
X-10670831Y-1604408D01*
X-10673315Y-1621153D01*
X-10677428Y-1637574D01*
X-10683131Y-1653513D01*
X-10690369Y-1668816D01*
X-10699071Y-1683336D01*
X-10709156Y-1696933D01*
X-10720524Y-1709476D01*
X-10733067Y-1720844D01*
X-10746664Y-1730929D01*
X-10761184Y-1739631D01*
X-10776487Y-1746869D01*
X-10792426Y-1752572D01*
X-10808847Y-1756685D01*
X-10825592Y-1759169D01*
X-10842500Y-1760000D01*
X-11187500Y-1760000D01*
X-11204408Y-1759169D01*
X-11221153Y-1756685D01*
X-11237574Y-1752572D01*
X-11253513Y-1746869D01*
X-11268816Y-1739631D01*
X-11283336Y-1730929D01*
X-11296933Y-1720844D01*
X-11309476Y-1709476D01*
X-11320844Y-1696933D01*
X-11330929Y-1683336D01*
X-11339631Y-1668816D01*
X-11346869Y-1653513D01*
X-11352572Y-1637574D01*
X-11356685Y-1621153D01*
X-11359169Y-1604408D01*
X-11360000Y-1587500D01*
X-11360000Y-1242500D01*
X-11359169Y-1225592D01*
X-11356685Y-1208847D01*
X-11352572Y-1192426D01*
X-11346869Y-1176487D01*
X-11339631Y-1161184D01*
X-11330929Y-1146664D01*
X-11320844Y-1133067D01*
X-11309476Y-1120524D01*
X-11296933Y-1109156D01*
X-11283336Y-1099071D01*
X-11268816Y-1090369D01*
X-11253513Y-1083131D01*
X-11237574Y-1077428D01*
X-11221153Y-1073315D01*
X-11204408Y-1070831D01*
X-11187500Y-1070000D01*
X-10842500Y-1070000D01*
X-10825592Y-1070831D01*
X-10825592Y-1070831D01*
G37*
D15*
X-11015000Y-1415000D03*
D10*
G36*
X-10825592Y-1920831D02*
G01*
X-10808847Y-1923315D01*
X-10792426Y-1927428D01*
X-10776487Y-1933131D01*
X-10761184Y-1940369D01*
X-10746664Y-1949071D01*
X-10733067Y-1959156D01*
X-10720524Y-1970524D01*
X-10709156Y-1983067D01*
X-10699071Y-1996664D01*
X-10690369Y-2011184D01*
X-10683131Y-2026487D01*
X-10677428Y-2042426D01*
X-10673315Y-2058847D01*
X-10670831Y-2075592D01*
X-10670000Y-2092500D01*
X-10670000Y-2437500D01*
X-10670831Y-2454408D01*
X-10673315Y-2471153D01*
X-10677428Y-2487574D01*
X-10683131Y-2503513D01*
X-10690369Y-2518816D01*
X-10699071Y-2533336D01*
X-10709156Y-2546933D01*
X-10720524Y-2559476D01*
X-10733067Y-2570844D01*
X-10746664Y-2580929D01*
X-10761184Y-2589631D01*
X-10776487Y-2596869D01*
X-10792426Y-2602572D01*
X-10808847Y-2606685D01*
X-10825592Y-2609169D01*
X-10842500Y-2610000D01*
X-11187500Y-2610000D01*
X-11204408Y-2609169D01*
X-11221153Y-2606685D01*
X-11237574Y-2602572D01*
X-11253513Y-2596869D01*
X-11268816Y-2589631D01*
X-11283336Y-2580929D01*
X-11296933Y-2570844D01*
X-11309476Y-2559476D01*
X-11320844Y-2546933D01*
X-11330929Y-2533336D01*
X-11339631Y-2518816D01*
X-11346869Y-2503513D01*
X-11352572Y-2487574D01*
X-11356685Y-2471153D01*
X-11359169Y-2454408D01*
X-11360000Y-2437500D01*
X-11360000Y-2092500D01*
X-11359169Y-2075592D01*
X-11356685Y-2058847D01*
X-11352572Y-2042426D01*
X-11346869Y-2026487D01*
X-11339631Y-2011184D01*
X-11330929Y-1996664D01*
X-11320844Y-1983067D01*
X-11309476Y-1970524D01*
X-11296933Y-1959156D01*
X-11283336Y-1949071D01*
X-11268816Y-1940369D01*
X-11253513Y-1933131D01*
X-11237574Y-1927428D01*
X-11221153Y-1923315D01*
X-11204408Y-1920831D01*
X-11187500Y-1920000D01*
X-10842500Y-1920000D01*
X-10825592Y-1920831D01*
X-10825592Y-1920831D01*
G37*
D15*
X-11015000Y-2265000D03*
D10*
G36*
X-11675592Y-1070831D02*
G01*
X-11658847Y-1073315D01*
X-11642426Y-1077428D01*
X-11626487Y-1083131D01*
X-11611184Y-1090369D01*
X-11596664Y-1099071D01*
X-11583067Y-1109156D01*
X-11570524Y-1120524D01*
X-11559156Y-1133067D01*
X-11549071Y-1146664D01*
X-11540369Y-1161184D01*
X-11533131Y-1176487D01*
X-11527428Y-1192426D01*
X-11523315Y-1208847D01*
X-11520831Y-1225592D01*
X-11520000Y-1242500D01*
X-11520000Y-1587500D01*
X-11520831Y-1604408D01*
X-11523315Y-1621153D01*
X-11527428Y-1637574D01*
X-11533131Y-1653513D01*
X-11540369Y-1668816D01*
X-11549071Y-1683336D01*
X-11559156Y-1696933D01*
X-11570524Y-1709476D01*
X-11583067Y-1720844D01*
X-11596664Y-1730929D01*
X-11611184Y-1739631D01*
X-11626487Y-1746869D01*
X-11642426Y-1752572D01*
X-11658847Y-1756685D01*
X-11675592Y-1759169D01*
X-11692500Y-1760000D01*
X-12037500Y-1760000D01*
X-12054408Y-1759169D01*
X-12071153Y-1756685D01*
X-12087574Y-1752572D01*
X-12103513Y-1746869D01*
X-12118816Y-1739631D01*
X-12133336Y-1730929D01*
X-12146933Y-1720844D01*
X-12159476Y-1709476D01*
X-12170844Y-1696933D01*
X-12180929Y-1683336D01*
X-12189631Y-1668816D01*
X-12196869Y-1653513D01*
X-12202572Y-1637574D01*
X-12206685Y-1621153D01*
X-12209169Y-1604408D01*
X-12210000Y-1587500D01*
X-12210000Y-1242500D01*
X-12209169Y-1225592D01*
X-12206685Y-1208847D01*
X-12202572Y-1192426D01*
X-12196869Y-1176487D01*
X-12189631Y-1161184D01*
X-12180929Y-1146664D01*
X-12170844Y-1133067D01*
X-12159476Y-1120524D01*
X-12146933Y-1109156D01*
X-12133336Y-1099071D01*
X-12118816Y-1090369D01*
X-12103513Y-1083131D01*
X-12087574Y-1077428D01*
X-12071153Y-1073315D01*
X-12054408Y-1070831D01*
X-12037500Y-1070000D01*
X-11692500Y-1070000D01*
X-11675592Y-1070831D01*
X-11675592Y-1070831D01*
G37*
D15*
X-11865000Y-1415000D03*
D10*
G36*
X-11675592Y-1920831D02*
G01*
X-11658847Y-1923315D01*
X-11642426Y-1927428D01*
X-11626487Y-1933131D01*
X-11611184Y-1940369D01*
X-11596664Y-1949071D01*
X-11583067Y-1959156D01*
X-11570524Y-1970524D01*
X-11559156Y-1983067D01*
X-11549071Y-1996664D01*
X-11540369Y-2011184D01*
X-11533131Y-2026487D01*
X-11527428Y-2042426D01*
X-11523315Y-2058847D01*
X-11520831Y-2075592D01*
X-11520000Y-2092500D01*
X-11520000Y-2437500D01*
X-11520831Y-2454408D01*
X-11523315Y-2471153D01*
X-11527428Y-2487574D01*
X-11533131Y-2503513D01*
X-11540369Y-2518816D01*
X-11549071Y-2533336D01*
X-11559156Y-2546933D01*
X-11570524Y-2559476D01*
X-11583067Y-2570844D01*
X-11596664Y-2580929D01*
X-11611184Y-2589631D01*
X-11626487Y-2596869D01*
X-11642426Y-2602572D01*
X-11658847Y-2606685D01*
X-11675592Y-2609169D01*
X-11692500Y-2610000D01*
X-12037500Y-2610000D01*
X-12054408Y-2609169D01*
X-12071153Y-2606685D01*
X-12087574Y-2602572D01*
X-12103513Y-2596869D01*
X-12118816Y-2589631D01*
X-12133336Y-2580929D01*
X-12146933Y-2570844D01*
X-12159476Y-2559476D01*
X-12170844Y-2546933D01*
X-12180929Y-2533336D01*
X-12189631Y-2518816D01*
X-12196869Y-2503513D01*
X-12202572Y-2487574D01*
X-12206685Y-2471153D01*
X-12209169Y-2454408D01*
X-12210000Y-2437500D01*
X-12210000Y-2092500D01*
X-12209169Y-2075592D01*
X-12206685Y-2058847D01*
X-12202572Y-2042426D01*
X-12196869Y-2026487D01*
X-12189631Y-2011184D01*
X-12180929Y-1996664D01*
X-12170844Y-1983067D01*
X-12159476Y-1970524D01*
X-12146933Y-1959156D01*
X-12133336Y-1949071D01*
X-12118816Y-1940369D01*
X-12103513Y-1933131D01*
X-12087574Y-1927428D01*
X-12071153Y-1923315D01*
X-12054408Y-1920831D01*
X-12037500Y-1920000D01*
X-11692500Y-1920000D01*
X-11675592Y-1920831D01*
X-11675592Y-1920831D01*
G37*
D15*
X-11865000Y-2265000D03*
D10*
G36*
X15512691Y-5536053D02*
G01*
X15533926Y-5539203D01*
X15554750Y-5544419D01*
X15574962Y-5551651D01*
X15594368Y-5560830D01*
X15612781Y-5571866D01*
X15630024Y-5584654D01*
X15645930Y-5599070D01*
X15660346Y-5614976D01*
X15673134Y-5632219D01*
X15684170Y-5650632D01*
X15693349Y-5670038D01*
X15700581Y-5690250D01*
X15705797Y-5711074D01*
X15708947Y-5732309D01*
X15710000Y-5753750D01*
X15710000Y-6266250D01*
X15708947Y-6287691D01*
X15705797Y-6308926D01*
X15700581Y-6329750D01*
X15693349Y-6349962D01*
X15684170Y-6369368D01*
X15673134Y-6387781D01*
X15660346Y-6405024D01*
X15645930Y-6420930D01*
X15630024Y-6435346D01*
X15612781Y-6448134D01*
X15594368Y-6459170D01*
X15574962Y-6468349D01*
X15554750Y-6475581D01*
X15533926Y-6480797D01*
X15512691Y-6483947D01*
X15491250Y-6485000D01*
X15053750Y-6485000D01*
X15032309Y-6483947D01*
X15011074Y-6480797D01*
X14990250Y-6475581D01*
X14970038Y-6468349D01*
X14950632Y-6459170D01*
X14932219Y-6448134D01*
X14914976Y-6435346D01*
X14899070Y-6420930D01*
X14884654Y-6405024D01*
X14871866Y-6387781D01*
X14860830Y-6369368D01*
X14851651Y-6349962D01*
X14844419Y-6329750D01*
X14839203Y-6308926D01*
X14836053Y-6287691D01*
X14835000Y-6266250D01*
X14835000Y-5753750D01*
X14836053Y-5732309D01*
X14839203Y-5711074D01*
X14844419Y-5690250D01*
X14851651Y-5670038D01*
X14860830Y-5650632D01*
X14871866Y-5632219D01*
X14884654Y-5614976D01*
X14899070Y-5599070D01*
X14914976Y-5584654D01*
X14932219Y-5571866D01*
X14950632Y-5560830D01*
X14970038Y-5551651D01*
X14990250Y-5544419D01*
X15011074Y-5539203D01*
X15032309Y-5536053D01*
X15053750Y-5535000D01*
X15491250Y-5535000D01*
X15512691Y-5536053D01*
X15512691Y-5536053D01*
G37*
D11*
X15272500Y-6010000D03*
D10*
G36*
X17087691Y-5536053D02*
G01*
X17108926Y-5539203D01*
X17129750Y-5544419D01*
X17149962Y-5551651D01*
X17169368Y-5560830D01*
X17187781Y-5571866D01*
X17205024Y-5584654D01*
X17220930Y-5599070D01*
X17235346Y-5614976D01*
X17248134Y-5632219D01*
X17259170Y-5650632D01*
X17268349Y-5670038D01*
X17275581Y-5690250D01*
X17280797Y-5711074D01*
X17283947Y-5732309D01*
X17285000Y-5753750D01*
X17285000Y-6266250D01*
X17283947Y-6287691D01*
X17280797Y-6308926D01*
X17275581Y-6329750D01*
X17268349Y-6349962D01*
X17259170Y-6369368D01*
X17248134Y-6387781D01*
X17235346Y-6405024D01*
X17220930Y-6420930D01*
X17205024Y-6435346D01*
X17187781Y-6448134D01*
X17169368Y-6459170D01*
X17149962Y-6468349D01*
X17129750Y-6475581D01*
X17108926Y-6480797D01*
X17087691Y-6483947D01*
X17066250Y-6485000D01*
X16628750Y-6485000D01*
X16607309Y-6483947D01*
X16586074Y-6480797D01*
X16565250Y-6475581D01*
X16545038Y-6468349D01*
X16525632Y-6459170D01*
X16507219Y-6448134D01*
X16489976Y-6435346D01*
X16474070Y-6420930D01*
X16459654Y-6405024D01*
X16446866Y-6387781D01*
X16435830Y-6369368D01*
X16426651Y-6349962D01*
X16419419Y-6329750D01*
X16414203Y-6308926D01*
X16411053Y-6287691D01*
X16410000Y-6266250D01*
X16410000Y-5753750D01*
X16411053Y-5732309D01*
X16414203Y-5711074D01*
X16419419Y-5690250D01*
X16426651Y-5670038D01*
X16435830Y-5650632D01*
X16446866Y-5632219D01*
X16459654Y-5614976D01*
X16474070Y-5599070D01*
X16489976Y-5584654D01*
X16507219Y-5571866D01*
X16525632Y-5560830D01*
X16545038Y-5551651D01*
X16565250Y-5544419D01*
X16586074Y-5539203D01*
X16607309Y-5536053D01*
X16628750Y-5535000D01*
X17066250Y-5535000D01*
X17087691Y-5536053D01*
X17087691Y-5536053D01*
G37*
D11*
X16847500Y-6010000D03*
D10*
G36*
X24382691Y-4306053D02*
G01*
X24403926Y-4309203D01*
X24424750Y-4314419D01*
X24444962Y-4321651D01*
X24464368Y-4330830D01*
X24482781Y-4341866D01*
X24500024Y-4354654D01*
X24515930Y-4369070D01*
X24530346Y-4384976D01*
X24543134Y-4402219D01*
X24554170Y-4420632D01*
X24563349Y-4440038D01*
X24570581Y-4460250D01*
X24575797Y-4481074D01*
X24578947Y-4502309D01*
X24580000Y-4523750D01*
X24580000Y-5036250D01*
X24578947Y-5057691D01*
X24575797Y-5078926D01*
X24570581Y-5099750D01*
X24563349Y-5119962D01*
X24554170Y-5139368D01*
X24543134Y-5157781D01*
X24530346Y-5175024D01*
X24515930Y-5190930D01*
X24500024Y-5205346D01*
X24482781Y-5218134D01*
X24464368Y-5229170D01*
X24444962Y-5238349D01*
X24424750Y-5245581D01*
X24403926Y-5250797D01*
X24382691Y-5253947D01*
X24361250Y-5255000D01*
X23923750Y-5255000D01*
X23902309Y-5253947D01*
X23881074Y-5250797D01*
X23860250Y-5245581D01*
X23840038Y-5238349D01*
X23820632Y-5229170D01*
X23802219Y-5218134D01*
X23784976Y-5205346D01*
X23769070Y-5190930D01*
X23754654Y-5175024D01*
X23741866Y-5157781D01*
X23730830Y-5139368D01*
X23721651Y-5119962D01*
X23714419Y-5099750D01*
X23709203Y-5078926D01*
X23706053Y-5057691D01*
X23705000Y-5036250D01*
X23705000Y-4523750D01*
X23706053Y-4502309D01*
X23709203Y-4481074D01*
X23714419Y-4460250D01*
X23721651Y-4440038D01*
X23730830Y-4420632D01*
X23741866Y-4402219D01*
X23754654Y-4384976D01*
X23769070Y-4369070D01*
X23784976Y-4354654D01*
X23802219Y-4341866D01*
X23820632Y-4330830D01*
X23840038Y-4321651D01*
X23860250Y-4314419D01*
X23881074Y-4309203D01*
X23902309Y-4306053D01*
X23923750Y-4305000D01*
X24361250Y-4305000D01*
X24382691Y-4306053D01*
X24382691Y-4306053D01*
G37*
D11*
X24142500Y-4780000D03*
D10*
G36*
X25957691Y-4306053D02*
G01*
X25978926Y-4309203D01*
X25999750Y-4314419D01*
X26019962Y-4321651D01*
X26039368Y-4330830D01*
X26057781Y-4341866D01*
X26075024Y-4354654D01*
X26090930Y-4369070D01*
X26105346Y-4384976D01*
X26118134Y-4402219D01*
X26129170Y-4420632D01*
X26138349Y-4440038D01*
X26145581Y-4460250D01*
X26150797Y-4481074D01*
X26153947Y-4502309D01*
X26155000Y-4523750D01*
X26155000Y-5036250D01*
X26153947Y-5057691D01*
X26150797Y-5078926D01*
X26145581Y-5099750D01*
X26138349Y-5119962D01*
X26129170Y-5139368D01*
X26118134Y-5157781D01*
X26105346Y-5175024D01*
X26090930Y-5190930D01*
X26075024Y-5205346D01*
X26057781Y-5218134D01*
X26039368Y-5229170D01*
X26019962Y-5238349D01*
X25999750Y-5245581D01*
X25978926Y-5250797D01*
X25957691Y-5253947D01*
X25936250Y-5255000D01*
X25498750Y-5255000D01*
X25477309Y-5253947D01*
X25456074Y-5250797D01*
X25435250Y-5245581D01*
X25415038Y-5238349D01*
X25395632Y-5229170D01*
X25377219Y-5218134D01*
X25359976Y-5205346D01*
X25344070Y-5190930D01*
X25329654Y-5175024D01*
X25316866Y-5157781D01*
X25305830Y-5139368D01*
X25296651Y-5119962D01*
X25289419Y-5099750D01*
X25284203Y-5078926D01*
X25281053Y-5057691D01*
X25280000Y-5036250D01*
X25280000Y-4523750D01*
X25281053Y-4502309D01*
X25284203Y-4481074D01*
X25289419Y-4460250D01*
X25296651Y-4440038D01*
X25305830Y-4420632D01*
X25316866Y-4402219D01*
X25329654Y-4384976D01*
X25344070Y-4369070D01*
X25359976Y-4354654D01*
X25377219Y-4341866D01*
X25395632Y-4330830D01*
X25415038Y-4321651D01*
X25435250Y-4314419D01*
X25456074Y-4309203D01*
X25477309Y-4306053D01*
X25498750Y-4305000D01*
X25936250Y-4305000D01*
X25957691Y-4306053D01*
X25957691Y-4306053D01*
G37*
D11*
X25717500Y-4780000D03*
D10*
G36*
X-15892309Y1303947D02*
G01*
X-15871074Y1300797D01*
X-15850250Y1295581D01*
X-15830038Y1288349D01*
X-15810632Y1279170D01*
X-15792219Y1268134D01*
X-15774976Y1255346D01*
X-15759070Y1240930D01*
X-15744654Y1225024D01*
X-15731866Y1207781D01*
X-15720830Y1189368D01*
X-15711651Y1169962D01*
X-15704419Y1149750D01*
X-15699203Y1128926D01*
X-15696053Y1107691D01*
X-15695000Y1086250D01*
X-15695000Y648750D01*
X-15696053Y627309D01*
X-15699203Y606074D01*
X-15704419Y585250D01*
X-15711651Y565038D01*
X-15720830Y545632D01*
X-15731866Y527219D01*
X-15744654Y509976D01*
X-15759070Y494070D01*
X-15774976Y479654D01*
X-15792219Y466866D01*
X-15810632Y455830D01*
X-15830038Y446651D01*
X-15850250Y439419D01*
X-15871074Y434203D01*
X-15892309Y431053D01*
X-15913750Y430000D01*
X-16426250Y430000D01*
X-16447691Y431053D01*
X-16468926Y434203D01*
X-16489750Y439419D01*
X-16509962Y446651D01*
X-16529368Y455830D01*
X-16547781Y466866D01*
X-16565024Y479654D01*
X-16580930Y494070D01*
X-16595346Y509976D01*
X-16608134Y527219D01*
X-16619170Y545632D01*
X-16628349Y565038D01*
X-16635581Y585250D01*
X-16640797Y606074D01*
X-16643947Y627309D01*
X-16645000Y648750D01*
X-16645000Y1086250D01*
X-16643947Y1107691D01*
X-16640797Y1128926D01*
X-16635581Y1149750D01*
X-16628349Y1169962D01*
X-16619170Y1189368D01*
X-16608134Y1207781D01*
X-16595346Y1225024D01*
X-16580930Y1240930D01*
X-16565024Y1255346D01*
X-16547781Y1268134D01*
X-16529368Y1279170D01*
X-16509962Y1288349D01*
X-16489750Y1295581D01*
X-16468926Y1300797D01*
X-16447691Y1303947D01*
X-16426250Y1305000D01*
X-15913750Y1305000D01*
X-15892309Y1303947D01*
X-15892309Y1303947D01*
G37*
D11*
X-16170000Y867500D03*
D10*
G36*
X-15892309Y-271053D02*
G01*
X-15871074Y-274203D01*
X-15850250Y-279419D01*
X-15830038Y-286651D01*
X-15810632Y-295830D01*
X-15792219Y-306866D01*
X-15774976Y-319654D01*
X-15759070Y-334070D01*
X-15744654Y-349976D01*
X-15731866Y-367219D01*
X-15720830Y-385632D01*
X-15711651Y-405038D01*
X-15704419Y-425250D01*
X-15699203Y-446074D01*
X-15696053Y-467309D01*
X-15695000Y-488750D01*
X-15695000Y-926250D01*
X-15696053Y-947691D01*
X-15699203Y-968926D01*
X-15704419Y-989750D01*
X-15711651Y-1009962D01*
X-15720830Y-1029368D01*
X-15731866Y-1047781D01*
X-15744654Y-1065024D01*
X-15759070Y-1080930D01*
X-15774976Y-1095346D01*
X-15792219Y-1108134D01*
X-15810632Y-1119170D01*
X-15830038Y-1128349D01*
X-15850250Y-1135581D01*
X-15871074Y-1140797D01*
X-15892309Y-1143947D01*
X-15913750Y-1145000D01*
X-16426250Y-1145000D01*
X-16447691Y-1143947D01*
X-16468926Y-1140797D01*
X-16489750Y-1135581D01*
X-16509962Y-1128349D01*
X-16529368Y-1119170D01*
X-16547781Y-1108134D01*
X-16565024Y-1095346D01*
X-16580930Y-1080930D01*
X-16595346Y-1065024D01*
X-16608134Y-1047781D01*
X-16619170Y-1029368D01*
X-16628349Y-1009962D01*
X-16635581Y-989750D01*
X-16640797Y-968926D01*
X-16643947Y-947691D01*
X-16645000Y-926250D01*
X-16645000Y-488750D01*
X-16643947Y-467309D01*
X-16640797Y-446074D01*
X-16635581Y-425250D01*
X-16628349Y-405038D01*
X-16619170Y-385632D01*
X-16608134Y-367219D01*
X-16595346Y-349976D01*
X-16580930Y-334070D01*
X-16565024Y-319654D01*
X-16547781Y-306866D01*
X-16529368Y-295830D01*
X-16509962Y-286651D01*
X-16489750Y-279419D01*
X-16468926Y-274203D01*
X-16447691Y-271053D01*
X-16426250Y-270000D01*
X-15913750Y-270000D01*
X-15892309Y-271053D01*
X-15892309Y-271053D01*
G37*
D11*
X-16170000Y-707500D03*
M02*
