G04 #@! TF.GenerationSoftware,KiCad,Pcbnew,(5.1.0)-1*
G04 #@! TF.CreationDate,2019-07-24T00:39:13-06:00*
G04 #@! TF.ProjectId,twinkletwinkie,7477696e-6b6c-4657-9477-696e6b69652e,rev?*
G04 #@! TF.SameCoordinates,PX89e92d0PY44794c0*
G04 #@! TF.FileFunction,Soldermask,Bot*
G04 #@! TF.FilePolarity,Negative*
%FSLAX46Y46*%
G04 Gerber Fmt 4.6, Leading zero omitted, Abs format (unit mm)*
G04 Created by KiCad (PCBNEW (5.1.0)-1) date 2019-07-24 00:39:13*
%MOMM*%
%LPD*%
G04 APERTURE LIST*
%ADD10C,0.100000*%
G04 APERTURE END LIST*
D10*
G36*
X-1315667Y-12451000D02*
G01*
X-3417667Y-12451000D01*
X-3417667Y-10349000D01*
X-1315667Y-10349000D01*
X-1315667Y-12451000D01*
X-1315667Y-12451000D01*
G37*
G36*
X2589888Y-11581000D02*
G01*
X487888Y-11581000D01*
X487888Y-9479000D01*
X2589888Y-9479000D01*
X2589888Y-11581000D01*
X2589888Y-11581000D01*
G37*
G36*
X6495443Y-11111000D02*
G01*
X4393443Y-11111000D01*
X4393443Y-9009000D01*
X6495443Y-9009000D01*
X6495443Y-11111000D01*
X6495443Y-11111000D01*
G37*
G36*
X10401000Y-10421000D02*
G01*
X8299000Y-10421000D01*
X8299000Y-8319000D01*
X10401000Y-8319000D01*
X10401000Y-10421000D01*
X10401000Y-10421000D01*
G37*
G36*
X-9587667Y-5685410D02*
G01*
X-9587665Y-5685414D01*
X-9137926Y-6728427D01*
X-9126065Y-6749869D01*
X-9110248Y-6768585D01*
X-9091084Y-6783855D01*
X-9079613Y-6790449D01*
X-8330000Y-7170000D01*
X-8335818Y-7174598D01*
X-8913946Y-7631506D01*
X-8931589Y-7648511D01*
X-8945576Y-7668631D01*
X-8955368Y-7691094D01*
X-8959012Y-7705061D01*
X-9028897Y-8054487D01*
X-9031324Y-8078870D01*
X-9028948Y-8103259D01*
X-9021859Y-8126715D01*
X-9010330Y-8148338D01*
X-8994805Y-8167296D01*
X-8975879Y-8182861D01*
X-8954281Y-8194435D01*
X-8930839Y-8201573D01*
X-8906325Y-8204000D01*
X-8385500Y-8204000D01*
X-8385500Y-9576000D01*
X-9376500Y-9576000D01*
X-9376500Y-8343309D01*
X-9378902Y-8318923D01*
X-9386015Y-8295474D01*
X-9397566Y-8273863D01*
X-9413111Y-8254921D01*
X-9432053Y-8239376D01*
X-9453664Y-8227825D01*
X-9477113Y-8220712D01*
X-9501499Y-8218310D01*
X-9509417Y-8219175D01*
X-9518029Y-8219356D01*
X-9520000Y-8220000D01*
X-9800075Y-8162994D01*
X-10013570Y-8119539D01*
X-10037945Y-8117029D01*
X-10062342Y-8119323D01*
X-10085822Y-8126331D01*
X-10107484Y-8137786D01*
X-10126495Y-8153247D01*
X-10142124Y-8172120D01*
X-10153771Y-8193679D01*
X-10160989Y-8217096D01*
X-10163500Y-8242027D01*
X-10163500Y-9576000D01*
X-11154500Y-9576000D01*
X-11154500Y-8204000D01*
X-10737564Y-8204000D01*
X-10713178Y-8201598D01*
X-10689729Y-8194485D01*
X-10668118Y-8182934D01*
X-10649176Y-8167389D01*
X-10633631Y-8148447D01*
X-10622080Y-8126836D01*
X-10614967Y-8103387D01*
X-10612565Y-8079001D01*
X-10614967Y-8054615D01*
X-10622080Y-8031166D01*
X-10633631Y-8009555D01*
X-10641433Y-8000909D01*
X-10640784Y-8000395D01*
X-10648826Y-7990239D01*
X-10650000Y-7990000D01*
X-11049125Y-7351400D01*
X-11050893Y-7348651D01*
X-11166144Y-7174598D01*
X-11540000Y-6610000D01*
X-10360772Y-6426350D01*
X-10337047Y-6420224D01*
X-10314972Y-6409588D01*
X-10291021Y-6390624D01*
X-10142615Y-6240185D01*
X-9590000Y-5680000D01*
X-9587667Y-5685410D01*
X-9587667Y-5685410D01*
G37*
G36*
X-4870409Y-8368085D02*
G01*
X-4836431Y-8378393D01*
X-4805110Y-8395134D01*
X-4777661Y-8417661D01*
X-4755134Y-8445110D01*
X-4738393Y-8476431D01*
X-4728085Y-8510409D01*
X-4724000Y-8551890D01*
X-4724000Y-9228110D01*
X-4728085Y-9269591D01*
X-4738393Y-9303569D01*
X-4755134Y-9334890D01*
X-4777661Y-9362339D01*
X-4805110Y-9384866D01*
X-4836431Y-9401607D01*
X-4870409Y-9411915D01*
X-4911890Y-9416000D01*
X-5513110Y-9416000D01*
X-5554591Y-9411915D01*
X-5588569Y-9401607D01*
X-5619890Y-9384866D01*
X-5647339Y-9362339D01*
X-5669866Y-9334890D01*
X-5686607Y-9303569D01*
X-5696915Y-9269591D01*
X-5701000Y-9228110D01*
X-5701000Y-8551890D01*
X-5696915Y-8510409D01*
X-5686607Y-8476431D01*
X-5669866Y-8445110D01*
X-5647339Y-8417661D01*
X-5619890Y-8395134D01*
X-5588569Y-8378393D01*
X-5554591Y-8368085D01*
X-5513110Y-8364000D01*
X-4911890Y-8364000D01*
X-4870409Y-8368085D01*
X-4870409Y-8368085D01*
G37*
G36*
X-6445409Y-8368085D02*
G01*
X-6411431Y-8378393D01*
X-6380110Y-8395134D01*
X-6352661Y-8417661D01*
X-6330134Y-8445110D01*
X-6313393Y-8476431D01*
X-6303085Y-8510409D01*
X-6299000Y-8551890D01*
X-6299000Y-9228110D01*
X-6303085Y-9269591D01*
X-6313393Y-9303569D01*
X-6330134Y-9334890D01*
X-6352661Y-9362339D01*
X-6380110Y-9384866D01*
X-6411431Y-9401607D01*
X-6445409Y-9411915D01*
X-6486890Y-9416000D01*
X-7088110Y-9416000D01*
X-7129591Y-9411915D01*
X-7163569Y-9401607D01*
X-7194890Y-9384866D01*
X-7222339Y-9362339D01*
X-7244866Y-9334890D01*
X-7261607Y-9303569D01*
X-7271915Y-9269591D01*
X-7276000Y-9228110D01*
X-7276000Y-8551890D01*
X-7271915Y-8510409D01*
X-7261607Y-8476431D01*
X-7244866Y-8445110D01*
X-7222339Y-8417661D01*
X-7194890Y-8395134D01*
X-7163569Y-8378393D01*
X-7129591Y-8368085D01*
X-7088110Y-8364000D01*
X-6486890Y-8364000D01*
X-6445409Y-8368085D01*
X-6445409Y-8368085D01*
G37*
G36*
X-21609558Y-7245518D02*
G01*
X-21543373Y-7252037D01*
X-21373534Y-7303557D01*
X-21217009Y-7387222D01*
X-21181271Y-7416552D01*
X-21079814Y-7499814D01*
X-20996552Y-7601271D01*
X-20967222Y-7637009D01*
X-20883557Y-7793534D01*
X-20832037Y-7963373D01*
X-20814641Y-8140000D01*
X-20832037Y-8316627D01*
X-20883557Y-8486466D01*
X-20967222Y-8642991D01*
X-20996552Y-8678729D01*
X-21079814Y-8780186D01*
X-21181271Y-8863448D01*
X-21217009Y-8892778D01*
X-21373534Y-8976443D01*
X-21543373Y-9027963D01*
X-21609557Y-9034481D01*
X-21675740Y-9041000D01*
X-21764260Y-9041000D01*
X-21830443Y-9034481D01*
X-21896627Y-9027963D01*
X-22066466Y-8976443D01*
X-22222991Y-8892778D01*
X-22258729Y-8863448D01*
X-22360186Y-8780186D01*
X-22443448Y-8678729D01*
X-22472778Y-8642991D01*
X-22556443Y-8486466D01*
X-22607963Y-8316627D01*
X-22625359Y-8140000D01*
X-22607963Y-7963373D01*
X-22556443Y-7793534D01*
X-22472778Y-7637009D01*
X-22443448Y-7601271D01*
X-22360186Y-7499814D01*
X-22258729Y-7416552D01*
X-22222991Y-7387222D01*
X-22066466Y-7303557D01*
X-21896627Y-7252037D01*
X-21830442Y-7245518D01*
X-21764260Y-7239000D01*
X-21675740Y-7239000D01*
X-21609558Y-7245518D01*
X-21609558Y-7245518D01*
G37*
G36*
X-24149558Y-7245518D02*
G01*
X-24083373Y-7252037D01*
X-23913534Y-7303557D01*
X-23757009Y-7387222D01*
X-23721271Y-7416552D01*
X-23619814Y-7499814D01*
X-23536552Y-7601271D01*
X-23507222Y-7637009D01*
X-23423557Y-7793534D01*
X-23372037Y-7963373D01*
X-23354641Y-8140000D01*
X-23372037Y-8316627D01*
X-23423557Y-8486466D01*
X-23507222Y-8642991D01*
X-23536552Y-8678729D01*
X-23619814Y-8780186D01*
X-23721271Y-8863448D01*
X-23757009Y-8892778D01*
X-23913534Y-8976443D01*
X-24083373Y-9027963D01*
X-24149557Y-9034481D01*
X-24215740Y-9041000D01*
X-24304260Y-9041000D01*
X-24370443Y-9034481D01*
X-24436627Y-9027963D01*
X-24606466Y-8976443D01*
X-24762991Y-8892778D01*
X-24798729Y-8863448D01*
X-24900186Y-8780186D01*
X-24983448Y-8678729D01*
X-25012778Y-8642991D01*
X-25096443Y-8486466D01*
X-25147963Y-8316627D01*
X-25165359Y-8140000D01*
X-25147963Y-7963373D01*
X-25096443Y-7793534D01*
X-25012778Y-7637009D01*
X-24983448Y-7601271D01*
X-24900186Y-7499814D01*
X-24798729Y-7416552D01*
X-24762991Y-7387222D01*
X-24606466Y-7303557D01*
X-24436627Y-7252037D01*
X-24370442Y-7245518D01*
X-24304260Y-7239000D01*
X-24215740Y-7239000D01*
X-24149558Y-7245518D01*
X-24149558Y-7245518D01*
G37*
G36*
X-26689558Y-7245518D02*
G01*
X-26623373Y-7252037D01*
X-26453534Y-7303557D01*
X-26297009Y-7387222D01*
X-26261271Y-7416552D01*
X-26159814Y-7499814D01*
X-26076552Y-7601271D01*
X-26047222Y-7637009D01*
X-25963557Y-7793534D01*
X-25912037Y-7963373D01*
X-25894641Y-8140000D01*
X-25912037Y-8316627D01*
X-25963557Y-8486466D01*
X-26047222Y-8642991D01*
X-26076552Y-8678729D01*
X-26159814Y-8780186D01*
X-26261271Y-8863448D01*
X-26297009Y-8892778D01*
X-26453534Y-8976443D01*
X-26623373Y-9027963D01*
X-26689557Y-9034481D01*
X-26755740Y-9041000D01*
X-26844260Y-9041000D01*
X-26910443Y-9034481D01*
X-26976627Y-9027963D01*
X-27146466Y-8976443D01*
X-27302991Y-8892778D01*
X-27338729Y-8863448D01*
X-27440186Y-8780186D01*
X-27523448Y-8678729D01*
X-27552778Y-8642991D01*
X-27636443Y-8486466D01*
X-27687963Y-8316627D01*
X-27705359Y-8140000D01*
X-27687963Y-7963373D01*
X-27636443Y-7793534D01*
X-27552778Y-7637009D01*
X-27523448Y-7601271D01*
X-27440186Y-7499814D01*
X-27338729Y-7416552D01*
X-27302991Y-7387222D01*
X-27146466Y-7303557D01*
X-26976627Y-7252037D01*
X-26910442Y-7245518D01*
X-26844260Y-7239000D01*
X-26755740Y-7239000D01*
X-26689558Y-7245518D01*
X-26689558Y-7245518D01*
G37*
G36*
X12323946Y-3280777D02*
G01*
X12353135Y-3290050D01*
X13407966Y-3487215D01*
X13363777Y-3741302D01*
X13255734Y-4362552D01*
X13247966Y-4407215D01*
X13243747Y-4413309D01*
X12891462Y-4922166D01*
X12891459Y-4922169D01*
X12887966Y-4927215D01*
X12708318Y-5009340D01*
X12542116Y-5085318D01*
X12520936Y-5097641D01*
X12502568Y-5113859D01*
X12487716Y-5133349D01*
X12476952Y-5155363D01*
X12470689Y-5179053D01*
X12469168Y-5203510D01*
X12472448Y-5227793D01*
X12480403Y-5250971D01*
X12492726Y-5272151D01*
X12508944Y-5290519D01*
X12528434Y-5305371D01*
X12550448Y-5316135D01*
X12574138Y-5322398D01*
X12594086Y-5324000D01*
X13424500Y-5324000D01*
X13424500Y-6696000D01*
X12433500Y-6696000D01*
X12433500Y-5329554D01*
X12431098Y-5305168D01*
X12423985Y-5281719D01*
X12412434Y-5260108D01*
X12396889Y-5241166D01*
X12377947Y-5225621D01*
X12356336Y-5214070D01*
X12332887Y-5206957D01*
X12308501Y-5204555D01*
X12284115Y-5206957D01*
X12256531Y-5215871D01*
X11850652Y-5401416D01*
X11837966Y-5407215D01*
X11828029Y-5403403D01*
X11816270Y-5398892D01*
X11792642Y-5392400D01*
X11768201Y-5390643D01*
X11743887Y-5393687D01*
X11720634Y-5401416D01*
X11699335Y-5413534D01*
X11680810Y-5429573D01*
X11665770Y-5448919D01*
X11654793Y-5470827D01*
X11648301Y-5494455D01*
X11646500Y-5515598D01*
X11646500Y-6696000D01*
X10655500Y-6696000D01*
X10655500Y-5324000D01*
X10946272Y-5324000D01*
X10970658Y-5321598D01*
X10994107Y-5314485D01*
X11015718Y-5302934D01*
X11034660Y-5287389D01*
X11050205Y-5268447D01*
X11061756Y-5246836D01*
X11068869Y-5223387D01*
X11071271Y-5199001D01*
X11068869Y-5174615D01*
X11061756Y-5151166D01*
X11050205Y-5129555D01*
X11034660Y-5110613D01*
X11015718Y-5095068D01*
X10991046Y-5082296D01*
X10253702Y-4799416D01*
X10253699Y-4799414D01*
X10247966Y-4797215D01*
X11056930Y-3920026D01*
X11071694Y-3900474D01*
X11085892Y-3867211D01*
X11118717Y-3742946D01*
X11357966Y-2837215D01*
X12323946Y-3280777D01*
X12323946Y-3280777D01*
G37*
G36*
X17189591Y-5488085D02*
G01*
X17223569Y-5498393D01*
X17254890Y-5515134D01*
X17282339Y-5537661D01*
X17304866Y-5565110D01*
X17321607Y-5596431D01*
X17331915Y-5630409D01*
X17336000Y-5671890D01*
X17336000Y-6348110D01*
X17331915Y-6389591D01*
X17321607Y-6423569D01*
X17304866Y-6454890D01*
X17282339Y-6482339D01*
X17254890Y-6504866D01*
X17223569Y-6521607D01*
X17189591Y-6531915D01*
X17148110Y-6536000D01*
X16546890Y-6536000D01*
X16505409Y-6531915D01*
X16471431Y-6521607D01*
X16440110Y-6504866D01*
X16412661Y-6482339D01*
X16390134Y-6454890D01*
X16373393Y-6423569D01*
X16363085Y-6389591D01*
X16359000Y-6348110D01*
X16359000Y-5671890D01*
X16363085Y-5630409D01*
X16373393Y-5596431D01*
X16390134Y-5565110D01*
X16412661Y-5537661D01*
X16440110Y-5515134D01*
X16471431Y-5498393D01*
X16505409Y-5488085D01*
X16546890Y-5484000D01*
X17148110Y-5484000D01*
X17189591Y-5488085D01*
X17189591Y-5488085D01*
G37*
G36*
X15614591Y-5488085D02*
G01*
X15648569Y-5498393D01*
X15679890Y-5515134D01*
X15707339Y-5537661D01*
X15729866Y-5565110D01*
X15746607Y-5596431D01*
X15756915Y-5630409D01*
X15761000Y-5671890D01*
X15761000Y-6348110D01*
X15756915Y-6389591D01*
X15746607Y-6423569D01*
X15729866Y-6454890D01*
X15707339Y-6482339D01*
X15679890Y-6504866D01*
X15648569Y-6521607D01*
X15614591Y-6531915D01*
X15573110Y-6536000D01*
X14971890Y-6536000D01*
X14930409Y-6531915D01*
X14896431Y-6521607D01*
X14865110Y-6504866D01*
X14837661Y-6482339D01*
X14815134Y-6454890D01*
X14798393Y-6423569D01*
X14788085Y-6389591D01*
X14784000Y-6348110D01*
X14784000Y-5671890D01*
X14788085Y-5630409D01*
X14798393Y-5596431D01*
X14815134Y-5565110D01*
X14837661Y-5537661D01*
X14865110Y-5515134D01*
X14896431Y-5498393D01*
X14930409Y-5488085D01*
X14971890Y-5484000D01*
X15573110Y-5484000D01*
X15614591Y-5488085D01*
X15614591Y-5488085D01*
G37*
G36*
X-21606488Y-4703927D02*
G01*
X-21457188Y-4733624D01*
X-21293216Y-4801544D01*
X-21145646Y-4900147D01*
X-21020147Y-5025646D01*
X-20921544Y-5173216D01*
X-20853624Y-5337188D01*
X-20819000Y-5511259D01*
X-20819000Y-5688741D01*
X-20853624Y-5862812D01*
X-20921544Y-6026784D01*
X-21020147Y-6174354D01*
X-21145646Y-6299853D01*
X-21293216Y-6398456D01*
X-21457188Y-6466376D01*
X-21600270Y-6494836D01*
X-21631258Y-6501000D01*
X-21808742Y-6501000D01*
X-21839730Y-6494836D01*
X-21982812Y-6466376D01*
X-22146784Y-6398456D01*
X-22294354Y-6299853D01*
X-22419853Y-6174354D01*
X-22518456Y-6026784D01*
X-22586376Y-5862812D01*
X-22621000Y-5688741D01*
X-22621000Y-5511259D01*
X-22586376Y-5337188D01*
X-22518456Y-5173216D01*
X-22419853Y-5025646D01*
X-22294354Y-4900147D01*
X-22146784Y-4801544D01*
X-21982812Y-4733624D01*
X-21833512Y-4703927D01*
X-21808742Y-4699000D01*
X-21631258Y-4699000D01*
X-21606488Y-4703927D01*
X-21606488Y-4703927D01*
G37*
G36*
X-24146488Y-4703927D02*
G01*
X-23997188Y-4733624D01*
X-23833216Y-4801544D01*
X-23685646Y-4900147D01*
X-23560147Y-5025646D01*
X-23461544Y-5173216D01*
X-23393624Y-5337188D01*
X-23359000Y-5511259D01*
X-23359000Y-5688741D01*
X-23393624Y-5862812D01*
X-23461544Y-6026784D01*
X-23560147Y-6174354D01*
X-23685646Y-6299853D01*
X-23833216Y-6398456D01*
X-23997188Y-6466376D01*
X-24140270Y-6494836D01*
X-24171258Y-6501000D01*
X-24348742Y-6501000D01*
X-24379730Y-6494836D01*
X-24522812Y-6466376D01*
X-24686784Y-6398456D01*
X-24834354Y-6299853D01*
X-24959853Y-6174354D01*
X-25058456Y-6026784D01*
X-25126376Y-5862812D01*
X-25161000Y-5688741D01*
X-25161000Y-5511259D01*
X-25126376Y-5337188D01*
X-25058456Y-5173216D01*
X-24959853Y-5025646D01*
X-24834354Y-4900147D01*
X-24686784Y-4801544D01*
X-24522812Y-4733624D01*
X-24373512Y-4703927D01*
X-24348742Y-4699000D01*
X-24171258Y-4699000D01*
X-24146488Y-4703927D01*
X-24146488Y-4703927D01*
G37*
G36*
X-26689557Y-4705519D02*
G01*
X-26623373Y-4712037D01*
X-26453534Y-4763557D01*
X-26453532Y-4763558D01*
X-26390565Y-4797215D01*
X-26297009Y-4847222D01*
X-26261271Y-4876552D01*
X-26159814Y-4959814D01*
X-26076552Y-5061271D01*
X-26047222Y-5097009D01*
X-25963557Y-5253534D01*
X-25912037Y-5423373D01*
X-25894641Y-5600000D01*
X-25912037Y-5776627D01*
X-25963557Y-5946466D01*
X-26047222Y-6102991D01*
X-26052248Y-6109115D01*
X-26159814Y-6240186D01*
X-26232520Y-6299853D01*
X-26297009Y-6352778D01*
X-26297011Y-6352779D01*
X-26422771Y-6420000D01*
X-26453534Y-6436443D01*
X-26623373Y-6487963D01*
X-26689558Y-6494482D01*
X-26755740Y-6501000D01*
X-26844260Y-6501000D01*
X-26910442Y-6494482D01*
X-26976627Y-6487963D01*
X-27146466Y-6436443D01*
X-27177228Y-6420000D01*
X-27302989Y-6352779D01*
X-27302991Y-6352778D01*
X-27367480Y-6299853D01*
X-27440186Y-6240186D01*
X-27547752Y-6109115D01*
X-27552778Y-6102991D01*
X-27636443Y-5946466D01*
X-27687963Y-5776627D01*
X-27705359Y-5600000D01*
X-27687963Y-5423373D01*
X-27636443Y-5253534D01*
X-27552778Y-5097009D01*
X-27523448Y-5061271D01*
X-27440186Y-4959814D01*
X-27338729Y-4876552D01*
X-27302991Y-4847222D01*
X-27209435Y-4797215D01*
X-27146468Y-4763558D01*
X-27146466Y-4763557D01*
X-26976627Y-4712037D01*
X-26910443Y-4705519D01*
X-26844260Y-4699000D01*
X-26755740Y-4699000D01*
X-26689557Y-4705519D01*
X-26689557Y-4705519D01*
G37*
G36*
X-15930001Y-4629737D02*
G01*
X-15920392Y-4632652D01*
X-15911528Y-4637390D01*
X-15903763Y-4643763D01*
X-15893552Y-4656206D01*
X-15886622Y-4666575D01*
X-15869295Y-4683902D01*
X-15848920Y-4697515D01*
X-15826280Y-4706891D01*
X-15802247Y-4711671D01*
X-15777743Y-4711670D01*
X-15753710Y-4706888D01*
X-15731071Y-4697510D01*
X-15710698Y-4683895D01*
X-15693371Y-4666568D01*
X-15686442Y-4656198D01*
X-15676237Y-4643763D01*
X-15668472Y-4637390D01*
X-15659608Y-4632652D01*
X-15649999Y-4629737D01*
X-15633860Y-4628148D01*
X-15146139Y-4628148D01*
X-15127801Y-4629954D01*
X-15115550Y-4630556D01*
X-15097131Y-4630556D01*
X-15074851Y-4632750D01*
X-14990767Y-4649476D01*
X-14969340Y-4655976D01*
X-14890142Y-4688780D01*
X-14884697Y-4691691D01*
X-14884691Y-4691693D01*
X-14875831Y-4696429D01*
X-14875827Y-4696432D01*
X-14870386Y-4699340D01*
X-14799101Y-4746971D01*
X-14781796Y-4761172D01*
X-14721172Y-4821796D01*
X-14706971Y-4839101D01*
X-14659340Y-4910386D01*
X-14656432Y-4915827D01*
X-14656429Y-4915831D01*
X-14651693Y-4924691D01*
X-14651691Y-4924697D01*
X-14648780Y-4930142D01*
X-14615976Y-5009340D01*
X-14609476Y-5030767D01*
X-14592750Y-5114851D01*
X-14590556Y-5137131D01*
X-14590556Y-5155550D01*
X-14589954Y-5167801D01*
X-14588148Y-5186139D01*
X-14588148Y-5673862D01*
X-14589954Y-5692199D01*
X-14590556Y-5704450D01*
X-14590556Y-5722869D01*
X-14592750Y-5745149D01*
X-14609476Y-5829233D01*
X-14615976Y-5850660D01*
X-14648780Y-5929858D01*
X-14651691Y-5935303D01*
X-14651693Y-5935309D01*
X-14656429Y-5944169D01*
X-14656432Y-5944173D01*
X-14659340Y-5949614D01*
X-14706971Y-6020899D01*
X-14721172Y-6038204D01*
X-14781796Y-6098828D01*
X-14799101Y-6113029D01*
X-14870386Y-6160660D01*
X-14875827Y-6163568D01*
X-14875831Y-6163571D01*
X-14884691Y-6168307D01*
X-14884697Y-6168309D01*
X-14890142Y-6171220D01*
X-14969340Y-6204024D01*
X-14990767Y-6210524D01*
X-15074851Y-6227250D01*
X-15097131Y-6229444D01*
X-15115550Y-6229444D01*
X-15127801Y-6230046D01*
X-15146138Y-6231852D01*
X-15633860Y-6231852D01*
X-15649999Y-6230263D01*
X-15659608Y-6227348D01*
X-15668472Y-6222610D01*
X-15676237Y-6216237D01*
X-15686448Y-6203794D01*
X-15693378Y-6193425D01*
X-15710705Y-6176098D01*
X-15731080Y-6162485D01*
X-15753720Y-6153109D01*
X-15777753Y-6148329D01*
X-15802257Y-6148330D01*
X-15826290Y-6153112D01*
X-15848929Y-6162490D01*
X-15869302Y-6176105D01*
X-15886629Y-6193432D01*
X-15893558Y-6203802D01*
X-15903763Y-6216237D01*
X-15911528Y-6222610D01*
X-15920392Y-6227348D01*
X-15930001Y-6230263D01*
X-15946140Y-6231852D01*
X-16433862Y-6231852D01*
X-16452199Y-6230046D01*
X-16464450Y-6229444D01*
X-16482869Y-6229444D01*
X-16505149Y-6227250D01*
X-16589233Y-6210524D01*
X-16610660Y-6204024D01*
X-16689858Y-6171220D01*
X-16695303Y-6168309D01*
X-16695309Y-6168307D01*
X-16704169Y-6163571D01*
X-16704173Y-6163568D01*
X-16709614Y-6160660D01*
X-16780899Y-6113029D01*
X-16798204Y-6098828D01*
X-16858828Y-6038204D01*
X-16873029Y-6020899D01*
X-16920660Y-5949614D01*
X-16923568Y-5944173D01*
X-16923571Y-5944169D01*
X-16928307Y-5935309D01*
X-16928309Y-5935303D01*
X-16931220Y-5929858D01*
X-16964024Y-5850660D01*
X-16970524Y-5829233D01*
X-16987250Y-5745149D01*
X-16989444Y-5722869D01*
X-16989444Y-5704450D01*
X-16990046Y-5692199D01*
X-16991852Y-5673862D01*
X-16991852Y-5186139D01*
X-16990046Y-5167801D01*
X-16989444Y-5155550D01*
X-16989444Y-5137131D01*
X-16987250Y-5114851D01*
X-16970524Y-5030767D01*
X-16964024Y-5009340D01*
X-16931220Y-4930142D01*
X-16928309Y-4924697D01*
X-16928307Y-4924691D01*
X-16923571Y-4915831D01*
X-16923568Y-4915827D01*
X-16920660Y-4910386D01*
X-16873029Y-4839101D01*
X-16858828Y-4821796D01*
X-16798204Y-4761172D01*
X-16780899Y-4746971D01*
X-16709614Y-4699340D01*
X-16704173Y-4696432D01*
X-16704169Y-4696429D01*
X-16695309Y-4691693D01*
X-16695303Y-4691691D01*
X-16689858Y-4688780D01*
X-16610660Y-4655976D01*
X-16589233Y-4649476D01*
X-16505149Y-4632750D01*
X-16482869Y-4630556D01*
X-16464450Y-4630556D01*
X-16452199Y-4629954D01*
X-16433861Y-4628148D01*
X-15946140Y-4628148D01*
X-15930001Y-4629737D01*
X-15930001Y-4629737D01*
G37*
G36*
X20345828Y-1624284D02*
G01*
X20345831Y-1624285D01*
X20530850Y-1760263D01*
X21041564Y-2135607D01*
X21153182Y-2217640D01*
X21174254Y-2230146D01*
X21189923Y-2236226D01*
X22281716Y-2577411D01*
X22290000Y-2580000D01*
X22030360Y-2985687D01*
X21810000Y-3330000D01*
X21809969Y-3330049D01*
X21444507Y-3901669D01*
X21433394Y-3923508D01*
X21426756Y-3947096D01*
X21424848Y-3971526D01*
X21427741Y-3995859D01*
X21435327Y-4019159D01*
X21447312Y-4040532D01*
X21463237Y-4059156D01*
X21482489Y-4074315D01*
X21504328Y-4085428D01*
X21527916Y-4092066D01*
X21549821Y-4094000D01*
X22184500Y-4094000D01*
X22184500Y-5466000D01*
X21193500Y-5466000D01*
X21193500Y-4145787D01*
X21191098Y-4121401D01*
X21183985Y-4097952D01*
X21172434Y-4076341D01*
X21156889Y-4057399D01*
X21137947Y-4041854D01*
X21116336Y-4030303D01*
X21092887Y-4023190D01*
X21068501Y-4020788D01*
X21041500Y-4023739D01*
X20766928Y-4084485D01*
X20504497Y-4142545D01*
X20481206Y-4150158D01*
X20459847Y-4162169D01*
X20441242Y-4178115D01*
X20426105Y-4197385D01*
X20415019Y-4219238D01*
X20408408Y-4242834D01*
X20406500Y-4264593D01*
X20406500Y-5466000D01*
X19415500Y-5466000D01*
X19415500Y-4094000D01*
X19815425Y-4094000D01*
X19839811Y-4091598D01*
X19863260Y-4084485D01*
X19884871Y-4072934D01*
X19903813Y-4057389D01*
X19919358Y-4038447D01*
X19930909Y-4016836D01*
X19938022Y-3993387D01*
X19940424Y-3969001D01*
X19938022Y-3944615D01*
X19930909Y-3921166D01*
X19919358Y-3899555D01*
X19903813Y-3880613D01*
X19893723Y-3871563D01*
X19888307Y-3867211D01*
X19733655Y-3742937D01*
X19726144Y-3737352D01*
X18900000Y-3170000D01*
X18906538Y-3166165D01*
X19904389Y-2580887D01*
X19924209Y-2566477D01*
X19940836Y-2548478D01*
X19956166Y-2522010D01*
X20337594Y-1625653D01*
X20337596Y-1625649D01*
X20340000Y-1620000D01*
X20345828Y-1624284D01*
X20345828Y-1624284D01*
G37*
G36*
X26059591Y-4258085D02*
G01*
X26093569Y-4268393D01*
X26124890Y-4285134D01*
X26152339Y-4307661D01*
X26174866Y-4335110D01*
X26191607Y-4366431D01*
X26201915Y-4400409D01*
X26206000Y-4441890D01*
X26206000Y-5118110D01*
X26201915Y-5159591D01*
X26191607Y-5193569D01*
X26174866Y-5224890D01*
X26152339Y-5252339D01*
X26124890Y-5274866D01*
X26093569Y-5291607D01*
X26059591Y-5301915D01*
X26018110Y-5306000D01*
X25416890Y-5306000D01*
X25375409Y-5301915D01*
X25341431Y-5291607D01*
X25310110Y-5274866D01*
X25282661Y-5252339D01*
X25260134Y-5224890D01*
X25243393Y-5193569D01*
X25233085Y-5159591D01*
X25229000Y-5118110D01*
X25229000Y-4441890D01*
X25233085Y-4400409D01*
X25243393Y-4366431D01*
X25260134Y-4335110D01*
X25282661Y-4307661D01*
X25310110Y-4285134D01*
X25341431Y-4268393D01*
X25375409Y-4258085D01*
X25416890Y-4254000D01*
X26018110Y-4254000D01*
X26059591Y-4258085D01*
X26059591Y-4258085D01*
G37*
G36*
X24484591Y-4258085D02*
G01*
X24518569Y-4268393D01*
X24549890Y-4285134D01*
X24577339Y-4307661D01*
X24599866Y-4335110D01*
X24616607Y-4366431D01*
X24626915Y-4400409D01*
X24631000Y-4441890D01*
X24631000Y-5118110D01*
X24626915Y-5159591D01*
X24616607Y-5193569D01*
X24599866Y-5224890D01*
X24577339Y-5252339D01*
X24549890Y-5274866D01*
X24518569Y-5291607D01*
X24484591Y-5301915D01*
X24443110Y-5306000D01*
X23841890Y-5306000D01*
X23800409Y-5301915D01*
X23766431Y-5291607D01*
X23735110Y-5274866D01*
X23707661Y-5252339D01*
X23685134Y-5224890D01*
X23668393Y-5193569D01*
X23658085Y-5159591D01*
X23654000Y-5118110D01*
X23654000Y-4441890D01*
X23658085Y-4400409D01*
X23668393Y-4366431D01*
X23685134Y-4335110D01*
X23707661Y-4307661D01*
X23735110Y-4285134D01*
X23766431Y-4268393D01*
X23800409Y-4258085D01*
X23841890Y-4254000D01*
X24443110Y-4254000D01*
X24484591Y-4258085D01*
X24484591Y-4258085D01*
G37*
G36*
X-12181874Y61302D02*
G01*
X-12181270Y61243D01*
X-12160540Y57119D01*
X-12142156Y49504D01*
X-12138462Y47036D01*
X-12116851Y35484D01*
X-12093402Y28371D01*
X-12069016Y25969D01*
X-12044630Y28371D01*
X-12021181Y35484D01*
X-11989718Y54342D01*
X-11984891Y58304D01*
X-11982745Y59450D01*
X-11980416Y60157D01*
X-11971857Y61000D01*
X-11708143Y61000D01*
X-11699584Y60157D01*
X-11695444Y58901D01*
X-11676284Y50965D01*
X-11652250Y46185D01*
X-11627746Y46185D01*
X-11603713Y50966D01*
X-11584555Y58901D01*
X-11580416Y60157D01*
X-11571857Y61000D01*
X-11308143Y61000D01*
X-11299584Y60157D01*
X-11295444Y58901D01*
X-11276284Y50965D01*
X-11252250Y46185D01*
X-11227746Y46185D01*
X-11203713Y50966D01*
X-11184555Y58901D01*
X-11180416Y60157D01*
X-11171857Y61000D01*
X-10908143Y61000D01*
X-10899584Y60157D01*
X-10897255Y59450D01*
X-10895109Y58304D01*
X-10890282Y54342D01*
X-10869908Y40728D01*
X-10847269Y31351D01*
X-10823236Y26571D01*
X-10798732Y26571D01*
X-10774698Y31352D01*
X-10741538Y47036D01*
X-10737844Y49504D01*
X-10719460Y57119D01*
X-10698730Y61243D01*
X-10698126Y61302D01*
X-10686938Y61852D01*
X-10593062Y61852D01*
X-10581874Y61302D01*
X-10581270Y61243D01*
X-10560540Y57119D01*
X-10542158Y49505D01*
X-10525614Y38450D01*
X-10511550Y24386D01*
X-10500495Y7842D01*
X-10492881Y-10540D01*
X-10488757Y-31270D01*
X-10488698Y-31874D01*
X-10488148Y-43062D01*
X-10488148Y-686227D01*
X-10488698Y-697415D01*
X-10488757Y-698019D01*
X-10492881Y-718749D01*
X-10500527Y-737209D01*
X-10507640Y-760658D01*
X-10510041Y-785044D01*
X-10507639Y-809430D01*
X-10500525Y-832879D01*
X-10488974Y-854490D01*
X-10473428Y-873431D01*
X-10454486Y-888976D01*
X-10432875Y-900527D01*
X-10409426Y-907640D01*
X-10385040Y-910041D01*
X-10360654Y-907639D01*
X-10337209Y-900527D01*
X-10318749Y-892881D01*
X-10298019Y-888757D01*
X-10297415Y-888698D01*
X-10286227Y-888148D01*
X-9643062Y-888148D01*
X-9631874Y-888698D01*
X-9631270Y-888757D01*
X-9610540Y-892881D01*
X-9592158Y-900495D01*
X-9575614Y-911550D01*
X-9561550Y-925614D01*
X-9550495Y-942158D01*
X-9542881Y-960540D01*
X-9538757Y-981270D01*
X-9538698Y-981874D01*
X-9538148Y-993062D01*
X-9538148Y-1086938D01*
X-9538698Y-1098126D01*
X-9538757Y-1098730D01*
X-9542881Y-1119460D01*
X-9550496Y-1137844D01*
X-9552964Y-1141538D01*
X-9564516Y-1163149D01*
X-9571629Y-1186598D01*
X-9574031Y-1210984D01*
X-9571629Y-1235370D01*
X-9564516Y-1258819D01*
X-9545658Y-1290282D01*
X-9541696Y-1295109D01*
X-9540550Y-1297255D01*
X-9539843Y-1299584D01*
X-9539000Y-1308143D01*
X-9539000Y-1571857D01*
X-9539843Y-1580416D01*
X-9541099Y-1584556D01*
X-9549035Y-1603716D01*
X-9553815Y-1627750D01*
X-9553815Y-1652254D01*
X-9549034Y-1676287D01*
X-9541099Y-1695445D01*
X-9539843Y-1699584D01*
X-9539000Y-1708143D01*
X-9539000Y-1971857D01*
X-9539843Y-1980416D01*
X-9541099Y-1984556D01*
X-9549035Y-2003716D01*
X-9553815Y-2027750D01*
X-9553815Y-2052254D01*
X-9549034Y-2076287D01*
X-9541099Y-2095445D01*
X-9539843Y-2099584D01*
X-9539000Y-2108143D01*
X-9539000Y-2371857D01*
X-9539843Y-2380416D01*
X-9540550Y-2382745D01*
X-9541696Y-2384891D01*
X-9545658Y-2389718D01*
X-9559272Y-2410092D01*
X-9568649Y-2432731D01*
X-9573429Y-2456764D01*
X-9573429Y-2481268D01*
X-9568648Y-2505302D01*
X-9552964Y-2538462D01*
X-9550496Y-2542156D01*
X-9542881Y-2560540D01*
X-9538757Y-2581270D01*
X-9538698Y-2581874D01*
X-9538148Y-2593062D01*
X-9538148Y-2686938D01*
X-9538698Y-2698126D01*
X-9538757Y-2698730D01*
X-9542881Y-2719460D01*
X-9550495Y-2737842D01*
X-9561550Y-2754386D01*
X-9575614Y-2768450D01*
X-9592158Y-2779505D01*
X-9610540Y-2787119D01*
X-9631270Y-2791243D01*
X-9631874Y-2791302D01*
X-9643062Y-2791852D01*
X-10286227Y-2791852D01*
X-10297415Y-2791302D01*
X-10298019Y-2791243D01*
X-10318749Y-2787119D01*
X-10337209Y-2779473D01*
X-10360658Y-2772360D01*
X-10385044Y-2769959D01*
X-10409430Y-2772361D01*
X-10432879Y-2779475D01*
X-10454490Y-2791026D01*
X-10473431Y-2806572D01*
X-10488976Y-2825514D01*
X-10500527Y-2847125D01*
X-10507640Y-2870574D01*
X-10510041Y-2894960D01*
X-10507639Y-2919346D01*
X-10500527Y-2942791D01*
X-10492881Y-2961251D01*
X-10488757Y-2981981D01*
X-10488698Y-2982585D01*
X-10488148Y-2993773D01*
X-10488148Y-3636938D01*
X-10488698Y-3648126D01*
X-10488757Y-3648730D01*
X-10492881Y-3669460D01*
X-10500495Y-3687842D01*
X-10511550Y-3704386D01*
X-10525614Y-3718450D01*
X-10542158Y-3729505D01*
X-10560540Y-3737119D01*
X-10581270Y-3741243D01*
X-10581874Y-3741302D01*
X-10593062Y-3741852D01*
X-10686938Y-3741852D01*
X-10698126Y-3741302D01*
X-10698730Y-3741243D01*
X-10719460Y-3737119D01*
X-10737844Y-3729504D01*
X-10741538Y-3727036D01*
X-10763149Y-3715484D01*
X-10786598Y-3708371D01*
X-10810984Y-3705969D01*
X-10835370Y-3708371D01*
X-10858819Y-3715484D01*
X-10890282Y-3734342D01*
X-10895109Y-3738304D01*
X-10897255Y-3739450D01*
X-10899584Y-3740157D01*
X-10908143Y-3741000D01*
X-11171857Y-3741000D01*
X-11180416Y-3740157D01*
X-11184556Y-3738901D01*
X-11203716Y-3730965D01*
X-11227750Y-3726185D01*
X-11252254Y-3726185D01*
X-11276287Y-3730966D01*
X-11295445Y-3738901D01*
X-11299584Y-3740157D01*
X-11308143Y-3741000D01*
X-11571857Y-3741000D01*
X-11580416Y-3740157D01*
X-11584556Y-3738901D01*
X-11603716Y-3730965D01*
X-11627750Y-3726185D01*
X-11652254Y-3726185D01*
X-11676287Y-3730966D01*
X-11695445Y-3738901D01*
X-11699584Y-3740157D01*
X-11708143Y-3741000D01*
X-11971857Y-3741000D01*
X-11980416Y-3740157D01*
X-11982745Y-3739450D01*
X-11984891Y-3738304D01*
X-11989718Y-3734342D01*
X-12010092Y-3720728D01*
X-12032731Y-3711351D01*
X-12056764Y-3706571D01*
X-12081268Y-3706571D01*
X-12105302Y-3711352D01*
X-12138462Y-3727036D01*
X-12142156Y-3729504D01*
X-12160540Y-3737119D01*
X-12181270Y-3741243D01*
X-12181874Y-3741302D01*
X-12193062Y-3741852D01*
X-12286938Y-3741852D01*
X-12298126Y-3741302D01*
X-12298730Y-3741243D01*
X-12319460Y-3737119D01*
X-12337842Y-3729505D01*
X-12354386Y-3718450D01*
X-12368450Y-3704386D01*
X-12379505Y-3687842D01*
X-12387119Y-3669460D01*
X-12391243Y-3648730D01*
X-12391302Y-3648126D01*
X-12391852Y-3636938D01*
X-12391852Y-2993773D01*
X-12391302Y-2982585D01*
X-12391243Y-2981981D01*
X-12387119Y-2961251D01*
X-12379473Y-2942791D01*
X-12372360Y-2919342D01*
X-12369959Y-2894956D01*
X-12372361Y-2870570D01*
X-12379475Y-2847121D01*
X-12391026Y-2825510D01*
X-12406572Y-2806569D01*
X-12425514Y-2791024D01*
X-12447125Y-2779473D01*
X-12470574Y-2772360D01*
X-12494960Y-2769959D01*
X-12519346Y-2772361D01*
X-12542791Y-2779473D01*
X-12561251Y-2787119D01*
X-12581981Y-2791243D01*
X-12582585Y-2791302D01*
X-12593773Y-2791852D01*
X-13236938Y-2791852D01*
X-13248126Y-2791302D01*
X-13248730Y-2791243D01*
X-13269460Y-2787119D01*
X-13287842Y-2779505D01*
X-13304386Y-2768450D01*
X-13318450Y-2754386D01*
X-13329505Y-2737842D01*
X-13337119Y-2719460D01*
X-13341243Y-2698730D01*
X-13341302Y-2698126D01*
X-13341852Y-2686938D01*
X-13341852Y-2593062D01*
X-13341302Y-2581874D01*
X-13341243Y-2581270D01*
X-13337119Y-2560540D01*
X-13329504Y-2542156D01*
X-13327036Y-2538462D01*
X-13315484Y-2516851D01*
X-13308371Y-2493402D01*
X-13305969Y-2469016D01*
X-13308371Y-2444630D01*
X-13315484Y-2421181D01*
X-13334342Y-2389718D01*
X-13338304Y-2384891D01*
X-13339450Y-2382745D01*
X-13340157Y-2380416D01*
X-13341000Y-2371857D01*
X-13341000Y-2108143D01*
X-13340157Y-2099584D01*
X-13338901Y-2095444D01*
X-13330965Y-2076284D01*
X-13326185Y-2052250D01*
X-13326185Y-2027746D01*
X-13330966Y-2003713D01*
X-13338901Y-1984555D01*
X-13340157Y-1980416D01*
X-13341000Y-1971857D01*
X-13341000Y-1708143D01*
X-13340157Y-1699584D01*
X-13338901Y-1695444D01*
X-13330965Y-1676284D01*
X-13326185Y-1652250D01*
X-13326185Y-1627746D01*
X-13330966Y-1603713D01*
X-13338901Y-1584555D01*
X-13340157Y-1580416D01*
X-13341000Y-1571857D01*
X-13341000Y-1308143D01*
X-13340157Y-1299584D01*
X-13339450Y-1297255D01*
X-13338304Y-1295109D01*
X-13334342Y-1290282D01*
X-13320728Y-1269908D01*
X-13311351Y-1247269D01*
X-13306571Y-1223236D01*
X-13306571Y-1198732D01*
X-13311352Y-1174698D01*
X-13327036Y-1141538D01*
X-13329504Y-1137844D01*
X-13337119Y-1119460D01*
X-13341243Y-1098730D01*
X-13341302Y-1098126D01*
X-13341852Y-1086938D01*
X-13341852Y-993062D01*
X-13341302Y-981874D01*
X-13341243Y-981270D01*
X-13337119Y-960540D01*
X-13329505Y-942158D01*
X-13318450Y-925614D01*
X-13304386Y-911550D01*
X-13287842Y-900495D01*
X-13269460Y-892881D01*
X-13248730Y-888757D01*
X-13248126Y-888698D01*
X-13236938Y-888148D01*
X-12593773Y-888148D01*
X-12582585Y-888698D01*
X-12581981Y-888757D01*
X-12561251Y-892881D01*
X-12542791Y-900527D01*
X-12519342Y-907640D01*
X-12494956Y-910041D01*
X-12470570Y-907639D01*
X-12447121Y-900525D01*
X-12425510Y-888974D01*
X-12406569Y-873428D01*
X-12391024Y-854486D01*
X-12379473Y-832875D01*
X-12372360Y-809426D01*
X-12369959Y-785040D01*
X-12372361Y-760654D01*
X-12379473Y-737209D01*
X-12387119Y-718749D01*
X-12391243Y-698019D01*
X-12391302Y-697415D01*
X-12391852Y-686227D01*
X-12391852Y-43062D01*
X-12391302Y-31874D01*
X-12391243Y-31270D01*
X-12387119Y-10540D01*
X-12379505Y7842D01*
X-12368450Y24386D01*
X-12354386Y38450D01*
X-12337842Y49505D01*
X-12319460Y57119D01*
X-12298730Y61243D01*
X-12298126Y61302D01*
X-12286938Y61852D01*
X-12193062Y61852D01*
X-12181874Y61302D01*
X-12181874Y61302D01*
G37*
G36*
X-24749000Y-2411000D02*
G01*
X-26851000Y-2411000D01*
X-26851000Y-309000D01*
X-24749000Y-309000D01*
X-24749000Y-2411000D01*
X-24749000Y-2411000D01*
G37*
G36*
X-19860001Y-159737D02*
G01*
X-19850392Y-162652D01*
X-19841528Y-167390D01*
X-19833763Y-173763D01*
X-19823552Y-186206D01*
X-19816622Y-196575D01*
X-19799295Y-213902D01*
X-19778920Y-227515D01*
X-19756280Y-236891D01*
X-19732247Y-241671D01*
X-19707743Y-241670D01*
X-19683710Y-236888D01*
X-19661071Y-227510D01*
X-19640698Y-213895D01*
X-19623371Y-196568D01*
X-19616442Y-186198D01*
X-19606237Y-173763D01*
X-19598472Y-167390D01*
X-19589608Y-162652D01*
X-19579999Y-159737D01*
X-19563860Y-158148D01*
X-19076139Y-158148D01*
X-19057801Y-159954D01*
X-19045550Y-160556D01*
X-19027131Y-160556D01*
X-19004851Y-162750D01*
X-18920767Y-179476D01*
X-18899340Y-185976D01*
X-18820142Y-218780D01*
X-18814697Y-221691D01*
X-18814691Y-221693D01*
X-18805831Y-226429D01*
X-18805827Y-226432D01*
X-18800386Y-229340D01*
X-18729101Y-276971D01*
X-18711796Y-291172D01*
X-18651172Y-351796D01*
X-18636971Y-369101D01*
X-18589340Y-440386D01*
X-18586432Y-445827D01*
X-18586429Y-445831D01*
X-18581693Y-454691D01*
X-18581691Y-454697D01*
X-18578780Y-460142D01*
X-18545976Y-539340D01*
X-18539476Y-560767D01*
X-18522750Y-644851D01*
X-18520556Y-667131D01*
X-18520556Y-685550D01*
X-18519954Y-697801D01*
X-18518148Y-716139D01*
X-18518148Y-1203862D01*
X-18519954Y-1222199D01*
X-18520556Y-1234450D01*
X-18520556Y-1252869D01*
X-18522750Y-1275149D01*
X-18539476Y-1359233D01*
X-18545976Y-1380660D01*
X-18578780Y-1459858D01*
X-18581691Y-1465303D01*
X-18581693Y-1465309D01*
X-18586429Y-1474169D01*
X-18586432Y-1474173D01*
X-18589340Y-1479614D01*
X-18636971Y-1550899D01*
X-18651172Y-1568204D01*
X-18711796Y-1628828D01*
X-18729101Y-1643029D01*
X-18800386Y-1690660D01*
X-18805827Y-1693568D01*
X-18805831Y-1693571D01*
X-18814691Y-1698307D01*
X-18814697Y-1698309D01*
X-18820142Y-1701220D01*
X-18899340Y-1734024D01*
X-18920767Y-1740524D01*
X-19004851Y-1757250D01*
X-19027131Y-1759444D01*
X-19045550Y-1759444D01*
X-19057801Y-1760046D01*
X-19076138Y-1761852D01*
X-19563860Y-1761852D01*
X-19579999Y-1760263D01*
X-19589608Y-1757348D01*
X-19598472Y-1752610D01*
X-19606237Y-1746237D01*
X-19616448Y-1733794D01*
X-19623378Y-1723425D01*
X-19640705Y-1706098D01*
X-19661080Y-1692485D01*
X-19683720Y-1683109D01*
X-19707753Y-1678329D01*
X-19732257Y-1678330D01*
X-19756290Y-1683112D01*
X-19778929Y-1692490D01*
X-19799302Y-1706105D01*
X-19816629Y-1723432D01*
X-19823558Y-1733802D01*
X-19833763Y-1746237D01*
X-19841528Y-1752610D01*
X-19850392Y-1757348D01*
X-19860001Y-1760263D01*
X-19876140Y-1761852D01*
X-20363862Y-1761852D01*
X-20382199Y-1760046D01*
X-20394450Y-1759444D01*
X-20412869Y-1759444D01*
X-20435149Y-1757250D01*
X-20519233Y-1740524D01*
X-20540660Y-1734024D01*
X-20619858Y-1701220D01*
X-20625303Y-1698309D01*
X-20625309Y-1698307D01*
X-20634169Y-1693571D01*
X-20634173Y-1693568D01*
X-20639614Y-1690660D01*
X-20710899Y-1643029D01*
X-20728204Y-1628828D01*
X-20788828Y-1568204D01*
X-20803029Y-1550899D01*
X-20850660Y-1479614D01*
X-20853568Y-1474173D01*
X-20853571Y-1474169D01*
X-20858307Y-1465309D01*
X-20858309Y-1465303D01*
X-20861220Y-1459858D01*
X-20894024Y-1380660D01*
X-20900524Y-1359233D01*
X-20917250Y-1275149D01*
X-20919444Y-1252869D01*
X-20919444Y-1234450D01*
X-20920046Y-1222199D01*
X-20921852Y-1203862D01*
X-20921852Y-716139D01*
X-20920046Y-697801D01*
X-20919444Y-685550D01*
X-20919444Y-667131D01*
X-20917250Y-644851D01*
X-20900524Y-560767D01*
X-20894024Y-539340D01*
X-20861220Y-460142D01*
X-20858309Y-454697D01*
X-20858307Y-454691D01*
X-20853571Y-445831D01*
X-20853568Y-445827D01*
X-20850660Y-440386D01*
X-20803029Y-369101D01*
X-20788828Y-351796D01*
X-20728204Y-291172D01*
X-20710899Y-276971D01*
X-20639614Y-229340D01*
X-20634173Y-226432D01*
X-20634169Y-226429D01*
X-20625309Y-221693D01*
X-20625303Y-221691D01*
X-20619858Y-218780D01*
X-20540660Y-185976D01*
X-20519233Y-179476D01*
X-20435149Y-162750D01*
X-20412869Y-160556D01*
X-20394450Y-160556D01*
X-20382199Y-159954D01*
X-20363861Y-158148D01*
X-19876140Y-158148D01*
X-19860001Y-159737D01*
X-19860001Y-159737D01*
G37*
G36*
X-15790409Y-223085D02*
G01*
X-15756431Y-233393D01*
X-15725110Y-250134D01*
X-15697661Y-272661D01*
X-15675134Y-300110D01*
X-15658393Y-331431D01*
X-15648085Y-365409D01*
X-15644000Y-406890D01*
X-15644000Y-1008110D01*
X-15648085Y-1049591D01*
X-15658393Y-1083569D01*
X-15675134Y-1114890D01*
X-15697661Y-1142339D01*
X-15725110Y-1164866D01*
X-15756431Y-1181607D01*
X-15790409Y-1191915D01*
X-15831890Y-1196000D01*
X-16508110Y-1196000D01*
X-16549591Y-1191915D01*
X-16583569Y-1181607D01*
X-16614890Y-1164866D01*
X-16642339Y-1142339D01*
X-16664866Y-1114890D01*
X-16681607Y-1083569D01*
X-16691915Y-1049591D01*
X-16696000Y-1008110D01*
X-16696000Y-406890D01*
X-16691915Y-365409D01*
X-16681607Y-331431D01*
X-16664866Y-300110D01*
X-16642339Y-272661D01*
X-16614890Y-250134D01*
X-16583569Y-233393D01*
X-16549591Y-223085D01*
X-16508110Y-219000D01*
X-15831890Y-219000D01*
X-15790409Y-223085D01*
X-15790409Y-223085D01*
G37*
G36*
X-15790409Y1351915D02*
G01*
X-15756431Y1341607D01*
X-15725110Y1324866D01*
X-15697661Y1302339D01*
X-15675134Y1274890D01*
X-15658393Y1243569D01*
X-15648085Y1209591D01*
X-15644000Y1168110D01*
X-15644000Y566890D01*
X-15648085Y525409D01*
X-15658393Y491431D01*
X-15675134Y460110D01*
X-15697661Y432661D01*
X-15725110Y410134D01*
X-15756431Y393393D01*
X-15790409Y383085D01*
X-15831890Y379000D01*
X-16508110Y379000D01*
X-16549591Y383085D01*
X-16583569Y393393D01*
X-16614890Y410134D01*
X-16642339Y432661D01*
X-16664866Y460110D01*
X-16681607Y491431D01*
X-16691915Y525409D01*
X-16696000Y566890D01*
X-16696000Y1168110D01*
X-16691915Y1209591D01*
X-16681607Y1243569D01*
X-16664866Y1274890D01*
X-16642339Y1302339D01*
X-16614890Y1324866D01*
X-16583569Y1341607D01*
X-16549591Y1351915D01*
X-16508110Y1356000D01*
X-15831890Y1356000D01*
X-15790409Y1351915D01*
X-15790409Y1351915D01*
G37*
G36*
X-24749000Y849000D02*
G01*
X-26851000Y849000D01*
X-26851000Y2951000D01*
X-24749000Y2951000D01*
X-24749000Y849000D01*
X-24749000Y849000D01*
G37*
G36*
X-12700409Y2396915D02*
G01*
X-12666431Y2386607D01*
X-12635110Y2369866D01*
X-12607661Y2347339D01*
X-12585134Y2319890D01*
X-12568393Y2288569D01*
X-12558085Y2254591D01*
X-12554000Y2213110D01*
X-12554000Y1611890D01*
X-12558085Y1570409D01*
X-12568393Y1536431D01*
X-12585134Y1505110D01*
X-12607661Y1477661D01*
X-12635110Y1455134D01*
X-12666431Y1438393D01*
X-12700409Y1428085D01*
X-12741890Y1424000D01*
X-13418110Y1424000D01*
X-13459591Y1428085D01*
X-13493569Y1438393D01*
X-13524890Y1455134D01*
X-13552339Y1477661D01*
X-13574866Y1505110D01*
X-13591607Y1536431D01*
X-13601915Y1570409D01*
X-13606000Y1611890D01*
X-13606000Y2213110D01*
X-13601915Y2254591D01*
X-13591607Y2288569D01*
X-13574866Y2319890D01*
X-13552339Y2347339D01*
X-13524890Y2369866D01*
X-13493569Y2386607D01*
X-13459591Y2396915D01*
X-13418110Y2401000D01*
X-12741890Y2401000D01*
X-12700409Y2396915D01*
X-12700409Y2396915D01*
G37*
G36*
X-12700409Y3971915D02*
G01*
X-12666431Y3961607D01*
X-12635110Y3944866D01*
X-12607661Y3922339D01*
X-12585134Y3894890D01*
X-12568393Y3863569D01*
X-12558085Y3829591D01*
X-12554000Y3788110D01*
X-12554000Y3186890D01*
X-12558085Y3145409D01*
X-12568393Y3111431D01*
X-12585134Y3080110D01*
X-12607661Y3052661D01*
X-12635110Y3030134D01*
X-12666431Y3013393D01*
X-12700409Y3003085D01*
X-12741890Y2999000D01*
X-13418110Y2999000D01*
X-13459591Y3003085D01*
X-13493569Y3013393D01*
X-13524890Y3030134D01*
X-13552339Y3052661D01*
X-13574866Y3080110D01*
X-13591607Y3111431D01*
X-13601915Y3145409D01*
X-13606000Y3186890D01*
X-13606000Y3788110D01*
X-13601915Y3829591D01*
X-13591607Y3863569D01*
X-13574866Y3894890D01*
X-13552339Y3922339D01*
X-13524890Y3944866D01*
X-13493569Y3961607D01*
X-13459591Y3971915D01*
X-13418110Y3976000D01*
X-12741890Y3976000D01*
X-12700409Y3971915D01*
X-12700409Y3971915D01*
G37*
M02*
