  0
SECTION
  2
HEADER
  9
$ACADVER
  1
AC1014
  9
$ACADMAINTVER
 70
     9
  9
$DWGCODEPAGE
  3
ANSI_1252
  9
$INSBASE
 10
0.0
 20
0.0
 30
0.0
  9
$EXTMIN
 10
1.000000000000000E+20
 20
1.000000000000000E+20
 30
1.000000000000000E+20
  9
$EXTMAX
 10
-1.000000000000000E+20
 20
-1.000000000000000E+20
 30
-1.000000000000000E+20
  9
$LIMMIN
 10
0.0
 20
0.0
  9
$LIMMAX
 10
12.0
 20
9.0
  9
$ORTHOMODE
 70
     0
  9
$REGENMODE
 70
     1
  9
$FILLMODE
 70
     1
  9
$QTEXTMODE
 70
     0
  9
$MIRRTEXT
 70
     1
  9
$DRAGMODE
 70
     2
  9
$LTSCALE
 40
1.0
  9
$OSMODE
 70
    37
  9
$ATTMODE
 70
     1
  9
$TEXTSIZE
 40
0.2
  9
$TRACEWID
 40
0.05
  9
$TEXTSTYLE
  7
STANDARD
  9
$CLAYER
  8
0
  9
$CELTYPE
  6
BYLAYER
  9
$CECOLOR
 62
   256
  9
$CELTSCALE
 40
1.0
  9
$DELOBJ
 70
     1
  9
$DISPSILH
 70
     0
  9
$DIMSCALE
 40
1.0
  9
$DIMASZ
 40
0.18
  9
$DIMEXO
 40
0.0625
  9
$DIMDLI
 40
0.38
  9
$DIMRND
 40
0.0
  9
$DIMDLE
 40
0.0
  9
$DIMEXE
 40
0.18
  9
$DIMTP
 40
0.0
  9
$DIMTM
 40
0.0
  9
$DIMTXT
 40
0.18
  9
$DIMCEN
 40
0.09
  9
$DIMTSZ
 40
0.0
  9
$DIMTOL
 70
     0
  9
$DIMLIM
 70
     0
  9
$DIMTIH
 70
     1
  9
$DIMTOH
 70
     1
  9
$DIMSE1
 70
     0
  9
$DIMSE2
 70
     0
  9
$DIMTAD
 70
     0
  9
$DIMZIN
 70
     0
  9
$DIMBLK
  1

  9
$DIMASO
 70
     1
  9
$DIMSHO
 70
     1
  9
$DIMPOST
  1

  9
$DIMAPOST
  1

  9
$DIMALT
 70
     0
  9
$DIMALTD
 70
     2
  9
$DIMALTF
 40
25.4
  9
$DIMLFAC
 40
1.0
  9
$DIMTOFL
 70
     0
  9
$DIMTVP
 40
0.0
  9
$DIMTIX
 70
     0
  9
$DIMSOXD
 70
     0
  9
$DIMSAH
 70
     0
  9
$DIMBLK1
  1

  9
$DIMBLK2
  1

  9
$DIMSTYLE
  2
STANDARD
  9
$DIMCLRD
 70
     0
  9
$DIMCLRE
 70
     0
  9
$DIMCLRT
 70
     0
  9
$DIMTFAC
 40
1.0
  9
$DIMGAP
 40
0.09
  9
$DIMJUST
 70
     0
  9
$DIMSD1
 70
     0
  9
$DIMSD2
 70
     0
  9
$DIMTOLJ
 70
     1
  9
$DIMTZIN
 70
     0
  9
$DIMALTZ
 70
     0
  9
$DIMALTTZ
 70
     0
  9
$DIMFIT
 70
     3
  9
$DIMUPT
 70
     0
  9
$DIMUNIT
 70
     2
  9
$DIMDEC
 70
     4
  9
$DIMTDEC
 70
     4
  9
$DIMALTU
 70
     2
  9
$DIMALTTD
 70
     2
  9
$DIMTXSTY
  7
STANDARD
  9
$DIMAUNIT
 70
     0
  9
$LUNITS
 70
     2
  9
$LUPREC
 70
     4
  9
$SKETCHINC
 40
0.1
  9
$FILLETRAD
 40
0.5
  9
$AUNITS
 70
     0
  9
$AUPREC
 70
     0
  9
$MENU
  1
.
  9
$ELEVATION
 40
0.0
  9
$PELEVATION
 40
0.0
  9
$THICKNESS
 40
0.0
  9
$LIMCHECK
 70
     0
  9
$CHAMFERA
 40
0.5
  9
$CHAMFERB
 40
0.5
  9
$CHAMFERC
 40
1.0
  9
$CHAMFERD
 40
0.0
  9
$SKPOLY
 70
     0
  9
$TDCREATE
 40
2458688.982377662
  9
$TDUPDATE
 40
2458688.982377743
  9
$TDINDWG
 40
0.0000000116
  9
$TDUSRTIMER
 40
0.0000000116
  9
$USRTIMER
 70
     1
  9
$ANGBASE
 50
0.0
  9
$ANGDIR
 70
     0
  9
$PDMODE
 70
     0
  9
$PDSIZE
 40
0.0
  9
$PLINEWID
 40
0.0
  9
$COORDS
 70
     1
  9
$SPLFRAME
 70
     0
  9
$SPLINETYPE
 70
     6
  9
$SPLINESEGS
 70
     8
  9
$ATTDIA
 70
     0
  9
$ATTREQ
 70
     1
  9
$HANDLING
 70
     1
  9
$HANDSEED
  5
294
  9
$SURFTAB1
 70
     6
  9
$SURFTAB2
 70
     6
  9
$SURFTYPE
 70
     6
  9
$SURFU
 70
     6
  9
$SURFV
 70
     6
  9
$UCSNAME
  2

  9
$UCSORG
 10
0.0
 20
0.0
 30
0.0
  9
$UCSXDIR
 10
1.0
 20
0.0
 30
0.0
  9
$UCSYDIR
 10
0.0
 20
1.0
 30
0.0
  9
$PUCSNAME
  2

  9
$PUCSORG
 10
0.0
 20
0.0
 30
0.0
  9
$PUCSXDIR
 10
1.0
 20
0.0
 30
0.0
  9
$PUCSYDIR
 10
0.0
 20
1.0
 30
0.0
  9
$USERI1
 70
     0
  9
$USERI2
 70
     0
  9
$USERI3
 70
     0
  9
$USERI4
 70
     0
  9
$USERI5
 70
     0
  9
$USERR1
 40
0.0
  9
$USERR2
 40
0.0
  9
$USERR3
 40
0.0
  9
$USERR4
 40
0.0
  9
$USERR5
 40
0.0
  9
$WORLDVIEW
 70
     1
  9
$SHADEDGE
 70
     3
  9
$SHADEDIF
 70
    70
  9
$TILEMODE
 70
     1
  9
$MAXACTVP
 70
    64
  9
$PINSBASE
 10
0.0
 20
0.0
 30
0.0
  9
$PLIMCHECK
 70
     0
  9
$PEXTMIN
 10
1.000000000000000E+20
 20
1.000000000000000E+20
 30
1.000000000000000E+20
  9
$PEXTMAX
 10
-1.000000000000000E+20
 20
-1.000000000000000E+20
 30
-1.000000000000000E+20
  9
$PLIMMIN
 10
0.0
 20
0.0
  9
$PLIMMAX
 10
12.0
 20
9.0
  9
$UNITMODE
 70
     0
  9
$VISRETAIN
 70
     1
  9
$PLINEGEN
 70
     0
  9
$PSLTSCALE
 70
     1
  9
$TREEDEPTH
 70
  3020
  9
$PICKSTYLE
 70
     1
  9
$CMLSTYLE
  2
STANDARD
  9
$CMLJUST
 70
     0
  9
$CMLSCALE
 40
1.0
  9
$PROXYGRAPHICS
 70
     1
  9
$MEASUREMENT
 70
     0
  0
ENDSEC
  0
SECTION
  2
CLASSES
  0
CLASS
  1
ACDBDICTIONARYWDFLT
  2
AcDbDictionaryWithDefault
  3
ObjectDBX Classes
 90
        0
280
     0
281
     0
  0
CLASS
  1
VISUALSTYLE
  2
AcDbVisualStyle
  3
ObjectDBX Classes
 90
     4095
280
     0
281
     0
  0
CLASS
  1
MATERIAL
  2
AcDbMaterial
  3
ObjectDBX Classes
 90
     1153
280
     0
281
     0
  0
CLASS
  1
SUN
  2
AcDbSun
  3
SCENEOE
 90
     1024
280
     0
281
     0
  0
CLASS
  1
DICTIONARYVAR
  2
AcDbDictionaryVar
  3
ObjectDBX Classes
 90
        0
280
     0
281
     0
  0
CLASS
  1
XRECORD
  2
AcDbXrecord
  3
AutoCAD 2000
 90
        0
280
     0
281
     0
  0
CLASS
  1
LWPOLYLINE
  2
AcDbPolyline
  3
AutoCAD 2000
 90
        0
280
     0
281
     1
  0
CLASS
  1
HATCH
  2
AcDbHatch
  3
AutoCAD 2000
 90
        0
280
     0
281
     1
  0
CLASS
  1
ACDBPLACEHOLDER
  2
AcDbPlaceHolder
  3
ObjectDBX Classes
 90
        0
280
     0
281
     0
  0
CLASS
  1
LAYOUT
  2
AcDbLayout
  3
ObjectDBX Classes
 90
        0
280
     0
281
     0
  0
ENDSEC
  0
SECTION
  2
TABLES
  0
TABLE
  2
VPORT
  5
8
330
0
100
AcDbSymbolTable
 70
     1
  0
VPORT
  5
29
330
8
100
AcDbSymbolTableRecord
100
AcDbViewportTableRecord
  2
*ACTIVE
 70
     0
 10
0.0
 20
0.0
 11
1.0
 21
1.0
 12
0.0
 22
0.0
 13
0.0
 23
0.0
 14
0.5
 24
0.5
 15
0.5
 25
0.5
 16
0.0
 26
0.0
 36
1.0
 17
111.199999972201
 27
-65.50833331696454
 37
0.0
 40
39.99999999001658
 41
1.749999999999326
 42
50.0
 43
0.0
 44
0.0
 50
0.0
 51
0.0
 71
     0
 72
   100
 73
     1
 74
     3
 75
     0
 76
     0
 77
     0
 78
     0
  0
ENDTAB
  0
TABLE
  2
LTYPE
  5
5
330
0
100
AcDbSymbolTable
 70
     1
  0
LTYPE
  5
14
330
5
100
AcDbSymbolTableRecord
100
AcDbLinetypeTableRecord
  2
BYBLOCK
 70
     0
  3

 72
    65
 73
     0
 40
0.0
  0
LTYPE
  5
15
330
5
100
AcDbSymbolTableRecord
100
AcDbLinetypeTableRecord
  2
BYLAYER
 70
     0
  3

 72
    65
 73
     0
 40
0.0
  0
LTYPE
  5
16
330
5
100
AcDbSymbolTableRecord
100
AcDbLinetypeTableRecord
  2
CONTINUOUS
 70
     0
  3
Solid line
 72
    65
 73
     0
 40
0.0
  0
ENDTAB
  0
TABLE
  2
LAYER
  5
2
330
0
100
AcDbSymbolTable
 70
     2
  0
LAYER
  5
10
330
2
100
AcDbSymbolTableRecord
100
AcDbLayerTableRecord
  2
0
 70
     0
 62
     7
  6
CONTINUOUS
  0
LAYER
  5
40
330
2
100
AcDbSymbolTableRecord
100
AcDbLayerTableRecord
  2
LAYER_1
 70
     0
 62
     7
  6
CONTINUOUS
  0
ENDTAB
  0
TABLE
  2
STYLE
  5
3
330
0
100
AcDbSymbolTable
 70
     1
  0
STYLE
  5
11
330
3
100
AcDbSymbolTableRecord
100
AcDbTextStyleTableRecord
  2
STANDARD
 70
     0
 40
0.0
 41
1.0
 50
0.0
 71
     0
 42
0.2
  3
txt
  4

  0
ENDTAB
  0
TABLE
  2
VIEW
  5
6
330
0
100
AcDbSymbolTable
 70
     0
  0
ENDTAB
  0
TABLE
  2
UCS
  5
7
330
0
100
AcDbSymbolTable
 70
     0
  0
ENDTAB
  0
TABLE
  2
APPID
  5
9
330
0
100
AcDbSymbolTable
 70
     1
  0
APPID
  5
12
330
9
100
AcDbSymbolTableRecord
100
AcDbRegAppTableRecord
  2
ACAD
 70
     0
  0
ENDTAB
  0
TABLE
  2
DIMSTYLE
  5
A
330
0
100
AcDbSymbolTable
 70
     1
  0
DIMSTYLE
105
27
330
A
100
AcDbSymbolTableRecord
100
AcDbDimStyleTableRecord
  2
STANDARD
 70
     0
  3

  4

  5

  6

  7

 40
1.0
 41
0.18
 42
0.0625
 43
0.38
 44
0.18
 45
0.0
 46
0.0
 47
0.0
 48
0.0
140
0.18
141
0.09
142
0.0
143
25.4
144
1.0
145
0.0
146
1.0
147
0.09
 71
     0
 72
     0
 73
     1
 74
     1
 75
     0
 76
     0
 77
     0
 78
     0
170
     0
171
     2
172
     0
173
     0
174
     0
175
     0
176
     0
177
     0
178
     0
270
     2
271
     4
272
     4
273
     2
274
     2
340
11
275
     0
280
     0
281
     0
282
     0
283
     1
284
     0
285
     0
286
     0
287
     3
288
     0
  0
ENDTAB
  0
TABLE
  2
BLOCK_RECORD
  5
1
330
0
100
AcDbSymbolTable
 70
     2
  0
BLOCK_RECORD
  5
1F
330
1
100
AcDbSymbolTableRecord
100
AcDbBlockTableRecord
  2
*MODEL_SPACE
  0
BLOCK_RECORD
  5
1B
330
1
100
AcDbSymbolTableRecord
100
AcDbBlockTableRecord
  2
*PAPER_SPACE
  0
BLOCK_RECORD
  5
41
330
1
100
AcDbSymbolTableRecord
100
AcDbBlockTableRecord
  2
BLOCK_2
  0
ENDTAB
  0
ENDSEC
  0
SECTION
  2
BLOCKS
  0
BLOCK
  5
20
330
1F
100
AcDbEntity
  8
0
100
AcDbBlockBegin
  2
*MODEL_SPACE
 70
     0
 10
0.0
 20
0.0
 30
0.0
  3
*MODEL_SPACE
  1

  0
ENDBLK
  5
21
330
1F
100
AcDbEntity
  8
0
100
AcDbBlockEnd
  0
BLOCK
  5
1C
330
1B
100
AcDbEntity
 67
     1
  8
0
100
AcDbBlockBegin
  2
*PAPER_SPACE
 70
     0
 10
0.0
 20
0.0
 30
0.0
  3
*PAPER_SPACE
  1

  0
ENDBLK
  5
1D
330
1B
100
AcDbEntity
 67
     1
  8
0
100
AcDbBlockEnd
  0
BLOCK
  5
43
330
41
100
AcDbEntity
  8
0
100
AcDbBlockBegin
  2
BLOCK_2
 70
     0
 10
0.0
 20
0.0
 30
0.0
  3
BLOCK_2
  1

  0
POLYLINE
  5
45
330
41
100
AcDbEntity
  8
LAYER_1
 62
     7
100
AcDb2dPolyline
 66
     1
 10
0.0
 20
0.0
 30
0.0
  0
VERTEX
  5
46
330
45
100
AcDbEntity
  8
LAYER_1
 62
     7
100
AcDbVertex
100
AcDb2dVertex
 10
92.47979869649811
 20
-81.08445635993722
 30
0.0
  0
VERTEX
  5
47
330
45
100
AcDbEntity
  8
LAYER_1
 62
     7
100
AcDbVertex
100
AcDb2dVertex
 10
92.1874878957539
 20
-81.08308942410162
 30
0.0
  0
VERTEX
  5
48
330
45
100
AcDbEntity
  8
LAYER_1
 62
     7
100
AcDbVertex
100
AcDb2dVertex
 10
91.89516195542994
 20
-81.0788984519864
 30
0.0
  0
VERTEX
  5
49
330
45
100
AcDbEntity
  8
LAYER_1
 62
     7
100
AcDbVertex
100
AcDb2dVertex
 10
91.60284610815916
 20
-81.07174819667898
 30
0.0
  0
VERTEX
  5
4A
330
45
100
AcDbEntity
  8
LAYER_1
 62
     7
100
AcDbVertex
100
AcDb2dVertex
 10
91.31056558657448
 20
-81.06150341126674
 30
0.0
  0
VERTEX
  5
4B
330
45
100
AcDbEntity
  8
LAYER_1
 62
     7
100
AcDbVertex
100
AcDb2dVertex
 10
91.0183456233089
 20
-81.04802884883708
 30
0.0
  0
VERTEX
  5
4C
330
45
100
AcDbEntity
  8
LAYER_1
 62
     7
100
AcDbVertex
100
AcDb2dVertex
 10
90.72621145099535
 20
-81.0311892624774
 30
0.0
  0
VERTEX
  5
4D
330
45
100
AcDbEntity
  8
LAYER_1
 62
     7
100
AcDbVertex
100
AcDb2dVertex
 10
90.43418830226676
 20
-81.01084940527508
 30
0.0
  0
VERTEX
  5
4E
330
45
100
AcDbEntity
  8
LAYER_1
 62
     7
100
AcDbVertex
100
AcDb2dVertex
 10
90.1423014097561
 20
-80.98687403031752
 30
0.0
  0
VERTEX
  5
4F
330
45
100
AcDbEntity
  8
LAYER_1
 62
     7
100
AcDbVertex
100
AcDb2dVertex
 10
89.8505760060963
 20
-80.95912789069213
 30
0.0
  0
VERTEX
  5
50
330
45
100
AcDbEntity
  8
LAYER_1
 62
     7
100
AcDbVertex
100
AcDb2dVertex
 10
89.55903732392034
 20
-80.92747573948628
 30
0.0
  0
VERTEX
  5
51
330
45
100
AcDbEntity
  8
LAYER_1
 62
     7
100
AcDbVertex
100
AcDb2dVertex
 10
89.26771059586113
 20
-80.8917823297874
 30
0.0
  0
VERTEX
  5
52
330
45
100
AcDbEntity
  8
LAYER_1
 62
     7
100
AcDbVertex
100
AcDb2dVertex
 10
88.97662105455164
 20
-80.85191241468286
 30
0.0
  0
VERTEX
  5
53
330
45
100
AcDbEntity
  8
LAYER_1
 62
     7
100
AcDbVertex
100
AcDb2dVertex
 10
88.68579393262482
 20
-80.80773074726007
 30
0.0
  0
VERTEX
  5
54
330
45
100
AcDbEntity
  8
LAYER_1
 62
     7
100
AcDbVertex
100
AcDb2dVertex
 10
88.39525446271361
 20
-80.7591020806064
 30
0.0
  0
VERTEX
  5
55
330
45
100
AcDbEntity
  8
LAYER_1
 62
     7
100
AcDbVertex
100
AcDb2dVertex
 10
88.10502787745096
 20
-80.70589116780927
 30
0.0
  0
VERTEX
  5
56
330
45
100
AcDbEntity
  8
LAYER_1
 62
     7
100
AcDbVertex
100
AcDb2dVertex
 10
87.81513940946984
 20
-80.64796276195607
 30
0.0
  0
VERTEX
  5
57
330
45
100
AcDbEntity
  8
LAYER_1
 62
     7
100
AcDbVertex
100
AcDb2dVertex
 10
87.07914909331582
 20
-80.4768437085026
 30
0.0
  0
VERTEX
  5
58
330
45
100
AcDbEntity
  8
LAYER_1
 62
     7
100
AcDbVertex
100
AcDb2dVertex
 10
86.36386467575943
 20
-80.27512201315639
 30
0.0
  0
VERTEX
  5
59
330
45
100
AcDbEntity
  8
LAYER_1
 62
     7
100
AcDbVertex
100
AcDb2dVertex
 10
85.670468053328
 20
-80.04361268996169
 30
0.0
  0
VERTEX
  5
5A
330
45
100
AcDbEntity
  8
LAYER_1
 62
     7
100
AcDbVertex
100
AcDb2dVertex
 10
85.0001411225488
 20
-79.78313075296275
 30
0.0
  0
VERTEX
  5
5B
330
45
100
AcDbEntity
  8
LAYER_1
 62
     7
100
AcDbVertex
100
AcDb2dVertex
 10
84.35406577994917
 20
-79.4944912162038
 30
0.0
  0
VERTEX
  5
5C
330
45
100
AcDbEntity
  8
LAYER_1
 62
     7
100
AcDbVertex
100
AcDb2dVertex
 10
83.73342392205642
 20
-79.17850909372908
 30
0.0
  0
VERTEX
  5
5D
330
45
100
AcDbEntity
  8
LAYER_1
 62
     7
100
AcDbVertex
100
AcDb2dVertex
 10
83.13939744539786
 20
-78.83599939958282
 30
0.0
  0
VERTEX
  5
5E
330
45
100
AcDbEntity
  8
LAYER_1
 62
     7
100
AcDbVertex
100
AcDb2dVertex
 10
82.57316824650081
 20
-78.46777714780927
 30
0.0
  0
VERTEX
  5
5F
330
45
100
AcDbEntity
  8
LAYER_1
 62
     7
100
AcDbVertex
100
AcDb2dVertex
 10
82.03591822189257
 20
-78.07465735245268
 30
0.0
  0
VERTEX
  5
60
330
45
100
AcDbEntity
  8
LAYER_1
 62
     7
100
AcDbVertex
100
AcDb2dVertex
 10
81.52882926810047
 20
-77.65745502755728
 30
0.0
  0
VERTEX
  5
61
330
45
100
AcDbEntity
  8
LAYER_1
 62
     7
100
AcDbVertex
100
AcDb2dVertex
 10
81.0530832816518
 20
-77.21698518716731
 30
0.0
  0
VERTEX
  5
62
330
45
100
AcDbEntity
  8
LAYER_1
 62
     7
100
AcDbVertex
100
AcDb2dVertex
 10
80.60986215907388
 20
-76.754062845327
 30
0.0
  0
VERTEX
  5
63
330
45
100
AcDbEntity
  8
LAYER_1
 62
     7
100
AcDbVertex
100
AcDb2dVertex
 10
80.20034779689404
 20
-76.2695030160806
 30
0.0
  0
VERTEX
  5
64
330
45
100
AcDbEntity
  8
LAYER_1
 62
     7
100
AcDbVertex
100
AcDb2dVertex
 10
79.82572209163958
 20
-75.76412071347237
 30
0.0
  0
VERTEX
  5
65
330
45
100
AcDbEntity
  8
LAYER_1
 62
     7
100
AcDbVertex
100
AcDb2dVertex
 10
79.4871669398378
 20
-75.23873095154651
 30
0.0
  0
VERTEX
  5
66
330
45
100
AcDbEntity
  8
LAYER_1
 62
     7
100
AcDbVertex
100
AcDb2dVertex
 10
79.18586423801604
 20
-74.6941487443473
 30
0.0
  0
VERTEX
  5
67
330
45
100
AcDbEntity
  8
LAYER_1
 62
     7
100
AcDbVertex
100
AcDb2dVertex
 10
79.04067524748586
 20
-74.39414451381707
 30
0.0
  0
VERTEX
  5
68
330
45
100
AcDbEntity
  8
LAYER_1
 62
     7
100
AcDbVertex
100
AcDb2dVertex
 10
78.90564541963347
 20
-74.07864744665639
 30
0.0
  0
VERTEX
  5
69
330
45
100
AcDbEntity
  8
LAYER_1
 62
     7
100
AcDbVertex
100
AcDb2dVertex
 10
78.78257686910403
 20
-73.74948438549076
 30
0.0
  0
VERTEX
  5
6A
330
45
100
AcDbEntity
  8
LAYER_1
 62
     7
100
AcDbVertex
100
AcDb2dVertex
 10
78.67327171054274
 20
-73.40848217294563
 30
0.0
  0
VERTEX
  5
6B
330
45
100
AcDbEntity
  8
LAYER_1
 62
     7
100
AcDbVertex
100
AcDb2dVertex
 10
78.57953205859478
 20
-73.05746765164649
 30
0.0
  0
VERTEX
  5
6C
330
45
100
AcDbEntity
  8
LAYER_1
 62
     7
100
AcDbVertex
100
AcDb2dVertex
 10
78.50316002790534
 20
-72.69826766421883
 30
0.0
  0
VERTEX
  5
6D
330
45
100
AcDbEntity
  8
LAYER_1
 62
     7
100
AcDbVertex
100
AcDb2dVertex
 10
78.44595773311963
 20
-72.33270905328811
 30
0.0
  0
VERTEX
  5
6E
330
45
100
AcDbEntity
  8
LAYER_1
 62
     7
100
AcDbVertex
100
AcDb2dVertex
 10
78.40972728888282
 20
-71.96261866147984
 30
0.0
  0
VERTEX
  5
6F
330
45
100
AcDbEntity
  8
LAYER_1
 62
     7
100
AcDbVertex
100
AcDb2dVertex
 10
78.3962708098401
 20
-71.58982333141947
 30
0.0
  0
VERTEX
  5
70
330
45
100
AcDbEntity
  8
LAYER_1
 62
     7
100
AcDbVertex
100
AcDb2dVertex
 10
78.40739041063667
 20
-71.21614990573248
 30
0.0
  0
VERTEX
  5
71
330
45
100
AcDbEntity
  8
LAYER_1
 62
     7
100
AcDbVertex
100
AcDb2dVertex
 10
78.4448882059177
 20
-70.84342522704436
 30
0.0
  0
VERTEX
  5
72
330
45
100
AcDbEntity
  8
LAYER_1
 62
     7
100
AcDbVertex
100
AcDb2dVertex
 10
78.51056631032841
 20
-70.4734761379806
 30
0.0
  0
VERTEX
  5
73
330
45
100
AcDbEntity
  8
LAYER_1
 62
     7
100
AcDbVertex
100
AcDb2dVertex
 10
78.60622683851398
 20
-70.10812948116664
 30
0.0
  0
VERTEX
  5
74
330
45
100
AcDbEntity
  8
LAYER_1
 62
     7
100
AcDbVertex
100
AcDb2dVertex
 10
78.73367190511958
 20
-69.749212099228
 30
0.0
  0
VERTEX
  5
75
330
45
100
AcDbEntity
  8
LAYER_1
 62
     7
100
AcDbVertex
100
AcDb2dVertex
 10
78.89470362479041
 20
-69.39855083479016
 30
0.0
  0
VERTEX
  5
76
330
45
100
AcDbEntity
  8
LAYER_1
 62
     7
100
AcDbVertex
100
AcDb2dVertex
 10
79.09112411217167
 20
-69.05797253047857
 30
0.0
  0
VERTEX
  5
77
330
45
100
AcDbEntity
  8
LAYER_1
 62
     7
100
AcDbVertex
100
AcDb2dVertex
 10
79.09267440514003
 20
-69.05553943179211
 30
0.0
  0
VERTEX
  5
78
330
45
100
AcDbEntity
  8
LAYER_1
 62
     7
100
AcDbVertex
100
AcDb2dVertex
 10
79.09422469810839
 20
-69.05310633310565
 30
0.0
  0
VERTEX
  5
79
330
45
100
AcDbEntity
  8
LAYER_1
 62
     7
100
AcDbVertex
100
AcDb2dVertex
 10
79.09577499107675
 20
-69.0506732344192
 30
0.0
  0
VERTEX
  5
7A
330
45
100
AcDbEntity
  8
LAYER_1
 62
     7
100
AcDbVertex
100
AcDb2dVertex
 10
79.09732528404511
 20
-69.04824013573274
 30
0.0
  0
VERTEX
  5
7B
330
45
100
AcDbEntity
  8
LAYER_1
 62
     7
100
AcDbVertex
100
AcDb2dVertex
 10
79.09887557701347
 20
-69.04580703704627
 30
0.0
  0
VERTEX
  5
7C
330
45
100
AcDbEntity
  8
LAYER_1
 62
     7
100
AcDbVertex
100
AcDb2dVertex
 10
79.10042586998185
 20
-69.04337393835982
 30
0.0
  0
VERTEX
  5
7D
330
45
100
AcDbEntity
  8
LAYER_1
 62
     7
100
AcDbVertex
100
AcDb2dVertex
 10
79.10197616295021
 20
-69.04094083967337
 30
0.0
  0
VERTEX
  5
7E
330
45
100
AcDbEntity
  8
LAYER_1
 62
     7
100
AcDbVertex
100
AcDb2dVertex
 10
79.10352645591857
 20
-69.0385077409869
 30
0.0
  0
VERTEX
  5
7F
330
45
100
AcDbEntity
  8
LAYER_1
 62
     7
100
AcDbVertex
100
AcDb2dVertex
 10
79.10507674888693
 20
-69.03607464230045
 30
0.0
  0
VERTEX
  5
80
330
45
100
AcDbEntity
  8
LAYER_1
 62
     7
100
AcDbVertex
100
AcDb2dVertex
 10
79.10662704185529
 20
-69.03364154361398
 30
0.0
  0
VERTEX
  5
81
330
45
100
AcDbEntity
  8
LAYER_1
 62
     7
100
AcDbVertex
100
AcDb2dVertex
 10
79.10817733482365
 20
-69.03120844492753
 30
0.0
  0
VERTEX
  5
82
330
45
100
AcDbEntity
  8
LAYER_1
 62
     7
100
AcDbVertex
100
AcDb2dVertex
 10
79.10972762779201
 20
-69.02877534624108
 30
0.0
  0
VERTEX
  5
83
330
45
100
AcDbEntity
  8
LAYER_1
 62
     7
100
AcDbVertex
100
AcDb2dVertex
 10
79.11127792076037
 20
-69.02634224755461
 30
0.0
  0
VERTEX
  5
84
330
45
100
AcDbEntity
  8
LAYER_1
 62
     7
100
AcDbVertex
100
AcDb2dVertex
 10
79.11282821372875
 20
-69.02390914886816
 30
0.0
  0
VERTEX
  5
85
330
45
100
AcDbEntity
  8
LAYER_1
 62
     7
100
AcDbVertex
100
AcDb2dVertex
 10
79.11437850669711
 20
-69.0214760501817
 30
0.0
  0
VERTEX
  5
86
330
45
100
AcDbEntity
  8
LAYER_1
 62
     7
100
AcDbVertex
100
AcDb2dVertex
 10
79.11592879966547
 20
-69.01904295149524
 30
0.0
  0
VERTEX
  5
87
330
45
100
AcDbEntity
  8
LAYER_1
 62
     7
100
AcDbVertex
100
AcDb2dVertex
 10
79.32395251330814
 20
-68.72904421690812
 30
0.0
  0
VERTEX
  5
88
330
45
100
AcDbEntity
  8
LAYER_1
 62
     7
100
AcDbVertex
100
AcDb2dVertex
 10
79.51648439962568
 20
-68.44770279868567
 30
0.0
  0
VERTEX
  5
89
330
45
100
AcDbEntity
  8
LAYER_1
 62
     7
100
AcDbVertex
100
AcDb2dVertex
 10
79.69481939734102
 20
-68.17375252330652
 30
0.0
  0
VERTEX
  5
8A
330
45
100
AcDbEntity
  8
LAYER_1
 62
     7
100
AcDbVertex
100
AcDb2dVertex
 10
79.86025244517708
 20
-67.90592721724933
 30
0.0
  0
VERTEX
  5
8B
330
45
100
AcDbEntity
  8
LAYER_1
 62
     7
100
AcDbVertex
100
AcDb2dVertex
 10
80.01407848185679
 20
-67.64296070699271
 30
0.0
  0
VERTEX
  5
8C
330
45
100
AcDbEntity
  8
LAYER_1
 62
     7
100
AcDbVertex
100
AcDb2dVertex
 10
80.15759244610305
 20
-67.3835868190153
 30
0.0
  0
VERTEX
  5
8D
330
45
100
AcDbEntity
  8
LAYER_1
 62
     7
100
AcDbVertex
100
AcDb2dVertex
 10
80.29208927663879
 20
-67.12653937979577
 30
0.0
  0
VERTEX
  5
8E
330
45
100
AcDbEntity
  8
LAYER_1
 62
     7
100
AcDbVertex
100
AcDb2dVertex
 10
80.41886391218695
 20
-66.87055221581275
 30
0.0
  0
VERTEX
  5
8F
330
45
100
AcDbEntity
  8
LAYER_1
 62
     7
100
AcDbVertex
100
AcDb2dVertex
 10
80.53921129147044
 20
-66.61435915354485
 30
0.0
  0
VERTEX
  5
90
330
45
100
AcDbEntity
  8
LAYER_1
 62
     7
100
AcDbVertex
100
AcDb2dVertex
 10
80.65442635321219
 20
-66.35669401947074
 30
0.0
  0
VERTEX
  5
91
330
45
100
AcDbEntity
  8
LAYER_1
 62
     7
100
AcDbVertex
100
AcDb2dVertex
 10
80.7658040361351
 20
-66.09629064006904
 30
0.0
  0
VERTEX
  5
92
330
45
100
AcDbEntity
  8
LAYER_1
 62
     7
100
AcDbVertex
100
AcDb2dVertex
 10
80.87463927896212
 20
-65.8318828418184
 30
0.0
  0
VERTEX
  5
93
330
45
100
AcDbEntity
  8
LAYER_1
 62
     7
100
AcDbVertex
100
AcDb2dVertex
 10
80.98222702041615
 20
-65.56220445119746
 30
0.0
  0
VERTEX
  5
94
330
45
100
AcDbEntity
  8
LAYER_1
 62
     7
100
AcDbVertex
100
AcDb2dVertex
 10
81.08986219922014
 20
-65.28598929468484
 30
0.0
  0
VERTEX
  5
95
330
45
100
AcDbEntity
  8
LAYER_1
 62
     7
100
AcDbVertex
100
AcDb2dVertex
 10
81.19883975409698
 20
-65.0019711987592
 30
0.0
  0
VERTEX
  5
96
330
45
100
AcDbEntity
  8
LAYER_1
 62
     7
100
AcDbVertex
100
AcDb2dVertex
 10
81.31045462376962
 20
-64.70888398989918
 30
0.0
  0
VERTEX
  5
97
330
45
100
AcDbEntity
  8
LAYER_1
 62
     7
100
AcDbVertex
100
AcDb2dVertex
 10
81.34061249845223
 20
-64.62957336677654
 30
0.0
  0
VERTEX
  5
98
330
45
100
AcDbEntity
  8
LAYER_1
 62
     7
100
AcDbVertex
100
AcDb2dVertex
 10
81.37102774599093
 20
-64.54962839526159
 30
0.0
  0
VERTEX
  5
99
330
45
100
AcDbEntity
  8
LAYER_1
 62
     7
100
AcDbVertex
100
AcDb2dVertex
 10
81.40172358040802
 20
-64.46902838459529
 30
0.0
  0
VERTEX
  5
9A
330
45
100
AcDbEntity
  8
LAYER_1
 62
     7
100
AcDbVertex
100
AcDb2dVertex
 10
81.4327232157258
 20
-64.38775264401862
 30
0.0
  0
VERTEX
  5
9B
330
45
100
AcDbEntity
  8
LAYER_1
 62
     7
100
AcDbVertex
100
AcDb2dVertex
 10
81.46404986596662
 20
-64.30578048277258
 30
0.0
  0
VERTEX
  5
9C
330
45
100
AcDbEntity
  8
LAYER_1
 62
     7
100
AcDbVertex
100
AcDb2dVertex
 10
81.49572674515274
 20
-64.22309121009813
 30
0.0
  0
VERTEX
  5
9D
330
45
100
AcDbEntity
  8
LAYER_1
 62
     7
100
AcDbVertex
100
AcDb2dVertex
 10
81.5277770673065
 20
-64.13966413523627
 30
0.0
  0
VERTEX
  5
9E
330
45
100
AcDbEntity
  8
LAYER_1
 62
     7
100
AcDbVertex
100
AcDb2dVertex
 10
81.56022404645023
 20
-64.05547856742797
 30
0.0
  0
VERTEX
  5
9F
330
45
100
AcDbEntity
  8
LAYER_1
 62
     7
100
AcDbVertex
100
AcDb2dVertex
 10
81.59309089660621
 20
-63.97051381591422
 30
0.0
  0
VERTEX
  5
A0
330
45
100
AcDbEntity
  8
LAYER_1
 62
     7
100
AcDbVertex
100
AcDb2dVertex
 10
81.62640083179677
 20
-63.884749189936
 30
0.0
  0
VERTEX
  5
A1
330
45
100
AcDbEntity
  8
LAYER_1
 62
     7
100
AcDbVertex
100
AcDb2dVertex
 10
81.66017706604423
 20
-63.79816399873429
 30
0.0
  0
VERTEX
  5
A2
330
45
100
AcDbEntity
  8
LAYER_1
 62
     7
100
AcDbVertex
100
AcDb2dVertex
 10
81.69444281337088
 20
-63.71073755155007
 30
0.0
  0
VERTEX
  5
A3
330
45
100
AcDbEntity
  8
LAYER_1
 62
     7
100
AcDbVertex
100
AcDb2dVertex
 10
81.72922128779905
 20
-63.62244915762433
 30
0.0
  0
VERTEX
  5
A4
330
45
100
AcDbEntity
  8
LAYER_1
 62
     7
100
AcDbVertex
100
AcDb2dVertex
 10
81.76453570335106
 20
-63.53327812619805
 30
0.0
  0
VERTEX
  5
A5
330
45
100
AcDbEntity
  8
LAYER_1
 62
     7
100
AcDbVertex
100
AcDb2dVertex
 10
81.80040927404919
 20
-63.44320376651221
 30
0.0
  0
VERTEX
  5
A6
330
45
100
AcDbEntity
  8
LAYER_1
 62
     7
100
AcDbVertex
100
AcDb2dVertex
 10
81.83686521391579
 20
-63.35220538780779
 30
0.0
  0
VERTEX
  5
A7
330
45
100
AcDbEntity
  8
LAYER_1
 62
     7
100
AcDbVertex
100
AcDb2dVertex
 10
81.86893101208443
 20
-63.27197907243546
 30
0.0
  0
VERTEX
  5
A8
330
45
100
AcDbEntity
  8
LAYER_1
 62
     7
100
AcDbVertex
100
AcDb2dVertex
 10
81.90079999571607
 20
-63.19163164042497
 30
0.0
  0
VERTEX
  5
A9
330
45
100
AcDbEntity
  8
LAYER_1
 62
     7
100
AcDbVertex
100
AcDb2dVertex
 10
81.93248528577985
 20
-63.11117116621887
 30
0.0
  0
VERTEX
  5
AA
330
45
100
AcDbEntity
  8
LAYER_1
 62
     7
100
AcDbVertex
100
AcDb2dVertex
 10
81.96400000324489
 20
-63.03060572425971
 30
0.0
  0
VERTEX
  5
AB
330
45
100
AcDbEntity
  8
LAYER_1
 62
     7
100
AcDbVertex
100
AcDb2dVertex
 10
81.99535726908034
 20
-62.94994338899003
 30
0.0
  0
VERTEX
  5
AC
330
45
100
AcDbEntity
  8
LAYER_1
 62
     7
100
AcDbVertex
100
AcDb2dVertex
 10
82.02657020425532
 20
-62.86919223485236
 30
0.0
  0
VERTEX
  5
AD
330
45
100
AcDbEntity
  8
LAYER_1
 62
     7
100
AcDbVertex
100
AcDb2dVertex
 10
82.05765192973897
 20
-62.78836033628927
 30
0.0
  0
VERTEX
  5
AE
330
45
100
AcDbEntity
  8
LAYER_1
 62
     7
100
AcDbVertex
100
AcDb2dVertex
 10
82.08861556650042
 20
-62.70745576774328
 30
0.0
  0
VERTEX
  5
AF
330
45
100
AcDbEntity
  8
LAYER_1
 62
     7
100
AcDbVertex
100
AcDb2dVertex
 10
82.1194742355088
 20
-62.62648660365694
 30
0.0
  0
VERTEX
  5
B0
330
45
100
AcDbEntity
  8
LAYER_1
 62
     7
100
AcDbVertex
100
AcDb2dVertex
 10
82.15024105773325
 20
-62.5454609184728
 30
0.0
  0
VERTEX
  5
B1
330
45
100
AcDbEntity
  8
LAYER_1
 62
     7
100
AcDbVertex
100
AcDb2dVertex
 10
82.1809291541429
 20
-62.46438678663339
 30
0.0
  0
VERTEX
  5
B2
330
45
100
AcDbEntity
  8
LAYER_1
 62
     7
100
AcDbVertex
100
AcDb2dVertex
 10
82.21155164570688
 20
-62.38327228258127
 30
0.0
  0
VERTEX
  5
B3
330
45
100
AcDbEntity
  8
LAYER_1
 62
     7
100
AcDbVertex
100
AcDb2dVertex
 10
82.24212165339434
 20
-62.30212548075897
 30
0.0
  0
VERTEX
  5
B4
330
45
100
AcDbEntity
  8
LAYER_1
 62
     7
100
AcDbVertex
100
AcDb2dVertex
 10
82.27265229817438
 20
-62.22095445560905
 30
0.0
  0
VERTEX
  5
B5
330
45
100
AcDbEntity
  8
LAYER_1
 62
     7
100
AcDbVertex
100
AcDb2dVertex
 10
82.30315670101616
 20
-62.13976728157403
 30
0.0
  0
VERTEX
  5
B6
330
45
100
AcDbEntity
  8
LAYER_1
 62
     7
100
AcDbVertex
100
AcDb2dVertex
 10
82.33364798288882
 20
-62.05857203309647
 30
0.0
  0
VERTEX
  5
B7
330
45
100
AcDbEntity
  8
LAYER_1
 62
     7
100
AcDbVertex
100
AcDb2dVertex
 10
82.43924932736836
 20
-61.77782139492012
 30
0.0
  0
VERTEX
  5
B8
330
45
100
AcDbEntity
  8
LAYER_1
 62
     7
100
AcDbVertex
100
AcDb2dVertex
 10
82.5458261654377
 20
-61.49624968686763
 30
0.0
  0
VERTEX
  5
B9
330
45
100
AcDbEntity
  8
LAYER_1
 62
     7
100
AcDbVertex
100
AcDb2dVertex
 10
82.65390989634673
 20
-61.21423085655928
 30
0.0
  0
VERTEX
  5
BA
330
45
100
AcDbEntity
  8
LAYER_1
 62
     7
100
AcDbVertex
100
AcDb2dVertex
 10
82.76403191934534
 20
-60.93213885161538
 30
0.0
  0
VERTEX
  5
BB
330
45
100
AcDbEntity
  8
LAYER_1
 62
     7
100
AcDbVertex
100
AcDb2dVertex
 10
82.87672363368345
 20
-60.65034761965624
 30
0.0
  0
VERTEX
  5
BC
330
45
100
AcDbEntity
  8
LAYER_1
 62
     7
100
AcDbVertex
100
AcDb2dVertex
 10
82.99251643861093
 20
-60.36923110830213
 30
0.0
  0
VERTEX
  5
BD
330
45
100
AcDbEntity
  8
LAYER_1
 62
     7
100
AcDbVertex
100
AcDb2dVertex
 10
83.1119417333777
 20
-60.08916326517337
 30
0.0
  0
VERTEX
  5
BE
330
45
100
AcDbEntity
  8
LAYER_1
 62
     7
100
AcDbVertex
100
AcDb2dVertex
 10
83.23553091723366
 20
-59.81051803789025
 30
0.0
  0
VERTEX
  5
BF
330
45
100
AcDbEntity
  8
LAYER_1
 62
     7
100
AcDbVertex
100
AcDb2dVertex
 10
83.36381538942868
 20
-59.53366937407308
 30
0.0
  0
VERTEX
  5
C0
330
45
100
AcDbEntity
  8
LAYER_1
 62
     7
100
AcDbVertex
100
AcDb2dVertex
 10
83.49732654921269
 20
-59.25899122134214
 30
0.0
  0
VERTEX
  5
C1
330
45
100
AcDbEntity
  8
LAYER_1
 62
     7
100
AcDbVertex
100
AcDb2dVertex
 10
83.63659579583555
 20
-58.98685752731775
 30
0.0
  0
VERTEX
  5
C2
330
45
100
AcDbEntity
  8
LAYER_1
 62
     7
100
AcDbVertex
100
AcDb2dVertex
 10
83.7821545285472
 20
-58.71764223962018
 30
0.0
  0
VERTEX
  5
C3
330
45
100
AcDbEntity
  8
LAYER_1
 62
     7
100
AcDbVertex
100
AcDb2dVertex
 10
83.9345341465975
 20
-58.45171930586975
 30
0.0
  0
VERTEX
  5
C4
330
45
100
AcDbEntity
  8
LAYER_1
 62
     7
100
AcDbVertex
100
AcDb2dVertex
 10
84.09426604923638
 20
-58.18946267368676
 30
0.0
  0
VERTEX
  5
C5
330
45
100
AcDbEntity
  8
LAYER_1
 62
     7
100
AcDbVertex
100
AcDb2dVertex
 10
84.26188163571372
 20
-57.93124629069149
 30
0.0
  0
VERTEX
  5
C6
330
45
100
AcDbEntity
  8
LAYER_1
 62
     7
100
AcDbVertex
100
AcDb2dVertex
 10
84.43791230527941
 20
-57.67744410450425
 30
0.0
  0
VERTEX
  5
C7
330
45
100
AcDbEntity
  8
LAYER_1
 62
     7
100
AcDbVertex
100
AcDb2dVertex
 10
84.49312307245528
 20
-57.60106694317945
 30
0.0
  0
VERTEX
  5
C8
330
45
100
AcDbEntity
  8
LAYER_1
 62
     7
100
AcDbVertex
100
AcDb2dVertex
 10
84.54932144488474
 20
-57.52503900149466
 30
0.0
  0
VERTEX
  5
C9
330
45
100
AcDbEntity
  8
LAYER_1
 62
     7
100
AcDbVertex
100
AcDb2dVertex
 10
84.60649379694603
 20
-57.44937844694561
 30
0.0
  0
VERTEX
  5
CA
330
45
100
AcDbEntity
  8
LAYER_1
 62
     7
100
AcDbVertex
100
AcDb2dVertex
 10
84.66462650301733
 20
-57.37410344702801
 30
0.0
  0
VERTEX
  5
CB
330
45
100
AcDbEntity
  8
LAYER_1
 62
     7
100
AcDbVertex
100
AcDb2dVertex
 10
84.72370593747686
 20
-57.29923216923758
 30
0.0
  0
VERTEX
  5
CC
330
45
100
AcDbEntity
  8
LAYER_1
 62
     7
100
AcDbVertex
100
AcDb2dVertex
 10
84.78371847470285
 20
-57.22478278107005
 30
0.0
  0
VERTEX
  5
CD
330
45
100
AcDbEntity
  8
LAYER_1
 62
     7
100
AcDbVertex
100
AcDb2dVertex
 10
84.84465048907347
 20
-57.15077345002116
 30
0.0
  0
VERTEX
  5
CE
330
45
100
AcDbEntity
  8
LAYER_1
 62
     7
100
AcDbVertex
100
AcDb2dVertex
 10
84.90648835496695
 20
-57.0772223435866
 30
0.0
  0
VERTEX
  5
CF
330
45
100
AcDbEntity
  8
LAYER_1
 62
     7
100
AcDbVertex
100
AcDb2dVertex
 10
84.9692184467615
 20
-57.00414762926211
 30
0.0
  0
VERTEX
  5
D0
330
45
100
AcDbEntity
  8
LAYER_1
 62
     7
100
AcDbVertex
100
AcDb2dVertex
 10
85.03282713883532
 20
-56.93156747454342
 30
0.0
  0
VERTEX
  5
D1
330
45
100
AcDbEntity
  8
LAYER_1
 62
     7
100
AcDbVertex
100
AcDb2dVertex
 10
85.0973008055666
 20
-56.85950004692625
 30
0.0
  0
VERTEX
  5
D2
330
45
100
AcDbEntity
  8
LAYER_1
 62
     7
100
AcDbVertex
100
AcDb2dVertex
 10
85.16262582133359
 20
-56.78796351390631
 30
0.0
  0
VERTEX
  5
D3
330
45
100
AcDbEntity
  8
LAYER_1
 62
     7
100
AcDbVertex
100
AcDb2dVertex
 10
85.22878856051446
 20
-56.71697604297933
 30
0.0
  0
VERTEX
  5
D4
330
45
100
AcDbEntity
  8
LAYER_1
 62
     7
100
AcDbVertex
100
AcDb2dVertex
 10
85.29577539748743
 20
-56.64655580164104
 30
0.0
  0
VERTEX
  5
D5
330
45
100
AcDbEntity
  8
LAYER_1
 62
     7
100
AcDbVertex
100
AcDb2dVertex
 10
85.36357270663072
 20
-56.57672095738716
 30
0.0
  0
VERTEX
  5
D6
330
45
100
AcDbEntity
  8
LAYER_1
 62
     7
100
AcDbVertex
100
AcDb2dVertex
 10
85.43216686232252
 20
-56.50748967771341
 30
0.0
  0
VERTEX
  5
D7
330
45
100
AcDbEntity
  8
LAYER_1
 62
     7
100
AcDbVertex
100
AcDb2dVertex
 10
85.72371816081497
 20
-56.22294564960834
 30
0.0
  0
VERTEX
  5
D8
330
45
100
AcDbEntity
  8
LAYER_1
 62
     7
100
AcDbVertex
100
AcDb2dVertex
 10
86.02944414319262
 20
-55.94718257776939
 30
0.0
  0
VERTEX
  5
D9
330
45
100
AcDbEntity
  8
LAYER_1
 62
     7
100
AcDbVertex
100
AcDb2dVertex
 10
86.34900164564739
 20
-55.68039021159633
 30
0.0
  0
VERTEX
  5
DA
330
45
100
AcDbEntity
  8
LAYER_1
 62
     7
100
AcDbVertex
100
AcDb2dVertex
 10
86.68204750437116
 20
-55.42275830048893
 30
0.0
  0
VERTEX
  5
DB
330
45
100
AcDbEntity
  8
LAYER_1
 62
     7
100
AcDbVertex
100
AcDb2dVertex
 10
87.02823855555583
 20
-55.17447659384697
 30
0.0
  0
VERTEX
  5
DC
330
45
100
AcDbEntity
  8
LAYER_1
 62
     7
100
AcDbVertex
100
AcDb2dVertex
 10
87.38723163539332
 20
-54.93573484107021
 30
0.0
  0
VERTEX
  5
DD
330
45
100
AcDbEntity
  8
LAYER_1
 62
     7
100
AcDbVertex
100
AcDb2dVertex
 10
87.75868358007551
 20
-54.70672279155844
 30
0.0
  0
VERTEX
  5
DE
330
45
100
AcDbEntity
  8
LAYER_1
 62
     7
100
AcDbVertex
100
AcDb2dVertex
 10
88.1422512257943
 20
-54.48763019471143
 30
0.0
  0
VERTEX
  5
DF
330
45
100
AcDbEntity
  8
LAYER_1
 62
     7
100
AcDbVertex
100
AcDb2dVertex
 10
88.53759140874159
 20
-54.27864679992894
 30
0.0
  0
VERTEX
  5
E0
330
45
100
AcDbEntity
  8
LAYER_1
 62
     7
100
AcDbVertex
100
AcDb2dVertex
 10
88.9443609651093
 20
-54.07996235661076
 30
0.0
  0
VERTEX
  5
E1
330
45
100
AcDbEntity
  8
LAYER_1
 62
     7
100
AcDbVertex
100
AcDb2dVertex
 10
89.36221673108929
 20
-53.89176661415666
 30
0.0
  0
VERTEX
  5
E2
330
45
100
AcDbEntity
  8
LAYER_1
 62
     7
100
AcDbVertex
100
AcDb2dVertex
 10
89.79081554287347
 20
-53.71424932196641
 30
0.0
  0
VERTEX
  5
E3
330
45
100
AcDbEntity
  8
LAYER_1
 62
     7
100
AcDbVertex
100
AcDb2dVertex
 10
90.22981423665377
 20
-53.54760022943977
 30
0.0
  0
VERTEX
  5
E4
330
45
100
AcDbEntity
  8
LAYER_1
 62
     7
100
AcDbVertex
100
AcDb2dVertex
 10
90.67886964862207
 20
-53.39200908597655
 30
0.0
  0
VERTEX
  5
E5
330
45
100
AcDbEntity
  8
LAYER_1
 62
     7
100
AcDbVertex
100
AcDb2dVertex
 10
91.13763861497024
 20
-53.24766564097649
 30
0.0
  0
VERTEX
  5
E6
330
45
100
AcDbEntity
  8
LAYER_1
 62
     7
100
AcDbVertex
100
AcDb2dVertex
 10
91.60577797189022
 20
-53.11475964383937
 30
0.0
  0
VERTEX
  5
E7
330
45
100
AcDbEntity
  8
LAYER_1
 62
     7
100
AcDbVertex
100
AcDb2dVertex
 10
92.08672642260024
 20
-52.9917194379676
 30
0.0
  0
VERTEX
  5
E8
330
45
100
AcDbEntity
  8
LAYER_1
 62
     7
100
AcDbVertex
100
AcDb2dVertex
 10
92.57012748523285
 20
-52.88058600693163
 30
0.0
  0
VERTEX
  5
E9
330
45
100
AcDbEntity
  8
LAYER_1
 62
     7
100
AcDbVertex
100
AcDb2dVertex
 10
93.05568038680333
 20
-52.78057310188876
 30
0.0
  0
VERTEX
  5
EA
330
45
100
AcDbEntity
  8
LAYER_1
 62
     7
100
AcDbVertex
100
AcDb2dVertex
 10
93.54308435432691
 20
-52.69089447399633
 30
0.0
  0
VERTEX
  5
EB
330
45
100
AcDbEntity
  8
LAYER_1
 62
     7
100
AcDbVertex
100
AcDb2dVertex
 10
94.03203861481884
 20
-52.61076387441165
 30
0.0
  0
VERTEX
  5
EC
330
45
100
AcDbEntity
  8
LAYER_1
 62
     7
100
AcDbVertex
100
AcDb2dVertex
 10
94.52224239529441
 20
-52.53939505429204
 30
0.0
  0
VERTEX
  5
ED
330
45
100
AcDbEntity
  8
LAYER_1
 62
     7
100
AcDbVertex
100
AcDb2dVertex
 10
95.01339492276884
 20
-52.47600176479484
 30
0.0
  0
VERTEX
  5
EE
330
45
100
AcDbEntity
  8
LAYER_1
 62
     7
100
AcDbVertex
100
AcDb2dVertex
 10
95.50519542425738
 20
-52.41979775707735
 30
0.0
  0
VERTEX
  5
EF
330
45
100
AcDbEntity
  8
LAYER_1
 62
     7
100
AcDbVertex
100
AcDb2dVertex
 10
95.9973431267753
 20
-52.36999678229689
 30
0.0
  0
VERTEX
  5
F0
330
45
100
AcDbEntity
  8
LAYER_1
 62
     7
100
AcDbVertex
100
AcDb2dVertex
 10
96.48953725733786
 20
-52.3258125916108
 30
0.0
  0
VERTEX
  5
F1
330
45
100
AcDbEntity
  8
LAYER_1
 62
     7
100
AcDbVertex
100
AcDb2dVertex
 10
96.98147704296028
 20
-52.28645893617638
 30
0.0
  0
VERTEX
  5
F2
330
45
100
AcDbEntity
  8
LAYER_1
 62
     7
100
AcDbVertex
100
AcDb2dVertex
 10
97.47286171065782
 20
-52.25114956715097
 30
0.0
  0
VERTEX
  5
F3
330
45
100
AcDbEntity
  8
LAYER_1
 62
     7
100
AcDbVertex
100
AcDb2dVertex
 10
97.96339048744576
 20
-52.21909823569189
 30
0.0
  0
VERTEX
  5
F4
330
45
100
AcDbEntity
  8
LAYER_1
 62
     7
100
AcDbVertex
100
AcDb2dVertex
 10
98.45276260033934
 20
-52.18951869295645
 30
0.0
  0
VERTEX
  5
F5
330
45
100
AcDbEntity
  8
LAYER_1
 62
     7
100
AcDbVertex
100
AcDb2dVertex
 10
98.94067727635381
 20
-52.16162469010197
 30
0.0
  0
VERTEX
  5
F6
330
45
100
AcDbEntity
  8
LAYER_1
 62
     7
100
AcDbVertex
100
AcDb2dVertex
 10
99.42683374250441
 20
-52.13462997828579
 30
0.0
  0
VERTEX
  5
F7
330
45
100
AcDbEntity
  8
LAYER_1
 62
     7
100
AcDbVertex
100
AcDb2dVertex
 10
99.45893772605758
 20
-52.13284283500282
 30
0.0
  0
VERTEX
  5
F8
330
45
100
AcDbEntity
  8
LAYER_1
 62
     7
100
AcDbVertex
100
AcDb2dVertex
 10
99.49104170961076
 20
-52.13105569171984
 30
0.0
  0
VERTEX
  5
F9
330
45
100
AcDbEntity
  8
LAYER_1
 62
     7
100
AcDbVertex
100
AcDb2dVertex
 10
99.52314569316393
 20
-52.12926854843687
 30
0.0
  0
VERTEX
  5
FA
330
45
100
AcDbEntity
  8
LAYER_1
 62
     7
100
AcDbVertex
100
AcDb2dVertex
 10
99.5552496767171
 20
-52.12748140515389
 30
0.0
  0
VERTEX
  5
FB
330
45
100
AcDbEntity
  8
LAYER_1
 62
     7
100
AcDbVertex
100
AcDb2dVertex
 10
99.58735366027027
 20
-52.12569426187093
 30
0.0
  0
VERTEX
  5
FC
330
45
100
AcDbEntity
  8
LAYER_1
 62
     7
100
AcDbVertex
100
AcDb2dVertex
 10
99.61945764382344
 20
-52.12390711858795
 30
0.0
  0
VERTEX
  5
FD
330
45
100
AcDbEntity
  8
LAYER_1
 62
     7
100
AcDbVertex
100
AcDb2dVertex
 10
99.65156162737661
 20
-52.12211997530498
 30
0.0
  0
VERTEX
  5
FE
330
45
100
AcDbEntity
  8
LAYER_1
 62
     7
100
AcDbVertex
100
AcDb2dVertex
 10
99.68366561092978
 20
-52.120332832022
 30
0.0
  0
VERTEX
  5
FF
330
45
100
AcDbEntity
  8
LAYER_1
 62
     7
100
AcDbVertex
100
AcDb2dVertex
 10
99.71576959448295
 20
-52.11854568873903
 30
0.0
  0
VERTEX
  5
100
330
45
100
AcDbEntity
  8
LAYER_1
 62
     7
100
AcDbVertex
100
AcDb2dVertex
 10
99.74787357803612
 20
-52.11675854545606
 30
0.0
  0
VERTEX
  5
101
330
45
100
AcDbEntity
  8
LAYER_1
 62
     7
100
AcDbVertex
100
AcDb2dVertex
 10
99.7799775615893
 20
-52.11497140217308
 30
0.0
  0
VERTEX
  5
102
330
45
100
AcDbEntity
  8
LAYER_1
 62
     7
100
AcDbVertex
100
AcDb2dVertex
 10
99.81208154514248
 20
-52.11318425889011
 30
0.0
  0
VERTEX
  5
103
330
45
100
AcDbEntity
  8
LAYER_1
 62
     7
100
AcDbVertex
100
AcDb2dVertex
 10
99.84418552869565
 20
-52.11139711560713
 30
0.0
  0
VERTEX
  5
104
330
45
100
AcDbEntity
  8
LAYER_1
 62
     7
100
AcDbVertex
100
AcDb2dVertex
 10
99.87628951224882
 20
-52.10960997232417
 30
0.0
  0
VERTEX
  5
105
330
45
100
AcDbEntity
  8
LAYER_1
 62
     7
100
AcDbVertex
100
AcDb2dVertex
 10
99.90839349580199
 20
-52.10782282904119
 30
0.0
  0
VERTEX
  5
106
330
45
100
AcDbEntity
  8
LAYER_1
 62
     7
100
AcDbVertex
100
AcDb2dVertex
 10
99.94049747935516
 20
-52.10603568575821
 30
0.0
  0
VERTEX
  5
107
330
45
100
AcDbEntity
  8
LAYER_1
 62
     7
100
AcDbVertex
100
AcDb2dVertex
 10
100.8542200697322
 20
-52.0518793062045
 30
0.0
  0
VERTEX
  5
108
330
45
100
AcDbEntity
  8
LAYER_1
 62
     7
100
AcDbVertex
100
AcDb2dVertex
 10
101.7695242415424
 20
-51.99406671813654
 30
0.0
  0
VERTEX
  5
109
330
45
100
AcDbEntity
  8
LAYER_1
 62
     7
100
AcDbVertex
100
AcDb2dVertex
 10
102.6862071244169
 20
-51.93261558439738
 30
0.0
  0
VERTEX
  5
10A
330
45
100
AcDbEntity
  8
LAYER_1
 62
     7
100
AcDbVertex
100
AcDb2dVertex
 10
103.6040658479868
 20
-51.8675435678301
 30
0.0
  0
VERTEX
  5
10B
330
45
100
AcDbEntity
  8
LAYER_1
 62
     7
100
AcDbVertex
100
AcDb2dVertex
 10
104.5228975418832
 20
-51.79886833127776
 30
0.0
  0
VERTEX
  5
10C
330
45
100
AcDbEntity
  8
LAYER_1
 62
     7
100
AcDbVertex
100
AcDb2dVertex
 10
105.4424993357372
 20
-51.72660753758342
 30
0.0
  0
VERTEX
  5
10D
330
45
100
AcDbEntity
  8
LAYER_1
 62
     7
100
AcDbVertex
100
AcDb2dVertex
 10
106.3626683591799
 20
-51.65077884959015
 30
0.0
  0
VERTEX
  5
10E
330
45
100
AcDbEntity
  8
LAYER_1
 62
     7
100
AcDbVertex
100
AcDb2dVertex
 10
107.2832017418424
 20
-51.57139993014101
 30
0.0
  0
VERTEX
  5
10F
330
45
100
AcDbEntity
  8
LAYER_1
 62
     7
100
AcDbVertex
100
AcDb2dVertex
 10
108.2038966133558
 20
-51.48848844207906
 30
0.0
  0
VERTEX
  5
110
330
45
100
AcDbEntity
  8
LAYER_1
 62
     7
100
AcDbVertex
100
AcDb2dVertex
 10
109.1245501033511
 20
-51.40206204824737
 30
0.0
  0
VERTEX
  5
111
330
45
100
AcDbEntity
  8
LAYER_1
 62
     7
100
AcDbVertex
100
AcDb2dVertex
 10
110.0449593414594
 20
-51.31213841148901
 30
0.0
  0
VERTEX
  5
112
330
45
100
AcDbEntity
  8
LAYER_1
 62
     7
100
AcDbVertex
100
AcDb2dVertex
 10
110.9649214573119
 20
-51.21873519464703
 30
0.0
  0
VERTEX
  5
113
330
45
100
AcDbEntity
  8
LAYER_1
 62
     7
100
AcDbVertex
100
AcDb2dVertex
 10
111.8842335805397
 20
-51.1218700605645
 30
0.0
  0
VERTEX
  5
114
330
45
100
AcDbEntity
  8
LAYER_1
 62
     7
100
AcDbVertex
100
AcDb2dVertex
 10
112.8026928407738
 20
-51.0215606720845
 30
0.0
  0
VERTEX
  5
115
330
45
100
AcDbEntity
  8
LAYER_1
 62
     7
100
AcDbVertex
100
AcDb2dVertex
 10
113.7200963676453
 20
-50.91782469205007
 30
0.0
  0
VERTEX
  5
116
330
45
100
AcDbEntity
  8
LAYER_1
 62
     7
100
AcDbVertex
100
AcDb2dVertex
 10
114.6362412907854
 20
-50.81067978330427
 30
0.0
  0
VERTEX
  5
117
330
45
100
AcDbEntity
  8
LAYER_1
 62
     7
100
AcDbVertex
100
AcDb2dVertex
 10
114.7224763371506
 20
-50.8002583694614
 30
0.0
  0
VERTEX
  5
118
330
45
100
AcDbEntity
  8
LAYER_1
 62
     7
100
AcDbVertex
100
AcDb2dVertex
 10
114.8087113835157
 20
-50.78983695561852
 30
0.0
  0
VERTEX
  5
119
330
45
100
AcDbEntity
  8
LAYER_1
 62
     7
100
AcDbVertex
100
AcDb2dVertex
 10
114.8949464298809
 20
-50.77941554177563
 30
0.0
  0
VERTEX
  5
11A
330
45
100
AcDbEntity
  8
LAYER_1
 62
     7
100
AcDbVertex
100
AcDb2dVertex
 10
114.981181476246
 20
-50.76899412793276
 30
0.0
  0
VERTEX
  5
11B
330
45
100
AcDbEntity
  8
LAYER_1
 62
     7
100
AcDbVertex
100
AcDb2dVertex
 10
115.0674165226112
 20
-50.75857271408987
 30
0.0
  0
VERTEX
  5
11C
330
45
100
AcDbEntity
  8
LAYER_1
 62
     7
100
AcDbVertex
100
AcDb2dVertex
 10
115.1536515689763
 20
-50.748151300247
 30
0.0
  0
VERTEX
  5
11D
330
45
100
AcDbEntity
  8
LAYER_1
 62
     7
100
AcDbVertex
100
AcDb2dVertex
 10
115.2398866153415
 20
-50.73772988640411
 30
0.0
  0
VERTEX
  5
11E
330
45
100
AcDbEntity
  8
LAYER_1
 62
     7
100
AcDbVertex
100
AcDb2dVertex
 10
115.3261216617067
 20
-50.72730847256123
 30
0.0
  0
VERTEX
  5
11F
330
45
100
AcDbEntity
  8
LAYER_1
 62
     7
100
AcDbVertex
100
AcDb2dVertex
 10
115.4123567080718
 20
-50.71688705871835
 30
0.0
  0
VERTEX
  5
120
330
45
100
AcDbEntity
  8
LAYER_1
 62
     7
100
AcDbVertex
100
AcDb2dVertex
 10
115.498591754437
 20
-50.70646564487547
 30
0.0
  0
VERTEX
  5
121
330
45
100
AcDbEntity
  8
LAYER_1
 62
     7
100
AcDbVertex
100
AcDb2dVertex
 10
115.5848268008021
 20
-50.69604423103259
 30
0.0
  0
VERTEX
  5
122
330
45
100
AcDbEntity
  8
LAYER_1
 62
     7
100
AcDbVertex
100
AcDb2dVertex
 10
115.6710618471673
 20
-50.68562281718971
 30
0.0
  0
VERTEX
  5
123
330
45
100
AcDbEntity
  8
LAYER_1
 62
     7
100
AcDbVertex
100
AcDb2dVertex
 10
115.7572968935325
 20
-50.67520140334683
 30
0.0
  0
VERTEX
  5
124
330
45
100
AcDbEntity
  8
LAYER_1
 62
     7
100
AcDbVertex
100
AcDb2dVertex
 10
115.8435319398976
 20
-50.66477998950395
 30
0.0
  0
VERTEX
  5
125
330
45
100
AcDbEntity
  8
LAYER_1
 62
     7
100
AcDbVertex
100
AcDb2dVertex
 10
115.9297669862628
 20
-50.65435857566106
 30
0.0
  0
VERTEX
  5
126
330
45
100
AcDbEntity
  8
LAYER_1
 62
     7
100
AcDbVertex
100
AcDb2dVertex
 10
116.016002032628
 20
-50.64393716181819
 30
0.0
  0
VERTEX
  5
127
330
45
100
AcDbEntity
  8
LAYER_1
 62
     7
100
AcDbVertex
100
AcDb2dVertex
 10
117.063854066405
 20
-50.51687260331745
 30
0.0
  0
VERTEX
  5
128
330
45
100
AcDbEntity
  8
LAYER_1
 62
     7
100
AcDbVertex
100
AcDb2dVertex
 10
118.1154970509562
 20
-50.39240952927371
 30
0.0
  0
VERTEX
  5
129
330
45
100
AcDbEntity
  8
LAYER_1
 62
     7
100
AcDbVertex
100
AcDb2dVertex
 10
119.1702729192143
 20
-50.2736904117944
 30
0.0
  0
VERTEX
  5
12A
330
45
100
AcDbEntity
  8
LAYER_1
 62
     7
100
AcDbVertex
100
AcDb2dVertex
 10
120.227523604112
 20
-50.16385772298693
 30
0.0
  0
VERTEX
  5
12B
330
45
100
AcDbEntity
  8
LAYER_1
 62
     7
100
AcDbVertex
100
AcDb2dVertex
 10
121.286591038582
 20
-50.06605393495871
 30
0.0
  0
VERTEX
  5
12C
330
45
100
AcDbEntity
  8
LAYER_1
 62
     7
100
AcDbVertex
100
AcDb2dVertex
 10
122.346817155557
 20
-49.98342151981718
 30
0.0
  0
VERTEX
  5
12D
330
45
100
AcDbEntity
  8
LAYER_1
 62
     7
100
AcDbVertex
100
AcDb2dVertex
 10
123.4075438879697
 20
-49.91910294966974
 30
0.0
  0
VERTEX
  5
12E
330
45
100
AcDbEntity
  8
LAYER_1
 62
     7
100
AcDbVertex
100
AcDb2dVertex
 10
124.4681131687528
 20
-49.87624069662382
 30
0.0
  0
VERTEX
  5
12F
330
45
100
AcDbEntity
  8
LAYER_1
 62
     7
100
AcDbVertex
100
AcDb2dVertex
 10
125.527866930839
 20
-49.85797723278684
 30
0.0
  0
VERTEX
  5
130
330
45
100
AcDbEntity
  8
LAYER_1
 62
     7
100
AcDbVertex
100
AcDb2dVertex
 10
126.586147107161
 20
-49.86745503026623
 30
0.0
  0
VERTEX
  5
131
330
45
100
AcDbEntity
  8
LAYER_1
 62
     7
100
AcDbVertex
100
AcDb2dVertex
 10
127.6422956306515
 20
-49.90781656116938
 30
0.0
  0
VERTEX
  5
132
330
45
100
AcDbEntity
  8
LAYER_1
 62
     7
100
AcDbVertex
100
AcDb2dVertex
 10
128.6956544342432
 20
-49.98220429760374
 30
0.0
  0
VERTEX
  5
133
330
45
100
AcDbEntity
  8
LAYER_1
 62
     7
100
AcDbVertex
100
AcDb2dVertex
 10
129.7455654508688
 20
-50.09376071167671
 30
0.0
  0
VERTEX
  5
134
330
45
100
AcDbEntity
  8
LAYER_1
 62
     7
100
AcDbVertex
100
AcDb2dVertex
 10
130.791370613461
 20
-50.24562827549571
 30
0.0
  0
VERTEX
  5
135
330
45
100
AcDbEntity
  8
LAYER_1
 62
     7
100
AcDbVertex
100
AcDb2dVertex
 10
131.8324118549525
 20
-50.44094946116817
 30
0.0
  0
VERTEX
  5
136
330
45
100
AcDbEntity
  8
LAYER_1
 62
     7
100
AcDbVertex
100
AcDb2dVertex
 10
132.8680311082761
 20
-50.68286674080151
 30
0.0
  0
VERTEX
  5
137
330
45
100
AcDbEntity
  8
LAYER_1
 62
     7
100
AcDbVertex
100
AcDb2dVertex
 10
133.5998331437957
 20
-50.88537771290635
 30
0.0
  0
VERTEX
  5
138
330
45
100
AcDbEntity
  8
LAYER_1
 62
     7
100
AcDbVertex
100
AcDb2dVertex
 10
134.3098937334615
 20
-51.11194194469577
 30
0.0
  0
VERTEX
  5
139
330
45
100
AcDbEntity
  8
LAYER_1
 62
     7
100
AcDbVertex
100
AcDb2dVertex
 10
134.9973842376075
 20
-51.36200179498162
 30
0.0
  0
VERTEX
  5
13A
330
45
100
AcDbEntity
  8
LAYER_1
 62
     7
100
AcDbVertex
100
AcDb2dVertex
 10
135.6614760165675
 20
-51.63499962257573
 30
0.0
  0
VERTEX
  5
13B
330
45
100
AcDbEntity
  8
LAYER_1
 62
     7
100
AcDbVertex
100
AcDb2dVertex
 10
136.3013404306756
 20
-51.93037778628995
 30
0.0
  0
VERTEX
  5
13C
330
45
100
AcDbEntity
  8
LAYER_1
 62
     7
100
AcDbVertex
100
AcDb2dVertex
 10
136.9161488402657
 20
-52.24757864493608
 30
0.0
  0
VERTEX
  5
13D
330
45
100
AcDbEntity
  8
LAYER_1
 62
     7
100
AcDbVertex
100
AcDb2dVertex
 10
137.5050726056719
 20
-52.586044557326
 30
0.0
  0
VERTEX
  5
13E
330
45
100
AcDbEntity
  8
LAYER_1
 62
     7
100
AcDbVertex
100
AcDb2dVertex
 10
138.067283087228
 20
-52.94521788227151
 30
0.0
  0
VERTEX
  5
13F
330
45
100
AcDbEntity
  8
LAYER_1
 62
     7
100
AcDbVertex
100
AcDb2dVertex
 10
138.601951645268
 20
-53.32454097858447
 30
0.0
  0
VERTEX
  5
140
330
45
100
AcDbEntity
  8
LAYER_1
 62
     7
100
AcDbVertex
100
AcDb2dVertex
 10
139.108249640126
 20
-53.72345620507669
 30
0.0
  0
VERTEX
  5
141
330
45
100
AcDbEntity
  8
LAYER_1
 62
     7
100
AcDbVertex
100
AcDb2dVertex
 10
139.5853484321358
 20
-54.14140592056003
 30
0.0
  0
VERTEX
  5
142
330
45
100
AcDbEntity
  8
LAYER_1
 62
     7
100
AcDbVertex
100
AcDb2dVertex
 10
140.0324193816314
 20
-54.57783248384632
 30
0.0
  0
VERTEX
  5
143
330
45
100
AcDbEntity
  8
LAYER_1
 62
     7
100
AcDbVertex
100
AcDb2dVertex
 10
140.4486338489469
 20
-55.03217825374739
 30
0.0
  0
VERTEX
  5
144
330
45
100
AcDbEntity
  8
LAYER_1
 62
     7
100
AcDbVertex
100
AcDb2dVertex
 10
140.8331631944162
 20
-55.50388558907508
 30
0.0
  0
VERTEX
  5
145
330
45
100
AcDbEntity
  8
LAYER_1
 62
     7
100
AcDbVertex
100
AcDb2dVertex
 10
141.1851787783731
 20
-55.99239684864123
 30
0.0
  0
VERTEX
  5
146
330
45
100
AcDbEntity
  8
LAYER_1
 62
     7
100
AcDbVertex
100
AcDb2dVertex
 10
141.5038519611518
 20
-56.49715439125766
 30
0.0
  0
VERTEX
  5
147
330
45
100
AcDbEntity
  8
LAYER_1
 62
     7
100
AcDbVertex
100
AcDb2dVertex
 10
141.5253572295613
 20
-56.53381883678119
 30
0.0
  0
VERTEX
  5
148
330
45
100
AcDbEntity
  8
LAYER_1
 62
     7
100
AcDbVertex
100
AcDb2dVertex
 10
141.5465899855349
 20
-56.57055443832963
 30
0.0
  0
VERTEX
  5
149
330
45
100
AcDbEntity
  8
LAYER_1
 62
     7
100
AcDbVertex
100
AcDb2dVertex
 10
141.5675441732407
 20
-56.60735160750247
 30
0.0
  0
VERTEX
  5
14A
330
45
100
AcDbEntity
  8
LAYER_1
 62
     7
100
AcDbVertex
100
AcDb2dVertex
 10
141.5882137368469
 20
-56.64420075589917
 30
0.0
  0
VERTEX
  5
14B
330
45
100
AcDbEntity
  8
LAYER_1
 62
     7
100
AcDbVertex
100
AcDb2dVertex
 10
141.6085926205215
 20
-56.68109229511924
 30
0.0
  0
VERTEX
  5
14C
330
45
100
AcDbEntity
  8
LAYER_1
 62
     7
100
AcDbVertex
100
AcDb2dVertex
 10
141.6286747684326
 20
-56.71801663676214
 30
0.0
  0
VERTEX
  5
14D
330
45
100
AcDbEntity
  8
LAYER_1
 62
     7
100
AcDbVertex
100
AcDb2dVertex
 10
141.6484541247484
 20
-56.75496419242734
 30
0.0
  0
VERTEX
  5
14E
330
45
100
AcDbEntity
  8
LAYER_1
 62
     7
100
AcDbVertex
100
AcDb2dVertex
 10
141.6679246336369
 20
-56.79192537371435
 30
0.0
  0
VERTEX
  5
14F
330
45
100
AcDbEntity
  8
LAYER_1
 62
     7
100
AcDbVertex
100
AcDb2dVertex
 10
141.6870802392661
 20
-56.82889059222262
 30
0.0
  0
VERTEX
  5
150
330
45
100
AcDbEntity
  8
LAYER_1
 62
     7
100
AcDbVertex
100
AcDb2dVertex
 10
141.7059148858043
 20
-56.86585025955165
 30
0.0
  0
VERTEX
  5
151
330
45
100
AcDbEntity
  8
LAYER_1
 62
     7
100
AcDbVertex
100
AcDb2dVertex
 10
141.7244225174194
 20
-56.90279478730091
 30
0.0
  0
VERTEX
  5
152
330
45
100
AcDbEntity
  8
LAYER_1
 62
     7
100
AcDbVertex
100
AcDb2dVertex
 10
141.7425970782796
 20
-56.93971458706987
 30
0.0
  0
VERTEX
  5
153
330
45
100
AcDbEntity
  8
LAYER_1
 62
     7
100
AcDbVertex
100
AcDb2dVertex
 10
141.760432512553
 20
-56.97660007045803
 30
0.0
  0
VERTEX
  5
154
330
45
100
AcDbEntity
  8
LAYER_1
 62
     7
100
AcDbVertex
100
AcDb2dVertex
 10
141.7779227644077
 20
-57.01344164906485
 30
0.0
  0
VERTEX
  5
155
330
45
100
AcDbEntity
  8
LAYER_1
 62
     7
100
AcDbVertex
100
AcDb2dVertex
 10
141.7950617780117
 20
-57.05022973448983
 30
0.0
  0
VERTEX
  5
156
330
45
100
AcDbEntity
  8
LAYER_1
 62
     7
100
AcDbVertex
100
AcDb2dVertex
 10
141.8118434975331
 20
-57.08695473833243
 30
0.0
  0
VERTEX
  5
157
330
45
100
AcDbEntity
  8
LAYER_1
 62
     7
100
AcDbVertex
100
AcDb2dVertex
 10
141.8808348148676
 20
-57.24591098983446
 30
0.0
  0
VERTEX
  5
158
330
45
100
AcDbEntity
  8
LAYER_1
 62
     7
100
AcDbVertex
100
AcDb2dVertex
 10
141.9425949642516
 20
-57.40301062420414
 30
0.0
  0
VERTEX
  5
159
330
45
100
AcDbEntity
  8
LAYER_1
 62
     7
100
AcDbVertex
100
AcDb2dVertex
 10
141.9971194038112
 20
-57.55822184832395
 30
0.0
  0
VERTEX
  5
15A
330
45
100
AcDbEntity
  8
LAYER_1
 62
     7
100
AcDbVertex
100
AcDb2dVertex
 10
142.0444035916726
 20
-57.71151286907636
 30
0.0
  0
VERTEX
  5
15B
330
45
100
AcDbEntity
  8
LAYER_1
 62
     7
100
AcDbVertex
100
AcDb2dVertex
 10
142.0844429859618
 20
-57.86285189334387
 30
0.0
  0
VERTEX
  5
15C
330
45
100
AcDbEntity
  8
LAYER_1
 62
     7
100
AcDbVertex
100
AcDb2dVertex
 10
142.1172330448048
 20
-58.01220712800895
 30
0.0
  0
VERTEX
  5
15D
330
45
100
AcDbEntity
  8
LAYER_1
 62
     7
100
AcDbVertex
100
AcDb2dVertex
 10
142.1427692263278
 20
-58.15954677995411
 30
0.0
  0
VERTEX
  5
15E
330
45
100
AcDbEntity
  8
LAYER_1
 62
     7
100
AcDbVertex
100
AcDb2dVertex
 10
142.1610469886568
 20
-58.30483905606182
 30
0.0
  0
VERTEX
  5
15F
330
45
100
AcDbEntity
  8
LAYER_1
 62
     7
100
AcDbVertex
100
AcDb2dVertex
 10
142.1720617899178
 20
-58.44805216321456
 30
0.0
  0
VERTEX
  5
160
330
45
100
AcDbEntity
  8
LAYER_1
 62
     7
100
AcDbVertex
100
AcDb2dVertex
 10
142.1758090882371
 20
-58.58915430829481
 30
0.0
  0
VERTEX
  5
161
330
45
100
AcDbEntity
  8
LAYER_1
 62
     7
100
AcDbVertex
100
AcDb2dVertex
 10
142.1722843417405
 20
-58.72811369818508
 30
0.0
  0
VERTEX
  5
162
330
45
100
AcDbEntity
  8
LAYER_1
 62
     7
100
AcDbVertex
100
AcDb2dVertex
 10
142.1614830085541
 20
-58.86489853976783
 30
0.0
  0
VERTEX
  5
163
330
45
100
AcDbEntity
  8
LAYER_1
 62
     7
100
AcDbVertex
100
AcDb2dVertex
 10
142.1434005468042
 20
-58.99947703992555
 30
0.0
  0
VERTEX
  5
164
330
45
100
AcDbEntity
  8
LAYER_1
 62
     7
100
AcDbVertex
100
AcDb2dVertex
 10
142.1180324146166
 20
-59.13181740554074
 30
0.0
  0
VERTEX
  5
165
330
45
100
AcDbEntity
  8
LAYER_1
 62
     7
100
AcDbVertex
100
AcDb2dVertex
 10
142.0853740701176
 20
-59.26188784349586
 30
0.0
  0
VERTEX
  5
166
330
45
100
AcDbEntity
  8
LAYER_1
 62
     7
100
AcDbVertex
100
AcDb2dVertex
 10
142.0454209714331
 20
-59.38965656067342
 30
0.0
  0
VERTEX
  5
167
330
45
100
AcDbEntity
  8
LAYER_1
 62
     7
100
AcDbVertex
100
AcDb2dVertex
 10
142.0387701540405
 20
-59.40932119261804
 30
0.0
  0
VERTEX
  5
168
330
45
100
AcDbEntity
  8
LAYER_1
 62
     7
100
AcDbVertex
100
AcDb2dVertex
 10
142.0318760940663
 20
-59.42903830843918
 30
0.0
  0
VERTEX
  5
169
330
45
100
AcDbEntity
  8
LAYER_1
 62
     7
100
AcDbVertex
100
AcDb2dVertex
 10
142.0247539310902
 20
-59.44880387091559
 30
0.0
  0
VERTEX
  5
16A
330
45
100
AcDbEntity
  8
LAYER_1
 62
     7
100
AcDbVertex
100
AcDb2dVertex
 10
142.0174188046921
 20
-59.468613842826
 30
0.0
  0
VERTEX
  5
16B
330
45
100
AcDbEntity
  8
LAYER_1
 62
     7
100
AcDbVertex
100
AcDb2dVertex
 10
142.0098858544516
 20
-59.48846418694911
 30
0.0
  0
VERTEX
  5
16C
330
45
100
AcDbEntity
  8
LAYER_1
 62
     7
100
AcDbVertex
100
AcDb2dVertex
 10
142.0021702199485
 20
-59.50835086606367
 30
0.0
  0
VERTEX
  5
16D
330
45
100
AcDbEntity
  8
LAYER_1
 62
     7
100
AcDbVertex
100
AcDb2dVertex
 10
141.9942870407627
 20
-59.5282698429484
 30
0.0
  0
VERTEX
  5
16E
330
45
100
AcDbEntity
  8
LAYER_1
 62
     7
100
AcDbVertex
100
AcDb2dVertex
 10
141.9862514564739
 20
-59.54821708038205
 30
0.0
  0
VERTEX
  5
16F
330
45
100
AcDbEntity
  8
LAYER_1
 62
     7
100
AcDbVertex
100
AcDb2dVertex
 10
141.9780786066619
 20
-59.56818854114331
 30
0.0
  0
VERTEX
  5
170
330
45
100
AcDbEntity
  8
LAYER_1
 62
     7
100
AcDbVertex
100
AcDb2dVertex
 10
141.9697836309064
 20
-59.58818018801094
 30
0.0
  0
VERTEX
  5
171
330
45
100
AcDbEntity
  8
LAYER_1
 62
     7
100
AcDbVertex
100
AcDb2dVertex
 10
141.9613816687871
 20
-59.60818798376366
 30
0.0
  0
VERTEX
  5
172
330
45
100
AcDbEntity
  8
LAYER_1
 62
     7
100
AcDbVertex
100
AcDb2dVertex
 10
141.952887859884
 20
-59.62820789118019
 30
0.0
  0
VERTEX
  5
173
330
45
100
AcDbEntity
  8
LAYER_1
 62
     7
100
AcDbVertex
100
AcDb2dVertex
 10
141.9443173437766
 20
-59.64823587303926
 30
0.0
  0
VERTEX
  5
174
330
45
100
AcDbEntity
  8
LAYER_1
 62
     7
100
AcDbVertex
100
AcDb2dVertex
 10
141.9356852600449
 20
-59.66826789211961
 30
0.0
  0
VERTEX
  5
175
330
45
100
AcDbEntity
  8
LAYER_1
 62
     7
100
AcDbVertex
100
AcDb2dVertex
 10
141.9270067482686
 20
-59.68829991119996
 30
0.0
  0
VERTEX
  5
176
330
45
100
AcDbEntity
  8
LAYER_1
 62
     7
100
AcDbVertex
100
AcDb2dVertex
 10
141.9182969480274
 20
-59.70832789305904
 30
0.0
  0
VERTEX
  5
177
330
45
100
AcDbEntity
  8
LAYER_1
 62
     7
100
AcDbVertex
100
AcDb2dVertex
 10
141.9073654985638
 20
-59.7334919773548
 30
0.0
  0
VERTEX
  5
178
330
45
100
AcDbEntity
  8
LAYER_1
 62
     7
100
AcDbVertex
100
AcDb2dVertex
 10
141.8965713146235
 20
-59.75845470523963
 30
0.0
  0
VERTEX
  5
179
330
45
100
AcDbEntity
  8
LAYER_1
 62
     7
100
AcDbVertex
100
AcDb2dVertex
 10
141.8859709173043
 20
-59.78319235803856
 30
0.0
  0
VERTEX
  5
17A
330
45
100
AcDbEntity
  8
LAYER_1
 62
     7
100
AcDbVertex
100
AcDb2dVertex
 10
141.8756208277038
 20
-59.80768121707662
 30
0.0
  0
VERTEX
  5
17B
330
45
100
AcDbEntity
  8
LAYER_1
 62
     7
100
AcDbVertex
100
AcDb2dVertex
 10
141.8655775669201
 20
-59.83189756367884
 30
0.0
  0
VERTEX
  5
17C
330
45
100
AcDbEntity
  8
LAYER_1
 62
     7
100
AcDbVertex
100
AcDb2dVertex
 10
141.8558976560508
 20
-59.85581767917023
 30
0.0
  0
VERTEX
  5
17D
330
45
100
AcDbEntity
  8
LAYER_1
 62
     7
100
AcDbVertex
100
AcDb2dVertex
 10
141.8466376161938
 20
-59.87941784487584
 30
0.0
  0
VERTEX
  5
17E
330
45
100
AcDbEntity
  8
LAYER_1
 62
     7
100
AcDbVertex
100
AcDb2dVertex
 10
141.8378539684468
 20
-59.90267434212069
 30
0.0
  0
VERTEX
  5
17F
330
45
100
AcDbEntity
  8
LAYER_1
 62
     7
100
AcDbVertex
100
AcDb2dVertex
 10
141.8296032339077
 20
-59.9255634522298
 30
0.0
  0
VERTEX
  5
180
330
45
100
AcDbEntity
  8
LAYER_1
 62
     7
100
AcDbVertex
100
AcDb2dVertex
 10
141.8219419336743
 20
-59.94806145652822
 30
0.0
  0
VERTEX
  5
181
330
45
100
AcDbEntity
  8
LAYER_1
 62
     7
100
AcDbVertex
100
AcDb2dVertex
 10
141.8149265888444
 20
-59.97014463634095
 30
0.0
  0
VERTEX
  5
182
330
45
100
AcDbEntity
  8
LAYER_1
 62
     7
100
AcDbVertex
100
AcDb2dVertex
 10
141.8086137205157
 20
-59.99178927299305
 30
0.0
  0
VERTEX
  5
183
330
45
100
AcDbEntity
  8
LAYER_1
 62
     7
100
AcDbVertex
100
AcDb2dVertex
 10
141.8030598497862
 20
-60.01297164780952
 30
0.0
  0
VERTEX
  5
184
330
45
100
AcDbEntity
  8
LAYER_1
 62
     7
100
AcDbVertex
100
AcDb2dVertex
 10
141.7983214977536
 20
-60.03366804211541
 30
0.0
  0
VERTEX
  5
185
330
45
100
AcDbEntity
  8
LAYER_1
 62
     7
100
AcDbVertex
100
AcDb2dVertex
 10
141.7944551855156
 20
-60.05385473723572
 30
0.0
  0
VERTEX
  5
186
330
45
100
AcDbEntity
  8
LAYER_1
 62
     7
100
AcDbVertex
100
AcDb2dVertex
 10
141.7915174341702
 20
-60.07350801449552
 30
0.0
  0
VERTEX
  5
187
330
45
100
AcDbEntity
  8
LAYER_1
 62
     7
100
AcDbVertex
100
AcDb2dVertex
 10
141.7881217946455
 20
-60.11495505326812
 30
0.0
  0
VERTEX
  5
188
330
45
100
AcDbEntity
  8
LAYER_1
 62
     7
100
AcDbVertex
100
AcDb2dVertex
 10
141.7881396257061
 20
-60.15726353412959
 30
0.0
  0
VERTEX
  5
189
330
45
100
AcDbEntity
  8
LAYER_1
 62
     7
100
AcDbVertex
100
AcDb2dVertex
 10
141.7913751221203
 20
-60.20043900825917
 30
0.0
  0
VERTEX
  5
18A
330
45
100
AcDbEntity
  8
LAYER_1
 62
     7
100
AcDbVertex
100
AcDb2dVertex
 10
141.7976324786565
 20
-60.24448702683613
 30
0.0
  0
VERTEX
  5
18B
330
45
100
AcDbEntity
  8
LAYER_1
 62
     7
100
AcDbVertex
100
AcDb2dVertex
 10
141.8067158900829
 20
-60.28941314103969
 30
0.0
  0
VERTEX
  5
18C
330
45
100
AcDbEntity
  8
LAYER_1
 62
     7
100
AcDbVertex
100
AcDb2dVertex
 10
141.8184295511678
 20
-60.3352229020491
 30
0.0
  0
VERTEX
  5
18D
330
45
100
AcDbEntity
  8
LAYER_1
 62
     7
100
AcDbVertex
100
AcDb2dVertex
 10
141.8325776566797
 20
-60.38192186104364
 30
0.0
  0
VERTEX
  5
18E
330
45
100
AcDbEntity
  8
LAYER_1
 62
     7
100
AcDbVertex
100
AcDb2dVertex
 10
141.8489644013867
 20
-60.42951556920252
 30
0.0
  0
VERTEX
  5
18F
330
45
100
AcDbEntity
  8
LAYER_1
 62
     7
100
AcDbVertex
100
AcDb2dVertex
 10
141.8673939800573
 20
-60.47800957770501
 30
0.0
  0
VERTEX
  5
190
330
45
100
AcDbEntity
  8
LAYER_1
 62
     7
100
AcDbVertex
100
AcDb2dVertex
 10
141.8876705874597
 20
-60.52740943773036
 30
0.0
  0
VERTEX
  5
191
330
45
100
AcDbEntity
  8
LAYER_1
 62
     7
100
AcDbVertex
100
AcDb2dVertex
 10
141.9095984183622
 20
-60.57772070045781
 30
0.0
  0
VERTEX
  5
192
330
45
100
AcDbEntity
  8
LAYER_1
 62
     7
100
AcDbVertex
100
AcDb2dVertex
 10
141.9329816675333
 20
-60.62894891706662
 30
0.0
  0
VERTEX
  5
193
330
45
100
AcDbEntity
  8
LAYER_1
 62
     7
100
AcDbVertex
100
AcDb2dVertex
 10
141.9576245297411
 20
-60.68109963873602
 30
0.0
  0
VERTEX
  5
194
330
45
100
AcDbEntity
  8
LAYER_1
 62
     7
100
AcDbVertex
100
AcDb2dVertex
 10
141.983331199754
 20
-60.73417841664528
 30
0.0
  0
VERTEX
  5
195
330
45
100
AcDbEntity
  8
LAYER_1
 62
     7
100
AcDbVertex
100
AcDb2dVertex
 10
142.0099058723404
 20
-60.78819080197363
 30
0.0
  0
VERTEX
  5
196
330
45
100
AcDbEntity
  8
LAYER_1
 62
     7
100
AcDbVertex
100
AcDb2dVertex
 10
142.0371527422685
 20
-60.84314234590033
 30
0.0
  0
VERTEX
  5
197
330
45
100
AcDbEntity
  8
LAYER_1
 62
     7
100
AcDbVertex
100
AcDb2dVertex
 10
142.0647336081481
 20
-60.89877020849882
 30
0.0
  0
VERTEX
  5
198
330
45
100
AcDbEntity
  8
LAYER_1
 62
     7
100
AcDbVertex
100
AcDb2dVertex
 10
142.0925642770939
 20
-60.95533672504302
 30
0.0
  0
VERTEX
  5
199
330
45
100
AcDbEntity
  8
LAYER_1
 62
     7
100
AcDbVertex
100
AcDb2dVertex
 10
142.1204423833896
 20
-61.01286006302861
 30
0.0
  0
VERTEX
  5
19A
330
45
100
AcDbEntity
  8
LAYER_1
 62
     7
100
AcDbVertex
100
AcDb2dVertex
 10
142.148165561319
 20
-61.07135838995135
 30
0.0
  0
VERTEX
  5
19B
330
45
100
AcDbEntity
  8
LAYER_1
 62
     7
100
AcDbVertex
100
AcDb2dVertex
 10
142.1755314451658
 20
-61.13084987330694
 30
0.0
  0
VERTEX
  5
19C
330
45
100
AcDbEntity
  8
LAYER_1
 62
     7
100
AcDbVertex
100
AcDb2dVertex
 10
142.2023376692139
 20
-61.19135268059111
 30
0.0
  0
VERTEX
  5
19D
330
45
100
AcDbEntity
  8
LAYER_1
 62
     7
100
AcDbVertex
100
AcDb2dVertex
 10
142.2283818677469
 20
-61.25288497929958
 30
0.0
  0
VERTEX
  5
19E
330
45
100
AcDbEntity
  8
LAYER_1
 62
     7
100
AcDbVertex
100
AcDb2dVertex
 10
142.2534616750486
 20
-61.31546493692808
 30
0.0
  0
VERTEX
  5
19F
330
45
100
AcDbEntity
  8
LAYER_1
 62
     7
100
AcDbVertex
100
AcDb2dVertex
 10
142.2773747254028
 20
-61.37911072097233
 30
0.0
  0
VERTEX
  5
1A0
330
45
100
AcDbEntity
  8
LAYER_1
 62
     7
100
AcDbVertex
100
AcDb2dVertex
 10
142.2999186530932
 20
-61.44384049892805
 30
0.0
  0
VERTEX
  5
1A1
330
45
100
AcDbEntity
  8
LAYER_1
 62
     7
100
AcDbVertex
100
AcDb2dVertex
 10
142.3208910924035
 20
-61.50967243829097
 30
0.0
  0
VERTEX
  5
1A2
330
45
100
AcDbEntity
  8
LAYER_1
 62
     7
100
AcDbVertex
100
AcDb2dVertex
 10
142.3400896776176
 20
-61.5766247065568
 30
0.0
  0
VERTEX
  5
1A3
330
45
100
AcDbEntity
  8
LAYER_1
 62
     7
100
AcDbVertex
100
AcDb2dVertex
 10
142.3573120430191
 20
-61.64471547122128
 30
0.0
  0
VERTEX
  5
1A4
330
45
100
AcDbEntity
  8
LAYER_1
 62
     7
100
AcDbVertex
100
AcDb2dVertex
 10
142.3723558228918
 20
-61.71396289978011
 30
0.0
  0
VERTEX
  5
1A5
330
45
100
AcDbEntity
  8
LAYER_1
 62
     7
100
AcDbVertex
100
AcDb2dVertex
 10
142.3850186515195
 20
-61.78438515972904
 30
0.0
  0
VERTEX
  5
1A6
330
45
100
AcDbEntity
  8
LAYER_1
 62
     7
100
AcDbVertex
100
AcDb2dVertex
 10
142.395098163186
 20
-61.85600041856378
 30
0.0
  0
VERTEX
  5
1A7
330
45
100
AcDbEntity
  8
LAYER_1
 62
     7
100
AcDbVertex
100
AcDb2dVertex
 10
142.4055002320102
 20
-61.97101134830497
 30
0.0
  0
VERTEX
  5
1A8
330
45
100
AcDbEntity
  8
LAYER_1
 62
     7
100
AcDbVertex
100
AcDb2dVertex
 10
142.4087614657101
 20
-62.08428576824663
 30
0.0
  0
VERTEX
  5
1A9
330
45
100
AcDbEntity
  8
LAYER_1
 62
     7
100
AcDbVertex
100
AcDb2dVertex
 10
142.4054036751348
 20
-62.1958393226212
 30
0.0
  0
VERTEX
  5
1AA
330
45
100
AcDbEntity
  8
LAYER_1
 62
     7
100
AcDbVertex
100
AcDb2dVertex
 10
142.3959486711339
 20
-62.3056876556611
 30
0.0
  0
VERTEX
  5
1AB
330
45
100
AcDbEntity
  8
LAYER_1
 62
     7
100
AcDbVertex
100
AcDb2dVertex
 10
142.3809182645566
 20
-62.41384641159877
 30
0.0
  0
VERTEX
  5
1AC
330
45
100
AcDbEntity
  8
LAYER_1
 62
     7
100
AcDbVertex
100
AcDb2dVertex
 10
142.3608342662524
 20
-62.52033123466662
 30
0.0
  0
VERTEX
  5
1AD
330
45
100
AcDbEntity
  8
LAYER_1
 62
     7
100
AcDbVertex
100
AcDb2dVertex
 10
142.3362184870706
 20
-62.62515776909709
 30
0.0
  0
VERTEX
  5
1AE
330
45
100
AcDbEntity
  8
LAYER_1
 62
     7
100
AcDbVertex
100
AcDb2dVertex
 10
142.3075927378606
 20
-62.72834165912261
 30
0.0
  0
VERTEX
  5
1AF
330
45
100
AcDbEntity
  8
LAYER_1
 62
     7
100
AcDbVertex
100
AcDb2dVertex
 10
142.2754788294718
 20
-62.82989854897559
 30
0.0
  0
VERTEX
  5
1B0
330
45
100
AcDbEntity
  8
LAYER_1
 62
     7
100
AcDbVertex
100
AcDb2dVertex
 10
142.2403985727536
 20
-62.92984408288849
 30
0.0
  0
VERTEX
  5
1B1
330
45
100
AcDbEntity
  8
LAYER_1
 62
     7
100
AcDbVertex
100
AcDb2dVertex
 10
142.2028737785553
 20
-63.02819390509371
 30
0.0
  0
VERTEX
  5
1B2
330
45
100
AcDbEntity
  8
LAYER_1
 62
     7
100
AcDbVertex
100
AcDb2dVertex
 10
142.1634262577263
 20
-63.12496365982368
 30
0.0
  0
VERTEX
  5
1B3
330
45
100
AcDbEntity
  8
LAYER_1
 62
     7
100
AcDbVertex
100
AcDb2dVertex
 10
142.122577821116
 20
-63.22016899131086
 30
0.0
  0
VERTEX
  5
1B4
330
45
100
AcDbEntity
  8
LAYER_1
 62
     7
100
AcDbVertex
100
AcDb2dVertex
 10
142.0808502795738
 20
-63.31382554378764
 30
0.0
  0
VERTEX
  5
1B5
330
45
100
AcDbEntity
  8
LAYER_1
 62
     7
100
AcDbVertex
100
AcDb2dVertex
 10
142.038765443949
 20
-63.40594896148646
 30
0.0
  0
VERTEX
  5
1B6
330
45
100
AcDbEntity
  8
LAYER_1
 62
     7
100
AcDbVertex
100
AcDb2dVertex
 10
141.9968451250911
 20
-63.49655488863975
 30
0.0
  0
VERTEX
  5
1B7
330
45
100
AcDbEntity
  8
LAYER_1
 62
     7
100
AcDbVertex
100
AcDb2dVertex
 10
141.9885816901267
 20
-63.51437526744215
 30
0.0
  0
VERTEX
  5
1B8
330
45
100
AcDbEntity
  8
LAYER_1
 62
     7
100
AcDbVertex
100
AcDb2dVertex
 10
141.9803308714789
 20
-63.53218000201213
 30
0.0
  0
VERTEX
  5
1B9
330
45
100
AcDbEntity
  8
LAYER_1
 62
     7
100
AcDbVertex
100
AcDb2dVertex
 10
141.9720972110214
 20
-63.54996959700233
 30
0.0
  0
VERTEX
  5
1BA
330
45
100
AcDbEntity
  8
LAYER_1
 62
     7
100
AcDbVertex
100
AcDb2dVertex
 10
141.9638852506283
 20
-63.56774455706542
 30
0.0
  0
VERTEX
  5
1BB
330
45
100
AcDbEntity
  8
LAYER_1
 62
     7
100
AcDbVertex
100
AcDb2dVertex
 10
141.9556995321734
 20
-63.58550538685407
 30
0.0
  0
VERTEX
  5
1BC
330
45
100
AcDbEntity
  8
LAYER_1
 62
     7
100
AcDbVertex
100
AcDb2dVertex
 10
141.9475445975308
 20
-63.60325259102092
 30
0.0
  0
VERTEX
  5
1BD
330
45
100
AcDbEntity
  8
LAYER_1
 62
     7
100
AcDbVertex
100
AcDb2dVertex
 10
141.9394249885742
 20
-63.62098667421863
 30
0.0
  0
VERTEX
  5
1BE
330
45
100
AcDbEntity
  8
LAYER_1
 62
     7
100
AcDbVertex
100
AcDb2dVertex
 10
141.9313452471778
 20
-63.63870814109988
 30
0.0
  0
VERTEX
  5
1BF
330
45
100
AcDbEntity
  8
LAYER_1
 62
     7
100
AcDbVertex
100
AcDb2dVertex
 10
141.9233099152153
 20
-63.6564174963173
 30
0.0
  0
VERTEX
  5
1C0
330
45
100
AcDbEntity
  8
LAYER_1
 62
     7
100
AcDbVertex
100
AcDb2dVertex
 10
141.9153235345607
 20
-63.67411524452357
 30
0.0
  0
VERTEX
  5
1C1
330
45
100
AcDbEntity
  8
LAYER_1
 62
     7
100
AcDbVertex
100
AcDb2dVertex
 10
141.907390647088
 20
-63.69180189037134
 30
0.0
  0
VERTEX
  5
1C2
330
45
100
AcDbEntity
  8
LAYER_1
 62
     7
100
AcDbVertex
100
AcDb2dVertex
 10
141.8995157946711
 20
-63.70947793851328
 30
0.0
  0
VERTEX
  5
1C3
330
45
100
AcDbEntity
  8
LAYER_1
 62
     7
100
AcDbVertex
100
AcDb2dVertex
 10
141.8917035191839
 20
-63.72714389360203
 30
0.0
  0
VERTEX
  5
1C4
330
45
100
AcDbEntity
  8
LAYER_1
 62
     7
100
AcDbVertex
100
AcDb2dVertex
 10
141.8839583625003
 20
-63.74480026029027
 30
0.0
  0
VERTEX
  5
1C5
330
45
100
AcDbEntity
  8
LAYER_1
 62
     7
100
AcDbVertex
100
AcDb2dVertex
 10
141.8762848664943
 20
-63.76244754323064
 30
0.0
  0
VERTEX
  5
1C6
330
45
100
AcDbEntity
  8
LAYER_1
 62
     7
100
AcDbVertex
100
AcDb2dVertex
 10
141.8686875730398
 20
-63.78008624707581
 30
0.0
  0
VERTEX
  5
1C7
330
45
100
AcDbEntity
  8
LAYER_1
 62
     7
100
AcDbVertex
100
AcDb2dVertex
 10
141.7765503615016
 20
-64.00802708721014
 30
0.0
  0
VERTEX
  5
1C8
330
45
100
AcDbEntity
  8
LAYER_1
 62
     7
100
AcDbVertex
100
AcDb2dVertex
 10
141.6952505658149
 20
-64.23935515599149
 30
0.0
  0
VERTEX
  5
1C9
330
45
100
AcDbEntity
  8
LAYER_1
 62
     7
100
AcDbVertex
100
AcDb2dVertex
 10
141.6240630001086
 20
-64.47396952288805
 30
0.0
  0
VERTEX
  5
1CA
330
45
100
AcDbEntity
  8
LAYER_1
 62
     7
100
AcDbVertex
100
AcDb2dVertex
 10
141.5622624785119
 20
-64.71176925736806
 30
0.0
  0
VERTEX
  5
1CB
330
45
100
AcDbEntity
  8
LAYER_1
 62
     7
100
AcDbVertex
100
AcDb2dVertex
 10
141.5091238151538
 20
-64.95265342889971
 30
0.0
  0
VERTEX
  5
1CC
330
45
100
AcDbEntity
  8
LAYER_1
 62
     7
100
AcDbVertex
100
AcDb2dVertex
 10
141.4639218241633
 20
-65.1965211069512
 30
0.0
  0
VERTEX
  5
1CD
330
45
100
AcDbEntity
  8
LAYER_1
 62
     7
100
AcDbVertex
100
AcDb2dVertex
 10
141.4259313196696
 20
-65.44327136099074
 30
0.0
  0
VERTEX
  5
1CE
330
45
100
AcDbEntity
  8
LAYER_1
 62
     7
100
AcDbVertex
100
AcDb2dVertex
 10
141.3944271158016
 20
-65.69280326048653
 30
0.0
  0
VERTEX
  5
1CF
330
45
100
AcDbEntity
  8
LAYER_1
 62
     7
100
AcDbVertex
100
AcDb2dVertex
 10
141.3686840266884
 20
-65.94501587490677
 30
0.0
  0
VERTEX
  5
1D0
330
45
100
AcDbEntity
  8
LAYER_1
 62
     7
100
AcDbVertex
100
AcDb2dVertex
 10
141.3479768664591
 20
-66.1998082737197
 30
0.0
  0
VERTEX
  5
1D1
330
45
100
AcDbEntity
  8
LAYER_1
 62
     7
100
AcDbVertex
100
AcDb2dVertex
 10
141.3315804492428
 20
-66.45707952639347
 30
0.0
  0
VERTEX
  5
1D2
330
45
100
AcDbEntity
  8
LAYER_1
 62
     7
100
AcDbVertex
100
AcDb2dVertex
 10
141.3187695891685
 20
-66.71672870239634
 30
0.0
  0
VERTEX
  5
1D3
330
45
100
AcDbEntity
  8
LAYER_1
 62
     7
100
AcDbVertex
100
AcDb2dVertex
 10
141.3088191003652
 20
-66.97865487119648
 30
0.0
  0
VERTEX
  5
1D4
330
45
100
AcDbEntity
  8
LAYER_1
 62
     7
100
AcDbVertex
100
AcDb2dVertex
 10
141.301003796962
 20
-67.24275710226212
 30
0.0
  0
VERTEX
  5
1D5
330
45
100
AcDbEntity
  8
LAYER_1
 62
     7
100
AcDbVertex
100
AcDb2dVertex
 10
141.294598493088
 20
-67.50893446506144
 30
0.0
  0
VERTEX
  5
1D6
330
45
100
AcDbEntity
  8
LAYER_1
 62
     7
100
AcDbVertex
100
AcDb2dVertex
 10
141.2888780028722
 20
-67.77708602906267
 30
0.0
  0
VERTEX
  5
1D7
330
45
100
AcDbEntity
  8
LAYER_1
 62
     7
100
AcDbVertex
100
AcDb2dVertex
 10
141.2823478815739
 20
-68.08211382448664
 30
0.0
  0
VERTEX
  5
1D8
330
45
100
AcDbEntity
  8
LAYER_1
 62
     7
100
AcDbVertex
100
AcDb2dVertex
 10
141.2746676568658
 20
-68.38807573198237
 30
0.0
  0
VERTEX
  5
1D9
330
45
100
AcDbEntity
  8
LAYER_1
 62
     7
100
AcDbVertex
100
AcDb2dVertex
 10
141.2647114486657
 20
-68.6946058783721
 30
0.0
  0
VERTEX
  5
1DA
330
45
100
AcDbEntity
  8
LAYER_1
 62
     7
100
AcDbVertex
100
AcDb2dVertex
 10
141.2513533768915
 20
-69.00133839047808
 30
0.0
  0
VERTEX
  5
1DB
330
45
100
AcDbEntity
  8
LAYER_1
 62
     7
100
AcDbVertex
100
AcDb2dVertex
 10
141.233467561461
 20
-69.30790739512254
 30
0.0
  0
VERTEX
  5
1DC
330
45
100
AcDbEntity
  8
LAYER_1
 62
     7
100
AcDbVertex
100
AcDb2dVertex
 10
141.209928122292
 20
-69.61394701912775
 30
0.0
  0
VERTEX
  5
1DD
330
45
100
AcDbEntity
  8
LAYER_1
 62
     7
100
AcDbVertex
100
AcDb2dVertex
 10
141.1796091793024
 20
-69.91909138931594
 30
0.0
  0
VERTEX
  5
1DE
330
45
100
AcDbEntity
  8
LAYER_1
 62
     7
100
AcDbVertex
100
AcDb2dVertex
 10
141.14138485241
 20
-70.22297463250936
 30
0.0
  0
VERTEX
  5
1DF
330
45
100
AcDbEntity
  8
LAYER_1
 62
     7
100
AcDbVertex
100
AcDb2dVertex
 10
141.0941292615326
 20
-70.52523087553026
 30
0.0
  0
VERTEX
  5
1E0
330
45
100
AcDbEntity
  8
LAYER_1
 62
     7
100
AcDbVertex
100
AcDb2dVertex
 10
141.0367165265881
 20
-70.82549424520087
 30
0.0
  0
VERTEX
  5
1E1
330
45
100
AcDbEntity
  8
LAYER_1
 62
     7
100
AcDbVertex
100
AcDb2dVertex
 10
140.9680207674943
 20
-71.12339886834344
 30
0.0
  0
VERTEX
  5
1E2
330
45
100
AcDbEntity
  8
LAYER_1
 62
     7
100
AcDbVertex
100
AcDb2dVertex
 10
140.886916104169
 20
-71.41857887178023
 30
0.0
  0
VERTEX
  5
1E3
330
45
100
AcDbEntity
  8
LAYER_1
 62
     7
100
AcDbVertex
100
AcDb2dVertex
 10
140.7922766565301
 20
-71.71066838233347
 30
0.0
  0
VERTEX
  5
1E4
330
45
100
AcDbEntity
  8
LAYER_1
 62
     7
100
AcDbVertex
100
AcDb2dVertex
 10
140.6829765444954
 20
-71.99930152682542
 30
0.0
  0
VERTEX
  5
1E5
330
45
100
AcDbEntity
  8
LAYER_1
 62
     7
100
AcDbVertex
100
AcDb2dVertex
 10
140.5578898879827
 20
-72.2841124320783
 30
0.0
  0
VERTEX
  5
1E6
330
45
100
AcDbEntity
  8
LAYER_1
 62
     7
100
AcDbVertex
100
AcDb2dVertex
 10
140.4158908069099
 20
-72.56473522491437
 30
0.0
  0
VERTEX
  5
1E7
330
45
100
AcDbEntity
  8
LAYER_1
 62
     7
100
AcDbVertex
100
AcDb2dVertex
 10
140.2432557768689
 20
-72.86157805886248
 30
0.0
  0
VERTEX
  5
1E8
330
45
100
AcDbEntity
  8
LAYER_1
 62
     7
100
AcDbVertex
100
AcDb2dVertex
 10
140.0512213939643
 20
-73.14869573141952
 30
0.0
  0
VERTEX
  5
1E9
330
45
100
AcDbEntity
  8
LAYER_1
 62
     7
100
AcDbVertex
100
AcDb2dVertex
 10
139.8402514339898
 20
-73.42576173231517
 30
0.0
  0
VERTEX
  5
1EA
330
45
100
AcDbEntity
  8
LAYER_1
 62
     7
100
AcDbVertex
100
AcDb2dVertex
 10
139.6108096727389
 20
-73.69244955127904
 30
0.0
  0
VERTEX
  5
1EB
330
45
100
AcDbEntity
  8
LAYER_1
 62
     7
100
AcDbVertex
100
AcDb2dVertex
 10
139.3633598860053
 20
-73.9484326780408
 30
0.0
  0
VERTEX
  5
1EC
330
45
100
AcDbEntity
  8
LAYER_1
 62
     7
100
AcDbVertex
100
AcDb2dVertex
 10
139.0983658495824
 20
-74.19338460233008
 30
0.0
  0
VERTEX
  5
1ED
330
45
100
AcDbEntity
  8
LAYER_1
 62
     7
100
AcDbVertex
100
AcDb2dVertex
 10
138.8162913392641
 20
-74.42697881387654
 30
0.0
  0
VERTEX
  5
1EE
330
45
100
AcDbEntity
  8
LAYER_1
 62
     7
100
AcDbVertex
100
AcDb2dVertex
 10
138.5176001308437
 20
-74.64888880240983
 30
0.0
  0
VERTEX
  5
1EF
330
45
100
AcDbEntity
  8
LAYER_1
 62
     7
100
AcDbVertex
100
AcDb2dVertex
 10
138.202756000115
 20
-74.85878805765957
 30
0.0
  0
VERTEX
  5
1F0
330
45
100
AcDbEntity
  8
LAYER_1
 62
     7
100
AcDbVertex
100
AcDb2dVertex
 10
137.8722227228714
 20
-75.05635006935542
 30
0.0
  0
VERTEX
  5
1F1
330
45
100
AcDbEntity
  8
LAYER_1
 62
     7
100
AcDbVertex
100
AcDb2dVertex
 10
137.5264640749067
 20
-75.24124832722703
 30
0.0
  0
VERTEX
  5
1F2
330
45
100
AcDbEntity
  8
LAYER_1
 62
     7
100
AcDbVertex
100
AcDb2dVertex
 10
137.1659438320144
 20
-75.41315632100402
 30
0.0
  0
VERTEX
  5
1F3
330
45
100
AcDbEntity
  8
LAYER_1
 62
     7
100
AcDbVertex
100
AcDb2dVertex
 10
136.7911257699881
 20
-75.57174754041607
 30
0.0
  0
VERTEX
  5
1F4
330
45
100
AcDbEntity
  8
LAYER_1
 62
     7
100
AcDbVertex
100
AcDb2dVertex
 10
136.4024736646214
 20
-75.71669547519281
 30
0.0
  0
VERTEX
  5
1F5
330
45
100
AcDbEntity
  8
LAYER_1
 62
     7
100
AcDbVertex
100
AcDb2dVertex
 10
136.0004512917079
 20
-75.84767361506387
 30
0.0
  0
VERTEX
  5
1F6
330
45
100
AcDbEntity
  8
LAYER_1
 62
     7
100
AcDbVertex
100
AcDb2dVertex
 10
135.5855224270411
 20
-75.96435544975891
 30
0.0
  0
VERTEX
  5
1F7
330
45
100
AcDbEntity
  8
LAYER_1
 62
     7
100
AcDbVertex
100
AcDb2dVertex
 10
135.3222296588405
 20
-76.02960258079887
 30
0.0
  0
VERTEX
  5
1F8
330
45
100
AcDbEntity
  8
LAYER_1
 62
     7
100
AcDbVertex
100
AcDb2dVertex
 10
135.0579921808622
 20
-76.08916681824611
 30
0.0
  0
VERTEX
  5
1F9
330
45
100
AcDbEntity
  8
LAYER_1
 62
     7
100
AcDbVertex
100
AcDb2dVertex
 10
134.7929472586297
 20
-76.14342110041567
 30
0.0
  0
VERTEX
  5
1FA
330
45
100
AcDbEntity
  8
LAYER_1
 62
     7
100
AcDbVertex
100
AcDb2dVertex
 10
134.5272321576659
 20
-76.1927383656225
 30
0.0
  0
VERTEX
  5
1FB
330
45
100
AcDbEntity
  8
LAYER_1
 62
     7
100
AcDbVertex
100
AcDb2dVertex
 10
134.2609841434944
 20
-76.23749155218158
 30
0.0
  0
VERTEX
  5
1FC
330
45
100
AcDbEntity
  8
LAYER_1
 62
     7
100
AcDbVertex
100
AcDb2dVertex
 10
133.9943404816381
 20
-76.27805359840791
 30
0.0
  0
VERTEX
  5
1FD
330
45
100
AcDbEntity
  8
LAYER_1
 62
     7
100
AcDbVertex
100
AcDb2dVertex
 10
133.7274384376205
 20
-76.31479744261645
 30
0.0
  0
VERTEX
  5
1FE
330
45
100
AcDbEntity
  8
LAYER_1
 62
     7
100
AcDbVertex
100
AcDb2dVertex
 10
133.4604152769648
 20
-76.34809602312218
 30
0.0
  0
VERTEX
  5
1FF
330
45
100
AcDbEntity
  8
LAYER_1
 62
     7
100
AcDbVertex
100
AcDb2dVertex
 10
133.1934082651941
 20
-76.37832227824009
 30
0.0
  0
VERTEX
  5
200
330
45
100
AcDbEntity
  8
LAYER_1
 62
     7
100
AcDbVertex
100
AcDb2dVertex
 10
132.9265546678317
 20
-76.40584914628516
 30
0.0
  0
VERTEX
  5
201
330
45
100
AcDbEntity
  8
LAYER_1
 62
     7
100
AcDbVertex
100
AcDb2dVertex
 10
132.659991750401
 20
-76.43104956557238
 30
0.0
  0
VERTEX
  5
202
330
45
100
AcDbEntity
  8
LAYER_1
 62
     7
100
AcDbVertex
100
AcDb2dVertex
 10
132.393856778425
 20
-76.45429647441671
 30
0.0
  0
VERTEX
  5
203
330
45
100
AcDbEntity
  8
LAYER_1
 62
     7
100
AcDbVertex
100
AcDb2dVertex
 10
132.1282870174271
 20
-76.47596281113313
 30
0.0
  0
VERTEX
  5
204
330
45
100
AcDbEntity
  8
LAYER_1
 62
     7
100
AcDbVertex
100
AcDb2dVertex
 10
131.8634197329304
 20
-76.49642151403664
 30
0.0
  0
VERTEX
  5
205
330
45
100
AcDbEntity
  8
LAYER_1
 62
     7
100
AcDbVertex
100
AcDb2dVertex
 10
131.5993921904583
 20
-76.51604552144221
 30
0.0
  0
VERTEX
  5
206
330
45
100
AcDbEntity
  8
LAYER_1
 62
     7
100
AcDbVertex
100
AcDb2dVertex
 10
131.336341655534
 20
-76.53520777166482
 30
0.0
  0
VERTEX
  5
207
330
45
100
AcDbEntity
  8
LAYER_1
 62
     7
100
AcDbVertex
100
AcDb2dVertex
 10
131.246881121699
 20
-76.54173049139081
 30
0.0
  0
VERTEX
  5
208
330
45
100
AcDbEntity
  8
LAYER_1
 62
     7
100
AcDbVertex
100
AcDb2dVertex
 10
131.1574301762645
 20
-76.54826078090667
 30
0.0
  0
VERTEX
  5
209
330
45
100
AcDbEntity
  8
LAYER_1
 62
     7
100
AcDbVertex
100
AcDb2dVertex
 10
131.0679903331886
 20
-76.55481428444487
 30
0.0
  0
VERTEX
  5
20A
330
45
100
AcDbEntity
  8
LAYER_1
 62
     7
100
AcDbVertex
100
AcDb2dVertex
 10
130.9785631064291
 20
-76.5614066462378
 30
0.0
  0
VERTEX
  5
20B
330
45
100
AcDbEntity
  8
LAYER_1
 62
     7
100
AcDbVertex
100
AcDb2dVertex
 10
130.889150009944
 20
-76.5680535105179
 30
0.0
  0
VERTEX
  5
20C
330
45
100
AcDbEntity
  8
LAYER_1
 62
     7
100
AcDbVertex
100
AcDb2dVertex
 10
130.7997525576914
 20
-76.57477052151759
 30
0.0
  0
VERTEX
  5
20D
330
45
100
AcDbEntity
  8
LAYER_1
 62
     7
100
AcDbVertex
100
AcDb2dVertex
 10
130.7103722636292
 20
-76.58157332346931
 30
0.0
  0
VERTEX
  5
20E
330
45
100
AcDbEntity
  8
LAYER_1
 62
     7
100
AcDbVertex
100
AcDb2dVertex
 10
130.6210106417154
 20
-76.58847756060548
 30
0.0
  0
VERTEX
  5
20F
330
45
100
AcDbEntity
  8
LAYER_1
 62
     7
100
AcDbVertex
100
AcDb2dVertex
 10
130.5316692059079
 20
-76.59549887715855
 30
0.0
  0
VERTEX
  5
210
330
45
100
AcDbEntity
  8
LAYER_1
 62
     7
100
AcDbVertex
100
AcDb2dVertex
 10
130.4423494701648
 20
-76.60265291736091
 30
0.0
  0
VERTEX
  5
211
330
45
100
AcDbEntity
  8
LAYER_1
 62
     7
100
AcDbVertex
100
AcDb2dVertex
 10
130.353052948444
 20
-76.60995532544501
 30
0.0
  0
VERTEX
  5
212
330
45
100
AcDbEntity
  8
LAYER_1
 62
     7
100
AcDbVertex
100
AcDb2dVertex
 10
130.2637811547035
 20
-76.61742174564328
 30
0.0
  0
VERTEX
  5
213
330
45
100
AcDbEntity
  8
LAYER_1
 62
     7
100
AcDbVertex
100
AcDb2dVertex
 10
130.1745356029012
 20
-76.62506782218814
 30
0.0
  0
VERTEX
  5
214
330
45
100
AcDbEntity
  8
LAYER_1
 62
     7
100
AcDbVertex
100
AcDb2dVertex
 10
130.0853178069952
 20
-76.63290919931204
 30
0.0
  0
VERTEX
  5
215
330
45
100
AcDbEntity
  8
LAYER_1
 62
     7
100
AcDbVertex
100
AcDb2dVertex
 10
129.9961292809434
 20
-76.64096152124736
 30
0.0
  0
VERTEX
  5
216
330
45
100
AcDbEntity
  8
LAYER_1
 62
     7
100
AcDbVertex
100
AcDb2dVertex
 10
129.9069715387038
 20
-76.64924043222658
 30
0.0
  0
VERTEX
  5
217
330
45
100
AcDbEntity
  8
LAYER_1
 62
     7
100
AcDbVertex
100
AcDb2dVertex
 10
129.4865018401679
 20
-76.69138363934223
 30
0.0
  0
VERTEX
  5
218
330
45
100
AcDbEntity
  8
LAYER_1
 62
     7
100
AcDbVertex
100
AcDb2dVertex
 10
129.065702098793
 20
-76.73875908522612
 30
0.0
  0
VERTEX
  5
219
330
45
100
AcDbEntity
  8
LAYER_1
 62
     7
100
AcDbVertex
100
AcDb2dVertex
 10
128.6447105894077
 20
-76.79099534552122
 30
0.0
  0
VERTEX
  5
21A
330
45
100
AcDbEntity
  8
LAYER_1
 62
     7
100
AcDbVertex
100
AcDb2dVertex
 10
128.2236655868406
 20
-76.84772099587053
 30
0.0
  0
VERTEX
  5
21B
330
45
100
AcDbEntity
  8
LAYER_1
 62
     7
100
AcDbVertex
100
AcDb2dVertex
 10
127.8027053659201
 20
-76.90856461191707
 30
0.0
  0
VERTEX
  5
21C
330
45
100
AcDbEntity
  8
LAYER_1
 62
     7
100
AcDbVertex
100
AcDb2dVertex
 10
127.381968201475
 20
-76.9731547693038
 30
0.0
  0
VERTEX
  5
21D
330
45
100
AcDbEntity
  8
LAYER_1
 62
     7
100
AcDbVertex
100
AcDb2dVertex
 10
126.9615923683336
 20
-77.04112004367376
 30
0.0
  0
VERTEX
  5
21E
330
45
100
AcDbEntity
  8
LAYER_1
 62
     7
100
AcDbVertex
100
AcDb2dVertex
 10
126.5417161413246
 20
-77.11208901066989
 30
0.0
  0
VERTEX
  5
21F
330
45
100
AcDbEntity
  8
LAYER_1
 62
     7
100
AcDbVertex
100
AcDb2dVertex
 10
126.1224777952766
 20
-77.18569024593525
 30
0.0
  0
VERTEX
  5
220
330
45
100
AcDbEntity
  8
LAYER_1
 62
     7
100
AcDbVertex
100
AcDb2dVertex
 10
125.7040156050181
 20
-77.26155232511279
 30
0.0
  0
VERTEX
  5
221
330
45
100
AcDbEntity
  8
LAYER_1
 62
     7
100
AcDbVertex
100
AcDb2dVertex
 10
125.2864678453776
 20
-77.33930382384551
 30
0.0
  0
VERTEX
  5
222
330
45
100
AcDbEntity
  8
LAYER_1
 62
     7
100
AcDbVertex
100
AcDb2dVertex
 10
124.8699727911838
 20
-77.41857331777643
 30
0.0
  0
VERTEX
  5
223
330
45
100
AcDbEntity
  8
LAYER_1
 62
     7
100
AcDbVertex
100
AcDb2dVertex
 10
124.4546687172651
 20
-77.49898938254854
 30
0.0
  0
VERTEX
  5
224
330
45
100
AcDbEntity
  8
LAYER_1
 62
     7
100
AcDbVertex
100
AcDb2dVertex
 10
124.0406938984501
 20
-77.58018059380483
 30
0.0
  0
VERTEX
  5
225
330
45
100
AcDbEntity
  8
LAYER_1
 62
     7
100
AcDbVertex
100
AcDb2dVertex
 10
123.6281866095675
 20
-77.6617755271883
 30
0.0
  0
VERTEX
  5
226
330
45
100
AcDbEntity
  8
LAYER_1
 62
     7
100
AcDbVertex
100
AcDb2dVertex
 10
123.2172851254457
 20
-77.74340275834193
 30
0.0
  0
VERTEX
  5
227
330
45
100
AcDbEntity
  8
LAYER_1
 62
     7
100
AcDbVertex
100
AcDb2dVertex
 10
123.0471789939875
 20
-77.77718816044602
 30
0.0
  0
VERTEX
  5
228
330
45
100
AcDbEntity
  8
LAYER_1
 62
     7
100
AcDbVertex
100
AcDb2dVertex
 10
122.8764158047674
 20
-77.81108206287179
 30
0.0
  0
VERTEX
  5
229
330
45
100
AcDbEntity
  8
LAYER_1
 62
     7
100
AcDbVertex
100
AcDb2dVertex
 10
122.7050571254097
 20
-77.84504762597514
 30
0.0
  0
VERTEX
  5
22A
330
45
100
AcDbEntity
  8
LAYER_1
 62
     7
100
AcDbVertex
100
AcDb2dVertex
 10
122.5331645235388
 20
-77.87904801011194
 30
0.0
  0
VERTEX
  5
22B
330
45
100
AcDbEntity
  8
LAYER_1
 62
     7
100
AcDbVertex
100
AcDb2dVertex
 10
122.3607995667791
 20
-77.91304637563812
 30
0.0
  0
VERTEX
  5
22C
330
45
100
AcDbEntity
  8
LAYER_1
 62
     7
100
AcDbVertex
100
AcDb2dVertex
 10
122.188023822755
 20
-77.94700588290956
 30
0.0
  0
VERTEX
  5
22D
330
45
100
AcDbEntity
  8
LAYER_1
 62
     7
100
AcDbVertex
100
AcDb2dVertex
 10
122.0148988590909
 20
-77.98088969228215
 30
0.0
  0
VERTEX
  5
22E
330
45
100
AcDbEntity
  8
LAYER_1
 62
     7
100
AcDbVertex
100
AcDb2dVertex
 10
121.8414862434112
 20
-78.01466096411178
 30
0.0
  0
VERTEX
  5
22F
330
45
100
AcDbEntity
  8
LAYER_1
 62
     7
100
AcDbVertex
100
AcDb2dVertex
 10
121.6678475433402
 20
-78.04828285875438
 30
0.0
  0
VERTEX
  5
230
330
45
100
AcDbEntity
  8
LAYER_1
 62
     7
100
AcDbVertex
100
AcDb2dVertex
 10
121.4940443265024
 20
-78.0817185365658
 30
0.0
  0
VERTEX
  5
231
330
45
100
AcDbEntity
  8
LAYER_1
 62
     7
100
AcDbVertex
100
AcDb2dVertex
 10
121.3201381605222
 20
-78.11493115790195
 30
0.0
  0
VERTEX
  5
232
330
45
100
AcDbEntity
  8
LAYER_1
 62
     7
100
AcDbVertex
100
AcDb2dVertex
 10
121.146190613024
 20
-78.14788388311874
 30
0.0
  0
VERTEX
  5
233
330
45
100
AcDbEntity
  8
LAYER_1
 62
     7
100
AcDbVertex
100
AcDb2dVertex
 10
120.9722632516321
 20
-78.18053987257206
 30
0.0
  0
VERTEX
  5
234
330
45
100
AcDbEntity
  8
LAYER_1
 62
     7
100
AcDbVertex
100
AcDb2dVertex
 10
120.798417643971
 20
-78.21286228661778
 30
0.0
  0
VERTEX
  5
235
330
45
100
AcDbEntity
  8
LAYER_1
 62
     7
100
AcDbVertex
100
AcDb2dVertex
 10
120.624715357665
 20
-78.24481428561182
 30
0.0
  0
VERTEX
  5
236
330
45
100
AcDbEntity
  8
LAYER_1
 62
     7
100
AcDbVertex
100
AcDb2dVertex
 10
120.4512179603386
 20
-78.27635902991008
 30
0.0
  0
VERTEX
  5
237
330
45
100
AcDbEntity
  8
LAYER_1
 62
     7
100
AcDbVertex
100
AcDb2dVertex
 10
119.6050871172551
 20
-78.42453430254972
 30
0.0
  0
VERTEX
  5
238
330
45
100
AcDbEntity
  8
LAYER_1
 62
     7
100
AcDbVertex
100
AcDb2dVertex
 10
118.7565223343974
 20
-78.56427077342602
 30
0.0
  0
VERTEX
  5
239
330
45
100
AcDbEntity
  8
LAYER_1
 62
     7
100
AcDbVertex
100
AcDb2dVertex
 10
117.9059238013241
 20
-78.69610842088409
 30
0.0
  0
VERTEX
  5
23A
330
45
100
AcDbEntity
  8
LAYER_1
 62
     7
100
AcDbVertex
100
AcDb2dVertex
 10
117.0536917075937
 20
-78.82058722326903
 30
0.0
  0
VERTEX
  5
23B
330
45
100
AcDbEntity
  8
LAYER_1
 62
     7
100
AcDbVertex
100
AcDb2dVertex
 10
116.2002262427647
 20
-78.93824715892595
 30
0.0
  0
VERTEX
  5
23C
330
45
100
AcDbEntity
  8
LAYER_1
 62
     7
100
AcDbVertex
100
AcDb2dVertex
 10
115.3459275963958
 20
-79.04962820619991
 30
0.0
  0
VERTEX
  5
23D
330
45
100
AcDbEntity
  8
LAYER_1
 62
     7
100
AcDbVertex
100
AcDb2dVertex
 10
114.4911959580455
 20
-79.15527034343606
 30
0.0
  0
VERTEX
  5
23E
330
45
100
AcDbEntity
  8
LAYER_1
 62
     7
100
AcDbVertex
100
AcDb2dVertex
 10
113.6364315172723
 20
-79.25571354897947
 30
0.0
  0
VERTEX
  5
23F
330
45
100
AcDbEntity
  8
LAYER_1
 62
     7
100
AcDbVertex
100
AcDb2dVertex
 10
112.7820344636349
 20
-79.35149780117526
 30
0.0
  0
VERTEX
  5
240
330
45
100
AcDbEntity
  8
LAYER_1
 62
     7
100
AcDbVertex
100
AcDb2dVertex
 10
111.9284049866918
 20
-79.44316307836851
 30
0.0
  0
VERTEX
  5
241
330
45
100
AcDbEntity
  8
LAYER_1
 62
     7
100
AcDbVertex
100
AcDb2dVertex
 10
111.0759432760015
 20
-79.53124935890433
 30
0.0
  0
VERTEX
  5
242
330
45
100
AcDbEntity
  8
LAYER_1
 62
     7
100
AcDbVertex
100
AcDb2dVertex
 10
110.2250495211227
 20
-79.61629662112783
 30
0.0
  0
VERTEX
  5
243
330
45
100
AcDbEntity
  8
LAYER_1
 62
     7
100
AcDbVertex
100
AcDb2dVertex
 10
109.3761239116138
 20
-79.6988448433841
 30
0.0
  0
VERTEX
  5
244
330
45
100
AcDbEntity
  8
LAYER_1
 62
     7
100
AcDbVertex
100
AcDb2dVertex
 10
108.5295666370335
 20
-79.77943400401823
 30
0.0
  0
VERTEX
  5
245
330
45
100
AcDbEntity
  8
LAYER_1
 62
     7
100
AcDbVertex
100
AcDb2dVertex
 10
107.6857778869404
 20
-79.85860408137533
 30
0.0
  0
VERTEX
  5
246
330
45
100
AcDbEntity
  8
LAYER_1
 62
     7
100
AcDbVertex
100
AcDb2dVertex
 10
106.8451578508929
 20
-79.9368950538005
 30
0.0
  0
VERTEX
  5
247
330
45
100
AcDbEntity
  8
LAYER_1
 62
     7
100
AcDbVertex
100
AcDb2dVertex
 10
106.3113403054534
 20
-79.98631064216706
 30
0.0
  0
VERTEX
  5
248
330
45
100
AcDbEntity
  8
LAYER_1
 62
     7
100
AcDbVertex
100
AcDb2dVertex
 10
105.777522760014
 20
-80.03572623053361
 30
0.0
  0
VERTEX
  5
249
330
45
100
AcDbEntity
  8
LAYER_1
 62
     7
100
AcDbVertex
100
AcDb2dVertex
 10
105.2437052145745
 20
-80.08514181890015
 30
0.0
  0
VERTEX
  5
24A
330
45
100
AcDbEntity
  8
LAYER_1
 62
     7
100
AcDbVertex
100
AcDb2dVertex
 10
104.709887669135
 20
-80.13455740726671
 30
0.0
  0
VERTEX
  5
24B
330
45
100
AcDbEntity
  8
LAYER_1
 62
     7
100
AcDbVertex
100
AcDb2dVertex
 10
104.1760701236956
 20
-80.18397299563327
 30
0.0
  0
VERTEX
  5
24C
330
45
100
AcDbEntity
  8
LAYER_1
 62
     7
100
AcDbVertex
100
AcDb2dVertex
 10
103.6422525782561
 20
-80.23338858399981
 30
0.0
  0
VERTEX
  5
24D
330
45
100
AcDbEntity
  8
LAYER_1
 62
     7
100
AcDbVertex
100
AcDb2dVertex
 10
103.1084350328166
 20
-80.28280417236637
 30
0.0
  0
VERTEX
  5
24E
330
45
100
AcDbEntity
  8
LAYER_1
 62
     7
100
AcDbVertex
100
AcDb2dVertex
 10
102.5746174873772
 20
-80.33221976073293
 30
0.0
  0
VERTEX
  5
24F
330
45
100
AcDbEntity
  8
LAYER_1
 62
     7
100
AcDbVertex
100
AcDb2dVertex
 10
102.0407999419377
 20
-80.38163534909947
 30
0.0
  0
VERTEX
  5
250
330
45
100
AcDbEntity
  8
LAYER_1
 62
     7
100
AcDbVertex
100
AcDb2dVertex
 10
101.5069823964983
 20
-80.43105093746603
 30
0.0
  0
VERTEX
  5
251
330
45
100
AcDbEntity
  8
LAYER_1
 62
     7
100
AcDbVertex
100
AcDb2dVertex
 10
100.9731648510588
 20
-80.48046652583258
 30
0.0
  0
VERTEX
  5
252
330
45
100
AcDbEntity
  8
LAYER_1
 62
     7
100
AcDbVertex
100
AcDb2dVertex
 10
100.4393473056193
 20
-80.52988211419913
 30
0.0
  0
VERTEX
  5
253
330
45
100
AcDbEntity
  8
LAYER_1
 62
     7
100
AcDbVertex
100
AcDb2dVertex
 10
99.90552976017987
 20
-80.57929770256568
 30
0.0
  0
VERTEX
  5
254
330
45
100
AcDbEntity
  8
LAYER_1
 62
     7
100
AcDbVertex
100
AcDb2dVertex
 10
99.37171221474041
 20
-80.62871329093224
 30
0.0
  0
VERTEX
  5
255
330
45
100
AcDbEntity
  8
LAYER_1
 62
     7
100
AcDbVertex
100
AcDb2dVertex
 10
98.83789466930095
 20
-80.67812887929878
 30
0.0
  0
VERTEX
  5
256
330
45
100
AcDbEntity
  8
LAYER_1
 62
     7
100
AcDbVertex
100
AcDb2dVertex
 10
98.30407712386149
 20
-80.72754446766534
 30
0.0
  0
VERTEX
  5
257
330
45
100
AcDbEntity
  8
LAYER_1
 62
     7
100
AcDbVertex
100
AcDb2dVertex
 10
97.94437702564878
 20
-80.76067752209893
 30
0.0
  0
VERTEX
  5
258
330
45
100
AcDbEntity
  8
LAYER_1
 62
     7
100
AcDbVertex
100
AcDb2dVertex
 10
97.58387049248704
 20
-80.79362234109072
 30
0.0
  0
VERTEX
  5
259
330
45
100
AcDbEntity
  8
LAYER_1
 62
     7
100
AcDbVertex
100
AcDb2dVertex
 10
97.22260698033683
 20
-80.82610994477349
 30
0.0
  0
VERTEX
  5
25A
330
45
100
AcDbEntity
  8
LAYER_1
 62
     7
100
AcDbVertex
100
AcDb2dVertex
 10
96.86063594515876
 20
-80.85787135328
 30
0.0
  0
VERTEX
  5
25B
330
45
100
AcDbEntity
  8
LAYER_1
 62
     7
100
AcDbVertex
100
AcDb2dVertex
 10
96.49800684291338
 20
-80.88863758674302
 30
0.0
  0
VERTEX
  5
25C
330
45
100
AcDbEntity
  8
LAYER_1
 62
     7
100
AcDbVertex
100
AcDb2dVertex
 10
96.13476912956128
 20
-80.9181396652953
 30
0.0
  0
VERTEX
  5
25D
330
45
100
AcDbEntity
  8
LAYER_1
 62
     7
100
AcDbVertex
100
AcDb2dVertex
 10
95.77097226106304
 20
-80.94610860906964
 30
0.0
  0
VERTEX
  5
25E
330
45
100
AcDbEntity
  8
LAYER_1
 62
     7
100
AcDbVertex
100
AcDb2dVertex
 10
95.40666569337924
 20
-80.97227543819878
 30
0.0
  0
VERTEX
  5
25F
330
45
100
AcDbEntity
  8
LAYER_1
 62
     7
100
AcDbVertex
100
AcDb2dVertex
 10
95.04189888247046
 20
-80.9963711728155
 30
0.0
  0
VERTEX
  5
260
330
45
100
AcDbEntity
  8
LAYER_1
 62
     7
100
AcDbVertex
100
AcDb2dVertex
 10
94.67672128429727
 20
-81.01812683305256
 30
0.0
  0
VERTEX
  5
261
330
45
100
AcDbEntity
  8
LAYER_1
 62
     7
100
AcDbVertex
100
AcDb2dVertex
 10
94.31118235482026
 20
-81.03727343904274
 30
0.0
  0
VERTEX
  5
262
330
45
100
AcDbEntity
  8
LAYER_1
 62
     7
100
AcDbVertex
100
AcDb2dVertex
 10
93.94533155
 20
-81.0535420109188
 30
0.0
  0
VERTEX
  5
263
330
45
100
AcDbEntity
  8
LAYER_1
 62
     7
100
AcDbVertex
100
AcDb2dVertex
 10
93.57921832579707
 20
-81.06666356881351
 30
0.0
  0
VERTEX
  5
264
330
45
100
AcDbEntity
  8
LAYER_1
 62
     7
100
AcDbVertex
100
AcDb2dVertex
 10
93.21289213817207
 20
-81.07636913285964
 30
0.0
  0
VERTEX
  5
265
330
45
100
AcDbEntity
  8
LAYER_1
 62
     7
100
AcDbVertex
100
AcDb2dVertex
 10
92.84640244308555
 20
-81.08238972318996
 30
0.0
  0
VERTEX
  5
266
330
45
100
AcDbEntity
  8
LAYER_1
 62
     7
100
AcDbVertex
100
AcDb2dVertex
 10
92.47979869649811
 20
-81.08445635993722
 30
0.0
  0
VERTEX
  5
267
330
45
100
AcDbEntity
  8
LAYER_1
 62
     7
100
AcDbVertex
100
AcDb2dVertex
 10
92.47979869649811
 20
-81.08445635993722
 30
0.0
  0
SEQEND
  5
268
330
45
100
AcDbEntity
  8
LAYER_1
 62
     7
  0
ENDBLK
  5
44
330
41
100
AcDbEntity
  8
0
100
AcDbBlockEnd
  0
ENDSEC
  0
SECTION
  2
ENTITIES
  0
INSERT
  5
42
330
1F
100
AcDbEntity
  8
LAYER_1
100
AcDbBlockReference
  2
BLOCK_2
 10
0.0
 20
0.0
 30
0.0
  0
ENDSEC
  0
SECTION
  2
OBJECTS
  0
DICTIONARY
  5
C
330
0
100
AcDbDictionary
  3
ACAD_GROUP
350
D
  3
ACAD_LAYOUT
350
1A
  3
ACAD_MATERIAL
350
3B
  3
ACAD_MLEADERSTYLE
350
28B
  3
ACAD_MLINESTYLE
350
17
  3
ACAD_PLOTSETTINGS
350
19
  3
ACAD_VISUALSTYLE
350
2A
  3
ACDBHEADERROUNDTRIPXREC
350
269
  3
ACDBVARIABLEDICTIONARY
350
289
  0
DICTIONARY
  5
D
102
{ACAD_REACTORS
330
C
102
}
330
C
100
AcDbDictionary
  0
DICTIONARY
  5
1A
102
{ACAD_REACTORS
330
C
102
}
330
C
100
AcDbDictionary
  0
DICTIONARY
  5
3B
102
{ACAD_REACTORS
330
C
102
}
330
C
100
AcDbDictionary
  3
BYBLOCK
350
3D
  3
BYLAYER
350
3C
  3
GLOBAL
350
3E
  0
DICTIONARY
  5
28B
102
{ACAD_REACTORS
330
C
102
}
330
C
100
AcDbDictionary
  0
DICTIONARY
  5
17
102
{ACAD_REACTORS
330
C
102
}
330
C
100
AcDbDictionary
  3
STANDARD
350
18
  0
DICTIONARY
  5
19
102
{ACAD_REACTORS
330
C
102
}
330
C
100
AcDbDictionary
  0
DICTIONARY
  5
2A
102
{ACAD_REACTORS
330
C
102
}
330
C
100
AcDbDictionary
  3
2DWIREFRAME
350
2F
  3
3D_HIDDEN
350
31
  3
3DWIREFRAME
350
30
  3
BASIC
350
32
  3
BRIGHTEN
350
36
  3
COLORCHANGE
350
3A
  3
CONCEPTUAL
350
34
  3
DIM
350
35
  3
FACEPATTERN
350
39
  3
FLAT
350
2B
  3
FLATWITHEDGES
350
2C
  3
GOURAUD
350
2D
  3
GOURAUDWITHEDGES
350
2E
  3
LINEPATTERN
350
38
  3
REALISTIC
350
33
  3
THICKEN
350
37
  0
DICTIONARY
  5
269
102
{ACAD_REACTORS
330
C
102
}
330
C
100
AcDbDictionary
  3
CEPSNTYPE
350
272
  3
DIMSTYLEDATA
350
288
  3
FINGERPRINTGUID
350
273
  3
HYPERLINKBASE
350
26C
  3
INSUNITS
350
271
  3
LAYOUTDICT
350
26E
  3
LWETCUNION
350
270
  3
PLOTSETDICT
350
26F
  3
PSVPSCALE
350
275
  3
PUCSBASE
350
278
  3
PUCSORGBACK
350
27E
  3
PUCSORGBOTTOM
350
27A
  3
PUCSORGFRONT
350
27D
  3
PUCSORGLEFT
350
27B
  3
PUCSORGRIGHT
350
27C
  3
PUCSORGTOP
350
279
  3
PUCSORTHOREF
350
276
  3
PUCSORTHOVIEW
350
277
  3
STYLESHEET
350
26D
  3
TSTACKALIGN
350
26A
  3
TSTACKSIZE
350
26B
  3
UCSBASE
350
281
  3
UCSORGBACK
350
287
  3
UCSORGBOTTOM
350
283
  3
UCSORGFRONT
350
286
  3
UCSORGLEFT
350
284
  3
UCSORGRIGHT
350
285
  3
UCSORGTOP
350
282
  3
UCSORTHOREF
350
27F
  3
UCSORTHOVIEW
350
280
  3
VERSIONGUID
350
274
  0
DICTIONARY
  5
289
102
{ACAD_REACTORS
330
C
102
}
330
C
100
AcDbDictionary
  3
DIMASSOC
350
28C
  3
HIDETEXT
350
28D
  0
MATERIAL
  5
3D
102
{ACAD_REACTORS
330
3B
102
}
102
{ACAD_XDICTIONARY
360
290
102
}
330
3B
100
AcDbMaterial
  1
ByBlock
  0
MATERIAL
  5
3C
102
{ACAD_REACTORS
330
3B
102
}
102
{ACAD_XDICTIONARY
360
28E
102
}
330
3B
100
AcDbMaterial
  1
ByLayer
  0
MATERIAL
  5
3E
102
{ACAD_REACTORS
330
3B
102
}
102
{ACAD_XDICTIONARY
360
292
102
}
330
3B
100
AcDbMaterial
  1
Global
  0
MLINESTYLE
  5
18
102
{ACAD_REACTORS
330
17
102
}
330
17
100
AcDbMlineStyle
  2
Standard
 70
     0
  3

 62
   256
 51
90.0
 52
90.0
 71
     2
 49
0.5
 62
   256
  6
BYLAYER
 49
-0.5
 62
   256
  6
BYLAYER
  0
ACAD_PROXY_OBJECT
  5
2F
102
{ACAD_REACTORS
330
2A
102
}
330
2A
100
AcDbProxyObject
 90
      499
 91
      501
 93
      436
310
42CC9915DA5C99599C985B595049028333333333333E3BF0000000000000FB0107901411070040501600405405064090741402480A0340
1001
ACAD
1000
AcDbSavedByObjectVersion
1070
     0
  0
ACAD_PROXY_OBJECT
  5
31
102
{ACAD_REACTORS
330
2A
102
}
330
2A
100
AcDbProxyObject
 90
      499
 91
      501
 93
      500
310
424CD108121A5919195B90640502408333333333333E3BF0000000000000FB01079024090700405020000000000001110200405405064090740C02480A0340
1001
ACAD
1000
AcDbSavedByObjectVersion
1070
     0
  0
ACAD_PROXY_OBJECT
  5
30
102
{ACAD_REACTORS
330
2A
102
}
330
2A
100
AcDbProxyObject
 90
      499
 91
      501
 93
      436
310
42CCD915DA5C99599C985B595059028333333333333E3BF0000000000000FB0107901411070040501600405405064090741402480A0340
1001
ACAD
1000
AcDbSavedByObjectVersion
1070
     0
  0
ACAD_PROXY_OBJECT
  5
32
102
{ACAD_REACTORS
330
2A
102
}
330
2A
100
AcDbProxyObject
 90
      499
 91
      501
 93
      388
310
4150985CDA58D07406404333333333333E3BF0000000000000FB0107A41107004050150841D405064090741402480A0350
1001
ACAD
1000
AcDbSavedByObjectVersion
1070
     0
  0
ACAD_PROXY_OBJECT
  5
36
102
{ACAD_REACTORS
330
2A
102
}
330
2A
100
AcDbProxyObject
 90
      499
 91
      501
 93
      428
310
42109C9A59DA1D195B90C409028333333333333E3BF0000000000000FB010790141107004050150841D405064090741402480A029950
1001
ACAD
1000
AcDbSavedByObjectVersion
1070
     0
  0
ACAD_PROXY_OBJECT
  5
3A
102
{ACAD_REACTORS
330
2A
102
}
330
2A
100
AcDbProxyObject
 90
      499
 91
      501
 93
      452
310
42D0DBDB1BDC90DA185B99D95104090240C333333333333E3BF0000000000000FB0108901411070040501508421405064090741402480A0350
1001
ACAD
1000
AcDbSavedByObjectVersion
1070
     0
  0
ACAD_PROXY_OBJECT
  5
34
102
{ACAD_REACTORS
330
2A
102
}
330
2A
100
AcDbProxyObject
 90
      499
 91
      501
 93
      500
310
4290DBDB98D95C1D1D585B10940D028333333333333E3BF0000000000000FB0107902409070040501000000000000111010841D405064090740C02480A0340
1001
ACAD
1000
AcDbSavedByObjectVersion
1070
     0
  0
ACAD_PROXY_OBJECT
  5
35
102
{ACAD_REACTORS
330
2A
102
}
330
2A
100
AcDbProxyObject
 90
      499
 91
      501
 93
      412
310
40D11A5B50B409028333333333333E3BF0000000000000FB010790141107004050150841D405064090741402480A02677FFFFFD0
1001
ACAD
1000
AcDbSavedByObjectVersion
1070
     0
  0
ACAD_PROXY_OBJECT
  5
39
102
{ACAD_REACTORS
330
2A
102
}
330
2A
100
AcDbProxyObject
 90
      499
 91
      501
 93
      444
310
42D19858D95C185D1D195C9B90F409028333333333333E3BF0000000000000FB010790141107004050150841D405064090741402480A0350
1001
ACAD
1000
AcDbSavedByObjectVersion
1070
     0
  0
ACAD_PROXY_OBJECT
  5
2B
102
{ACAD_REACTORS
330
2A
102
}
330
2A
100
AcDbProxyObject
 90
      499
 91
      501
 93
      388
310
41119B185D240901404333333333333E3BF0000000000000F9010740A41107004050150841D405064090741402480A1B50
1001
ACAD
1000
AcDbSavedByObjectVersion
1070
     0
  0
ACAD_PROXY_OBJECT
  5
2C
102
{ACAD_REACTORS
330
2A
102
}
330
2A
100
AcDbProxyObject
 90
      499
 91
      501
 93
      476
310
43519B185D15DA5D1A115919D95CD0140901404333333333333E3BF0000000000000F9010740901411070040501600405405064090741402480A1B50
1001
ACAD
1000
AcDbSavedByObjectVersion
1070
     0
  0
ACAD_PROXY_OBJECT
  5
2D
102
{ACAD_REACTORS
330
2A
102
}
330
2A
100
AcDbProxyObject
 90
      499
 91
      501
 93
      412
310
41D1DBDD5C985D5910240902404333333333333E3BF0000000000000F9010740A411070040501641D405064090741402480A1B50
1001
ACAD
1000
AcDbSavedByObjectVersion
1070
     0
  0
ACAD_PROXY_OBJECT
  5
2E
102
{ACAD_REACTORS
330
2A
102
}
330
2A
100
AcDbProxyObject
 90
      499
 91
      501
 93
      500
310
4411DBDD5C985D5915DA5D1A115919D95CD0340902404333333333333E3BF0000000000000F9010740901411070040501600405405064090741402480A1B50
1001
ACAD
1000
AcDbSavedByObjectVersion
1070
     0
  0
ACAD_PROXY_OBJECT
  5
38
102
{ACAD_REACTORS
330
2A
102
}
330
2A
100
AcDbProxyObject
 90
      499
 91
      501
 93
      444
310
42D31A5B995C185D1D195C9B90E409028333333333333E3BF0000000000000FB010790141107004050750841D405064090741402483A0350
1001
ACAD
1000
AcDbSavedByObjectVersion
1070
     0
  0
ACAD_PROXY_OBJECT
  5
33
102
{ACAD_REACTORS
330
2A
102
}
330
2A
100
AcDbProxyObject
 90
      499
 91
      501
 93
      420
310
425499585B1A5CDD1A58D08409028333333333333E3BF0000000000000FB01079019070040501508421405064090741402480A1B40
1001
ACAD
1000
AcDbSavedByObjectVersion
1070
     0
  0
ACAD_PROXY_OBJECT
  5
37
102
{ACAD_REACTORS
330
2A
102
}
330
2A
100
AcDbProxyObject
 90
      499
 91
      501
 93
      412
310
41D51A1A58DAD95B90D409028333333333333E3BF0000000000000FB010790141107004050150C41D405064090741402480A0350
1001
ACAD
1000
AcDbSavedByObjectVersion
1070
     0
  0
XRECORD
  5
272
102
{ACAD_REACTORS
330
269
102
}
330
269
100
AcDbXrecord
 90
        0
  0
XRECORD
  5
288
102
{ACAD_REACTORS
330
269
102
}
330
269
100
AcDbXrecord
1000
DSTYLE
1002
{
1070
   340
340
11
1002
}
  0
XRECORD
  5
273
102
{ACAD_REACTORS
330
269
102
}
330
269
100
AcDbXrecord
  1
{5BA9CFA0-F166-430A-9970-26F841877ADB}
  0
XRECORD
  5
26C
102
{ACAD_REACTORS
330
269
102
}
330
269
100
AcDbXrecord
  1

  0
XRECORD
  5
271
102
{ACAD_REACTORS
330
269
102
}
330
269
100
AcDbXrecord
 90
        1
  0
XRECORD
  5
26E
102
{ACAD_REACTORS
330
269
102
}
330
269
100
AcDbXrecord
340
1A
  0
XRECORD
  5
270
102
{ACAD_REACTORS
330
269
102
}
330
269
100
AcDbXrecord
 90
    10269
  0
XRECORD
  5
26F
102
{ACAD_REACTORS
330
269
102
}
330
269
100
AcDbXrecord
340
19
  0
XRECORD
  5
275
102
{ACAD_REACTORS
330
269
102
}
330
269
100
AcDbXrecord
 40
0.0
  0
XRECORD
  5
278
102
{ACAD_REACTORS
330
269
102
}
330
269
100
AcDbXrecord
340
0
  0
XRECORD
  5
27E
102
{ACAD_REACTORS
330
269
102
}
330
269
100
AcDbXrecord
 10
0.0
 20
0.0
 30
0.0
  0
XRECORD
  5
27A
102
{ACAD_REACTORS
330
269
102
}
330
269
100
AcDbXrecord
 10
0.0
 20
0.0
 30
0.0
  0
XRECORD
  5
27D
102
{ACAD_REACTORS
330
269
102
}
330
269
100
AcDbXrecord
 10
0.0
 20
0.0
 30
0.0
  0
XRECORD
  5
27B
102
{ACAD_REACTORS
330
269
102
}
330
269
100
AcDbXrecord
 10
0.0
 20
0.0
 30
0.0
  0
XRECORD
  5
27C
102
{ACAD_REACTORS
330
269
102
}
330
269
100
AcDbXrecord
 10
0.0
 20
0.0
 30
0.0
  0
XRECORD
  5
279
102
{ACAD_REACTORS
330
269
102
}
330
269
100
AcDbXrecord
 10
0.0
 20
0.0
 30
0.0
  0
XRECORD
  5
276
102
{ACAD_REACTORS
330
269
102
}
330
269
100
AcDbXrecord
340
0
  0
XRECORD
  5
277
102
{ACAD_REACTORS
330
269
102
}
330
269
100
AcDbXrecord
 70
     0
  0
XRECORD
  5
26D
102
{ACAD_REACTORS
330
269
102
}
330
269
100
AcDbXrecord
  1

  0
XRECORD
  5
26A
102
{ACAD_REACTORS
330
269
102
}
330
269
100
AcDbXrecord
 90
        1
  0
XRECORD
  5
26B
102
{ACAD_REACTORS
330
269
102
}
330
269
100
AcDbXrecord
 90
       70
  0
XRECORD
  5
281
102
{ACAD_REACTORS
330
269
102
}
330
269
100
AcDbXrecord
340
0
  0
XRECORD
  5
287
102
{ACAD_REACTORS
330
269
102
}
330
269
100
AcDbXrecord
 10
0.0
 20
0.0
 30
0.0
  0
XRECORD
  5
283
102
{ACAD_REACTORS
330
269
102
}
330
269
100
AcDbXrecord
 10
0.0
 20
0.0
 30
0.0
  0
XRECORD
  5
286
102
{ACAD_REACTORS
330
269
102
}
330
269
100
AcDbXrecord
 10
0.0
 20
0.0
 30
0.0
  0
XRECORD
  5
284
102
{ACAD_REACTORS
330
269
102
}
330
269
100
AcDbXrecord
 10
0.0
 20
0.0
 30
0.0
  0
XRECORD
  5
285
102
{ACAD_REACTORS
330
269
102
}
330
269
100
AcDbXrecord
 10
0.0
 20
0.0
 30
0.0
  0
XRECORD
  5
282
102
{ACAD_REACTORS
330
269
102
}
330
269
100
AcDbXrecord
 10
0.0
 20
0.0
 30
0.0
  0
XRECORD
  5
27F
102
{ACAD_REACTORS
330
269
102
}
330
269
100
AcDbXrecord
340
0
  0
XRECORD
  5
280
102
{ACAD_REACTORS
330
269
102
}
330
269
100
AcDbXrecord
 70
     0
  0
XRECORD
  5
274
102
{ACAD_REACTORS
330
269
102
}
330
269
100
AcDbXrecord
  1
{FAEB1C32-E019-11D5-929B-00C0DF256EC4}
  0
DICTIONARYVAR
  5
28C
102
{ACAD_REACTORS
330
289
102
}
330
289
100
DictionaryVariables
280
     0
  1
2
  0
DICTIONARYVAR
  5
28D
102
{ACAD_REACTORS
330
289
102
}
330
289
100
DictionaryVariables
280
     0
  1
1
  0
DICTIONARY
  5
290
330
3D
100
AcDbDictionary
280
     1
  3
ACAD_XREC_ROUNDTRIP
360
291
  0
DICTIONARY
  5
28E
330
3C
100
AcDbDictionary
280
     1
  3
ACAD_XREC_ROUNDTRIP
360
28F
  0
DICTIONARY
  5
292
330
3E
100
AcDbDictionary
280
     1
  3
ACAD_XREC_ROUNDTRIP
360
293
  0
XRECORD
  5
291
102
{ACAD_REACTORS
330
290
102
}
330
290
100
AcDbXrecord
102
MATERIAL
148
0.0
149
0.0
149
0.0
 93
        0
 94
      127
282
     0
 72
     1
 77
     1
171
     1
175
     1
179
     1
273
     0
  0
XRECORD
  5
28F
102
{ACAD_REACTORS
330
28E
102
}
330
28E
100
AcDbXrecord
102
MATERIAL
148
0.0
149
0.0
149
0.0
 93
        0
 94
      127
282
     0
 72
     1
 77
     1
171
     1
175
     1
179
     1
273
     0
  0
XRECORD
  5
293
102
{ACAD_REACTORS
330
292
102
}
330
292
100
AcDbXrecord
102
MATERIAL
148
0.0
149
0.0
149
0.0
 93
        0
 94
      127
282
     0
 72
     1
 77
     1
171
     1
175
     1
179
     1
273
     0
  0
ENDSEC
  0
EOF
