%MOIN*%
%OFA0B0*%
%FSLAX46Y46*%
%IPPOS*%
%LPD*%
%ADD10C,0.0039370078740157488*%
%ADD21C,0.0039370078740157488*%
%ADD22C,0.0039370078740157488*%
%ADD23C,0.0039370078740157488*%
D10*
G36*
X0001286784Y0002738149D02*
G01*
X0001204028Y0002738149D01*
X0001204028Y0002820905D01*
X0001286784Y0002820905D01*
X0001286784Y0002738149D01*
X0001286784Y0002738149D01*
G37*
G36*
X0001440546Y0002772401D02*
G01*
X0001357790Y0002772401D01*
X0001357790Y0002855157D01*
X0001440546Y0002855157D01*
X0001440546Y0002772401D01*
X0001440546Y0002772401D01*
G37*
G36*
X0001594308Y0002790905D02*
G01*
X0001511552Y0002790905D01*
X0001511552Y0002873661D01*
X0001594308Y0002873661D01*
X0001594308Y0002790905D01*
X0001594308Y0002790905D01*
G37*
G36*
X0001748070Y0002818070D02*
G01*
X0001665314Y0002818070D01*
X0001665314Y0002900826D01*
X0001748070Y0002900826D01*
X0001748070Y0002818070D01*
X0001748070Y0002818070D01*
G37*
G36*
X0000961115Y0003004511D02*
G01*
X0000961115Y0003004511D01*
X0000978821Y0002963447D01*
X0000979288Y0002962603D01*
X0000979911Y0002961866D01*
X0000980665Y0002961265D01*
X0000981117Y0002961005D01*
X0001010629Y0002946062D01*
X0001010400Y0002945881D01*
X0000987639Y0002927893D01*
X0000986945Y0002927223D01*
X0000986394Y0002926431D01*
X0000986009Y0002925547D01*
X0000985865Y0002924997D01*
X0000983114Y0002911240D01*
X0000983018Y0002910280D01*
X0000983112Y0002909320D01*
X0000983391Y0002908397D01*
X0000983845Y0002907545D01*
X0000984456Y0002906799D01*
X0000985201Y0002906186D01*
X0000986051Y0002905730D01*
X0000986974Y0002905449D01*
X0000987939Y0002905354D01*
X0001008444Y0002905354D01*
X0001008444Y0002851338D01*
X0000969429Y0002851338D01*
X0000969429Y0002899869D01*
X0000969334Y0002900829D01*
X0000969054Y0002901752D01*
X0000968599Y0002902603D01*
X0000967987Y0002903349D01*
X0000967242Y0002903961D01*
X0000966391Y0002904416D01*
X0000965467Y0002904696D01*
X0000964507Y0002904790D01*
X0000964196Y0002904756D01*
X0000963857Y0002904749D01*
X0000963779Y0002904724D01*
X0000952752Y0002906968D01*
X0000944347Y0002908679D01*
X0000943387Y0002908778D01*
X0000942427Y0002908688D01*
X0000941503Y0002908412D01*
X0000940650Y0002907961D01*
X0000939901Y0002907352D01*
X0000939286Y0002906609D01*
X0000938827Y0002905760D01*
X0000938543Y0002904838D01*
X0000938444Y0002903857D01*
X0000938444Y0002851338D01*
X0000899429Y0002851338D01*
X0000899429Y0002905354D01*
X0000915843Y0002905354D01*
X0000916804Y0002905448D01*
X0000917727Y0002905728D01*
X0000918578Y0002906183D01*
X0000919323Y0002906795D01*
X0000919935Y0002907541D01*
X0000920390Y0002908392D01*
X0000920670Y0002909315D01*
X0000920765Y0002910275D01*
X0000920670Y0002911235D01*
X0000920390Y0002912158D01*
X0000919935Y0002913009D01*
X0000919628Y0002913350D01*
X0000919654Y0002913370D01*
X0000919337Y0002913770D01*
X0000919291Y0002913779D01*
X0000903577Y0002938921D01*
X0000903508Y0002939029D01*
X0000898970Y0002945881D01*
X0000884251Y0002968110D01*
X0000930678Y0002975340D01*
X0000931612Y0002975581D01*
X0000932481Y0002976000D01*
X0000933424Y0002976747D01*
X0000939267Y0002982669D01*
X0000961023Y0003004724D01*
X0000961115Y0003004511D01*
X0000961115Y0003004511D01*
G37*
G36*
X0001146834Y0002898894D02*
G01*
X0001148172Y0002898488D01*
X0001149405Y0002897829D01*
X0001150485Y0002896942D01*
X0001151372Y0002895861D01*
X0001152031Y0002894628D01*
X0001152437Y0002893290D01*
X0001152598Y0002891657D01*
X0001152598Y0002865035D01*
X0001152437Y0002863401D01*
X0001152031Y0002862064D01*
X0001151372Y0002860831D01*
X0001150485Y0002859750D01*
X0001149405Y0002858863D01*
X0001148172Y0002858204D01*
X0001146834Y0002857798D01*
X0001145201Y0002857637D01*
X0001121531Y0002857637D01*
X0001119897Y0002857798D01*
X0001118560Y0002858204D01*
X0001117327Y0002858863D01*
X0001116246Y0002859750D01*
X0001115359Y0002860831D01*
X0001114700Y0002862064D01*
X0001114294Y0002863401D01*
X0001114133Y0002865035D01*
X0001114133Y0002891657D01*
X0001114294Y0002893290D01*
X0001114700Y0002894628D01*
X0001115359Y0002895861D01*
X0001116246Y0002896942D01*
X0001117327Y0002897829D01*
X0001118560Y0002898488D01*
X0001119897Y0002898894D01*
X0001121531Y0002899055D01*
X0001145201Y0002899055D01*
X0001146834Y0002898894D01*
X0001146834Y0002898894D01*
G37*
G36*
X0001084826Y0002898894D02*
G01*
X0001086164Y0002898488D01*
X0001087397Y0002897829D01*
X0001088477Y0002896942D01*
X0001089364Y0002895861D01*
X0001090023Y0002894628D01*
X0001090429Y0002893290D01*
X0001090590Y0002891657D01*
X0001090590Y0002865035D01*
X0001090429Y0002863401D01*
X0001090023Y0002862064D01*
X0001089364Y0002860831D01*
X0001088477Y0002859750D01*
X0001087397Y0002858863D01*
X0001086164Y0002858204D01*
X0001084826Y0002857798D01*
X0001083193Y0002857637D01*
X0001059523Y0002857637D01*
X0001057890Y0002857798D01*
X0001056552Y0002858204D01*
X0001055319Y0002858863D01*
X0001054238Y0002859750D01*
X0001053351Y0002860831D01*
X0001052692Y0002862064D01*
X0001052286Y0002863401D01*
X0001052125Y0002865035D01*
X0001052125Y0002891657D01*
X0001052286Y0002893290D01*
X0001052692Y0002894628D01*
X0001053351Y0002895861D01*
X0001054238Y0002896942D01*
X0001055319Y0002897829D01*
X0001056552Y0002898488D01*
X0001057890Y0002898894D01*
X0001059523Y0002899055D01*
X0001083193Y0002899055D01*
X0001084826Y0002898894D01*
X0001084826Y0002898894D01*
G37*
G36*
X0000487812Y0002943089D02*
G01*
X0000490418Y0002942833D01*
X0000497104Y0002940804D01*
X0000503267Y0002937510D01*
X0000504674Y0002936356D01*
X0000508668Y0002933078D01*
X0000511946Y0002929083D01*
X0000513101Y0002927676D01*
X0000516395Y0002921514D01*
X0000518423Y0002914827D01*
X0000519108Y0002907874D01*
X0000518423Y0002900920D01*
X0000516395Y0002894233D01*
X0000513101Y0002888071D01*
X0000511946Y0002886664D01*
X0000508668Y0002882669D01*
X0000504674Y0002879391D01*
X0000503267Y0002878237D01*
X0000497104Y0002874943D01*
X0000490418Y0002872914D01*
X0000487812Y0002872658D01*
X0000485207Y0002872401D01*
X0000481722Y0002872401D01*
X0000479116Y0002872658D01*
X0000476510Y0002872914D01*
X0000469824Y0002874943D01*
X0000463661Y0002878237D01*
X0000462254Y0002879391D01*
X0000458260Y0002882669D01*
X0000454982Y0002886664D01*
X0000453827Y0002888071D01*
X0000450533Y0002894233D01*
X0000448505Y0002900920D01*
X0000447820Y0002907874D01*
X0000448505Y0002914827D01*
X0000450533Y0002921514D01*
X0000453827Y0002927676D01*
X0000454982Y0002929083D01*
X0000458260Y0002933078D01*
X0000462254Y0002936356D01*
X0000463661Y0002937510D01*
X0000469824Y0002940804D01*
X0000476510Y0002942833D01*
X0000479116Y0002943089D01*
X0000481722Y0002943346D01*
X0000485207Y0002943346D01*
X0000487812Y0002943089D01*
X0000487812Y0002943089D01*
G37*
G36*
X0000387812Y0002943089D02*
G01*
X0000390418Y0002942833D01*
X0000397104Y0002940804D01*
X0000403267Y0002937510D01*
X0000404674Y0002936356D01*
X0000408668Y0002933078D01*
X0000411946Y0002929083D01*
X0000413101Y0002927676D01*
X0000416395Y0002921514D01*
X0000418423Y0002914827D01*
X0000419108Y0002907874D01*
X0000418423Y0002900920D01*
X0000416395Y0002894233D01*
X0000413101Y0002888071D01*
X0000411946Y0002886664D01*
X0000408668Y0002882669D01*
X0000404674Y0002879391D01*
X0000403267Y0002878237D01*
X0000397104Y0002874943D01*
X0000390418Y0002872914D01*
X0000387812Y0002872658D01*
X0000385207Y0002872401D01*
X0000381722Y0002872401D01*
X0000379116Y0002872658D01*
X0000376510Y0002872914D01*
X0000369824Y0002874943D01*
X0000363661Y0002878237D01*
X0000362254Y0002879391D01*
X0000358260Y0002882669D01*
X0000354982Y0002886664D01*
X0000353827Y0002888071D01*
X0000350533Y0002894233D01*
X0000348505Y0002900920D01*
X0000347820Y0002907874D01*
X0000348505Y0002914827D01*
X0000350533Y0002921514D01*
X0000353827Y0002927676D01*
X0000354982Y0002929083D01*
X0000358260Y0002933078D01*
X0000362254Y0002936356D01*
X0000363661Y0002937510D01*
X0000369824Y0002940804D01*
X0000376510Y0002942833D01*
X0000379116Y0002943089D01*
X0000381722Y0002943346D01*
X0000385207Y0002943346D01*
X0000387812Y0002943089D01*
X0000387812Y0002943089D01*
G37*
G36*
X0000287812Y0002943089D02*
G01*
X0000290418Y0002942833D01*
X0000297104Y0002940804D01*
X0000303267Y0002937510D01*
X0000304674Y0002936356D01*
X0000308668Y0002933078D01*
X0000311946Y0002929083D01*
X0000313101Y0002927676D01*
X0000316395Y0002921514D01*
X0000318423Y0002914827D01*
X0000319108Y0002907874D01*
X0000318423Y0002900920D01*
X0000316395Y0002894233D01*
X0000313101Y0002888071D01*
X0000311946Y0002886664D01*
X0000308668Y0002882669D01*
X0000304674Y0002879391D01*
X0000303267Y0002878237D01*
X0000297104Y0002874943D01*
X0000290418Y0002872914D01*
X0000287812Y0002872658D01*
X0000285207Y0002872401D01*
X0000281722Y0002872401D01*
X0000279116Y0002872658D01*
X0000276510Y0002872914D01*
X0000269824Y0002874943D01*
X0000263661Y0002878237D01*
X0000262254Y0002879391D01*
X0000258260Y0002882669D01*
X0000254982Y0002886664D01*
X0000253827Y0002888071D01*
X0000250533Y0002894233D01*
X0000248505Y0002900920D01*
X0000247820Y0002907874D01*
X0000248505Y0002914827D01*
X0000250533Y0002921514D01*
X0000253827Y0002927676D01*
X0000254982Y0002929083D01*
X0000258260Y0002933078D01*
X0000262254Y0002936356D01*
X0000263661Y0002937510D01*
X0000269824Y0002940804D01*
X0000276510Y0002942833D01*
X0000279116Y0002943089D01*
X0000281722Y0002943346D01*
X0000285207Y0002943346D01*
X0000287812Y0002943089D01*
X0000287812Y0002943089D01*
G37*
G36*
X0001823777Y0003099182D02*
G01*
X0001824926Y0003098816D01*
X0001866455Y0003091054D01*
X0001864715Y0003081051D01*
X0001860461Y0003056592D01*
X0001860156Y0003054834D01*
X0001859990Y0003054594D01*
X0001846120Y0003034560D01*
X0001846120Y0003034560D01*
X0001845982Y0003034361D01*
X0001838910Y0003031128D01*
X0001832366Y0003028137D01*
X0001831532Y0003027651D01*
X0001830809Y0003027013D01*
X0001830225Y0003026246D01*
X0001829801Y0003025379D01*
X0001829554Y0003024446D01*
X0001829494Y0003023483D01*
X0001829623Y0003022527D01*
X0001829937Y0003021615D01*
X0001830422Y0003020781D01*
X0001831060Y0003020058D01*
X0001831828Y0003019473D01*
X0001832694Y0003019049D01*
X0001833627Y0003018803D01*
X0001834412Y0003018740D01*
X0001867106Y0003018740D01*
X0001867106Y0002964724D01*
X0001828090Y0002964724D01*
X0001828090Y0003018521D01*
X0001827995Y0003019481D01*
X0001827715Y0003020404D01*
X0001827261Y0003021255D01*
X0001826649Y0003022001D01*
X0001825903Y0003022613D01*
X0001825052Y0003023068D01*
X0001824129Y0003023348D01*
X0001823169Y0003023442D01*
X0001822209Y0003023348D01*
X0001821123Y0003022997D01*
X0001805143Y0003015692D01*
X0001804644Y0003015463D01*
X0001804253Y0003015614D01*
X0001803790Y0003015791D01*
X0001802859Y0003016047D01*
X0001801897Y0003016116D01*
X0001800940Y0003015996D01*
X0001800024Y0003015692D01*
X0001799186Y0003015215D01*
X0001798457Y0003014583D01*
X0001797864Y0003013822D01*
X0001797432Y0003012959D01*
X0001797177Y0003012029D01*
X0001797106Y0003011196D01*
X0001797106Y0002964724D01*
X0001758090Y0002964724D01*
X0001758090Y0003018740D01*
X0001769538Y0003018740D01*
X0001770498Y0003018834D01*
X0001771421Y0003019114D01*
X0001772272Y0003019569D01*
X0001773018Y0003020181D01*
X0001773630Y0003020927D01*
X0001774084Y0003021778D01*
X0001774364Y0003022701D01*
X0001774459Y0003023661D01*
X0001774364Y0003024621D01*
X0001774084Y0003025544D01*
X0001773630Y0003026395D01*
X0001773018Y0003027141D01*
X0001772272Y0003027753D01*
X0001771301Y0003028256D01*
X0001742271Y0003039393D01*
X0001742271Y0003039393D01*
X0001742045Y0003039479D01*
X0001773894Y0003074014D01*
X0001774476Y0003074784D01*
X0001775035Y0003076094D01*
X0001776327Y0003080986D01*
X0001785746Y0003116645D01*
X0001823777Y0003099182D01*
X0001823777Y0003099182D01*
G37*
G36*
X0002015338Y0003012280D02*
G01*
X0002016675Y0003011874D01*
X0002017909Y0003011215D01*
X0002018989Y0003010328D01*
X0002019876Y0003009247D01*
X0002020535Y0003008014D01*
X0002020941Y0003006676D01*
X0002021102Y0003005043D01*
X0002021102Y0002978420D01*
X0002020941Y0002976787D01*
X0002020535Y0002975450D01*
X0002019876Y0002974216D01*
X0002018989Y0002973136D01*
X0002017909Y0002972249D01*
X0002016675Y0002971590D01*
X0002015338Y0002971184D01*
X0002013705Y0002971023D01*
X0001990035Y0002971023D01*
X0001988401Y0002971184D01*
X0001987064Y0002971590D01*
X0001985831Y0002972249D01*
X0001984750Y0002973136D01*
X0001983863Y0002974216D01*
X0001983204Y0002975450D01*
X0001982798Y0002976787D01*
X0001982637Y0002978420D01*
X0001982637Y0003005043D01*
X0001982798Y0003006676D01*
X0001983204Y0003008014D01*
X0001983863Y0003009247D01*
X0001984750Y0003010328D01*
X0001985831Y0003011215D01*
X0001987064Y0003011874D01*
X0001988401Y0003012280D01*
X0001990035Y0003012440D01*
X0002013705Y0003012440D01*
X0002015338Y0003012280D01*
X0002015338Y0003012280D01*
G37*
G36*
X0001953330Y0003012280D02*
G01*
X0001954668Y0003011874D01*
X0001955901Y0003011215D01*
X0001956981Y0003010328D01*
X0001957868Y0003009247D01*
X0001958527Y0003008014D01*
X0001958933Y0003006676D01*
X0001959094Y0003005043D01*
X0001959094Y0002978420D01*
X0001958933Y0002976787D01*
X0001958527Y0002975450D01*
X0001957868Y0002974216D01*
X0001956981Y0002973136D01*
X0001955901Y0002972249D01*
X0001954668Y0002971590D01*
X0001953330Y0002971184D01*
X0001951697Y0002971023D01*
X0001928027Y0002971023D01*
X0001926394Y0002971184D01*
X0001925056Y0002971590D01*
X0001923823Y0002972249D01*
X0001922742Y0002973136D01*
X0001921855Y0002974216D01*
X0001921196Y0002975450D01*
X0001920790Y0002976787D01*
X0001920629Y0002978420D01*
X0001920629Y0003005043D01*
X0001920790Y0003006676D01*
X0001921196Y0003008014D01*
X0001921855Y0003009247D01*
X0001922742Y0003010328D01*
X0001923823Y0003011215D01*
X0001925056Y0003011874D01*
X0001926394Y0003012280D01*
X0001928027Y0003012440D01*
X0001951697Y0003012440D01*
X0001953330Y0003012280D01*
X0001953330Y0003012280D01*
G37*
G36*
X0000487933Y0003043152D02*
G01*
X0000493811Y0003041983D01*
X0000500267Y0003039309D01*
X0000506076Y0003035427D01*
X0000511017Y0003030486D01*
X0000514899Y0003024676D01*
X0000517573Y0003018220D01*
X0000518937Y0003011367D01*
X0000518937Y0003004380D01*
X0000517573Y0002997527D01*
X0000514899Y0002991071D01*
X0000511017Y0002985261D01*
X0000506076Y0002980320D01*
X0000500267Y0002976438D01*
X0000493811Y0002973764D01*
X0000488178Y0002972644D01*
X0000486958Y0002972401D01*
X0000479970Y0002972401D01*
X0000478750Y0002972644D01*
X0000473117Y0002973764D01*
X0000466662Y0002976438D01*
X0000460852Y0002980320D01*
X0000455911Y0002985261D01*
X0000452029Y0002991071D01*
X0000449355Y0002997527D01*
X0000447992Y0003004380D01*
X0000447992Y0003011367D01*
X0000449355Y0003018220D01*
X0000452029Y0003024676D01*
X0000455911Y0003030486D01*
X0000460852Y0003035427D01*
X0000466662Y0003039309D01*
X0000473117Y0003041983D01*
X0000478995Y0003043152D01*
X0000479970Y0003043346D01*
X0000486958Y0003043346D01*
X0000487933Y0003043152D01*
X0000487933Y0003043152D01*
G37*
G36*
X0000387933Y0003043152D02*
G01*
X0000393811Y0003041983D01*
X0000400267Y0003039309D01*
X0000406076Y0003035427D01*
X0000411017Y0003030486D01*
X0000414899Y0003024676D01*
X0000417573Y0003018220D01*
X0000418936Y0003011367D01*
X0000418936Y0003004380D01*
X0000417573Y0002997527D01*
X0000414899Y0002991071D01*
X0000411017Y0002985261D01*
X0000406076Y0002980320D01*
X0000400267Y0002976438D01*
X0000393811Y0002973764D01*
X0000388178Y0002972644D01*
X0000386958Y0002972401D01*
X0000379970Y0002972401D01*
X0000378750Y0002972644D01*
X0000373117Y0002973764D01*
X0000366662Y0002976438D01*
X0000360852Y0002980320D01*
X0000355911Y0002985261D01*
X0000352029Y0002991071D01*
X0000349355Y0002997527D01*
X0000347992Y0003004380D01*
X0000347992Y0003011367D01*
X0000349355Y0003018220D01*
X0000352029Y0003024676D01*
X0000355911Y0003030486D01*
X0000360852Y0003035427D01*
X0000366662Y0003039309D01*
X0000373117Y0003041983D01*
X0000378995Y0003043152D01*
X0000379970Y0003043346D01*
X0000386958Y0003043346D01*
X0000387933Y0003043152D01*
X0000387933Y0003043152D01*
G37*
G36*
X0000287812Y0003043089D02*
G01*
X0000290418Y0003042833D01*
X0000297104Y0003040804D01*
X0000297105Y0003040804D01*
X0000299584Y0003039479D01*
X0000303267Y0003037510D01*
X0000304674Y0003036356D01*
X0000308668Y0003033078D01*
X0000311946Y0003029083D01*
X0000313101Y0003027676D01*
X0000316395Y0003021514D01*
X0000318423Y0003014827D01*
X0000319108Y0003007874D01*
X0000318423Y0003000920D01*
X0000316395Y0002994233D01*
X0000313101Y0002988071D01*
X0000312903Y0002987830D01*
X0000308668Y0002982669D01*
X0000305806Y0002980320D01*
X0000303267Y0002978237D01*
X0000303267Y0002978237D01*
X0000298316Y0002975590D01*
X0000297104Y0002974943D01*
X0000290418Y0002972914D01*
X0000287812Y0002972658D01*
X0000285207Y0002972401D01*
X0000281722Y0002972401D01*
X0000279116Y0002972658D01*
X0000276510Y0002972914D01*
X0000269824Y0002974943D01*
X0000268613Y0002975590D01*
X0000263661Y0002978237D01*
X0000263661Y0002978237D01*
X0000261122Y0002980320D01*
X0000258260Y0002982669D01*
X0000254025Y0002987830D01*
X0000253827Y0002988071D01*
X0000250533Y0002994233D01*
X0000248505Y0003000920D01*
X0000247820Y0003007874D01*
X0000248505Y0003014827D01*
X0000250533Y0003021514D01*
X0000253827Y0003027676D01*
X0000254982Y0003029083D01*
X0000258260Y0003033078D01*
X0000262254Y0003036356D01*
X0000263661Y0003037510D01*
X0000267345Y0003039479D01*
X0000269824Y0003040804D01*
X0000269824Y0003040804D01*
X0000276510Y0003042833D01*
X0000279116Y0003043089D01*
X0000281722Y0003043346D01*
X0000285207Y0003043346D01*
X0000287812Y0003043089D01*
X0000287812Y0003043089D01*
G37*
G36*
X0000711417Y0003046073D02*
G01*
X0000711795Y0003045958D01*
X0000712144Y0003045772D01*
X0000712450Y0003045521D01*
X0000712852Y0003045031D01*
X0000713125Y0003044623D01*
X0000713807Y0003043940D01*
X0000714609Y0003043404D01*
X0000715500Y0003043035D01*
X0000716446Y0003042847D01*
X0000717411Y0003042847D01*
X0000718357Y0003043035D01*
X0000719249Y0003043405D01*
X0000720051Y0003043941D01*
X0000720733Y0003044623D01*
X0000721006Y0003045031D01*
X0000721407Y0003045521D01*
X0000721713Y0003045772D01*
X0000722062Y0003045958D01*
X0000722440Y0003046073D01*
X0000723076Y0003046135D01*
X0000742277Y0003046135D01*
X0000742999Y0003046064D01*
X0000743482Y0003046041D01*
X0000744207Y0003046041D01*
X0000745084Y0003045954D01*
X0000748394Y0003045296D01*
X0000749238Y0003045040D01*
X0000752356Y0003043748D01*
X0000752570Y0003043634D01*
X0000752571Y0003043634D01*
X0000752920Y0003043447D01*
X0000752920Y0003043447D01*
X0000753134Y0003043333D01*
X0000755940Y0003041457D01*
X0000756622Y0003040898D01*
X0000759008Y0003038511D01*
X0000759568Y0003037830D01*
X0000761443Y0003035024D01*
X0000761557Y0003034809D01*
X0000761557Y0003034809D01*
X0000761744Y0003034460D01*
X0000761744Y0003034460D01*
X0000761859Y0003034246D01*
X0000763150Y0003031128D01*
X0000763406Y0003030284D01*
X0000764064Y0003026974D01*
X0000764151Y0003026097D01*
X0000764151Y0003025372D01*
X0000764175Y0003024889D01*
X0000764246Y0003024167D01*
X0000764246Y0003004966D01*
X0000764175Y0003004244D01*
X0000764151Y0003003761D01*
X0000764151Y0003003036D01*
X0000764064Y0003002159D01*
X0000763406Y0002998849D01*
X0000763150Y0002998005D01*
X0000761859Y0002994887D01*
X0000761744Y0002994673D01*
X0000761744Y0002994672D01*
X0000761557Y0002994324D01*
X0000761557Y0002994323D01*
X0000761443Y0002994109D01*
X0000759568Y0002991303D01*
X0000759008Y0002990621D01*
X0000756622Y0002988235D01*
X0000755940Y0002987676D01*
X0000753134Y0002985800D01*
X0000752920Y0002985686D01*
X0000752920Y0002985686D01*
X0000752571Y0002985499D01*
X0000752570Y0002985499D01*
X0000752356Y0002985385D01*
X0000749238Y0002984093D01*
X0000748394Y0002983837D01*
X0000745084Y0002983179D01*
X0000744207Y0002983092D01*
X0000743482Y0002983092D01*
X0000742999Y0002983069D01*
X0000742278Y0002982997D01*
X0000723076Y0002982997D01*
X0000722440Y0002983060D01*
X0000722062Y0002983175D01*
X0000721713Y0002983361D01*
X0000721407Y0002983612D01*
X0000721005Y0002984102D01*
X0000720733Y0002984510D01*
X0000720050Y0002985192D01*
X0000719248Y0002985728D01*
X0000718357Y0002986098D01*
X0000717411Y0002986286D01*
X0000716446Y0002986286D01*
X0000715500Y0002986097D01*
X0000714609Y0002985728D01*
X0000713807Y0002985192D01*
X0000713124Y0002984510D01*
X0000712852Y0002984102D01*
X0000712450Y0002983612D01*
X0000712144Y0002983361D01*
X0000711795Y0002983175D01*
X0000711417Y0002983060D01*
X0000710781Y0002982997D01*
X0000691580Y0002982997D01*
X0000690858Y0002983069D01*
X0000690375Y0002983092D01*
X0000689650Y0002983092D01*
X0000688773Y0002983179D01*
X0000685463Y0002983837D01*
X0000684619Y0002984093D01*
X0000681501Y0002985385D01*
X0000681287Y0002985499D01*
X0000681287Y0002985499D01*
X0000680938Y0002985686D01*
X0000680938Y0002985686D01*
X0000680723Y0002985800D01*
X0000677917Y0002987676D01*
X0000677236Y0002988235D01*
X0000674849Y0002990621D01*
X0000674290Y0002991303D01*
X0000672414Y0002994109D01*
X0000672300Y0002994323D01*
X0000672300Y0002994324D01*
X0000672113Y0002994672D01*
X0000672113Y0002994673D01*
X0000671999Y0002994887D01*
X0000670707Y0002998005D01*
X0000670451Y0002998849D01*
X0000669793Y0003002159D01*
X0000669706Y0003003036D01*
X0000669706Y0003003761D01*
X0000669683Y0003004244D01*
X0000669612Y0003004966D01*
X0000669612Y0003024167D01*
X0000669683Y0003024889D01*
X0000669706Y0003025372D01*
X0000669706Y0003026097D01*
X0000669793Y0003026974D01*
X0000670451Y0003030284D01*
X0000670707Y0003031128D01*
X0000671999Y0003034246D01*
X0000672113Y0003034460D01*
X0000672113Y0003034460D01*
X0000672300Y0003034809D01*
X0000672300Y0003034809D01*
X0000672414Y0003035024D01*
X0000674290Y0003037830D01*
X0000674849Y0003038511D01*
X0000677236Y0003040898D01*
X0000677917Y0003041457D01*
X0000680723Y0003043333D01*
X0000680938Y0003043447D01*
X0000680938Y0003043447D01*
X0000681287Y0003043634D01*
X0000681287Y0003043634D01*
X0000681501Y0003043748D01*
X0000684619Y0003045040D01*
X0000685463Y0003045296D01*
X0000688773Y0003045954D01*
X0000689650Y0003046041D01*
X0000690375Y0003046041D01*
X0000690858Y0003046064D01*
X0000691580Y0003046135D01*
X0000710781Y0003046135D01*
X0000711417Y0003046073D01*
X0000711417Y0003046073D01*
G37*
G36*
X0002139599Y0003164398D02*
G01*
X0002139599Y0003164398D01*
X0002146883Y0003159044D01*
X0002166990Y0003144267D01*
X0002171385Y0003141037D01*
X0002172214Y0003140545D01*
X0002172831Y0003140306D01*
X0002215815Y0003126873D01*
X0002216141Y0003126771D01*
X0002205919Y0003110799D01*
X0002197244Y0003097244D01*
X0002197242Y0003097242D01*
X0002182854Y0003074737D01*
X0002182417Y0003073877D01*
X0002182155Y0003072948D01*
X0002182080Y0003071987D01*
X0002182194Y0003071029D01*
X0002182493Y0003070111D01*
X0002182965Y0003069270D01*
X0002183592Y0003068537D01*
X0002184349Y0003067940D01*
X0002185209Y0003067502D01*
X0002186138Y0003067241D01*
X0002187000Y0003067165D01*
X0002211988Y0003067165D01*
X0002211988Y0003013149D01*
X0002172972Y0003013149D01*
X0002172972Y0003065126D01*
X0002172877Y0003066086D01*
X0002172597Y0003067009D01*
X0002172143Y0003067860D01*
X0002171531Y0003068606D01*
X0002170785Y0003069218D01*
X0002169934Y0003069673D01*
X0002169011Y0003069953D01*
X0002168051Y0003070047D01*
X0002166988Y0003069931D01*
X0002156178Y0003067539D01*
X0002145846Y0003065254D01*
X0002144929Y0003064954D01*
X0002144088Y0003064481D01*
X0002143355Y0003063853D01*
X0002142760Y0003063095D01*
X0002142323Y0003062234D01*
X0002142063Y0003061305D01*
X0002141988Y0003060449D01*
X0002141988Y0003013149D01*
X0002102972Y0003013149D01*
X0002102972Y0003067165D01*
X0002118717Y0003067165D01*
X0002119677Y0003067259D01*
X0002120600Y0003067539D01*
X0002121451Y0003067994D01*
X0002122197Y0003068606D01*
X0002122809Y0003069352D01*
X0002123264Y0003070203D01*
X0002123544Y0003071126D01*
X0002123638Y0003072086D01*
X0002123544Y0003073046D01*
X0002123264Y0003073969D01*
X0002122809Y0003074820D01*
X0002122197Y0003075566D01*
X0002121800Y0003075922D01*
X0002121586Y0003076094D01*
X0002115498Y0003080986D01*
X0002115202Y0003081206D01*
X0002082677Y0003103543D01*
X0002082934Y0003103694D01*
X0002122220Y0003126736D01*
X0002123000Y0003127304D01*
X0002123654Y0003128012D01*
X0002124258Y0003129054D01*
X0002139275Y0003164344D01*
X0002139275Y0003164344D01*
X0002139370Y0003164566D01*
X0002139599Y0003164398D01*
X0002139599Y0003164398D01*
G37*
G36*
X0002364550Y0003060705D02*
G01*
X0002365888Y0003060299D01*
X0002367121Y0003059640D01*
X0002368202Y0003058753D01*
X0002369089Y0003057672D01*
X0002369748Y0003056439D01*
X0002370154Y0003055102D01*
X0002370314Y0003053468D01*
X0002370314Y0003026846D01*
X0002370154Y0003025212D01*
X0002369748Y0003023875D01*
X0002369089Y0003022642D01*
X0002368202Y0003021561D01*
X0002367121Y0003020674D01*
X0002365888Y0003020015D01*
X0002364550Y0003019609D01*
X0002362917Y0003019448D01*
X0002339247Y0003019448D01*
X0002337614Y0003019609D01*
X0002336276Y0003020015D01*
X0002335043Y0003020674D01*
X0002333963Y0003021561D01*
X0002333076Y0003022642D01*
X0002332417Y0003023875D01*
X0002332011Y0003025212D01*
X0002331850Y0003026846D01*
X0002331850Y0003053468D01*
X0002332011Y0003055102D01*
X0002332417Y0003056439D01*
X0002333076Y0003057672D01*
X0002333963Y0003058753D01*
X0002335043Y0003059640D01*
X0002336276Y0003060299D01*
X0002337614Y0003060705D01*
X0002339247Y0003060866D01*
X0002362917Y0003060866D01*
X0002364550Y0003060705D01*
X0002364550Y0003060705D01*
G37*
G36*
X0002302542Y0003060705D02*
G01*
X0002303880Y0003060299D01*
X0002305113Y0003059640D01*
X0002306194Y0003058753D01*
X0002307081Y0003057672D01*
X0002307740Y0003056439D01*
X0002308146Y0003055102D01*
X0002308307Y0003053468D01*
X0002308307Y0003026846D01*
X0002308146Y0003025212D01*
X0002307740Y0003023875D01*
X0002307081Y0003022642D01*
X0002306194Y0003021561D01*
X0002305113Y0003020674D01*
X0002303880Y0003020015D01*
X0002302542Y0003019609D01*
X0002300909Y0003019448D01*
X0002277239Y0003019448D01*
X0002275606Y0003019609D01*
X0002274268Y0003020015D01*
X0002273035Y0003020674D01*
X0002271955Y0003021561D01*
X0002271068Y0003022642D01*
X0002270409Y0003023875D01*
X0002270003Y0003025212D01*
X0002269842Y0003026846D01*
X0002269842Y0003053468D01*
X0002270003Y0003055102D01*
X0002270409Y0003056439D01*
X0002271068Y0003057672D01*
X0002271955Y0003058753D01*
X0002273035Y0003059640D01*
X0002274268Y0003060299D01*
X0002275606Y0003060705D01*
X0002277239Y0003060866D01*
X0002300909Y0003060866D01*
X0002302542Y0003060705D01*
X0002302542Y0003060705D01*
G37*
G36*
X0000858981Y0003230759D02*
G01*
X0000859005Y0003230757D01*
X0000859821Y0003230595D01*
X0000860545Y0003230295D01*
X0000860690Y0003230198D01*
X0000861541Y0003229743D01*
X0000862464Y0003229463D01*
X0000863424Y0003229368D01*
X0000864384Y0003229463D01*
X0000865307Y0003229743D01*
X0000866546Y0003230485D01*
X0000866736Y0003230641D01*
X0000866821Y0003230687D01*
X0000866912Y0003230714D01*
X0000867249Y0003230748D01*
X0000877632Y0003230748D01*
X0000877969Y0003230714D01*
X0000878132Y0003230665D01*
X0000878886Y0003230352D01*
X0000879832Y0003230164D01*
X0000880797Y0003230164D01*
X0000881743Y0003230352D01*
X0000882497Y0003230665D01*
X0000882660Y0003230714D01*
X0000882997Y0003230748D01*
X0000893380Y0003230748D01*
X0000893717Y0003230714D01*
X0000893880Y0003230665D01*
X0000894634Y0003230352D01*
X0000895580Y0003230164D01*
X0000896545Y0003230164D01*
X0000897491Y0003230352D01*
X0000898245Y0003230665D01*
X0000898408Y0003230714D01*
X0000898745Y0003230748D01*
X0000909128Y0003230748D01*
X0000909465Y0003230714D01*
X0000909556Y0003230687D01*
X0000909641Y0003230641D01*
X0000909831Y0003230485D01*
X0000910633Y0003229949D01*
X0000911524Y0003229580D01*
X0000912471Y0003229392D01*
X0000913435Y0003229392D01*
X0000914381Y0003229580D01*
X0000915687Y0003230198D01*
X0000915832Y0003230295D01*
X0000916556Y0003230595D01*
X0000917372Y0003230757D01*
X0000917396Y0003230759D01*
X0000917837Y0003230781D01*
X0000921532Y0003230781D01*
X0000921973Y0003230759D01*
X0000921997Y0003230757D01*
X0000922813Y0003230595D01*
X0000923537Y0003230295D01*
X0000924188Y0003229860D01*
X0000924742Y0003229306D01*
X0000925177Y0003228655D01*
X0000925477Y0003227931D01*
X0000925639Y0003227115D01*
X0000925641Y0003227091D01*
X0000925663Y0003226651D01*
X0000925663Y0003201329D01*
X0000925641Y0003200889D01*
X0000925639Y0003200865D01*
X0000925477Y0003200049D01*
X0000925176Y0003199322D01*
X0000924896Y0003198399D01*
X0000924801Y0003197439D01*
X0000924896Y0003196479D01*
X0000925176Y0003195555D01*
X0000925630Y0003194705D01*
X0000926242Y0003193959D01*
X0000926988Y0003193347D01*
X0000927839Y0003192892D01*
X0000928762Y0003192612D01*
X0000929722Y0003192518D01*
X0000930682Y0003192612D01*
X0000931605Y0003192892D01*
X0000932332Y0003193193D01*
X0000933148Y0003193356D01*
X0000933172Y0003193358D01*
X0000933613Y0003193380D01*
X0000958934Y0003193380D01*
X0000959375Y0003193358D01*
X0000959398Y0003193356D01*
X0000960214Y0003193193D01*
X0000960938Y0003192893D01*
X0000961590Y0003192458D01*
X0000962143Y0003191904D01*
X0000962578Y0003191253D01*
X0000962878Y0003190529D01*
X0000963041Y0003189713D01*
X0000963043Y0003189690D01*
X0000963065Y0003189249D01*
X0000963065Y0003185553D01*
X0000963043Y0003185113D01*
X0000963041Y0003185089D01*
X0000962878Y0003184273D01*
X0000962578Y0003183549D01*
X0000962481Y0003183404D01*
X0000962026Y0003182553D01*
X0000961746Y0003181630D01*
X0000961652Y0003180669D01*
X0000961746Y0003179709D01*
X0000962026Y0003178786D01*
X0000962769Y0003177547D01*
X0000962925Y0003177357D01*
X0000962970Y0003177273D01*
X0000962998Y0003177181D01*
X0000963031Y0003176844D01*
X0000963031Y0003166462D01*
X0000962998Y0003166125D01*
X0000962948Y0003165962D01*
X0000962636Y0003165208D01*
X0000962448Y0003164261D01*
X0000962448Y0003163297D01*
X0000962636Y0003162350D01*
X0000962948Y0003161596D01*
X0000962998Y0003161433D01*
X0000963031Y0003161096D01*
X0000963031Y0003150714D01*
X0000962998Y0003150377D01*
X0000962948Y0003150214D01*
X0000962636Y0003149460D01*
X0000962448Y0003148513D01*
X0000962448Y0003147549D01*
X0000962636Y0003146602D01*
X0000962948Y0003145848D01*
X0000962998Y0003145685D01*
X0000963031Y0003145348D01*
X0000963031Y0003134966D01*
X0000962998Y0003134629D01*
X0000962970Y0003134537D01*
X0000962925Y0003134453D01*
X0000962769Y0003134263D01*
X0000962233Y0003133460D01*
X0000961864Y0003132569D01*
X0000961676Y0003131623D01*
X0000961676Y0003130658D01*
X0000961864Y0003129712D01*
X0000962481Y0003128407D01*
X0000962578Y0003128261D01*
X0000962878Y0003127537D01*
X0000963041Y0003126721D01*
X0000963043Y0003126697D01*
X0000963065Y0003126257D01*
X0000963065Y0003122561D01*
X0000963043Y0003122121D01*
X0000963041Y0003122097D01*
X0000962878Y0003121281D01*
X0000962578Y0003120557D01*
X0000962143Y0003119906D01*
X0000961590Y0003119352D01*
X0000960938Y0003118917D01*
X0000960214Y0003118617D01*
X0000959398Y0003118455D01*
X0000959375Y0003118452D01*
X0000958934Y0003118431D01*
X0000933613Y0003118431D01*
X0000933172Y0003118452D01*
X0000933148Y0003118455D01*
X0000932332Y0003118617D01*
X0000931605Y0003118918D01*
X0000930682Y0003119198D01*
X0000929722Y0003119292D01*
X0000928762Y0003119198D01*
X0000927839Y0003118918D01*
X0000926988Y0003118463D01*
X0000926242Y0003117851D01*
X0000925630Y0003117105D01*
X0000925176Y0003116254D01*
X0000924896Y0003115331D01*
X0000924801Y0003114371D01*
X0000924896Y0003113411D01*
X0000925176Y0003112488D01*
X0000925477Y0003111761D01*
X0000925639Y0003110945D01*
X0000925641Y0003110921D01*
X0000925663Y0003110481D01*
X0000925663Y0003085159D01*
X0000925641Y0003084719D01*
X0000925639Y0003084695D01*
X0000925477Y0003083879D01*
X0000925177Y0003083155D01*
X0000924742Y0003082504D01*
X0000924188Y0003081950D01*
X0000923537Y0003081515D01*
X0000922813Y0003081215D01*
X0000921997Y0003081053D01*
X0000921973Y0003081051D01*
X0000921532Y0003081029D01*
X0000917837Y0003081029D01*
X0000917396Y0003081051D01*
X0000917372Y0003081053D01*
X0000916556Y0003081215D01*
X0000915832Y0003081515D01*
X0000915687Y0003081612D01*
X0000914836Y0003082067D01*
X0000913913Y0003082347D01*
X0000912953Y0003082442D01*
X0000911993Y0003082347D01*
X0000911070Y0003082067D01*
X0000909831Y0003081325D01*
X0000909641Y0003081169D01*
X0000909556Y0003081124D01*
X0000909465Y0003081096D01*
X0000909128Y0003081062D01*
X0000898745Y0003081062D01*
X0000898408Y0003081096D01*
X0000898245Y0003081145D01*
X0000897491Y0003081458D01*
X0000896545Y0003081646D01*
X0000895580Y0003081646D01*
X0000894634Y0003081458D01*
X0000893880Y0003081145D01*
X0000893717Y0003081096D01*
X0000893380Y0003081062D01*
X0000882997Y0003081062D01*
X0000882660Y0003081096D01*
X0000882497Y0003081145D01*
X0000881743Y0003081458D01*
X0000880797Y0003081646D01*
X0000879832Y0003081646D01*
X0000878886Y0003081458D01*
X0000878132Y0003081145D01*
X0000877969Y0003081096D01*
X0000877632Y0003081062D01*
X0000867249Y0003081062D01*
X0000866912Y0003081096D01*
X0000866821Y0003081124D01*
X0000866736Y0003081169D01*
X0000866546Y0003081325D01*
X0000865744Y0003081861D01*
X0000864853Y0003082230D01*
X0000863906Y0003082418D01*
X0000862942Y0003082418D01*
X0000861995Y0003082230D01*
X0000860690Y0003081612D01*
X0000860545Y0003081515D01*
X0000859821Y0003081215D01*
X0000859005Y0003081053D01*
X0000858981Y0003081051D01*
X0000858540Y0003081029D01*
X0000854844Y0003081029D01*
X0000854404Y0003081051D01*
X0000854380Y0003081053D01*
X0000853564Y0003081215D01*
X0000852840Y0003081515D01*
X0000852189Y0003081950D01*
X0000851635Y0003082504D01*
X0000851200Y0003083155D01*
X0000850900Y0003083879D01*
X0000850738Y0003084695D01*
X0000850736Y0003084719D01*
X0000850714Y0003085159D01*
X0000850714Y0003110481D01*
X0000850736Y0003110921D01*
X0000850738Y0003110945D01*
X0000850900Y0003111761D01*
X0000851201Y0003112488D01*
X0000851481Y0003113411D01*
X0000851576Y0003114371D01*
X0000851481Y0003115331D01*
X0000851201Y0003116255D01*
X0000850747Y0003117105D01*
X0000850134Y0003117851D01*
X0000849389Y0003118463D01*
X0000848538Y0003118918D01*
X0000847615Y0003119198D01*
X0000846655Y0003119292D01*
X0000845695Y0003119198D01*
X0000844772Y0003118918D01*
X0000844045Y0003118617D01*
X0000843229Y0003118455D01*
X0000843205Y0003118452D01*
X0000842764Y0003118431D01*
X0000817443Y0003118431D01*
X0000817002Y0003118452D01*
X0000816979Y0003118455D01*
X0000816162Y0003118617D01*
X0000815439Y0003118917D01*
X0000814787Y0003119352D01*
X0000814234Y0003119906D01*
X0000813799Y0003120557D01*
X0000813499Y0003121281D01*
X0000813336Y0003122097D01*
X0000813334Y0003122121D01*
X0000813312Y0003122561D01*
X0000813312Y0003126257D01*
X0000813334Y0003126697D01*
X0000813336Y0003126721D01*
X0000813499Y0003127537D01*
X0000813799Y0003128261D01*
X0000813896Y0003128407D01*
X0000814351Y0003129257D01*
X0000814631Y0003130181D01*
X0000814725Y0003131141D01*
X0000814631Y0003132101D01*
X0000814351Y0003133024D01*
X0000813608Y0003134263D01*
X0000813452Y0003134453D01*
X0000813407Y0003134537D01*
X0000813379Y0003134629D01*
X0000813346Y0003134966D01*
X0000813346Y0003145348D01*
X0000813379Y0003145685D01*
X0000813429Y0003145848D01*
X0000813741Y0003146602D01*
X0000813929Y0003147549D01*
X0000813929Y0003148513D01*
X0000813741Y0003149460D01*
X0000813429Y0003150214D01*
X0000813379Y0003150377D01*
X0000813346Y0003150714D01*
X0000813346Y0003161096D01*
X0000813379Y0003161433D01*
X0000813429Y0003161596D01*
X0000813741Y0003162351D01*
X0000813929Y0003163297D01*
X0000813929Y0003164261D01*
X0000813741Y0003165208D01*
X0000813429Y0003165962D01*
X0000813379Y0003166125D01*
X0000813346Y0003166462D01*
X0000813346Y0003176844D01*
X0000813379Y0003177181D01*
X0000813407Y0003177273D01*
X0000813452Y0003177357D01*
X0000813608Y0003177547D01*
X0000814144Y0003178350D01*
X0000814513Y0003179241D01*
X0000814701Y0003180187D01*
X0000814701Y0003181152D01*
X0000814513Y0003182098D01*
X0000813896Y0003183404D01*
X0000813799Y0003183549D01*
X0000813499Y0003184273D01*
X0000813336Y0003185089D01*
X0000813334Y0003185113D01*
X0000813312Y0003185553D01*
X0000813312Y0003189249D01*
X0000813334Y0003189690D01*
X0000813336Y0003189713D01*
X0000813499Y0003190529D01*
X0000813799Y0003191253D01*
X0000814234Y0003191904D01*
X0000814787Y0003192458D01*
X0000815439Y0003192893D01*
X0000816162Y0003193193D01*
X0000816979Y0003193356D01*
X0000817002Y0003193358D01*
X0000817443Y0003193380D01*
X0000842764Y0003193380D01*
X0000843205Y0003193358D01*
X0000843229Y0003193356D01*
X0000844045Y0003193193D01*
X0000844772Y0003192892D01*
X0000845695Y0003192612D01*
X0000846655Y0003192518D01*
X0000847615Y0003192612D01*
X0000848538Y0003192892D01*
X0000849389Y0003193347D01*
X0000850135Y0003193959D01*
X0000850747Y0003194705D01*
X0000851201Y0003195556D01*
X0000851481Y0003196479D01*
X0000851576Y0003197439D01*
X0000851481Y0003198399D01*
X0000851201Y0003199322D01*
X0000850900Y0003200049D01*
X0000850738Y0003200865D01*
X0000850736Y0003200889D01*
X0000850714Y0003201329D01*
X0000850714Y0003226651D01*
X0000850736Y0003227091D01*
X0000850738Y0003227115D01*
X0000850900Y0003227931D01*
X0000851200Y0003228655D01*
X0000851635Y0003229306D01*
X0000852189Y0003229860D01*
X0000852840Y0003230295D01*
X0000853564Y0003230595D01*
X0000854380Y0003230757D01*
X0000854404Y0003230759D01*
X0000854844Y0003230781D01*
X0000858540Y0003230781D01*
X0000858981Y0003230759D01*
X0000858981Y0003230759D01*
G37*
G36*
X0000364212Y0003133425D02*
G01*
X0000281456Y0003133425D01*
X0000281456Y0003216181D01*
X0000364212Y0003216181D01*
X0000364212Y0003133425D01*
X0000364212Y0003133425D01*
G37*
G36*
X0000556692Y0003222057D02*
G01*
X0000557071Y0003221942D01*
X0000557420Y0003221756D01*
X0000557725Y0003221505D01*
X0000558127Y0003221015D01*
X0000558400Y0003220607D01*
X0000559082Y0003219925D01*
X0000559885Y0003219389D01*
X0000560776Y0003219020D01*
X0000561722Y0003218831D01*
X0000562687Y0003218831D01*
X0000563633Y0003219020D01*
X0000564524Y0003219389D01*
X0000565326Y0003219925D01*
X0000566009Y0003220607D01*
X0000566281Y0003221015D01*
X0000566683Y0003221505D01*
X0000566989Y0003221756D01*
X0000567338Y0003221942D01*
X0000567716Y0003222057D01*
X0000568351Y0003222120D01*
X0000587553Y0003222120D01*
X0000588275Y0003222049D01*
X0000588757Y0003222025D01*
X0000589483Y0003222025D01*
X0000590360Y0003221938D01*
X0000593670Y0003221280D01*
X0000594514Y0003221024D01*
X0000597632Y0003219733D01*
X0000597846Y0003219618D01*
X0000597846Y0003219618D01*
X0000598195Y0003219431D01*
X0000598195Y0003219431D01*
X0000598410Y0003219317D01*
X0000601216Y0003217442D01*
X0000601897Y0003216882D01*
X0000604284Y0003214496D01*
X0000604843Y0003213814D01*
X0000606718Y0003211008D01*
X0000606833Y0003210794D01*
X0000606833Y0003210794D01*
X0000607019Y0003210445D01*
X0000607020Y0003210445D01*
X0000607134Y0003210230D01*
X0000608426Y0003207112D01*
X0000608682Y0003206269D01*
X0000609340Y0003202958D01*
X0000609426Y0003202081D01*
X0000609426Y0003201356D01*
X0000609450Y0003200873D01*
X0000609521Y0003200152D01*
X0000609521Y0003180950D01*
X0000609450Y0003180228D01*
X0000609426Y0003179746D01*
X0000609426Y0003179020D01*
X0000609340Y0003178143D01*
X0000608682Y0003174833D01*
X0000608426Y0003173989D01*
X0000607134Y0003170871D01*
X0000607020Y0003170657D01*
X0000607019Y0003170657D01*
X0000606833Y0003170308D01*
X0000606833Y0003170308D01*
X0000606718Y0003170093D01*
X0000604843Y0003167287D01*
X0000604284Y0003166606D01*
X0000601897Y0003164219D01*
X0000601216Y0003163660D01*
X0000598410Y0003161785D01*
X0000598195Y0003161670D01*
X0000598195Y0003161670D01*
X0000597846Y0003161483D01*
X0000597846Y0003161483D01*
X0000597632Y0003161369D01*
X0000594514Y0003160077D01*
X0000593670Y0003159821D01*
X0000590360Y0003159163D01*
X0000589483Y0003159077D01*
X0000588757Y0003159077D01*
X0000588275Y0003159053D01*
X0000587553Y0003158982D01*
X0000568351Y0003158982D01*
X0000567716Y0003159044D01*
X0000567338Y0003159159D01*
X0000566989Y0003159346D01*
X0000566683Y0003159596D01*
X0000566281Y0003160086D01*
X0000566008Y0003160495D01*
X0000565326Y0003161177D01*
X0000564524Y0003161713D01*
X0000563633Y0003162082D01*
X0000562686Y0003162270D01*
X0000561722Y0003162270D01*
X0000560775Y0003162082D01*
X0000559884Y0003161712D01*
X0000559082Y0003161176D01*
X0000558400Y0003160494D01*
X0000558127Y0003160086D01*
X0000557725Y0003159596D01*
X0000557420Y0003159346D01*
X0000557071Y0003159159D01*
X0000556692Y0003159044D01*
X0000556057Y0003158982D01*
X0000536855Y0003158982D01*
X0000536133Y0003159053D01*
X0000535651Y0003159077D01*
X0000534926Y0003159077D01*
X0000534049Y0003159163D01*
X0000530738Y0003159821D01*
X0000529895Y0003160077D01*
X0000526777Y0003161369D01*
X0000526562Y0003161483D01*
X0000526562Y0003161483D01*
X0000526213Y0003161670D01*
X0000526213Y0003161670D01*
X0000525999Y0003161785D01*
X0000523192Y0003163660D01*
X0000522511Y0003164219D01*
X0000520124Y0003166606D01*
X0000519565Y0003167287D01*
X0000517690Y0003170093D01*
X0000517576Y0003170308D01*
X0000517575Y0003170308D01*
X0000517389Y0003170657D01*
X0000517389Y0003170657D01*
X0000517274Y0003170871D01*
X0000515983Y0003173989D01*
X0000515727Y0003174833D01*
X0000515068Y0003178143D01*
X0000514982Y0003179020D01*
X0000514982Y0003179746D01*
X0000514958Y0003180228D01*
X0000514887Y0003180950D01*
X0000514887Y0003200152D01*
X0000514958Y0003200873D01*
X0000514982Y0003201356D01*
X0000514982Y0003202081D01*
X0000515068Y0003202958D01*
X0000515727Y0003206269D01*
X0000515983Y0003207112D01*
X0000517274Y0003210230D01*
X0000517389Y0003210445D01*
X0000517389Y0003210445D01*
X0000517575Y0003210794D01*
X0000517576Y0003210794D01*
X0000517690Y0003211008D01*
X0000519565Y0003213814D01*
X0000520124Y0003214496D01*
X0000522511Y0003216882D01*
X0000523192Y0003217442D01*
X0000525999Y0003219317D01*
X0000526213Y0003219431D01*
X0000526213Y0003219431D01*
X0000526562Y0003219618D01*
X0000526562Y0003219618D01*
X0000526777Y0003219733D01*
X0000529895Y0003221024D01*
X0000530738Y0003221280D01*
X0000534049Y0003221938D01*
X0000534926Y0003222025D01*
X0000535651Y0003222025D01*
X0000536133Y0003222049D01*
X0000536855Y0003222120D01*
X0000556057Y0003222120D01*
X0000556692Y0003222057D01*
X0000556692Y0003222057D01*
G37*
G36*
X0000716913Y0003219563D02*
G01*
X0000718250Y0003219157D01*
X0000719483Y0003218498D01*
X0000720564Y0003217611D01*
X0000721451Y0003216531D01*
X0000722110Y0003215297D01*
X0000722516Y0003213960D01*
X0000722677Y0003212327D01*
X0000722677Y0003188657D01*
X0000722516Y0003187023D01*
X0000722110Y0003185686D01*
X0000721451Y0003184453D01*
X0000720564Y0003183372D01*
X0000719483Y0003182485D01*
X0000718250Y0003181826D01*
X0000716913Y0003181420D01*
X0000715279Y0003181259D01*
X0000688657Y0003181259D01*
X0000687023Y0003181420D01*
X0000685686Y0003181826D01*
X0000684453Y0003182485D01*
X0000683372Y0003183372D01*
X0000682485Y0003184453D01*
X0000681826Y0003185686D01*
X0000681420Y0003187023D01*
X0000681259Y0003188657D01*
X0000681259Y0003212327D01*
X0000681420Y0003213960D01*
X0000681826Y0003215297D01*
X0000682485Y0003216531D01*
X0000683372Y0003217611D01*
X0000684453Y0003218498D01*
X0000685686Y0003219157D01*
X0000687023Y0003219563D01*
X0000688657Y0003219724D01*
X0000715279Y0003219724D01*
X0000716913Y0003219563D01*
X0000716913Y0003219563D01*
G37*
G36*
X0000716913Y0003281571D02*
G01*
X0000718250Y0003281165D01*
X0000719483Y0003280506D01*
X0000720564Y0003279619D01*
X0000721451Y0003278538D01*
X0000722110Y0003277305D01*
X0000722516Y0003275968D01*
X0000722677Y0003274335D01*
X0000722677Y0003250664D01*
X0000722516Y0003249031D01*
X0000722110Y0003247694D01*
X0000721451Y0003246461D01*
X0000720564Y0003245380D01*
X0000719483Y0003244493D01*
X0000718250Y0003243834D01*
X0000716913Y0003243428D01*
X0000715279Y0003243267D01*
X0000688657Y0003243267D01*
X0000687023Y0003243428D01*
X0000685686Y0003243834D01*
X0000684453Y0003244493D01*
X0000683372Y0003245380D01*
X0000682485Y0003246461D01*
X0000681826Y0003247694D01*
X0000681420Y0003249031D01*
X0000681259Y0003250664D01*
X0000681259Y0003274335D01*
X0000681420Y0003275968D01*
X0000681826Y0003277305D01*
X0000682485Y0003278538D01*
X0000683372Y0003279619D01*
X0000684453Y0003280506D01*
X0000685686Y0003281165D01*
X0000687023Y0003281571D01*
X0000688657Y0003281732D01*
X0000715279Y0003281732D01*
X0000716913Y0003281571D01*
X0000716913Y0003281571D01*
G37*
G36*
X0000364212Y0003261771D02*
G01*
X0000281456Y0003261771D01*
X0000281456Y0003344527D01*
X0000364212Y0003344527D01*
X0000364212Y0003261771D01*
X0000364212Y0003261771D01*
G37*
G36*
X0000838566Y0003322713D02*
G01*
X0000839904Y0003322307D01*
X0000841137Y0003321648D01*
X0000842218Y0003320761D01*
X0000843104Y0003319680D01*
X0000843764Y0003318447D01*
X0000844169Y0003317109D01*
X0000844330Y0003315476D01*
X0000844330Y0003291806D01*
X0000844169Y0003290173D01*
X0000843764Y0003288835D01*
X0000843104Y0003287602D01*
X0000842218Y0003286522D01*
X0000841137Y0003285635D01*
X0000839904Y0003284976D01*
X0000838566Y0003284570D01*
X0000836933Y0003284409D01*
X0000810310Y0003284409D01*
X0000808677Y0003284570D01*
X0000807339Y0003284976D01*
X0000806106Y0003285635D01*
X0000805026Y0003286522D01*
X0000804139Y0003287602D01*
X0000803480Y0003288835D01*
X0000803074Y0003290173D01*
X0000802913Y0003291806D01*
X0000802913Y0003315476D01*
X0000803074Y0003317109D01*
X0000803480Y0003318447D01*
X0000804139Y0003319680D01*
X0000805026Y0003320761D01*
X0000806106Y0003321648D01*
X0000807339Y0003322307D01*
X0000808677Y0003322713D01*
X0000810310Y0003322874D01*
X0000836933Y0003322874D01*
X0000838566Y0003322713D01*
X0000838566Y0003322713D01*
G37*
G36*
X0000838566Y0003384721D02*
G01*
X0000839904Y0003384315D01*
X0000841137Y0003383656D01*
X0000842218Y0003382769D01*
X0000843104Y0003381688D01*
X0000843764Y0003380455D01*
X0000844169Y0003379117D01*
X0000844330Y0003377484D01*
X0000844330Y0003353814D01*
X0000844169Y0003352181D01*
X0000843764Y0003350843D01*
X0000843104Y0003349610D01*
X0000842218Y0003348529D01*
X0000841137Y0003347643D01*
X0000839904Y0003346983D01*
X0000838566Y0003346578D01*
X0000836933Y0003346417D01*
X0000810310Y0003346417D01*
X0000808677Y0003346578D01*
X0000807339Y0003346983D01*
X0000806106Y0003347643D01*
X0000805026Y0003348529D01*
X0000804139Y0003349610D01*
X0000803480Y0003350843D01*
X0000803074Y0003352181D01*
X0000802913Y0003353814D01*
X0000802913Y0003377484D01*
X0000803074Y0003379117D01*
X0000803480Y0003380455D01*
X0000804139Y0003381688D01*
X0000805026Y0003382769D01*
X0000806106Y0003383656D01*
X0000807339Y0003384315D01*
X0000808677Y0003384721D01*
X0000810310Y0003384881D01*
X0000836933Y0003384881D01*
X0000838566Y0003384721D01*
X0000838566Y0003384721D01*
G37*
G04 next file*
G04 #@! TF.GenerationSoftware,KiCad,Pcbnew,(5.1.0)-1*
G04 #@! TF.CreationDate,2019-07-24T00:39:13-06:00*
G04 #@! TF.ProjectId,twinkletwinkie,7477696e-6b6c-4657-9477-696e6b69652e,rev?*
G04 #@! TF.SameCoordinates,PX89e92d0PY44794c0*
G04 #@! TF.FileFunction,Soldermask,Bot*
G04 #@! TF.FilePolarity,Negative*
G04 Gerber Fmt 4.6, Leading zero omitted, Abs format (unit mm)*
G04 Created by KiCad (PCBNEW (5.1.0)-1) date 2019-07-24 00:39:13*
G04 APERTURE LIST*
G04 APERTURE END LIST*
D21*
G36*
X0001286784Y0001478307D02*
G01*
X0001204028Y0001478307D01*
X0001204028Y0001561062D01*
X0001286784Y0001561062D01*
X0001286784Y0001478307D01*
X0001286784Y0001478307D01*
G37*
G36*
X0001440546Y0001512559D02*
G01*
X0001357790Y0001512559D01*
X0001357790Y0001595314D01*
X0001440546Y0001595314D01*
X0001440546Y0001512559D01*
X0001440546Y0001512559D01*
G37*
G36*
X0001594308Y0001531062D02*
G01*
X0001511552Y0001531062D01*
X0001511552Y0001613818D01*
X0001594308Y0001613818D01*
X0001594308Y0001531062D01*
X0001594308Y0001531062D01*
G37*
G36*
X0001748070Y0001558228D02*
G01*
X0001665314Y0001558228D01*
X0001665314Y0001640984D01*
X0001748070Y0001640984D01*
X0001748070Y0001558228D01*
X0001748070Y0001558228D01*
G37*
G36*
X0000961115Y0001744668D02*
G01*
X0000961115Y0001744668D01*
X0000978821Y0001703605D01*
X0000979288Y0001702761D01*
X0000979911Y0001702024D01*
X0000980665Y0001701423D01*
X0000981117Y0001701163D01*
X0001010629Y0001686220D01*
X0001010400Y0001686039D01*
X0000987639Y0001668050D01*
X0000986945Y0001667381D01*
X0000986394Y0001666589D01*
X0000986009Y0001665704D01*
X0000985865Y0001665155D01*
X0000983114Y0001651398D01*
X0000983018Y0001650438D01*
X0000983112Y0001649477D01*
X0000983391Y0001648554D01*
X0000983845Y0001647703D01*
X0000984456Y0001646956D01*
X0000985201Y0001646344D01*
X0000986051Y0001645888D01*
X0000986974Y0001645607D01*
X0000987939Y0001645511D01*
X0001008444Y0001645511D01*
X0001008444Y0001591496D01*
X0000969429Y0001591496D01*
X0000969429Y0001640027D01*
X0000969334Y0001640987D01*
X0000969054Y0001641910D01*
X0000968599Y0001642761D01*
X0000967987Y0001643507D01*
X0000967242Y0001644119D01*
X0000966391Y0001644573D01*
X0000965467Y0001644853D01*
X0000964507Y0001644948D01*
X0000964196Y0001644914D01*
X0000963857Y0001644907D01*
X0000963779Y0001644881D01*
X0000952752Y0001647126D01*
X0000944347Y0001648837D01*
X0000943387Y0001648935D01*
X0000942427Y0001648845D01*
X0000941503Y0001648569D01*
X0000940650Y0001648118D01*
X0000939901Y0001647509D01*
X0000939286Y0001646766D01*
X0000938827Y0001645918D01*
X0000938543Y0001644996D01*
X0000938444Y0001644014D01*
X0000938444Y0001591496D01*
X0000899429Y0001591496D01*
X0000899429Y0001645511D01*
X0000915843Y0001645511D01*
X0000916804Y0001645606D01*
X0000917727Y0001645886D01*
X0000918578Y0001646341D01*
X0000919323Y0001646953D01*
X0000919935Y0001647698D01*
X0000920390Y0001648549D01*
X0000920670Y0001649472D01*
X0000920765Y0001650433D01*
X0000920670Y0001651393D01*
X0000920390Y0001652316D01*
X0000919935Y0001653167D01*
X0000919628Y0001653507D01*
X0000919654Y0001653527D01*
X0000919337Y0001653927D01*
X0000919291Y0001653937D01*
X0000903577Y0001679078D01*
X0000903508Y0001679186D01*
X0000898970Y0001686039D01*
X0000884251Y0001708267D01*
X0000930678Y0001715498D01*
X0000931612Y0001715739D01*
X0000932481Y0001716157D01*
X0000933424Y0001716904D01*
X0000939267Y0001722827D01*
X0000961023Y0001744881D01*
X0000961115Y0001744668D01*
X0000961115Y0001744668D01*
G37*
G36*
X0001146834Y0001639051D02*
G01*
X0001148172Y0001638645D01*
X0001149405Y0001637986D01*
X0001150485Y0001637099D01*
X0001151372Y0001636019D01*
X0001152031Y0001634786D01*
X0001152437Y0001633448D01*
X0001152598Y0001631815D01*
X0001152598Y0001605192D01*
X0001152437Y0001603559D01*
X0001152031Y0001602221D01*
X0001151372Y0001600988D01*
X0001150485Y0001599907D01*
X0001149405Y0001599021D01*
X0001148172Y0001598361D01*
X0001146834Y0001597956D01*
X0001145201Y0001597795D01*
X0001121531Y0001597795D01*
X0001119897Y0001597956D01*
X0001118560Y0001598361D01*
X0001117327Y0001599021D01*
X0001116246Y0001599907D01*
X0001115359Y0001600988D01*
X0001114700Y0001602221D01*
X0001114294Y0001603559D01*
X0001114133Y0001605192D01*
X0001114133Y0001631815D01*
X0001114294Y0001633448D01*
X0001114700Y0001634786D01*
X0001115359Y0001636019D01*
X0001116246Y0001637099D01*
X0001117327Y0001637986D01*
X0001118560Y0001638645D01*
X0001119897Y0001639051D01*
X0001121531Y0001639212D01*
X0001145201Y0001639212D01*
X0001146834Y0001639051D01*
X0001146834Y0001639051D01*
G37*
G36*
X0001084826Y0001639051D02*
G01*
X0001086164Y0001638645D01*
X0001087397Y0001637986D01*
X0001088477Y0001637099D01*
X0001089364Y0001636019D01*
X0001090023Y0001634786D01*
X0001090429Y0001633448D01*
X0001090590Y0001631815D01*
X0001090590Y0001605192D01*
X0001090429Y0001603559D01*
X0001090023Y0001602221D01*
X0001089364Y0001600988D01*
X0001088477Y0001599907D01*
X0001087397Y0001599021D01*
X0001086164Y0001598361D01*
X0001084826Y0001597956D01*
X0001083193Y0001597795D01*
X0001059523Y0001597795D01*
X0001057890Y0001597956D01*
X0001056552Y0001598361D01*
X0001055319Y0001599021D01*
X0001054238Y0001599907D01*
X0001053351Y0001600988D01*
X0001052692Y0001602221D01*
X0001052286Y0001603559D01*
X0001052125Y0001605192D01*
X0001052125Y0001631815D01*
X0001052286Y0001633448D01*
X0001052692Y0001634786D01*
X0001053351Y0001636019D01*
X0001054238Y0001637099D01*
X0001055319Y0001637986D01*
X0001056552Y0001638645D01*
X0001057890Y0001639051D01*
X0001059523Y0001639212D01*
X0001083193Y0001639212D01*
X0001084826Y0001639051D01*
X0001084826Y0001639051D01*
G37*
G36*
X0000487812Y0001683247D02*
G01*
X0000490418Y0001682990D01*
X0000497104Y0001680962D01*
X0000503267Y0001677668D01*
X0000504674Y0001676513D01*
X0000508668Y0001673235D01*
X0000511946Y0001669241D01*
X0000513101Y0001667834D01*
X0000516395Y0001661671D01*
X0000518423Y0001654985D01*
X0000519108Y0001648031D01*
X0000518423Y0001641077D01*
X0000516395Y0001634391D01*
X0000513101Y0001628228D01*
X0000511946Y0001626821D01*
X0000508668Y0001622827D01*
X0000504674Y0001619549D01*
X0000503267Y0001618394D01*
X0000497104Y0001615100D01*
X0000490418Y0001613072D01*
X0000487812Y0001612815D01*
X0000485207Y0001612559D01*
X0000481722Y0001612559D01*
X0000479116Y0001612815D01*
X0000476510Y0001613072D01*
X0000469824Y0001615100D01*
X0000463661Y0001618394D01*
X0000462254Y0001619549D01*
X0000458260Y0001622827D01*
X0000454982Y0001626821D01*
X0000453827Y0001628228D01*
X0000450533Y0001634391D01*
X0000448505Y0001641077D01*
X0000447820Y0001648031D01*
X0000448505Y0001654985D01*
X0000450533Y0001661671D01*
X0000453827Y0001667834D01*
X0000454982Y0001669241D01*
X0000458260Y0001673235D01*
X0000462254Y0001676513D01*
X0000463661Y0001677668D01*
X0000469824Y0001680962D01*
X0000476510Y0001682990D01*
X0000479116Y0001683247D01*
X0000481722Y0001683503D01*
X0000485207Y0001683503D01*
X0000487812Y0001683247D01*
X0000487812Y0001683247D01*
G37*
G36*
X0000387812Y0001683247D02*
G01*
X0000390418Y0001682990D01*
X0000397104Y0001680962D01*
X0000403267Y0001677668D01*
X0000404674Y0001676513D01*
X0000408668Y0001673235D01*
X0000411946Y0001669241D01*
X0000413101Y0001667834D01*
X0000416395Y0001661671D01*
X0000418423Y0001654985D01*
X0000419108Y0001648031D01*
X0000418423Y0001641077D01*
X0000416395Y0001634391D01*
X0000413101Y0001628228D01*
X0000411946Y0001626821D01*
X0000408668Y0001622827D01*
X0000404674Y0001619549D01*
X0000403267Y0001618394D01*
X0000397104Y0001615100D01*
X0000390418Y0001613072D01*
X0000387812Y0001612815D01*
X0000385207Y0001612559D01*
X0000381722Y0001612559D01*
X0000379116Y0001612815D01*
X0000376510Y0001613072D01*
X0000369824Y0001615100D01*
X0000363661Y0001618394D01*
X0000362254Y0001619549D01*
X0000358260Y0001622827D01*
X0000354982Y0001626821D01*
X0000353827Y0001628228D01*
X0000350533Y0001634391D01*
X0000348505Y0001641077D01*
X0000347820Y0001648031D01*
X0000348505Y0001654985D01*
X0000350533Y0001661671D01*
X0000353827Y0001667834D01*
X0000354982Y0001669241D01*
X0000358260Y0001673235D01*
X0000362254Y0001676513D01*
X0000363661Y0001677668D01*
X0000369824Y0001680962D01*
X0000376510Y0001682990D01*
X0000379116Y0001683247D01*
X0000381722Y0001683503D01*
X0000385207Y0001683503D01*
X0000387812Y0001683247D01*
X0000387812Y0001683247D01*
G37*
G36*
X0000287812Y0001683247D02*
G01*
X0000290418Y0001682990D01*
X0000297104Y0001680962D01*
X0000303267Y0001677668D01*
X0000304674Y0001676513D01*
X0000308668Y0001673235D01*
X0000311946Y0001669241D01*
X0000313101Y0001667834D01*
X0000316395Y0001661671D01*
X0000318423Y0001654985D01*
X0000319108Y0001648031D01*
X0000318423Y0001641077D01*
X0000316395Y0001634391D01*
X0000313101Y0001628228D01*
X0000311946Y0001626821D01*
X0000308668Y0001622827D01*
X0000304674Y0001619549D01*
X0000303267Y0001618394D01*
X0000297104Y0001615100D01*
X0000290418Y0001613072D01*
X0000287812Y0001612815D01*
X0000285207Y0001612559D01*
X0000281722Y0001612559D01*
X0000279116Y0001612815D01*
X0000276510Y0001613072D01*
X0000269824Y0001615100D01*
X0000263661Y0001618394D01*
X0000262254Y0001619549D01*
X0000258260Y0001622827D01*
X0000254982Y0001626821D01*
X0000253827Y0001628228D01*
X0000250533Y0001634391D01*
X0000248505Y0001641077D01*
X0000247820Y0001648031D01*
X0000248505Y0001654985D01*
X0000250533Y0001661671D01*
X0000253827Y0001667834D01*
X0000254982Y0001669241D01*
X0000258260Y0001673235D01*
X0000262254Y0001676513D01*
X0000263661Y0001677668D01*
X0000269824Y0001680962D01*
X0000276510Y0001682990D01*
X0000279116Y0001683247D01*
X0000281722Y0001683503D01*
X0000285207Y0001683503D01*
X0000287812Y0001683247D01*
X0000287812Y0001683247D01*
G37*
G36*
X0001823777Y0001839339D02*
G01*
X0001824926Y0001838974D01*
X0001866455Y0001831212D01*
X0001864715Y0001821208D01*
X0001860461Y0001796749D01*
X0001860156Y0001794991D01*
X0001859990Y0001794751D01*
X0001846120Y0001774717D01*
X0001846120Y0001774717D01*
X0001845982Y0001774519D01*
X0001838910Y0001771285D01*
X0001832366Y0001768294D01*
X0001831532Y0001767809D01*
X0001830809Y0001767170D01*
X0001830225Y0001766403D01*
X0001829801Y0001765536D01*
X0001829554Y0001764604D01*
X0001829494Y0001763641D01*
X0001829623Y0001762685D01*
X0001829937Y0001761772D01*
X0001830422Y0001760938D01*
X0001831060Y0001760215D01*
X0001831828Y0001759631D01*
X0001832694Y0001759207D01*
X0001833627Y0001758960D01*
X0001834412Y0001758897D01*
X0001867106Y0001758897D01*
X0001867106Y0001704881D01*
X0001828090Y0001704881D01*
X0001828090Y0001758678D01*
X0001827995Y0001759639D01*
X0001827715Y0001760562D01*
X0001827261Y0001761413D01*
X0001826649Y0001762158D01*
X0001825903Y0001762770D01*
X0001825052Y0001763225D01*
X0001824129Y0001763505D01*
X0001823169Y0001763600D01*
X0001822209Y0001763505D01*
X0001821123Y0001763154D01*
X0001805143Y0001755849D01*
X0001804644Y0001755621D01*
X0001804253Y0001755771D01*
X0001803790Y0001755949D01*
X0001802859Y0001756204D01*
X0001801897Y0001756273D01*
X0001800940Y0001756154D01*
X0001800024Y0001755849D01*
X0001799186Y0001755372D01*
X0001798457Y0001754741D01*
X0001797864Y0001753979D01*
X0001797432Y0001753117D01*
X0001797177Y0001752186D01*
X0001797106Y0001751354D01*
X0001797106Y0001704881D01*
X0001758090Y0001704881D01*
X0001758090Y0001758897D01*
X0001769538Y0001758897D01*
X0001770498Y0001758992D01*
X0001771421Y0001759272D01*
X0001772272Y0001759727D01*
X0001773018Y0001760339D01*
X0001773630Y0001761084D01*
X0001774084Y0001761935D01*
X0001774364Y0001762858D01*
X0001774459Y0001763818D01*
X0001774364Y0001764778D01*
X0001774084Y0001765702D01*
X0001773630Y0001766552D01*
X0001773018Y0001767298D01*
X0001772272Y0001767910D01*
X0001771301Y0001768413D01*
X0001742271Y0001779550D01*
X0001742271Y0001779550D01*
X0001742045Y0001779637D01*
X0001773894Y0001814172D01*
X0001774476Y0001814941D01*
X0001775035Y0001816251D01*
X0001776327Y0001821143D01*
X0001785746Y0001856802D01*
X0001823777Y0001839339D01*
X0001823777Y0001839339D01*
G37*
G36*
X0002015338Y0001752437D02*
G01*
X0002016675Y0001752031D01*
X0002017909Y0001751372D01*
X0002018989Y0001750485D01*
X0002019876Y0001749405D01*
X0002020535Y0001748172D01*
X0002020941Y0001746834D01*
X0002021102Y0001745201D01*
X0002021102Y0001718578D01*
X0002020941Y0001716945D01*
X0002020535Y0001715607D01*
X0002019876Y0001714374D01*
X0002018989Y0001713293D01*
X0002017909Y0001712406D01*
X0002016675Y0001711747D01*
X0002015338Y0001711341D01*
X0002013705Y0001711181D01*
X0001990035Y0001711181D01*
X0001988401Y0001711341D01*
X0001987064Y0001711747D01*
X0001985831Y0001712406D01*
X0001984750Y0001713293D01*
X0001983863Y0001714374D01*
X0001983204Y0001715607D01*
X0001982798Y0001716945D01*
X0001982637Y0001718578D01*
X0001982637Y0001745201D01*
X0001982798Y0001746834D01*
X0001983204Y0001748172D01*
X0001983863Y0001749405D01*
X0001984750Y0001750485D01*
X0001985831Y0001751372D01*
X0001987064Y0001752031D01*
X0001988401Y0001752437D01*
X0001990035Y0001752598D01*
X0002013705Y0001752598D01*
X0002015338Y0001752437D01*
X0002015338Y0001752437D01*
G37*
G36*
X0001953330Y0001752437D02*
G01*
X0001954668Y0001752031D01*
X0001955901Y0001751372D01*
X0001956981Y0001750485D01*
X0001957868Y0001749405D01*
X0001958527Y0001748172D01*
X0001958933Y0001746834D01*
X0001959094Y0001745201D01*
X0001959094Y0001718578D01*
X0001958933Y0001716945D01*
X0001958527Y0001715607D01*
X0001957868Y0001714374D01*
X0001956981Y0001713293D01*
X0001955901Y0001712406D01*
X0001954668Y0001711747D01*
X0001953330Y0001711341D01*
X0001951697Y0001711181D01*
X0001928027Y0001711181D01*
X0001926394Y0001711341D01*
X0001925056Y0001711747D01*
X0001923823Y0001712406D01*
X0001922742Y0001713293D01*
X0001921855Y0001714374D01*
X0001921196Y0001715607D01*
X0001920790Y0001716945D01*
X0001920629Y0001718578D01*
X0001920629Y0001745201D01*
X0001920790Y0001746834D01*
X0001921196Y0001748172D01*
X0001921855Y0001749405D01*
X0001922742Y0001750485D01*
X0001923823Y0001751372D01*
X0001925056Y0001752031D01*
X0001926394Y0001752437D01*
X0001928027Y0001752598D01*
X0001951697Y0001752598D01*
X0001953330Y0001752437D01*
X0001953330Y0001752437D01*
G37*
G36*
X0000487933Y0001783309D02*
G01*
X0000493811Y0001782140D01*
X0000500267Y0001779466D01*
X0000506076Y0001775584D01*
X0000511017Y0001770643D01*
X0000514899Y0001764834D01*
X0000517573Y0001758378D01*
X0000518937Y0001751525D01*
X0000518937Y0001744537D01*
X0000517573Y0001737684D01*
X0000514899Y0001731228D01*
X0000511017Y0001725419D01*
X0000506076Y0001720478D01*
X0000500267Y0001716596D01*
X0000493811Y0001713922D01*
X0000488178Y0001712801D01*
X0000486958Y0001712559D01*
X0000479970Y0001712559D01*
X0000478750Y0001712801D01*
X0000473117Y0001713922D01*
X0000466662Y0001716596D01*
X0000460852Y0001720478D01*
X0000455911Y0001725419D01*
X0000452029Y0001731228D01*
X0000449355Y0001737684D01*
X0000447992Y0001744537D01*
X0000447992Y0001751525D01*
X0000449355Y0001758378D01*
X0000452029Y0001764834D01*
X0000455911Y0001770643D01*
X0000460852Y0001775584D01*
X0000466662Y0001779466D01*
X0000473117Y0001782140D01*
X0000478995Y0001783309D01*
X0000479970Y0001783503D01*
X0000486958Y0001783503D01*
X0000487933Y0001783309D01*
X0000487933Y0001783309D01*
G37*
G36*
X0000387933Y0001783309D02*
G01*
X0000393811Y0001782140D01*
X0000400267Y0001779466D01*
X0000406076Y0001775584D01*
X0000411017Y0001770643D01*
X0000414899Y0001764834D01*
X0000417573Y0001758378D01*
X0000418936Y0001751525D01*
X0000418936Y0001744537D01*
X0000417573Y0001737684D01*
X0000414899Y0001731228D01*
X0000411017Y0001725419D01*
X0000406076Y0001720478D01*
X0000400267Y0001716596D01*
X0000393811Y0001713922D01*
X0000388178Y0001712801D01*
X0000386958Y0001712559D01*
X0000379970Y0001712559D01*
X0000378750Y0001712801D01*
X0000373117Y0001713922D01*
X0000366662Y0001716596D01*
X0000360852Y0001720478D01*
X0000355911Y0001725419D01*
X0000352029Y0001731228D01*
X0000349355Y0001737684D01*
X0000347992Y0001744537D01*
X0000347992Y0001751525D01*
X0000349355Y0001758378D01*
X0000352029Y0001764834D01*
X0000355911Y0001770643D01*
X0000360852Y0001775584D01*
X0000366662Y0001779466D01*
X0000373117Y0001782140D01*
X0000378995Y0001783309D01*
X0000379970Y0001783503D01*
X0000386958Y0001783503D01*
X0000387933Y0001783309D01*
X0000387933Y0001783309D01*
G37*
G36*
X0000287812Y0001783247D02*
G01*
X0000290418Y0001782990D01*
X0000297104Y0001780962D01*
X0000297105Y0001780962D01*
X0000299584Y0001779637D01*
X0000303267Y0001777668D01*
X0000304674Y0001776513D01*
X0000308668Y0001773235D01*
X0000311946Y0001769241D01*
X0000313101Y0001767834D01*
X0000316395Y0001761671D01*
X0000318423Y0001754985D01*
X0000319108Y0001748031D01*
X0000318423Y0001741077D01*
X0000316395Y0001734391D01*
X0000313101Y0001728228D01*
X0000312903Y0001727987D01*
X0000308668Y0001722827D01*
X0000305806Y0001720478D01*
X0000303267Y0001718394D01*
X0000303267Y0001718394D01*
X0000298316Y0001715748D01*
X0000297104Y0001715100D01*
X0000290418Y0001713072D01*
X0000287812Y0001712815D01*
X0000285207Y0001712559D01*
X0000281722Y0001712559D01*
X0000279116Y0001712815D01*
X0000276510Y0001713072D01*
X0000269824Y0001715100D01*
X0000268613Y0001715748D01*
X0000263661Y0001718394D01*
X0000263661Y0001718394D01*
X0000261122Y0001720478D01*
X0000258260Y0001722827D01*
X0000254025Y0001727987D01*
X0000253827Y0001728228D01*
X0000250533Y0001734391D01*
X0000248505Y0001741077D01*
X0000247820Y0001748031D01*
X0000248505Y0001754985D01*
X0000250533Y0001761671D01*
X0000253827Y0001767834D01*
X0000254982Y0001769241D01*
X0000258260Y0001773235D01*
X0000262254Y0001776513D01*
X0000263661Y0001777668D01*
X0000267345Y0001779637D01*
X0000269824Y0001780962D01*
X0000269824Y0001780962D01*
X0000276510Y0001782990D01*
X0000279116Y0001783247D01*
X0000281722Y0001783503D01*
X0000285207Y0001783503D01*
X0000287812Y0001783247D01*
X0000287812Y0001783247D01*
G37*
G36*
X0000711417Y0001786230D02*
G01*
X0000711795Y0001786116D01*
X0000712144Y0001785929D01*
X0000712450Y0001785678D01*
X0000712852Y0001785188D01*
X0000713125Y0001784780D01*
X0000713807Y0001784098D01*
X0000714609Y0001783562D01*
X0000715500Y0001783193D01*
X0000716446Y0001783005D01*
X0000717411Y0001783005D01*
X0000718357Y0001783193D01*
X0000719249Y0001783562D01*
X0000720051Y0001784098D01*
X0000720733Y0001784780D01*
X0000721006Y0001785189D01*
X0000721407Y0001785678D01*
X0000721713Y0001785929D01*
X0000722062Y0001786116D01*
X0000722440Y0001786230D01*
X0000723076Y0001786293D01*
X0000742277Y0001786293D01*
X0000742999Y0001786222D01*
X0000743482Y0001786198D01*
X0000744207Y0001786198D01*
X0000745084Y0001786112D01*
X0000748394Y0001785453D01*
X0000749238Y0001785197D01*
X0000752356Y0001783906D01*
X0000752570Y0001783791D01*
X0000752571Y0001783791D01*
X0000752920Y0001783605D01*
X0000752920Y0001783605D01*
X0000753134Y0001783490D01*
X0000755940Y0001781615D01*
X0000756622Y0001781056D01*
X0000759008Y0001778669D01*
X0000759568Y0001777988D01*
X0000761443Y0001775181D01*
X0000761557Y0001774967D01*
X0000761557Y0001774967D01*
X0000761744Y0001774618D01*
X0000761744Y0001774618D01*
X0000761859Y0001774403D01*
X0000763150Y0001771285D01*
X0000763406Y0001770442D01*
X0000764064Y0001767131D01*
X0000764151Y0001766254D01*
X0000764151Y0001765529D01*
X0000764175Y0001765047D01*
X0000764246Y0001764325D01*
X0000764246Y0001745123D01*
X0000764175Y0001744401D01*
X0000764151Y0001743919D01*
X0000764151Y0001743194D01*
X0000764064Y0001742316D01*
X0000763406Y0001739006D01*
X0000763150Y0001738162D01*
X0000761859Y0001735044D01*
X0000761744Y0001734830D01*
X0000761744Y0001734830D01*
X0000761557Y0001734481D01*
X0000761557Y0001734481D01*
X0000761443Y0001734267D01*
X0000759568Y0001731460D01*
X0000759008Y0001730779D01*
X0000756622Y0001728392D01*
X0000755940Y0001727833D01*
X0000753134Y0001725958D01*
X0000752920Y0001725843D01*
X0000752920Y0001725843D01*
X0000752571Y0001725657D01*
X0000752570Y0001725657D01*
X0000752356Y0001725542D01*
X0000749238Y0001724250D01*
X0000748394Y0001723995D01*
X0000745084Y0001723336D01*
X0000744207Y0001723250D01*
X0000743482Y0001723250D01*
X0000742999Y0001723226D01*
X0000742278Y0001723155D01*
X0000723076Y0001723155D01*
X0000722440Y0001723217D01*
X0000722062Y0001723332D01*
X0000721713Y0001723519D01*
X0000721407Y0001723770D01*
X0000721005Y0001724260D01*
X0000720733Y0001724668D01*
X0000720050Y0001725350D01*
X0000719248Y0001725886D01*
X0000718357Y0001726255D01*
X0000717411Y0001726443D01*
X0000716446Y0001726443D01*
X0000715500Y0001726255D01*
X0000714609Y0001725886D01*
X0000713807Y0001725350D01*
X0000713124Y0001724668D01*
X0000712852Y0001724259D01*
X0000712450Y0001723770D01*
X0000712144Y0001723519D01*
X0000711795Y0001723332D01*
X0000711417Y0001723217D01*
X0000710781Y0001723155D01*
X0000691580Y0001723155D01*
X0000690858Y0001723226D01*
X0000690375Y0001723250D01*
X0000689650Y0001723250D01*
X0000688773Y0001723336D01*
X0000685463Y0001723995D01*
X0000684619Y0001724250D01*
X0000681501Y0001725542D01*
X0000681287Y0001725657D01*
X0000681287Y0001725657D01*
X0000680938Y0001725843D01*
X0000680938Y0001725843D01*
X0000680723Y0001725958D01*
X0000677917Y0001727833D01*
X0000677236Y0001728392D01*
X0000674849Y0001730779D01*
X0000674290Y0001731460D01*
X0000672414Y0001734267D01*
X0000672300Y0001734481D01*
X0000672300Y0001734481D01*
X0000672113Y0001734830D01*
X0000672113Y0001734830D01*
X0000671999Y0001735044D01*
X0000670707Y0001738162D01*
X0000670451Y0001739006D01*
X0000669793Y0001742316D01*
X0000669706Y0001743194D01*
X0000669706Y0001743919D01*
X0000669683Y0001744401D01*
X0000669612Y0001745123D01*
X0000669612Y0001764325D01*
X0000669683Y0001765047D01*
X0000669706Y0001765529D01*
X0000669706Y0001766254D01*
X0000669793Y0001767131D01*
X0000670451Y0001770442D01*
X0000670707Y0001771285D01*
X0000671999Y0001774403D01*
X0000672113Y0001774618D01*
X0000672113Y0001774618D01*
X0000672300Y0001774967D01*
X0000672300Y0001774967D01*
X0000672414Y0001775181D01*
X0000674290Y0001777988D01*
X0000674849Y0001778669D01*
X0000677236Y0001781056D01*
X0000677917Y0001781615D01*
X0000680723Y0001783490D01*
X0000680938Y0001783605D01*
X0000680938Y0001783605D01*
X0000681287Y0001783791D01*
X0000681287Y0001783791D01*
X0000681501Y0001783906D01*
X0000684619Y0001785197D01*
X0000685463Y0001785453D01*
X0000688773Y0001786112D01*
X0000689650Y0001786198D01*
X0000690375Y0001786198D01*
X0000690858Y0001786222D01*
X0000691580Y0001786293D01*
X0000710781Y0001786293D01*
X0000711417Y0001786230D01*
X0000711417Y0001786230D01*
G37*
G36*
X0002139599Y0001904555D02*
G01*
X0002139599Y0001904555D01*
X0002146883Y0001899202D01*
X0002166990Y0001884424D01*
X0002171385Y0001881195D01*
X0002172214Y0001880702D01*
X0002172831Y0001880463D01*
X0002215815Y0001867031D01*
X0002216141Y0001866929D01*
X0002205919Y0001850957D01*
X0002197244Y0001837401D01*
X0002197242Y0001837399D01*
X0002182854Y0001814894D01*
X0002182417Y0001814035D01*
X0002182155Y0001813106D01*
X0002182080Y0001812144D01*
X0002182194Y0001811186D01*
X0002182493Y0001810269D01*
X0002182965Y0001809427D01*
X0002183592Y0001808694D01*
X0002184349Y0001808097D01*
X0002185209Y0001807660D01*
X0002186138Y0001807398D01*
X0002187000Y0001807322D01*
X0002211988Y0001807322D01*
X0002211988Y0001753307D01*
X0002172972Y0001753307D01*
X0002172972Y0001805283D01*
X0002172877Y0001806244D01*
X0002172597Y0001807167D01*
X0002172143Y0001808018D01*
X0002171531Y0001808763D01*
X0002170785Y0001809375D01*
X0002169934Y0001809830D01*
X0002169011Y0001810110D01*
X0002168051Y0001810205D01*
X0002166988Y0001810089D01*
X0002156178Y0001807697D01*
X0002145846Y0001805411D01*
X0002144929Y0001805111D01*
X0002144088Y0001804639D01*
X0002143355Y0001804011D01*
X0002142760Y0001803252D01*
X0002142323Y0001802392D01*
X0002142063Y0001801463D01*
X0002141988Y0001800606D01*
X0002141988Y0001753307D01*
X0002102972Y0001753307D01*
X0002102972Y0001807322D01*
X0002118717Y0001807322D01*
X0002119677Y0001807417D01*
X0002120600Y0001807697D01*
X0002121451Y0001808152D01*
X0002122197Y0001808764D01*
X0002122809Y0001809509D01*
X0002123264Y0001810360D01*
X0002123544Y0001811283D01*
X0002123638Y0001812244D01*
X0002123544Y0001813204D01*
X0002123264Y0001814127D01*
X0002122809Y0001814978D01*
X0002122197Y0001815723D01*
X0002121800Y0001816080D01*
X0002121586Y0001816251D01*
X0002115498Y0001821144D01*
X0002115202Y0001821364D01*
X0002082677Y0001843700D01*
X0002082934Y0001843851D01*
X0002122220Y0001866894D01*
X0002123000Y0001867461D01*
X0002123654Y0001868170D01*
X0002124258Y0001869212D01*
X0002139275Y0001904501D01*
X0002139275Y0001904502D01*
X0002139370Y0001904724D01*
X0002139599Y0001904555D01*
X0002139599Y0001904555D01*
G37*
G36*
X0002364550Y0001800862D02*
G01*
X0002365888Y0001800456D01*
X0002367121Y0001799797D01*
X0002368202Y0001798910D01*
X0002369089Y0001797830D01*
X0002369748Y0001796597D01*
X0002370154Y0001795259D01*
X0002370314Y0001793626D01*
X0002370314Y0001767003D01*
X0002370154Y0001765370D01*
X0002369748Y0001764032D01*
X0002369089Y0001762799D01*
X0002368202Y0001761718D01*
X0002367121Y0001760832D01*
X0002365888Y0001760172D01*
X0002364550Y0001759767D01*
X0002362917Y0001759606D01*
X0002339247Y0001759606D01*
X0002337614Y0001759767D01*
X0002336276Y0001760172D01*
X0002335043Y0001760832D01*
X0002333963Y0001761718D01*
X0002333076Y0001762799D01*
X0002332417Y0001764032D01*
X0002332011Y0001765370D01*
X0002331850Y0001767003D01*
X0002331850Y0001793626D01*
X0002332011Y0001795259D01*
X0002332417Y0001796597D01*
X0002333076Y0001797830D01*
X0002333963Y0001798910D01*
X0002335043Y0001799797D01*
X0002336276Y0001800456D01*
X0002337614Y0001800862D01*
X0002339247Y0001801023D01*
X0002362917Y0001801023D01*
X0002364550Y0001800862D01*
X0002364550Y0001800862D01*
G37*
G36*
X0002302542Y0001800862D02*
G01*
X0002303880Y0001800456D01*
X0002305113Y0001799797D01*
X0002306194Y0001798910D01*
X0002307081Y0001797830D01*
X0002307740Y0001796597D01*
X0002308146Y0001795259D01*
X0002308307Y0001793626D01*
X0002308307Y0001767003D01*
X0002308146Y0001765370D01*
X0002307740Y0001764032D01*
X0002307081Y0001762799D01*
X0002306194Y0001761718D01*
X0002305113Y0001760832D01*
X0002303880Y0001760172D01*
X0002302542Y0001759767D01*
X0002300909Y0001759606D01*
X0002277239Y0001759606D01*
X0002275606Y0001759767D01*
X0002274268Y0001760172D01*
X0002273035Y0001760832D01*
X0002271955Y0001761718D01*
X0002271068Y0001762799D01*
X0002270409Y0001764032D01*
X0002270003Y0001765370D01*
X0002269842Y0001767003D01*
X0002269842Y0001793626D01*
X0002270003Y0001795259D01*
X0002270409Y0001796597D01*
X0002271068Y0001797830D01*
X0002271955Y0001798910D01*
X0002273035Y0001799797D01*
X0002274268Y0001800456D01*
X0002275606Y0001800862D01*
X0002277239Y0001801023D01*
X0002300909Y0001801023D01*
X0002302542Y0001800862D01*
X0002302542Y0001800862D01*
G37*
G36*
X0000858981Y0001970917D02*
G01*
X0000859005Y0001970915D01*
X0000859821Y0001970752D01*
X0000860545Y0001970452D01*
X0000860690Y0001970355D01*
X0000861541Y0001969900D01*
X0000862464Y0001969620D01*
X0000863424Y0001969526D01*
X0000864384Y0001969620D01*
X0000865307Y0001969900D01*
X0000866546Y0001970643D01*
X0000866736Y0001970799D01*
X0000866821Y0001970844D01*
X0000866912Y0001970872D01*
X0000867249Y0001970905D01*
X0000877632Y0001970905D01*
X0000877969Y0001970872D01*
X0000878132Y0001970822D01*
X0000878886Y0001970510D01*
X0000879832Y0001970322D01*
X0000880797Y0001970322D01*
X0000881743Y0001970510D01*
X0000882497Y0001970822D01*
X0000882660Y0001970872D01*
X0000882997Y0001970905D01*
X0000893380Y0001970905D01*
X0000893717Y0001970872D01*
X0000893880Y0001970822D01*
X0000894634Y0001970510D01*
X0000895580Y0001970322D01*
X0000896545Y0001970322D01*
X0000897491Y0001970510D01*
X0000898245Y0001970822D01*
X0000898408Y0001970872D01*
X0000898745Y0001970905D01*
X0000909128Y0001970905D01*
X0000909465Y0001970872D01*
X0000909556Y0001970844D01*
X0000909641Y0001970799D01*
X0000909831Y0001970643D01*
X0000910633Y0001970107D01*
X0000911524Y0001969738D01*
X0000912471Y0001969550D01*
X0000913435Y0001969550D01*
X0000914381Y0001969738D01*
X0000915687Y0001970355D01*
X0000915832Y0001970452D01*
X0000916556Y0001970752D01*
X0000917372Y0001970915D01*
X0000917396Y0001970917D01*
X0000917837Y0001970939D01*
X0000921532Y0001970939D01*
X0000921973Y0001970917D01*
X0000921997Y0001970915D01*
X0000922813Y0001970752D01*
X0000923537Y0001970452D01*
X0000924188Y0001970017D01*
X0000924742Y0001969464D01*
X0000925177Y0001968812D01*
X0000925477Y0001968088D01*
X0000925639Y0001967272D01*
X0000925641Y0001967249D01*
X0000925663Y0001966808D01*
X0000925663Y0001941487D01*
X0000925641Y0001941046D01*
X0000925639Y0001941022D01*
X0000925477Y0001940206D01*
X0000925176Y0001939479D01*
X0000924896Y0001938556D01*
X0000924801Y0001937596D01*
X0000924896Y0001936636D01*
X0000925176Y0001935713D01*
X0000925630Y0001934862D01*
X0000926242Y0001934116D01*
X0000926988Y0001933504D01*
X0000927839Y0001933050D01*
X0000928762Y0001932770D01*
X0000929722Y0001932675D01*
X0000930682Y0001932770D01*
X0000931605Y0001933050D01*
X0000932332Y0001933351D01*
X0000933148Y0001933513D01*
X0000933172Y0001933515D01*
X0000933613Y0001933537D01*
X0000958934Y0001933537D01*
X0000959375Y0001933515D01*
X0000959398Y0001933513D01*
X0000960214Y0001933351D01*
X0000960938Y0001933051D01*
X0000961590Y0001932616D01*
X0000962143Y0001932062D01*
X0000962578Y0001931411D01*
X0000962878Y0001930687D01*
X0000963041Y0001929871D01*
X0000963043Y0001929847D01*
X0000963065Y0001929407D01*
X0000963065Y0001925711D01*
X0000963043Y0001925270D01*
X0000963041Y0001925246D01*
X0000962878Y0001924430D01*
X0000962578Y0001923706D01*
X0000962481Y0001923561D01*
X0000962026Y0001922710D01*
X0000961746Y0001921787D01*
X0000961652Y0001920827D01*
X0000961746Y0001919867D01*
X0000962026Y0001918944D01*
X0000962769Y0001917705D01*
X0000962925Y0001917515D01*
X0000962970Y0001917430D01*
X0000962998Y0001917339D01*
X0000963031Y0001917002D01*
X0000963031Y0001906619D01*
X0000962998Y0001906282D01*
X0000962948Y0001906119D01*
X0000962636Y0001905365D01*
X0000962448Y0001904419D01*
X0000962448Y0001903454D01*
X0000962636Y0001902508D01*
X0000962948Y0001901754D01*
X0000962998Y0001901591D01*
X0000963031Y0001901254D01*
X0000963031Y0001890871D01*
X0000962998Y0001890534D01*
X0000962948Y0001890371D01*
X0000962636Y0001889617D01*
X0000962448Y0001888671D01*
X0000962448Y0001887706D01*
X0000962636Y0001886760D01*
X0000962948Y0001886006D01*
X0000962998Y0001885843D01*
X0000963031Y0001885506D01*
X0000963031Y0001875123D01*
X0000962998Y0001874786D01*
X0000962970Y0001874695D01*
X0000962925Y0001874610D01*
X0000962769Y0001874420D01*
X0000962233Y0001873618D01*
X0000961864Y0001872727D01*
X0000961676Y0001871780D01*
X0000961676Y0001870816D01*
X0000961864Y0001869870D01*
X0000962481Y0001868564D01*
X0000962578Y0001868419D01*
X0000962878Y0001867695D01*
X0000963041Y0001866879D01*
X0000963043Y0001866855D01*
X0000963065Y0001866414D01*
X0000963065Y0001862718D01*
X0000963043Y0001862278D01*
X0000963041Y0001862254D01*
X0000962878Y0001861438D01*
X0000962578Y0001860714D01*
X0000962143Y0001860063D01*
X0000961590Y0001859509D01*
X0000960938Y0001859074D01*
X0000960214Y0001858774D01*
X0000959398Y0001858612D01*
X0000959375Y0001858610D01*
X0000958934Y0001858588D01*
X0000933613Y0001858588D01*
X0000933172Y0001858610D01*
X0000933148Y0001858612D01*
X0000932332Y0001858774D01*
X0000931605Y0001859075D01*
X0000930682Y0001859355D01*
X0000929722Y0001859450D01*
X0000928762Y0001859355D01*
X0000927839Y0001859075D01*
X0000926988Y0001858621D01*
X0000926242Y0001858008D01*
X0000925630Y0001857263D01*
X0000925176Y0001856412D01*
X0000924896Y0001855489D01*
X0000924801Y0001854529D01*
X0000924896Y0001853569D01*
X0000925176Y0001852646D01*
X0000925477Y0001851919D01*
X0000925639Y0001851103D01*
X0000925641Y0001851079D01*
X0000925663Y0001850638D01*
X0000925663Y0001825317D01*
X0000925641Y0001824876D01*
X0000925639Y0001824853D01*
X0000925477Y0001824037D01*
X0000925177Y0001823313D01*
X0000924742Y0001822661D01*
X0000924188Y0001822108D01*
X0000923537Y0001821673D01*
X0000922813Y0001821373D01*
X0000921997Y0001821210D01*
X0000921973Y0001821208D01*
X0000921532Y0001821186D01*
X0000917837Y0001821186D01*
X0000917396Y0001821208D01*
X0000917372Y0001821210D01*
X0000916556Y0001821373D01*
X0000915832Y0001821673D01*
X0000915687Y0001821770D01*
X0000914836Y0001822225D01*
X0000913913Y0001822505D01*
X0000912953Y0001822599D01*
X0000911993Y0001822505D01*
X0000911070Y0001822225D01*
X0000909831Y0001821482D01*
X0000909641Y0001821326D01*
X0000909556Y0001821281D01*
X0000909465Y0001821253D01*
X0000909128Y0001821220D01*
X0000898745Y0001821220D01*
X0000898408Y0001821253D01*
X0000898245Y0001821303D01*
X0000897491Y0001821615D01*
X0000896545Y0001821803D01*
X0000895580Y0001821803D01*
X0000894634Y0001821615D01*
X0000893880Y0001821303D01*
X0000893717Y0001821253D01*
X0000893380Y0001821220D01*
X0000882997Y0001821220D01*
X0000882660Y0001821253D01*
X0000882497Y0001821303D01*
X0000881743Y0001821615D01*
X0000880797Y0001821803D01*
X0000879832Y0001821803D01*
X0000878886Y0001821615D01*
X0000878132Y0001821303D01*
X0000877969Y0001821253D01*
X0000877632Y0001821220D01*
X0000867249Y0001821220D01*
X0000866912Y0001821253D01*
X0000866821Y0001821281D01*
X0000866736Y0001821326D01*
X0000866546Y0001821482D01*
X0000865744Y0001822018D01*
X0000864853Y0001822387D01*
X0000863906Y0001822575D01*
X0000862942Y0001822575D01*
X0000861995Y0001822387D01*
X0000860690Y0001821770D01*
X0000860545Y0001821673D01*
X0000859821Y0001821373D01*
X0000859005Y0001821210D01*
X0000858981Y0001821208D01*
X0000858540Y0001821186D01*
X0000854844Y0001821186D01*
X0000854404Y0001821208D01*
X0000854380Y0001821210D01*
X0000853564Y0001821373D01*
X0000852840Y0001821673D01*
X0000852189Y0001822108D01*
X0000851635Y0001822661D01*
X0000851200Y0001823313D01*
X0000850900Y0001824037D01*
X0000850738Y0001824853D01*
X0000850736Y0001824876D01*
X0000850714Y0001825317D01*
X0000850714Y0001850638D01*
X0000850736Y0001851079D01*
X0000850738Y0001851103D01*
X0000850900Y0001851919D01*
X0000851201Y0001852646D01*
X0000851481Y0001853569D01*
X0000851576Y0001854529D01*
X0000851481Y0001855489D01*
X0000851201Y0001856412D01*
X0000850747Y0001857263D01*
X0000850134Y0001858009D01*
X0000849389Y0001858621D01*
X0000848538Y0001859075D01*
X0000847615Y0001859355D01*
X0000846655Y0001859450D01*
X0000845695Y0001859355D01*
X0000844772Y0001859075D01*
X0000844045Y0001858774D01*
X0000843229Y0001858612D01*
X0000843205Y0001858610D01*
X0000842764Y0001858588D01*
X0000817443Y0001858588D01*
X0000817002Y0001858610D01*
X0000816979Y0001858612D01*
X0000816162Y0001858774D01*
X0000815439Y0001859074D01*
X0000814787Y0001859509D01*
X0000814234Y0001860063D01*
X0000813799Y0001860714D01*
X0000813499Y0001861438D01*
X0000813336Y0001862254D01*
X0000813334Y0001862278D01*
X0000813312Y0001862718D01*
X0000813312Y0001866414D01*
X0000813334Y0001866855D01*
X0000813336Y0001866879D01*
X0000813499Y0001867695D01*
X0000813799Y0001868419D01*
X0000813896Y0001868564D01*
X0000814351Y0001869415D01*
X0000814631Y0001870338D01*
X0000814725Y0001871298D01*
X0000814631Y0001872258D01*
X0000814351Y0001873181D01*
X0000813608Y0001874420D01*
X0000813452Y0001874610D01*
X0000813407Y0001874695D01*
X0000813379Y0001874786D01*
X0000813346Y0001875123D01*
X0000813346Y0001885506D01*
X0000813379Y0001885843D01*
X0000813429Y0001886006D01*
X0000813741Y0001886760D01*
X0000813929Y0001887706D01*
X0000813929Y0001888671D01*
X0000813741Y0001889617D01*
X0000813429Y0001890371D01*
X0000813379Y0001890534D01*
X0000813346Y0001890871D01*
X0000813346Y0001901254D01*
X0000813379Y0001901591D01*
X0000813429Y0001901754D01*
X0000813741Y0001902508D01*
X0000813929Y0001903454D01*
X0000813929Y0001904419D01*
X0000813741Y0001905365D01*
X0000813429Y0001906119D01*
X0000813379Y0001906282D01*
X0000813346Y0001906619D01*
X0000813346Y0001917002D01*
X0000813379Y0001917339D01*
X0000813407Y0001917430D01*
X0000813452Y0001917515D01*
X0000813608Y0001917705D01*
X0000814144Y0001918507D01*
X0000814513Y0001919398D01*
X0000814701Y0001920345D01*
X0000814701Y0001921309D01*
X0000814513Y0001922255D01*
X0000813896Y0001923561D01*
X0000813799Y0001923706D01*
X0000813499Y0001924430D01*
X0000813336Y0001925246D01*
X0000813334Y0001925270D01*
X0000813312Y0001925711D01*
X0000813312Y0001929407D01*
X0000813334Y0001929847D01*
X0000813336Y0001929871D01*
X0000813499Y0001930687D01*
X0000813799Y0001931411D01*
X0000814234Y0001932062D01*
X0000814787Y0001932616D01*
X0000815439Y0001933051D01*
X0000816162Y0001933351D01*
X0000816979Y0001933513D01*
X0000817002Y0001933515D01*
X0000817443Y0001933537D01*
X0000842764Y0001933537D01*
X0000843205Y0001933515D01*
X0000843229Y0001933513D01*
X0000844045Y0001933351D01*
X0000844772Y0001933050D01*
X0000845695Y0001932770D01*
X0000846655Y0001932675D01*
X0000847615Y0001932770D01*
X0000848538Y0001933050D01*
X0000849389Y0001933504D01*
X0000850135Y0001934117D01*
X0000850747Y0001934862D01*
X0000851201Y0001935713D01*
X0000851481Y0001936636D01*
X0000851576Y0001937596D01*
X0000851481Y0001938556D01*
X0000851201Y0001939479D01*
X0000850900Y0001940206D01*
X0000850738Y0001941022D01*
X0000850736Y0001941046D01*
X0000850714Y0001941487D01*
X0000850714Y0001966808D01*
X0000850736Y0001967249D01*
X0000850738Y0001967272D01*
X0000850900Y0001968088D01*
X0000851200Y0001968812D01*
X0000851635Y0001969464D01*
X0000852189Y0001970017D01*
X0000852840Y0001970452D01*
X0000853564Y0001970752D01*
X0000854380Y0001970915D01*
X0000854404Y0001970917D01*
X0000854844Y0001970939D01*
X0000858540Y0001970939D01*
X0000858981Y0001970917D01*
X0000858981Y0001970917D01*
G37*
G36*
X0000364212Y0001873582D02*
G01*
X0000281456Y0001873582D01*
X0000281456Y0001956338D01*
X0000364212Y0001956338D01*
X0000364212Y0001873582D01*
X0000364212Y0001873582D01*
G37*
G36*
X0000556692Y0001962215D02*
G01*
X0000557071Y0001962100D01*
X0000557420Y0001961913D01*
X0000557725Y0001961662D01*
X0000558127Y0001961172D01*
X0000558400Y0001960764D01*
X0000559082Y0001960082D01*
X0000559885Y0001959546D01*
X0000560776Y0001959177D01*
X0000561722Y0001958989D01*
X0000562687Y0001958989D01*
X0000563633Y0001959177D01*
X0000564524Y0001959546D01*
X0000565326Y0001960082D01*
X0000566009Y0001960765D01*
X0000566281Y0001961173D01*
X0000566683Y0001961662D01*
X0000566989Y0001961913D01*
X0000567338Y0001962100D01*
X0000567716Y0001962215D01*
X0000568351Y0001962277D01*
X0000587553Y0001962277D01*
X0000588275Y0001962206D01*
X0000588757Y0001962182D01*
X0000589483Y0001962182D01*
X0000590360Y0001962096D01*
X0000593670Y0001961437D01*
X0000594514Y0001961182D01*
X0000597632Y0001959890D01*
X0000597846Y0001959775D01*
X0000597846Y0001959775D01*
X0000598195Y0001959589D01*
X0000598195Y0001959589D01*
X0000598410Y0001959474D01*
X0000601216Y0001957599D01*
X0000601897Y0001957040D01*
X0000604284Y0001954653D01*
X0000604843Y0001953972D01*
X0000606718Y0001951165D01*
X0000606833Y0001950951D01*
X0000606833Y0001950951D01*
X0000607019Y0001950602D01*
X0000607020Y0001950602D01*
X0000607134Y0001950388D01*
X0000608426Y0001947270D01*
X0000608682Y0001946426D01*
X0000609340Y0001943116D01*
X0000609426Y0001942238D01*
X0000609426Y0001941513D01*
X0000609450Y0001941031D01*
X0000609521Y0001940309D01*
X0000609521Y0001921107D01*
X0000609450Y0001920385D01*
X0000609426Y0001919903D01*
X0000609426Y0001919178D01*
X0000609340Y0001918301D01*
X0000608682Y0001914990D01*
X0000608426Y0001914147D01*
X0000607134Y0001911029D01*
X0000607020Y0001910814D01*
X0000607019Y0001910814D01*
X0000606833Y0001910465D01*
X0000606833Y0001910465D01*
X0000606718Y0001910251D01*
X0000604843Y0001907444D01*
X0000604284Y0001906763D01*
X0000601897Y0001904376D01*
X0000601216Y0001903817D01*
X0000598410Y0001901942D01*
X0000598195Y0001901828D01*
X0000598195Y0001901827D01*
X0000597846Y0001901641D01*
X0000597846Y0001901641D01*
X0000597632Y0001901526D01*
X0000594514Y0001900235D01*
X0000593670Y0001899979D01*
X0000590360Y0001899320D01*
X0000589483Y0001899234D01*
X0000588757Y0001899234D01*
X0000588275Y0001899210D01*
X0000587553Y0001899139D01*
X0000568351Y0001899139D01*
X0000567716Y0001899202D01*
X0000567338Y0001899317D01*
X0000566989Y0001899503D01*
X0000566683Y0001899754D01*
X0000566281Y0001900244D01*
X0000566008Y0001900652D01*
X0000565326Y0001901334D01*
X0000564524Y0001901870D01*
X0000563633Y0001902239D01*
X0000562686Y0001902427D01*
X0000561722Y0001902427D01*
X0000560775Y0001902239D01*
X0000559884Y0001901870D01*
X0000559082Y0001901334D01*
X0000558400Y0001900652D01*
X0000558127Y0001900244D01*
X0000557725Y0001899754D01*
X0000557420Y0001899503D01*
X0000557071Y0001899317D01*
X0000556692Y0001899202D01*
X0000556057Y0001899139D01*
X0000536855Y0001899139D01*
X0000536133Y0001899210D01*
X0000535651Y0001899234D01*
X0000534926Y0001899234D01*
X0000534049Y0001899320D01*
X0000530738Y0001899979D01*
X0000529895Y0001900235D01*
X0000526777Y0001901526D01*
X0000526562Y0001901641D01*
X0000526562Y0001901641D01*
X0000526213Y0001901827D01*
X0000526213Y0001901828D01*
X0000525999Y0001901942D01*
X0000523192Y0001903817D01*
X0000522511Y0001904376D01*
X0000520124Y0001906763D01*
X0000519565Y0001907444D01*
X0000517690Y0001910251D01*
X0000517576Y0001910465D01*
X0000517575Y0001910465D01*
X0000517389Y0001910814D01*
X0000517389Y0001910814D01*
X0000517274Y0001911029D01*
X0000515983Y0001914147D01*
X0000515727Y0001914990D01*
X0000515068Y0001918301D01*
X0000514982Y0001919178D01*
X0000514982Y0001919903D01*
X0000514958Y0001920385D01*
X0000514887Y0001921107D01*
X0000514887Y0001940309D01*
X0000514958Y0001941031D01*
X0000514982Y0001941513D01*
X0000514982Y0001942238D01*
X0000515068Y0001943116D01*
X0000515727Y0001946426D01*
X0000515983Y0001947270D01*
X0000517274Y0001950388D01*
X0000517389Y0001950602D01*
X0000517389Y0001950602D01*
X0000517575Y0001950951D01*
X0000517576Y0001950951D01*
X0000517690Y0001951165D01*
X0000519565Y0001953972D01*
X0000520124Y0001954653D01*
X0000522511Y0001957040D01*
X0000523192Y0001957599D01*
X0000525999Y0001959474D01*
X0000526213Y0001959589D01*
X0000526213Y0001959589D01*
X0000526562Y0001959775D01*
X0000526562Y0001959775D01*
X0000526777Y0001959890D01*
X0000529895Y0001961182D01*
X0000530738Y0001961437D01*
X0000534049Y0001962096D01*
X0000534926Y0001962182D01*
X0000535651Y0001962182D01*
X0000536133Y0001962206D01*
X0000536855Y0001962277D01*
X0000556057Y0001962277D01*
X0000556692Y0001962215D01*
X0000556692Y0001962215D01*
G37*
G36*
X0000716913Y0001959721D02*
G01*
X0000718250Y0001959315D01*
X0000719483Y0001958656D01*
X0000720564Y0001957769D01*
X0000721451Y0001956688D01*
X0000722110Y0001955455D01*
X0000722516Y0001954117D01*
X0000722677Y0001952484D01*
X0000722677Y0001928814D01*
X0000722516Y0001927181D01*
X0000722110Y0001925843D01*
X0000721451Y0001924610D01*
X0000720564Y0001923529D01*
X0000719483Y0001922643D01*
X0000718250Y0001921983D01*
X0000716913Y0001921578D01*
X0000715279Y0001921417D01*
X0000688657Y0001921417D01*
X0000687023Y0001921578D01*
X0000685686Y0001921983D01*
X0000684453Y0001922643D01*
X0000683372Y0001923529D01*
X0000682485Y0001924610D01*
X0000681826Y0001925843D01*
X0000681420Y0001927181D01*
X0000681259Y0001928814D01*
X0000681259Y0001952484D01*
X0000681420Y0001954117D01*
X0000681826Y0001955455D01*
X0000682485Y0001956688D01*
X0000683372Y0001957769D01*
X0000684453Y0001958656D01*
X0000685686Y0001959315D01*
X0000687023Y0001959721D01*
X0000688657Y0001959881D01*
X0000715279Y0001959881D01*
X0000716913Y0001959721D01*
X0000716913Y0001959721D01*
G37*
G36*
X0000716913Y0002021728D02*
G01*
X0000718250Y0002021323D01*
X0000719483Y0002020664D01*
X0000720564Y0002019777D01*
X0000721451Y0002018696D01*
X0000722110Y0002017463D01*
X0000722516Y0002016125D01*
X0000722677Y0002014492D01*
X0000722677Y0001990822D01*
X0000722516Y0001989189D01*
X0000722110Y0001987851D01*
X0000721451Y0001986618D01*
X0000720564Y0001985537D01*
X0000719483Y0001984650D01*
X0000718250Y0001983991D01*
X0000716913Y0001983586D01*
X0000715279Y0001983425D01*
X0000688657Y0001983425D01*
X0000687023Y0001983586D01*
X0000685686Y0001983991D01*
X0000684453Y0001984650D01*
X0000683372Y0001985537D01*
X0000682485Y0001986618D01*
X0000681826Y0001987851D01*
X0000681420Y0001989189D01*
X0000681259Y0001990822D01*
X0000681259Y0002014492D01*
X0000681420Y0002016125D01*
X0000681826Y0002017463D01*
X0000682485Y0002018696D01*
X0000683372Y0002019777D01*
X0000684453Y0002020664D01*
X0000685686Y0002021323D01*
X0000687023Y0002021728D01*
X0000688657Y0002021889D01*
X0000715279Y0002021889D01*
X0000716913Y0002021728D01*
X0000716913Y0002021728D01*
G37*
G36*
X0000364212Y0002001929D02*
G01*
X0000281456Y0002001929D01*
X0000281456Y0002084685D01*
X0000364212Y0002084685D01*
X0000364212Y0002001929D01*
X0000364212Y0002001929D01*
G37*
G36*
X0000838566Y0002062870D02*
G01*
X0000839904Y0002062464D01*
X0000841137Y0002061805D01*
X0000842218Y0002060918D01*
X0000843104Y0002059838D01*
X0000843764Y0002058605D01*
X0000844169Y0002057267D01*
X0000844330Y0002055634D01*
X0000844330Y0002031964D01*
X0000844169Y0002030331D01*
X0000843764Y0002028993D01*
X0000843104Y0002027760D01*
X0000842218Y0002026679D01*
X0000841137Y0002025792D01*
X0000839904Y0002025133D01*
X0000838566Y0002024727D01*
X0000836933Y0002024566D01*
X0000810310Y0002024566D01*
X0000808677Y0002024727D01*
X0000807339Y0002025133D01*
X0000806106Y0002025792D01*
X0000805026Y0002026679D01*
X0000804139Y0002027760D01*
X0000803480Y0002028993D01*
X0000803074Y0002030331D01*
X0000802913Y0002031964D01*
X0000802913Y0002055634D01*
X0000803074Y0002057267D01*
X0000803480Y0002058605D01*
X0000804139Y0002059838D01*
X0000805026Y0002060918D01*
X0000806106Y0002061805D01*
X0000807339Y0002062464D01*
X0000808677Y0002062870D01*
X0000810310Y0002063031D01*
X0000836933Y0002063031D01*
X0000838566Y0002062870D01*
X0000838566Y0002062870D01*
G37*
G36*
X0000838566Y0002124878D02*
G01*
X0000839904Y0002124472D01*
X0000841137Y0002123813D01*
X0000842218Y0002122926D01*
X0000843104Y0002121846D01*
X0000843764Y0002120612D01*
X0000844169Y0002119275D01*
X0000844330Y0002117642D01*
X0000844330Y0002093972D01*
X0000844169Y0002092338D01*
X0000843764Y0002091001D01*
X0000843104Y0002089768D01*
X0000842218Y0002088687D01*
X0000841137Y0002087800D01*
X0000839904Y0002087141D01*
X0000838566Y0002086735D01*
X0000836933Y0002086574D01*
X0000810310Y0002086574D01*
X0000808677Y0002086735D01*
X0000807339Y0002087141D01*
X0000806106Y0002087800D01*
X0000805026Y0002088687D01*
X0000804139Y0002089768D01*
X0000803480Y0002091001D01*
X0000803074Y0002092338D01*
X0000802913Y0002093972D01*
X0000802913Y0002117642D01*
X0000803074Y0002119275D01*
X0000803480Y0002120612D01*
X0000804139Y0002121846D01*
X0000805026Y0002122926D01*
X0000806106Y0002123813D01*
X0000807339Y0002124472D01*
X0000808677Y0002124878D01*
X0000810310Y0002125039D01*
X0000836933Y0002125039D01*
X0000838566Y0002124878D01*
X0000838566Y0002124878D01*
G37*
G04 next file*
G04 #@! TF.GenerationSoftware,KiCad,Pcbnew,(5.1.0)-1*
G04 #@! TF.CreationDate,2019-07-24T00:39:13-06:00*
G04 #@! TF.ProjectId,twinkletwinkie,7477696e-6b6c-4657-9477-696e6b69652e,rev?*
G04 #@! TF.SameCoordinates,PX89e92d0PY44794c0*
G04 #@! TF.FileFunction,Soldermask,Bot*
G04 #@! TF.FilePolarity,Negative*
G04 Gerber Fmt 4.6, Leading zero omitted, Abs format (unit mm)*
G04 Created by KiCad (PCBNEW (5.1.0)-1) date 2019-07-24 00:39:13*
G04 APERTURE LIST*
G04 APERTURE END LIST*
D22*
G36*
X0001601745Y0000257834D02*
G01*
X0001518989Y0000257834D01*
X0001518989Y0000340590D01*
X0001601745Y0000340590D01*
X0001601745Y0000257834D01*
X0001601745Y0000257834D01*
G37*
G36*
X0001755507Y0000292086D02*
G01*
X0001672751Y0000292086D01*
X0001672751Y0000374842D01*
X0001755507Y0000374842D01*
X0001755507Y0000292086D01*
X0001755507Y0000292086D01*
G37*
G36*
X0001909269Y0000310590D02*
G01*
X0001826513Y0000310590D01*
X0001826513Y0000393346D01*
X0001909269Y0000393346D01*
X0001909269Y0000310590D01*
X0001909269Y0000310590D01*
G37*
G36*
X0002063031Y0000337755D02*
G01*
X0001980275Y0000337755D01*
X0001980275Y0000420511D01*
X0002063031Y0000420511D01*
X0002063031Y0000337755D01*
X0002063031Y0000337755D01*
G37*
G36*
X0001276076Y0000524196D02*
G01*
X0001276076Y0000524196D01*
X0001293782Y0000483132D01*
X0001294249Y0000482288D01*
X0001294872Y0000481551D01*
X0001295626Y0000480950D01*
X0001296078Y0000480690D01*
X0001325590Y0000465748D01*
X0001325361Y0000465567D01*
X0001302600Y0000447578D01*
X0001301905Y0000446909D01*
X0001301355Y0000446116D01*
X0001300969Y0000445232D01*
X0001300826Y0000444682D01*
X0001298074Y0000430925D01*
X0001297979Y0000429965D01*
X0001298072Y0000429005D01*
X0001298352Y0000428082D01*
X0001298805Y0000427230D01*
X0001299417Y0000426484D01*
X0001300162Y0000425871D01*
X0001301012Y0000425415D01*
X0001301935Y0000425134D01*
X0001302900Y0000425039D01*
X0001323405Y0000425039D01*
X0001323405Y0000371023D01*
X0001284389Y0000371023D01*
X0001284389Y0000419554D01*
X0001284295Y0000420514D01*
X0001284015Y0000421438D01*
X0001283560Y0000422288D01*
X0001282948Y0000423034D01*
X0001282202Y0000423646D01*
X0001281351Y0000424101D01*
X0001280428Y0000424381D01*
X0001279468Y0000424475D01*
X0001279156Y0000424441D01*
X0001278817Y0000424434D01*
X0001278740Y0000424409D01*
X0001267713Y0000426653D01*
X0001259308Y0000428364D01*
X0001258348Y0000428463D01*
X0001257388Y0000428373D01*
X0001256463Y0000428097D01*
X0001255610Y0000427646D01*
X0001254862Y0000427037D01*
X0001254247Y0000426294D01*
X0001253788Y0000425445D01*
X0001253504Y0000424523D01*
X0001253405Y0000423542D01*
X0001253405Y0000371023D01*
X0001214389Y0000371023D01*
X0001214389Y0000425039D01*
X0001230804Y0000425039D01*
X0001231764Y0000425133D01*
X0001232687Y0000425413D01*
X0001233538Y0000425868D01*
X0001234284Y0000426480D01*
X0001234896Y0000427226D01*
X0001235351Y0000428077D01*
X0001235631Y0000429000D01*
X0001235725Y0000429960D01*
X0001235631Y0000430920D01*
X0001235351Y0000431843D01*
X0001234896Y0000432694D01*
X0001234589Y0000433035D01*
X0001234614Y0000433055D01*
X0001234298Y0000433455D01*
X0001234251Y0000433464D01*
X0001218538Y0000458606D01*
X0001218468Y0000458714D01*
X0001213931Y0000465567D01*
X0001199212Y0000487795D01*
X0001245638Y0000495025D01*
X0001246572Y0000495266D01*
X0001247442Y0000495685D01*
X0001248385Y0000496432D01*
X0001254227Y0000502354D01*
X0001275984Y0000524409D01*
X0001276076Y0000524196D01*
X0001276076Y0000524196D01*
G37*
G36*
X0001461794Y0000418579D02*
G01*
X0001463132Y0000418173D01*
X0001464365Y0000417514D01*
X0001465446Y0000416627D01*
X0001466333Y0000415546D01*
X0001466992Y0000414313D01*
X0001467398Y0000412976D01*
X0001467559Y0000411342D01*
X0001467559Y0000384720D01*
X0001467398Y0000383086D01*
X0001466992Y0000381749D01*
X0001466333Y0000380516D01*
X0001465446Y0000379435D01*
X0001464365Y0000378548D01*
X0001463132Y0000377889D01*
X0001461794Y0000377483D01*
X0001460161Y0000377322D01*
X0001436491Y0000377322D01*
X0001434858Y0000377483D01*
X0001433520Y0000377889D01*
X0001432287Y0000378548D01*
X0001431207Y0000379435D01*
X0001430320Y0000380516D01*
X0001429661Y0000381749D01*
X0001429255Y0000383086D01*
X0001429094Y0000384720D01*
X0001429094Y0000411342D01*
X0001429255Y0000412976D01*
X0001429661Y0000414313D01*
X0001430320Y0000415546D01*
X0001431207Y0000416627D01*
X0001432287Y0000417514D01*
X0001433520Y0000418173D01*
X0001434858Y0000418579D01*
X0001436491Y0000418740D01*
X0001460161Y0000418740D01*
X0001461794Y0000418579D01*
X0001461794Y0000418579D01*
G37*
G36*
X0001399787Y0000418579D02*
G01*
X0001401124Y0000418173D01*
X0001402357Y0000417514D01*
X0001403438Y0000416627D01*
X0001404325Y0000415546D01*
X0001404984Y0000414313D01*
X0001405390Y0000412976D01*
X0001405551Y0000411342D01*
X0001405551Y0000384720D01*
X0001405390Y0000383086D01*
X0001404984Y0000381749D01*
X0001404325Y0000380516D01*
X0001403438Y0000379435D01*
X0001402357Y0000378548D01*
X0001401124Y0000377889D01*
X0001399787Y0000377483D01*
X0001398153Y0000377322D01*
X0001374483Y0000377322D01*
X0001372850Y0000377483D01*
X0001371513Y0000377889D01*
X0001370279Y0000378548D01*
X0001369199Y0000379435D01*
X0001368312Y0000380516D01*
X0001367653Y0000381749D01*
X0001367247Y0000383086D01*
X0001367086Y0000384720D01*
X0001367086Y0000411342D01*
X0001367247Y0000412976D01*
X0001367653Y0000414313D01*
X0001368312Y0000415546D01*
X0001369199Y0000416627D01*
X0001370279Y0000417514D01*
X0001371513Y0000418173D01*
X0001372850Y0000418579D01*
X0001374483Y0000418740D01*
X0001398153Y0000418740D01*
X0001399787Y0000418579D01*
X0001399787Y0000418579D01*
G37*
G36*
X0000802773Y0000462774D02*
G01*
X0000805379Y0000462518D01*
X0000812065Y0000460489D01*
X0000818227Y0000457195D01*
X0000819635Y0000456041D01*
X0000823629Y0000452763D01*
X0000826907Y0000448768D01*
X0000828062Y0000447361D01*
X0000831356Y0000441199D01*
X0000833384Y0000434512D01*
X0000834069Y0000427559D01*
X0000833384Y0000420605D01*
X0000831356Y0000413918D01*
X0000828062Y0000407756D01*
X0000826907Y0000406349D01*
X0000823629Y0000402354D01*
X0000819635Y0000399076D01*
X0000818227Y0000397922D01*
X0000812065Y0000394628D01*
X0000805379Y0000392599D01*
X0000802773Y0000392343D01*
X0000800167Y0000392086D01*
X0000796682Y0000392086D01*
X0000794077Y0000392343D01*
X0000791471Y0000392599D01*
X0000784784Y0000394628D01*
X0000778622Y0000397922D01*
X0000777215Y0000399076D01*
X0000773221Y0000402354D01*
X0000769942Y0000406349D01*
X0000768788Y0000407756D01*
X0000765494Y0000413918D01*
X0000763466Y0000420605D01*
X0000762781Y0000427559D01*
X0000763466Y0000434512D01*
X0000765494Y0000441199D01*
X0000768788Y0000447361D01*
X0000769942Y0000448768D01*
X0000773221Y0000452763D01*
X0000777215Y0000456041D01*
X0000778622Y0000457195D01*
X0000784784Y0000460489D01*
X0000791471Y0000462518D01*
X0000794077Y0000462774D01*
X0000796682Y0000463031D01*
X0000800167Y0000463031D01*
X0000802773Y0000462774D01*
X0000802773Y0000462774D01*
G37*
G36*
X0000702773Y0000462774D02*
G01*
X0000705379Y0000462518D01*
X0000712065Y0000460489D01*
X0000718227Y0000457195D01*
X0000719635Y0000456041D01*
X0000723629Y0000452763D01*
X0000726907Y0000448768D01*
X0000728062Y0000447361D01*
X0000731356Y0000441199D01*
X0000733384Y0000434512D01*
X0000734069Y0000427559D01*
X0000733384Y0000420605D01*
X0000731356Y0000413918D01*
X0000728062Y0000407756D01*
X0000726907Y0000406349D01*
X0000723629Y0000402354D01*
X0000719635Y0000399076D01*
X0000718227Y0000397922D01*
X0000712065Y0000394628D01*
X0000705379Y0000392599D01*
X0000702773Y0000392343D01*
X0000700167Y0000392086D01*
X0000696682Y0000392086D01*
X0000694077Y0000392343D01*
X0000691471Y0000392599D01*
X0000684784Y0000394628D01*
X0000678622Y0000397922D01*
X0000677215Y0000399076D01*
X0000673221Y0000402354D01*
X0000669942Y0000406349D01*
X0000668788Y0000407756D01*
X0000665494Y0000413918D01*
X0000663466Y0000420605D01*
X0000662781Y0000427559D01*
X0000663466Y0000434512D01*
X0000665494Y0000441199D01*
X0000668788Y0000447361D01*
X0000669942Y0000448768D01*
X0000673221Y0000452763D01*
X0000677215Y0000456041D01*
X0000678622Y0000457195D01*
X0000684784Y0000460489D01*
X0000691471Y0000462518D01*
X0000694077Y0000462774D01*
X0000696682Y0000463031D01*
X0000700167Y0000463031D01*
X0000702773Y0000462774D01*
X0000702773Y0000462774D01*
G37*
G36*
X0000602773Y0000462774D02*
G01*
X0000605379Y0000462518D01*
X0000612065Y0000460489D01*
X0000618227Y0000457195D01*
X0000619635Y0000456041D01*
X0000623629Y0000452763D01*
X0000626907Y0000448768D01*
X0000628062Y0000447361D01*
X0000631355Y0000441199D01*
X0000633384Y0000434512D01*
X0000634069Y0000427559D01*
X0000633384Y0000420605D01*
X0000631355Y0000413918D01*
X0000628062Y0000407756D01*
X0000626907Y0000406349D01*
X0000623629Y0000402354D01*
X0000619635Y0000399076D01*
X0000618227Y0000397922D01*
X0000612065Y0000394628D01*
X0000605379Y0000392599D01*
X0000602773Y0000392343D01*
X0000600167Y0000392086D01*
X0000596682Y0000392086D01*
X0000594077Y0000392343D01*
X0000591471Y0000392599D01*
X0000584784Y0000394628D01*
X0000578622Y0000397922D01*
X0000577215Y0000399076D01*
X0000573221Y0000402354D01*
X0000569942Y0000406349D01*
X0000568788Y0000407756D01*
X0000565494Y0000413918D01*
X0000563466Y0000420605D01*
X0000562781Y0000427559D01*
X0000563466Y0000434512D01*
X0000565494Y0000441199D01*
X0000568788Y0000447361D01*
X0000569942Y0000448768D01*
X0000573221Y0000452763D01*
X0000577215Y0000456041D01*
X0000578622Y0000457195D01*
X0000584784Y0000460489D01*
X0000591471Y0000462518D01*
X0000594077Y0000462774D01*
X0000596682Y0000463031D01*
X0000600167Y0000463031D01*
X0000602773Y0000462774D01*
X0000602773Y0000462774D01*
G37*
G36*
X0002138738Y0000618867D02*
G01*
X0002139887Y0000618501D01*
X0002181415Y0000610739D01*
X0002179676Y0000600736D01*
X0002175422Y0000576277D01*
X0002175116Y0000574519D01*
X0002174950Y0000574279D01*
X0002161081Y0000554245D01*
X0002161081Y0000554245D01*
X0002160943Y0000554046D01*
X0002153870Y0000550813D01*
X0002147327Y0000547822D01*
X0002146493Y0000547336D01*
X0002145770Y0000546698D01*
X0002145185Y0000545931D01*
X0002144761Y0000545064D01*
X0002144515Y0000544131D01*
X0002144455Y0000543168D01*
X0002144584Y0000542212D01*
X0002144897Y0000541300D01*
X0002145382Y0000540466D01*
X0002146021Y0000539743D01*
X0002146788Y0000539158D01*
X0002147655Y0000538734D01*
X0002148588Y0000538488D01*
X0002149373Y0000538425D01*
X0002182066Y0000538425D01*
X0002182066Y0000484409D01*
X0002143051Y0000484409D01*
X0002143051Y0000538206D01*
X0002142956Y0000539166D01*
X0002142676Y0000540089D01*
X0002142221Y0000540940D01*
X0002141609Y0000541686D01*
X0002140864Y0000542298D01*
X0002140013Y0000542753D01*
X0002139090Y0000543033D01*
X0002138129Y0000543127D01*
X0002137169Y0000543033D01*
X0002136083Y0000542682D01*
X0002120104Y0000535377D01*
X0002119604Y0000535149D01*
X0002119213Y0000535299D01*
X0002118750Y0000535476D01*
X0002117820Y0000535732D01*
X0002116858Y0000535801D01*
X0002115901Y0000535681D01*
X0002114985Y0000535377D01*
X0002114147Y0000534900D01*
X0002113417Y0000534268D01*
X0002112825Y0000533507D01*
X0002112393Y0000532644D01*
X0002112137Y0000531714D01*
X0002112066Y0000530881D01*
X0002112066Y0000484409D01*
X0002073051Y0000484409D01*
X0002073051Y0000538425D01*
X0002084498Y0000538425D01*
X0002085458Y0000538519D01*
X0002086382Y0000538799D01*
X0002087232Y0000539254D01*
X0002087978Y0000539866D01*
X0002088590Y0000540612D01*
X0002089045Y0000541463D01*
X0002089325Y0000542386D01*
X0002089420Y0000543346D01*
X0002089325Y0000544306D01*
X0002089045Y0000545229D01*
X0002088590Y0000546080D01*
X0002087978Y0000546826D01*
X0002087232Y0000547438D01*
X0002086261Y0000547941D01*
X0002057232Y0000559078D01*
X0002057232Y0000559078D01*
X0002057006Y0000559164D01*
X0002088855Y0000593699D01*
X0002089436Y0000594469D01*
X0002089995Y0000595779D01*
X0002091288Y0000600671D01*
X0002100707Y0000636330D01*
X0002138738Y0000618867D01*
X0002138738Y0000618867D01*
G37*
G36*
X0002330298Y0000531965D02*
G01*
X0002331636Y0000531559D01*
X0002332869Y0000530900D01*
X0002333950Y0000530013D01*
X0002334837Y0000528932D01*
X0002335496Y0000527699D01*
X0002335902Y0000526361D01*
X0002336062Y0000524728D01*
X0002336062Y0000498105D01*
X0002335902Y0000496472D01*
X0002335496Y0000495135D01*
X0002334837Y0000493901D01*
X0002333950Y0000492821D01*
X0002332869Y0000491934D01*
X0002331636Y0000491275D01*
X0002330298Y0000490869D01*
X0002328665Y0000490708D01*
X0002304995Y0000490708D01*
X0002303362Y0000490869D01*
X0002302024Y0000491275D01*
X0002300791Y0000491934D01*
X0002299711Y0000492821D01*
X0002298824Y0000493901D01*
X0002298165Y0000495135D01*
X0002297759Y0000496472D01*
X0002297598Y0000498105D01*
X0002297598Y0000524728D01*
X0002297759Y0000526361D01*
X0002298165Y0000527699D01*
X0002298824Y0000528932D01*
X0002299711Y0000530013D01*
X0002300791Y0000530900D01*
X0002302024Y0000531559D01*
X0002303362Y0000531965D01*
X0002304995Y0000532125D01*
X0002328665Y0000532125D01*
X0002330298Y0000531965D01*
X0002330298Y0000531965D01*
G37*
G36*
X0002268290Y0000531965D02*
G01*
X0002269628Y0000531559D01*
X0002270861Y0000530900D01*
X0002271942Y0000530013D01*
X0002272829Y0000528932D01*
X0002273488Y0000527699D01*
X0002273894Y0000526361D01*
X0002274055Y0000524728D01*
X0002274055Y0000498105D01*
X0002273894Y0000496472D01*
X0002273488Y0000495135D01*
X0002272829Y0000493901D01*
X0002271942Y0000492821D01*
X0002270861Y0000491934D01*
X0002269628Y0000491275D01*
X0002268290Y0000490869D01*
X0002266657Y0000490708D01*
X0002242987Y0000490708D01*
X0002241354Y0000490869D01*
X0002240016Y0000491275D01*
X0002238783Y0000491934D01*
X0002237703Y0000492821D01*
X0002236816Y0000493901D01*
X0002236157Y0000495135D01*
X0002235751Y0000496472D01*
X0002235590Y0000498105D01*
X0002235590Y0000524728D01*
X0002235751Y0000526361D01*
X0002236157Y0000527699D01*
X0002236816Y0000528932D01*
X0002237703Y0000530013D01*
X0002238783Y0000530900D01*
X0002240016Y0000531559D01*
X0002241354Y0000531965D01*
X0002242987Y0000532125D01*
X0002266657Y0000532125D01*
X0002268290Y0000531965D01*
X0002268290Y0000531965D01*
G37*
G36*
X0000802894Y0000562837D02*
G01*
X0000808772Y0000561668D01*
X0000815227Y0000558994D01*
X0000821037Y0000555112D01*
X0000825978Y0000550171D01*
X0000829860Y0000544361D01*
X0000832534Y0000537905D01*
X0000833897Y0000531052D01*
X0000833897Y0000524065D01*
X0000832534Y0000517212D01*
X0000829860Y0000510756D01*
X0000825978Y0000504946D01*
X0000821037Y0000500005D01*
X0000815227Y0000496123D01*
X0000808772Y0000493449D01*
X0000803138Y0000492329D01*
X0000801918Y0000492086D01*
X0000794931Y0000492086D01*
X0000793711Y0000492329D01*
X0000788078Y0000493449D01*
X0000781622Y0000496123D01*
X0000775812Y0000500005D01*
X0000770871Y0000504946D01*
X0000766989Y0000510756D01*
X0000764315Y0000517212D01*
X0000762952Y0000524065D01*
X0000762952Y0000531052D01*
X0000764315Y0000537905D01*
X0000766989Y0000544361D01*
X0000770871Y0000550171D01*
X0000775812Y0000555112D01*
X0000781622Y0000558994D01*
X0000788078Y0000561668D01*
X0000793956Y0000562837D01*
X0000794931Y0000563031D01*
X0000801918Y0000563031D01*
X0000802894Y0000562837D01*
X0000802894Y0000562837D01*
G37*
G36*
X0000702894Y0000562837D02*
G01*
X0000708772Y0000561668D01*
X0000715227Y0000558994D01*
X0000721037Y0000555112D01*
X0000725978Y0000550171D01*
X0000729860Y0000544361D01*
X0000732534Y0000537905D01*
X0000733897Y0000531052D01*
X0000733897Y0000524065D01*
X0000732534Y0000517212D01*
X0000729860Y0000510756D01*
X0000725978Y0000504946D01*
X0000721037Y0000500005D01*
X0000715227Y0000496123D01*
X0000708772Y0000493449D01*
X0000703138Y0000492329D01*
X0000701918Y0000492086D01*
X0000694931Y0000492086D01*
X0000693711Y0000492329D01*
X0000688078Y0000493449D01*
X0000681622Y0000496123D01*
X0000675812Y0000500005D01*
X0000670871Y0000504946D01*
X0000666989Y0000510756D01*
X0000664315Y0000517212D01*
X0000662952Y0000524065D01*
X0000662952Y0000531052D01*
X0000664315Y0000537905D01*
X0000666989Y0000544361D01*
X0000670871Y0000550171D01*
X0000675812Y0000555112D01*
X0000681622Y0000558994D01*
X0000688078Y0000561668D01*
X0000693956Y0000562837D01*
X0000694931Y0000563031D01*
X0000701918Y0000563031D01*
X0000702894Y0000562837D01*
X0000702894Y0000562837D01*
G37*
G36*
X0000602773Y0000562774D02*
G01*
X0000605379Y0000562518D01*
X0000612065Y0000560489D01*
X0000612065Y0000560489D01*
X0000614544Y0000559164D01*
X0000618227Y0000557195D01*
X0000619635Y0000556041D01*
X0000623629Y0000552763D01*
X0000626907Y0000548768D01*
X0000628062Y0000547361D01*
X0000631355Y0000541199D01*
X0000633384Y0000534512D01*
X0000634069Y0000527559D01*
X0000633384Y0000520605D01*
X0000631355Y0000513918D01*
X0000628062Y0000507756D01*
X0000627864Y0000507515D01*
X0000623629Y0000502354D01*
X0000620766Y0000500005D01*
X0000618227Y0000497922D01*
X0000618227Y0000497922D01*
X0000613276Y0000495275D01*
X0000612065Y0000494628D01*
X0000605379Y0000492599D01*
X0000602773Y0000492343D01*
X0000600167Y0000492086D01*
X0000596682Y0000492086D01*
X0000594077Y0000492343D01*
X0000591471Y0000492599D01*
X0000584784Y0000494628D01*
X0000583573Y0000495275D01*
X0000578622Y0000497922D01*
X0000578622Y0000497922D01*
X0000576083Y0000500005D01*
X0000573221Y0000502354D01*
X0000568986Y0000507515D01*
X0000568788Y0000507756D01*
X0000565494Y0000513918D01*
X0000563466Y0000520605D01*
X0000562781Y0000527559D01*
X0000563466Y0000534512D01*
X0000565494Y0000541199D01*
X0000568788Y0000547361D01*
X0000569942Y0000548768D01*
X0000573221Y0000552763D01*
X0000577215Y0000556041D01*
X0000578622Y0000557195D01*
X0000582305Y0000559164D01*
X0000584784Y0000560489D01*
X0000584784Y0000560489D01*
X0000591471Y0000562518D01*
X0000594077Y0000562774D01*
X0000596682Y0000563031D01*
X0000600167Y0000563031D01*
X0000602773Y0000562774D01*
X0000602773Y0000562774D01*
G37*
G36*
X0001026377Y0000565758D02*
G01*
X0001026756Y0000565643D01*
X0001027105Y0000565457D01*
X0001027410Y0000565206D01*
X0001027812Y0000564716D01*
X0001028085Y0000564308D01*
X0001028767Y0000563625D01*
X0001029570Y0000563089D01*
X0001030461Y0000562720D01*
X0001031407Y0000562532D01*
X0001032372Y0000562532D01*
X0001033318Y0000562720D01*
X0001034209Y0000563090D01*
X0001035011Y0000563626D01*
X0001035694Y0000564308D01*
X0001035966Y0000564716D01*
X0001036368Y0000565206D01*
X0001036674Y0000565457D01*
X0001037023Y0000565643D01*
X0001037401Y0000565758D01*
X0001038037Y0000565820D01*
X0001057238Y0000565820D01*
X0001057960Y0000565749D01*
X0001058442Y0000565726D01*
X0001059168Y0000565726D01*
X0001060045Y0000565639D01*
X0001063355Y0000564981D01*
X0001064199Y0000564725D01*
X0001067317Y0000563433D01*
X0001067531Y0000563319D01*
X0001067531Y0000563319D01*
X0001067880Y0000563132D01*
X0001067880Y0000563132D01*
X0001068095Y0000563018D01*
X0001070901Y0000561142D01*
X0001071582Y0000560583D01*
X0001073969Y0000558197D01*
X0001074528Y0000557515D01*
X0001076403Y0000554709D01*
X0001076518Y0000554495D01*
X0001076518Y0000554494D01*
X0001076705Y0000554146D01*
X0001076705Y0000554145D01*
X0001076819Y0000553931D01*
X0001078111Y0000550813D01*
X0001078367Y0000549969D01*
X0001079025Y0000546659D01*
X0001079111Y0000545782D01*
X0001079111Y0000545057D01*
X0001079135Y0000544574D01*
X0001079206Y0000543852D01*
X0001079206Y0000524651D01*
X0001079135Y0000523929D01*
X0001079111Y0000523446D01*
X0001079111Y0000522721D01*
X0001079025Y0000521844D01*
X0001078367Y0000518534D01*
X0001078111Y0000517690D01*
X0001076819Y0000514572D01*
X0001076705Y0000514358D01*
X0001076705Y0000514357D01*
X0001076518Y0000514009D01*
X0001076518Y0000514008D01*
X0001076403Y0000513794D01*
X0001074528Y0000510988D01*
X0001073969Y0000510306D01*
X0001071582Y0000507920D01*
X0001070901Y0000507361D01*
X0001068095Y0000505485D01*
X0001067880Y0000505371D01*
X0001067880Y0000505371D01*
X0001067531Y0000505184D01*
X0001067531Y0000505184D01*
X0001067317Y0000505070D01*
X0001064199Y0000503778D01*
X0001063355Y0000503522D01*
X0001060045Y0000502864D01*
X0001059168Y0000502777D01*
X0001058442Y0000502777D01*
X0001057960Y0000502754D01*
X0001057238Y0000502682D01*
X0001038037Y0000502682D01*
X0001037401Y0000502745D01*
X0001037023Y0000502860D01*
X0001036674Y0000503046D01*
X0001036368Y0000503297D01*
X0001035966Y0000503787D01*
X0001035693Y0000504195D01*
X0001035011Y0000504878D01*
X0001034209Y0000505413D01*
X0001033318Y0000505783D01*
X0001032371Y0000505971D01*
X0001031407Y0000505971D01*
X0001030461Y0000505782D01*
X0001029569Y0000505413D01*
X0001028767Y0000504877D01*
X0001028085Y0000504195D01*
X0001027812Y0000503787D01*
X0001027410Y0000503297D01*
X0001027105Y0000503046D01*
X0001026756Y0000502860D01*
X0001026377Y0000502745D01*
X0001025742Y0000502682D01*
X0001006540Y0000502682D01*
X0001005818Y0000502754D01*
X0001005336Y0000502777D01*
X0001004611Y0000502777D01*
X0001003734Y0000502864D01*
X0001000423Y0000503522D01*
X0000999580Y0000503778D01*
X0000996462Y0000505070D01*
X0000996247Y0000505184D01*
X0000996247Y0000505184D01*
X0000995898Y0000505371D01*
X0000995898Y0000505371D01*
X0000995684Y0000505485D01*
X0000992877Y0000507361D01*
X0000992196Y0000507920D01*
X0000989809Y0000510306D01*
X0000989250Y0000510988D01*
X0000987375Y0000513794D01*
X0000987261Y0000514008D01*
X0000987260Y0000514009D01*
X0000987074Y0000514357D01*
X0000987074Y0000514358D01*
X0000986959Y0000514572D01*
X0000985668Y0000517690D01*
X0000985412Y0000518534D01*
X0000984753Y0000521844D01*
X0000984667Y0000522721D01*
X0000984667Y0000523446D01*
X0000984643Y0000523929D01*
X0000984572Y0000524651D01*
X0000984572Y0000543852D01*
X0000984643Y0000544574D01*
X0000984667Y0000545057D01*
X0000984667Y0000545782D01*
X0000984753Y0000546659D01*
X0000985412Y0000549969D01*
X0000985668Y0000550813D01*
X0000986959Y0000553931D01*
X0000987074Y0000554145D01*
X0000987074Y0000554146D01*
X0000987260Y0000554494D01*
X0000987261Y0000554495D01*
X0000987375Y0000554709D01*
X0000989250Y0000557515D01*
X0000989809Y0000558197D01*
X0000992196Y0000560583D01*
X0000992877Y0000561142D01*
X0000995684Y0000563018D01*
X0000995898Y0000563132D01*
X0000995898Y0000563132D01*
X0000996247Y0000563319D01*
X0000996247Y0000563319D01*
X0000996462Y0000563433D01*
X0000999580Y0000564725D01*
X0001000423Y0000564981D01*
X0001003734Y0000565639D01*
X0001004611Y0000565726D01*
X0001005336Y0000565726D01*
X0001005818Y0000565749D01*
X0001006540Y0000565820D01*
X0001025742Y0000565820D01*
X0001026377Y0000565758D01*
X0001026377Y0000565758D01*
G37*
G36*
X0002454560Y0000684083D02*
G01*
X0002454560Y0000684083D01*
X0002461844Y0000678729D01*
X0002481951Y0000663952D01*
X0002486345Y0000660722D01*
X0002487175Y0000660230D01*
X0002487792Y0000659991D01*
X0002530776Y0000646558D01*
X0002531102Y0000646456D01*
X0002520880Y0000630484D01*
X0002512204Y0000616929D01*
X0002512203Y0000616927D01*
X0002497815Y0000594422D01*
X0002497377Y0000593562D01*
X0002497116Y0000592634D01*
X0002497041Y0000591672D01*
X0002497155Y0000590714D01*
X0002497453Y0000589796D01*
X0002497925Y0000588955D01*
X0002498552Y0000588222D01*
X0002499310Y0000587625D01*
X0002500170Y0000587187D01*
X0002501099Y0000586926D01*
X0002501961Y0000586850D01*
X0002526948Y0000586850D01*
X0002526948Y0000532834D01*
X0002487933Y0000532834D01*
X0002487933Y0000584811D01*
X0002487838Y0000585771D01*
X0002487558Y0000586694D01*
X0002487103Y0000587545D01*
X0002486491Y0000588291D01*
X0002485745Y0000588903D01*
X0002484895Y0000589358D01*
X0002483971Y0000589638D01*
X0002483011Y0000589732D01*
X0002481948Y0000589616D01*
X0002471138Y0000587225D01*
X0002460806Y0000584939D01*
X0002459890Y0000584639D01*
X0002459049Y0000584166D01*
X0002458316Y0000583538D01*
X0002457720Y0000582780D01*
X0002457284Y0000581919D01*
X0002457023Y0000580990D01*
X0002456948Y0000580134D01*
X0002456948Y0000532834D01*
X0002417933Y0000532834D01*
X0002417933Y0000586850D01*
X0002433678Y0000586850D01*
X0002434638Y0000586944D01*
X0002435561Y0000587225D01*
X0002436412Y0000587679D01*
X0002437157Y0000588291D01*
X0002437770Y0000589037D01*
X0002438224Y0000589888D01*
X0002438504Y0000590811D01*
X0002438599Y0000591771D01*
X0002438504Y0000592731D01*
X0002438224Y0000593654D01*
X0002437770Y0000594505D01*
X0002437157Y0000595251D01*
X0002436760Y0000595607D01*
X0002436547Y0000595779D01*
X0002430458Y0000600671D01*
X0002430163Y0000600891D01*
X0002397637Y0000623228D01*
X0002397895Y0000623379D01*
X0002437180Y0000646421D01*
X0002437960Y0000646989D01*
X0002438615Y0000647697D01*
X0002439219Y0000648739D01*
X0002454235Y0000684029D01*
X0002454236Y0000684029D01*
X0002454330Y0000684251D01*
X0002454560Y0000684083D01*
X0002454560Y0000684083D01*
G37*
G36*
X0002679511Y0000580390D02*
G01*
X0002680849Y0000579984D01*
X0002682082Y0000579325D01*
X0002683162Y0000578438D01*
X0002684049Y0000577357D01*
X0002684708Y0000576124D01*
X0002685114Y0000574787D01*
X0002685275Y0000573153D01*
X0002685275Y0000546531D01*
X0002685114Y0000544897D01*
X0002684708Y0000543560D01*
X0002684049Y0000542327D01*
X0002683162Y0000541246D01*
X0002682082Y0000540359D01*
X0002680849Y0000539700D01*
X0002679511Y0000539294D01*
X0002677878Y0000539133D01*
X0002654208Y0000539133D01*
X0002652575Y0000539294D01*
X0002651237Y0000539700D01*
X0002650004Y0000540359D01*
X0002648923Y0000541246D01*
X0002648036Y0000542327D01*
X0002647377Y0000543560D01*
X0002646971Y0000544897D01*
X0002646811Y0000546531D01*
X0002646811Y0000573153D01*
X0002646971Y0000574787D01*
X0002647377Y0000576124D01*
X0002648036Y0000577357D01*
X0002648923Y0000578438D01*
X0002650004Y0000579325D01*
X0002651237Y0000579984D01*
X0002652575Y0000580390D01*
X0002654208Y0000580551D01*
X0002677878Y0000580551D01*
X0002679511Y0000580390D01*
X0002679511Y0000580390D01*
G37*
G36*
X0002617503Y0000580390D02*
G01*
X0002618841Y0000579984D01*
X0002620074Y0000579325D01*
X0002621155Y0000578438D01*
X0002622041Y0000577357D01*
X0002622701Y0000576124D01*
X0002623106Y0000574787D01*
X0002623267Y0000573153D01*
X0002623267Y0000546531D01*
X0002623106Y0000544897D01*
X0002622701Y0000543560D01*
X0002622041Y0000542327D01*
X0002621155Y0000541246D01*
X0002620074Y0000540359D01*
X0002618841Y0000539700D01*
X0002617503Y0000539294D01*
X0002615870Y0000539133D01*
X0002592200Y0000539133D01*
X0002590567Y0000539294D01*
X0002589229Y0000539700D01*
X0002587996Y0000540359D01*
X0002586915Y0000541246D01*
X0002586028Y0000542327D01*
X0002585369Y0000543560D01*
X0002584963Y0000544897D01*
X0002584803Y0000546531D01*
X0002584803Y0000573153D01*
X0002584963Y0000574787D01*
X0002585369Y0000576124D01*
X0002586028Y0000577357D01*
X0002586915Y0000578438D01*
X0002587996Y0000579325D01*
X0002589229Y0000579984D01*
X0002590567Y0000580390D01*
X0002592200Y0000580551D01*
X0002615870Y0000580551D01*
X0002617503Y0000580390D01*
X0002617503Y0000580390D01*
G37*
G36*
X0001173941Y0000750444D02*
G01*
X0001173965Y0000750442D01*
X0001174781Y0000750280D01*
X0001175505Y0000749980D01*
X0001175651Y0000749883D01*
X0001176501Y0000749428D01*
X0001177425Y0000749148D01*
X0001178385Y0000749053D01*
X0001179345Y0000749148D01*
X0001180268Y0000749428D01*
X0001181507Y0000750170D01*
X0001181697Y0000750326D01*
X0001181781Y0000750372D01*
X0001181873Y0000750399D01*
X0001182210Y0000750433D01*
X0001192592Y0000750433D01*
X0001192929Y0000750399D01*
X0001193092Y0000750350D01*
X0001193847Y0000750037D01*
X0001194793Y0000749849D01*
X0001195757Y0000749849D01*
X0001196704Y0000750038D01*
X0001197458Y0000750350D01*
X0001197621Y0000750399D01*
X0001197958Y0000750433D01*
X0001208340Y0000750433D01*
X0001208677Y0000750399D01*
X0001208840Y0000750350D01*
X0001209595Y0000750037D01*
X0001210541Y0000749849D01*
X0001211506Y0000749849D01*
X0001212452Y0000750038D01*
X0001213206Y0000750350D01*
X0001213369Y0000750399D01*
X0001213706Y0000750433D01*
X0001224088Y0000750433D01*
X0001224425Y0000750399D01*
X0001224517Y0000750372D01*
X0001224602Y0000750326D01*
X0001224792Y0000750170D01*
X0001225594Y0000749634D01*
X0001226485Y0000749265D01*
X0001227431Y0000749077D01*
X0001228396Y0000749077D01*
X0001229342Y0000749265D01*
X0001230648Y0000749883D01*
X0001230793Y0000749980D01*
X0001231517Y0000750280D01*
X0001232333Y0000750442D01*
X0001232357Y0000750444D01*
X0001232797Y0000750466D01*
X0001236493Y0000750466D01*
X0001236934Y0000750444D01*
X0001236957Y0000750442D01*
X0001237774Y0000750280D01*
X0001238497Y0000749980D01*
X0001239149Y0000749545D01*
X0001239702Y0000748991D01*
X0001240137Y0000748340D01*
X0001240437Y0000747616D01*
X0001240600Y0000746800D01*
X0001240602Y0000746776D01*
X0001240624Y0000746336D01*
X0001240624Y0000721014D01*
X0001240602Y0000720574D01*
X0001240600Y0000720550D01*
X0001240437Y0000719734D01*
X0001240136Y0000719007D01*
X0001239856Y0000718084D01*
X0001239762Y0000717124D01*
X0001239856Y0000716164D01*
X0001240136Y0000715240D01*
X0001240591Y0000714390D01*
X0001241203Y0000713644D01*
X0001241949Y0000713032D01*
X0001242800Y0000712577D01*
X0001243723Y0000712297D01*
X0001244683Y0000712203D01*
X0001245643Y0000712297D01*
X0001246566Y0000712577D01*
X0001247293Y0000712878D01*
X0001248109Y0000713041D01*
X0001248133Y0000713043D01*
X0001248573Y0000713065D01*
X0001273895Y0000713065D01*
X0001274335Y0000713043D01*
X0001274359Y0000713041D01*
X0001275175Y0000712878D01*
X0001275899Y0000712578D01*
X0001276550Y0000712143D01*
X0001277104Y0000711590D01*
X0001277539Y0000710938D01*
X0001277839Y0000710214D01*
X0001278001Y0000709398D01*
X0001278004Y0000709375D01*
X0001278025Y0000708934D01*
X0001278025Y0000705238D01*
X0001278004Y0000704798D01*
X0001278001Y0000704774D01*
X0001277839Y0000703958D01*
X0001277539Y0000703234D01*
X0001277442Y0000703089D01*
X0001276987Y0000702238D01*
X0001276707Y0000701315D01*
X0001276612Y0000700354D01*
X0001276707Y0000699394D01*
X0001276987Y0000698471D01*
X0001277729Y0000697232D01*
X0001277885Y0000697042D01*
X0001277931Y0000696958D01*
X0001277958Y0000696866D01*
X0001277992Y0000696529D01*
X0001277992Y0000686147D01*
X0001277958Y0000685810D01*
X0001277909Y0000685647D01*
X0001277597Y0000684893D01*
X0001277408Y0000683946D01*
X0001277408Y0000682982D01*
X0001277597Y0000682035D01*
X0001277909Y0000681281D01*
X0001277958Y0000681118D01*
X0001277992Y0000680781D01*
X0001277992Y0000670399D01*
X0001277958Y0000670062D01*
X0001277909Y0000669899D01*
X0001277597Y0000669145D01*
X0001277408Y0000668198D01*
X0001277408Y0000667234D01*
X0001277597Y0000666287D01*
X0001277909Y0000665533D01*
X0001277958Y0000665370D01*
X0001277992Y0000665033D01*
X0001277992Y0000654651D01*
X0001277958Y0000654314D01*
X0001277931Y0000654222D01*
X0001277885Y0000654138D01*
X0001277729Y0000653948D01*
X0001277194Y0000653145D01*
X0001276824Y0000652254D01*
X0001276636Y0000651308D01*
X0001276636Y0000650343D01*
X0001276824Y0000649397D01*
X0001277442Y0000648092D01*
X0001277539Y0000647946D01*
X0001277839Y0000647222D01*
X0001278001Y0000646406D01*
X0001278004Y0000646382D01*
X0001278025Y0000645942D01*
X0001278025Y0000642246D01*
X0001278004Y0000641806D01*
X0001278001Y0000641782D01*
X0001277839Y0000640966D01*
X0001277539Y0000640242D01*
X0001277104Y0000639591D01*
X0001276550Y0000639037D01*
X0001275899Y0000638602D01*
X0001275175Y0000638302D01*
X0001274359Y0000638140D01*
X0001274335Y0000638137D01*
X0001273895Y0000638116D01*
X0001248573Y0000638116D01*
X0001248133Y0000638137D01*
X0001248109Y0000638140D01*
X0001247293Y0000638302D01*
X0001246566Y0000638603D01*
X0001245643Y0000638883D01*
X0001244683Y0000638977D01*
X0001243723Y0000638883D01*
X0001242800Y0000638603D01*
X0001241949Y0000638148D01*
X0001241203Y0000637536D01*
X0001240591Y0000636790D01*
X0001240136Y0000635939D01*
X0001239856Y0000635016D01*
X0001239762Y0000634056D01*
X0001239856Y0000633096D01*
X0001240136Y0000632173D01*
X0001240437Y0000631446D01*
X0001240600Y0000630630D01*
X0001240602Y0000630606D01*
X0001240624Y0000630166D01*
X0001240624Y0000604844D01*
X0001240602Y0000604404D01*
X0001240600Y0000604380D01*
X0001240437Y0000603564D01*
X0001240137Y0000602840D01*
X0001239702Y0000602189D01*
X0001239149Y0000601635D01*
X0001238497Y0000601200D01*
X0001237774Y0000600900D01*
X0001236957Y0000600738D01*
X0001236934Y0000600736D01*
X0001236493Y0000600714D01*
X0001232797Y0000600714D01*
X0001232357Y0000600736D01*
X0001232333Y0000600738D01*
X0001231517Y0000600900D01*
X0001230793Y0000601200D01*
X0001230648Y0000601297D01*
X0001229797Y0000601752D01*
X0001228874Y0000602032D01*
X0001227914Y0000602127D01*
X0001226953Y0000602032D01*
X0001226030Y0000601752D01*
X0001224792Y0000601010D01*
X0001224602Y0000600854D01*
X0001224517Y0000600809D01*
X0001224425Y0000600781D01*
X0001224088Y0000600748D01*
X0001213706Y0000600748D01*
X0001213369Y0000600781D01*
X0001213206Y0000600830D01*
X0001212452Y0000601143D01*
X0001211505Y0000601331D01*
X0001210541Y0000601331D01*
X0001209595Y0000601143D01*
X0001208840Y0000600830D01*
X0001208677Y0000600781D01*
X0001208340Y0000600748D01*
X0001197958Y0000600748D01*
X0001197621Y0000600781D01*
X0001197458Y0000600830D01*
X0001196704Y0000601143D01*
X0001195757Y0000601331D01*
X0001194793Y0000601331D01*
X0001193846Y0000601143D01*
X0001193092Y0000600830D01*
X0001192929Y0000600781D01*
X0001192592Y0000600748D01*
X0001182210Y0000600748D01*
X0001181873Y0000600781D01*
X0001181781Y0000600809D01*
X0001181697Y0000600854D01*
X0001181507Y0000601010D01*
X0001180705Y0000601546D01*
X0001179813Y0000601915D01*
X0001178867Y0000602103D01*
X0001177902Y0000602103D01*
X0001176956Y0000601915D01*
X0001175651Y0000601297D01*
X0001175505Y0000601200D01*
X0001174781Y0000600900D01*
X0001173965Y0000600738D01*
X0001173941Y0000600736D01*
X0001173501Y0000600714D01*
X0001169805Y0000600714D01*
X0001169365Y0000600736D01*
X0001169341Y0000600738D01*
X0001168525Y0000600900D01*
X0001167801Y0000601200D01*
X0001167150Y0000601635D01*
X0001166596Y0000602189D01*
X0001166161Y0000602840D01*
X0001165861Y0000603564D01*
X0001165699Y0000604380D01*
X0001165696Y0000604404D01*
X0001165675Y0000604844D01*
X0001165675Y0000630166D01*
X0001165696Y0000630606D01*
X0001165699Y0000630630D01*
X0001165861Y0000631446D01*
X0001166162Y0000632173D01*
X0001166442Y0000633096D01*
X0001166537Y0000634056D01*
X0001166442Y0000635016D01*
X0001166162Y0000635940D01*
X0001165707Y0000636790D01*
X0001165095Y0000637536D01*
X0001164349Y0000638148D01*
X0001163499Y0000638603D01*
X0001162575Y0000638883D01*
X0001161615Y0000638977D01*
X0001160655Y0000638883D01*
X0001159732Y0000638603D01*
X0001159005Y0000638302D01*
X0001158189Y0000638140D01*
X0001158165Y0000638137D01*
X0001157725Y0000638116D01*
X0001132403Y0000638116D01*
X0001131963Y0000638137D01*
X0001131939Y0000638140D01*
X0001131123Y0000638302D01*
X0001130399Y0000638602D01*
X0001129748Y0000639037D01*
X0001129194Y0000639591D01*
X0001128759Y0000640242D01*
X0001128459Y0000640966D01*
X0001128297Y0000641782D01*
X0001128295Y0000641806D01*
X0001128273Y0000642246D01*
X0001128273Y0000645942D01*
X0001128295Y0000646382D01*
X0001128297Y0000646406D01*
X0001128459Y0000647222D01*
X0001128759Y0000647946D01*
X0001128856Y0000648092D01*
X0001129311Y0000648942D01*
X0001129591Y0000649866D01*
X0001129686Y0000650826D01*
X0001129591Y0000651786D01*
X0001129311Y0000652709D01*
X0001128569Y0000653948D01*
X0001128413Y0000654138D01*
X0001128368Y0000654222D01*
X0001128340Y0000654314D01*
X0001128307Y0000654651D01*
X0001128307Y0000665033D01*
X0001128340Y0000665370D01*
X0001128389Y0000665533D01*
X0001128702Y0000666288D01*
X0001128890Y0000667234D01*
X0001128890Y0000668198D01*
X0001128702Y0000669145D01*
X0001128389Y0000669899D01*
X0001128340Y0000670062D01*
X0001128307Y0000670399D01*
X0001128307Y0000680781D01*
X0001128340Y0000681118D01*
X0001128389Y0000681281D01*
X0001128702Y0000682036D01*
X0001128890Y0000682982D01*
X0001128890Y0000683947D01*
X0001128702Y0000684893D01*
X0001128389Y0000685647D01*
X0001128340Y0000685810D01*
X0001128307Y0000686147D01*
X0001128307Y0000696529D01*
X0001128340Y0000696866D01*
X0001128368Y0000696958D01*
X0001128413Y0000697042D01*
X0001128569Y0000697232D01*
X0001129105Y0000698035D01*
X0001129474Y0000698926D01*
X0001129662Y0000699872D01*
X0001129662Y0000700837D01*
X0001129474Y0000701783D01*
X0001128856Y0000703089D01*
X0001128759Y0000703234D01*
X0001128459Y0000703958D01*
X0001128297Y0000704774D01*
X0001128295Y0000704798D01*
X0001128273Y0000705238D01*
X0001128273Y0000708934D01*
X0001128295Y0000709375D01*
X0001128297Y0000709398D01*
X0001128459Y0000710214D01*
X0001128759Y0000710938D01*
X0001129194Y0000711590D01*
X0001129748Y0000712143D01*
X0001130399Y0000712578D01*
X0001131123Y0000712878D01*
X0001131939Y0000713041D01*
X0001131963Y0000713043D01*
X0001132403Y0000713065D01*
X0001157725Y0000713065D01*
X0001158165Y0000713043D01*
X0001158189Y0000713041D01*
X0001159005Y0000712878D01*
X0001159732Y0000712577D01*
X0001160655Y0000712297D01*
X0001161615Y0000712203D01*
X0001162575Y0000712297D01*
X0001163499Y0000712577D01*
X0001164350Y0000713032D01*
X0001165095Y0000713644D01*
X0001165707Y0000714390D01*
X0001166162Y0000715241D01*
X0001166442Y0000716164D01*
X0001166537Y0000717124D01*
X0001166442Y0000718084D01*
X0001166162Y0000719007D01*
X0001165861Y0000719734D01*
X0001165699Y0000720550D01*
X0001165696Y0000720574D01*
X0001165675Y0000721014D01*
X0001165675Y0000746336D01*
X0001165696Y0000746776D01*
X0001165699Y0000746800D01*
X0001165861Y0000747616D01*
X0001166161Y0000748340D01*
X0001166596Y0000748991D01*
X0001167150Y0000749545D01*
X0001167801Y0000749980D01*
X0001168525Y0000750280D01*
X0001169341Y0000750442D01*
X0001169365Y0000750444D01*
X0001169805Y0000750466D01*
X0001173501Y0000750466D01*
X0001173941Y0000750444D01*
X0001173941Y0000750444D01*
G37*
G36*
X0000679173Y0000653110D02*
G01*
X0000596417Y0000653110D01*
X0000596417Y0000735866D01*
X0000679173Y0000735866D01*
X0000679173Y0000653110D01*
X0000679173Y0000653110D01*
G37*
G36*
X0000871653Y0000741742D02*
G01*
X0000872031Y0000741627D01*
X0000872380Y0000741441D01*
X0000872686Y0000741190D01*
X0000873088Y0000740700D01*
X0000873361Y0000740292D01*
X0000874043Y0000739610D01*
X0000874845Y0000739074D01*
X0000875737Y0000738705D01*
X0000876683Y0000738516D01*
X0000877647Y0000738516D01*
X0000878594Y0000738705D01*
X0000879485Y0000739074D01*
X0000880287Y0000739610D01*
X0000880969Y0000740292D01*
X0000881242Y0000740700D01*
X0000881644Y0000741190D01*
X0000881949Y0000741441D01*
X0000882298Y0000741627D01*
X0000882677Y0000741742D01*
X0000883312Y0000741805D01*
X0000902514Y0000741805D01*
X0000903236Y0000741734D01*
X0000903718Y0000741710D01*
X0000904443Y0000741710D01*
X0000905320Y0000741624D01*
X0000908631Y0000740965D01*
X0000909474Y0000740709D01*
X0000912592Y0000739418D01*
X0000912807Y0000739303D01*
X0000912807Y0000739303D01*
X0000913156Y0000739116D01*
X0000913156Y0000739116D01*
X0000913370Y0000739002D01*
X0000916177Y0000737127D01*
X0000916858Y0000736568D01*
X0000919245Y0000734181D01*
X0000919804Y0000733499D01*
X0000921679Y0000730693D01*
X0000921794Y0000730479D01*
X0000921794Y0000730479D01*
X0000921980Y0000730130D01*
X0000921980Y0000730130D01*
X0000922095Y0000729915D01*
X0000923386Y0000726797D01*
X0000923642Y0000725954D01*
X0000924301Y0000722643D01*
X0000924387Y0000721766D01*
X0000924387Y0000721041D01*
X0000924411Y0000720559D01*
X0000924482Y0000719837D01*
X0000924482Y0000700635D01*
X0000924411Y0000699913D01*
X0000924387Y0000699431D01*
X0000924387Y0000698705D01*
X0000924301Y0000697828D01*
X0000923642Y0000694518D01*
X0000923386Y0000693674D01*
X0000922095Y0000690556D01*
X0000921980Y0000690342D01*
X0000921980Y0000690342D01*
X0000921794Y0000689993D01*
X0000921794Y0000689993D01*
X0000921679Y0000689778D01*
X0000919804Y0000686972D01*
X0000919245Y0000686291D01*
X0000916858Y0000683904D01*
X0000916177Y0000683345D01*
X0000913370Y0000681470D01*
X0000913156Y0000681355D01*
X0000913156Y0000681355D01*
X0000912807Y0000681169D01*
X0000912807Y0000681168D01*
X0000912592Y0000681054D01*
X0000909474Y0000679762D01*
X0000908631Y0000679506D01*
X0000905320Y0000678848D01*
X0000904443Y0000678762D01*
X0000903718Y0000678762D01*
X0000903236Y0000678738D01*
X0000902514Y0000678667D01*
X0000883312Y0000678667D01*
X0000882677Y0000678729D01*
X0000882298Y0000678844D01*
X0000881949Y0000679031D01*
X0000881644Y0000679282D01*
X0000881242Y0000679771D01*
X0000880969Y0000680180D01*
X0000880287Y0000680862D01*
X0000879485Y0000681398D01*
X0000878593Y0000681767D01*
X0000877647Y0000681955D01*
X0000876682Y0000681955D01*
X0000875736Y0000681767D01*
X0000874845Y0000681398D01*
X0000874043Y0000680862D01*
X0000873361Y0000680179D01*
X0000873088Y0000679771D01*
X0000872686Y0000679282D01*
X0000872380Y0000679031D01*
X0000872031Y0000678844D01*
X0000871653Y0000678729D01*
X0000871018Y0000678667D01*
X0000851816Y0000678667D01*
X0000851094Y0000678738D01*
X0000850612Y0000678762D01*
X0000849887Y0000678762D01*
X0000849009Y0000678848D01*
X0000845699Y0000679506D01*
X0000844855Y0000679762D01*
X0000841737Y0000681054D01*
X0000841523Y0000681168D01*
X0000841523Y0000681169D01*
X0000841174Y0000681355D01*
X0000841174Y0000681355D01*
X0000840960Y0000681470D01*
X0000838153Y0000683345D01*
X0000837472Y0000683904D01*
X0000835085Y0000686291D01*
X0000834526Y0000686972D01*
X0000832651Y0000689778D01*
X0000832536Y0000689993D01*
X0000832536Y0000689993D01*
X0000832350Y0000690342D01*
X0000832350Y0000690342D01*
X0000832235Y0000690556D01*
X0000830943Y0000693674D01*
X0000830688Y0000694518D01*
X0000830029Y0000697828D01*
X0000829943Y0000698705D01*
X0000829943Y0000699431D01*
X0000829919Y0000699913D01*
X0000829848Y0000700635D01*
X0000829848Y0000719837D01*
X0000829919Y0000720559D01*
X0000829943Y0000721041D01*
X0000829943Y0000721766D01*
X0000830029Y0000722643D01*
X0000830688Y0000725954D01*
X0000830943Y0000726797D01*
X0000832235Y0000729915D01*
X0000832350Y0000730130D01*
X0000832350Y0000730130D01*
X0000832536Y0000730479D01*
X0000832536Y0000730479D01*
X0000832651Y0000730693D01*
X0000834526Y0000733499D01*
X0000835085Y0000734181D01*
X0000837472Y0000736568D01*
X0000838153Y0000737127D01*
X0000840960Y0000739002D01*
X0000841174Y0000739116D01*
X0000841174Y0000739116D01*
X0000841523Y0000739303D01*
X0000841523Y0000739303D01*
X0000841737Y0000739418D01*
X0000844855Y0000740709D01*
X0000845699Y0000740965D01*
X0000849009Y0000741624D01*
X0000849887Y0000741710D01*
X0000850612Y0000741710D01*
X0000851094Y0000741734D01*
X0000851816Y0000741805D01*
X0000871018Y0000741805D01*
X0000871653Y0000741742D01*
X0000871653Y0000741742D01*
G37*
G36*
X0001031873Y0000739248D02*
G01*
X0001033211Y0000738842D01*
X0001034444Y0000738183D01*
X0001035525Y0000737296D01*
X0001036412Y0000736216D01*
X0001037071Y0000734983D01*
X0001037476Y0000733645D01*
X0001037637Y0000732012D01*
X0001037637Y0000708342D01*
X0001037476Y0000706709D01*
X0001037071Y0000705371D01*
X0001036412Y0000704138D01*
X0001035525Y0000703057D01*
X0001034444Y0000702170D01*
X0001033211Y0000701511D01*
X0001031873Y0000701105D01*
X0001030240Y0000700944D01*
X0001003617Y0000700944D01*
X0001001984Y0000701105D01*
X0001000646Y0000701511D01*
X0000999413Y0000702170D01*
X0000998333Y0000703057D01*
X0000997446Y0000704138D01*
X0000996787Y0000705371D01*
X0000996381Y0000706709D01*
X0000996220Y0000708342D01*
X0000996220Y0000732012D01*
X0000996381Y0000733645D01*
X0000996787Y0000734983D01*
X0000997446Y0000736216D01*
X0000998333Y0000737296D01*
X0000999413Y0000738183D01*
X0001000646Y0000738842D01*
X0001001984Y0000739248D01*
X0001003617Y0000739409D01*
X0001030240Y0000739409D01*
X0001031873Y0000739248D01*
X0001031873Y0000739248D01*
G37*
G36*
X0001031873Y0000801256D02*
G01*
X0001033211Y0000800850D01*
X0001034444Y0000800191D01*
X0001035525Y0000799304D01*
X0001036412Y0000798224D01*
X0001037071Y0000796990D01*
X0001037476Y0000795653D01*
X0001037637Y0000794020D01*
X0001037637Y0000770350D01*
X0001037476Y0000768716D01*
X0001037071Y0000767379D01*
X0001036412Y0000766146D01*
X0001035525Y0000765065D01*
X0001034444Y0000764178D01*
X0001033211Y0000763519D01*
X0001031873Y0000763113D01*
X0001030240Y0000762952D01*
X0001003617Y0000762952D01*
X0001001984Y0000763113D01*
X0001000646Y0000763519D01*
X0000999413Y0000764178D01*
X0000998333Y0000765065D01*
X0000997446Y0000766146D01*
X0000996787Y0000767379D01*
X0000996381Y0000768716D01*
X0000996220Y0000770350D01*
X0000996220Y0000794020D01*
X0000996381Y0000795653D01*
X0000996787Y0000796990D01*
X0000997446Y0000798224D01*
X0000998333Y0000799304D01*
X0000999413Y0000800191D01*
X0001000646Y0000800850D01*
X0001001984Y0000801256D01*
X0001003617Y0000801417D01*
X0001030240Y0000801417D01*
X0001031873Y0000801256D01*
X0001031873Y0000801256D01*
G37*
G36*
X0000679173Y0000781456D02*
G01*
X0000596417Y0000781456D01*
X0000596417Y0000864212D01*
X0000679173Y0000864212D01*
X0000679173Y0000781456D01*
X0000679173Y0000781456D01*
G37*
G36*
X0001153527Y0000842398D02*
G01*
X0001154864Y0000841992D01*
X0001156098Y0000841333D01*
X0001157178Y0000840446D01*
X0001158065Y0000839365D01*
X0001158724Y0000838132D01*
X0001159130Y0000836794D01*
X0001159291Y0000835161D01*
X0001159291Y0000811491D01*
X0001159130Y0000809858D01*
X0001158724Y0000808520D01*
X0001158065Y0000807287D01*
X0001157178Y0000806207D01*
X0001156098Y0000805320D01*
X0001154864Y0000804661D01*
X0001153527Y0000804255D01*
X0001151894Y0000804094D01*
X0001125271Y0000804094D01*
X0001123638Y0000804255D01*
X0001122300Y0000804661D01*
X0001121067Y0000805320D01*
X0001119986Y0000806207D01*
X0001119099Y0000807287D01*
X0001118440Y0000808520D01*
X0001118034Y0000809858D01*
X0001117874Y0000811491D01*
X0001117874Y0000835161D01*
X0001118034Y0000836794D01*
X0001118440Y0000838132D01*
X0001119099Y0000839365D01*
X0001119986Y0000840446D01*
X0001121067Y0000841333D01*
X0001122300Y0000841992D01*
X0001123638Y0000842398D01*
X0001125271Y0000842559D01*
X0001151894Y0000842559D01*
X0001153527Y0000842398D01*
X0001153527Y0000842398D01*
G37*
G36*
X0001153527Y0000904406D02*
G01*
X0001154864Y0000904000D01*
X0001156098Y0000903341D01*
X0001157178Y0000902454D01*
X0001158065Y0000901373D01*
X0001158724Y0000900140D01*
X0001159130Y0000898802D01*
X0001159291Y0000897169D01*
X0001159291Y0000873499D01*
X0001159130Y0000871866D01*
X0001158724Y0000870528D01*
X0001158065Y0000869295D01*
X0001157178Y0000868215D01*
X0001156098Y0000867328D01*
X0001154864Y0000866669D01*
X0001153527Y0000866263D01*
X0001151894Y0000866102D01*
X0001125271Y0000866102D01*
X0001123638Y0000866263D01*
X0001122300Y0000866669D01*
X0001121067Y0000867328D01*
X0001119986Y0000868215D01*
X0001119099Y0000869295D01*
X0001118440Y0000870528D01*
X0001118034Y0000871866D01*
X0001117874Y0000873499D01*
X0001117874Y0000897169D01*
X0001118034Y0000898802D01*
X0001118440Y0000900140D01*
X0001119099Y0000901373D01*
X0001119986Y0000902454D01*
X0001121067Y0000903341D01*
X0001122300Y0000904000D01*
X0001123638Y0000904406D01*
X0001125271Y0000904566D01*
X0001151894Y0000904566D01*
X0001153527Y0000904406D01*
X0001153527Y0000904406D01*
G37*
G04 next file*
G04 #@! TF.GenerationSoftware,KiCad,Pcbnew,(5.1.0)-1*
G04 #@! TF.CreationDate,2019-07-24T00:39:13-06:00*
G04 #@! TF.ProjectId,twinkletwinkie,7477696e-6b6c-4657-9477-696e6b69652e,rev?*
G04 #@! TF.SameCoordinates,PX89e92d0PY44794c0*
G04 #@! TF.FileFunction,Soldermask,Bot*
G04 #@! TF.FilePolarity,Negative*
G04 Gerber Fmt 4.6, Leading zero omitted, Abs format (unit mm)*
G04 Created by KiCad (PCBNEW (5.1.0)-1) date 2019-07-24 00:39:13*
G04 APERTURE LIST*
G04 APERTURE END LIST*
D23*
G36*
X0003797283Y0002192296D02*
G01*
X0003797283Y0002109540D01*
X0003714527Y0002109540D01*
X0003714527Y0002192296D01*
X0003797283Y0002192296D01*
X0003797283Y0002192296D01*
G37*
G36*
X0003763031Y0002346058D02*
G01*
X0003763031Y0002263302D01*
X0003680275Y0002263302D01*
X0003680275Y0002346058D01*
X0003763031Y0002346058D01*
X0003763031Y0002346058D01*
G37*
G36*
X0003744527Y0002499820D02*
G01*
X0003744527Y0002417064D01*
X0003661771Y0002417064D01*
X0003661771Y0002499820D01*
X0003744527Y0002499820D01*
X0003744527Y0002499820D01*
G37*
G36*
X0003717362Y0002653582D02*
G01*
X0003717362Y0002570826D01*
X0003634606Y0002570826D01*
X0003634606Y0002653582D01*
X0003717362Y0002653582D01*
X0003717362Y0002653582D01*
G37*
G36*
X0003530921Y0001866627D02*
G01*
X0003530921Y0001866627D01*
X0003571985Y0001884333D01*
X0003572829Y0001884800D01*
X0003573566Y0001885423D01*
X0003574167Y0001886177D01*
X0003574427Y0001886629D01*
X0003589370Y0001916141D01*
X0003589551Y0001915912D01*
X0003607539Y0001893151D01*
X0003608209Y0001892457D01*
X0003609001Y0001891906D01*
X0003609885Y0001891520D01*
X0003610435Y0001891377D01*
X0003624192Y0001888626D01*
X0003625152Y0001888530D01*
X0003626112Y0001888624D01*
X0003627036Y0001888903D01*
X0003627887Y0001889357D01*
X0003628633Y0001889968D01*
X0003629246Y0001890713D01*
X0003629702Y0001891563D01*
X0003629983Y0001892486D01*
X0003630078Y0001893451D01*
X0003630078Y0001913956D01*
X0003684094Y0001913956D01*
X0003684094Y0001874940D01*
X0003635563Y0001874940D01*
X0003634603Y0001874846D01*
X0003633680Y0001874566D01*
X0003632829Y0001874111D01*
X0003632083Y0001873499D01*
X0003631471Y0001872753D01*
X0003631016Y0001871902D01*
X0003630736Y0001870979D01*
X0003630642Y0001870019D01*
X0003630676Y0001869707D01*
X0003630683Y0001869368D01*
X0003630708Y0001869291D01*
X0003628464Y0001858264D01*
X0003626753Y0001849859D01*
X0003626654Y0001848899D01*
X0003626745Y0001847939D01*
X0003627020Y0001847014D01*
X0003627471Y0001846162D01*
X0003628080Y0001845413D01*
X0003628823Y0001844798D01*
X0003629672Y0001844339D01*
X0003630594Y0001844055D01*
X0003631575Y0001843956D01*
X0003684094Y0001843956D01*
X0003684094Y0001804940D01*
X0003630078Y0001804940D01*
X0003630078Y0001821355D01*
X0003629984Y0001822315D01*
X0003629704Y0001823239D01*
X0003629249Y0001824089D01*
X0003628637Y0001824835D01*
X0003627891Y0001825447D01*
X0003627040Y0001825902D01*
X0003626117Y0001826182D01*
X0003625157Y0001826276D01*
X0003624197Y0001826182D01*
X0003623274Y0001825902D01*
X0003622423Y0001825447D01*
X0003622083Y0001825140D01*
X0003622062Y0001825165D01*
X0003621662Y0001824849D01*
X0003621653Y0001824803D01*
X0003596511Y0001809089D01*
X0003596403Y0001809019D01*
X0003589551Y0001804482D01*
X0003567322Y0001789763D01*
X0003560092Y0001836190D01*
X0003559851Y0001837124D01*
X0003559432Y0001837993D01*
X0003558685Y0001838936D01*
X0003552763Y0001844778D01*
X0003530708Y0001866535D01*
X0003530921Y0001866627D01*
X0003530921Y0001866627D01*
G37*
G36*
X0003636538Y0002052346D02*
G01*
X0003636944Y0002053683D01*
X0003637603Y0002054916D01*
X0003638490Y0002055997D01*
X0003639571Y0002056884D01*
X0003640804Y0002057543D01*
X0003642142Y0002057949D01*
X0003643775Y0002058110D01*
X0003670398Y0002058110D01*
X0003672031Y0002057949D01*
X0003673368Y0002057543D01*
X0003674601Y0002056884D01*
X0003675682Y0002055997D01*
X0003676569Y0002054916D01*
X0003677228Y0002053683D01*
X0003677634Y0002052346D01*
X0003677795Y0002050712D01*
X0003677795Y0002027042D01*
X0003677634Y0002025409D01*
X0003677228Y0002024072D01*
X0003676569Y0002022838D01*
X0003675682Y0002021758D01*
X0003674601Y0002020871D01*
X0003673368Y0002020212D01*
X0003672031Y0002019806D01*
X0003670398Y0002019645D01*
X0003643775Y0002019645D01*
X0003642142Y0002019806D01*
X0003640804Y0002020212D01*
X0003639571Y0002020871D01*
X0003638490Y0002021758D01*
X0003637603Y0002022838D01*
X0003636944Y0002024072D01*
X0003636538Y0002025409D01*
X0003636377Y0002027042D01*
X0003636377Y0002050712D01*
X0003636538Y0002052346D01*
X0003636538Y0002052346D01*
G37*
G36*
X0003636538Y0001990338D02*
G01*
X0003636944Y0001991675D01*
X0003637603Y0001992909D01*
X0003638490Y0001993989D01*
X0003639571Y0001994876D01*
X0003640804Y0001995535D01*
X0003642142Y0001995941D01*
X0003643775Y0001996102D01*
X0003670398Y0001996102D01*
X0003672031Y0001995941D01*
X0003673368Y0001995535D01*
X0003674601Y0001994876D01*
X0003675682Y0001993989D01*
X0003676569Y0001992909D01*
X0003677228Y0001991675D01*
X0003677634Y0001990338D01*
X0003677795Y0001988705D01*
X0003677795Y0001965035D01*
X0003677634Y0001963401D01*
X0003677228Y0001962064D01*
X0003676569Y0001960831D01*
X0003675682Y0001959750D01*
X0003674601Y0001958863D01*
X0003673368Y0001958204D01*
X0003672031Y0001957798D01*
X0003670398Y0001957637D01*
X0003643775Y0001957637D01*
X0003642142Y0001957798D01*
X0003640804Y0001958204D01*
X0003639571Y0001958863D01*
X0003638490Y0001959750D01*
X0003637603Y0001960831D01*
X0003636944Y0001962064D01*
X0003636538Y0001963401D01*
X0003636377Y0001965035D01*
X0003636377Y0001988705D01*
X0003636538Y0001990338D01*
X0003636538Y0001990338D01*
G37*
G36*
X0003592343Y0001393324D02*
G01*
X0003592599Y0001395930D01*
X0003594628Y0001402616D01*
X0003597922Y0001408779D01*
X0003599076Y0001410186D01*
X0003602354Y0001414180D01*
X0003606349Y0001417458D01*
X0003607756Y0001418613D01*
X0003613918Y0001421907D01*
X0003620605Y0001423935D01*
X0003627559Y0001424620D01*
X0003634512Y0001423935D01*
X0003641199Y0001421907D01*
X0003647361Y0001418613D01*
X0003648768Y0001417458D01*
X0003652763Y0001414180D01*
X0003656041Y0001410186D01*
X0003657195Y0001408779D01*
X0003660489Y0001402616D01*
X0003662518Y0001395930D01*
X0003662774Y0001393324D01*
X0003663031Y0001390718D01*
X0003663031Y0001387233D01*
X0003662774Y0001384628D01*
X0003662518Y0001382022D01*
X0003660489Y0001375335D01*
X0003657195Y0001369173D01*
X0003656041Y0001367766D01*
X0003652763Y0001363772D01*
X0003648768Y0001360494D01*
X0003647361Y0001359339D01*
X0003641199Y0001356045D01*
X0003634512Y0001354017D01*
X0003627559Y0001353332D01*
X0003620605Y0001354017D01*
X0003613918Y0001356045D01*
X0003607756Y0001359339D01*
X0003606349Y0001360494D01*
X0003602354Y0001363772D01*
X0003599076Y0001367766D01*
X0003597922Y0001369173D01*
X0003594628Y0001375335D01*
X0003592599Y0001382022D01*
X0003592343Y0001384628D01*
X0003592086Y0001387233D01*
X0003592086Y0001390718D01*
X0003592343Y0001393324D01*
X0003592343Y0001393324D01*
G37*
G36*
X0003592343Y0001293324D02*
G01*
X0003592599Y0001295930D01*
X0003594628Y0001302616D01*
X0003597922Y0001308779D01*
X0003599076Y0001310186D01*
X0003602354Y0001314180D01*
X0003606349Y0001317458D01*
X0003607756Y0001318613D01*
X0003613918Y0001321907D01*
X0003620605Y0001323935D01*
X0003627559Y0001324620D01*
X0003634512Y0001323935D01*
X0003641199Y0001321907D01*
X0003647361Y0001318613D01*
X0003648768Y0001317458D01*
X0003652763Y0001314180D01*
X0003656041Y0001310186D01*
X0003657195Y0001308779D01*
X0003660489Y0001302616D01*
X0003662518Y0001295930D01*
X0003662774Y0001293324D01*
X0003663031Y0001290718D01*
X0003663031Y0001287233D01*
X0003662774Y0001284628D01*
X0003662518Y0001282022D01*
X0003660489Y0001275335D01*
X0003657195Y0001269173D01*
X0003656041Y0001267766D01*
X0003652763Y0001263772D01*
X0003648768Y0001260494D01*
X0003647361Y0001259339D01*
X0003641199Y0001256045D01*
X0003634512Y0001254017D01*
X0003627559Y0001253332D01*
X0003620605Y0001254017D01*
X0003613918Y0001256045D01*
X0003607756Y0001259339D01*
X0003606349Y0001260494D01*
X0003602354Y0001263772D01*
X0003599076Y0001267766D01*
X0003597922Y0001269173D01*
X0003594628Y0001275335D01*
X0003592599Y0001282022D01*
X0003592343Y0001284628D01*
X0003592086Y0001287233D01*
X0003592086Y0001290718D01*
X0003592343Y0001293324D01*
X0003592343Y0001293324D01*
G37*
G36*
X0003592343Y0001193324D02*
G01*
X0003592599Y0001195930D01*
X0003594628Y0001202616D01*
X0003597922Y0001208779D01*
X0003599076Y0001210186D01*
X0003602354Y0001214180D01*
X0003606349Y0001217458D01*
X0003607756Y0001218613D01*
X0003613918Y0001221907D01*
X0003620605Y0001223935D01*
X0003627559Y0001224620D01*
X0003634512Y0001223935D01*
X0003641199Y0001221907D01*
X0003647361Y0001218613D01*
X0003648768Y0001217458D01*
X0003652763Y0001214180D01*
X0003656041Y0001210186D01*
X0003657195Y0001208779D01*
X0003660489Y0001202616D01*
X0003662518Y0001195930D01*
X0003662774Y0001193324D01*
X0003663031Y0001190718D01*
X0003663031Y0001187233D01*
X0003662774Y0001184628D01*
X0003662518Y0001182022D01*
X0003660489Y0001175335D01*
X0003657195Y0001169173D01*
X0003656041Y0001167766D01*
X0003652763Y0001163772D01*
X0003648768Y0001160494D01*
X0003647361Y0001159339D01*
X0003641199Y0001156045D01*
X0003634512Y0001154017D01*
X0003627559Y0001153332D01*
X0003620605Y0001154017D01*
X0003613918Y0001156045D01*
X0003607756Y0001159339D01*
X0003606349Y0001160494D01*
X0003602354Y0001163772D01*
X0003599076Y0001167766D01*
X0003597922Y0001169173D01*
X0003594628Y0001175335D01*
X0003592599Y0001182022D01*
X0003592343Y0001184628D01*
X0003592086Y0001187233D01*
X0003592086Y0001190718D01*
X0003592343Y0001193324D01*
X0003592343Y0001193324D01*
G37*
G36*
X0003436251Y0002729289D02*
G01*
X0003436616Y0002730438D01*
X0003444378Y0002771967D01*
X0003454381Y0002770227D01*
X0003478840Y0002765973D01*
X0003480599Y0002765667D01*
X0003480838Y0002765501D01*
X0003500872Y0002751632D01*
X0003500872Y0002751632D01*
X0003501071Y0002751494D01*
X0003504304Y0002744421D01*
X0003507295Y0002737878D01*
X0003507781Y0002737044D01*
X0003508419Y0002736321D01*
X0003509186Y0002735736D01*
X0003510053Y0002735313D01*
X0003510986Y0002735066D01*
X0003511949Y0002735006D01*
X0003512905Y0002735135D01*
X0003513817Y0002735448D01*
X0003514651Y0002735934D01*
X0003515374Y0002736572D01*
X0003515959Y0002737339D01*
X0003516383Y0002738206D01*
X0003516629Y0002739139D01*
X0003516692Y0002739924D01*
X0003516692Y0002772618D01*
X0003570708Y0002772618D01*
X0003570708Y0002733602D01*
X0003516911Y0002733602D01*
X0003515951Y0002733507D01*
X0003515028Y0002733227D01*
X0003514177Y0002732772D01*
X0003513431Y0002732160D01*
X0003512819Y0002731415D01*
X0003512364Y0002730564D01*
X0003512084Y0002729641D01*
X0003511990Y0002728681D01*
X0003512084Y0002727721D01*
X0003512435Y0002726635D01*
X0003519740Y0002710655D01*
X0003519969Y0002710156D01*
X0003519819Y0002709764D01*
X0003519641Y0002709301D01*
X0003519385Y0002708371D01*
X0003519316Y0002707409D01*
X0003519436Y0002706452D01*
X0003519740Y0002705536D01*
X0003520217Y0002704698D01*
X0003520849Y0002703968D01*
X0003521610Y0002703376D01*
X0003522473Y0002702944D01*
X0003523403Y0002702689D01*
X0003524236Y0002702618D01*
X0003570708Y0002702618D01*
X0003570708Y0002663602D01*
X0003516692Y0002663602D01*
X0003516692Y0002675050D01*
X0003516598Y0002676010D01*
X0003516318Y0002676933D01*
X0003515863Y0002677784D01*
X0003515251Y0002678529D01*
X0003514505Y0002679141D01*
X0003513654Y0002679596D01*
X0003512731Y0002679876D01*
X0003511771Y0002679971D01*
X0003510811Y0002679876D01*
X0003509888Y0002679596D01*
X0003509037Y0002679141D01*
X0003508291Y0002678529D01*
X0003507679Y0002677784D01*
X0003507177Y0002676812D01*
X0003496040Y0002647783D01*
X0003496039Y0002647783D01*
X0003495953Y0002647557D01*
X0003461418Y0002679406D01*
X0003460648Y0002679987D01*
X0003459339Y0002680546D01*
X0003454446Y0002681839D01*
X0003418787Y0002691258D01*
X0003436251Y0002729289D01*
X0003436251Y0002729289D01*
G37*
G36*
X0003523152Y0002920850D02*
G01*
X0003523558Y0002922187D01*
X0003524217Y0002923420D01*
X0003525104Y0002924501D01*
X0003526185Y0002925388D01*
X0003527418Y0002926047D01*
X0003528756Y0002926453D01*
X0003530389Y0002926614D01*
X0003557012Y0002926614D01*
X0003558645Y0002926453D01*
X0003559983Y0002926047D01*
X0003561216Y0002925388D01*
X0003562296Y0002924501D01*
X0003563183Y0002923420D01*
X0003563842Y0002922187D01*
X0003564248Y0002920850D01*
X0003564409Y0002919216D01*
X0003564409Y0002895546D01*
X0003564248Y0002893913D01*
X0003563842Y0002892576D01*
X0003563183Y0002891342D01*
X0003562296Y0002890262D01*
X0003561216Y0002889375D01*
X0003559983Y0002888716D01*
X0003558645Y0002888310D01*
X0003557012Y0002888149D01*
X0003530389Y0002888149D01*
X0003528756Y0002888310D01*
X0003527418Y0002888716D01*
X0003526185Y0002889375D01*
X0003525104Y0002890262D01*
X0003524217Y0002891342D01*
X0003523558Y0002892576D01*
X0003523152Y0002893913D01*
X0003522992Y0002895546D01*
X0003522992Y0002919216D01*
X0003523152Y0002920850D01*
X0003523152Y0002920850D01*
G37*
G36*
X0003523152Y0002858842D02*
G01*
X0003523558Y0002860179D01*
X0003524217Y0002861412D01*
X0003525104Y0002862493D01*
X0003526185Y0002863380D01*
X0003527418Y0002864039D01*
X0003528756Y0002864445D01*
X0003530389Y0002864606D01*
X0003557012Y0002864606D01*
X0003558645Y0002864445D01*
X0003559983Y0002864039D01*
X0003561216Y0002863380D01*
X0003562296Y0002862493D01*
X0003563183Y0002861412D01*
X0003563842Y0002860179D01*
X0003564248Y0002858842D01*
X0003564409Y0002857209D01*
X0003564409Y0002833538D01*
X0003564248Y0002831905D01*
X0003563842Y0002830568D01*
X0003563183Y0002829335D01*
X0003562296Y0002828254D01*
X0003561216Y0002827367D01*
X0003559983Y0002826708D01*
X0003558645Y0002826302D01*
X0003557012Y0002826141D01*
X0003530389Y0002826141D01*
X0003528756Y0002826302D01*
X0003527418Y0002826708D01*
X0003526185Y0002827367D01*
X0003525104Y0002828254D01*
X0003524217Y0002829335D01*
X0003523558Y0002830568D01*
X0003523152Y0002831905D01*
X0003522992Y0002833538D01*
X0003522992Y0002857209D01*
X0003523152Y0002858842D01*
X0003523152Y0002858842D01*
G37*
G36*
X0003492280Y0001393445D02*
G01*
X0003493449Y0001399323D01*
X0003496123Y0001405778D01*
X0003500005Y0001411588D01*
X0003504946Y0001416529D01*
X0003510756Y0001420411D01*
X0003517212Y0001423085D01*
X0003524065Y0001424448D01*
X0003531052Y0001424448D01*
X0003537905Y0001423085D01*
X0003544361Y0001420411D01*
X0003550171Y0001416529D01*
X0003555112Y0001411588D01*
X0003558994Y0001405778D01*
X0003561668Y0001399323D01*
X0003562788Y0001393690D01*
X0003563031Y0001392470D01*
X0003563031Y0001385482D01*
X0003562788Y0001384262D01*
X0003561668Y0001378629D01*
X0003558994Y0001372173D01*
X0003555112Y0001366364D01*
X0003550171Y0001361423D01*
X0003544361Y0001357541D01*
X0003537905Y0001354867D01*
X0003531052Y0001353503D01*
X0003524065Y0001353503D01*
X0003517212Y0001354867D01*
X0003510756Y0001357541D01*
X0003504946Y0001361423D01*
X0003500005Y0001366364D01*
X0003496123Y0001372173D01*
X0003493449Y0001378629D01*
X0003492280Y0001384507D01*
X0003492086Y0001385482D01*
X0003492086Y0001392470D01*
X0003492280Y0001393445D01*
X0003492280Y0001393445D01*
G37*
G36*
X0003492280Y0001293445D02*
G01*
X0003493449Y0001299323D01*
X0003496123Y0001305778D01*
X0003500005Y0001311588D01*
X0003504946Y0001316529D01*
X0003510756Y0001320411D01*
X0003517212Y0001323085D01*
X0003524065Y0001324448D01*
X0003531052Y0001324448D01*
X0003537905Y0001323085D01*
X0003544361Y0001320411D01*
X0003550171Y0001316529D01*
X0003555112Y0001311588D01*
X0003558994Y0001305778D01*
X0003561668Y0001299323D01*
X0003562788Y0001293690D01*
X0003563031Y0001292470D01*
X0003563031Y0001285482D01*
X0003562788Y0001284262D01*
X0003561668Y0001278629D01*
X0003558994Y0001272173D01*
X0003555112Y0001266363D01*
X0003550171Y0001261423D01*
X0003544361Y0001257541D01*
X0003537905Y0001254867D01*
X0003531052Y0001253503D01*
X0003524065Y0001253503D01*
X0003517212Y0001254867D01*
X0003510756Y0001257541D01*
X0003504946Y0001261423D01*
X0003500005Y0001266363D01*
X0003496123Y0001272173D01*
X0003493449Y0001278629D01*
X0003492280Y0001284507D01*
X0003492086Y0001285482D01*
X0003492086Y0001292470D01*
X0003492280Y0001293445D01*
X0003492280Y0001293445D01*
G37*
G36*
X0003492343Y0001193324D02*
G01*
X0003492599Y0001195930D01*
X0003494628Y0001202616D01*
X0003494628Y0001202616D01*
X0003495953Y0001205095D01*
X0003497922Y0001208779D01*
X0003499076Y0001210186D01*
X0003502354Y0001214180D01*
X0003506349Y0001217458D01*
X0003507756Y0001218613D01*
X0003513918Y0001221907D01*
X0003520605Y0001223935D01*
X0003527559Y0001224620D01*
X0003534512Y0001223935D01*
X0003541199Y0001221907D01*
X0003547361Y0001218613D01*
X0003547602Y0001218415D01*
X0003552763Y0001214180D01*
X0003555112Y0001211318D01*
X0003557195Y0001208779D01*
X0003557196Y0001208779D01*
X0003559842Y0001203827D01*
X0003560489Y0001202616D01*
X0003562518Y0001195930D01*
X0003562774Y0001193324D01*
X0003563031Y0001190718D01*
X0003563031Y0001187233D01*
X0003562774Y0001184628D01*
X0003562518Y0001182022D01*
X0003560489Y0001175335D01*
X0003559842Y0001174124D01*
X0003557196Y0001169173D01*
X0003557195Y0001169173D01*
X0003555112Y0001166634D01*
X0003552763Y0001163772D01*
X0003547602Y0001159537D01*
X0003547361Y0001159339D01*
X0003541199Y0001156045D01*
X0003534512Y0001154017D01*
X0003527559Y0001153332D01*
X0003520605Y0001154017D01*
X0003513918Y0001156045D01*
X0003507756Y0001159339D01*
X0003506349Y0001160494D01*
X0003502354Y0001163772D01*
X0003499076Y0001167766D01*
X0003497922Y0001169173D01*
X0003495953Y0001172856D01*
X0003494628Y0001175335D01*
X0003494628Y0001175335D01*
X0003492599Y0001182022D01*
X0003492343Y0001184628D01*
X0003492086Y0001187233D01*
X0003492086Y0001190718D01*
X0003492343Y0001193324D01*
X0003492343Y0001193324D01*
G37*
G36*
X0003489359Y0001616929D02*
G01*
X0003489474Y0001617307D01*
X0003489661Y0001617656D01*
X0003489911Y0001617962D01*
X0003490401Y0001618364D01*
X0003490810Y0001618636D01*
X0003491492Y0001619319D01*
X0003492028Y0001620121D01*
X0003492397Y0001621012D01*
X0003492585Y0001621958D01*
X0003492585Y0001622923D01*
X0003492397Y0001623869D01*
X0003492027Y0001624760D01*
X0003491491Y0001625563D01*
X0003490809Y0001626245D01*
X0003490401Y0001626518D01*
X0003489911Y0001626919D01*
X0003489661Y0001627225D01*
X0003489474Y0001627574D01*
X0003489359Y0001627952D01*
X0003489297Y0001628588D01*
X0003489297Y0001647789D01*
X0003489368Y0001648511D01*
X0003489391Y0001648994D01*
X0003489391Y0001649719D01*
X0003489478Y0001650596D01*
X0003490136Y0001653906D01*
X0003490392Y0001654750D01*
X0003491684Y0001657868D01*
X0003491798Y0001658082D01*
X0003491798Y0001658083D01*
X0003491985Y0001658431D01*
X0003491985Y0001658432D01*
X0003492100Y0001658646D01*
X0003493975Y0001661452D01*
X0003494534Y0001662134D01*
X0003496921Y0001664520D01*
X0003497602Y0001665079D01*
X0003500408Y0001666955D01*
X0003500623Y0001667069D01*
X0003500623Y0001667069D01*
X0003500972Y0001667256D01*
X0003500972Y0001667256D01*
X0003501186Y0001667370D01*
X0003504304Y0001668662D01*
X0003505148Y0001668918D01*
X0003508458Y0001669576D01*
X0003509335Y0001669663D01*
X0003510061Y0001669663D01*
X0003510543Y0001669686D01*
X0003511265Y0001669757D01*
X0003530467Y0001669757D01*
X0003531188Y0001669686D01*
X0003531671Y0001669663D01*
X0003532396Y0001669663D01*
X0003533273Y0001669576D01*
X0003536583Y0001668918D01*
X0003537427Y0001668662D01*
X0003540545Y0001667370D01*
X0003540759Y0001667256D01*
X0003540760Y0001667256D01*
X0003541109Y0001667069D01*
X0003541109Y0001667069D01*
X0003541323Y0001666955D01*
X0003544129Y0001665079D01*
X0003544811Y0001664520D01*
X0003547197Y0001662134D01*
X0003547757Y0001661452D01*
X0003549632Y0001658646D01*
X0003549746Y0001658432D01*
X0003549746Y0001658431D01*
X0003549933Y0001658083D01*
X0003549933Y0001658082D01*
X0003550048Y0001657868D01*
X0003551339Y0001654750D01*
X0003551595Y0001653906D01*
X0003552253Y0001650596D01*
X0003552340Y0001649719D01*
X0003552340Y0001648994D01*
X0003552364Y0001648511D01*
X0003552435Y0001647789D01*
X0003552435Y0001628588D01*
X0003552372Y0001627952D01*
X0003552257Y0001627574D01*
X0003552071Y0001627225D01*
X0003551820Y0001626919D01*
X0003551330Y0001626517D01*
X0003550922Y0001626244D01*
X0003550240Y0001625562D01*
X0003549704Y0001624760D01*
X0003549335Y0001623869D01*
X0003549146Y0001622923D01*
X0003549146Y0001621958D01*
X0003549335Y0001621012D01*
X0003549704Y0001620120D01*
X0003550240Y0001619318D01*
X0003550922Y0001618636D01*
X0003551330Y0001618363D01*
X0003551820Y0001617962D01*
X0003552071Y0001617656D01*
X0003552257Y0001617307D01*
X0003552372Y0001616929D01*
X0003552435Y0001616293D01*
X0003552435Y0001597092D01*
X0003552364Y0001596370D01*
X0003552340Y0001595887D01*
X0003552340Y0001595162D01*
X0003552253Y0001594285D01*
X0003551595Y0001590975D01*
X0003551339Y0001590131D01*
X0003550048Y0001587013D01*
X0003549933Y0001586799D01*
X0003549933Y0001586798D01*
X0003549746Y0001586450D01*
X0003549746Y0001586449D01*
X0003549632Y0001586235D01*
X0003547757Y0001583429D01*
X0003547197Y0001582747D01*
X0003544811Y0001580361D01*
X0003544129Y0001579802D01*
X0003541323Y0001577926D01*
X0003541109Y0001577812D01*
X0003541109Y0001577812D01*
X0003540760Y0001577625D01*
X0003540759Y0001577625D01*
X0003540545Y0001577511D01*
X0003537427Y0001576219D01*
X0003536583Y0001575963D01*
X0003533273Y0001575305D01*
X0003532396Y0001575218D01*
X0003531671Y0001575218D01*
X0003531188Y0001575195D01*
X0003530467Y0001575123D01*
X0003511265Y0001575123D01*
X0003510543Y0001575195D01*
X0003510061Y0001575218D01*
X0003509335Y0001575218D01*
X0003508458Y0001575305D01*
X0003505148Y0001575963D01*
X0003504304Y0001576219D01*
X0003501186Y0001577511D01*
X0003500972Y0001577625D01*
X0003500972Y0001577625D01*
X0003500623Y0001577812D01*
X0003500623Y0001577812D01*
X0003500408Y0001577926D01*
X0003497602Y0001579802D01*
X0003496921Y0001580361D01*
X0003494534Y0001582747D01*
X0003493975Y0001583429D01*
X0003492100Y0001586235D01*
X0003491985Y0001586449D01*
X0003491985Y0001586450D01*
X0003491798Y0001586798D01*
X0003491798Y0001586799D01*
X0003491684Y0001587013D01*
X0003490392Y0001590131D01*
X0003490136Y0001590975D01*
X0003489478Y0001594285D01*
X0003489391Y0001595162D01*
X0003489391Y0001595887D01*
X0003489368Y0001596370D01*
X0003489297Y0001597092D01*
X0003489297Y0001616293D01*
X0003489359Y0001616929D01*
X0003489359Y0001616929D01*
G37*
G36*
X0003371034Y0003045111D02*
G01*
X0003371034Y0003045111D01*
X0003376388Y0003052395D01*
X0003391165Y0003072502D01*
X0003394395Y0003076896D01*
X0003394887Y0003077726D01*
X0003395127Y0003078343D01*
X0003408559Y0003121327D01*
X0003408661Y0003121653D01*
X0003424633Y0003111431D01*
X0003438188Y0003102755D01*
X0003438190Y0003102754D01*
X0003460695Y0003088366D01*
X0003461555Y0003087928D01*
X0003462484Y0003087667D01*
X0003463445Y0003087592D01*
X0003464403Y0003087706D01*
X0003465321Y0003088005D01*
X0003466162Y0003088476D01*
X0003466895Y0003089103D01*
X0003467492Y0003089861D01*
X0003467930Y0003090721D01*
X0003468191Y0003091650D01*
X0003468267Y0003092512D01*
X0003468267Y0003117500D01*
X0003522283Y0003117500D01*
X0003522283Y0003078484D01*
X0003470306Y0003078484D01*
X0003469346Y0003078389D01*
X0003468423Y0003078109D01*
X0003467572Y0003077654D01*
X0003466826Y0003077042D01*
X0003466214Y0003076297D01*
X0003465759Y0003075446D01*
X0003465479Y0003074523D01*
X0003465385Y0003073563D01*
X0003465501Y0003072500D01*
X0003467893Y0003061690D01*
X0003470178Y0003051358D01*
X0003470478Y0003050441D01*
X0003470951Y0003049600D01*
X0003471579Y0003048867D01*
X0003472337Y0003048271D01*
X0003473198Y0003047835D01*
X0003474127Y0003047575D01*
X0003474983Y0003047500D01*
X0003522283Y0003047500D01*
X0003522283Y0003008484D01*
X0003468267Y0003008484D01*
X0003468267Y0003024229D01*
X0003468173Y0003025189D01*
X0003467893Y0003026112D01*
X0003467438Y0003026963D01*
X0003466826Y0003027709D01*
X0003466080Y0003028321D01*
X0003465229Y0003028775D01*
X0003464306Y0003029055D01*
X0003463346Y0003029150D01*
X0003462386Y0003029055D01*
X0003461463Y0003028775D01*
X0003460612Y0003028321D01*
X0003459866Y0003027709D01*
X0003459510Y0003027311D01*
X0003459339Y0003027098D01*
X0003454446Y0003021010D01*
X0003454226Y0003020714D01*
X0003431889Y0002988188D01*
X0003431738Y0002988446D01*
X0003408696Y0003027731D01*
X0003408129Y0003028512D01*
X0003407420Y0003029166D01*
X0003406378Y0003029770D01*
X0003371088Y0003044787D01*
X0003371088Y0003044787D01*
X0003370866Y0003044881D01*
X0003371034Y0003045111D01*
X0003371034Y0003045111D01*
G37*
G36*
X0003474727Y0003270062D02*
G01*
X0003475133Y0003271400D01*
X0003475792Y0003272633D01*
X0003476679Y0003273714D01*
X0003477760Y0003274601D01*
X0003478993Y0003275260D01*
X0003480331Y0003275665D01*
X0003481964Y0003275826D01*
X0003508587Y0003275826D01*
X0003510220Y0003275665D01*
X0003511557Y0003275260D01*
X0003512790Y0003274601D01*
X0003513871Y0003273714D01*
X0003514758Y0003272633D01*
X0003515417Y0003271400D01*
X0003515823Y0003270062D01*
X0003515984Y0003268429D01*
X0003515984Y0003244759D01*
X0003515823Y0003243126D01*
X0003515417Y0003241788D01*
X0003514758Y0003240555D01*
X0003513871Y0003239474D01*
X0003512790Y0003238587D01*
X0003511557Y0003237928D01*
X0003510220Y0003237523D01*
X0003508587Y0003237362D01*
X0003481964Y0003237362D01*
X0003480331Y0003237523D01*
X0003478993Y0003237928D01*
X0003477760Y0003238587D01*
X0003476679Y0003239474D01*
X0003475792Y0003240555D01*
X0003475133Y0003241788D01*
X0003474727Y0003243126D01*
X0003474566Y0003244759D01*
X0003474566Y0003268429D01*
X0003474727Y0003270062D01*
X0003474727Y0003270062D01*
G37*
G36*
X0003474727Y0003208054D02*
G01*
X0003475133Y0003209392D01*
X0003475792Y0003210625D01*
X0003476679Y0003211706D01*
X0003477760Y0003212593D01*
X0003478993Y0003213252D01*
X0003480331Y0003213658D01*
X0003481964Y0003213818D01*
X0003508587Y0003213818D01*
X0003510220Y0003213658D01*
X0003511557Y0003213252D01*
X0003512790Y0003212593D01*
X0003513871Y0003211706D01*
X0003514758Y0003210625D01*
X0003515417Y0003209392D01*
X0003515823Y0003208054D01*
X0003515984Y0003206421D01*
X0003515984Y0003182751D01*
X0003515823Y0003181118D01*
X0003515417Y0003179780D01*
X0003514758Y0003178547D01*
X0003513871Y0003177466D01*
X0003512790Y0003176580D01*
X0003511557Y0003175920D01*
X0003510220Y0003175515D01*
X0003508587Y0003175354D01*
X0003481964Y0003175354D01*
X0003480331Y0003175515D01*
X0003478993Y0003175920D01*
X0003477760Y0003176580D01*
X0003476679Y0003177466D01*
X0003475792Y0003178547D01*
X0003475133Y0003179780D01*
X0003474727Y0003181118D01*
X0003474566Y0003182751D01*
X0003474566Y0003206421D01*
X0003474727Y0003208054D01*
X0003474727Y0003208054D01*
G37*
G36*
X0003304673Y0001764493D02*
G01*
X0003304675Y0001764516D01*
X0003304837Y0001765333D01*
X0003305137Y0001766056D01*
X0003305234Y0001766202D01*
X0003305689Y0001767053D01*
X0003305969Y0001767976D01*
X0003306064Y0001768936D01*
X0003305969Y0001769896D01*
X0003305689Y0001770819D01*
X0003304947Y0001772058D01*
X0003304791Y0001772248D01*
X0003304746Y0001772332D01*
X0003304718Y0001772424D01*
X0003304685Y0001772761D01*
X0003304685Y0001783143D01*
X0003304718Y0001783480D01*
X0003304767Y0001783643D01*
X0003305080Y0001784398D01*
X0003305268Y0001785344D01*
X0003305268Y0001786309D01*
X0003305080Y0001787255D01*
X0003304767Y0001788009D01*
X0003304718Y0001788172D01*
X0003304685Y0001788509D01*
X0003304685Y0001798892D01*
X0003304718Y0001799228D01*
X0003304767Y0001799391D01*
X0003305080Y0001800146D01*
X0003305268Y0001801092D01*
X0003305268Y0001802057D01*
X0003305080Y0001803003D01*
X0003304767Y0001803757D01*
X0003304718Y0001803920D01*
X0003304685Y0001804257D01*
X0003304685Y0001814640D01*
X0003304718Y0001814976D01*
X0003304746Y0001815068D01*
X0003304791Y0001815153D01*
X0003304947Y0001815343D01*
X0003305483Y0001816145D01*
X0003305852Y0001817036D01*
X0003306040Y0001817982D01*
X0003306040Y0001818947D01*
X0003305852Y0001819893D01*
X0003305234Y0001821199D01*
X0003305137Y0001821344D01*
X0003304837Y0001822068D01*
X0003304675Y0001822884D01*
X0003304673Y0001822908D01*
X0003304651Y0001823348D01*
X0003304651Y0001827044D01*
X0003304673Y0001827485D01*
X0003304675Y0001827509D01*
X0003304837Y0001828325D01*
X0003305137Y0001829048D01*
X0003305572Y0001829700D01*
X0003306126Y0001830253D01*
X0003306777Y0001830689D01*
X0003307501Y0001830988D01*
X0003308317Y0001831151D01*
X0003308341Y0001831153D01*
X0003308781Y0001831175D01*
X0003334103Y0001831175D01*
X0003334543Y0001831153D01*
X0003334567Y0001831151D01*
X0003335383Y0001830988D01*
X0003336110Y0001830687D01*
X0003337033Y0001830407D01*
X0003337993Y0001830313D01*
X0003338953Y0001830407D01*
X0003339877Y0001830687D01*
X0003340727Y0001831142D01*
X0003341473Y0001831754D01*
X0003342085Y0001832500D01*
X0003342540Y0001833351D01*
X0003342820Y0001834274D01*
X0003342915Y0001835234D01*
X0003342820Y0001836194D01*
X0003342540Y0001837117D01*
X0003342239Y0001837844D01*
X0003342077Y0001838660D01*
X0003342074Y0001838684D01*
X0003342053Y0001839124D01*
X0003342053Y0001864446D01*
X0003342074Y0001864886D01*
X0003342077Y0001864910D01*
X0003342239Y0001865726D01*
X0003342539Y0001866450D01*
X0003342974Y0001867101D01*
X0003343528Y0001867655D01*
X0003344179Y0001868090D01*
X0003344903Y0001868390D01*
X0003345719Y0001868552D01*
X0003345743Y0001868555D01*
X0003346183Y0001868576D01*
X0003349879Y0001868576D01*
X0003350319Y0001868555D01*
X0003350343Y0001868552D01*
X0003351159Y0001868390D01*
X0003351883Y0001868090D01*
X0003352029Y0001867993D01*
X0003352879Y0001867538D01*
X0003353803Y0001867258D01*
X0003354763Y0001867164D01*
X0003355723Y0001867258D01*
X0003356646Y0001867538D01*
X0003357885Y0001868281D01*
X0003358075Y0001868437D01*
X0003358159Y0001868482D01*
X0003358251Y0001868510D01*
X0003358588Y0001868543D01*
X0003368970Y0001868543D01*
X0003369307Y0001868510D01*
X0003369470Y0001868460D01*
X0003370225Y0001868148D01*
X0003371171Y0001867960D01*
X0003372135Y0001867960D01*
X0003373082Y0001868148D01*
X0003373836Y0001868460D01*
X0003373999Y0001868510D01*
X0003374336Y0001868543D01*
X0003384718Y0001868543D01*
X0003385055Y0001868510D01*
X0003385218Y0001868460D01*
X0003385973Y0001868148D01*
X0003386919Y0001867960D01*
X0003387884Y0001867960D01*
X0003388830Y0001868148D01*
X0003389584Y0001868460D01*
X0003389747Y0001868510D01*
X0003390084Y0001868543D01*
X0003400466Y0001868543D01*
X0003400803Y0001868510D01*
X0003400895Y0001868482D01*
X0003400979Y0001868437D01*
X0003401170Y0001868281D01*
X0003401972Y0001867745D01*
X0003402863Y0001867376D01*
X0003403809Y0001867187D01*
X0003404774Y0001867187D01*
X0003405720Y0001867376D01*
X0003407026Y0001867993D01*
X0003407171Y0001868090D01*
X0003407895Y0001868390D01*
X0003408711Y0001868552D01*
X0003408735Y0001868555D01*
X0003409175Y0001868576D01*
X0003412871Y0001868576D01*
X0003413312Y0001868555D01*
X0003413335Y0001868552D01*
X0003414151Y0001868390D01*
X0003414875Y0001868090D01*
X0003415527Y0001867655D01*
X0003416080Y0001867101D01*
X0003416515Y0001866450D01*
X0003416815Y0001865726D01*
X0003416978Y0001864910D01*
X0003416980Y0001864886D01*
X0003417002Y0001864446D01*
X0003417002Y0001839124D01*
X0003416980Y0001838684D01*
X0003416978Y0001838660D01*
X0003416815Y0001837844D01*
X0003416514Y0001837117D01*
X0003416234Y0001836194D01*
X0003416140Y0001835234D01*
X0003416234Y0001834274D01*
X0003416514Y0001833351D01*
X0003416969Y0001832500D01*
X0003417581Y0001831754D01*
X0003418327Y0001831142D01*
X0003419178Y0001830687D01*
X0003420101Y0001830407D01*
X0003421061Y0001830313D01*
X0003422021Y0001830407D01*
X0003422944Y0001830687D01*
X0003423671Y0001830988D01*
X0003424487Y0001831151D01*
X0003424511Y0001831153D01*
X0003424951Y0001831175D01*
X0003450273Y0001831175D01*
X0003450713Y0001831153D01*
X0003450737Y0001831151D01*
X0003451553Y0001830988D01*
X0003452277Y0001830689D01*
X0003452928Y0001830253D01*
X0003453482Y0001829700D01*
X0003453917Y0001829048D01*
X0003454217Y0001828325D01*
X0003454379Y0001827509D01*
X0003454381Y0001827485D01*
X0003454403Y0001827044D01*
X0003454403Y0001823348D01*
X0003454381Y0001822908D01*
X0003454379Y0001822884D01*
X0003454217Y0001822068D01*
X0003453917Y0001821344D01*
X0003453820Y0001821199D01*
X0003453365Y0001820348D01*
X0003453085Y0001819425D01*
X0003452990Y0001818465D01*
X0003453085Y0001817505D01*
X0003453365Y0001816581D01*
X0003454107Y0001815343D01*
X0003454263Y0001815153D01*
X0003454309Y0001815068D01*
X0003454336Y0001814976D01*
X0003454370Y0001814640D01*
X0003454370Y0001804257D01*
X0003454336Y0001803920D01*
X0003454287Y0001803757D01*
X0003453975Y0001803003D01*
X0003453786Y0001802057D01*
X0003453786Y0001801092D01*
X0003453975Y0001800146D01*
X0003454287Y0001799391D01*
X0003454336Y0001799228D01*
X0003454370Y0001798892D01*
X0003454370Y0001788509D01*
X0003454336Y0001788172D01*
X0003454287Y0001788009D01*
X0003453975Y0001787255D01*
X0003453786Y0001786309D01*
X0003453786Y0001785344D01*
X0003453975Y0001784398D01*
X0003454287Y0001783643D01*
X0003454336Y0001783480D01*
X0003454370Y0001783143D01*
X0003454370Y0001772761D01*
X0003454336Y0001772424D01*
X0003454309Y0001772332D01*
X0003454263Y0001772248D01*
X0003454107Y0001772058D01*
X0003453571Y0001771256D01*
X0003453202Y0001770364D01*
X0003453014Y0001769418D01*
X0003453014Y0001768454D01*
X0003453202Y0001767507D01*
X0003453820Y0001766202D01*
X0003453917Y0001766056D01*
X0003454217Y0001765333D01*
X0003454379Y0001764516D01*
X0003454381Y0001764493D01*
X0003454403Y0001764052D01*
X0003454403Y0001760356D01*
X0003454381Y0001759916D01*
X0003454379Y0001759892D01*
X0003454217Y0001759076D01*
X0003453917Y0001758352D01*
X0003453482Y0001757701D01*
X0003452928Y0001757147D01*
X0003452277Y0001756712D01*
X0003451553Y0001756412D01*
X0003450737Y0001756250D01*
X0003450713Y0001756247D01*
X0003450273Y0001756226D01*
X0003424951Y0001756226D01*
X0003424511Y0001756247D01*
X0003424487Y0001756250D01*
X0003423671Y0001756412D01*
X0003422944Y0001756713D01*
X0003422021Y0001756993D01*
X0003421061Y0001757088D01*
X0003420101Y0001756993D01*
X0003419177Y0001756713D01*
X0003418327Y0001756258D01*
X0003417581Y0001755646D01*
X0003416969Y0001754901D01*
X0003416514Y0001754050D01*
X0003416234Y0001753127D01*
X0003416140Y0001752166D01*
X0003416234Y0001751206D01*
X0003416514Y0001750283D01*
X0003416815Y0001749557D01*
X0003416978Y0001748740D01*
X0003416980Y0001748717D01*
X0003417002Y0001748276D01*
X0003417002Y0001722955D01*
X0003416980Y0001722514D01*
X0003416978Y0001722490D01*
X0003416815Y0001721674D01*
X0003416515Y0001720951D01*
X0003416080Y0001720299D01*
X0003415527Y0001719746D01*
X0003414875Y0001719310D01*
X0003414151Y0001719011D01*
X0003413335Y0001718848D01*
X0003413312Y0001718846D01*
X0003412871Y0001718824D01*
X0003409175Y0001718824D01*
X0003408735Y0001718846D01*
X0003408711Y0001718848D01*
X0003407895Y0001719011D01*
X0003407171Y0001719310D01*
X0003407026Y0001719408D01*
X0003406175Y0001719862D01*
X0003405252Y0001720142D01*
X0003404291Y0001720237D01*
X0003403331Y0001720142D01*
X0003402408Y0001719862D01*
X0003401170Y0001719120D01*
X0003400979Y0001718964D01*
X0003400895Y0001718919D01*
X0003400803Y0001718891D01*
X0003400466Y0001718858D01*
X0003390084Y0001718858D01*
X0003389747Y0001718891D01*
X0003389584Y0001718940D01*
X0003388830Y0001719253D01*
X0003387883Y0001719441D01*
X0003386919Y0001719441D01*
X0003385972Y0001719253D01*
X0003385218Y0001718940D01*
X0003385055Y0001718891D01*
X0003384718Y0001718858D01*
X0003374336Y0001718858D01*
X0003373999Y0001718891D01*
X0003373836Y0001718940D01*
X0003373082Y0001719253D01*
X0003372135Y0001719441D01*
X0003371171Y0001719441D01*
X0003370224Y0001719253D01*
X0003369470Y0001718940D01*
X0003369307Y0001718891D01*
X0003368970Y0001718858D01*
X0003358588Y0001718858D01*
X0003358251Y0001718891D01*
X0003358159Y0001718919D01*
X0003358075Y0001718964D01*
X0003357885Y0001719120D01*
X0003357082Y0001719656D01*
X0003356191Y0001720025D01*
X0003355245Y0001720213D01*
X0003354280Y0001720213D01*
X0003353334Y0001720025D01*
X0003352029Y0001719408D01*
X0003351883Y0001719310D01*
X0003351159Y0001719011D01*
X0003350343Y0001718848D01*
X0003350319Y0001718846D01*
X0003349879Y0001718824D01*
X0003346183Y0001718824D01*
X0003345743Y0001718846D01*
X0003345719Y0001718848D01*
X0003344903Y0001719011D01*
X0003344179Y0001719310D01*
X0003343528Y0001719746D01*
X0003342974Y0001720299D01*
X0003342539Y0001720951D01*
X0003342239Y0001721674D01*
X0003342077Y0001722490D01*
X0003342074Y0001722514D01*
X0003342053Y0001722955D01*
X0003342053Y0001748276D01*
X0003342074Y0001748717D01*
X0003342077Y0001748740D01*
X0003342239Y0001749557D01*
X0003342540Y0001750283D01*
X0003342820Y0001751207D01*
X0003342915Y0001752167D01*
X0003342820Y0001753127D01*
X0003342540Y0001754050D01*
X0003342085Y0001754901D01*
X0003341473Y0001755646D01*
X0003340727Y0001756258D01*
X0003339876Y0001756713D01*
X0003338953Y0001756993D01*
X0003337993Y0001757088D01*
X0003337033Y0001756993D01*
X0003336110Y0001756713D01*
X0003335383Y0001756412D01*
X0003334567Y0001756250D01*
X0003334543Y0001756247D01*
X0003334103Y0001756226D01*
X0003308781Y0001756226D01*
X0003308341Y0001756247D01*
X0003308317Y0001756250D01*
X0003307501Y0001756412D01*
X0003306777Y0001756712D01*
X0003306126Y0001757147D01*
X0003305572Y0001757701D01*
X0003305137Y0001758352D01*
X0003304837Y0001759076D01*
X0003304675Y0001759892D01*
X0003304673Y0001759916D01*
X0003304651Y0001760356D01*
X0003304651Y0001764052D01*
X0003304673Y0001764493D01*
X0003304673Y0001764493D01*
G37*
G36*
X0003402007Y0001269724D02*
G01*
X0003402007Y0001186968D01*
X0003319251Y0001186968D01*
X0003319251Y0001269724D01*
X0003402007Y0001269724D01*
X0003402007Y0001269724D01*
G37*
G36*
X0003313375Y0001462204D02*
G01*
X0003313490Y0001462582D01*
X0003313676Y0001462931D01*
X0003313927Y0001463237D01*
X0003314417Y0001463639D01*
X0003314825Y0001463912D01*
X0003315507Y0001464594D01*
X0003316043Y0001465396D01*
X0003316413Y0001466288D01*
X0003316601Y0001467234D01*
X0003316601Y0001468199D01*
X0003316412Y0001469145D01*
X0003316043Y0001470036D01*
X0003315507Y0001470838D01*
X0003314825Y0001471520D01*
X0003314417Y0001471793D01*
X0003313927Y0001472195D01*
X0003313676Y0001472501D01*
X0003313490Y0001472850D01*
X0003313375Y0001473228D01*
X0003313312Y0001473863D01*
X0003313312Y0001493065D01*
X0003313384Y0001493787D01*
X0003313407Y0001494269D01*
X0003313407Y0001494994D01*
X0003313494Y0001495872D01*
X0003314152Y0001499182D01*
X0003314408Y0001500025D01*
X0003315700Y0001503143D01*
X0003315814Y0001503358D01*
X0003315814Y0001503358D01*
X0003316001Y0001503707D01*
X0003316001Y0001503707D01*
X0003316115Y0001503921D01*
X0003317990Y0001506728D01*
X0003318550Y0001507409D01*
X0003320936Y0001509796D01*
X0003321618Y0001510355D01*
X0003324424Y0001512230D01*
X0003324638Y0001512345D01*
X0003324639Y0001512345D01*
X0003324987Y0001512531D01*
X0003324988Y0001512531D01*
X0003325202Y0001512646D01*
X0003328320Y0001513937D01*
X0003329164Y0001514193D01*
X0003332474Y0001514852D01*
X0003333351Y0001514938D01*
X0003334076Y0001514938D01*
X0003334559Y0001514962D01*
X0003335281Y0001515033D01*
X0003354482Y0001515033D01*
X0003355204Y0001514962D01*
X0003355687Y0001514938D01*
X0003356412Y0001514938D01*
X0003357289Y0001514852D01*
X0003360599Y0001514193D01*
X0003361443Y0001513937D01*
X0003364561Y0001512646D01*
X0003364775Y0001512531D01*
X0003364775Y0001512531D01*
X0003365124Y0001512345D01*
X0003365124Y0001512345D01*
X0003365339Y0001512230D01*
X0003368145Y0001510355D01*
X0003368826Y0001509796D01*
X0003371213Y0001507409D01*
X0003371772Y0001506728D01*
X0003373648Y0001503921D01*
X0003373762Y0001503707D01*
X0003373762Y0001503707D01*
X0003373949Y0001503358D01*
X0003373949Y0001503358D01*
X0003374063Y0001503143D01*
X0003375355Y0001500025D01*
X0003375611Y0001499182D01*
X0003376269Y0001495872D01*
X0003376356Y0001494994D01*
X0003376356Y0001494269D01*
X0003376379Y0001493787D01*
X0003376450Y0001493065D01*
X0003376450Y0001473863D01*
X0003376388Y0001473228D01*
X0003376273Y0001472850D01*
X0003376087Y0001472501D01*
X0003375836Y0001472195D01*
X0003375346Y0001471793D01*
X0003374937Y0001471520D01*
X0003374255Y0001470838D01*
X0003373719Y0001470036D01*
X0003373350Y0001469144D01*
X0003373162Y0001468198D01*
X0003373162Y0001467233D01*
X0003373350Y0001466287D01*
X0003373720Y0001465396D01*
X0003374256Y0001464594D01*
X0003374938Y0001463912D01*
X0003375346Y0001463639D01*
X0003375836Y0001463237D01*
X0003376087Y0001462931D01*
X0003376273Y0001462582D01*
X0003376388Y0001462204D01*
X0003376450Y0001461569D01*
X0003376450Y0001442367D01*
X0003376379Y0001441645D01*
X0003376356Y0001441163D01*
X0003376356Y0001440438D01*
X0003376269Y0001439561D01*
X0003375611Y0001436250D01*
X0003375355Y0001435407D01*
X0003374063Y0001432289D01*
X0003373949Y0001432074D01*
X0003373949Y0001432074D01*
X0003373762Y0001431725D01*
X0003373762Y0001431725D01*
X0003373648Y0001431511D01*
X0003371772Y0001428704D01*
X0003371213Y0001428023D01*
X0003368826Y0001425636D01*
X0003368145Y0001425077D01*
X0003365339Y0001423202D01*
X0003365124Y0001423087D01*
X0003365124Y0001423087D01*
X0003364775Y0001422901D01*
X0003364775Y0001422901D01*
X0003364561Y0001422786D01*
X0003361443Y0001421495D01*
X0003360599Y0001421239D01*
X0003357289Y0001420580D01*
X0003356412Y0001420494D01*
X0003355687Y0001420494D01*
X0003355204Y0001420470D01*
X0003354482Y0001420399D01*
X0003335281Y0001420399D01*
X0003334559Y0001420470D01*
X0003334076Y0001420494D01*
X0003333351Y0001420494D01*
X0003332474Y0001420580D01*
X0003329164Y0001421239D01*
X0003328320Y0001421495D01*
X0003325202Y0001422786D01*
X0003324988Y0001422901D01*
X0003324987Y0001422901D01*
X0003324639Y0001423087D01*
X0003324638Y0001423087D01*
X0003324424Y0001423202D01*
X0003321618Y0001425077D01*
X0003320936Y0001425636D01*
X0003318550Y0001428023D01*
X0003317990Y0001428704D01*
X0003316115Y0001431511D01*
X0003316001Y0001431725D01*
X0003316001Y0001431725D01*
X0003315814Y0001432074D01*
X0003315814Y0001432074D01*
X0003315700Y0001432289D01*
X0003314408Y0001435407D01*
X0003314152Y0001436250D01*
X0003313494Y0001439561D01*
X0003313407Y0001440438D01*
X0003313407Y0001441163D01*
X0003313384Y0001441645D01*
X0003313312Y0001442367D01*
X0003313312Y0001461569D01*
X0003313375Y0001462204D01*
X0003313375Y0001462204D01*
G37*
G36*
X0003315869Y0001622424D02*
G01*
X0003316275Y0001623762D01*
X0003316934Y0001624995D01*
X0003317821Y0001626076D01*
X0003318901Y0001626963D01*
X0003320135Y0001627622D01*
X0003321472Y0001628028D01*
X0003323105Y0001628188D01*
X0003346775Y0001628188D01*
X0003348409Y0001628028D01*
X0003349746Y0001627622D01*
X0003350979Y0001626963D01*
X0003352060Y0001626076D01*
X0003352947Y0001624995D01*
X0003353606Y0001623762D01*
X0003354012Y0001622424D01*
X0003354173Y0001620791D01*
X0003354173Y0001594168D01*
X0003354012Y0001592535D01*
X0003353606Y0001591198D01*
X0003352947Y0001589964D01*
X0003352060Y0001588884D01*
X0003350979Y0001587997D01*
X0003349746Y0001587338D01*
X0003348409Y0001586932D01*
X0003346775Y0001586771D01*
X0003323105Y0001586771D01*
X0003321472Y0001586932D01*
X0003320135Y0001587338D01*
X0003318901Y0001587997D01*
X0003317821Y0001588884D01*
X0003316934Y0001589964D01*
X0003316275Y0001591198D01*
X0003315869Y0001592535D01*
X0003315708Y0001594168D01*
X0003315708Y0001620791D01*
X0003315869Y0001622424D01*
X0003315869Y0001622424D01*
G37*
G36*
X0003253861Y0001622424D02*
G01*
X0003254267Y0001623762D01*
X0003254926Y0001624995D01*
X0003255813Y0001626076D01*
X0003256894Y0001626963D01*
X0003258127Y0001627622D01*
X0003259464Y0001628028D01*
X0003261098Y0001628188D01*
X0003284768Y0001628188D01*
X0003286401Y0001628028D01*
X0003287738Y0001627622D01*
X0003288972Y0001626963D01*
X0003290052Y0001626076D01*
X0003290939Y0001624995D01*
X0003291598Y0001623762D01*
X0003292004Y0001622424D01*
X0003292165Y0001620791D01*
X0003292165Y0001594168D01*
X0003292004Y0001592535D01*
X0003291598Y0001591198D01*
X0003290939Y0001589964D01*
X0003290052Y0001588884D01*
X0003288972Y0001587997D01*
X0003287738Y0001587338D01*
X0003286401Y0001586932D01*
X0003284768Y0001586771D01*
X0003261098Y0001586771D01*
X0003259464Y0001586932D01*
X0003258127Y0001587338D01*
X0003256894Y0001587997D01*
X0003255813Y0001588884D01*
X0003254926Y0001589964D01*
X0003254267Y0001591198D01*
X0003253861Y0001592535D01*
X0003253700Y0001594168D01*
X0003253700Y0001620791D01*
X0003253861Y0001622424D01*
X0003253861Y0001622424D01*
G37*
G36*
X0003273661Y0001269724D02*
G01*
X0003273661Y0001186968D01*
X0003190905Y0001186968D01*
X0003190905Y0001269724D01*
X0003273661Y0001269724D01*
X0003273661Y0001269724D01*
G37*
G36*
X0003212719Y0001744078D02*
G01*
X0003213125Y0001745416D01*
X0003213784Y0001746649D01*
X0003214671Y0001747729D01*
X0003215752Y0001748616D01*
X0003216985Y0001749275D01*
X0003218323Y0001749681D01*
X0003219956Y0001749842D01*
X0003243626Y0001749842D01*
X0003245259Y0001749681D01*
X0003246597Y0001749275D01*
X0003247830Y0001748616D01*
X0003248910Y0001747729D01*
X0003249797Y0001746649D01*
X0003250456Y0001745416D01*
X0003250862Y0001744078D01*
X0003251023Y0001742445D01*
X0003251023Y0001715822D01*
X0003250862Y0001714189D01*
X0003250456Y0001712851D01*
X0003249797Y0001711618D01*
X0003248910Y0001710537D01*
X0003247830Y0001709650D01*
X0003246597Y0001708991D01*
X0003245259Y0001708586D01*
X0003243626Y0001708425D01*
X0003219956Y0001708425D01*
X0003218323Y0001708586D01*
X0003216985Y0001708991D01*
X0003215752Y0001709650D01*
X0003214671Y0001710537D01*
X0003213784Y0001711618D01*
X0003213125Y0001712851D01*
X0003212719Y0001714189D01*
X0003212559Y0001715822D01*
X0003212559Y0001742445D01*
X0003212719Y0001744078D01*
X0003212719Y0001744078D01*
G37*
G36*
X0003150712Y0001744078D02*
G01*
X0003151117Y0001745416D01*
X0003151776Y0001746649D01*
X0003152663Y0001747729D01*
X0003153744Y0001748616D01*
X0003154977Y0001749275D01*
X0003156315Y0001749681D01*
X0003157948Y0001749842D01*
X0003181618Y0001749842D01*
X0003183251Y0001749681D01*
X0003184589Y0001749275D01*
X0003185822Y0001748616D01*
X0003186903Y0001747729D01*
X0003187790Y0001746649D01*
X0003188449Y0001745416D01*
X0003188854Y0001744078D01*
X0003189015Y0001742445D01*
X0003189015Y0001715822D01*
X0003188854Y0001714189D01*
X0003188449Y0001712851D01*
X0003187790Y0001711618D01*
X0003186903Y0001710537D01*
X0003185822Y0001709650D01*
X0003184589Y0001708991D01*
X0003183251Y0001708586D01*
X0003181618Y0001708425D01*
X0003157948Y0001708425D01*
X0003156315Y0001708586D01*
X0003154977Y0001708991D01*
X0003153744Y0001709650D01*
X0003152663Y0001710537D01*
X0003151776Y0001711618D01*
X0003151117Y0001712851D01*
X0003150712Y0001714189D01*
X0003150551Y0001715822D01*
X0003150551Y0001742445D01*
X0003150712Y0001744078D01*
X0003150712Y0001744078D01*
G37*
M02*