%
M48
METRIC,000.000
T01C0.40
T02C1.00
T10C0.50
%
T01
X011050Y081060
X018920Y080490
X019530Y082860
X020900Y087350
X022689Y083020
X011050Y049060
X018920Y048490
X019530Y050860
X020900Y055350
X022689Y051020
X019050Y018060
X026920Y017490
X027530Y019860
X028900Y024350
X030689Y020020
X084940Y034050
X085510Y041920
X083140Y042530
X078650Y043900
X082980Y045690
T02
X007199Y076400
X007199Y073860
X009739Y076400
X009739Y073860
X012280Y076400
X012280Y073860
X007199Y044400
X007199Y041860
X009739Y044400
X009739Y041860
X012280Y044400
X012280Y041860
X015200Y013400
X015200Y010860
X017740Y013400
X017740Y010860
X020280Y013400
X020280Y010860
X089600Y030200
X092140Y030200
X089600Y032738
X092140Y032738
X089600Y035280
X092140Y035280
T10
X031320Y068395
X032316Y068489
X033311Y068585
X034306Y068683
X035301Y068784
X036295Y068890
X035946Y065682
X034951Y065575
X033957Y065473
X032961Y065373
X031966Y065280
X065896Y053081
X066212Y054027
X066162Y055017
X065768Y055935
X065812Y056873
X066012Y057847
X068483Y057384
X068583Y056389
X068679Y055394
X068771Y054398
X068859Y053402
X068943Y052406
X035301Y036784
X036295Y036890
X037289Y037001
X038282Y037119
X039274Y037243
X040266Y037376
X039966Y034280
X038970Y034189
X037974Y034103
X036977Y034021
X035980Y033943
X064970Y078199
X065072Y079194
X065114Y080193
X065138Y081192
X065180Y082191
X065287Y083185
X065513Y084158
X069212Y083015
X068803Y082103
X068443Y081170
X068133Y080220
X067877Y079253
X067658Y078277
X072998Y029621
X072399Y030420
X071731Y031164
X070999Y031845
X070215Y032465
X069386Y033024
X071690Y034755
X072193Y033890
X072761Y033068
X073398Y032296
X074098Y031584
M30