%MOIN*%
%OFA0B0*%
%FSLAX46Y46*%
%IPPOS*%
%LPD*%
%ADD10C,0.005905511811023622*%
%ADD11C,0.0039370078740157488*%
%ADD12C,0.0023622047244094488*%
%ADD13C,0.0043307086614173228*%
%ADD24C,0.005905511811023622*%
%ADD25C,0.0039370078740157488*%
%ADD26C,0.0023622047244094488*%
%ADD27C,0.0043307086614173228*%
%ADD28C,0.005905511811023622*%
%ADD29C,0.0039370078740157488*%
%ADD30C,0.0023622047244094488*%
%ADD31C,0.0043307086614173228*%
%ADD32C,0.005905511811023622*%
%ADD33C,0.0039370078740157488*%
%ADD34C,0.0023622047244094488*%
%ADD35C,0.0043307086614173228*%
D10*
X0001836951Y0003278646D02*
X0001814454Y0003278646D01*
X0001825702Y0003239276D02*
X0001825702Y0003278646D01*
X0001801331Y0003239276D02*
X0001801331Y0003278646D01*
X0001801331Y0003259898D02*
X0001778833Y0003259898D01*
X0001778833Y0003239276D02*
X0001778833Y0003278646D01*
X0001760086Y0003239276D02*
X0001760086Y0003278646D01*
X0001743213Y0003241151D02*
X0001737589Y0003239276D01*
X0001728215Y0003239276D01*
X0001724465Y0003241151D01*
X0001722590Y0003243025D01*
X0001720716Y0003246775D01*
X0001720716Y0003250524D01*
X0001722590Y0003254274D01*
X0001724465Y0003256149D01*
X0001728215Y0003258024D01*
X0001735714Y0003259898D01*
X0001739463Y0003261773D01*
X0001741338Y0003263648D01*
X0001743213Y0003267397D01*
X0001743213Y0003271147D01*
X0001741338Y0003274896D01*
X0001739463Y0003276771D01*
X0001735714Y0003278646D01*
X0001726340Y0003278646D01*
X0001720716Y0003276771D01*
X0001675721Y0003250524D02*
X0001656974Y0003250524D01*
X0001679471Y0003239276D02*
X0001666347Y0003278646D01*
X0001653224Y0003239276D01*
X0001617604Y0003239276D02*
X0001630727Y0003258024D01*
X0001640101Y0003239276D02*
X0001640101Y0003278646D01*
X0001625103Y0003278646D01*
X0001621353Y0003276771D01*
X0001619478Y0003274896D01*
X0001617604Y0003271147D01*
X0001617604Y0003265523D01*
X0001619478Y0003261773D01*
X0001621353Y0003259898D01*
X0001625103Y0003258024D01*
X0001640101Y0003258024D01*
X0001600731Y0003259898D02*
X0001587607Y0003259898D01*
X0001581983Y0003239276D02*
X0001600731Y0003239276D01*
X0001600731Y0003278646D01*
X0001581983Y0003278646D01*
X0001566985Y0003250524D02*
X0001548237Y0003250524D01*
X0001570734Y0003239276D02*
X0001557611Y0003278646D01*
X0001544488Y0003239276D01*
X0001488245Y0003259898D02*
X0001501368Y0003259898D01*
X0001501368Y0003239276D02*
X0001501368Y0003278646D01*
X0001482620Y0003278646D01*
X0001460123Y0003278646D02*
X0001452624Y0003278646D01*
X0001448875Y0003276771D01*
X0001445125Y0003273022D01*
X0001443250Y0003265523D01*
X0001443250Y0003252399D01*
X0001445125Y0003244900D01*
X0001448875Y0003241151D01*
X0001452624Y0003239276D01*
X0001460123Y0003239276D01*
X0001463873Y0003241151D01*
X0001467622Y0003244900D01*
X0001469497Y0003252399D01*
X0001469497Y0003265523D01*
X0001467622Y0003273022D01*
X0001463873Y0003276771D01*
X0001460123Y0003278646D01*
X0001403880Y0003239276D02*
X0001417004Y0003258024D01*
X0001426377Y0003239276D02*
X0001426377Y0003278646D01*
X0001411379Y0003278646D01*
X0001407630Y0003276771D01*
X0001405755Y0003274896D01*
X0001403880Y0003271147D01*
X0001403880Y0003265523D01*
X0001405755Y0003261773D01*
X0001407630Y0003259898D01*
X0001411379Y0003258024D01*
X0001426377Y0003258024D01*
X0001343888Y0003259898D02*
X0001357011Y0003259898D01*
X0001357011Y0003239276D02*
X0001357011Y0003278646D01*
X0001338263Y0003278646D01*
X0001325140Y0003250524D02*
X0001306392Y0003250524D01*
X0001328890Y0003239276D02*
X0001315766Y0003278646D01*
X0001302643Y0003239276D01*
X0001276396Y0003259898D02*
X0001270772Y0003258024D01*
X0001268897Y0003256149D01*
X0001267022Y0003252399D01*
X0001267022Y0003246775D01*
X0001268897Y0003243025D01*
X0001270772Y0003241151D01*
X0001274521Y0003239276D01*
X0001289520Y0003239276D01*
X0001289520Y0003278646D01*
X0001276396Y0003278646D01*
X0001272647Y0003276771D01*
X0001270772Y0003274896D01*
X0001268897Y0003271147D01*
X0001268897Y0003267397D01*
X0001270772Y0003263648D01*
X0001272647Y0003261773D01*
X0001276396Y0003259898D01*
X0001289520Y0003259898D01*
X0001220153Y0003239276D02*
X0001220153Y0003278646D01*
X0001207030Y0003250524D01*
X0001193907Y0003278646D01*
X0001193907Y0003239276D01*
X0001177034Y0003250524D02*
X0001158286Y0003250524D01*
X0001180783Y0003239276D02*
X0001167660Y0003278646D01*
X0001154536Y0003239276D01*
X0001118916Y0003239276D02*
X0001132039Y0003258024D01*
X0001141413Y0003239276D02*
X0001141413Y0003278646D01*
X0001126415Y0003278646D01*
X0001122665Y0003276771D01*
X0001120791Y0003274896D01*
X0001118916Y0003271147D01*
X0001118916Y0003265523D01*
X0001120791Y0003261773D01*
X0001122665Y0003259898D01*
X0001126415Y0003258024D01*
X0001141413Y0003258024D01*
X0001102043Y0003239276D02*
X0001102043Y0003278646D01*
X0001079546Y0003239276D02*
X0001096419Y0003261773D01*
X0001079546Y0003278646D02*
X0001102043Y0003256149D01*
X0001062673Y0003239276D02*
X0001062673Y0003278646D01*
X0001043925Y0003239276D02*
X0001043925Y0003278646D01*
X0001021428Y0003239276D01*
X0001021428Y0003278646D01*
X0000982058Y0003276771D02*
X0000985807Y0003278646D01*
X0000991432Y0003278646D01*
X0000997056Y0003276771D01*
X0001000806Y0003273022D01*
X0001002680Y0003269272D01*
X0001004555Y0003261773D01*
X0001004555Y0003256149D01*
X0001002680Y0003248650D01*
X0001000806Y0003244900D01*
X0000997056Y0003241151D01*
X0000991432Y0003239276D01*
X0000987682Y0003239276D01*
X0000982058Y0003241151D01*
X0000980183Y0003243025D01*
X0000980183Y0003256149D01*
X0000987682Y0003256149D01*
X0000955511Y0003185039D02*
X0000957874Y0003320078D01*
X0001867716Y0003184645D02*
X0000955511Y0003185039D01*
X0001867716Y0003321259D02*
X0001867716Y0003184645D01*
X0000957480Y0003320078D02*
X0001867716Y0003321259D01*
D11*
X0000839370Y0003303149D02*
X0000839370Y0003366141D01*
X0000807874Y0003303149D02*
X0000839370Y0003303149D01*
X0000807874Y0003366141D02*
X0000807874Y0003303149D01*
X0000839370Y0003366141D02*
X0000807874Y0003366141D01*
X0001070866Y0002862598D02*
X0001133858Y0002862598D01*
X0001070866Y0002894094D02*
X0001070866Y0002862598D01*
X0001133858Y0002894094D02*
X0001070866Y0002894094D01*
X0001133858Y0002862598D02*
X0001133858Y0002894094D01*
X0001773228Y0003015354D02*
X0001773228Y0002968110D01*
X0001851968Y0003015354D02*
X0001773228Y0003015354D01*
X0001851968Y0002968110D02*
X0001851968Y0003015354D01*
X0001773228Y0002968110D02*
X0001851968Y0002968110D01*
X0000914566Y0002901968D02*
X0000914566Y0002854724D01*
X0000993307Y0002901968D02*
X0000914566Y0002901968D01*
X0000993307Y0002854724D02*
X0000993307Y0002901968D01*
X0000914566Y0002854724D02*
X0000993307Y0002854724D01*
X0002118110Y0003063779D02*
X0002118110Y0003016535D01*
X0002196850Y0003063779D02*
X0002118110Y0003063779D01*
X0002196850Y0003016535D02*
X0002196850Y0003063779D01*
X0002118110Y0003016535D02*
X0002196850Y0003016535D01*
X0000829133Y0003126377D02*
X0000858661Y0003096850D01*
X0000829133Y0003214960D02*
X0000829133Y0003126377D01*
X0000947244Y0003214960D02*
X0000829133Y0003214960D01*
X0000947244Y0003096850D02*
X0000947244Y0003214960D01*
X0000858661Y0003096850D02*
X0000947244Y0003096850D01*
X0001939370Y0002975984D02*
X0002002362Y0002975984D01*
X0001939370Y0003007480D02*
X0001939370Y0002975984D01*
X0002002362Y0003007480D02*
X0001939370Y0003007480D01*
X0002002362Y0002975984D02*
X0002002362Y0003007480D01*
X0002288582Y0003024409D02*
X0002351574Y0003024409D01*
X0002288582Y0003055905D02*
X0002288582Y0003024409D01*
X0002351574Y0003055905D02*
X0002288582Y0003055905D01*
X0002351574Y0003024409D02*
X0002351574Y0003055905D01*
X0000686220Y0003262992D02*
X0000686220Y0003200000D01*
X0000717716Y0003262992D02*
X0000686220Y0003262992D01*
X0000717716Y0003200000D02*
X0000717716Y0003262992D01*
X0000686220Y0003200000D02*
X0000717716Y0003200000D01*
D10*
X0000897731Y0003339332D02*
X0000897731Y0003361829D01*
X0000897731Y0003350581D02*
X0000858361Y0003350581D01*
X0000863985Y0003354330D01*
X0000867735Y0003358080D01*
X0000869610Y0003361829D01*
X0000897731Y0003322459D02*
X0000858361Y0003322459D01*
X0000882733Y0003318710D02*
X0000897731Y0003307461D01*
X0000871484Y0003307461D02*
X0000886482Y0003322459D01*
D12*
X0000830746Y0003337270D02*
X0000823247Y0003342519D01*
X0000830746Y0003346269D02*
X0000814998Y0003346269D01*
X0000814998Y0003340270D01*
X0000815748Y0003338770D01*
X0000816497Y0003338020D01*
X0000817997Y0003337270D01*
X0000820247Y0003337270D01*
X0000821747Y0003338020D01*
X0000822497Y0003338770D01*
X0000823247Y0003340270D01*
X0000823247Y0003346269D01*
X0000830746Y0003322272D02*
X0000830746Y0003331271D01*
X0000830746Y0003326771D02*
X0000814998Y0003326771D01*
X0000817247Y0003328271D01*
X0000818747Y0003329771D01*
X0000819497Y0003331271D01*
D10*
X0001153918Y0002843607D02*
X0001129546Y0002843607D01*
X0001142669Y0002828608D01*
X0001137045Y0002828608D01*
X0001133295Y0002826734D01*
X0001131421Y0002824859D01*
X0001129546Y0002821109D01*
X0001129546Y0002811736D01*
X0001131421Y0002807986D01*
X0001133295Y0002806111D01*
X0001137045Y0002804237D01*
X0001148293Y0002804237D01*
X0001152043Y0002806111D01*
X0001153918Y0002807986D01*
X0001116422Y0002843607D02*
X0001092050Y0002843607D01*
X0001105174Y0002828608D01*
X0001099550Y0002828608D01*
X0001095800Y0002826734D01*
X0001093925Y0002824859D01*
X0001092050Y0002821109D01*
X0001092050Y0002811736D01*
X0001093925Y0002807986D01*
X0001095800Y0002806111D01*
X0001099550Y0002804237D01*
X0001110798Y0002804237D01*
X0001114548Y0002806111D01*
X0001116422Y0002807986D01*
X0001052680Y0002804237D02*
X0001065804Y0002822984D01*
X0001075178Y0002804237D02*
X0001075178Y0002843607D01*
X0001060179Y0002843607D01*
X0001056430Y0002841732D01*
X0001054555Y0002839857D01*
X0001052680Y0002836107D01*
X0001052680Y0002830483D01*
X0001054555Y0002826734D01*
X0001056430Y0002824859D01*
X0001060179Y0002822984D01*
X0001075178Y0002822984D01*
D12*
X0001104986Y0002871222D02*
X0001110236Y0002878721D01*
X0001113985Y0002871222D02*
X0001113985Y0002886970D01*
X0001107986Y0002886970D01*
X0001106486Y0002886220D01*
X0001105736Y0002885470D01*
X0001104986Y0002883970D01*
X0001104986Y0002881721D01*
X0001105736Y0002880221D01*
X0001106486Y0002879471D01*
X0001107986Y0002878721D01*
X0001113985Y0002878721D01*
X0001091488Y0002886970D02*
X0001094488Y0002886970D01*
X0001095987Y0002886220D01*
X0001096737Y0002885470D01*
X0001098237Y0002883220D01*
X0001098987Y0002880221D01*
X0001098987Y0002874222D01*
X0001098237Y0002872722D01*
X0001097487Y0002871972D01*
X0001095987Y0002871222D01*
X0001092988Y0002871222D01*
X0001091488Y0002871972D01*
X0001090738Y0002872722D01*
X0001089988Y0002874222D01*
X0001089988Y0002877971D01*
X0001090738Y0002879471D01*
X0001091488Y0002880221D01*
X0001092988Y0002880971D01*
X0001095987Y0002880971D01*
X0001097487Y0002880221D01*
X0001098237Y0002879471D01*
X0001098987Y0002877971D01*
D10*
X0001837907Y0003043922D02*
X0001856655Y0003043922D01*
X0001856655Y0003083292D01*
X0001824784Y0003064544D02*
X0001811661Y0003064544D01*
X0001806036Y0003043922D02*
X0001824784Y0003043922D01*
X0001824784Y0003083292D01*
X0001806036Y0003083292D01*
X0001789163Y0003043922D02*
X0001789163Y0003083292D01*
X0001779790Y0003083292D01*
X0001774165Y0003081417D01*
X0001770416Y0003077667D01*
X0001768541Y0003073918D01*
X0001766666Y0003066419D01*
X0001766666Y0003060794D01*
X0001768541Y0003053295D01*
X0001770416Y0003049546D01*
X0001774165Y0003045796D01*
X0001779790Y0003043922D01*
X0001789163Y0003043922D01*
X0001841657Y0002904040D02*
X0001841657Y0002943410D01*
X0001832283Y0002943410D01*
X0001826659Y0002941535D01*
X0001822909Y0002937785D01*
X0001821034Y0002934036D01*
X0001819160Y0002926537D01*
X0001819160Y0002920913D01*
X0001821034Y0002913413D01*
X0001822909Y0002909664D01*
X0001826659Y0002905914D01*
X0001832283Y0002904040D01*
X0001841657Y0002904040D01*
X0001804161Y0002939660D02*
X0001802287Y0002941535D01*
X0001798537Y0002943410D01*
X0001789163Y0002943410D01*
X0001785414Y0002941535D01*
X0001783539Y0002939660D01*
X0001781664Y0002935911D01*
X0001781664Y0002932161D01*
X0001783539Y0002926537D01*
X0001806036Y0002904040D01*
X0001781664Y0002904040D01*
X0001755436Y0002922347D02*
X0001755436Y0002961717D01*
X0001740438Y0002961717D01*
X0001736689Y0002959842D01*
X0001734814Y0002957967D01*
X0001732939Y0002954218D01*
X0001732939Y0002948593D01*
X0001734814Y0002944844D01*
X0001736689Y0002942969D01*
X0001740438Y0002941094D01*
X0001755436Y0002941094D01*
X0001702943Y0002942969D02*
X0001697319Y0002941094D01*
X0001695444Y0002939220D01*
X0001693569Y0002935470D01*
X0001693569Y0002929846D01*
X0001695444Y0002926096D01*
X0001697319Y0002924222D01*
X0001701068Y0002922347D01*
X0001716066Y0002922347D01*
X0001716066Y0002961717D01*
X0001702943Y0002961717D01*
X0001699193Y0002959842D01*
X0001697319Y0002957967D01*
X0001695444Y0002954218D01*
X0001695444Y0002950468D01*
X0001697319Y0002946719D01*
X0001699193Y0002944844D01*
X0001702943Y0002942969D01*
X0001716066Y0002942969D01*
X0001669197Y0002961717D02*
X0001665448Y0002961717D01*
X0001661698Y0002959842D01*
X0001659823Y0002957967D01*
X0001657948Y0002954218D01*
X0001656074Y0002946719D01*
X0001656074Y0002937345D01*
X0001657948Y0002929846D01*
X0001659823Y0002926096D01*
X0001661698Y0002924222D01*
X0001665448Y0002922347D01*
X0001669197Y0002922347D01*
X0001672947Y0002924222D01*
X0001674821Y0002926096D01*
X0001676696Y0002929846D01*
X0001678571Y0002937345D01*
X0001678571Y0002946719D01*
X0001676696Y0002954218D01*
X0001674821Y0002957967D01*
X0001672947Y0002959842D01*
X0001669197Y0002961717D01*
X0001755436Y0002762898D02*
X0001755436Y0002802268D01*
X0001740438Y0002802268D01*
X0001736689Y0002800393D01*
X0001734814Y0002798518D01*
X0001732939Y0002794769D01*
X0001732939Y0002789145D01*
X0001734814Y0002785395D01*
X0001736689Y0002783520D01*
X0001740438Y0002781646D01*
X0001755436Y0002781646D01*
X0001702943Y0002783520D02*
X0001697319Y0002781646D01*
X0001695444Y0002779771D01*
X0001693569Y0002776021D01*
X0001693569Y0002770397D01*
X0001695444Y0002766647D01*
X0001697319Y0002764773D01*
X0001701068Y0002762898D01*
X0001716066Y0002762898D01*
X0001716066Y0002802268D01*
X0001702943Y0002802268D01*
X0001699193Y0002800393D01*
X0001697319Y0002798518D01*
X0001695444Y0002794769D01*
X0001695444Y0002791019D01*
X0001697319Y0002787270D01*
X0001699193Y0002785395D01*
X0001702943Y0002783520D01*
X0001716066Y0002783520D01*
X0001669197Y0002802268D02*
X0001665448Y0002802268D01*
X0001661698Y0002800393D01*
X0001659823Y0002798518D01*
X0001657948Y0002794769D01*
X0001656074Y0002787270D01*
X0001656074Y0002777896D01*
X0001657948Y0002770397D01*
X0001659823Y0002766647D01*
X0001661698Y0002764773D01*
X0001665448Y0002762898D01*
X0001669197Y0002762898D01*
X0001672947Y0002764773D01*
X0001674821Y0002766647D01*
X0001676696Y0002770397D01*
X0001678571Y0002777896D01*
X0001678571Y0002787270D01*
X0001676696Y0002794769D01*
X0001674821Y0002798518D01*
X0001672947Y0002800393D01*
X0001669197Y0002802268D01*
X0001601674Y0002895181D02*
X0001601674Y0002934551D01*
X0001586676Y0002934551D01*
X0001582927Y0002932677D01*
X0001581052Y0002930802D01*
X0001579177Y0002927052D01*
X0001579177Y0002921428D01*
X0001581052Y0002917679D01*
X0001582927Y0002915804D01*
X0001586676Y0002913929D01*
X0001601674Y0002913929D01*
X0001539807Y0002898931D02*
X0001541682Y0002897056D01*
X0001547306Y0002895181D01*
X0001551056Y0002895181D01*
X0001556680Y0002897056D01*
X0001560429Y0002900806D01*
X0001562304Y0002904555D01*
X0001564179Y0002912054D01*
X0001564179Y0002917679D01*
X0001562304Y0002925178D01*
X0001560429Y0002928927D01*
X0001556680Y0002932677D01*
X0001551056Y0002934551D01*
X0001547306Y0002934551D01*
X0001541682Y0002932677D01*
X0001539807Y0002930802D01*
X0001515435Y0002934551D02*
X0001511685Y0002934551D01*
X0001507936Y0002932677D01*
X0001506061Y0002930802D01*
X0001504186Y0002927052D01*
X0001502312Y0002919553D01*
X0001502312Y0002910180D01*
X0001504186Y0002902680D01*
X0001506061Y0002898931D01*
X0001507936Y0002897056D01*
X0001511685Y0002895181D01*
X0001515435Y0002895181D01*
X0001519185Y0002897056D01*
X0001521059Y0002898931D01*
X0001522934Y0002902680D01*
X0001524809Y0002910180D01*
X0001524809Y0002919553D01*
X0001522934Y0002927052D01*
X0001521059Y0002930802D01*
X0001519185Y0002932677D01*
X0001515435Y0002934551D01*
X0001601674Y0002735733D02*
X0001601674Y0002775103D01*
X0001586676Y0002775103D01*
X0001582927Y0002773228D01*
X0001581052Y0002771353D01*
X0001579177Y0002767604D01*
X0001579177Y0002761979D01*
X0001581052Y0002758230D01*
X0001582927Y0002756355D01*
X0001586676Y0002754480D01*
X0001601674Y0002754480D01*
X0001539807Y0002739482D02*
X0001541682Y0002737607D01*
X0001547306Y0002735733D01*
X0001551056Y0002735733D01*
X0001556680Y0002737607D01*
X0001560429Y0002741357D01*
X0001562304Y0002745106D01*
X0001564179Y0002752605D01*
X0001564179Y0002758230D01*
X0001562304Y0002765729D01*
X0001560429Y0002769478D01*
X0001556680Y0002773228D01*
X0001551056Y0002775103D01*
X0001547306Y0002775103D01*
X0001541682Y0002773228D01*
X0001539807Y0002771353D01*
X0001515435Y0002775103D02*
X0001511685Y0002775103D01*
X0001507936Y0002773228D01*
X0001506061Y0002771353D01*
X0001504186Y0002767604D01*
X0001502312Y0002760105D01*
X0001502312Y0002750731D01*
X0001504186Y0002743232D01*
X0001506061Y0002739482D01*
X0001507936Y0002737607D01*
X0001511685Y0002735733D01*
X0001515435Y0002735733D01*
X0001519185Y0002737607D01*
X0001521059Y0002739482D01*
X0001522934Y0002743232D01*
X0001524809Y0002750731D01*
X0001524809Y0002760105D01*
X0001522934Y0002767604D01*
X0001521059Y0002771353D01*
X0001519185Y0002773228D01*
X0001515435Y0002775103D01*
X0001447912Y0002876677D02*
X0001447912Y0002916048D01*
X0001432914Y0002916048D01*
X0001429165Y0002914173D01*
X0001427290Y0002912298D01*
X0001425415Y0002908548D01*
X0001425415Y0002902924D01*
X0001427290Y0002899175D01*
X0001429165Y0002897300D01*
X0001432914Y0002895425D01*
X0001447912Y0002895425D01*
X0001386045Y0002880427D02*
X0001387920Y0002878552D01*
X0001393544Y0002876677D01*
X0001397294Y0002876677D01*
X0001402918Y0002878552D01*
X0001406667Y0002882302D01*
X0001408542Y0002886051D01*
X0001410417Y0002893550D01*
X0001410417Y0002899175D01*
X0001408542Y0002906674D01*
X0001406667Y0002910423D01*
X0001402918Y0002914173D01*
X0001397294Y0002916048D01*
X0001393544Y0002916048D01*
X0001387920Y0002914173D01*
X0001386045Y0002912298D01*
X0001348550Y0002876677D02*
X0001371047Y0002876677D01*
X0001359798Y0002876677D02*
X0001359798Y0002916048D01*
X0001363548Y0002910423D01*
X0001367297Y0002906674D01*
X0001371047Y0002904799D01*
X0001447912Y0002717229D02*
X0001447912Y0002756599D01*
X0001432914Y0002756599D01*
X0001429165Y0002754724D01*
X0001427290Y0002752849D01*
X0001425415Y0002749100D01*
X0001425415Y0002743475D01*
X0001427290Y0002739726D01*
X0001429165Y0002737851D01*
X0001432914Y0002735976D01*
X0001447912Y0002735976D01*
X0001386045Y0002720978D02*
X0001387920Y0002719103D01*
X0001393544Y0002717229D01*
X0001397294Y0002717229D01*
X0001402918Y0002719103D01*
X0001406667Y0002722853D01*
X0001408542Y0002726602D01*
X0001410417Y0002734102D01*
X0001410417Y0002739726D01*
X0001408542Y0002747225D01*
X0001406667Y0002750974D01*
X0001402918Y0002754724D01*
X0001397294Y0002756599D01*
X0001393544Y0002756599D01*
X0001387920Y0002754724D01*
X0001386045Y0002752849D01*
X0001348550Y0002717229D02*
X0001371047Y0002717229D01*
X0001359798Y0002717229D02*
X0001359798Y0002756599D01*
X0001363548Y0002750974D01*
X0001367297Y0002747225D01*
X0001371047Y0002745350D01*
X0001294150Y0002842425D02*
X0001294150Y0002881796D01*
X0001279152Y0002881796D01*
X0001275403Y0002879921D01*
X0001273528Y0002878046D01*
X0001271653Y0002874296D01*
X0001271653Y0002868672D01*
X0001273528Y0002864923D01*
X0001275403Y0002863048D01*
X0001279152Y0002861173D01*
X0001294150Y0002861173D01*
X0001232283Y0002846175D02*
X0001234158Y0002844300D01*
X0001239782Y0002842425D01*
X0001243532Y0002842425D01*
X0001249156Y0002844300D01*
X0001252905Y0002848050D01*
X0001254780Y0002851799D01*
X0001256655Y0002859298D01*
X0001256655Y0002864923D01*
X0001254780Y0002872422D01*
X0001252905Y0002876171D01*
X0001249156Y0002879921D01*
X0001243532Y0002881796D01*
X0001239782Y0002881796D01*
X0001234158Y0002879921D01*
X0001232283Y0002878046D01*
X0001217285Y0002878046D02*
X0001215410Y0002879921D01*
X0001211661Y0002881796D01*
X0001202287Y0002881796D01*
X0001198537Y0002879921D01*
X0001196662Y0002878046D01*
X0001194788Y0002874296D01*
X0001194788Y0002870547D01*
X0001196662Y0002864923D01*
X0001219160Y0002842425D01*
X0001194788Y0002842425D01*
X0001294150Y0002682977D02*
X0001294150Y0002722347D01*
X0001279152Y0002722347D01*
X0001275403Y0002720472D01*
X0001273528Y0002718597D01*
X0001271653Y0002714848D01*
X0001271653Y0002709223D01*
X0001273528Y0002705474D01*
X0001275403Y0002703599D01*
X0001279152Y0002701724D01*
X0001294150Y0002701724D01*
X0001232283Y0002686726D02*
X0001234158Y0002684851D01*
X0001239782Y0002682977D01*
X0001243532Y0002682977D01*
X0001249156Y0002684851D01*
X0001252905Y0002688601D01*
X0001254780Y0002692350D01*
X0001256655Y0002699850D01*
X0001256655Y0002705474D01*
X0001254780Y0002712973D01*
X0001252905Y0002716722D01*
X0001249156Y0002720472D01*
X0001243532Y0002722347D01*
X0001239782Y0002722347D01*
X0001234158Y0002720472D01*
X0001232283Y0002718597D01*
X0001217285Y0002718597D02*
X0001215410Y0002720472D01*
X0001211661Y0002722347D01*
X0001202287Y0002722347D01*
X0001198537Y0002720472D01*
X0001196662Y0002718597D01*
X0001194788Y0002714848D01*
X0001194788Y0002711098D01*
X0001196662Y0002705474D01*
X0001219160Y0002682977D01*
X0001194788Y0002682977D01*
X0000371578Y0003237701D02*
X0000371578Y0003277071D01*
X0000356580Y0003277071D01*
X0000352830Y0003275196D01*
X0000350956Y0003273322D01*
X0000349081Y0003269572D01*
X0000349081Y0003263948D01*
X0000350956Y0003260198D01*
X0000352830Y0003258323D01*
X0000356580Y0003256449D01*
X0000371578Y0003256449D01*
X0000319085Y0003258323D02*
X0000313460Y0003256449D01*
X0000311586Y0003254574D01*
X0000309711Y0003250824D01*
X0000309711Y0003245200D01*
X0000311586Y0003241451D01*
X0000313460Y0003239576D01*
X0000317210Y0003237701D01*
X0000332208Y0003237701D01*
X0000332208Y0003277071D01*
X0000319085Y0003277071D01*
X0000315335Y0003275196D01*
X0000313460Y0003273322D01*
X0000311586Y0003269572D01*
X0000311586Y0003265823D01*
X0000313460Y0003262073D01*
X0000315335Y0003260198D01*
X0000319085Y0003258323D01*
X0000332208Y0003258323D01*
X0000296587Y0003277071D02*
X0000272215Y0003277071D01*
X0000285339Y0003262073D01*
X0000279715Y0003262073D01*
X0000275965Y0003260198D01*
X0000274090Y0003258323D01*
X0000272215Y0003254574D01*
X0000272215Y0003245200D01*
X0000274090Y0003241451D01*
X0000275965Y0003239576D01*
X0000279715Y0003237701D01*
X0000290963Y0003237701D01*
X0000294713Y0003239576D01*
X0000296587Y0003241451D01*
X0000352830Y0003115748D02*
X0000356580Y0003117622D01*
X0000362204Y0003117622D01*
X0000367828Y0003115748D01*
X0000371578Y0003111998D01*
X0000373453Y0003108248D01*
X0000375328Y0003100749D01*
X0000375328Y0003095125D01*
X0000373453Y0003087626D01*
X0000371578Y0003083877D01*
X0000367828Y0003080127D01*
X0000362204Y0003078252D01*
X0000358455Y0003078252D01*
X0000352830Y0003080127D01*
X0000350956Y0003082002D01*
X0000350956Y0003095125D01*
X0000358455Y0003095125D01*
X0000334083Y0003078252D02*
X0000334083Y0003117622D01*
X0000311586Y0003078252D01*
X0000311586Y0003117622D01*
X0000292838Y0003078252D02*
X0000292838Y0003117622D01*
X0000283464Y0003117622D01*
X0000277840Y0003115748D01*
X0000274090Y0003111998D01*
X0000272215Y0003108248D01*
X0000270341Y0003100749D01*
X0000270341Y0003095125D01*
X0000272215Y0003087626D01*
X0000274090Y0003083877D01*
X0000277840Y0003080127D01*
X0000283464Y0003078252D01*
X0000292838Y0003078252D01*
X0000371578Y0003366048D02*
X0000371578Y0003405418D01*
X0000356580Y0003405418D01*
X0000352830Y0003403543D01*
X0000350956Y0003401668D01*
X0000349081Y0003397919D01*
X0000349081Y0003392294D01*
X0000350956Y0003388545D01*
X0000352830Y0003386670D01*
X0000356580Y0003384795D01*
X0000371578Y0003384795D01*
X0000319085Y0003386670D02*
X0000313460Y0003384795D01*
X0000311586Y0003382920D01*
X0000309711Y0003379171D01*
X0000309711Y0003373547D01*
X0000311586Y0003369797D01*
X0000313460Y0003367922D01*
X0000317210Y0003366048D01*
X0000332208Y0003366048D01*
X0000332208Y0003405418D01*
X0000319085Y0003405418D01*
X0000315335Y0003403543D01*
X0000313460Y0003401668D01*
X0000311586Y0003397919D01*
X0000311586Y0003394169D01*
X0000313460Y0003390419D01*
X0000315335Y0003388545D01*
X0000319085Y0003386670D01*
X0000332208Y0003386670D01*
X0000294713Y0003401668D02*
X0000292838Y0003403543D01*
X0000289088Y0003405418D01*
X0000279715Y0003405418D01*
X0000275965Y0003403543D01*
X0000274090Y0003401668D01*
X0000272215Y0003397919D01*
X0000272215Y0003394169D01*
X0000274090Y0003388545D01*
X0000296587Y0003366048D01*
X0000272215Y0003366048D01*
X0000371578Y0003245969D02*
X0000347206Y0003245969D01*
X0000360329Y0003230971D01*
X0000354705Y0003230971D01*
X0000350956Y0003229096D01*
X0000349081Y0003227221D01*
X0000347206Y0003223472D01*
X0000347206Y0003214098D01*
X0000349081Y0003210348D01*
X0000350956Y0003208473D01*
X0000354705Y0003206599D01*
X0000365954Y0003206599D01*
X0000369703Y0003208473D01*
X0000371578Y0003210348D01*
X0000335957Y0003245969D02*
X0000322834Y0003206599D01*
X0000309711Y0003245969D01*
X0000300337Y0003245969D02*
X0000275965Y0003245969D01*
X0000289088Y0003230971D01*
X0000283464Y0003230971D01*
X0000279715Y0003229096D01*
X0000277840Y0003227221D01*
X0000275965Y0003223472D01*
X0000275965Y0003214098D01*
X0000277840Y0003210348D01*
X0000279715Y0003208473D01*
X0000283464Y0003206599D01*
X0000294713Y0003206599D01*
X0000298462Y0003208473D01*
X0000300337Y0003210348D01*
X0000979246Y0002930536D02*
X0000997993Y0002930536D01*
X0000997993Y0002969906D01*
X0000966122Y0002951158D02*
X0000952999Y0002951158D01*
X0000947375Y0002930536D02*
X0000966122Y0002930536D01*
X0000966122Y0002969906D01*
X0000947375Y0002969906D01*
X0000930502Y0002930536D02*
X0000930502Y0002969906D01*
X0000921128Y0002969906D01*
X0000915504Y0002968031D01*
X0000911754Y0002964281D01*
X0000909879Y0002960532D01*
X0000908005Y0002953033D01*
X0000908005Y0002947409D01*
X0000909879Y0002939910D01*
X0000911754Y0002936160D01*
X0000915504Y0002932410D01*
X0000921128Y0002930536D01*
X0000930502Y0002930536D01*
X0000982995Y0002790654D02*
X0000982995Y0002830024D01*
X0000973622Y0002830024D01*
X0000967997Y0002828149D01*
X0000964248Y0002824400D01*
X0000962373Y0002820650D01*
X0000960498Y0002813151D01*
X0000960498Y0002807527D01*
X0000962373Y0002800028D01*
X0000964248Y0002796278D01*
X0000967997Y0002792529D01*
X0000973622Y0002790654D01*
X0000982995Y0002790654D01*
X0000947375Y0002830024D02*
X0000923003Y0002830024D01*
X0000936126Y0002815026D01*
X0000930502Y0002815026D01*
X0000926752Y0002813151D01*
X0000924878Y0002811276D01*
X0000923003Y0002807527D01*
X0000923003Y0002798153D01*
X0000924878Y0002794403D01*
X0000926752Y0002792529D01*
X0000930502Y0002790654D01*
X0000941751Y0002790654D01*
X0000945500Y0002792529D01*
X0000947375Y0002794403D01*
X0002182789Y0003092347D02*
X0002201537Y0003092347D01*
X0002201537Y0003131717D01*
X0002169666Y0003112969D02*
X0002156542Y0003112969D01*
X0002150918Y0003092347D02*
X0002169666Y0003092347D01*
X0002169666Y0003131717D01*
X0002150918Y0003131717D01*
X0002134045Y0003092347D02*
X0002134045Y0003131717D01*
X0002124671Y0003131717D01*
X0002119047Y0003129842D01*
X0002115298Y0003126092D01*
X0002113423Y0003122343D01*
X0002111548Y0003114844D01*
X0002111548Y0003109220D01*
X0002113423Y0003101721D01*
X0002115298Y0003097971D01*
X0002119047Y0003094222D01*
X0002124671Y0003092347D01*
X0002134045Y0003092347D01*
X0002186539Y0002952465D02*
X0002186539Y0002991835D01*
X0002177165Y0002991835D01*
X0002171541Y0002989960D01*
X0002167791Y0002986211D01*
X0002165916Y0002982461D01*
X0002164041Y0002974962D01*
X0002164041Y0002969338D01*
X0002165916Y0002961839D01*
X0002167791Y0002958089D01*
X0002171541Y0002954340D01*
X0002177165Y0002952465D01*
X0002186539Y0002952465D01*
X0002126546Y0002952465D02*
X0002149043Y0002952465D01*
X0002137795Y0002952465D02*
X0002137795Y0002991835D01*
X0002141544Y0002986211D01*
X0002145294Y0002982461D01*
X0002149043Y0002980586D01*
X0001069103Y0003259580D02*
X0001050356Y0003259580D01*
X0001072853Y0003248331D02*
X0001059730Y0003287701D01*
X0001046606Y0003248331D01*
X0001039107Y0003287701D02*
X0001016610Y0003287701D01*
X0001027859Y0003248331D02*
X0001027859Y0003287701D01*
X0001009111Y0003274578D02*
X0000994113Y0003274578D01*
X0001003487Y0003287701D02*
X0001003487Y0003253955D01*
X0001001612Y0003250206D01*
X0000997862Y0003248331D01*
X0000994113Y0003248331D01*
X0000980989Y0003248331D02*
X0000980989Y0003274578D01*
X0000980989Y0003287701D02*
X0000982864Y0003285826D01*
X0000980989Y0003283952D01*
X0000979115Y0003285826D01*
X0000980989Y0003287701D01*
X0000980989Y0003283952D01*
X0000962242Y0003274578D02*
X0000962242Y0003248331D01*
X0000962242Y0003270828D02*
X0000960367Y0003272703D01*
X0000956617Y0003274578D01*
X0000950993Y0003274578D01*
X0000947244Y0003272703D01*
X0000945369Y0003268953D01*
X0000945369Y0003248331D01*
X0000930371Y0003274578D02*
X0000920997Y0003248331D01*
X0000911623Y0003274578D02*
X0000920997Y0003248331D01*
X0000924746Y0003238957D01*
X0000926621Y0003237082D01*
X0000930371Y0003235208D01*
X0000891001Y0003270828D02*
X0000894750Y0003272703D01*
X0000896625Y0003274578D01*
X0000898500Y0003278327D01*
X0000898500Y0003280202D01*
X0000896625Y0003283952D01*
X0000894750Y0003285826D01*
X0000891001Y0003287701D01*
X0000883502Y0003287701D01*
X0000879752Y0003285826D01*
X0000877877Y0003283952D01*
X0000876002Y0003280202D01*
X0000876002Y0003278327D01*
X0000877877Y0003274578D01*
X0000879752Y0003272703D01*
X0000883502Y0003270828D01*
X0000891001Y0003270828D01*
X0000894750Y0003268953D01*
X0000896625Y0003267079D01*
X0000898500Y0003263329D01*
X0000898500Y0003255830D01*
X0000896625Y0003252081D01*
X0000894750Y0003250206D01*
X0000891001Y0003248331D01*
X0000883502Y0003248331D01*
X0000879752Y0003250206D01*
X0000877877Y0003252081D01*
X0000876002Y0003255830D01*
X0000876002Y0003263329D01*
X0000877877Y0003267079D01*
X0000879752Y0003268953D01*
X0000883502Y0003270828D01*
X0000838507Y0003248331D02*
X0000861004Y0003248331D01*
X0000849756Y0003248331D02*
X0000849756Y0003287701D01*
X0000853505Y0003282077D01*
X0000857255Y0003278327D01*
X0000861004Y0003276452D01*
X0000804761Y0003287701D02*
X0000812260Y0003287701D01*
X0000816010Y0003285826D01*
X0000817885Y0003283952D01*
X0000821634Y0003278327D01*
X0000823509Y0003270828D01*
X0000823509Y0003255830D01*
X0000821634Y0003252081D01*
X0000819760Y0003250206D01*
X0000816010Y0003248331D01*
X0000808511Y0003248331D01*
X0000804761Y0003250206D01*
X0000802887Y0003252081D01*
X0000801012Y0003255830D01*
X0000801012Y0003265204D01*
X0000802887Y0003268953D01*
X0000804761Y0003270828D01*
X0000808511Y0003272703D01*
X0000816010Y0003272703D01*
X0000819760Y0003270828D01*
X0000821634Y0003268953D01*
X0000823509Y0003265204D01*
X0000784139Y0003263329D02*
X0000754143Y0003263329D01*
X0000735395Y0003248331D02*
X0000735395Y0003287701D01*
X0000722272Y0003259580D01*
X0000709148Y0003287701D01*
X0000709148Y0003248331D01*
D13*
X0000910686Y0003172075D02*
X0000910686Y0003148172D01*
X0000909280Y0003145359D01*
X0000907874Y0003143953D01*
X0000905061Y0003142547D01*
X0000899437Y0003142547D01*
X0000896625Y0003143953D01*
X0000895219Y0003145359D01*
X0000893813Y0003148172D01*
X0000893813Y0003172075D01*
X0000864285Y0003142547D02*
X0000881158Y0003142547D01*
X0000872722Y0003142547D02*
X0000872722Y0003172075D01*
X0000875534Y0003167857D01*
X0000878346Y0003165045D01*
X0000881158Y0003163638D01*
D10*
X0002022422Y0002956992D02*
X0001998050Y0002956992D01*
X0002011173Y0002941994D01*
X0002005549Y0002941994D01*
X0002001799Y0002940120D01*
X0001999925Y0002938245D01*
X0001998050Y0002934495D01*
X0001998050Y0002925121D01*
X0001999925Y0002921372D01*
X0002001799Y0002919497D01*
X0002005549Y0002917622D01*
X0002016797Y0002917622D01*
X0002020547Y0002919497D01*
X0002022422Y0002921372D01*
X0001984926Y0002956992D02*
X0001960554Y0002956992D01*
X0001973678Y0002941994D01*
X0001968053Y0002941994D01*
X0001964304Y0002940120D01*
X0001962429Y0002938245D01*
X0001960554Y0002934495D01*
X0001960554Y0002925121D01*
X0001962429Y0002921372D01*
X0001964304Y0002919497D01*
X0001968053Y0002917622D01*
X0001979302Y0002917622D01*
X0001983052Y0002919497D01*
X0001984926Y0002921372D01*
X0001921184Y0002917622D02*
X0001934308Y0002936370D01*
X0001943682Y0002917622D02*
X0001943682Y0002956992D01*
X0001928683Y0002956992D01*
X0001924934Y0002955118D01*
X0001923059Y0002953243D01*
X0001921184Y0002949493D01*
X0001921184Y0002943869D01*
X0001923059Y0002940120D01*
X0001924934Y0002938245D01*
X0001928683Y0002936370D01*
X0001943682Y0002936370D01*
D12*
X0001973490Y0002984608D02*
X0001978740Y0002992107D01*
X0001982489Y0002984608D02*
X0001982489Y0003000356D01*
X0001976490Y0003000356D01*
X0001974990Y0002999606D01*
X0001974240Y0002998856D01*
X0001973490Y0002997356D01*
X0001973490Y0002995106D01*
X0001974240Y0002993607D01*
X0001974990Y0002992857D01*
X0001976490Y0002992107D01*
X0001982489Y0002992107D01*
X0001959242Y0003000356D02*
X0001966741Y0003000356D01*
X0001967491Y0002992857D01*
X0001966741Y0002993607D01*
X0001965241Y0002994356D01*
X0001961492Y0002994356D01*
X0001959992Y0002993607D01*
X0001959242Y0002992857D01*
X0001958492Y0002991357D01*
X0001958492Y0002987607D01*
X0001959242Y0002986107D01*
X0001959992Y0002985358D01*
X0001961492Y0002984608D01*
X0001965241Y0002984608D01*
X0001966741Y0002985358D01*
X0001967491Y0002986107D01*
D10*
X0002371634Y0003005418D02*
X0002347262Y0003005418D01*
X0002360386Y0002990419D01*
X0002354761Y0002990419D01*
X0002351012Y0002988545D01*
X0002349137Y0002986670D01*
X0002347262Y0002982920D01*
X0002347262Y0002973547D01*
X0002349137Y0002969797D01*
X0002351012Y0002967922D01*
X0002354761Y0002966048D01*
X0002366010Y0002966048D01*
X0002369760Y0002967922D01*
X0002371634Y0002969797D01*
X0002334139Y0003005418D02*
X0002309767Y0003005418D01*
X0002322890Y0002990419D01*
X0002317266Y0002990419D01*
X0002313517Y0002988545D01*
X0002311642Y0002986670D01*
X0002309767Y0002982920D01*
X0002309767Y0002973547D01*
X0002311642Y0002969797D01*
X0002313517Y0002967922D01*
X0002317266Y0002966048D01*
X0002328515Y0002966048D01*
X0002332264Y0002967922D01*
X0002334139Y0002969797D01*
X0002270397Y0002966048D02*
X0002283520Y0002984795D01*
X0002292894Y0002966048D02*
X0002292894Y0003005418D01*
X0002277896Y0003005418D01*
X0002274146Y0003003543D01*
X0002272272Y0003001668D01*
X0002270397Y0002997919D01*
X0002270397Y0002992294D01*
X0002272272Y0002988545D01*
X0002274146Y0002986670D01*
X0002277896Y0002984795D01*
X0002292894Y0002984795D01*
D12*
X0002322703Y0003033033D02*
X0002327952Y0003040532D01*
X0002331702Y0003033033D02*
X0002331702Y0003048781D01*
X0002325703Y0003048781D01*
X0002324203Y0003048031D01*
X0002323453Y0003047281D01*
X0002322703Y0003045781D01*
X0002322703Y0003043532D01*
X0002323453Y0003042032D01*
X0002324203Y0003041282D01*
X0002325703Y0003040532D01*
X0002331702Y0003040532D01*
X0002309205Y0003043532D02*
X0002309205Y0003033033D01*
X0002312954Y0003049531D02*
X0002316704Y0003038282D01*
X0002306955Y0003038282D01*
D10*
X0000914660Y0003099812D02*
X0000909036Y0003097937D01*
X0000899662Y0003097937D01*
X0000895912Y0003099812D01*
X0000894038Y0003101687D01*
X0000892163Y0003105436D01*
X0000892163Y0003109186D01*
X0000894038Y0003112935D01*
X0000895912Y0003114810D01*
X0000899662Y0003116685D01*
X0000907161Y0003118560D01*
X0000910911Y0003120434D01*
X0000912785Y0003122309D01*
X0000914660Y0003126059D01*
X0000914660Y0003129808D01*
X0000912785Y0003133558D01*
X0000910911Y0003135433D01*
X0000907161Y0003137307D01*
X0000897787Y0003137307D01*
X0000892163Y0003135433D01*
X0000869666Y0003097937D02*
X0000873415Y0003099812D01*
X0000875290Y0003101687D01*
X0000877165Y0003105436D01*
X0000877165Y0003116685D01*
X0000875290Y0003120434D01*
X0000873415Y0003122309D01*
X0000869666Y0003124184D01*
X0000864041Y0003124184D01*
X0000860292Y0003122309D01*
X0000858417Y0003120434D01*
X0000856542Y0003116685D01*
X0000856542Y0003105436D01*
X0000858417Y0003101687D01*
X0000860292Y0003099812D01*
X0000864041Y0003097937D01*
X0000869666Y0003097937D01*
X0000834045Y0003097937D02*
X0000837795Y0003099812D01*
X0000839670Y0003103562D01*
X0000839670Y0003137307D01*
X0000802174Y0003097937D02*
X0000802174Y0003137307D01*
X0000802174Y0003099812D02*
X0000805924Y0003097937D01*
X0000813423Y0003097937D01*
X0000817172Y0003099812D01*
X0000819047Y0003101687D01*
X0000820922Y0003105436D01*
X0000820922Y0003116685D01*
X0000819047Y0003120434D01*
X0000817172Y0003122309D01*
X0000813423Y0003124184D01*
X0000805924Y0003124184D01*
X0000802174Y0003122309D01*
X0000768428Y0003099812D02*
X0000772178Y0003097937D01*
X0000779677Y0003097937D01*
X0000783427Y0003099812D01*
X0000785301Y0003103562D01*
X0000785301Y0003118560D01*
X0000783427Y0003122309D01*
X0000779677Y0003124184D01*
X0000772178Y0003124184D01*
X0000768428Y0003122309D01*
X0000766554Y0003118560D01*
X0000766554Y0003114810D01*
X0000785301Y0003111061D01*
X0000749681Y0003097937D02*
X0000749681Y0003124184D01*
X0000749681Y0003116685D02*
X0000747806Y0003120434D01*
X0000745931Y0003122309D01*
X0000742182Y0003124184D01*
X0000738432Y0003124184D01*
X0000714060Y0003137307D02*
X0000714060Y0003109186D01*
X0000715935Y0003103562D01*
X0000719685Y0003099812D01*
X0000725309Y0003097937D01*
X0000729058Y0003097937D01*
X0000678440Y0003124184D02*
X0000678440Y0003097937D01*
X0000695313Y0003124184D02*
X0000695313Y0003103562D01*
X0000693438Y0003099812D01*
X0000689688Y0003097937D01*
X0000684064Y0003097937D01*
X0000680314Y0003099812D01*
X0000678440Y0003101687D01*
X0000659692Y0003097937D02*
X0000659692Y0003124184D01*
X0000659692Y0003120434D02*
X0000657817Y0003122309D01*
X0000654068Y0003124184D01*
X0000648443Y0003124184D01*
X0000644694Y0003122309D01*
X0000642819Y0003118560D01*
X0000642819Y0003097937D01*
X0000642819Y0003118560D02*
X0000640944Y0003122309D01*
X0000637195Y0003124184D01*
X0000631570Y0003124184D01*
X0000627821Y0003122309D01*
X0000625946Y0003118560D01*
X0000625946Y0003097937D01*
X0000607199Y0003124184D02*
X0000607199Y0003084814D01*
X0000607199Y0003122309D02*
X0000603449Y0003124184D01*
X0000595950Y0003124184D01*
X0000592200Y0003122309D01*
X0000590326Y0003120434D01*
X0000588451Y0003116685D01*
X0000588451Y0003105436D01*
X0000590326Y0003101687D01*
X0000592200Y0003099812D01*
X0000595950Y0003097937D01*
X0000603449Y0003097937D01*
X0000607199Y0003099812D01*
X0000556580Y0003099812D02*
X0000560329Y0003097937D01*
X0000567829Y0003097937D01*
X0000571578Y0003099812D01*
X0000573453Y0003103562D01*
X0000573453Y0003118560D01*
X0000571578Y0003122309D01*
X0000567829Y0003124184D01*
X0000560329Y0003124184D01*
X0000556580Y0003122309D01*
X0000554705Y0003118560D01*
X0000554705Y0003114810D01*
X0000573453Y0003111061D01*
X0000537832Y0003097937D02*
X0000537832Y0003124184D01*
X0000537832Y0003116685D02*
X0000535957Y0003120434D01*
X0000534083Y0003122309D01*
X0000530333Y0003124184D01*
X0000526584Y0003124184D01*
X0000522834Y0003094188D02*
X0000492838Y0003094188D01*
X0000485339Y0003133558D02*
X0000483464Y0003135433D01*
X0000479715Y0003137307D01*
X0000470341Y0003137307D01*
X0000466591Y0003135433D01*
X0000464716Y0003133558D01*
X0000462842Y0003129808D01*
X0000462842Y0003126059D01*
X0000464716Y0003120434D01*
X0000487214Y0003097937D01*
X0000462842Y0003097937D01*
X0000455343Y0003094188D02*
X0000425346Y0003094188D01*
X0000402849Y0003118560D02*
X0000397225Y0003116685D01*
X0000395350Y0003114810D01*
X0000393475Y0003111061D01*
X0000393475Y0003105436D01*
X0000395350Y0003101687D01*
X0000397225Y0003099812D01*
X0000400974Y0003097937D01*
X0000415972Y0003097937D01*
X0000415972Y0003137307D01*
X0000402849Y0003137307D01*
X0000399100Y0003135433D01*
X0000397225Y0003133558D01*
X0000395350Y0003129808D01*
X0000395350Y0003126059D01*
X0000397225Y0003122309D01*
X0000399100Y0003120434D01*
X0000402849Y0003118560D01*
X0000415972Y0003118560D01*
X0000376602Y0003097937D02*
X0000376602Y0003124184D01*
X0000376602Y0003116685D02*
X0000374728Y0003120434D01*
X0000372853Y0003122309D01*
X0000369103Y0003124184D01*
X0000365354Y0003124184D01*
X0000352230Y0003097937D02*
X0000352230Y0003124184D01*
X0000352230Y0003137307D02*
X0000354105Y0003135433D01*
X0000352230Y0003133558D01*
X0000350356Y0003135433D01*
X0000352230Y0003137307D01*
X0000352230Y0003133558D01*
X0000316610Y0003097937D02*
X0000316610Y0003137307D01*
X0000316610Y0003099812D02*
X0000320359Y0003097937D01*
X0000327858Y0003097937D01*
X0000331608Y0003099812D01*
X0000333483Y0003101687D01*
X0000335358Y0003105436D01*
X0000335358Y0003116685D01*
X0000333483Y0003120434D01*
X0000331608Y0003122309D01*
X0000327858Y0003124184D01*
X0000320359Y0003124184D01*
X0000316610Y0003122309D01*
X0000280989Y0003124184D02*
X0000280989Y0003092313D01*
X0000282864Y0003088563D01*
X0000284739Y0003086689D01*
X0000288488Y0003084814D01*
X0000294113Y0003084814D01*
X0000297862Y0003086689D01*
X0000280989Y0003099812D02*
X0000284739Y0003097937D01*
X0000292238Y0003097937D01*
X0000295987Y0003099812D01*
X0000297862Y0003101687D01*
X0000299737Y0003105436D01*
X0000299737Y0003116685D01*
X0000297862Y0003120434D01*
X0000295987Y0003122309D01*
X0000292238Y0003124184D01*
X0000284739Y0003124184D01*
X0000280989Y0003122309D01*
X0000247244Y0003099812D02*
X0000250993Y0003097937D01*
X0000258492Y0003097937D01*
X0000262242Y0003099812D01*
X0000264116Y0003103562D01*
X0000264116Y0003118560D01*
X0000262242Y0003122309D01*
X0000258492Y0003124184D01*
X0000250993Y0003124184D01*
X0000247244Y0003122309D01*
X0000245369Y0003118560D01*
X0000245369Y0003114810D01*
X0000264116Y0003111061D01*
X0000211623Y0003097937D02*
X0000211623Y0003137307D01*
X0000211623Y0003099812D02*
X0000215373Y0003097937D01*
X0000222872Y0003097937D01*
X0000226621Y0003099812D01*
X0000228496Y0003101687D01*
X0000230371Y0003105436D01*
X0000230371Y0003116685D01*
X0000228496Y0003120434D01*
X0000226621Y0003122309D01*
X0000222872Y0003124184D01*
X0000215373Y0003124184D01*
X0000211623Y0003122309D01*
X0001069385Y0003073434D02*
X0001063760Y0003071559D01*
X0001054386Y0003071559D01*
X0001050637Y0003073434D01*
X0001048762Y0003075309D01*
X0001046887Y0003079058D01*
X0001046887Y0003082808D01*
X0001048762Y0003086557D01*
X0001050637Y0003088432D01*
X0001054386Y0003090307D01*
X0001061885Y0003092182D01*
X0001065635Y0003094057D01*
X0001067510Y0003095931D01*
X0001069385Y0003099681D01*
X0001069385Y0003103430D01*
X0001067510Y0003107180D01*
X0001065635Y0003109055D01*
X0001061885Y0003110929D01*
X0001052512Y0003110929D01*
X0001046887Y0003109055D01*
X0001024390Y0003071559D02*
X0001028140Y0003073434D01*
X0001030014Y0003075309D01*
X0001031889Y0003079058D01*
X0001031889Y0003090307D01*
X0001030014Y0003094057D01*
X0001028140Y0003095931D01*
X0001024390Y0003097806D01*
X0001018766Y0003097806D01*
X0001015016Y0003095931D01*
X0001013142Y0003094057D01*
X0001011267Y0003090307D01*
X0001011267Y0003079058D01*
X0001013142Y0003075309D01*
X0001015016Y0003073434D01*
X0001018766Y0003071559D01*
X0001024390Y0003071559D01*
X0000988770Y0003071559D02*
X0000992519Y0003073434D01*
X0000994394Y0003077184D01*
X0000994394Y0003110929D01*
X0000956899Y0003071559D02*
X0000956899Y0003110929D01*
X0000956899Y0003073434D02*
X0000960648Y0003071559D01*
X0000968147Y0003071559D01*
X0000971897Y0003073434D01*
X0000973772Y0003075309D01*
X0000975646Y0003079058D01*
X0000975646Y0003090307D01*
X0000973772Y0003094057D01*
X0000971897Y0003095931D01*
X0000968147Y0003097806D01*
X0000960648Y0003097806D01*
X0000956899Y0003095931D01*
X0000923153Y0003073434D02*
X0000926902Y0003071559D01*
X0000934401Y0003071559D01*
X0000938151Y0003073434D01*
X0000940026Y0003077184D01*
X0000940026Y0003092182D01*
X0000938151Y0003095931D01*
X0000934401Y0003097806D01*
X0000926902Y0003097806D01*
X0000923153Y0003095931D01*
X0000921278Y0003092182D01*
X0000921278Y0003088432D01*
X0000940026Y0003084683D01*
X0000904405Y0003071559D02*
X0000904405Y0003097806D01*
X0000904405Y0003090307D02*
X0000902530Y0003094057D01*
X0000900656Y0003095931D01*
X0000896906Y0003097806D01*
X0000893157Y0003097806D01*
X0000868785Y0003110929D02*
X0000868785Y0003082808D01*
X0000870659Y0003077184D01*
X0000874409Y0003073434D01*
X0000880033Y0003071559D01*
X0000883783Y0003071559D01*
X0000833164Y0003097806D02*
X0000833164Y0003071559D01*
X0000850037Y0003097806D02*
X0000850037Y0003077184D01*
X0000848162Y0003073434D01*
X0000844413Y0003071559D01*
X0000838788Y0003071559D01*
X0000835039Y0003073434D01*
X0000833164Y0003075309D01*
X0000814416Y0003071559D02*
X0000814416Y0003097806D01*
X0000814416Y0003094057D02*
X0000812542Y0003095931D01*
X0000808792Y0003097806D01*
X0000803168Y0003097806D01*
X0000799418Y0003095931D01*
X0000797544Y0003092182D01*
X0000797544Y0003071559D01*
X0000797544Y0003092182D02*
X0000795669Y0003095931D01*
X0000791919Y0003097806D01*
X0000786295Y0003097806D01*
X0000782545Y0003095931D01*
X0000780671Y0003092182D01*
X0000780671Y0003071559D01*
X0000761923Y0003097806D02*
X0000761923Y0003058436D01*
X0000761923Y0003095931D02*
X0000758173Y0003097806D01*
X0000750674Y0003097806D01*
X0000746925Y0003095931D01*
X0000745050Y0003094057D01*
X0000743175Y0003090307D01*
X0000743175Y0003079058D01*
X0000745050Y0003075309D01*
X0000746925Y0003073434D01*
X0000750674Y0003071559D01*
X0000758173Y0003071559D01*
X0000761923Y0003073434D01*
X0000711304Y0003073434D02*
X0000715054Y0003071559D01*
X0000722553Y0003071559D01*
X0000726302Y0003073434D01*
X0000728177Y0003077184D01*
X0000728177Y0003092182D01*
X0000726302Y0003095931D01*
X0000722553Y0003097806D01*
X0000715054Y0003097806D01*
X0000711304Y0003095931D01*
X0000709430Y0003092182D01*
X0000709430Y0003088432D01*
X0000728177Y0003084683D01*
X0000692557Y0003071559D02*
X0000692557Y0003097806D01*
X0000692557Y0003090307D02*
X0000690682Y0003094057D01*
X0000688807Y0003095931D01*
X0000685058Y0003097806D01*
X0000681308Y0003097806D01*
X0000677559Y0003067810D02*
X0000647562Y0003067810D01*
X0000640063Y0003107180D02*
X0000638188Y0003109055D01*
X0000634439Y0003110929D01*
X0000625065Y0003110929D01*
X0000621316Y0003109055D01*
X0000619441Y0003107180D01*
X0000617566Y0003103430D01*
X0000617566Y0003099681D01*
X0000619441Y0003094057D01*
X0000641938Y0003071559D01*
X0000617566Y0003071559D01*
X0000610067Y0003067810D02*
X0000580071Y0003067810D01*
X0000557573Y0003092182D02*
X0000551949Y0003090307D01*
X0000550074Y0003088432D01*
X0000548200Y0003084683D01*
X0000548200Y0003079058D01*
X0000550074Y0003075309D01*
X0000551949Y0003073434D01*
X0000555699Y0003071559D01*
X0000570697Y0003071559D01*
X0000570697Y0003110929D01*
X0000557573Y0003110929D01*
X0000553824Y0003109055D01*
X0000551949Y0003107180D01*
X0000550074Y0003103430D01*
X0000550074Y0003099681D01*
X0000551949Y0003095931D01*
X0000553824Y0003094057D01*
X0000557573Y0003092182D01*
X0000570697Y0003092182D01*
X0000531327Y0003071559D02*
X0000531327Y0003097806D01*
X0000531327Y0003090307D02*
X0000529452Y0003094057D01*
X0000527577Y0003095931D01*
X0000523828Y0003097806D01*
X0000520078Y0003097806D01*
X0000506955Y0003071559D02*
X0000506955Y0003097806D01*
X0000506955Y0003110929D02*
X0000508830Y0003109055D01*
X0000506955Y0003107180D01*
X0000505080Y0003109055D01*
X0000506955Y0003110929D01*
X0000506955Y0003107180D01*
X0000471334Y0003071559D02*
X0000471334Y0003110929D01*
X0000471334Y0003073434D02*
X0000475084Y0003071559D01*
X0000482583Y0003071559D01*
X0000486332Y0003073434D01*
X0000488207Y0003075309D01*
X0000490082Y0003079058D01*
X0000490082Y0003090307D01*
X0000488207Y0003094057D01*
X0000486332Y0003095931D01*
X0000482583Y0003097806D01*
X0000475084Y0003097806D01*
X0000471334Y0003095931D01*
X0000435714Y0003097806D02*
X0000435714Y0003065935D01*
X0000437589Y0003062185D01*
X0000439463Y0003060311D01*
X0000443213Y0003058436D01*
X0000448837Y0003058436D01*
X0000452587Y0003060311D01*
X0000435714Y0003073434D02*
X0000439463Y0003071559D01*
X0000446962Y0003071559D01*
X0000450712Y0003073434D01*
X0000452587Y0003075309D01*
X0000454461Y0003079058D01*
X0000454461Y0003090307D01*
X0000452587Y0003094057D01*
X0000450712Y0003095931D01*
X0000446962Y0003097806D01*
X0000439463Y0003097806D01*
X0000435714Y0003095931D01*
X0000401968Y0003073434D02*
X0000405718Y0003071559D01*
X0000413217Y0003071559D01*
X0000416966Y0003073434D01*
X0000418841Y0003077184D01*
X0000418841Y0003092182D01*
X0000416966Y0003095931D01*
X0000413217Y0003097806D01*
X0000405718Y0003097806D01*
X0000401968Y0003095931D01*
X0000400093Y0003092182D01*
X0000400093Y0003088432D01*
X0000418841Y0003084683D01*
X0000366347Y0003071559D02*
X0000366347Y0003110929D01*
X0000366347Y0003073434D02*
X0000370097Y0003071559D01*
X0000377596Y0003071559D01*
X0000381346Y0003073434D01*
X0000383220Y0003075309D01*
X0000385095Y0003079058D01*
X0000385095Y0003090307D01*
X0000383220Y0003094057D01*
X0000381346Y0003095931D01*
X0000377596Y0003097806D01*
X0000370097Y0003097806D01*
X0000366347Y0003095931D01*
X0000659730Y0003219310D02*
X0000661604Y0003221184D01*
X0000663479Y0003226809D01*
X0000663479Y0003230558D01*
X0000661604Y0003236182D01*
X0000657855Y0003239932D01*
X0000654105Y0003241807D01*
X0000646606Y0003243682D01*
X0000640982Y0003243682D01*
X0000633483Y0003241807D01*
X0000629733Y0003239932D01*
X0000625984Y0003236182D01*
X0000624109Y0003230558D01*
X0000624109Y0003226809D01*
X0000625984Y0003221184D01*
X0000627859Y0003219310D01*
D12*
X0000707592Y0003234120D02*
X0000708342Y0003234870D01*
X0000709092Y0003237120D01*
X0000709092Y0003238620D01*
X0000708342Y0003240869D01*
X0000706842Y0003242369D01*
X0000705343Y0003243119D01*
X0000702343Y0003243869D01*
X0000700093Y0003243869D01*
X0000697094Y0003243119D01*
X0000695594Y0003242369D01*
X0000694094Y0003240869D01*
X0000693344Y0003238620D01*
X0000693344Y0003237120D01*
X0000694094Y0003234870D01*
X0000694844Y0003234120D01*
X0000709092Y0003219122D02*
X0000709092Y0003228121D01*
X0000709092Y0003223622D02*
X0000693344Y0003223622D01*
X0000695594Y0003225121D01*
X0000697094Y0003226621D01*
X0000697844Y0003228121D01*
G04 next file*
G04 #@! TF.GenerationSoftware,KiCad,Pcbnew,(5.1.0)-1*
G04 #@! TF.CreationDate,2019-07-24T00:39:13-06:00*
G04 #@! TF.ProjectId,twinkletwinkie,7477696e-6b6c-4657-9477-696e6b69652e,rev?*
G04 #@! TF.SameCoordinates,PX89e92d0PY44794c0*
G04 #@! TF.FileFunction,Other,Fab,Top*
G04 Gerber Fmt 4.6, Leading zero omitted, Abs format (unit mm)*
G04 Created by KiCad (PCBNEW (5.1.0)-1) date 2019-07-24 00:39:13*
G04 APERTURE LIST*
G04 APERTURE END LIST*
G04 next file*
G04 #@! TF.GenerationSoftware,KiCad,Pcbnew,(5.1.0)-1*
G04 #@! TF.CreationDate,2019-07-24T00:39:13-06:00*
G04 #@! TF.ProjectId,twinkletwinkie,7477696e-6b6c-4657-9477-696e6b69652e,rev?*
G04 #@! TF.SameCoordinates,PX89e92d0PY44794c0*
G04 #@! TF.FileFunction,Other,Fab,Bot*
G04 Gerber Fmt 4.6, Leading zero omitted, Abs format (unit mm)*
G04 Created by KiCad (PCBNEW (5.1.0)-1) date 2019-07-24 00:39:13*
G04 APERTURE LIST*
G04 APERTURE END LIST*
D24*
X0001836951Y0002018803D02*
X0001814454Y0002018803D01*
X0001825702Y0001979433D02*
X0001825702Y0002018803D01*
X0001801331Y0001979433D02*
X0001801331Y0002018803D01*
X0001801331Y0002000056D02*
X0001778833Y0002000056D01*
X0001778833Y0001979433D02*
X0001778833Y0002018803D01*
X0001760086Y0001979433D02*
X0001760086Y0002018803D01*
X0001743213Y0001981308D02*
X0001737589Y0001979433D01*
X0001728215Y0001979433D01*
X0001724465Y0001981308D01*
X0001722590Y0001983183D01*
X0001720716Y0001986932D01*
X0001720716Y0001990682D01*
X0001722590Y0001994431D01*
X0001724465Y0001996306D01*
X0001728215Y0001998181D01*
X0001735714Y0002000056D01*
X0001739463Y0002001931D01*
X0001741338Y0002003805D01*
X0001743213Y0002007555D01*
X0001743213Y0002011304D01*
X0001741338Y0002015054D01*
X0001739463Y0002016929D01*
X0001735714Y0002018803D01*
X0001726340Y0002018803D01*
X0001720716Y0002016929D01*
X0001675721Y0001990682D02*
X0001656974Y0001990682D01*
X0001679471Y0001979433D02*
X0001666347Y0002018803D01*
X0001653224Y0001979433D01*
X0001617604Y0001979433D02*
X0001630727Y0001998181D01*
X0001640101Y0001979433D02*
X0001640101Y0002018803D01*
X0001625103Y0002018803D01*
X0001621353Y0002016929D01*
X0001619478Y0002015054D01*
X0001617604Y0002011304D01*
X0001617604Y0002005680D01*
X0001619478Y0002001931D01*
X0001621353Y0002000056D01*
X0001625103Y0001998181D01*
X0001640101Y0001998181D01*
X0001600731Y0002000056D02*
X0001587607Y0002000056D01*
X0001581983Y0001979433D02*
X0001600731Y0001979433D01*
X0001600731Y0002018803D01*
X0001581983Y0002018803D01*
X0001566985Y0001990682D02*
X0001548237Y0001990682D01*
X0001570734Y0001979433D02*
X0001557611Y0002018803D01*
X0001544488Y0001979433D01*
X0001488245Y0002000056D02*
X0001501368Y0002000056D01*
X0001501368Y0001979433D02*
X0001501368Y0002018803D01*
X0001482620Y0002018803D01*
X0001460123Y0002018803D02*
X0001452624Y0002018803D01*
X0001448875Y0002016929D01*
X0001445125Y0002013179D01*
X0001443250Y0002005680D01*
X0001443250Y0001992557D01*
X0001445125Y0001985058D01*
X0001448875Y0001981308D01*
X0001452624Y0001979433D01*
X0001460123Y0001979433D01*
X0001463873Y0001981308D01*
X0001467622Y0001985058D01*
X0001469497Y0001992557D01*
X0001469497Y0002005680D01*
X0001467622Y0002013179D01*
X0001463873Y0002016929D01*
X0001460123Y0002018803D01*
X0001403880Y0001979433D02*
X0001417004Y0001998181D01*
X0001426377Y0001979433D02*
X0001426377Y0002018803D01*
X0001411379Y0002018803D01*
X0001407630Y0002016929D01*
X0001405755Y0002015054D01*
X0001403880Y0002011304D01*
X0001403880Y0002005680D01*
X0001405755Y0002001931D01*
X0001407630Y0002000056D01*
X0001411379Y0001998181D01*
X0001426377Y0001998181D01*
X0001343888Y0002000056D02*
X0001357011Y0002000056D01*
X0001357011Y0001979433D02*
X0001357011Y0002018803D01*
X0001338263Y0002018803D01*
X0001325140Y0001990682D02*
X0001306392Y0001990682D01*
X0001328890Y0001979433D02*
X0001315766Y0002018803D01*
X0001302643Y0001979433D01*
X0001276396Y0002000056D02*
X0001270772Y0001998181D01*
X0001268897Y0001996306D01*
X0001267022Y0001992557D01*
X0001267022Y0001986932D01*
X0001268897Y0001983183D01*
X0001270772Y0001981308D01*
X0001274521Y0001979433D01*
X0001289520Y0001979433D01*
X0001289520Y0002018803D01*
X0001276396Y0002018803D01*
X0001272647Y0002016929D01*
X0001270772Y0002015054D01*
X0001268897Y0002011304D01*
X0001268897Y0002007555D01*
X0001270772Y0002003805D01*
X0001272647Y0002001931D01*
X0001276396Y0002000056D01*
X0001289520Y0002000056D01*
X0001220153Y0001979433D02*
X0001220153Y0002018803D01*
X0001207030Y0001990682D01*
X0001193907Y0002018803D01*
X0001193907Y0001979433D01*
X0001177034Y0001990682D02*
X0001158286Y0001990682D01*
X0001180783Y0001979433D02*
X0001167660Y0002018803D01*
X0001154536Y0001979433D01*
X0001118916Y0001979433D02*
X0001132039Y0001998181D01*
X0001141413Y0001979433D02*
X0001141413Y0002018803D01*
X0001126415Y0002018803D01*
X0001122665Y0002016929D01*
X0001120791Y0002015054D01*
X0001118916Y0002011304D01*
X0001118916Y0002005680D01*
X0001120791Y0002001931D01*
X0001122665Y0002000056D01*
X0001126415Y0001998181D01*
X0001141413Y0001998181D01*
X0001102043Y0001979433D02*
X0001102043Y0002018803D01*
X0001079546Y0001979433D02*
X0001096419Y0002001931D01*
X0001079546Y0002018803D02*
X0001102043Y0001996306D01*
X0001062673Y0001979433D02*
X0001062673Y0002018803D01*
X0001043925Y0001979433D02*
X0001043925Y0002018803D01*
X0001021428Y0001979433D01*
X0001021428Y0002018803D01*
X0000982058Y0002016929D02*
X0000985807Y0002018803D01*
X0000991432Y0002018803D01*
X0000997056Y0002016929D01*
X0001000806Y0002013179D01*
X0001002680Y0002009430D01*
X0001004555Y0002001931D01*
X0001004555Y0001996306D01*
X0001002680Y0001988807D01*
X0001000806Y0001985058D01*
X0000997056Y0001981308D01*
X0000991432Y0001979433D01*
X0000987682Y0001979433D01*
X0000982058Y0001981308D01*
X0000980183Y0001983183D01*
X0000980183Y0001996306D01*
X0000987682Y0001996306D01*
X0000955511Y0001925196D02*
X0000957874Y0002060236D01*
X0001867716Y0001924803D02*
X0000955511Y0001925196D01*
X0001867716Y0002061417D02*
X0001867716Y0001924803D01*
X0000957480Y0002060236D02*
X0001867716Y0002061417D01*
D25*
X0000839370Y0002043307D02*
X0000839370Y0002106299D01*
X0000807874Y0002043307D02*
X0000839370Y0002043307D01*
X0000807874Y0002106299D02*
X0000807874Y0002043307D01*
X0000839370Y0002106299D02*
X0000807874Y0002106299D01*
X0001070866Y0001602755D02*
X0001133858Y0001602755D01*
X0001070866Y0001634251D02*
X0001070866Y0001602755D01*
X0001133858Y0001634251D02*
X0001070866Y0001634251D01*
X0001133858Y0001602755D02*
X0001133858Y0001634251D01*
X0001773228Y0001755511D02*
X0001773228Y0001708267D01*
X0001851968Y0001755511D02*
X0001773228Y0001755511D01*
X0001851968Y0001708267D02*
X0001851968Y0001755511D01*
X0001773228Y0001708267D02*
X0001851968Y0001708267D01*
X0000914566Y0001642125D02*
X0000914566Y0001594881D01*
X0000993307Y0001642125D02*
X0000914566Y0001642125D01*
X0000993307Y0001594881D02*
X0000993307Y0001642125D01*
X0000914566Y0001594881D02*
X0000993307Y0001594881D01*
X0002118110Y0001803937D02*
X0002118110Y0001756692D01*
X0002196850Y0001803937D02*
X0002118110Y0001803937D01*
X0002196850Y0001756692D02*
X0002196850Y0001803937D01*
X0002118110Y0001756692D02*
X0002196850Y0001756692D01*
X0000829133Y0001866535D02*
X0000858661Y0001837007D01*
X0000829133Y0001955118D02*
X0000829133Y0001866535D01*
X0000947244Y0001955118D02*
X0000829133Y0001955118D01*
X0000947244Y0001837007D02*
X0000947244Y0001955118D01*
X0000858661Y0001837007D02*
X0000947244Y0001837007D01*
X0001939370Y0001716141D02*
X0002002362Y0001716141D01*
X0001939370Y0001747637D02*
X0001939370Y0001716141D01*
X0002002362Y0001747637D02*
X0001939370Y0001747637D01*
X0002002362Y0001716141D02*
X0002002362Y0001747637D01*
X0002288582Y0001764566D02*
X0002351574Y0001764566D01*
X0002288582Y0001796062D02*
X0002288582Y0001764566D01*
X0002351574Y0001796062D02*
X0002288582Y0001796062D01*
X0002351574Y0001764566D02*
X0002351574Y0001796062D01*
X0000686220Y0002003149D02*
X0000686220Y0001940157D01*
X0000717716Y0002003149D02*
X0000686220Y0002003149D01*
X0000717716Y0001940157D02*
X0000717716Y0002003149D01*
X0000686220Y0001940157D02*
X0000717716Y0001940157D01*
D24*
X0000897731Y0002079490D02*
X0000897731Y0002101987D01*
X0000897731Y0002090738D02*
X0000858361Y0002090738D01*
X0000863985Y0002094488D01*
X0000867735Y0002098237D01*
X0000869610Y0002101987D01*
X0000897731Y0002062617D02*
X0000858361Y0002062617D01*
X0000882733Y0002058867D02*
X0000897731Y0002047619D01*
X0000871484Y0002047619D02*
X0000886482Y0002062617D01*
D26*
X0000830746Y0002077427D02*
X0000823247Y0002082677D01*
X0000830746Y0002086426D02*
X0000814998Y0002086426D01*
X0000814998Y0002080427D01*
X0000815748Y0002078927D01*
X0000816497Y0002078177D01*
X0000817997Y0002077427D01*
X0000820247Y0002077427D01*
X0000821747Y0002078177D01*
X0000822497Y0002078927D01*
X0000823247Y0002080427D01*
X0000823247Y0002086426D01*
X0000830746Y0002062429D02*
X0000830746Y0002071428D01*
X0000830746Y0002066929D02*
X0000814998Y0002066929D01*
X0000817247Y0002068428D01*
X0000818747Y0002069928D01*
X0000819497Y0002071428D01*
D24*
X0001153918Y0001583764D02*
X0001129546Y0001583764D01*
X0001142669Y0001568766D01*
X0001137045Y0001568766D01*
X0001133295Y0001566891D01*
X0001131421Y0001565016D01*
X0001129546Y0001561267D01*
X0001129546Y0001551893D01*
X0001131421Y0001548144D01*
X0001133295Y0001546269D01*
X0001137045Y0001544394D01*
X0001148293Y0001544394D01*
X0001152043Y0001546269D01*
X0001153918Y0001548144D01*
X0001116422Y0001583764D02*
X0001092050Y0001583764D01*
X0001105174Y0001568766D01*
X0001099550Y0001568766D01*
X0001095800Y0001566891D01*
X0001093925Y0001565016D01*
X0001092050Y0001561267D01*
X0001092050Y0001551893D01*
X0001093925Y0001548144D01*
X0001095800Y0001546269D01*
X0001099550Y0001544394D01*
X0001110798Y0001544394D01*
X0001114548Y0001546269D01*
X0001116422Y0001548144D01*
X0001052680Y0001544394D02*
X0001065804Y0001563142D01*
X0001075178Y0001544394D02*
X0001075178Y0001583764D01*
X0001060179Y0001583764D01*
X0001056430Y0001581889D01*
X0001054555Y0001580015D01*
X0001052680Y0001576265D01*
X0001052680Y0001570641D01*
X0001054555Y0001566891D01*
X0001056430Y0001565016D01*
X0001060179Y0001563142D01*
X0001075178Y0001563142D01*
D26*
X0001104986Y0001611379D02*
X0001110236Y0001618878D01*
X0001113985Y0001611379D02*
X0001113985Y0001627127D01*
X0001107986Y0001627127D01*
X0001106486Y0001626377D01*
X0001105736Y0001625628D01*
X0001104986Y0001624128D01*
X0001104986Y0001621878D01*
X0001105736Y0001620378D01*
X0001106486Y0001619628D01*
X0001107986Y0001618878D01*
X0001113985Y0001618878D01*
X0001091488Y0001627127D02*
X0001094488Y0001627127D01*
X0001095987Y0001626377D01*
X0001096737Y0001625628D01*
X0001098237Y0001623378D01*
X0001098987Y0001620378D01*
X0001098987Y0001614379D01*
X0001098237Y0001612879D01*
X0001097487Y0001612129D01*
X0001095987Y0001611379D01*
X0001092988Y0001611379D01*
X0001091488Y0001612129D01*
X0001090738Y0001612879D01*
X0001089988Y0001614379D01*
X0001089988Y0001618129D01*
X0001090738Y0001619628D01*
X0001091488Y0001620378D01*
X0001092988Y0001621128D01*
X0001095987Y0001621128D01*
X0001097487Y0001620378D01*
X0001098237Y0001619628D01*
X0001098987Y0001618129D01*
D24*
X0001837907Y0001784079D02*
X0001856655Y0001784079D01*
X0001856655Y0001823449D01*
X0001824784Y0001804701D02*
X0001811661Y0001804701D01*
X0001806036Y0001784079D02*
X0001824784Y0001784079D01*
X0001824784Y0001823449D01*
X0001806036Y0001823449D01*
X0001789163Y0001784079D02*
X0001789163Y0001823449D01*
X0001779790Y0001823449D01*
X0001774165Y0001821574D01*
X0001770416Y0001817825D01*
X0001768541Y0001814075D01*
X0001766666Y0001806576D01*
X0001766666Y0001800952D01*
X0001768541Y0001793453D01*
X0001770416Y0001789703D01*
X0001774165Y0001785954D01*
X0001779790Y0001784079D01*
X0001789163Y0001784079D01*
X0001841657Y0001644197D02*
X0001841657Y0001683567D01*
X0001832283Y0001683567D01*
X0001826659Y0001681692D01*
X0001822909Y0001677943D01*
X0001821034Y0001674193D01*
X0001819160Y0001666694D01*
X0001819160Y0001661070D01*
X0001821034Y0001653571D01*
X0001822909Y0001649821D01*
X0001826659Y0001646072D01*
X0001832283Y0001644197D01*
X0001841657Y0001644197D01*
X0001804161Y0001679818D02*
X0001802287Y0001681692D01*
X0001798537Y0001683567D01*
X0001789163Y0001683567D01*
X0001785414Y0001681692D01*
X0001783539Y0001679818D01*
X0001781664Y0001676068D01*
X0001781664Y0001672319D01*
X0001783539Y0001666694D01*
X0001806036Y0001644197D01*
X0001781664Y0001644197D01*
X0001755436Y0001662504D02*
X0001755436Y0001701874D01*
X0001740438Y0001701874D01*
X0001736689Y0001700000D01*
X0001734814Y0001698125D01*
X0001732939Y0001694375D01*
X0001732939Y0001688751D01*
X0001734814Y0001685001D01*
X0001736689Y0001683127D01*
X0001740438Y0001681252D01*
X0001755436Y0001681252D01*
X0001702943Y0001683127D02*
X0001697319Y0001681252D01*
X0001695444Y0001679377D01*
X0001693569Y0001675628D01*
X0001693569Y0001670003D01*
X0001695444Y0001666254D01*
X0001697319Y0001664379D01*
X0001701068Y0001662504D01*
X0001716066Y0001662504D01*
X0001716066Y0001701874D01*
X0001702943Y0001701874D01*
X0001699193Y0001700000D01*
X0001697319Y0001698125D01*
X0001695444Y0001694375D01*
X0001695444Y0001690626D01*
X0001697319Y0001686876D01*
X0001699193Y0001685001D01*
X0001702943Y0001683127D01*
X0001716066Y0001683127D01*
X0001669197Y0001701874D02*
X0001665448Y0001701874D01*
X0001661698Y0001700000D01*
X0001659823Y0001698125D01*
X0001657948Y0001694375D01*
X0001656074Y0001686876D01*
X0001656074Y0001677502D01*
X0001657948Y0001670003D01*
X0001659823Y0001666254D01*
X0001661698Y0001664379D01*
X0001665448Y0001662504D01*
X0001669197Y0001662504D01*
X0001672947Y0001664379D01*
X0001674821Y0001666254D01*
X0001676696Y0001670003D01*
X0001678571Y0001677502D01*
X0001678571Y0001686876D01*
X0001676696Y0001694375D01*
X0001674821Y0001698125D01*
X0001672947Y0001700000D01*
X0001669197Y0001701874D01*
X0001755436Y0001503055D02*
X0001755436Y0001542425D01*
X0001740438Y0001542425D01*
X0001736689Y0001540551D01*
X0001734814Y0001538676D01*
X0001732939Y0001534926D01*
X0001732939Y0001529302D01*
X0001734814Y0001525553D01*
X0001736689Y0001523678D01*
X0001740438Y0001521803D01*
X0001755436Y0001521803D01*
X0001702943Y0001523678D02*
X0001697319Y0001521803D01*
X0001695444Y0001519928D01*
X0001693569Y0001516179D01*
X0001693569Y0001510554D01*
X0001695444Y0001506805D01*
X0001697319Y0001504930D01*
X0001701068Y0001503055D01*
X0001716066Y0001503055D01*
X0001716066Y0001542425D01*
X0001702943Y0001542425D01*
X0001699193Y0001540551D01*
X0001697319Y0001538676D01*
X0001695444Y0001534926D01*
X0001695444Y0001531177D01*
X0001697319Y0001527427D01*
X0001699193Y0001525553D01*
X0001702943Y0001523678D01*
X0001716066Y0001523678D01*
X0001669197Y0001542425D02*
X0001665448Y0001542425D01*
X0001661698Y0001540551D01*
X0001659823Y0001538676D01*
X0001657948Y0001534926D01*
X0001656074Y0001527427D01*
X0001656074Y0001518054D01*
X0001657948Y0001510554D01*
X0001659823Y0001506805D01*
X0001661698Y0001504930D01*
X0001665448Y0001503055D01*
X0001669197Y0001503055D01*
X0001672947Y0001504930D01*
X0001674821Y0001506805D01*
X0001676696Y0001510554D01*
X0001678571Y0001518054D01*
X0001678571Y0001527427D01*
X0001676696Y0001534926D01*
X0001674821Y0001538676D01*
X0001672947Y0001540551D01*
X0001669197Y0001542425D01*
X0001601674Y0001635339D02*
X0001601674Y0001674709D01*
X0001586676Y0001674709D01*
X0001582927Y0001672834D01*
X0001581052Y0001670959D01*
X0001579177Y0001667210D01*
X0001579177Y0001661586D01*
X0001581052Y0001657836D01*
X0001582927Y0001655961D01*
X0001586676Y0001654087D01*
X0001601674Y0001654087D01*
X0001539807Y0001639088D02*
X0001541682Y0001637214D01*
X0001547306Y0001635339D01*
X0001551056Y0001635339D01*
X0001556680Y0001637214D01*
X0001560429Y0001640963D01*
X0001562304Y0001644713D01*
X0001564179Y0001652212D01*
X0001564179Y0001657836D01*
X0001562304Y0001665335D01*
X0001560429Y0001669085D01*
X0001556680Y0001672834D01*
X0001551056Y0001674709D01*
X0001547306Y0001674709D01*
X0001541682Y0001672834D01*
X0001539807Y0001670959D01*
X0001515435Y0001674709D02*
X0001511685Y0001674709D01*
X0001507936Y0001672834D01*
X0001506061Y0001670959D01*
X0001504186Y0001667210D01*
X0001502312Y0001659711D01*
X0001502312Y0001650337D01*
X0001504186Y0001642838D01*
X0001506061Y0001639088D01*
X0001507936Y0001637214D01*
X0001511685Y0001635339D01*
X0001515435Y0001635339D01*
X0001519185Y0001637214D01*
X0001521059Y0001639088D01*
X0001522934Y0001642838D01*
X0001524809Y0001650337D01*
X0001524809Y0001659711D01*
X0001522934Y0001667210D01*
X0001521059Y0001670959D01*
X0001519185Y0001672834D01*
X0001515435Y0001674709D01*
X0001601674Y0001475890D02*
X0001601674Y0001515260D01*
X0001586676Y0001515260D01*
X0001582927Y0001513385D01*
X0001581052Y0001511511D01*
X0001579177Y0001507761D01*
X0001579177Y0001502137D01*
X0001581052Y0001498387D01*
X0001582927Y0001496512D01*
X0001586676Y0001494638D01*
X0001601674Y0001494638D01*
X0001539807Y0001479640D02*
X0001541682Y0001477765D01*
X0001547306Y0001475890D01*
X0001551056Y0001475890D01*
X0001556680Y0001477765D01*
X0001560429Y0001481514D01*
X0001562304Y0001485264D01*
X0001564179Y0001492763D01*
X0001564179Y0001498387D01*
X0001562304Y0001505886D01*
X0001560429Y0001509636D01*
X0001556680Y0001513385D01*
X0001551056Y0001515260D01*
X0001547306Y0001515260D01*
X0001541682Y0001513385D01*
X0001539807Y0001511511D01*
X0001515435Y0001515260D02*
X0001511685Y0001515260D01*
X0001507936Y0001513385D01*
X0001506061Y0001511511D01*
X0001504186Y0001507761D01*
X0001502312Y0001500262D01*
X0001502312Y0001490888D01*
X0001504186Y0001483389D01*
X0001506061Y0001479640D01*
X0001507936Y0001477765D01*
X0001511685Y0001475890D01*
X0001515435Y0001475890D01*
X0001519185Y0001477765D01*
X0001521059Y0001479640D01*
X0001522934Y0001483389D01*
X0001524809Y0001490888D01*
X0001524809Y0001500262D01*
X0001522934Y0001507761D01*
X0001521059Y0001511511D01*
X0001519185Y0001513385D01*
X0001515435Y0001515260D01*
X0001447912Y0001616835D02*
X0001447912Y0001656205D01*
X0001432914Y0001656205D01*
X0001429165Y0001654330D01*
X0001427290Y0001652455D01*
X0001425415Y0001648706D01*
X0001425415Y0001643082D01*
X0001427290Y0001639332D01*
X0001429165Y0001637457D01*
X0001432914Y0001635583D01*
X0001447912Y0001635583D01*
X0001386045Y0001620584D02*
X0001387920Y0001618710D01*
X0001393544Y0001616835D01*
X0001397294Y0001616835D01*
X0001402918Y0001618710D01*
X0001406667Y0001622459D01*
X0001408542Y0001626209D01*
X0001410417Y0001633708D01*
X0001410417Y0001639332D01*
X0001408542Y0001646831D01*
X0001406667Y0001650581D01*
X0001402918Y0001654330D01*
X0001397294Y0001656205D01*
X0001393544Y0001656205D01*
X0001387920Y0001654330D01*
X0001386045Y0001652455D01*
X0001348550Y0001616835D02*
X0001371047Y0001616835D01*
X0001359798Y0001616835D02*
X0001359798Y0001656205D01*
X0001363548Y0001650581D01*
X0001367297Y0001646831D01*
X0001371047Y0001644956D01*
X0001447912Y0001457386D02*
X0001447912Y0001496756D01*
X0001432914Y0001496756D01*
X0001429165Y0001494881D01*
X0001427290Y0001493007D01*
X0001425415Y0001489257D01*
X0001425415Y0001483633D01*
X0001427290Y0001479883D01*
X0001429165Y0001478009D01*
X0001432914Y0001476134D01*
X0001447912Y0001476134D01*
X0001386045Y0001461136D02*
X0001387920Y0001459261D01*
X0001393544Y0001457386D01*
X0001397294Y0001457386D01*
X0001402918Y0001459261D01*
X0001406667Y0001463010D01*
X0001408542Y0001466760D01*
X0001410417Y0001474259D01*
X0001410417Y0001479883D01*
X0001408542Y0001487382D01*
X0001406667Y0001491132D01*
X0001402918Y0001494881D01*
X0001397294Y0001496756D01*
X0001393544Y0001496756D01*
X0001387920Y0001494881D01*
X0001386045Y0001493007D01*
X0001348550Y0001457386D02*
X0001371047Y0001457386D01*
X0001359798Y0001457386D02*
X0001359798Y0001496756D01*
X0001363548Y0001491132D01*
X0001367297Y0001487382D01*
X0001371047Y0001485508D01*
X0001294150Y0001582583D02*
X0001294150Y0001621953D01*
X0001279152Y0001621953D01*
X0001275403Y0001620078D01*
X0001273528Y0001618203D01*
X0001271653Y0001614454D01*
X0001271653Y0001608830D01*
X0001273528Y0001605080D01*
X0001275403Y0001603205D01*
X0001279152Y0001601331D01*
X0001294150Y0001601331D01*
X0001232283Y0001586332D02*
X0001234158Y0001584458D01*
X0001239782Y0001582583D01*
X0001243532Y0001582583D01*
X0001249156Y0001584458D01*
X0001252905Y0001588207D01*
X0001254780Y0001591957D01*
X0001256655Y0001599456D01*
X0001256655Y0001605080D01*
X0001254780Y0001612579D01*
X0001252905Y0001616329D01*
X0001249156Y0001620078D01*
X0001243532Y0001621953D01*
X0001239782Y0001621953D01*
X0001234158Y0001620078D01*
X0001232283Y0001618203D01*
X0001217285Y0001618203D02*
X0001215410Y0001620078D01*
X0001211661Y0001621953D01*
X0001202287Y0001621953D01*
X0001198537Y0001620078D01*
X0001196662Y0001618203D01*
X0001194788Y0001614454D01*
X0001194788Y0001610704D01*
X0001196662Y0001605080D01*
X0001219160Y0001582583D01*
X0001194788Y0001582583D01*
X0001294150Y0001423134D02*
X0001294150Y0001462504D01*
X0001279152Y0001462504D01*
X0001275403Y0001460629D01*
X0001273528Y0001458755D01*
X0001271653Y0001455005D01*
X0001271653Y0001449381D01*
X0001273528Y0001445631D01*
X0001275403Y0001443757D01*
X0001279152Y0001441882D01*
X0001294150Y0001441882D01*
X0001232283Y0001426884D02*
X0001234158Y0001425009D01*
X0001239782Y0001423134D01*
X0001243532Y0001423134D01*
X0001249156Y0001425009D01*
X0001252905Y0001428758D01*
X0001254780Y0001432508D01*
X0001256655Y0001440007D01*
X0001256655Y0001445631D01*
X0001254780Y0001453130D01*
X0001252905Y0001456880D01*
X0001249156Y0001460629D01*
X0001243532Y0001462504D01*
X0001239782Y0001462504D01*
X0001234158Y0001460629D01*
X0001232283Y0001458755D01*
X0001217285Y0001458755D02*
X0001215410Y0001460629D01*
X0001211661Y0001462504D01*
X0001202287Y0001462504D01*
X0001198537Y0001460629D01*
X0001196662Y0001458755D01*
X0001194788Y0001455005D01*
X0001194788Y0001451256D01*
X0001196662Y0001445631D01*
X0001219160Y0001423134D01*
X0001194788Y0001423134D01*
X0000371578Y0001977859D02*
X0000371578Y0002017229D01*
X0000356580Y0002017229D01*
X0000352830Y0002015354D01*
X0000350956Y0002013479D01*
X0000349081Y0002009730D01*
X0000349081Y0002004105D01*
X0000350956Y0002000356D01*
X0000352830Y0001998481D01*
X0000356580Y0001996606D01*
X0000371578Y0001996606D01*
X0000319085Y0001998481D02*
X0000313460Y0001996606D01*
X0000311586Y0001994731D01*
X0000309711Y0001990982D01*
X0000309711Y0001985358D01*
X0000311586Y0001981608D01*
X0000313460Y0001979733D01*
X0000317210Y0001977859D01*
X0000332208Y0001977859D01*
X0000332208Y0002017229D01*
X0000319085Y0002017229D01*
X0000315335Y0002015354D01*
X0000313460Y0002013479D01*
X0000311586Y0002009730D01*
X0000311586Y0002005980D01*
X0000313460Y0002002230D01*
X0000315335Y0002000356D01*
X0000319085Y0001998481D01*
X0000332208Y0001998481D01*
X0000296587Y0002017229D02*
X0000272215Y0002017229D01*
X0000285339Y0002002230D01*
X0000279715Y0002002230D01*
X0000275965Y0002000356D01*
X0000274090Y0001998481D01*
X0000272215Y0001994731D01*
X0000272215Y0001985358D01*
X0000274090Y0001981608D01*
X0000275965Y0001979733D01*
X0000279715Y0001977859D01*
X0000290963Y0001977859D01*
X0000294713Y0001979733D01*
X0000296587Y0001981608D01*
X0000352830Y0001855905D02*
X0000356580Y0001857780D01*
X0000362204Y0001857780D01*
X0000367828Y0001855905D01*
X0000371578Y0001852155D01*
X0000373453Y0001848406D01*
X0000375328Y0001840907D01*
X0000375328Y0001835283D01*
X0000373453Y0001827784D01*
X0000371578Y0001824034D01*
X0000367828Y0001820285D01*
X0000362204Y0001818410D01*
X0000358455Y0001818410D01*
X0000352830Y0001820285D01*
X0000350956Y0001822159D01*
X0000350956Y0001835283D01*
X0000358455Y0001835283D01*
X0000334083Y0001818410D02*
X0000334083Y0001857780D01*
X0000311586Y0001818410D01*
X0000311586Y0001857780D01*
X0000292838Y0001818410D02*
X0000292838Y0001857780D01*
X0000283464Y0001857780D01*
X0000277840Y0001855905D01*
X0000274090Y0001852155D01*
X0000272215Y0001848406D01*
X0000270341Y0001840907D01*
X0000270341Y0001835283D01*
X0000272215Y0001827784D01*
X0000274090Y0001824034D01*
X0000277840Y0001820285D01*
X0000283464Y0001818410D01*
X0000292838Y0001818410D01*
X0000371578Y0002106205D02*
X0000371578Y0002145575D01*
X0000356580Y0002145575D01*
X0000352830Y0002143700D01*
X0000350956Y0002141826D01*
X0000349081Y0002138076D01*
X0000349081Y0002132452D01*
X0000350956Y0002128702D01*
X0000352830Y0002126827D01*
X0000356580Y0002124953D01*
X0000371578Y0002124953D01*
X0000319085Y0002126827D02*
X0000313460Y0002124953D01*
X0000311586Y0002123078D01*
X0000309711Y0002119328D01*
X0000309711Y0002113704D01*
X0000311586Y0002109955D01*
X0000313460Y0002108080D01*
X0000317210Y0002106205D01*
X0000332208Y0002106205D01*
X0000332208Y0002145575D01*
X0000319085Y0002145575D01*
X0000315335Y0002143700D01*
X0000313460Y0002141826D01*
X0000311586Y0002138076D01*
X0000311586Y0002134326D01*
X0000313460Y0002130577D01*
X0000315335Y0002128702D01*
X0000319085Y0002126827D01*
X0000332208Y0002126827D01*
X0000294713Y0002141826D02*
X0000292838Y0002143700D01*
X0000289088Y0002145575D01*
X0000279715Y0002145575D01*
X0000275965Y0002143700D01*
X0000274090Y0002141826D01*
X0000272215Y0002138076D01*
X0000272215Y0002134326D01*
X0000274090Y0002128702D01*
X0000296587Y0002106205D01*
X0000272215Y0002106205D01*
X0000371578Y0001986126D02*
X0000347206Y0001986126D01*
X0000360329Y0001971128D01*
X0000354705Y0001971128D01*
X0000350956Y0001969253D01*
X0000349081Y0001967379D01*
X0000347206Y0001963629D01*
X0000347206Y0001954255D01*
X0000349081Y0001950506D01*
X0000350956Y0001948631D01*
X0000354705Y0001946756D01*
X0000365954Y0001946756D01*
X0000369703Y0001948631D01*
X0000371578Y0001950506D01*
X0000335957Y0001986126D02*
X0000322834Y0001946756D01*
X0000309711Y0001986126D01*
X0000300337Y0001986126D02*
X0000275965Y0001986126D01*
X0000289088Y0001971128D01*
X0000283464Y0001971128D01*
X0000279715Y0001969253D01*
X0000277840Y0001967379D01*
X0000275965Y0001963629D01*
X0000275965Y0001954255D01*
X0000277840Y0001950506D01*
X0000279715Y0001948631D01*
X0000283464Y0001946756D01*
X0000294713Y0001946756D01*
X0000298462Y0001948631D01*
X0000300337Y0001950506D01*
X0000979246Y0001670693D02*
X0000997993Y0001670693D01*
X0000997993Y0001710063D01*
X0000966122Y0001691316D02*
X0000952999Y0001691316D01*
X0000947375Y0001670693D02*
X0000966122Y0001670693D01*
X0000966122Y0001710063D01*
X0000947375Y0001710063D01*
X0000930502Y0001670693D02*
X0000930502Y0001710063D01*
X0000921128Y0001710063D01*
X0000915504Y0001708188D01*
X0000911754Y0001704439D01*
X0000909879Y0001700689D01*
X0000908005Y0001693190D01*
X0000908005Y0001687566D01*
X0000909879Y0001680067D01*
X0000911754Y0001676317D01*
X0000915504Y0001672568D01*
X0000921128Y0001670693D01*
X0000930502Y0001670693D01*
X0000982995Y0001530811D02*
X0000982995Y0001570181D01*
X0000973622Y0001570181D01*
X0000967997Y0001568307D01*
X0000964248Y0001564557D01*
X0000962373Y0001560808D01*
X0000960498Y0001553308D01*
X0000960498Y0001547684D01*
X0000962373Y0001540185D01*
X0000964248Y0001536436D01*
X0000967997Y0001532686D01*
X0000973622Y0001530811D01*
X0000982995Y0001530811D01*
X0000947375Y0001570181D02*
X0000923003Y0001570181D01*
X0000936126Y0001555183D01*
X0000930502Y0001555183D01*
X0000926752Y0001553308D01*
X0000924878Y0001551434D01*
X0000923003Y0001547684D01*
X0000923003Y0001538310D01*
X0000924878Y0001534561D01*
X0000926752Y0001532686D01*
X0000930502Y0001530811D01*
X0000941751Y0001530811D01*
X0000945500Y0001532686D01*
X0000947375Y0001534561D01*
X0002182789Y0001832504D02*
X0002201537Y0001832504D01*
X0002201537Y0001871874D01*
X0002169666Y0001853127D02*
X0002156542Y0001853127D01*
X0002150918Y0001832504D02*
X0002169666Y0001832504D01*
X0002169666Y0001871874D01*
X0002150918Y0001871874D01*
X0002134045Y0001832504D02*
X0002134045Y0001871874D01*
X0002124671Y0001871874D01*
X0002119047Y0001870000D01*
X0002115298Y0001866250D01*
X0002113423Y0001862500D01*
X0002111548Y0001855001D01*
X0002111548Y0001849377D01*
X0002113423Y0001841878D01*
X0002115298Y0001838129D01*
X0002119047Y0001834379D01*
X0002124671Y0001832504D01*
X0002134045Y0001832504D01*
X0002186539Y0001692622D02*
X0002186539Y0001731992D01*
X0002177165Y0001731992D01*
X0002171541Y0001730118D01*
X0002167791Y0001726368D01*
X0002165916Y0001722619D01*
X0002164041Y0001715120D01*
X0002164041Y0001709495D01*
X0002165916Y0001701996D01*
X0002167791Y0001698247D01*
X0002171541Y0001694497D01*
X0002177165Y0001692622D01*
X0002186539Y0001692622D01*
X0002126546Y0001692622D02*
X0002149043Y0001692622D01*
X0002137795Y0001692622D02*
X0002137795Y0001731992D01*
X0002141544Y0001726368D01*
X0002145294Y0001722619D01*
X0002149043Y0001720744D01*
X0001069103Y0001999737D02*
X0001050356Y0001999737D01*
X0001072853Y0001988488D02*
X0001059730Y0002027859D01*
X0001046606Y0001988488D01*
X0001039107Y0002027859D02*
X0001016610Y0002027859D01*
X0001027859Y0001988488D02*
X0001027859Y0002027859D01*
X0001009111Y0002014735D02*
X0000994113Y0002014735D01*
X0001003487Y0002027859D02*
X0001003487Y0001994113D01*
X0001001612Y0001990363D01*
X0000997862Y0001988488D01*
X0000994113Y0001988488D01*
X0000980989Y0001988488D02*
X0000980989Y0002014735D01*
X0000980989Y0002027859D02*
X0000982864Y0002025984D01*
X0000980989Y0002024109D01*
X0000979115Y0002025984D01*
X0000980989Y0002027859D01*
X0000980989Y0002024109D01*
X0000962242Y0002014735D02*
X0000962242Y0001988488D01*
X0000962242Y0002010986D02*
X0000960367Y0002012860D01*
X0000956617Y0002014735D01*
X0000950993Y0002014735D01*
X0000947244Y0002012860D01*
X0000945369Y0002009111D01*
X0000945369Y0001988488D01*
X0000930371Y0002014735D02*
X0000920997Y0001988488D01*
X0000911623Y0002014735D02*
X0000920997Y0001988488D01*
X0000924746Y0001979115D01*
X0000926621Y0001977240D01*
X0000930371Y0001975365D01*
X0000891001Y0002010986D02*
X0000894750Y0002012860D01*
X0000896625Y0002014735D01*
X0000898500Y0002018485D01*
X0000898500Y0002020359D01*
X0000896625Y0002024109D01*
X0000894750Y0002025984D01*
X0000891001Y0002027859D01*
X0000883502Y0002027859D01*
X0000879752Y0002025984D01*
X0000877877Y0002024109D01*
X0000876002Y0002020359D01*
X0000876002Y0002018485D01*
X0000877877Y0002014735D01*
X0000879752Y0002012860D01*
X0000883502Y0002010986D01*
X0000891001Y0002010986D01*
X0000894750Y0002009111D01*
X0000896625Y0002007236D01*
X0000898500Y0002003487D01*
X0000898500Y0001995988D01*
X0000896625Y0001992238D01*
X0000894750Y0001990363D01*
X0000891001Y0001988488D01*
X0000883502Y0001988488D01*
X0000879752Y0001990363D01*
X0000877877Y0001992238D01*
X0000876002Y0001995988D01*
X0000876002Y0002003487D01*
X0000877877Y0002007236D01*
X0000879752Y0002009111D01*
X0000883502Y0002010986D01*
X0000838507Y0001988488D02*
X0000861004Y0001988488D01*
X0000849756Y0001988488D02*
X0000849756Y0002027859D01*
X0000853505Y0002022234D01*
X0000857255Y0002018485D01*
X0000861004Y0002016610D01*
X0000804761Y0002027859D02*
X0000812260Y0002027859D01*
X0000816010Y0002025984D01*
X0000817885Y0002024109D01*
X0000821634Y0002018485D01*
X0000823509Y0002010986D01*
X0000823509Y0001995988D01*
X0000821634Y0001992238D01*
X0000819760Y0001990363D01*
X0000816010Y0001988488D01*
X0000808511Y0001988488D01*
X0000804761Y0001990363D01*
X0000802887Y0001992238D01*
X0000801012Y0001995988D01*
X0000801012Y0002005361D01*
X0000802887Y0002009111D01*
X0000804761Y0002010986D01*
X0000808511Y0002012860D01*
X0000816010Y0002012860D01*
X0000819760Y0002010986D01*
X0000821634Y0002009111D01*
X0000823509Y0002005361D01*
X0000784139Y0002003487D02*
X0000754143Y0002003487D01*
X0000735395Y0001988488D02*
X0000735395Y0002027859D01*
X0000722272Y0001999737D01*
X0000709148Y0002027859D01*
X0000709148Y0001988488D01*
D27*
X0000910686Y0001912232D02*
X0000910686Y0001888329D01*
X0000909280Y0001885517D01*
X0000907874Y0001884111D01*
X0000905061Y0001882705D01*
X0000899437Y0001882705D01*
X0000896625Y0001884111D01*
X0000895219Y0001885517D01*
X0000893813Y0001888329D01*
X0000893813Y0001912232D01*
X0000864285Y0001882705D02*
X0000881158Y0001882705D01*
X0000872722Y0001882705D02*
X0000872722Y0001912232D01*
X0000875534Y0001908014D01*
X0000878346Y0001905202D01*
X0000881158Y0001903796D01*
D24*
X0002022422Y0001697150D02*
X0001998050Y0001697150D01*
X0002011173Y0001682152D01*
X0002005549Y0001682152D01*
X0002001799Y0001680277D01*
X0001999925Y0001678402D01*
X0001998050Y0001674653D01*
X0001998050Y0001665279D01*
X0001999925Y0001661529D01*
X0002001799Y0001659655D01*
X0002005549Y0001657780D01*
X0002016797Y0001657780D01*
X0002020547Y0001659655D01*
X0002022422Y0001661529D01*
X0001984926Y0001697150D02*
X0001960554Y0001697150D01*
X0001973678Y0001682152D01*
X0001968053Y0001682152D01*
X0001964304Y0001680277D01*
X0001962429Y0001678402D01*
X0001960554Y0001674653D01*
X0001960554Y0001665279D01*
X0001962429Y0001661529D01*
X0001964304Y0001659655D01*
X0001968053Y0001657780D01*
X0001979302Y0001657780D01*
X0001983052Y0001659655D01*
X0001984926Y0001661529D01*
X0001921184Y0001657780D02*
X0001934308Y0001676527D01*
X0001943682Y0001657780D02*
X0001943682Y0001697150D01*
X0001928683Y0001697150D01*
X0001924934Y0001695275D01*
X0001923059Y0001693400D01*
X0001921184Y0001689651D01*
X0001921184Y0001684027D01*
X0001923059Y0001680277D01*
X0001924934Y0001678402D01*
X0001928683Y0001676527D01*
X0001943682Y0001676527D01*
D26*
X0001973490Y0001724765D02*
X0001978740Y0001732264D01*
X0001982489Y0001724765D02*
X0001982489Y0001740513D01*
X0001976490Y0001740513D01*
X0001974990Y0001739763D01*
X0001974240Y0001739013D01*
X0001973490Y0001737514D01*
X0001973490Y0001735264D01*
X0001974240Y0001733764D01*
X0001974990Y0001733014D01*
X0001976490Y0001732264D01*
X0001982489Y0001732264D01*
X0001959242Y0001740513D02*
X0001966741Y0001740513D01*
X0001967491Y0001733014D01*
X0001966741Y0001733764D01*
X0001965241Y0001734514D01*
X0001961492Y0001734514D01*
X0001959992Y0001733764D01*
X0001959242Y0001733014D01*
X0001958492Y0001731514D01*
X0001958492Y0001727765D01*
X0001959242Y0001726265D01*
X0001959992Y0001725515D01*
X0001961492Y0001724765D01*
X0001965241Y0001724765D01*
X0001966741Y0001725515D01*
X0001967491Y0001726265D01*
D24*
X0002371634Y0001745575D02*
X0002347262Y0001745575D01*
X0002360386Y0001730577D01*
X0002354761Y0001730577D01*
X0002351012Y0001728702D01*
X0002349137Y0001726827D01*
X0002347262Y0001723078D01*
X0002347262Y0001713704D01*
X0002349137Y0001709955D01*
X0002351012Y0001708080D01*
X0002354761Y0001706205D01*
X0002366010Y0001706205D01*
X0002369760Y0001708080D01*
X0002371634Y0001709955D01*
X0002334139Y0001745575D02*
X0002309767Y0001745575D01*
X0002322890Y0001730577D01*
X0002317266Y0001730577D01*
X0002313517Y0001728702D01*
X0002311642Y0001726827D01*
X0002309767Y0001723078D01*
X0002309767Y0001713704D01*
X0002311642Y0001709955D01*
X0002313517Y0001708080D01*
X0002317266Y0001706205D01*
X0002328515Y0001706205D01*
X0002332264Y0001708080D01*
X0002334139Y0001709955D01*
X0002270397Y0001706205D02*
X0002283520Y0001724953D01*
X0002292894Y0001706205D02*
X0002292894Y0001745575D01*
X0002277896Y0001745575D01*
X0002274146Y0001743700D01*
X0002272272Y0001741826D01*
X0002270397Y0001738076D01*
X0002270397Y0001732452D01*
X0002272272Y0001728702D01*
X0002274146Y0001726827D01*
X0002277896Y0001724953D01*
X0002292894Y0001724953D01*
D26*
X0002322703Y0001773190D02*
X0002327952Y0001780689D01*
X0002331702Y0001773190D02*
X0002331702Y0001788938D01*
X0002325703Y0001788938D01*
X0002324203Y0001788188D01*
X0002323453Y0001787439D01*
X0002322703Y0001785939D01*
X0002322703Y0001783689D01*
X0002323453Y0001782189D01*
X0002324203Y0001781439D01*
X0002325703Y0001780689D01*
X0002331702Y0001780689D01*
X0002309205Y0001783689D02*
X0002309205Y0001773190D01*
X0002312954Y0001789688D02*
X0002316704Y0001778440D01*
X0002306955Y0001778440D01*
D24*
X0000914660Y0001839970D02*
X0000909036Y0001838095D01*
X0000899662Y0001838095D01*
X0000895912Y0001839970D01*
X0000894038Y0001841844D01*
X0000892163Y0001845594D01*
X0000892163Y0001849343D01*
X0000894038Y0001853093D01*
X0000895912Y0001854968D01*
X0000899662Y0001856842D01*
X0000907161Y0001858717D01*
X0000910911Y0001860592D01*
X0000912785Y0001862467D01*
X0000914660Y0001866216D01*
X0000914660Y0001869966D01*
X0000912785Y0001873715D01*
X0000910911Y0001875590D01*
X0000907161Y0001877465D01*
X0000897787Y0001877465D01*
X0000892163Y0001875590D01*
X0000869666Y0001838095D02*
X0000873415Y0001839970D01*
X0000875290Y0001841844D01*
X0000877165Y0001845594D01*
X0000877165Y0001856842D01*
X0000875290Y0001860592D01*
X0000873415Y0001862467D01*
X0000869666Y0001864341D01*
X0000864041Y0001864341D01*
X0000860292Y0001862467D01*
X0000858417Y0001860592D01*
X0000856542Y0001856842D01*
X0000856542Y0001845594D01*
X0000858417Y0001841844D01*
X0000860292Y0001839970D01*
X0000864041Y0001838095D01*
X0000869666Y0001838095D01*
X0000834045Y0001838095D02*
X0000837795Y0001839970D01*
X0000839670Y0001843719D01*
X0000839670Y0001877465D01*
X0000802174Y0001838095D02*
X0000802174Y0001877465D01*
X0000802174Y0001839970D02*
X0000805924Y0001838095D01*
X0000813423Y0001838095D01*
X0000817172Y0001839970D01*
X0000819047Y0001841844D01*
X0000820922Y0001845594D01*
X0000820922Y0001856842D01*
X0000819047Y0001860592D01*
X0000817172Y0001862467D01*
X0000813423Y0001864341D01*
X0000805924Y0001864341D01*
X0000802174Y0001862467D01*
X0000768428Y0001839970D02*
X0000772178Y0001838095D01*
X0000779677Y0001838095D01*
X0000783427Y0001839970D01*
X0000785301Y0001843719D01*
X0000785301Y0001858717D01*
X0000783427Y0001862467D01*
X0000779677Y0001864341D01*
X0000772178Y0001864341D01*
X0000768428Y0001862467D01*
X0000766554Y0001858717D01*
X0000766554Y0001854968D01*
X0000785301Y0001851218D01*
X0000749681Y0001838095D02*
X0000749681Y0001864341D01*
X0000749681Y0001856842D02*
X0000747806Y0001860592D01*
X0000745931Y0001862467D01*
X0000742182Y0001864341D01*
X0000738432Y0001864341D01*
X0000714060Y0001877465D02*
X0000714060Y0001849343D01*
X0000715935Y0001843719D01*
X0000719685Y0001839970D01*
X0000725309Y0001838095D01*
X0000729058Y0001838095D01*
X0000678440Y0001864341D02*
X0000678440Y0001838095D01*
X0000695313Y0001864341D02*
X0000695313Y0001843719D01*
X0000693438Y0001839970D01*
X0000689688Y0001838095D01*
X0000684064Y0001838095D01*
X0000680314Y0001839970D01*
X0000678440Y0001841844D01*
X0000659692Y0001838095D02*
X0000659692Y0001864341D01*
X0000659692Y0001860592D02*
X0000657817Y0001862467D01*
X0000654068Y0001864341D01*
X0000648443Y0001864341D01*
X0000644694Y0001862467D01*
X0000642819Y0001858717D01*
X0000642819Y0001838095D01*
X0000642819Y0001858717D02*
X0000640944Y0001862467D01*
X0000637195Y0001864341D01*
X0000631570Y0001864341D01*
X0000627821Y0001862467D01*
X0000625946Y0001858717D01*
X0000625946Y0001838095D01*
X0000607199Y0001864341D02*
X0000607199Y0001824971D01*
X0000607199Y0001862467D02*
X0000603449Y0001864341D01*
X0000595950Y0001864341D01*
X0000592200Y0001862467D01*
X0000590326Y0001860592D01*
X0000588451Y0001856842D01*
X0000588451Y0001845594D01*
X0000590326Y0001841844D01*
X0000592200Y0001839970D01*
X0000595950Y0001838095D01*
X0000603449Y0001838095D01*
X0000607199Y0001839970D01*
X0000556580Y0001839970D02*
X0000560329Y0001838095D01*
X0000567829Y0001838095D01*
X0000571578Y0001839970D01*
X0000573453Y0001843719D01*
X0000573453Y0001858717D01*
X0000571578Y0001862467D01*
X0000567829Y0001864341D01*
X0000560329Y0001864341D01*
X0000556580Y0001862467D01*
X0000554705Y0001858717D01*
X0000554705Y0001854968D01*
X0000573453Y0001851218D01*
X0000537832Y0001838095D02*
X0000537832Y0001864341D01*
X0000537832Y0001856842D02*
X0000535957Y0001860592D01*
X0000534083Y0001862467D01*
X0000530333Y0001864341D01*
X0000526584Y0001864341D01*
X0000522834Y0001834345D02*
X0000492838Y0001834345D01*
X0000485339Y0001873715D02*
X0000483464Y0001875590D01*
X0000479715Y0001877465D01*
X0000470341Y0001877465D01*
X0000466591Y0001875590D01*
X0000464716Y0001873715D01*
X0000462842Y0001869966D01*
X0000462842Y0001866216D01*
X0000464716Y0001860592D01*
X0000487214Y0001838095D01*
X0000462842Y0001838095D01*
X0000455343Y0001834345D02*
X0000425346Y0001834345D01*
X0000402849Y0001858717D02*
X0000397225Y0001856842D01*
X0000395350Y0001854968D01*
X0000393475Y0001851218D01*
X0000393475Y0001845594D01*
X0000395350Y0001841844D01*
X0000397225Y0001839970D01*
X0000400974Y0001838095D01*
X0000415972Y0001838095D01*
X0000415972Y0001877465D01*
X0000402849Y0001877465D01*
X0000399100Y0001875590D01*
X0000397225Y0001873715D01*
X0000395350Y0001869966D01*
X0000395350Y0001866216D01*
X0000397225Y0001862467D01*
X0000399100Y0001860592D01*
X0000402849Y0001858717D01*
X0000415972Y0001858717D01*
X0000376602Y0001838095D02*
X0000376602Y0001864341D01*
X0000376602Y0001856842D02*
X0000374728Y0001860592D01*
X0000372853Y0001862467D01*
X0000369103Y0001864341D01*
X0000365354Y0001864341D01*
X0000352230Y0001838095D02*
X0000352230Y0001864341D01*
X0000352230Y0001877465D02*
X0000354105Y0001875590D01*
X0000352230Y0001873715D01*
X0000350356Y0001875590D01*
X0000352230Y0001877465D01*
X0000352230Y0001873715D01*
X0000316610Y0001838095D02*
X0000316610Y0001877465D01*
X0000316610Y0001839970D02*
X0000320359Y0001838095D01*
X0000327858Y0001838095D01*
X0000331608Y0001839970D01*
X0000333483Y0001841844D01*
X0000335358Y0001845594D01*
X0000335358Y0001856842D01*
X0000333483Y0001860592D01*
X0000331608Y0001862467D01*
X0000327858Y0001864341D01*
X0000320359Y0001864341D01*
X0000316610Y0001862467D01*
X0000280989Y0001864341D02*
X0000280989Y0001832470D01*
X0000282864Y0001828721D01*
X0000284739Y0001826846D01*
X0000288488Y0001824971D01*
X0000294113Y0001824971D01*
X0000297862Y0001826846D01*
X0000280989Y0001839970D02*
X0000284739Y0001838095D01*
X0000292238Y0001838095D01*
X0000295987Y0001839970D01*
X0000297862Y0001841844D01*
X0000299737Y0001845594D01*
X0000299737Y0001856842D01*
X0000297862Y0001860592D01*
X0000295987Y0001862467D01*
X0000292238Y0001864341D01*
X0000284739Y0001864341D01*
X0000280989Y0001862467D01*
X0000247244Y0001839970D02*
X0000250993Y0001838095D01*
X0000258492Y0001838095D01*
X0000262242Y0001839970D01*
X0000264116Y0001843719D01*
X0000264116Y0001858717D01*
X0000262242Y0001862467D01*
X0000258492Y0001864341D01*
X0000250993Y0001864341D01*
X0000247244Y0001862467D01*
X0000245369Y0001858717D01*
X0000245369Y0001854968D01*
X0000264116Y0001851218D01*
X0000211623Y0001838095D02*
X0000211623Y0001877465D01*
X0000211623Y0001839970D02*
X0000215373Y0001838095D01*
X0000222872Y0001838095D01*
X0000226621Y0001839970D01*
X0000228496Y0001841844D01*
X0000230371Y0001845594D01*
X0000230371Y0001856842D01*
X0000228496Y0001860592D01*
X0000226621Y0001862467D01*
X0000222872Y0001864341D01*
X0000215373Y0001864341D01*
X0000211623Y0001862467D01*
X0001069385Y0001813592D02*
X0001063760Y0001811717D01*
X0001054386Y0001811717D01*
X0001050637Y0001813592D01*
X0001048762Y0001815466D01*
X0001046887Y0001819216D01*
X0001046887Y0001822965D01*
X0001048762Y0001826715D01*
X0001050637Y0001828590D01*
X0001054386Y0001830464D01*
X0001061885Y0001832339D01*
X0001065635Y0001834214D01*
X0001067510Y0001836089D01*
X0001069385Y0001839838D01*
X0001069385Y0001843588D01*
X0001067510Y0001847337D01*
X0001065635Y0001849212D01*
X0001061885Y0001851087D01*
X0001052512Y0001851087D01*
X0001046887Y0001849212D01*
X0001024390Y0001811717D02*
X0001028140Y0001813592D01*
X0001030014Y0001815466D01*
X0001031889Y0001819216D01*
X0001031889Y0001830464D01*
X0001030014Y0001834214D01*
X0001028140Y0001836089D01*
X0001024390Y0001837964D01*
X0001018766Y0001837964D01*
X0001015016Y0001836089D01*
X0001013142Y0001834214D01*
X0001011267Y0001830464D01*
X0001011267Y0001819216D01*
X0001013142Y0001815466D01*
X0001015016Y0001813592D01*
X0001018766Y0001811717D01*
X0001024390Y0001811717D01*
X0000988770Y0001811717D02*
X0000992519Y0001813592D01*
X0000994394Y0001817341D01*
X0000994394Y0001851087D01*
X0000956899Y0001811717D02*
X0000956899Y0001851087D01*
X0000956899Y0001813592D02*
X0000960648Y0001811717D01*
X0000968147Y0001811717D01*
X0000971897Y0001813592D01*
X0000973772Y0001815466D01*
X0000975646Y0001819216D01*
X0000975646Y0001830464D01*
X0000973772Y0001834214D01*
X0000971897Y0001836089D01*
X0000968147Y0001837964D01*
X0000960648Y0001837964D01*
X0000956899Y0001836089D01*
X0000923153Y0001813592D02*
X0000926902Y0001811717D01*
X0000934401Y0001811717D01*
X0000938151Y0001813592D01*
X0000940026Y0001817341D01*
X0000940026Y0001832339D01*
X0000938151Y0001836089D01*
X0000934401Y0001837964D01*
X0000926902Y0001837964D01*
X0000923153Y0001836089D01*
X0000921278Y0001832339D01*
X0000921278Y0001828590D01*
X0000940026Y0001824840D01*
X0000904405Y0001811717D02*
X0000904405Y0001837964D01*
X0000904405Y0001830464D02*
X0000902530Y0001834214D01*
X0000900656Y0001836089D01*
X0000896906Y0001837964D01*
X0000893157Y0001837964D01*
X0000868785Y0001851087D02*
X0000868785Y0001822965D01*
X0000870659Y0001817341D01*
X0000874409Y0001813592D01*
X0000880033Y0001811717D01*
X0000883783Y0001811717D01*
X0000833164Y0001837964D02*
X0000833164Y0001811717D01*
X0000850037Y0001837964D02*
X0000850037Y0001817341D01*
X0000848162Y0001813592D01*
X0000844413Y0001811717D01*
X0000838788Y0001811717D01*
X0000835039Y0001813592D01*
X0000833164Y0001815466D01*
X0000814416Y0001811717D02*
X0000814416Y0001837964D01*
X0000814416Y0001834214D02*
X0000812542Y0001836089D01*
X0000808792Y0001837964D01*
X0000803168Y0001837964D01*
X0000799418Y0001836089D01*
X0000797544Y0001832339D01*
X0000797544Y0001811717D01*
X0000797544Y0001832339D02*
X0000795669Y0001836089D01*
X0000791919Y0001837964D01*
X0000786295Y0001837964D01*
X0000782545Y0001836089D01*
X0000780671Y0001832339D01*
X0000780671Y0001811717D01*
X0000761923Y0001837964D02*
X0000761923Y0001798593D01*
X0000761923Y0001836089D02*
X0000758173Y0001837964D01*
X0000750674Y0001837964D01*
X0000746925Y0001836089D01*
X0000745050Y0001834214D01*
X0000743175Y0001830464D01*
X0000743175Y0001819216D01*
X0000745050Y0001815466D01*
X0000746925Y0001813592D01*
X0000750674Y0001811717D01*
X0000758173Y0001811717D01*
X0000761923Y0001813592D01*
X0000711304Y0001813592D02*
X0000715054Y0001811717D01*
X0000722553Y0001811717D01*
X0000726302Y0001813592D01*
X0000728177Y0001817341D01*
X0000728177Y0001832339D01*
X0000726302Y0001836089D01*
X0000722553Y0001837964D01*
X0000715054Y0001837964D01*
X0000711304Y0001836089D01*
X0000709430Y0001832339D01*
X0000709430Y0001828590D01*
X0000728177Y0001824840D01*
X0000692557Y0001811717D02*
X0000692557Y0001837964D01*
X0000692557Y0001830464D02*
X0000690682Y0001834214D01*
X0000688807Y0001836089D01*
X0000685058Y0001837964D01*
X0000681308Y0001837964D01*
X0000677559Y0001807967D02*
X0000647562Y0001807967D01*
X0000640063Y0001847337D02*
X0000638188Y0001849212D01*
X0000634439Y0001851087D01*
X0000625065Y0001851087D01*
X0000621316Y0001849212D01*
X0000619441Y0001847337D01*
X0000617566Y0001843588D01*
X0000617566Y0001839838D01*
X0000619441Y0001834214D01*
X0000641938Y0001811717D01*
X0000617566Y0001811717D01*
X0000610067Y0001807967D02*
X0000580071Y0001807967D01*
X0000557573Y0001832339D02*
X0000551949Y0001830464D01*
X0000550074Y0001828590D01*
X0000548200Y0001824840D01*
X0000548200Y0001819216D01*
X0000550074Y0001815466D01*
X0000551949Y0001813592D01*
X0000555699Y0001811717D01*
X0000570697Y0001811717D01*
X0000570697Y0001851087D01*
X0000557573Y0001851087D01*
X0000553824Y0001849212D01*
X0000551949Y0001847337D01*
X0000550074Y0001843588D01*
X0000550074Y0001839838D01*
X0000551949Y0001836089D01*
X0000553824Y0001834214D01*
X0000557573Y0001832339D01*
X0000570697Y0001832339D01*
X0000531327Y0001811717D02*
X0000531327Y0001837964D01*
X0000531327Y0001830464D02*
X0000529452Y0001834214D01*
X0000527577Y0001836089D01*
X0000523828Y0001837964D01*
X0000520078Y0001837964D01*
X0000506955Y0001811717D02*
X0000506955Y0001837964D01*
X0000506955Y0001851087D02*
X0000508830Y0001849212D01*
X0000506955Y0001847337D01*
X0000505080Y0001849212D01*
X0000506955Y0001851087D01*
X0000506955Y0001847337D01*
X0000471334Y0001811717D02*
X0000471334Y0001851087D01*
X0000471334Y0001813592D02*
X0000475084Y0001811717D01*
X0000482583Y0001811717D01*
X0000486332Y0001813592D01*
X0000488207Y0001815466D01*
X0000490082Y0001819216D01*
X0000490082Y0001830464D01*
X0000488207Y0001834214D01*
X0000486332Y0001836089D01*
X0000482583Y0001837964D01*
X0000475084Y0001837964D01*
X0000471334Y0001836089D01*
X0000435714Y0001837964D02*
X0000435714Y0001806092D01*
X0000437589Y0001802343D01*
X0000439463Y0001800468D01*
X0000443213Y0001798593D01*
X0000448837Y0001798593D01*
X0000452587Y0001800468D01*
X0000435714Y0001813592D02*
X0000439463Y0001811717D01*
X0000446962Y0001811717D01*
X0000450712Y0001813592D01*
X0000452587Y0001815466D01*
X0000454461Y0001819216D01*
X0000454461Y0001830464D01*
X0000452587Y0001834214D01*
X0000450712Y0001836089D01*
X0000446962Y0001837964D01*
X0000439463Y0001837964D01*
X0000435714Y0001836089D01*
X0000401968Y0001813592D02*
X0000405718Y0001811717D01*
X0000413217Y0001811717D01*
X0000416966Y0001813592D01*
X0000418841Y0001817341D01*
X0000418841Y0001832339D01*
X0000416966Y0001836089D01*
X0000413217Y0001837964D01*
X0000405718Y0001837964D01*
X0000401968Y0001836089D01*
X0000400093Y0001832339D01*
X0000400093Y0001828590D01*
X0000418841Y0001824840D01*
X0000366347Y0001811717D02*
X0000366347Y0001851087D01*
X0000366347Y0001813592D02*
X0000370097Y0001811717D01*
X0000377596Y0001811717D01*
X0000381346Y0001813592D01*
X0000383220Y0001815466D01*
X0000385095Y0001819216D01*
X0000385095Y0001830464D01*
X0000383220Y0001834214D01*
X0000381346Y0001836089D01*
X0000377596Y0001837964D01*
X0000370097Y0001837964D01*
X0000366347Y0001836089D01*
X0000659730Y0001959467D02*
X0000661604Y0001961342D01*
X0000663479Y0001966966D01*
X0000663479Y0001970716D01*
X0000661604Y0001976340D01*
X0000657855Y0001980090D01*
X0000654105Y0001981964D01*
X0000646606Y0001983839D01*
X0000640982Y0001983839D01*
X0000633483Y0001981964D01*
X0000629733Y0001980090D01*
X0000625984Y0001976340D01*
X0000624109Y0001970716D01*
X0000624109Y0001966966D01*
X0000625984Y0001961342D01*
X0000627859Y0001959467D01*
D26*
X0000707592Y0001974278D02*
X0000708342Y0001975028D01*
X0000709092Y0001977277D01*
X0000709092Y0001978777D01*
X0000708342Y0001981027D01*
X0000706842Y0001982527D01*
X0000705343Y0001983277D01*
X0000702343Y0001984027D01*
X0000700093Y0001984027D01*
X0000697094Y0001983277D01*
X0000695594Y0001982527D01*
X0000694094Y0001981027D01*
X0000693344Y0001978777D01*
X0000693344Y0001977277D01*
X0000694094Y0001975028D01*
X0000694844Y0001974278D01*
X0000709092Y0001959280D02*
X0000709092Y0001968278D01*
X0000709092Y0001963779D02*
X0000693344Y0001963779D01*
X0000695594Y0001965279D01*
X0000697094Y0001966779D01*
X0000697844Y0001968278D01*
G04 next file*
G04 #@! TF.GenerationSoftware,KiCad,Pcbnew,(5.1.0)-1*
G04 #@! TF.CreationDate,2019-07-24T00:39:13-06:00*
G04 #@! TF.ProjectId,twinkletwinkie,7477696e-6b6c-4657-9477-696e6b69652e,rev?*
G04 #@! TF.SameCoordinates,PX89e92d0PY44794c0*
G04 #@! TF.FileFunction,Other,Fab,Top*
G04 Gerber Fmt 4.6, Leading zero omitted, Abs format (unit mm)*
G04 Created by KiCad (PCBNEW (5.1.0)-1) date 2019-07-24 00:39:13*
G04 APERTURE LIST*
G04 APERTURE END LIST*
G04 next file*
G04 #@! TF.GenerationSoftware,KiCad,Pcbnew,(5.1.0)-1*
G04 #@! TF.CreationDate,2019-07-24T00:39:13-06:00*
G04 #@! TF.ProjectId,twinkletwinkie,7477696e-6b6c-4657-9477-696e6b69652e,rev?*
G04 #@! TF.SameCoordinates,PX89e92d0PY44794c0*
G04 #@! TF.FileFunction,Other,Fab,Bot*
G04 Gerber Fmt 4.6, Leading zero omitted, Abs format (unit mm)*
G04 Created by KiCad (PCBNEW (5.1.0)-1) date 2019-07-24 00:39:13*
G04 APERTURE LIST*
G04 APERTURE END LIST*
D28*
X0002151912Y0000798331D02*
X0002129415Y0000798331D01*
X0002140663Y0000758961D02*
X0002140663Y0000798331D01*
X0002116291Y0000758961D02*
X0002116291Y0000798331D01*
X0002116291Y0000779583D02*
X0002093794Y0000779583D01*
X0002093794Y0000758961D02*
X0002093794Y0000798331D01*
X0002075046Y0000758961D02*
X0002075046Y0000798331D01*
X0002058173Y0000760836D02*
X0002052549Y0000758961D01*
X0002043175Y0000758961D01*
X0002039426Y0000760836D01*
X0002037551Y0000762710D01*
X0002035676Y0000766460D01*
X0002035676Y0000770210D01*
X0002037551Y0000773959D01*
X0002039426Y0000775834D01*
X0002043175Y0000777709D01*
X0002050674Y0000779583D01*
X0002054424Y0000781458D01*
X0002056299Y0000783333D01*
X0002058173Y0000787082D01*
X0002058173Y0000790832D01*
X0002056299Y0000794581D01*
X0002054424Y0000796456D01*
X0002050674Y0000798331D01*
X0002041301Y0000798331D01*
X0002035676Y0000796456D01*
X0001990682Y0000770210D02*
X0001971934Y0000770210D01*
X0001994431Y0000758961D02*
X0001981308Y0000798331D01*
X0001968185Y0000758961D01*
X0001932564Y0000758961D02*
X0001945688Y0000777709D01*
X0001955061Y0000758961D02*
X0001955061Y0000798331D01*
X0001940063Y0000798331D01*
X0001936314Y0000796456D01*
X0001934439Y0000794581D01*
X0001932564Y0000790832D01*
X0001932564Y0000785208D01*
X0001934439Y0000781458D01*
X0001936314Y0000779583D01*
X0001940063Y0000777709D01*
X0001955061Y0000777709D01*
X0001915691Y0000779583D02*
X0001902568Y0000779583D01*
X0001896944Y0000758961D02*
X0001915691Y0000758961D01*
X0001915691Y0000798331D01*
X0001896944Y0000798331D01*
X0001881945Y0000770210D02*
X0001863198Y0000770210D01*
X0001885695Y0000758961D02*
X0001872572Y0000798331D01*
X0001859448Y0000758961D01*
X0001803205Y0000779583D02*
X0001816329Y0000779583D01*
X0001816329Y0000758961D02*
X0001816329Y0000798331D01*
X0001797581Y0000798331D01*
X0001775084Y0000798331D02*
X0001767585Y0000798331D01*
X0001763835Y0000796456D01*
X0001760086Y0000792707D01*
X0001758211Y0000785208D01*
X0001758211Y0000772084D01*
X0001760086Y0000764585D01*
X0001763835Y0000760836D01*
X0001767585Y0000758961D01*
X0001775084Y0000758961D01*
X0001778833Y0000760836D01*
X0001782583Y0000764585D01*
X0001784458Y0000772084D01*
X0001784458Y0000785208D01*
X0001782583Y0000792707D01*
X0001778833Y0000796456D01*
X0001775084Y0000798331D01*
X0001718841Y0000758961D02*
X0001731964Y0000777709D01*
X0001741338Y0000758961D02*
X0001741338Y0000798331D01*
X0001726340Y0000798331D01*
X0001722590Y0000796456D01*
X0001720716Y0000794581D01*
X0001718841Y0000790832D01*
X0001718841Y0000785208D01*
X0001720716Y0000781458D01*
X0001722590Y0000779583D01*
X0001726340Y0000777709D01*
X0001741338Y0000777709D01*
X0001658848Y0000779583D02*
X0001671972Y0000779583D01*
X0001671972Y0000758961D02*
X0001671972Y0000798331D01*
X0001653224Y0000798331D01*
X0001640101Y0000770210D02*
X0001621353Y0000770210D01*
X0001643850Y0000758961D02*
X0001630727Y0000798331D01*
X0001617604Y0000758961D01*
X0001591357Y0000779583D02*
X0001585733Y0000777709D01*
X0001583858Y0000775834D01*
X0001581983Y0000772084D01*
X0001581983Y0000766460D01*
X0001583858Y0000762710D01*
X0001585733Y0000760836D01*
X0001589482Y0000758961D01*
X0001604480Y0000758961D01*
X0001604480Y0000798331D01*
X0001591357Y0000798331D01*
X0001587607Y0000796456D01*
X0001585733Y0000794581D01*
X0001583858Y0000790832D01*
X0001583858Y0000787082D01*
X0001585733Y0000783333D01*
X0001587607Y0000781458D01*
X0001591357Y0000779583D01*
X0001604480Y0000779583D01*
X0001535114Y0000758961D02*
X0001535114Y0000798331D01*
X0001521990Y0000770210D01*
X0001508867Y0000798331D01*
X0001508867Y0000758961D01*
X0001491994Y0000770210D02*
X0001473247Y0000770210D01*
X0001495744Y0000758961D02*
X0001482620Y0000798331D01*
X0001469497Y0000758961D01*
X0001433877Y0000758961D02*
X0001447000Y0000777709D01*
X0001456374Y0000758961D02*
X0001456374Y0000798331D01*
X0001441376Y0000798331D01*
X0001437626Y0000796456D01*
X0001435751Y0000794581D01*
X0001433877Y0000790832D01*
X0001433877Y0000785208D01*
X0001435751Y0000781458D01*
X0001437626Y0000779583D01*
X0001441376Y0000777709D01*
X0001456374Y0000777709D01*
X0001417004Y0000758961D02*
X0001417004Y0000798331D01*
X0001394506Y0000758961D02*
X0001411379Y0000781458D01*
X0001394506Y0000798331D02*
X0001417004Y0000775834D01*
X0001377634Y0000758961D02*
X0001377634Y0000798331D01*
X0001358886Y0000758961D02*
X0001358886Y0000798331D01*
X0001336389Y0000758961D01*
X0001336389Y0000798331D01*
X0001297019Y0000796456D02*
X0001300768Y0000798331D01*
X0001306392Y0000798331D01*
X0001312017Y0000796456D01*
X0001315766Y0000792707D01*
X0001317641Y0000788957D01*
X0001319516Y0000781458D01*
X0001319516Y0000775834D01*
X0001317641Y0000768335D01*
X0001315766Y0000764585D01*
X0001312017Y0000760836D01*
X0001306392Y0000758961D01*
X0001302643Y0000758961D01*
X0001297019Y0000760836D01*
X0001295144Y0000762710D01*
X0001295144Y0000775834D01*
X0001302643Y0000775834D01*
X0001270472Y0000704724D02*
X0001272834Y0000839763D01*
X0002182677Y0000704330D02*
X0001270472Y0000704724D01*
X0002182677Y0000840944D02*
X0002182677Y0000704330D01*
X0001272440Y0000839763D02*
X0002182677Y0000840944D01*
D29*
X0001154330Y0000822834D02*
X0001154330Y0000885826D01*
X0001122834Y0000822834D02*
X0001154330Y0000822834D01*
X0001122834Y0000885826D02*
X0001122834Y0000822834D01*
X0001154330Y0000885826D02*
X0001122834Y0000885826D01*
X0001385826Y0000382283D02*
X0001448818Y0000382283D01*
X0001385826Y0000413779D02*
X0001385826Y0000382283D01*
X0001448818Y0000413779D02*
X0001385826Y0000413779D01*
X0001448818Y0000382283D02*
X0001448818Y0000413779D01*
X0002088188Y0000535039D02*
X0002088188Y0000487795D01*
X0002166929Y0000535039D02*
X0002088188Y0000535039D01*
X0002166929Y0000487795D02*
X0002166929Y0000535039D01*
X0002088188Y0000487795D02*
X0002166929Y0000487795D01*
X0001229527Y0000421653D02*
X0001229527Y0000374409D01*
X0001308267Y0000421653D02*
X0001229527Y0000421653D01*
X0001308267Y0000374409D02*
X0001308267Y0000421653D01*
X0001229527Y0000374409D02*
X0001308267Y0000374409D01*
X0002433070Y0000583464D02*
X0002433070Y0000536220D01*
X0002511811Y0000583464D02*
X0002433070Y0000583464D01*
X0002511811Y0000536220D02*
X0002511811Y0000583464D01*
X0002433070Y0000536220D02*
X0002511811Y0000536220D01*
X0001144094Y0000646062D02*
X0001173622Y0000616535D01*
X0001144094Y0000734645D02*
X0001144094Y0000646062D01*
X0001262204Y0000734645D02*
X0001144094Y0000734645D01*
X0001262204Y0000616535D02*
X0001262204Y0000734645D01*
X0001173622Y0000616535D02*
X0001262204Y0000616535D01*
X0002254330Y0000495669D02*
X0002317322Y0000495669D01*
X0002254330Y0000527165D02*
X0002254330Y0000495669D01*
X0002317322Y0000527165D02*
X0002254330Y0000527165D01*
X0002317322Y0000495669D02*
X0002317322Y0000527165D01*
X0002603543Y0000544094D02*
X0002666535Y0000544094D01*
X0002603543Y0000575590D02*
X0002603543Y0000544094D01*
X0002666535Y0000575590D02*
X0002603543Y0000575590D01*
X0002666535Y0000544094D02*
X0002666535Y0000575590D01*
X0001001181Y0000782677D02*
X0001001181Y0000719685D01*
X0001032677Y0000782677D02*
X0001001181Y0000782677D01*
X0001032677Y0000719685D02*
X0001032677Y0000782677D01*
X0001001181Y0000719685D02*
X0001032677Y0000719685D01*
D28*
X0001212692Y0000859017D02*
X0001212692Y0000881514D01*
X0001212692Y0000870266D02*
X0001173322Y0000870266D01*
X0001178946Y0000874015D01*
X0001182695Y0000877765D01*
X0001184570Y0000881514D01*
X0001212692Y0000842144D02*
X0001173322Y0000842144D01*
X0001197694Y0000838395D02*
X0001212692Y0000827146D01*
X0001186445Y0000827146D02*
X0001201443Y0000842144D01*
D30*
X0001145706Y0000856955D02*
X0001138207Y0000862204D01*
X0001145706Y0000865954D02*
X0001129958Y0000865954D01*
X0001129958Y0000859955D01*
X0001130708Y0000858455D01*
X0001131458Y0000857705D01*
X0001132958Y0000856955D01*
X0001135208Y0000856955D01*
X0001136707Y0000857705D01*
X0001137457Y0000858455D01*
X0001138207Y0000859955D01*
X0001138207Y0000865954D01*
X0001145706Y0000841957D02*
X0001145706Y0000850956D01*
X0001145706Y0000846456D02*
X0001129958Y0000846456D01*
X0001132208Y0000847956D01*
X0001133708Y0000849456D01*
X0001134458Y0000850956D01*
D28*
X0001468878Y0000363292D02*
X0001444506Y0000363292D01*
X0001457630Y0000348293D01*
X0001452005Y0000348293D01*
X0001448256Y0000346419D01*
X0001446381Y0000344544D01*
X0001444506Y0000340794D01*
X0001444506Y0000331421D01*
X0001446381Y0000327671D01*
X0001448256Y0000325796D01*
X0001452005Y0000323922D01*
X0001463254Y0000323922D01*
X0001467004Y0000325796D01*
X0001468878Y0000327671D01*
X0001431383Y0000363292D02*
X0001407011Y0000363292D01*
X0001420134Y0000348293D01*
X0001414510Y0000348293D01*
X0001410761Y0000346419D01*
X0001408886Y0000344544D01*
X0001407011Y0000340794D01*
X0001407011Y0000331421D01*
X0001408886Y0000327671D01*
X0001410761Y0000325796D01*
X0001414510Y0000323922D01*
X0001425759Y0000323922D01*
X0001429508Y0000325796D01*
X0001431383Y0000327671D01*
X0001367641Y0000323922D02*
X0001380764Y0000342669D01*
X0001390138Y0000323922D02*
X0001390138Y0000363292D01*
X0001375140Y0000363292D01*
X0001371391Y0000361417D01*
X0001369516Y0000359542D01*
X0001367641Y0000355793D01*
X0001367641Y0000350168D01*
X0001369516Y0000346419D01*
X0001371391Y0000344544D01*
X0001375140Y0000342669D01*
X0001390138Y0000342669D01*
D30*
X0001419947Y0000390907D02*
X0001425196Y0000398406D01*
X0001428946Y0000390907D02*
X0001428946Y0000406655D01*
X0001422947Y0000406655D01*
X0001421447Y0000405905D01*
X0001420697Y0000405155D01*
X0001419947Y0000403655D01*
X0001419947Y0000401406D01*
X0001420697Y0000399906D01*
X0001421447Y0000399156D01*
X0001422947Y0000398406D01*
X0001428946Y0000398406D01*
X0001406449Y0000406655D02*
X0001409448Y0000406655D01*
X0001410948Y0000405905D01*
X0001411698Y0000405155D01*
X0001413198Y0000402905D01*
X0001413948Y0000399906D01*
X0001413948Y0000393907D01*
X0001413198Y0000392407D01*
X0001412448Y0000391657D01*
X0001410948Y0000390907D01*
X0001407948Y0000390907D01*
X0001406449Y0000391657D01*
X0001405699Y0000392407D01*
X0001404949Y0000393907D01*
X0001404949Y0000397656D01*
X0001405699Y0000399156D01*
X0001406449Y0000399906D01*
X0001407948Y0000400656D01*
X0001410948Y0000400656D01*
X0001412448Y0000399906D01*
X0001413198Y0000399156D01*
X0001413948Y0000397656D01*
D28*
X0002152868Y0000563607D02*
X0002171616Y0000563607D01*
X0002171616Y0000602977D01*
X0002139745Y0000584229D02*
X0002126621Y0000584229D01*
X0002120997Y0000563607D02*
X0002139745Y0000563607D01*
X0002139745Y0000602977D01*
X0002120997Y0000602977D01*
X0002104124Y0000563607D02*
X0002104124Y0000602977D01*
X0002094750Y0000602977D01*
X0002089126Y0000601102D01*
X0002085376Y0000597352D01*
X0002083502Y0000593603D01*
X0002081627Y0000586104D01*
X0002081627Y0000580479D01*
X0002083502Y0000572980D01*
X0002085376Y0000569231D01*
X0002089126Y0000565481D01*
X0002094750Y0000563607D01*
X0002104124Y0000563607D01*
X0002156617Y0000423725D02*
X0002156617Y0000463095D01*
X0002147244Y0000463095D01*
X0002141619Y0000461220D01*
X0002137870Y0000457470D01*
X0002135995Y0000453721D01*
X0002134120Y0000446222D01*
X0002134120Y0000440598D01*
X0002135995Y0000433099D01*
X0002137870Y0000429349D01*
X0002141619Y0000425599D01*
X0002147244Y0000423725D01*
X0002156617Y0000423725D01*
X0002119122Y0000459345D02*
X0002117247Y0000461220D01*
X0002113498Y0000463095D01*
X0002104124Y0000463095D01*
X0002100374Y0000461220D01*
X0002098500Y0000459345D01*
X0002096625Y0000455596D01*
X0002096625Y0000451846D01*
X0002098500Y0000446222D01*
X0002120997Y0000423725D01*
X0002096625Y0000423725D01*
X0002070397Y0000442032D02*
X0002070397Y0000481402D01*
X0002055399Y0000481402D01*
X0002051649Y0000479527D01*
X0002049775Y0000477652D01*
X0002047900Y0000473903D01*
X0002047900Y0000468278D01*
X0002049775Y0000464529D01*
X0002051649Y0000462654D01*
X0002055399Y0000460779D01*
X0002070397Y0000460779D01*
X0002017903Y0000462654D02*
X0002012279Y0000460779D01*
X0002010404Y0000458905D01*
X0002008530Y0000455155D01*
X0002008530Y0000449531D01*
X0002010404Y0000445781D01*
X0002012279Y0000443907D01*
X0002016029Y0000442032D01*
X0002031027Y0000442032D01*
X0002031027Y0000481402D01*
X0002017903Y0000481402D01*
X0002014154Y0000479527D01*
X0002012279Y0000477652D01*
X0002010404Y0000473903D01*
X0002010404Y0000470153D01*
X0002012279Y0000466404D01*
X0002014154Y0000464529D01*
X0002017903Y0000462654D01*
X0002031027Y0000462654D01*
X0001984158Y0000481402D02*
X0001980408Y0000481402D01*
X0001976659Y0000479527D01*
X0001974784Y0000477652D01*
X0001972909Y0000473903D01*
X0001971034Y0000466404D01*
X0001971034Y0000457030D01*
X0001972909Y0000449531D01*
X0001974784Y0000445781D01*
X0001976659Y0000443907D01*
X0001980408Y0000442032D01*
X0001984158Y0000442032D01*
X0001987907Y0000443907D01*
X0001989782Y0000445781D01*
X0001991657Y0000449531D01*
X0001993532Y0000457030D01*
X0001993532Y0000466404D01*
X0001991657Y0000473903D01*
X0001989782Y0000477652D01*
X0001987907Y0000479527D01*
X0001984158Y0000481402D01*
X0002070397Y0000282583D02*
X0002070397Y0000321953D01*
X0002055399Y0000321953D01*
X0002051649Y0000320078D01*
X0002049775Y0000318203D01*
X0002047900Y0000314454D01*
X0002047900Y0000308830D01*
X0002049775Y0000305080D01*
X0002051649Y0000303205D01*
X0002055399Y0000301331D01*
X0002070397Y0000301331D01*
X0002017903Y0000303205D02*
X0002012279Y0000301331D01*
X0002010404Y0000299456D01*
X0002008530Y0000295706D01*
X0002008530Y0000290082D01*
X0002010404Y0000286332D01*
X0002012279Y0000284458D01*
X0002016029Y0000282583D01*
X0002031027Y0000282583D01*
X0002031027Y0000321953D01*
X0002017903Y0000321953D01*
X0002014154Y0000320078D01*
X0002012279Y0000318203D01*
X0002010404Y0000314454D01*
X0002010404Y0000310704D01*
X0002012279Y0000306955D01*
X0002014154Y0000305080D01*
X0002017903Y0000303205D01*
X0002031027Y0000303205D01*
X0001984158Y0000321953D02*
X0001980408Y0000321953D01*
X0001976659Y0000320078D01*
X0001974784Y0000318203D01*
X0001972909Y0000314454D01*
X0001971034Y0000306955D01*
X0001971034Y0000297581D01*
X0001972909Y0000290082D01*
X0001974784Y0000286332D01*
X0001976659Y0000284458D01*
X0001980408Y0000282583D01*
X0001984158Y0000282583D01*
X0001987907Y0000284458D01*
X0001989782Y0000286332D01*
X0001991657Y0000290082D01*
X0001993532Y0000297581D01*
X0001993532Y0000306955D01*
X0001991657Y0000314454D01*
X0001989782Y0000318203D01*
X0001987907Y0000320078D01*
X0001984158Y0000321953D01*
X0001916635Y0000414866D02*
X0001916635Y0000454237D01*
X0001901637Y0000454237D01*
X0001897887Y0000452362D01*
X0001896012Y0000450487D01*
X0001894138Y0000446737D01*
X0001894138Y0000441113D01*
X0001896012Y0000437364D01*
X0001897887Y0000435489D01*
X0001901637Y0000433614D01*
X0001916635Y0000433614D01*
X0001854768Y0000418616D02*
X0001856642Y0000416741D01*
X0001862267Y0000414866D01*
X0001866016Y0000414866D01*
X0001871640Y0000416741D01*
X0001875390Y0000420491D01*
X0001877265Y0000424240D01*
X0001879140Y0000431739D01*
X0001879140Y0000437364D01*
X0001877265Y0000444863D01*
X0001875390Y0000448612D01*
X0001871640Y0000452362D01*
X0001866016Y0000454237D01*
X0001862267Y0000454237D01*
X0001856642Y0000452362D01*
X0001854768Y0000450487D01*
X0001830396Y0000454237D02*
X0001826646Y0000454237D01*
X0001822897Y0000452362D01*
X0001821022Y0000450487D01*
X0001819147Y0000446737D01*
X0001817272Y0000439238D01*
X0001817272Y0000429865D01*
X0001819147Y0000422365D01*
X0001821022Y0000418616D01*
X0001822897Y0000416741D01*
X0001826646Y0000414866D01*
X0001830396Y0000414866D01*
X0001834145Y0000416741D01*
X0001836020Y0000418616D01*
X0001837895Y0000422365D01*
X0001839769Y0000429865D01*
X0001839769Y0000439238D01*
X0001837895Y0000446737D01*
X0001836020Y0000450487D01*
X0001834145Y0000452362D01*
X0001830396Y0000454237D01*
X0001916635Y0000255418D02*
X0001916635Y0000294788D01*
X0001901637Y0000294788D01*
X0001897887Y0000292913D01*
X0001896012Y0000291038D01*
X0001894138Y0000287289D01*
X0001894138Y0000281664D01*
X0001896012Y0000277915D01*
X0001897887Y0000276040D01*
X0001901637Y0000274165D01*
X0001916635Y0000274165D01*
X0001854768Y0000259167D02*
X0001856642Y0000257292D01*
X0001862267Y0000255418D01*
X0001866016Y0000255418D01*
X0001871640Y0000257292D01*
X0001875390Y0000261042D01*
X0001877265Y0000264791D01*
X0001879140Y0000272290D01*
X0001879140Y0000277915D01*
X0001877265Y0000285414D01*
X0001875390Y0000289163D01*
X0001871640Y0000292913D01*
X0001866016Y0000294788D01*
X0001862267Y0000294788D01*
X0001856642Y0000292913D01*
X0001854768Y0000291038D01*
X0001830396Y0000294788D02*
X0001826646Y0000294788D01*
X0001822897Y0000292913D01*
X0001821022Y0000291038D01*
X0001819147Y0000287289D01*
X0001817272Y0000279790D01*
X0001817272Y0000270416D01*
X0001819147Y0000262917D01*
X0001821022Y0000259167D01*
X0001822897Y0000257292D01*
X0001826646Y0000255418D01*
X0001830396Y0000255418D01*
X0001834145Y0000257292D01*
X0001836020Y0000259167D01*
X0001837895Y0000262917D01*
X0001839769Y0000270416D01*
X0001839769Y0000279790D01*
X0001837895Y0000287289D01*
X0001836020Y0000291038D01*
X0001834145Y0000292913D01*
X0001830396Y0000294788D01*
X0001762873Y0000396362D02*
X0001762873Y0000435733D01*
X0001747875Y0000435733D01*
X0001744125Y0000433858D01*
X0001742250Y0000431983D01*
X0001740376Y0000428233D01*
X0001740376Y0000422609D01*
X0001742250Y0000418860D01*
X0001744125Y0000416985D01*
X0001747875Y0000415110D01*
X0001762873Y0000415110D01*
X0001701006Y0000400112D02*
X0001702880Y0000398237D01*
X0001708505Y0000396362D01*
X0001712254Y0000396362D01*
X0001717878Y0000398237D01*
X0001721628Y0000401987D01*
X0001723503Y0000405736D01*
X0001725378Y0000413235D01*
X0001725378Y0000418860D01*
X0001723503Y0000426359D01*
X0001721628Y0000430108D01*
X0001717878Y0000433858D01*
X0001712254Y0000435733D01*
X0001708505Y0000435733D01*
X0001702880Y0000433858D01*
X0001701006Y0000431983D01*
X0001663510Y0000396362D02*
X0001686007Y0000396362D01*
X0001674759Y0000396362D02*
X0001674759Y0000435733D01*
X0001678508Y0000430108D01*
X0001682258Y0000426359D01*
X0001686007Y0000424484D01*
X0001762873Y0000236914D02*
X0001762873Y0000276284D01*
X0001747875Y0000276284D01*
X0001744125Y0000274409D01*
X0001742250Y0000272534D01*
X0001740376Y0000268785D01*
X0001740376Y0000263160D01*
X0001742250Y0000259411D01*
X0001744125Y0000257536D01*
X0001747875Y0000255661D01*
X0001762873Y0000255661D01*
X0001701006Y0000240663D02*
X0001702880Y0000238788D01*
X0001708505Y0000236914D01*
X0001712254Y0000236914D01*
X0001717878Y0000238788D01*
X0001721628Y0000242538D01*
X0001723503Y0000246287D01*
X0001725378Y0000253787D01*
X0001725378Y0000259411D01*
X0001723503Y0000266910D01*
X0001721628Y0000270659D01*
X0001717878Y0000274409D01*
X0001712254Y0000276284D01*
X0001708505Y0000276284D01*
X0001702880Y0000274409D01*
X0001701006Y0000272534D01*
X0001663510Y0000236914D02*
X0001686007Y0000236914D01*
X0001674759Y0000236914D02*
X0001674759Y0000276284D01*
X0001678508Y0000270659D01*
X0001682258Y0000266910D01*
X0001686007Y0000265035D01*
X0001609111Y0000362111D02*
X0001609111Y0000401481D01*
X0001594113Y0000401481D01*
X0001590363Y0000399606D01*
X0001588488Y0000397731D01*
X0001586614Y0000393982D01*
X0001586614Y0000388357D01*
X0001588488Y0000384608D01*
X0001590363Y0000382733D01*
X0001594113Y0000380858D01*
X0001609111Y0000380858D01*
X0001547244Y0000365860D02*
X0001549118Y0000363985D01*
X0001554743Y0000362111D01*
X0001558492Y0000362111D01*
X0001564116Y0000363985D01*
X0001567866Y0000367735D01*
X0001569741Y0000371484D01*
X0001571616Y0000378983D01*
X0001571616Y0000384608D01*
X0001569741Y0000392107D01*
X0001567866Y0000395856D01*
X0001564116Y0000399606D01*
X0001558492Y0000401481D01*
X0001554743Y0000401481D01*
X0001549118Y0000399606D01*
X0001547244Y0000397731D01*
X0001532245Y0000397731D02*
X0001530371Y0000399606D01*
X0001526621Y0000401481D01*
X0001517247Y0000401481D01*
X0001513498Y0000399606D01*
X0001511623Y0000397731D01*
X0001509748Y0000393982D01*
X0001509748Y0000390232D01*
X0001511623Y0000384608D01*
X0001534120Y0000362111D01*
X0001509748Y0000362111D01*
X0001609111Y0000202662D02*
X0001609111Y0000242032D01*
X0001594113Y0000242032D01*
X0001590363Y0000240157D01*
X0001588488Y0000238282D01*
X0001586614Y0000234533D01*
X0001586614Y0000228908D01*
X0001588488Y0000225159D01*
X0001590363Y0000223284D01*
X0001594113Y0000221409D01*
X0001609111Y0000221409D01*
X0001547244Y0000206411D02*
X0001549118Y0000204536D01*
X0001554743Y0000202662D01*
X0001558492Y0000202662D01*
X0001564116Y0000204536D01*
X0001567866Y0000208286D01*
X0001569741Y0000212035D01*
X0001571616Y0000219535D01*
X0001571616Y0000225159D01*
X0001569741Y0000232658D01*
X0001567866Y0000236407D01*
X0001564116Y0000240157D01*
X0001558492Y0000242032D01*
X0001554743Y0000242032D01*
X0001549118Y0000240157D01*
X0001547244Y0000238282D01*
X0001532245Y0000238282D02*
X0001530371Y0000240157D01*
X0001526621Y0000242032D01*
X0001517247Y0000242032D01*
X0001513498Y0000240157D01*
X0001511623Y0000238282D01*
X0001509748Y0000234533D01*
X0001509748Y0000230783D01*
X0001511623Y0000225159D01*
X0001534120Y0000202662D01*
X0001509748Y0000202662D01*
X0000686539Y0000757386D02*
X0000686539Y0000796756D01*
X0000671541Y0000796756D01*
X0000667791Y0000794881D01*
X0000665916Y0000793007D01*
X0000664041Y0000789257D01*
X0000664041Y0000783633D01*
X0000665916Y0000779883D01*
X0000667791Y0000778009D01*
X0000671541Y0000776134D01*
X0000686539Y0000776134D01*
X0000634045Y0000778009D02*
X0000628421Y0000776134D01*
X0000626546Y0000774259D01*
X0000624671Y0000770509D01*
X0000624671Y0000764885D01*
X0000626546Y0000761136D01*
X0000628421Y0000759261D01*
X0000632170Y0000757386D01*
X0000647169Y0000757386D01*
X0000647169Y0000796756D01*
X0000634045Y0000796756D01*
X0000630296Y0000794881D01*
X0000628421Y0000793007D01*
X0000626546Y0000789257D01*
X0000626546Y0000785508D01*
X0000628421Y0000781758D01*
X0000630296Y0000779883D01*
X0000634045Y0000778009D01*
X0000647169Y0000778009D01*
X0000611548Y0000796756D02*
X0000587176Y0000796756D01*
X0000600299Y0000781758D01*
X0000594675Y0000781758D01*
X0000590926Y0000779883D01*
X0000589051Y0000778009D01*
X0000587176Y0000774259D01*
X0000587176Y0000764885D01*
X0000589051Y0000761136D01*
X0000590926Y0000759261D01*
X0000594675Y0000757386D01*
X0000605924Y0000757386D01*
X0000609673Y0000759261D01*
X0000611548Y0000761136D01*
X0000667791Y0000635433D02*
X0000671541Y0000637307D01*
X0000677165Y0000637307D01*
X0000682789Y0000635433D01*
X0000686539Y0000631683D01*
X0000688413Y0000627934D01*
X0000690288Y0000620434D01*
X0000690288Y0000614810D01*
X0000688413Y0000607311D01*
X0000686539Y0000603562D01*
X0000682789Y0000599812D01*
X0000677165Y0000597937D01*
X0000673415Y0000597937D01*
X0000667791Y0000599812D01*
X0000665916Y0000601687D01*
X0000665916Y0000614810D01*
X0000673415Y0000614810D01*
X0000649043Y0000597937D02*
X0000649043Y0000637307D01*
X0000626546Y0000597937D01*
X0000626546Y0000637307D01*
X0000607799Y0000597937D02*
X0000607799Y0000637307D01*
X0000598425Y0000637307D01*
X0000592800Y0000635433D01*
X0000589051Y0000631683D01*
X0000587176Y0000627934D01*
X0000585301Y0000620434D01*
X0000585301Y0000614810D01*
X0000587176Y0000607311D01*
X0000589051Y0000603562D01*
X0000592800Y0000599812D01*
X0000598425Y0000597937D01*
X0000607799Y0000597937D01*
X0000686539Y0000885733D02*
X0000686539Y0000925103D01*
X0000671541Y0000925103D01*
X0000667791Y0000923228D01*
X0000665916Y0000921353D01*
X0000664041Y0000917604D01*
X0000664041Y0000911979D01*
X0000665916Y0000908230D01*
X0000667791Y0000906355D01*
X0000671541Y0000904480D01*
X0000686539Y0000904480D01*
X0000634045Y0000906355D02*
X0000628421Y0000904480D01*
X0000626546Y0000902605D01*
X0000624671Y0000898856D01*
X0000624671Y0000893232D01*
X0000626546Y0000889482D01*
X0000628421Y0000887607D01*
X0000632170Y0000885733D01*
X0000647169Y0000885733D01*
X0000647169Y0000925103D01*
X0000634045Y0000925103D01*
X0000630296Y0000923228D01*
X0000628421Y0000921353D01*
X0000626546Y0000917604D01*
X0000626546Y0000913854D01*
X0000628421Y0000910105D01*
X0000630296Y0000908230D01*
X0000634045Y0000906355D01*
X0000647169Y0000906355D01*
X0000609673Y0000921353D02*
X0000607799Y0000923228D01*
X0000604049Y0000925103D01*
X0000594675Y0000925103D01*
X0000590926Y0000923228D01*
X0000589051Y0000921353D01*
X0000587176Y0000917604D01*
X0000587176Y0000913854D01*
X0000589051Y0000908230D01*
X0000611548Y0000885733D01*
X0000587176Y0000885733D01*
X0000686539Y0000765654D02*
X0000662167Y0000765654D01*
X0000675290Y0000750656D01*
X0000669666Y0000750656D01*
X0000665916Y0000748781D01*
X0000664041Y0000746906D01*
X0000662167Y0000743157D01*
X0000662167Y0000733783D01*
X0000664041Y0000730033D01*
X0000665916Y0000728159D01*
X0000669666Y0000726284D01*
X0000680914Y0000726284D01*
X0000684664Y0000728159D01*
X0000686539Y0000730033D01*
X0000650918Y0000765654D02*
X0000637795Y0000726284D01*
X0000624671Y0000765654D01*
X0000615298Y0000765654D02*
X0000590926Y0000765654D01*
X0000604049Y0000750656D01*
X0000598425Y0000750656D01*
X0000594675Y0000748781D01*
X0000592800Y0000746906D01*
X0000590926Y0000743157D01*
X0000590926Y0000733783D01*
X0000592800Y0000730033D01*
X0000594675Y0000728159D01*
X0000598425Y0000726284D01*
X0000609673Y0000726284D01*
X0000613423Y0000728159D01*
X0000615298Y0000730033D01*
X0001294206Y0000450221D02*
X0001312954Y0000450221D01*
X0001312954Y0000489591D01*
X0001281083Y0000470843D02*
X0001267960Y0000470843D01*
X0001262335Y0000450221D02*
X0001281083Y0000450221D01*
X0001281083Y0000489591D01*
X0001262335Y0000489591D01*
X0001245462Y0000450221D02*
X0001245462Y0000489591D01*
X0001236089Y0000489591D01*
X0001230464Y0000487716D01*
X0001226715Y0000483967D01*
X0001224840Y0000480217D01*
X0001222965Y0000472718D01*
X0001222965Y0000467094D01*
X0001224840Y0000459595D01*
X0001226715Y0000455845D01*
X0001230464Y0000452096D01*
X0001236089Y0000450221D01*
X0001245462Y0000450221D01*
X0001297956Y0000310339D02*
X0001297956Y0000349709D01*
X0001288582Y0000349709D01*
X0001282958Y0000347834D01*
X0001279208Y0000344085D01*
X0001277334Y0000340335D01*
X0001275459Y0000332836D01*
X0001275459Y0000327212D01*
X0001277334Y0000319713D01*
X0001279208Y0000315963D01*
X0001282958Y0000312214D01*
X0001288582Y0000310339D01*
X0001297956Y0000310339D01*
X0001262335Y0000349709D02*
X0001237963Y0000349709D01*
X0001251087Y0000334711D01*
X0001245462Y0000334711D01*
X0001241713Y0000332836D01*
X0001239838Y0000330961D01*
X0001237963Y0000327212D01*
X0001237963Y0000317838D01*
X0001239838Y0000314088D01*
X0001241713Y0000312214D01*
X0001245462Y0000310339D01*
X0001256711Y0000310339D01*
X0001260461Y0000312214D01*
X0001262335Y0000314088D01*
X0002497750Y0000612032D02*
X0002516497Y0000612032D01*
X0002516497Y0000651402D01*
X0002484626Y0000632654D02*
X0002471503Y0000632654D01*
X0002465879Y0000612032D02*
X0002484626Y0000612032D01*
X0002484626Y0000651402D01*
X0002465879Y0000651402D01*
X0002449006Y0000612032D02*
X0002449006Y0000651402D01*
X0002439632Y0000651402D01*
X0002434008Y0000649527D01*
X0002430258Y0000645778D01*
X0002428383Y0000642028D01*
X0002426509Y0000634529D01*
X0002426509Y0000628905D01*
X0002428383Y0000621406D01*
X0002430258Y0000617656D01*
X0002434008Y0000613907D01*
X0002439632Y0000612032D01*
X0002449006Y0000612032D01*
X0002501499Y0000472150D02*
X0002501499Y0000511520D01*
X0002492125Y0000511520D01*
X0002486501Y0000509645D01*
X0002482752Y0000505896D01*
X0002480877Y0000502146D01*
X0002479002Y0000494647D01*
X0002479002Y0000489023D01*
X0002480877Y0000481524D01*
X0002482752Y0000477774D01*
X0002486501Y0000474025D01*
X0002492125Y0000472150D01*
X0002501499Y0000472150D01*
X0002441507Y0000472150D02*
X0002464004Y0000472150D01*
X0002452755Y0000472150D02*
X0002452755Y0000511520D01*
X0002456505Y0000505896D01*
X0002460254Y0000502146D01*
X0002464004Y0000500271D01*
X0001384064Y0000779265D02*
X0001365316Y0000779265D01*
X0001387814Y0000768016D02*
X0001374690Y0000807386D01*
X0001361567Y0000768016D01*
X0001354068Y0000807386D02*
X0001331571Y0000807386D01*
X0001342819Y0000768016D02*
X0001342819Y0000807386D01*
X0001324071Y0000794263D02*
X0001309073Y0000794263D01*
X0001318447Y0000807386D02*
X0001318447Y0000773640D01*
X0001316572Y0000769891D01*
X0001312823Y0000768016D01*
X0001309073Y0000768016D01*
X0001295950Y0000768016D02*
X0001295950Y0000794263D01*
X0001295950Y0000807386D02*
X0001297825Y0000805511D01*
X0001295950Y0000803637D01*
X0001294075Y0000805511D01*
X0001295950Y0000807386D01*
X0001295950Y0000803637D01*
X0001277202Y0000794263D02*
X0001277202Y0000768016D01*
X0001277202Y0000790513D02*
X0001275328Y0000792388D01*
X0001271578Y0000794263D01*
X0001265954Y0000794263D01*
X0001262204Y0000792388D01*
X0001260329Y0000788638D01*
X0001260329Y0000768016D01*
X0001245331Y0000794263D02*
X0001235957Y0000768016D01*
X0001226584Y0000794263D02*
X0001235957Y0000768016D01*
X0001239707Y0000758642D01*
X0001241582Y0000756767D01*
X0001245331Y0000754893D01*
X0001205961Y0000790513D02*
X0001209711Y0000792388D01*
X0001211586Y0000794263D01*
X0001213460Y0000798012D01*
X0001213460Y0000799887D01*
X0001211586Y0000803637D01*
X0001209711Y0000805511D01*
X0001205961Y0000807386D01*
X0001198462Y0000807386D01*
X0001194713Y0000805511D01*
X0001192838Y0000803637D01*
X0001190963Y0000799887D01*
X0001190963Y0000798012D01*
X0001192838Y0000794263D01*
X0001194713Y0000792388D01*
X0001198462Y0000790513D01*
X0001205961Y0000790513D01*
X0001209711Y0000788638D01*
X0001211586Y0000786764D01*
X0001213460Y0000783014D01*
X0001213460Y0000775515D01*
X0001211586Y0000771766D01*
X0001209711Y0000769891D01*
X0001205961Y0000768016D01*
X0001198462Y0000768016D01*
X0001194713Y0000769891D01*
X0001192838Y0000771766D01*
X0001190963Y0000775515D01*
X0001190963Y0000783014D01*
X0001192838Y0000786764D01*
X0001194713Y0000788638D01*
X0001198462Y0000790513D01*
X0001153468Y0000768016D02*
X0001175965Y0000768016D01*
X0001164716Y0000768016D02*
X0001164716Y0000807386D01*
X0001168466Y0000801762D01*
X0001172215Y0000798012D01*
X0001175965Y0000796137D01*
X0001119722Y0000807386D02*
X0001127221Y0000807386D01*
X0001130971Y0000805511D01*
X0001132845Y0000803637D01*
X0001136595Y0000798012D01*
X0001138470Y0000790513D01*
X0001138470Y0000775515D01*
X0001136595Y0000771766D01*
X0001134720Y0000769891D01*
X0001130971Y0000768016D01*
X0001123472Y0000768016D01*
X0001119722Y0000769891D01*
X0001117847Y0000771766D01*
X0001115972Y0000775515D01*
X0001115972Y0000784889D01*
X0001117847Y0000788638D01*
X0001119722Y0000790513D01*
X0001123472Y0000792388D01*
X0001130971Y0000792388D01*
X0001134720Y0000790513D01*
X0001136595Y0000788638D01*
X0001138470Y0000784889D01*
X0001099100Y0000783014D02*
X0001069103Y0000783014D01*
X0001050356Y0000768016D02*
X0001050356Y0000807386D01*
X0001037232Y0000779265D01*
X0001024109Y0000807386D01*
X0001024109Y0000768016D01*
D31*
X0001225646Y0000691760D02*
X0001225646Y0000667857D01*
X0001224240Y0000665045D01*
X0001222834Y0000663638D01*
X0001220022Y0000662232D01*
X0001214398Y0000662232D01*
X0001211586Y0000663638D01*
X0001210179Y0000665045D01*
X0001208773Y0000667857D01*
X0001208773Y0000691760D01*
X0001179246Y0000662232D02*
X0001196119Y0000662232D01*
X0001187682Y0000662232D02*
X0001187682Y0000691760D01*
X0001190494Y0000687542D01*
X0001193307Y0000684730D01*
X0001196119Y0000683323D01*
D28*
X0002337382Y0000476677D02*
X0002313010Y0000476677D01*
X0002326134Y0000461679D01*
X0002320509Y0000461679D01*
X0002316760Y0000459805D01*
X0002314885Y0000457930D01*
X0002313010Y0000454180D01*
X0002313010Y0000444806D01*
X0002314885Y0000441057D01*
X0002316760Y0000439182D01*
X0002320509Y0000437307D01*
X0002331758Y0000437307D01*
X0002335508Y0000439182D01*
X0002337382Y0000441057D01*
X0002299887Y0000476677D02*
X0002275515Y0000476677D01*
X0002288638Y0000461679D01*
X0002283014Y0000461679D01*
X0002279265Y0000459805D01*
X0002277390Y0000457930D01*
X0002275515Y0000454180D01*
X0002275515Y0000444806D01*
X0002277390Y0000441057D01*
X0002279265Y0000439182D01*
X0002283014Y0000437307D01*
X0002294263Y0000437307D01*
X0002298012Y0000439182D01*
X0002299887Y0000441057D01*
X0002236145Y0000437307D02*
X0002249268Y0000456055D01*
X0002258642Y0000437307D02*
X0002258642Y0000476677D01*
X0002243644Y0000476677D01*
X0002239895Y0000474803D01*
X0002238020Y0000472928D01*
X0002236145Y0000469178D01*
X0002236145Y0000463554D01*
X0002238020Y0000459805D01*
X0002239895Y0000457930D01*
X0002243644Y0000456055D01*
X0002258642Y0000456055D01*
D30*
X0002288451Y0000504293D02*
X0002293700Y0000511792D01*
X0002297450Y0000504293D02*
X0002297450Y0000520041D01*
X0002291451Y0000520041D01*
X0002289951Y0000519291D01*
X0002289201Y0000518541D01*
X0002288451Y0000517041D01*
X0002288451Y0000514791D01*
X0002289201Y0000513292D01*
X0002289951Y0000512542D01*
X0002291451Y0000511792D01*
X0002297450Y0000511792D01*
X0002274203Y0000520041D02*
X0002281702Y0000520041D01*
X0002282452Y0000512542D01*
X0002281702Y0000513292D01*
X0002280202Y0000514042D01*
X0002276452Y0000514042D01*
X0002274953Y0000513292D01*
X0002274203Y0000512542D01*
X0002273453Y0000511042D01*
X0002273453Y0000507292D01*
X0002274203Y0000505793D01*
X0002274953Y0000505043D01*
X0002276452Y0000504293D01*
X0002280202Y0000504293D01*
X0002281702Y0000505043D01*
X0002282452Y0000505793D01*
D28*
X0002686595Y0000525103D02*
X0002662223Y0000525103D01*
X0002675346Y0000510105D01*
X0002669722Y0000510105D01*
X0002665972Y0000508230D01*
X0002664098Y0000506355D01*
X0002662223Y0000502605D01*
X0002662223Y0000493232D01*
X0002664098Y0000489482D01*
X0002665972Y0000487607D01*
X0002669722Y0000485733D01*
X0002680971Y0000485733D01*
X0002684720Y0000487607D01*
X0002686595Y0000489482D01*
X0002649100Y0000525103D02*
X0002624728Y0000525103D01*
X0002637851Y0000510105D01*
X0002632227Y0000510105D01*
X0002628477Y0000508230D01*
X0002626602Y0000506355D01*
X0002624728Y0000502605D01*
X0002624728Y0000493232D01*
X0002626602Y0000489482D01*
X0002628477Y0000487607D01*
X0002632227Y0000485733D01*
X0002643475Y0000485733D01*
X0002647225Y0000487607D01*
X0002649100Y0000489482D01*
X0002585358Y0000485733D02*
X0002598481Y0000504480D01*
X0002607855Y0000485733D02*
X0002607855Y0000525103D01*
X0002592857Y0000525103D01*
X0002589107Y0000523228D01*
X0002587232Y0000521353D01*
X0002585358Y0000517604D01*
X0002585358Y0000511979D01*
X0002587232Y0000508230D01*
X0002589107Y0000506355D01*
X0002592857Y0000504480D01*
X0002607855Y0000504480D01*
D30*
X0002637664Y0000552718D02*
X0002642913Y0000560217D01*
X0002646662Y0000552718D02*
X0002646662Y0000568466D01*
X0002640663Y0000568466D01*
X0002639163Y0000567716D01*
X0002638413Y0000566966D01*
X0002637664Y0000565466D01*
X0002637664Y0000563217D01*
X0002638413Y0000561717D01*
X0002639163Y0000560967D01*
X0002640663Y0000560217D01*
X0002646662Y0000560217D01*
X0002624165Y0000563217D02*
X0002624165Y0000552718D01*
X0002627915Y0000569216D02*
X0002631664Y0000557967D01*
X0002621915Y0000557967D01*
D28*
X0001229621Y0000619497D02*
X0001223996Y0000617622D01*
X0001214623Y0000617622D01*
X0001210873Y0000619497D01*
X0001208998Y0000621372D01*
X0001207124Y0000625121D01*
X0001207124Y0000628871D01*
X0001208998Y0000632620D01*
X0001210873Y0000634495D01*
X0001214623Y0000636370D01*
X0001222122Y0000638245D01*
X0001225871Y0000640120D01*
X0001227746Y0000641994D01*
X0001229621Y0000645744D01*
X0001229621Y0000649493D01*
X0001227746Y0000653243D01*
X0001225871Y0000655118D01*
X0001222122Y0000656992D01*
X0001212748Y0000656992D01*
X0001207124Y0000655118D01*
X0001184626Y0000617622D02*
X0001188376Y0000619497D01*
X0001190251Y0000621372D01*
X0001192125Y0000625121D01*
X0001192125Y0000636370D01*
X0001190251Y0000640120D01*
X0001188376Y0000641994D01*
X0001184626Y0000643869D01*
X0001179002Y0000643869D01*
X0001175253Y0000641994D01*
X0001173378Y0000640120D01*
X0001171503Y0000636370D01*
X0001171503Y0000625121D01*
X0001173378Y0000621372D01*
X0001175253Y0000619497D01*
X0001179002Y0000617622D01*
X0001184626Y0000617622D01*
X0001149006Y0000617622D02*
X0001152755Y0000619497D01*
X0001154630Y0000623247D01*
X0001154630Y0000656992D01*
X0001117135Y0000617622D02*
X0001117135Y0000656992D01*
X0001117135Y0000619497D02*
X0001120884Y0000617622D01*
X0001128383Y0000617622D01*
X0001132133Y0000619497D01*
X0001134008Y0000621372D01*
X0001135882Y0000625121D01*
X0001135882Y0000636370D01*
X0001134008Y0000640120D01*
X0001132133Y0000641994D01*
X0001128383Y0000643869D01*
X0001120884Y0000643869D01*
X0001117135Y0000641994D01*
X0001083389Y0000619497D02*
X0001087139Y0000617622D01*
X0001094638Y0000617622D01*
X0001098387Y0000619497D01*
X0001100262Y0000623247D01*
X0001100262Y0000638245D01*
X0001098387Y0000641994D01*
X0001094638Y0000643869D01*
X0001087139Y0000643869D01*
X0001083389Y0000641994D01*
X0001081514Y0000638245D01*
X0001081514Y0000634495D01*
X0001100262Y0000630746D01*
X0001064641Y0000617622D02*
X0001064641Y0000643869D01*
X0001064641Y0000636370D02*
X0001062767Y0000640120D01*
X0001060892Y0000641994D01*
X0001057142Y0000643869D01*
X0001053393Y0000643869D01*
X0001029021Y0000656992D02*
X0001029021Y0000628871D01*
X0001030896Y0000623247D01*
X0001034645Y0000619497D01*
X0001040269Y0000617622D01*
X0001044019Y0000617622D01*
X0000993400Y0000643869D02*
X0000993400Y0000617622D01*
X0001010273Y0000643869D02*
X0001010273Y0000623247D01*
X0001008398Y0000619497D01*
X0001004649Y0000617622D01*
X0000999025Y0000617622D01*
X0000995275Y0000619497D01*
X0000993400Y0000621372D01*
X0000974653Y0000617622D02*
X0000974653Y0000643869D01*
X0000974653Y0000640120D02*
X0000972778Y0000641994D01*
X0000969028Y0000643869D01*
X0000963404Y0000643869D01*
X0000959655Y0000641994D01*
X0000957780Y0000638245D01*
X0000957780Y0000617622D01*
X0000957780Y0000638245D02*
X0000955905Y0000641994D01*
X0000952155Y0000643869D01*
X0000946531Y0000643869D01*
X0000942782Y0000641994D01*
X0000940907Y0000638245D01*
X0000940907Y0000617622D01*
X0000922159Y0000643869D02*
X0000922159Y0000604499D01*
X0000922159Y0000641994D02*
X0000918410Y0000643869D01*
X0000910911Y0000643869D01*
X0000907161Y0000641994D01*
X0000905286Y0000640120D01*
X0000903412Y0000636370D01*
X0000903412Y0000625121D01*
X0000905286Y0000621372D01*
X0000907161Y0000619497D01*
X0000910911Y0000617622D01*
X0000918410Y0000617622D01*
X0000922159Y0000619497D01*
X0000871541Y0000619497D02*
X0000875290Y0000617622D01*
X0000882789Y0000617622D01*
X0000886539Y0000619497D01*
X0000888413Y0000623247D01*
X0000888413Y0000638245D01*
X0000886539Y0000641994D01*
X0000882789Y0000643869D01*
X0000875290Y0000643869D01*
X0000871541Y0000641994D01*
X0000869666Y0000638245D01*
X0000869666Y0000634495D01*
X0000888413Y0000630746D01*
X0000852793Y0000617622D02*
X0000852793Y0000643869D01*
X0000852793Y0000636370D02*
X0000850918Y0000640120D01*
X0000849043Y0000641994D01*
X0000845294Y0000643869D01*
X0000841544Y0000643869D01*
X0000837795Y0000613873D02*
X0000807799Y0000613873D01*
X0000800299Y0000653243D02*
X0000798425Y0000655118D01*
X0000794675Y0000656992D01*
X0000785301Y0000656992D01*
X0000781552Y0000655118D01*
X0000779677Y0000653243D01*
X0000777802Y0000649493D01*
X0000777802Y0000645744D01*
X0000779677Y0000640120D01*
X0000802174Y0000617622D01*
X0000777802Y0000617622D01*
X0000770303Y0000613873D02*
X0000740307Y0000613873D01*
X0000717810Y0000638245D02*
X0000712185Y0000636370D01*
X0000710311Y0000634495D01*
X0000708436Y0000630746D01*
X0000708436Y0000625121D01*
X0000710311Y0000621372D01*
X0000712185Y0000619497D01*
X0000715935Y0000617622D01*
X0000730933Y0000617622D01*
X0000730933Y0000656992D01*
X0000717810Y0000656992D01*
X0000714060Y0000655118D01*
X0000712185Y0000653243D01*
X0000710311Y0000649493D01*
X0000710311Y0000645744D01*
X0000712185Y0000641994D01*
X0000714060Y0000640120D01*
X0000717810Y0000638245D01*
X0000730933Y0000638245D01*
X0000691563Y0000617622D02*
X0000691563Y0000643869D01*
X0000691563Y0000636370D02*
X0000689688Y0000640120D01*
X0000687814Y0000641994D01*
X0000684064Y0000643869D01*
X0000680314Y0000643869D01*
X0000667191Y0000617622D02*
X0000667191Y0000643869D01*
X0000667191Y0000656992D02*
X0000669066Y0000655118D01*
X0000667191Y0000653243D01*
X0000665316Y0000655118D01*
X0000667191Y0000656992D01*
X0000667191Y0000653243D01*
X0000631570Y0000617622D02*
X0000631570Y0000656992D01*
X0000631570Y0000619497D02*
X0000635320Y0000617622D01*
X0000642819Y0000617622D01*
X0000646569Y0000619497D01*
X0000648443Y0000621372D01*
X0000650318Y0000625121D01*
X0000650318Y0000636370D01*
X0000648443Y0000640120D01*
X0000646569Y0000641994D01*
X0000642819Y0000643869D01*
X0000635320Y0000643869D01*
X0000631570Y0000641994D01*
X0000595950Y0000643869D02*
X0000595950Y0000611998D01*
X0000597825Y0000608248D01*
X0000599700Y0000606374D01*
X0000603449Y0000604499D01*
X0000609073Y0000604499D01*
X0000612823Y0000606374D01*
X0000595950Y0000619497D02*
X0000599700Y0000617622D01*
X0000607199Y0000617622D01*
X0000610948Y0000619497D01*
X0000612823Y0000621372D01*
X0000614698Y0000625121D01*
X0000614698Y0000636370D01*
X0000612823Y0000640120D01*
X0000610948Y0000641994D01*
X0000607199Y0000643869D01*
X0000599700Y0000643869D01*
X0000595950Y0000641994D01*
X0000562204Y0000619497D02*
X0000565954Y0000617622D01*
X0000573453Y0000617622D01*
X0000577202Y0000619497D01*
X0000579077Y0000623247D01*
X0000579077Y0000638245D01*
X0000577202Y0000641994D01*
X0000573453Y0000643869D01*
X0000565954Y0000643869D01*
X0000562204Y0000641994D01*
X0000560329Y0000638245D01*
X0000560329Y0000634495D01*
X0000579077Y0000630746D01*
X0000526584Y0000617622D02*
X0000526584Y0000656992D01*
X0000526584Y0000619497D02*
X0000530333Y0000617622D01*
X0000537832Y0000617622D01*
X0000541582Y0000619497D01*
X0000543457Y0000621372D01*
X0000545331Y0000625121D01*
X0000545331Y0000636370D01*
X0000543457Y0000640120D01*
X0000541582Y0000641994D01*
X0000537832Y0000643869D01*
X0000530333Y0000643869D01*
X0000526584Y0000641994D01*
X0001384345Y0000593119D02*
X0001378721Y0000591244D01*
X0001369347Y0000591244D01*
X0001365598Y0000593119D01*
X0001363723Y0000594994D01*
X0001361848Y0000598743D01*
X0001361848Y0000602493D01*
X0001363723Y0000606242D01*
X0001365598Y0000608117D01*
X0001369347Y0000609992D01*
X0001376846Y0000611867D01*
X0001380596Y0000613742D01*
X0001382470Y0000615616D01*
X0001384345Y0000619366D01*
X0001384345Y0000623115D01*
X0001382470Y0000626865D01*
X0001380596Y0000628740D01*
X0001376846Y0000630614D01*
X0001367472Y0000630614D01*
X0001361848Y0000628740D01*
X0001339351Y0000591244D02*
X0001343100Y0000593119D01*
X0001344975Y0000594994D01*
X0001346850Y0000598743D01*
X0001346850Y0000609992D01*
X0001344975Y0000613742D01*
X0001343100Y0000615616D01*
X0001339351Y0000617491D01*
X0001333727Y0000617491D01*
X0001329977Y0000615616D01*
X0001328102Y0000613742D01*
X0001326227Y0000609992D01*
X0001326227Y0000598743D01*
X0001328102Y0000594994D01*
X0001329977Y0000593119D01*
X0001333727Y0000591244D01*
X0001339351Y0000591244D01*
X0001303730Y0000591244D02*
X0001307480Y0000593119D01*
X0001309355Y0000596869D01*
X0001309355Y0000630614D01*
X0001271859Y0000591244D02*
X0001271859Y0000630614D01*
X0001271859Y0000593119D02*
X0001275609Y0000591244D01*
X0001283108Y0000591244D01*
X0001286857Y0000593119D01*
X0001288732Y0000594994D01*
X0001290607Y0000598743D01*
X0001290607Y0000609992D01*
X0001288732Y0000613742D01*
X0001286857Y0000615616D01*
X0001283108Y0000617491D01*
X0001275609Y0000617491D01*
X0001271859Y0000615616D01*
X0001238113Y0000593119D02*
X0001241863Y0000591244D01*
X0001249362Y0000591244D01*
X0001253112Y0000593119D01*
X0001254986Y0000596869D01*
X0001254986Y0000611867D01*
X0001253112Y0000615616D01*
X0001249362Y0000617491D01*
X0001241863Y0000617491D01*
X0001238113Y0000615616D01*
X0001236239Y0000611867D01*
X0001236239Y0000608117D01*
X0001254986Y0000604368D01*
X0001219366Y0000591244D02*
X0001219366Y0000617491D01*
X0001219366Y0000609992D02*
X0001217491Y0000613742D01*
X0001215616Y0000615616D01*
X0001211867Y0000617491D01*
X0001208117Y0000617491D01*
X0001183745Y0000630614D02*
X0001183745Y0000602493D01*
X0001185620Y0000596869D01*
X0001189370Y0000593119D01*
X0001194994Y0000591244D01*
X0001198743Y0000591244D01*
X0001148125Y0000617491D02*
X0001148125Y0000591244D01*
X0001164998Y0000617491D02*
X0001164998Y0000596869D01*
X0001163123Y0000593119D01*
X0001159373Y0000591244D01*
X0001153749Y0000591244D01*
X0001150000Y0000593119D01*
X0001148125Y0000594994D01*
X0001129377Y0000591244D02*
X0001129377Y0000617491D01*
X0001129377Y0000613742D02*
X0001127502Y0000615616D01*
X0001123753Y0000617491D01*
X0001118128Y0000617491D01*
X0001114379Y0000615616D01*
X0001112504Y0000611867D01*
X0001112504Y0000591244D01*
X0001112504Y0000611867D02*
X0001110629Y0000615616D01*
X0001106880Y0000617491D01*
X0001101256Y0000617491D01*
X0001097506Y0000615616D01*
X0001095631Y0000611867D01*
X0001095631Y0000591244D01*
X0001076884Y0000617491D02*
X0001076884Y0000578121D01*
X0001076884Y0000615616D02*
X0001073134Y0000617491D01*
X0001065635Y0000617491D01*
X0001061885Y0000615616D01*
X0001060011Y0000613742D01*
X0001058136Y0000609992D01*
X0001058136Y0000598743D01*
X0001060011Y0000594994D01*
X0001061885Y0000593119D01*
X0001065635Y0000591244D01*
X0001073134Y0000591244D01*
X0001076884Y0000593119D01*
X0001026265Y0000593119D02*
X0001030014Y0000591244D01*
X0001037514Y0000591244D01*
X0001041263Y0000593119D01*
X0001043138Y0000596869D01*
X0001043138Y0000611867D01*
X0001041263Y0000615616D01*
X0001037514Y0000617491D01*
X0001030014Y0000617491D01*
X0001026265Y0000615616D01*
X0001024390Y0000611867D01*
X0001024390Y0000608117D01*
X0001043138Y0000604368D01*
X0001007517Y0000591244D02*
X0001007517Y0000617491D01*
X0001007517Y0000609992D02*
X0001005643Y0000613742D01*
X0001003768Y0000615616D01*
X0001000018Y0000617491D01*
X0000996269Y0000617491D01*
X0000992519Y0000587495D02*
X0000962523Y0000587495D01*
X0000955024Y0000626865D02*
X0000953149Y0000628740D01*
X0000949400Y0000630614D01*
X0000940026Y0000630614D01*
X0000936276Y0000628740D01*
X0000934401Y0000626865D01*
X0000932527Y0000623115D01*
X0000932527Y0000619366D01*
X0000934401Y0000613742D01*
X0000956899Y0000591244D01*
X0000932527Y0000591244D01*
X0000925028Y0000587495D02*
X0000895031Y0000587495D01*
X0000872534Y0000611867D02*
X0000866910Y0000609992D01*
X0000865035Y0000608117D01*
X0000863160Y0000604368D01*
X0000863160Y0000598743D01*
X0000865035Y0000594994D01*
X0000866910Y0000593119D01*
X0000870659Y0000591244D01*
X0000885658Y0000591244D01*
X0000885658Y0000630614D01*
X0000872534Y0000630614D01*
X0000868785Y0000628740D01*
X0000866910Y0000626865D01*
X0000865035Y0000623115D01*
X0000865035Y0000619366D01*
X0000866910Y0000615616D01*
X0000868785Y0000613742D01*
X0000872534Y0000611867D01*
X0000885658Y0000611867D01*
X0000846287Y0000591244D02*
X0000846287Y0000617491D01*
X0000846287Y0000609992D02*
X0000844413Y0000613742D01*
X0000842538Y0000615616D01*
X0000838788Y0000617491D01*
X0000835039Y0000617491D01*
X0000821915Y0000591244D02*
X0000821915Y0000617491D01*
X0000821915Y0000630614D02*
X0000823790Y0000628740D01*
X0000821915Y0000626865D01*
X0000820041Y0000628740D01*
X0000821915Y0000630614D01*
X0000821915Y0000626865D01*
X0000786295Y0000591244D02*
X0000786295Y0000630614D01*
X0000786295Y0000593119D02*
X0000790044Y0000591244D01*
X0000797544Y0000591244D01*
X0000801293Y0000593119D01*
X0000803168Y0000594994D01*
X0000805043Y0000598743D01*
X0000805043Y0000609992D01*
X0000803168Y0000613742D01*
X0000801293Y0000615616D01*
X0000797544Y0000617491D01*
X0000790044Y0000617491D01*
X0000786295Y0000615616D01*
X0000750674Y0000617491D02*
X0000750674Y0000585620D01*
X0000752549Y0000581871D01*
X0000754424Y0000579996D01*
X0000758173Y0000578121D01*
X0000763798Y0000578121D01*
X0000767547Y0000579996D01*
X0000750674Y0000593119D02*
X0000754424Y0000591244D01*
X0000761923Y0000591244D01*
X0000765673Y0000593119D01*
X0000767547Y0000594994D01*
X0000769422Y0000598743D01*
X0000769422Y0000609992D01*
X0000767547Y0000613742D01*
X0000765673Y0000615616D01*
X0000761923Y0000617491D01*
X0000754424Y0000617491D01*
X0000750674Y0000615616D01*
X0000716929Y0000593119D02*
X0000720678Y0000591244D01*
X0000728177Y0000591244D01*
X0000731927Y0000593119D01*
X0000733802Y0000596869D01*
X0000733802Y0000611867D01*
X0000731927Y0000615616D01*
X0000728177Y0000617491D01*
X0000720678Y0000617491D01*
X0000716929Y0000615616D01*
X0000715054Y0000611867D01*
X0000715054Y0000608117D01*
X0000733802Y0000604368D01*
X0000681308Y0000591244D02*
X0000681308Y0000630614D01*
X0000681308Y0000593119D02*
X0000685058Y0000591244D01*
X0000692557Y0000591244D01*
X0000696306Y0000593119D01*
X0000698181Y0000594994D01*
X0000700056Y0000598743D01*
X0000700056Y0000609992D01*
X0000698181Y0000613742D01*
X0000696306Y0000615616D01*
X0000692557Y0000617491D01*
X0000685058Y0000617491D01*
X0000681308Y0000615616D01*
X0000974690Y0000738995D02*
X0000976565Y0000740869D01*
X0000978440Y0000746494D01*
X0000978440Y0000750243D01*
X0000976565Y0000755868D01*
X0000972815Y0000759617D01*
X0000969066Y0000761492D01*
X0000961567Y0000763367D01*
X0000955942Y0000763367D01*
X0000948443Y0000761492D01*
X0000944694Y0000759617D01*
X0000940944Y0000755868D01*
X0000939070Y0000750243D01*
X0000939070Y0000746494D01*
X0000940944Y0000740869D01*
X0000942819Y0000738995D01*
D30*
X0001022553Y0000753805D02*
X0001023303Y0000754555D01*
X0001024053Y0000756805D01*
X0001024053Y0000758305D01*
X0001023303Y0000760554D01*
X0001021803Y0000762054D01*
X0001020303Y0000762804D01*
X0001017304Y0000763554D01*
X0001015054Y0000763554D01*
X0001012054Y0000762804D01*
X0001010554Y0000762054D01*
X0001009055Y0000760554D01*
X0001008305Y0000758305D01*
X0001008305Y0000756805D01*
X0001009055Y0000754555D01*
X0001009805Y0000753805D01*
X0001024053Y0000738807D02*
X0001024053Y0000747806D01*
X0001024053Y0000743307D02*
X0001008305Y0000743307D01*
X0001010554Y0000744806D01*
X0001012054Y0000746306D01*
X0001012804Y0000747806D01*
G04 next file*
G04 #@! TF.GenerationSoftware,KiCad,Pcbnew,(5.1.0)-1*
G04 #@! TF.CreationDate,2019-07-24T00:39:13-06:00*
G04 #@! TF.ProjectId,twinkletwinkie,7477696e-6b6c-4657-9477-696e6b69652e,rev?*
G04 #@! TF.SameCoordinates,PX89e92d0PY44794c0*
G04 #@! TF.FileFunction,Other,Fab,Top*
G04 Gerber Fmt 4.6, Leading zero omitted, Abs format (unit mm)*
G04 Created by KiCad (PCBNEW (5.1.0)-1) date 2019-07-24 00:39:13*
G04 APERTURE LIST*
G04 APERTURE END LIST*
G04 next file*
G04 #@! TF.GenerationSoftware,KiCad,Pcbnew,(5.1.0)-1*
G04 #@! TF.CreationDate,2019-07-24T00:39:13-06:00*
G04 #@! TF.ProjectId,twinkletwinkie,7477696e-6b6c-4657-9477-696e6b69652e,rev?*
G04 #@! TF.SameCoordinates,PX89e92d0PY44794c0*
G04 #@! TF.FileFunction,Other,Fab,Bot*
G04 Gerber Fmt 4.6, Leading zero omitted, Abs format (unit mm)*
G04 Created by KiCad (PCBNEW (5.1.0)-1) date 2019-07-24 00:39:13*
G04 APERTURE LIST*
G04 APERTURE END LIST*
D32*
X0003256786Y0002742463D02*
X0003256786Y0002719966D01*
X0003296156Y0002731214D02*
X0003256786Y0002731214D01*
X0003296156Y0002706842D02*
X0003256786Y0002706842D01*
X0003275534Y0002706842D02*
X0003275534Y0002684345D01*
X0003296156Y0002684345D02*
X0003256786Y0002684345D01*
X0003296156Y0002665597D02*
X0003256786Y0002665597D01*
X0003294281Y0002648725D02*
X0003296156Y0002643100D01*
X0003296156Y0002633726D01*
X0003294281Y0002629977D01*
X0003292407Y0002628102D01*
X0003288657Y0002626227D01*
X0003284908Y0002626227D01*
X0003281158Y0002628102D01*
X0003279283Y0002629977D01*
X0003277409Y0002633726D01*
X0003275534Y0002641226D01*
X0003273659Y0002644975D01*
X0003271784Y0002646850D01*
X0003268035Y0002648725D01*
X0003264285Y0002648725D01*
X0003260536Y0002646850D01*
X0003258661Y0002644975D01*
X0003256786Y0002641226D01*
X0003256786Y0002631852D01*
X0003258661Y0002626227D01*
X0003284908Y0002581233D02*
X0003284908Y0002562485D01*
X0003296156Y0002584983D02*
X0003256786Y0002571859D01*
X0003296156Y0002558736D01*
X0003296156Y0002523115D02*
X0003277409Y0002536239D01*
X0003296156Y0002545612D02*
X0003256786Y0002545612D01*
X0003256786Y0002530614D01*
X0003258661Y0002526865D01*
X0003260536Y0002524990D01*
X0003264285Y0002523115D01*
X0003269910Y0002523115D01*
X0003273659Y0002524990D01*
X0003275534Y0002526865D01*
X0003277409Y0002530614D01*
X0003277409Y0002545612D01*
X0003275534Y0002506242D02*
X0003275534Y0002493119D01*
X0003296156Y0002487495D02*
X0003296156Y0002506242D01*
X0003256786Y0002506242D01*
X0003256786Y0002487495D01*
X0003284908Y0002472497D02*
X0003284908Y0002453749D01*
X0003296156Y0002476246D02*
X0003256786Y0002463123D01*
X0003296156Y0002450000D01*
X0003275534Y0002393757D02*
X0003275534Y0002406880D01*
X0003296156Y0002406880D02*
X0003256786Y0002406880D01*
X0003256786Y0002388132D01*
X0003256786Y0002365635D02*
X0003256786Y0002358136D01*
X0003258661Y0002354386D01*
X0003262410Y0002350637D01*
X0003269910Y0002348762D01*
X0003283033Y0002348762D01*
X0003290532Y0002350637D01*
X0003294281Y0002354386D01*
X0003296156Y0002358136D01*
X0003296156Y0002365635D01*
X0003294281Y0002369385D01*
X0003290532Y0002373134D01*
X0003283033Y0002375009D01*
X0003269910Y0002375009D01*
X0003262410Y0002373134D01*
X0003258661Y0002369385D01*
X0003256786Y0002365635D01*
X0003296156Y0002309392D02*
X0003277409Y0002322515D01*
X0003296156Y0002331889D02*
X0003256786Y0002331889D01*
X0003256786Y0002316891D01*
X0003258661Y0002313142D01*
X0003260536Y0002311267D01*
X0003264285Y0002309392D01*
X0003269910Y0002309392D01*
X0003273659Y0002311267D01*
X0003275534Y0002313142D01*
X0003277409Y0002316891D01*
X0003277409Y0002331889D01*
X0003275534Y0002249400D02*
X0003275534Y0002262523D01*
X0003296156Y0002262523D02*
X0003256786Y0002262523D01*
X0003256786Y0002243775D01*
X0003284908Y0002230652D02*
X0003284908Y0002211904D01*
X0003296156Y0002234401D02*
X0003256786Y0002221278D01*
X0003296156Y0002208155D01*
X0003275534Y0002181908D02*
X0003277409Y0002176284D01*
X0003279283Y0002174409D01*
X0003283033Y0002172534D01*
X0003288657Y0002172534D01*
X0003292407Y0002174409D01*
X0003294281Y0002176284D01*
X0003296156Y0002180033D01*
X0003296156Y0002195031D01*
X0003256786Y0002195031D01*
X0003256786Y0002181908D01*
X0003258661Y0002178158D01*
X0003260536Y0002176284D01*
X0003264285Y0002174409D01*
X0003268035Y0002174409D01*
X0003271784Y0002176284D01*
X0003273659Y0002178158D01*
X0003275534Y0002181908D01*
X0003275534Y0002195031D01*
X0003296156Y0002125665D02*
X0003256786Y0002125665D01*
X0003284908Y0002112542D01*
X0003256786Y0002099418D01*
X0003296156Y0002099418D01*
X0003284908Y0002082545D02*
X0003284908Y0002063798D01*
X0003296156Y0002086295D02*
X0003256786Y0002073172D01*
X0003296156Y0002060048D01*
X0003296156Y0002024428D02*
X0003277409Y0002037551D01*
X0003296156Y0002046925D02*
X0003256786Y0002046925D01*
X0003256786Y0002031927D01*
X0003258661Y0002028177D01*
X0003260536Y0002026302D01*
X0003264285Y0002024428D01*
X0003269910Y0002024428D01*
X0003273659Y0002026302D01*
X0003275534Y0002028177D01*
X0003277409Y0002031927D01*
X0003277409Y0002046925D01*
X0003296156Y0002007555D02*
X0003256786Y0002007555D01*
X0003296156Y0001985058D02*
X0003273659Y0002001930D01*
X0003256786Y0001985058D02*
X0003279283Y0002007555D01*
X0003296156Y0001968185D02*
X0003256786Y0001968185D01*
X0003296156Y0001949437D02*
X0003256786Y0001949437D01*
X0003296156Y0001926940D01*
X0003256786Y0001926940D01*
X0003258661Y0001887570D02*
X0003256786Y0001891319D01*
X0003256786Y0001896944D01*
X0003258661Y0001902568D01*
X0003262410Y0001906317D01*
X0003266160Y0001908192D01*
X0003273659Y0001910067D01*
X0003279283Y0001910067D01*
X0003286782Y0001908192D01*
X0003290532Y0001906317D01*
X0003294281Y0001902568D01*
X0003296156Y0001896944D01*
X0003296156Y0001893194D01*
X0003294281Y0001887570D01*
X0003292407Y0001885695D01*
X0003279283Y0001885695D01*
X0003279283Y0001893194D01*
X0003350393Y0001861023D02*
X0003215354Y0001863385D01*
X0003350787Y0002773228D02*
X0003350393Y0001861023D01*
X0003214173Y0002773228D02*
X0003350787Y0002773228D01*
X0003215354Y0001862992D02*
X0003214173Y0002773228D01*
D33*
X0003232283Y0001744881D02*
X0003169291Y0001744881D01*
X0003232283Y0001713385D02*
X0003232283Y0001744881D01*
X0003169291Y0001713385D02*
X0003232283Y0001713385D01*
X0003169291Y0001744881D02*
X0003169291Y0001713385D01*
X0003672834Y0001976377D02*
X0003672834Y0002039370D01*
X0003641338Y0001976377D02*
X0003672834Y0001976377D01*
X0003641338Y0002039370D02*
X0003641338Y0001976377D01*
X0003672834Y0002039370D02*
X0003641338Y0002039370D01*
X0003520078Y0002678740D02*
X0003567322Y0002678740D01*
X0003520078Y0002757480D02*
X0003520078Y0002678740D01*
X0003567322Y0002757480D02*
X0003520078Y0002757480D01*
X0003567322Y0002678740D02*
X0003567322Y0002757480D01*
X0003633464Y0001820078D02*
X0003680708Y0001820078D01*
X0003633464Y0001898818D02*
X0003633464Y0001820078D01*
X0003680708Y0001898818D02*
X0003633464Y0001898818D01*
X0003680708Y0001820078D02*
X0003680708Y0001898818D01*
X0003471653Y0003023622D02*
X0003518897Y0003023622D01*
X0003471653Y0003102362D02*
X0003471653Y0003023622D01*
X0003518897Y0003102362D02*
X0003471653Y0003102362D01*
X0003518897Y0003023622D02*
X0003518897Y0003102362D01*
X0003409055Y0001734645D02*
X0003438582Y0001764173D01*
X0003320472Y0001734645D02*
X0003409055Y0001734645D01*
X0003320472Y0001852755D02*
X0003320472Y0001734645D01*
X0003438582Y0001852755D02*
X0003320472Y0001852755D01*
X0003438582Y0001764173D02*
X0003438582Y0001852755D01*
X0003559448Y0002844881D02*
X0003559448Y0002907874D01*
X0003527952Y0002844881D02*
X0003559448Y0002844881D01*
X0003527952Y0002907874D02*
X0003527952Y0002844881D01*
X0003559448Y0002907874D02*
X0003527952Y0002907874D01*
X0003511023Y0003194094D02*
X0003511023Y0003257086D01*
X0003479527Y0003194094D02*
X0003511023Y0003194094D01*
X0003479527Y0003257086D02*
X0003479527Y0003194094D01*
X0003511023Y0003257086D02*
X0003479527Y0003257086D01*
X0003272440Y0001591732D02*
X0003335433Y0001591732D01*
X0003272440Y0001623228D02*
X0003272440Y0001591732D01*
X0003335433Y0001623228D02*
X0003272440Y0001623228D01*
X0003335433Y0001591732D02*
X0003335433Y0001623228D01*
D32*
X0003196100Y0001803243D02*
X0003173603Y0001803243D01*
X0003184851Y0001803243D02*
X0003184851Y0001763873D01*
X0003181102Y0001769497D01*
X0003177352Y0001773247D01*
X0003173603Y0001775121D01*
X0003212973Y0001803243D02*
X0003212973Y0001763873D01*
X0003216722Y0001788245D02*
X0003227971Y0001803243D01*
X0003227971Y0001776996D02*
X0003212973Y0001791994D01*
D34*
X0003198162Y0001736257D02*
X0003192913Y0001728758D01*
X0003189163Y0001736257D02*
X0003189163Y0001720509D01*
X0003195163Y0001720509D01*
X0003196662Y0001721259D01*
X0003197412Y0001722009D01*
X0003198162Y0001723509D01*
X0003198162Y0001725759D01*
X0003197412Y0001727259D01*
X0003196662Y0001728008D01*
X0003195163Y0001728758D01*
X0003189163Y0001728758D01*
X0003213160Y0001736257D02*
X0003204161Y0001736257D01*
X0003208661Y0001736257D02*
X0003208661Y0001720509D01*
X0003207161Y0001722759D01*
X0003205661Y0001724259D01*
X0003204161Y0001725009D01*
D32*
X0003691825Y0002059430D02*
X0003691825Y0002035058D01*
X0003706824Y0002048181D01*
X0003706824Y0002042557D01*
X0003708698Y0002038807D01*
X0003710573Y0002036932D01*
X0003714323Y0002035058D01*
X0003723697Y0002035058D01*
X0003727446Y0002036932D01*
X0003729321Y0002038807D01*
X0003731196Y0002042557D01*
X0003731196Y0002053805D01*
X0003729321Y0002057555D01*
X0003727446Y0002059430D01*
X0003691825Y0002021934D02*
X0003691825Y0001997562D01*
X0003706824Y0002010686D01*
X0003706824Y0002005061D01*
X0003708698Y0002001312D01*
X0003710573Y0001999437D01*
X0003714323Y0001997562D01*
X0003723697Y0001997562D01*
X0003727446Y0001999437D01*
X0003729321Y0002001312D01*
X0003731196Y0002005061D01*
X0003731196Y0002016310D01*
X0003729321Y0002020059D01*
X0003727446Y0002021934D01*
X0003731196Y0001958192D02*
X0003712448Y0001971316D01*
X0003731196Y0001980689D02*
X0003691825Y0001980689D01*
X0003691825Y0001965691D01*
X0003693700Y0001961942D01*
X0003695575Y0001960067D01*
X0003699325Y0001958192D01*
X0003704949Y0001958192D01*
X0003708698Y0001960067D01*
X0003710573Y0001961942D01*
X0003712448Y0001965691D01*
X0003712448Y0001980689D01*
D34*
X0003664210Y0002010498D02*
X0003656711Y0002015748D01*
X0003664210Y0002019497D02*
X0003648462Y0002019497D01*
X0003648462Y0002013498D01*
X0003649212Y0002011998D01*
X0003649962Y0002011248D01*
X0003651462Y0002010498D01*
X0003653712Y0002010498D01*
X0003655211Y0002011248D01*
X0003655961Y0002011998D01*
X0003656711Y0002013498D01*
X0003656711Y0002019497D01*
X0003648462Y0001997000D02*
X0003648462Y0002000000D01*
X0003649212Y0002001499D01*
X0003649962Y0002002249D01*
X0003652212Y0002003749D01*
X0003655211Y0002004499D01*
X0003661211Y0002004499D01*
X0003662710Y0002003749D01*
X0003663460Y0002002999D01*
X0003664210Y0002001499D01*
X0003664210Y0001998500D01*
X0003663460Y0001997000D01*
X0003662710Y0001996250D01*
X0003661211Y0001995500D01*
X0003657461Y0001995500D01*
X0003655961Y0001996250D01*
X0003655211Y0001997000D01*
X0003654461Y0001998500D01*
X0003654461Y0002001499D01*
X0003655211Y0002002999D01*
X0003655961Y0002003749D01*
X0003657461Y0002004499D01*
D32*
X0003491511Y0002743419D02*
X0003491511Y0002762167D01*
X0003452140Y0002762167D01*
X0003470888Y0002730296D02*
X0003470888Y0002717172D01*
X0003491511Y0002711548D02*
X0003491511Y0002730296D01*
X0003452140Y0002730296D01*
X0003452140Y0002711548D01*
X0003491511Y0002694675D02*
X0003452140Y0002694675D01*
X0003452140Y0002685301D01*
X0003454015Y0002679677D01*
X0003457765Y0002675927D01*
X0003461514Y0002674053D01*
X0003469013Y0002672178D01*
X0003474638Y0002672178D01*
X0003482137Y0002674053D01*
X0003485886Y0002675927D01*
X0003489636Y0002679677D01*
X0003491511Y0002685301D01*
X0003491511Y0002694675D01*
X0003631392Y0002747169D02*
X0003592022Y0002747169D01*
X0003592022Y0002737795D01*
X0003593897Y0002732170D01*
X0003597647Y0002728421D01*
X0003601396Y0002726546D01*
X0003608895Y0002724671D01*
X0003614520Y0002724671D01*
X0003622019Y0002726546D01*
X0003625768Y0002728421D01*
X0003629518Y0002732170D01*
X0003631392Y0002737795D01*
X0003631392Y0002747169D01*
X0003595772Y0002709673D02*
X0003593897Y0002707799D01*
X0003592022Y0002704049D01*
X0003592022Y0002694675D01*
X0003593897Y0002690926D01*
X0003595772Y0002689051D01*
X0003599521Y0002687176D01*
X0003603271Y0002687176D01*
X0003608895Y0002689051D01*
X0003631392Y0002711548D01*
X0003631392Y0002687176D01*
X0003613085Y0002660948D02*
X0003573715Y0002660948D01*
X0003573715Y0002645950D01*
X0003575590Y0002642200D01*
X0003577465Y0002640326D01*
X0003581214Y0002638451D01*
X0003586839Y0002638451D01*
X0003590588Y0002640326D01*
X0003592463Y0002642200D01*
X0003594338Y0002645950D01*
X0003594338Y0002660948D01*
X0003592463Y0002608455D02*
X0003594338Y0002602830D01*
X0003596212Y0002600956D01*
X0003599962Y0002599081D01*
X0003605586Y0002599081D01*
X0003609336Y0002600956D01*
X0003611211Y0002602830D01*
X0003613085Y0002606580D01*
X0003613085Y0002621578D01*
X0003573715Y0002621578D01*
X0003573715Y0002608455D01*
X0003575590Y0002604705D01*
X0003577465Y0002602830D01*
X0003581214Y0002600956D01*
X0003584964Y0002600956D01*
X0003588713Y0002602830D01*
X0003590588Y0002604705D01*
X0003592463Y0002608455D01*
X0003592463Y0002621578D01*
X0003573715Y0002574709D02*
X0003573715Y0002570959D01*
X0003575590Y0002567210D01*
X0003577465Y0002565335D01*
X0003581214Y0002563460D01*
X0003588713Y0002561586D01*
X0003598087Y0002561586D01*
X0003605586Y0002563460D01*
X0003609336Y0002565335D01*
X0003611211Y0002567210D01*
X0003613085Y0002570959D01*
X0003613085Y0002574709D01*
X0003611211Y0002578458D01*
X0003609336Y0002580333D01*
X0003605586Y0002582208D01*
X0003598087Y0002584083D01*
X0003588713Y0002584083D01*
X0003581214Y0002582208D01*
X0003577465Y0002580333D01*
X0003575590Y0002578458D01*
X0003573715Y0002574709D01*
X0003772534Y0002660948D02*
X0003733164Y0002660948D01*
X0003733164Y0002645950D01*
X0003735039Y0002642200D01*
X0003736914Y0002640326D01*
X0003740663Y0002638451D01*
X0003746287Y0002638451D01*
X0003750037Y0002640326D01*
X0003751912Y0002642200D01*
X0003753787Y0002645950D01*
X0003753787Y0002660948D01*
X0003751912Y0002608455D02*
X0003753787Y0002602830D01*
X0003755661Y0002600956D01*
X0003759411Y0002599081D01*
X0003765035Y0002599081D01*
X0003768785Y0002600956D01*
X0003770659Y0002602830D01*
X0003772534Y0002606580D01*
X0003772534Y0002621578D01*
X0003733164Y0002621578D01*
X0003733164Y0002608455D01*
X0003735039Y0002604705D01*
X0003736914Y0002602830D01*
X0003740663Y0002600956D01*
X0003744413Y0002600956D01*
X0003748162Y0002602830D01*
X0003750037Y0002604705D01*
X0003751912Y0002608455D01*
X0003751912Y0002621578D01*
X0003733164Y0002574709D02*
X0003733164Y0002570959D01*
X0003735039Y0002567210D01*
X0003736914Y0002565335D01*
X0003740663Y0002563460D01*
X0003748162Y0002561586D01*
X0003757536Y0002561586D01*
X0003765035Y0002563460D01*
X0003768785Y0002565335D01*
X0003770659Y0002567210D01*
X0003772534Y0002570959D01*
X0003772534Y0002574709D01*
X0003770659Y0002578458D01*
X0003768785Y0002580333D01*
X0003765035Y0002582208D01*
X0003757536Y0002584083D01*
X0003748162Y0002584083D01*
X0003740663Y0002582208D01*
X0003736914Y0002580333D01*
X0003735039Y0002578458D01*
X0003733164Y0002574709D01*
X0003640251Y0002507186D02*
X0003600881Y0002507186D01*
X0003600881Y0002492188D01*
X0003602755Y0002488438D01*
X0003604630Y0002486564D01*
X0003608380Y0002484689D01*
X0003614004Y0002484689D01*
X0003617754Y0002486564D01*
X0003619628Y0002488438D01*
X0003621503Y0002492188D01*
X0003621503Y0002507186D01*
X0003636501Y0002445319D02*
X0003638376Y0002447194D01*
X0003640251Y0002452818D01*
X0003640251Y0002456567D01*
X0003638376Y0002462192D01*
X0003634626Y0002465941D01*
X0003630877Y0002467816D01*
X0003623378Y0002469691D01*
X0003617754Y0002469691D01*
X0003610254Y0002467816D01*
X0003606505Y0002465941D01*
X0003602755Y0002462192D01*
X0003600881Y0002456567D01*
X0003600881Y0002452818D01*
X0003602755Y0002447194D01*
X0003604630Y0002445319D01*
X0003600881Y0002420947D02*
X0003600881Y0002417197D01*
X0003602755Y0002413448D01*
X0003604630Y0002411573D01*
X0003608380Y0002409698D01*
X0003615879Y0002407823D01*
X0003625253Y0002407823D01*
X0003632752Y0002409698D01*
X0003636501Y0002411573D01*
X0003638376Y0002413448D01*
X0003640251Y0002417197D01*
X0003640251Y0002420947D01*
X0003638376Y0002424696D01*
X0003636501Y0002426571D01*
X0003632752Y0002428446D01*
X0003625253Y0002430321D01*
X0003615879Y0002430321D01*
X0003608380Y0002428446D01*
X0003604630Y0002426571D01*
X0003602755Y0002424696D01*
X0003600881Y0002420947D01*
X0003799700Y0002507186D02*
X0003760329Y0002507186D01*
X0003760329Y0002492188D01*
X0003762204Y0002488438D01*
X0003764079Y0002486564D01*
X0003767829Y0002484689D01*
X0003773453Y0002484689D01*
X0003777202Y0002486564D01*
X0003779077Y0002488438D01*
X0003780952Y0002492188D01*
X0003780952Y0002507186D01*
X0003795950Y0002445319D02*
X0003797825Y0002447194D01*
X0003799700Y0002452818D01*
X0003799700Y0002456567D01*
X0003797825Y0002462192D01*
X0003794075Y0002465941D01*
X0003790326Y0002467816D01*
X0003782827Y0002469691D01*
X0003777202Y0002469691D01*
X0003769703Y0002467816D01*
X0003765954Y0002465941D01*
X0003762204Y0002462192D01*
X0003760329Y0002456567D01*
X0003760329Y0002452818D01*
X0003762204Y0002447194D01*
X0003764079Y0002445319D01*
X0003760329Y0002420947D02*
X0003760329Y0002417197D01*
X0003762204Y0002413448D01*
X0003764079Y0002411573D01*
X0003767829Y0002409698D01*
X0003775328Y0002407823D01*
X0003784701Y0002407823D01*
X0003792200Y0002409698D01*
X0003795950Y0002411573D01*
X0003797825Y0002413448D01*
X0003799700Y0002417197D01*
X0003799700Y0002420947D01*
X0003797825Y0002424696D01*
X0003795950Y0002426571D01*
X0003792200Y0002428446D01*
X0003784701Y0002430321D01*
X0003775328Y0002430321D01*
X0003767829Y0002428446D01*
X0003764079Y0002426571D01*
X0003762204Y0002424696D01*
X0003760329Y0002420947D01*
X0003658755Y0002353424D02*
X0003619385Y0002353424D01*
X0003619385Y0002338426D01*
X0003621259Y0002334676D01*
X0003623134Y0002332802D01*
X0003626884Y0002330927D01*
X0003632508Y0002330927D01*
X0003636257Y0002332802D01*
X0003638132Y0002334676D01*
X0003640007Y0002338426D01*
X0003640007Y0002353424D01*
X0003655005Y0002291557D02*
X0003656880Y0002293432D01*
X0003658755Y0002299056D01*
X0003658755Y0002302805D01*
X0003656880Y0002308430D01*
X0003653130Y0002312179D01*
X0003649381Y0002314054D01*
X0003641882Y0002315929D01*
X0003636257Y0002315929D01*
X0003628758Y0002314054D01*
X0003625009Y0002312179D01*
X0003621259Y0002308430D01*
X0003619385Y0002302805D01*
X0003619385Y0002299056D01*
X0003621259Y0002293432D01*
X0003623134Y0002291557D01*
X0003658755Y0002254061D02*
X0003658755Y0002276559D01*
X0003658755Y0002265310D02*
X0003619385Y0002265310D01*
X0003625009Y0002269060D01*
X0003628758Y0002272809D01*
X0003630633Y0002276559D01*
X0003818203Y0002353424D02*
X0003778833Y0002353424D01*
X0003778833Y0002338426D01*
X0003780708Y0002334676D01*
X0003782583Y0002332802D01*
X0003786332Y0002330927D01*
X0003791957Y0002330927D01*
X0003795706Y0002332802D01*
X0003797581Y0002334676D01*
X0003799456Y0002338426D01*
X0003799456Y0002353424D01*
X0003814454Y0002291557D02*
X0003816329Y0002293432D01*
X0003818203Y0002299056D01*
X0003818203Y0002302805D01*
X0003816329Y0002308430D01*
X0003812579Y0002312179D01*
X0003808830Y0002314054D01*
X0003801331Y0002315929D01*
X0003795706Y0002315929D01*
X0003788207Y0002314054D01*
X0003784458Y0002312179D01*
X0003780708Y0002308430D01*
X0003778833Y0002302805D01*
X0003778833Y0002299056D01*
X0003780708Y0002293432D01*
X0003782583Y0002291557D01*
X0003818203Y0002254061D02*
X0003818203Y0002276559D01*
X0003818203Y0002265310D02*
X0003778833Y0002265310D01*
X0003784458Y0002269060D01*
X0003788207Y0002272809D01*
X0003790082Y0002276559D01*
X0003693007Y0002199662D02*
X0003653637Y0002199662D01*
X0003653637Y0002184664D01*
X0003655511Y0002180914D01*
X0003657386Y0002179040D01*
X0003661136Y0002177165D01*
X0003666760Y0002177165D01*
X0003670509Y0002179040D01*
X0003672384Y0002180914D01*
X0003674259Y0002184664D01*
X0003674259Y0002199662D01*
X0003689257Y0002137795D02*
X0003691132Y0002139670D01*
X0003693007Y0002145294D01*
X0003693007Y0002149043D01*
X0003691132Y0002154668D01*
X0003687382Y0002158417D01*
X0003683633Y0002160292D01*
X0003676134Y0002162167D01*
X0003670509Y0002162167D01*
X0003663010Y0002160292D01*
X0003659261Y0002158417D01*
X0003655511Y0002154668D01*
X0003653637Y0002149043D01*
X0003653637Y0002145294D01*
X0003655511Y0002139670D01*
X0003657386Y0002137795D01*
X0003657386Y0002122797D02*
X0003655511Y0002120922D01*
X0003653637Y0002117172D01*
X0003653637Y0002107798D01*
X0003655511Y0002104049D01*
X0003657386Y0002102174D01*
X0003661136Y0002100299D01*
X0003664885Y0002100299D01*
X0003670509Y0002102174D01*
X0003693007Y0002124671D01*
X0003693007Y0002100299D01*
X0003852455Y0002199662D02*
X0003813085Y0002199662D01*
X0003813085Y0002184664D01*
X0003814960Y0002180914D01*
X0003816835Y0002179040D01*
X0003820584Y0002177165D01*
X0003826209Y0002177165D01*
X0003829958Y0002179040D01*
X0003831833Y0002180914D01*
X0003833708Y0002184664D01*
X0003833708Y0002199662D01*
X0003848706Y0002137795D02*
X0003850581Y0002139670D01*
X0003852455Y0002145294D01*
X0003852455Y0002149043D01*
X0003850581Y0002154668D01*
X0003846831Y0002158417D01*
X0003843082Y0002160292D01*
X0003835583Y0002162167D01*
X0003829958Y0002162167D01*
X0003822459Y0002160292D01*
X0003818710Y0002158417D01*
X0003814960Y0002154668D01*
X0003813085Y0002149043D01*
X0003813085Y0002145294D01*
X0003814960Y0002139670D01*
X0003816835Y0002137795D01*
X0003816835Y0002122797D02*
X0003814960Y0002120922D01*
X0003813085Y0002117172D01*
X0003813085Y0002107798D01*
X0003814960Y0002104049D01*
X0003816835Y0002102174D01*
X0003820584Y0002100299D01*
X0003824334Y0002100299D01*
X0003829958Y0002102174D01*
X0003852455Y0002124671D01*
X0003852455Y0002100299D01*
X0003297731Y0001277090D02*
X0003258361Y0001277090D01*
X0003258361Y0001262092D01*
X0003260236Y0001258342D01*
X0003262110Y0001256467D01*
X0003265860Y0001254593D01*
X0003271484Y0001254593D01*
X0003275234Y0001256467D01*
X0003277109Y0001258342D01*
X0003278983Y0001262092D01*
X0003278983Y0001277090D01*
X0003277109Y0001224596D02*
X0003278983Y0001218972D01*
X0003280858Y0001217097D01*
X0003284608Y0001215223D01*
X0003290232Y0001215223D01*
X0003293981Y0001217097D01*
X0003295856Y0001218972D01*
X0003297731Y0001222722D01*
X0003297731Y0001237720D01*
X0003258361Y0001237720D01*
X0003258361Y0001224596D01*
X0003260236Y0001220847D01*
X0003262110Y0001218972D01*
X0003265860Y0001217097D01*
X0003269610Y0001217097D01*
X0003273359Y0001218972D01*
X0003275234Y0001220847D01*
X0003277109Y0001224596D01*
X0003277109Y0001237720D01*
X0003258361Y0001202099D02*
X0003258361Y0001177727D01*
X0003273359Y0001190851D01*
X0003273359Y0001185226D01*
X0003275234Y0001181477D01*
X0003277109Y0001179602D01*
X0003280858Y0001177727D01*
X0003290232Y0001177727D01*
X0003293981Y0001179602D01*
X0003295856Y0001181477D01*
X0003297731Y0001185226D01*
X0003297731Y0001196475D01*
X0003295856Y0001200224D01*
X0003293981Y0001202099D01*
X0003419685Y0001258342D02*
X0003417810Y0001262092D01*
X0003417810Y0001267716D01*
X0003419685Y0001273340D01*
X0003423434Y0001277090D01*
X0003427184Y0001278965D01*
X0003434683Y0001280839D01*
X0003440307Y0001280839D01*
X0003447806Y0001278965D01*
X0003451556Y0001277090D01*
X0003455305Y0001273340D01*
X0003457180Y0001267716D01*
X0003457180Y0001263966D01*
X0003455305Y0001258342D01*
X0003453430Y0001256467D01*
X0003440307Y0001256467D01*
X0003440307Y0001263966D01*
X0003457180Y0001239595D02*
X0003417810Y0001239595D01*
X0003457180Y0001217097D01*
X0003417810Y0001217097D01*
X0003457180Y0001198350D02*
X0003417810Y0001198350D01*
X0003417810Y0001188976D01*
X0003419685Y0001183352D01*
X0003423434Y0001179602D01*
X0003427184Y0001177727D01*
X0003434683Y0001175852D01*
X0003440307Y0001175852D01*
X0003447806Y0001177727D01*
X0003451556Y0001179602D01*
X0003455305Y0001183352D01*
X0003457180Y0001188976D01*
X0003457180Y0001198350D01*
X0003169385Y0001277090D02*
X0003130014Y0001277090D01*
X0003130014Y0001262092D01*
X0003131889Y0001258342D01*
X0003133764Y0001256467D01*
X0003137514Y0001254593D01*
X0003143138Y0001254593D01*
X0003146887Y0001256467D01*
X0003148762Y0001258342D01*
X0003150637Y0001262092D01*
X0003150637Y0001277090D01*
X0003148762Y0001224596D02*
X0003150637Y0001218972D01*
X0003152512Y0001217097D01*
X0003156261Y0001215223D01*
X0003161885Y0001215223D01*
X0003165635Y0001217097D01*
X0003167510Y0001218972D01*
X0003169385Y0001222722D01*
X0003169385Y0001237720D01*
X0003130014Y0001237720D01*
X0003130014Y0001224596D01*
X0003131889Y0001220847D01*
X0003133764Y0001218972D01*
X0003137514Y0001217097D01*
X0003141263Y0001217097D01*
X0003145013Y0001218972D01*
X0003146887Y0001220847D01*
X0003148762Y0001224596D01*
X0003148762Y0001237720D01*
X0003133764Y0001200224D02*
X0003131889Y0001198350D01*
X0003130014Y0001194600D01*
X0003130014Y0001185226D01*
X0003131889Y0001181477D01*
X0003133764Y0001179602D01*
X0003137514Y0001177727D01*
X0003141263Y0001177727D01*
X0003146887Y0001179602D01*
X0003169385Y0001202099D01*
X0003169385Y0001177727D01*
X0003289463Y0001277090D02*
X0003289463Y0001252718D01*
X0003304461Y0001265841D01*
X0003304461Y0001260217D01*
X0003306336Y0001256467D01*
X0003308211Y0001254593D01*
X0003311960Y0001252718D01*
X0003321334Y0001252718D01*
X0003325084Y0001254593D01*
X0003326959Y0001256467D01*
X0003328833Y0001260217D01*
X0003328833Y0001271466D01*
X0003326959Y0001275215D01*
X0003325084Y0001277090D01*
X0003289463Y0001241469D02*
X0003328833Y0001228346D01*
X0003289463Y0001215223D01*
X0003289463Y0001205849D02*
X0003289463Y0001181477D01*
X0003304461Y0001194600D01*
X0003304461Y0001188976D01*
X0003306336Y0001185226D01*
X0003308211Y0001183352D01*
X0003311960Y0001181477D01*
X0003321334Y0001181477D01*
X0003325084Y0001183352D01*
X0003326959Y0001185226D01*
X0003328833Y0001188976D01*
X0003328833Y0001200224D01*
X0003326959Y0001203974D01*
X0003325084Y0001205849D01*
X0003604896Y0001884758D02*
X0003604896Y0001903505D01*
X0003565526Y0001903505D01*
X0003584274Y0001871634D02*
X0003584274Y0001858511D01*
X0003604896Y0001852887D02*
X0003604896Y0001871634D01*
X0003565526Y0001871634D01*
X0003565526Y0001852887D01*
X0003604896Y0001836014D02*
X0003565526Y0001836014D01*
X0003565526Y0001826640D01*
X0003567401Y0001821016D01*
X0003571151Y0001817266D01*
X0003574900Y0001815391D01*
X0003582399Y0001813517D01*
X0003588023Y0001813517D01*
X0003595523Y0001815391D01*
X0003599272Y0001817266D01*
X0003603022Y0001821016D01*
X0003604896Y0001826640D01*
X0003604896Y0001836014D01*
X0003744778Y0001888507D02*
X0003705408Y0001888507D01*
X0003705408Y0001879133D01*
X0003707283Y0001873509D01*
X0003711032Y0001869760D01*
X0003714782Y0001867885D01*
X0003722281Y0001866010D01*
X0003727905Y0001866010D01*
X0003735404Y0001867885D01*
X0003739154Y0001869760D01*
X0003742903Y0001873509D01*
X0003744778Y0001879133D01*
X0003744778Y0001888507D01*
X0003705408Y0001852887D02*
X0003705408Y0001828515D01*
X0003720406Y0001841638D01*
X0003720406Y0001836014D01*
X0003722281Y0001832264D01*
X0003724156Y0001830389D01*
X0003727905Y0001828515D01*
X0003737279Y0001828515D01*
X0003741029Y0001830389D01*
X0003742903Y0001832264D01*
X0003744778Y0001836014D01*
X0003744778Y0001847262D01*
X0003742903Y0001851012D01*
X0003741029Y0001852887D01*
X0003443085Y0003088301D02*
X0003443085Y0003107049D01*
X0003403715Y0003107049D01*
X0003422463Y0003075178D02*
X0003422463Y0003062054D01*
X0003443085Y0003056430D02*
X0003443085Y0003075178D01*
X0003403715Y0003075178D01*
X0003403715Y0003056430D01*
X0003443085Y0003039557D02*
X0003403715Y0003039557D01*
X0003403715Y0003030183D01*
X0003405590Y0003024559D01*
X0003409340Y0003020809D01*
X0003413089Y0003018935D01*
X0003420588Y0003017060D01*
X0003426212Y0003017060D01*
X0003433712Y0003018935D01*
X0003437461Y0003020809D01*
X0003441211Y0003024559D01*
X0003443085Y0003030183D01*
X0003443085Y0003039557D01*
X0003582967Y0003092050D02*
X0003543597Y0003092050D01*
X0003543597Y0003082677D01*
X0003545472Y0003077052D01*
X0003549221Y0003073303D01*
X0003552971Y0003071428D01*
X0003560470Y0003069553D01*
X0003566094Y0003069553D01*
X0003573593Y0003071428D01*
X0003577343Y0003073303D01*
X0003581092Y0003077052D01*
X0003582967Y0003082677D01*
X0003582967Y0003092050D01*
X0003582967Y0003032058D02*
X0003582967Y0003054555D01*
X0003582967Y0003043307D02*
X0003543597Y0003043307D01*
X0003549221Y0003047056D01*
X0003552971Y0003050806D01*
X0003554846Y0003054555D01*
X0003275852Y0001974615D02*
X0003275852Y0001955867D01*
X0003287101Y0001978365D02*
X0003247731Y0001965241D01*
X0003287101Y0001952118D01*
X0003247731Y0001944619D02*
X0003247731Y0001922122D01*
X0003287101Y0001933370D02*
X0003247731Y0001933370D01*
X0003260854Y0001914623D02*
X0003260854Y0001899625D01*
X0003247731Y0001908998D02*
X0003281477Y0001908998D01*
X0003285226Y0001907124D01*
X0003287101Y0001903374D01*
X0003287101Y0001899625D01*
X0003287101Y0001886501D02*
X0003260854Y0001886501D01*
X0003247731Y0001886501D02*
X0003249606Y0001888376D01*
X0003251481Y0001886501D01*
X0003249606Y0001884626D01*
X0003247731Y0001886501D01*
X0003251481Y0001886501D01*
X0003260854Y0001867753D02*
X0003287101Y0001867753D01*
X0003264604Y0001867753D02*
X0003262729Y0001865879D01*
X0003260854Y0001862129D01*
X0003260854Y0001856505D01*
X0003262729Y0001852755D01*
X0003266479Y0001850881D01*
X0003287101Y0001850881D01*
X0003260854Y0001835882D02*
X0003287101Y0001826509D01*
X0003260854Y0001817135D02*
X0003287101Y0001826509D01*
X0003296475Y0001830258D01*
X0003298350Y0001832133D01*
X0003300224Y0001835882D01*
X0003264604Y0001796512D02*
X0003262729Y0001800262D01*
X0003260854Y0001802137D01*
X0003257105Y0001804011D01*
X0003255230Y0001804011D01*
X0003251481Y0001802137D01*
X0003249606Y0001800262D01*
X0003247731Y0001796512D01*
X0003247731Y0001789013D01*
X0003249606Y0001785264D01*
X0003251481Y0001783389D01*
X0003255230Y0001781514D01*
X0003257105Y0001781514D01*
X0003260854Y0001783389D01*
X0003262729Y0001785264D01*
X0003264604Y0001789013D01*
X0003264604Y0001796512D01*
X0003266479Y0001800262D01*
X0003268353Y0001802137D01*
X0003272103Y0001804011D01*
X0003279602Y0001804011D01*
X0003283352Y0001802137D01*
X0003285226Y0001800262D01*
X0003287101Y0001796512D01*
X0003287101Y0001789013D01*
X0003285226Y0001785264D01*
X0003283352Y0001783389D01*
X0003279602Y0001781514D01*
X0003272103Y0001781514D01*
X0003268353Y0001783389D01*
X0003266479Y0001785264D01*
X0003264604Y0001789013D01*
X0003287101Y0001744019D02*
X0003287101Y0001766516D01*
X0003287101Y0001755268D02*
X0003247731Y0001755268D01*
X0003253355Y0001759017D01*
X0003257105Y0001762767D01*
X0003258980Y0001766516D01*
X0003247731Y0001710273D02*
X0003247731Y0001717772D01*
X0003249606Y0001721522D01*
X0003251481Y0001723397D01*
X0003257105Y0001727146D01*
X0003264604Y0001729021D01*
X0003279602Y0001729021D01*
X0003283352Y0001727146D01*
X0003285226Y0001725271D01*
X0003287101Y0001721522D01*
X0003287101Y0001714023D01*
X0003285226Y0001710273D01*
X0003283352Y0001708398D01*
X0003279602Y0001706524D01*
X0003270228Y0001706524D01*
X0003266479Y0001708398D01*
X0003264604Y0001710273D01*
X0003262729Y0001714023D01*
X0003262729Y0001721522D01*
X0003264604Y0001725271D01*
X0003266479Y0001727146D01*
X0003270228Y0001729021D01*
X0003272103Y0001689651D02*
X0003272103Y0001659655D01*
X0003287101Y0001640907D02*
X0003247731Y0001640907D01*
X0003275852Y0001627784D01*
X0003247731Y0001614660D01*
X0003287101Y0001614660D01*
D35*
X0003363357Y0001816197D02*
X0003387260Y0001816197D01*
X0003390073Y0001814791D01*
X0003391479Y0001813385D01*
X0003392885Y0001810573D01*
X0003392885Y0001804949D01*
X0003391479Y0001802137D01*
X0003390073Y0001800731D01*
X0003387260Y0001799325D01*
X0003363357Y0001799325D01*
X0003392885Y0001769797D02*
X0003392885Y0001786670D01*
X0003392885Y0001778233D02*
X0003363357Y0001778233D01*
X0003367575Y0001781046D01*
X0003370388Y0001783858D01*
X0003371794Y0001786670D01*
D32*
X0003578440Y0002927933D02*
X0003578440Y0002903562D01*
X0003593438Y0002916685D01*
X0003593438Y0002911061D01*
X0003595313Y0002907311D01*
X0003597187Y0002905436D01*
X0003600937Y0002903562D01*
X0003610311Y0002903562D01*
X0003614060Y0002905436D01*
X0003615935Y0002907311D01*
X0003617810Y0002911061D01*
X0003617810Y0002922309D01*
X0003615935Y0002926059D01*
X0003614060Y0002927933D01*
X0003578440Y0002890438D02*
X0003578440Y0002866066D01*
X0003593438Y0002879190D01*
X0003593438Y0002873565D01*
X0003595313Y0002869816D01*
X0003597187Y0002867941D01*
X0003600937Y0002866066D01*
X0003610311Y0002866066D01*
X0003614060Y0002867941D01*
X0003615935Y0002869816D01*
X0003617810Y0002873565D01*
X0003617810Y0002884814D01*
X0003615935Y0002888563D01*
X0003614060Y0002890438D01*
X0003617810Y0002826696D02*
X0003599062Y0002839820D01*
X0003617810Y0002849193D02*
X0003578440Y0002849193D01*
X0003578440Y0002834195D01*
X0003580314Y0002830446D01*
X0003582189Y0002828571D01*
X0003585939Y0002826696D01*
X0003591563Y0002826696D01*
X0003595313Y0002828571D01*
X0003597187Y0002830446D01*
X0003599062Y0002834195D01*
X0003599062Y0002849193D01*
D34*
X0003550824Y0002879002D02*
X0003543325Y0002884251D01*
X0003550824Y0002888001D02*
X0003535076Y0002888001D01*
X0003535076Y0002882002D01*
X0003535826Y0002880502D01*
X0003536576Y0002879752D01*
X0003538076Y0002879002D01*
X0003540326Y0002879002D01*
X0003541825Y0002879752D01*
X0003542575Y0002880502D01*
X0003543325Y0002882002D01*
X0003543325Y0002888001D01*
X0003535076Y0002864754D02*
X0003535076Y0002872253D01*
X0003542575Y0002873003D01*
X0003541825Y0002872253D01*
X0003541076Y0002870753D01*
X0003541076Y0002867004D01*
X0003541825Y0002865504D01*
X0003542575Y0002864754D01*
X0003544075Y0002864004D01*
X0003547825Y0002864004D01*
X0003549325Y0002864754D01*
X0003550074Y0002865504D01*
X0003550824Y0002867004D01*
X0003550824Y0002870753D01*
X0003550074Y0002872253D01*
X0003549325Y0002873003D01*
D32*
X0003530014Y0003277146D02*
X0003530014Y0003252774D01*
X0003545013Y0003265897D01*
X0003545013Y0003260273D01*
X0003546887Y0003256524D01*
X0003548762Y0003254649D01*
X0003552512Y0003252774D01*
X0003561885Y0003252774D01*
X0003565635Y0003254649D01*
X0003567510Y0003256524D01*
X0003569385Y0003260273D01*
X0003569385Y0003271522D01*
X0003567510Y0003275271D01*
X0003565635Y0003277146D01*
X0003530014Y0003239651D02*
X0003530014Y0003215279D01*
X0003545013Y0003228402D01*
X0003545013Y0003222778D01*
X0003546887Y0003219028D01*
X0003548762Y0003217154D01*
X0003552512Y0003215279D01*
X0003561885Y0003215279D01*
X0003565635Y0003217154D01*
X0003567510Y0003219028D01*
X0003569385Y0003222778D01*
X0003569385Y0003234026D01*
X0003567510Y0003237776D01*
X0003565635Y0003239651D01*
X0003569385Y0003175909D02*
X0003550637Y0003189032D01*
X0003569385Y0003198406D02*
X0003530014Y0003198406D01*
X0003530014Y0003183408D01*
X0003531889Y0003179658D01*
X0003533764Y0003177783D01*
X0003537514Y0003175909D01*
X0003543138Y0003175909D01*
X0003546887Y0003177783D01*
X0003548762Y0003179658D01*
X0003550637Y0003183408D01*
X0003550637Y0003198406D01*
D34*
X0003502399Y0003228215D02*
X0003494900Y0003233464D01*
X0003502399Y0003237214D02*
X0003486651Y0003237214D01*
X0003486651Y0003231214D01*
X0003487401Y0003229715D01*
X0003488151Y0003228965D01*
X0003489651Y0003228215D01*
X0003491900Y0003228215D01*
X0003493400Y0003228965D01*
X0003494150Y0003229715D01*
X0003494900Y0003231214D01*
X0003494900Y0003237214D01*
X0003491900Y0003214716D02*
X0003502399Y0003214716D01*
X0003485901Y0003218466D02*
X0003497150Y0003222215D01*
X0003497150Y0003212467D01*
D32*
X0003435620Y0001820172D02*
X0003437495Y0001814548D01*
X0003437495Y0001805174D01*
X0003435620Y0001801424D01*
X0003433745Y0001799550D01*
X0003429996Y0001797675D01*
X0003426246Y0001797675D01*
X0003422497Y0001799550D01*
X0003420622Y0001801424D01*
X0003418747Y0001805174D01*
X0003416872Y0001812673D01*
X0003414998Y0001816422D01*
X0003413123Y0001818297D01*
X0003409373Y0001820172D01*
X0003405624Y0001820172D01*
X0003401874Y0001818297D01*
X0003400000Y0001816422D01*
X0003398125Y0001812673D01*
X0003398125Y0001803299D01*
X0003400000Y0001797675D01*
X0003437495Y0001775178D02*
X0003435620Y0001778927D01*
X0003433745Y0001780802D01*
X0003429996Y0001782677D01*
X0003418747Y0001782677D01*
X0003414998Y0001780802D01*
X0003413123Y0001778927D01*
X0003411248Y0001775178D01*
X0003411248Y0001769553D01*
X0003413123Y0001765804D01*
X0003414998Y0001763929D01*
X0003418747Y0001762054D01*
X0003429996Y0001762054D01*
X0003433745Y0001763929D01*
X0003435620Y0001765804D01*
X0003437495Y0001769553D01*
X0003437495Y0001775178D01*
X0003437495Y0001739557D02*
X0003435620Y0001743307D01*
X0003431870Y0001745181D01*
X0003398125Y0001745181D01*
X0003437495Y0001707686D02*
X0003398125Y0001707686D01*
X0003435620Y0001707686D02*
X0003437495Y0001711436D01*
X0003437495Y0001718935D01*
X0003435620Y0001722684D01*
X0003433745Y0001724559D01*
X0003429996Y0001726434D01*
X0003418747Y0001726434D01*
X0003414998Y0001724559D01*
X0003413123Y0001722684D01*
X0003411248Y0001718935D01*
X0003411248Y0001711436D01*
X0003413123Y0001707686D01*
X0003435620Y0001673940D02*
X0003437495Y0001677690D01*
X0003437495Y0001685189D01*
X0003435620Y0001688938D01*
X0003431870Y0001690813D01*
X0003416872Y0001690813D01*
X0003413123Y0001688938D01*
X0003411248Y0001685189D01*
X0003411248Y0001677690D01*
X0003413123Y0001673940D01*
X0003416872Y0001672065D01*
X0003420622Y0001672065D01*
X0003424371Y0001690813D01*
X0003437495Y0001655193D02*
X0003411248Y0001655193D01*
X0003418747Y0001655193D02*
X0003414998Y0001653318D01*
X0003413123Y0001651443D01*
X0003411248Y0001647694D01*
X0003411248Y0001643944D01*
X0003398125Y0001619572D02*
X0003426246Y0001619572D01*
X0003431870Y0001621447D01*
X0003435620Y0001625196D01*
X0003437495Y0001630821D01*
X0003437495Y0001634570D01*
X0003411248Y0001583951D02*
X0003437495Y0001583951D01*
X0003411248Y0001600824D02*
X0003431870Y0001600824D01*
X0003435620Y0001598950D01*
X0003437495Y0001595200D01*
X0003437495Y0001589576D01*
X0003435620Y0001585826D01*
X0003433745Y0001583951D01*
X0003437495Y0001565204D02*
X0003411248Y0001565204D01*
X0003414998Y0001565204D02*
X0003413123Y0001563329D01*
X0003411248Y0001559580D01*
X0003411248Y0001553955D01*
X0003413123Y0001550206D01*
X0003416872Y0001548331D01*
X0003437495Y0001548331D01*
X0003416872Y0001548331D02*
X0003413123Y0001546456D01*
X0003411248Y0001542707D01*
X0003411248Y0001537082D01*
X0003413123Y0001533333D01*
X0003416872Y0001531458D01*
X0003437495Y0001531458D01*
X0003411248Y0001512710D02*
X0003450618Y0001512710D01*
X0003413123Y0001512710D02*
X0003411248Y0001508961D01*
X0003411248Y0001501462D01*
X0003413123Y0001497712D01*
X0003414998Y0001495837D01*
X0003418747Y0001493963D01*
X0003429996Y0001493963D01*
X0003433745Y0001495837D01*
X0003435620Y0001497712D01*
X0003437495Y0001501462D01*
X0003437495Y0001508961D01*
X0003435620Y0001512710D01*
X0003435620Y0001462092D02*
X0003437495Y0001465841D01*
X0003437495Y0001473340D01*
X0003435620Y0001477090D01*
X0003431870Y0001478965D01*
X0003416872Y0001478965D01*
X0003413123Y0001477090D01*
X0003411248Y0001473340D01*
X0003411248Y0001465841D01*
X0003413123Y0001462092D01*
X0003416872Y0001460217D01*
X0003420622Y0001460217D01*
X0003424371Y0001478965D01*
X0003437495Y0001443344D02*
X0003411248Y0001443344D01*
X0003418747Y0001443344D02*
X0003414998Y0001441469D01*
X0003413123Y0001439595D01*
X0003411248Y0001435845D01*
X0003411248Y0001432095D01*
X0003441244Y0001428346D02*
X0003441244Y0001398350D01*
X0003401874Y0001390851D02*
X0003400000Y0001388976D01*
X0003398125Y0001385226D01*
X0003398125Y0001375852D01*
X0003400000Y0001372103D01*
X0003401874Y0001370228D01*
X0003405624Y0001368353D01*
X0003409373Y0001368353D01*
X0003414998Y0001370228D01*
X0003437495Y0001392725D01*
X0003437495Y0001368353D01*
X0003441244Y0001360854D02*
X0003441244Y0001330858D01*
X0003416872Y0001308361D02*
X0003418747Y0001302737D01*
X0003420622Y0001300862D01*
X0003424371Y0001298987D01*
X0003429996Y0001298987D01*
X0003433745Y0001300862D01*
X0003435620Y0001302737D01*
X0003437495Y0001306486D01*
X0003437495Y0001321484D01*
X0003398125Y0001321484D01*
X0003398125Y0001308361D01*
X0003400000Y0001304611D01*
X0003401874Y0001302737D01*
X0003405624Y0001300862D01*
X0003409373Y0001300862D01*
X0003413123Y0001302737D01*
X0003414998Y0001304611D01*
X0003416872Y0001308361D01*
X0003416872Y0001321484D01*
X0003437495Y0001282114D02*
X0003411248Y0001282114D01*
X0003418747Y0001282114D02*
X0003414998Y0001280239D01*
X0003413123Y0001278365D01*
X0003411248Y0001274615D01*
X0003411248Y0001270866D01*
X0003437495Y0001257742D02*
X0003411248Y0001257742D01*
X0003398125Y0001257742D02*
X0003400000Y0001259617D01*
X0003401874Y0001257742D01*
X0003400000Y0001255867D01*
X0003398125Y0001257742D01*
X0003401874Y0001257742D01*
X0003437495Y0001222122D02*
X0003398125Y0001222122D01*
X0003435620Y0001222122D02*
X0003437495Y0001225871D01*
X0003437495Y0001233370D01*
X0003435620Y0001237120D01*
X0003433745Y0001238995D01*
X0003429996Y0001240869D01*
X0003418747Y0001240869D01*
X0003414998Y0001238995D01*
X0003413123Y0001237120D01*
X0003411248Y0001233370D01*
X0003411248Y0001225871D01*
X0003413123Y0001222122D01*
X0003411248Y0001186501D02*
X0003443119Y0001186501D01*
X0003446869Y0001188376D01*
X0003448743Y0001190251D01*
X0003450618Y0001194000D01*
X0003450618Y0001199625D01*
X0003448743Y0001203374D01*
X0003435620Y0001186501D02*
X0003437495Y0001190251D01*
X0003437495Y0001197750D01*
X0003435620Y0001201499D01*
X0003433745Y0001203374D01*
X0003429996Y0001205249D01*
X0003418747Y0001205249D01*
X0003414998Y0001203374D01*
X0003413123Y0001201499D01*
X0003411248Y0001197750D01*
X0003411248Y0001190251D01*
X0003413123Y0001186501D01*
X0003435620Y0001152755D02*
X0003437495Y0001156505D01*
X0003437495Y0001164004D01*
X0003435620Y0001167754D01*
X0003431870Y0001169628D01*
X0003416872Y0001169628D01*
X0003413123Y0001167754D01*
X0003411248Y0001164004D01*
X0003411248Y0001156505D01*
X0003413123Y0001152755D01*
X0003416872Y0001150881D01*
X0003420622Y0001150881D01*
X0003424371Y0001169628D01*
X0003437495Y0001117135D02*
X0003398125Y0001117135D01*
X0003435620Y0001117135D02*
X0003437495Y0001120884D01*
X0003437495Y0001128383D01*
X0003435620Y0001132133D01*
X0003433745Y0001134008D01*
X0003429996Y0001135882D01*
X0003418747Y0001135882D01*
X0003414998Y0001134008D01*
X0003413123Y0001132133D01*
X0003411248Y0001128383D01*
X0003411248Y0001120884D01*
X0003413123Y0001117135D01*
X0003461998Y0001974896D02*
X0003463873Y0001969272D01*
X0003463873Y0001959898D01*
X0003461998Y0001956149D01*
X0003460123Y0001954274D01*
X0003456374Y0001952399D01*
X0003452624Y0001952399D01*
X0003448875Y0001954274D01*
X0003447000Y0001956149D01*
X0003445125Y0001959898D01*
X0003443250Y0001967397D01*
X0003441376Y0001971147D01*
X0003439501Y0001973022D01*
X0003435751Y0001974896D01*
X0003432002Y0001974896D01*
X0003428252Y0001973022D01*
X0003426377Y0001971147D01*
X0003424503Y0001967397D01*
X0003424503Y0001958023D01*
X0003426377Y0001952399D01*
X0003463873Y0001929902D02*
X0003461998Y0001933652D01*
X0003460123Y0001935526D01*
X0003456374Y0001937401D01*
X0003445125Y0001937401D01*
X0003441376Y0001935526D01*
X0003439501Y0001933652D01*
X0003437626Y0001929902D01*
X0003437626Y0001924278D01*
X0003439501Y0001920528D01*
X0003441376Y0001918653D01*
X0003445125Y0001916779D01*
X0003456374Y0001916779D01*
X0003460123Y0001918653D01*
X0003461998Y0001920528D01*
X0003463873Y0001924278D01*
X0003463873Y0001929902D01*
X0003463873Y0001894281D02*
X0003461998Y0001898031D01*
X0003458248Y0001899906D01*
X0003424503Y0001899906D01*
X0003463873Y0001862410D02*
X0003424503Y0001862410D01*
X0003461998Y0001862410D02*
X0003463873Y0001866160D01*
X0003463873Y0001873659D01*
X0003461998Y0001877409D01*
X0003460123Y0001879283D01*
X0003456374Y0001881158D01*
X0003445125Y0001881158D01*
X0003441376Y0001879283D01*
X0003439501Y0001877409D01*
X0003437626Y0001873659D01*
X0003437626Y0001866160D01*
X0003439501Y0001862410D01*
X0003461998Y0001828665D02*
X0003463873Y0001832414D01*
X0003463873Y0001839913D01*
X0003461998Y0001843663D01*
X0003458248Y0001845538D01*
X0003443250Y0001845538D01*
X0003439501Y0001843663D01*
X0003437626Y0001839913D01*
X0003437626Y0001832414D01*
X0003439501Y0001828665D01*
X0003443250Y0001826790D01*
X0003447000Y0001826790D01*
X0003450749Y0001845538D01*
X0003463873Y0001809917D02*
X0003437626Y0001809917D01*
X0003445125Y0001809917D02*
X0003441376Y0001808042D01*
X0003439501Y0001806167D01*
X0003437626Y0001802418D01*
X0003437626Y0001798668D01*
X0003424503Y0001774296D02*
X0003452624Y0001774296D01*
X0003458248Y0001776171D01*
X0003461998Y0001779921D01*
X0003463873Y0001785545D01*
X0003463873Y0001789295D01*
X0003437626Y0001738676D02*
X0003463873Y0001738676D01*
X0003437626Y0001755549D02*
X0003458248Y0001755549D01*
X0003461998Y0001753674D01*
X0003463873Y0001749925D01*
X0003463873Y0001744300D01*
X0003461998Y0001740551D01*
X0003460123Y0001738676D01*
X0003463873Y0001719928D02*
X0003437626Y0001719928D01*
X0003441376Y0001719928D02*
X0003439501Y0001718053D01*
X0003437626Y0001714304D01*
X0003437626Y0001708680D01*
X0003439501Y0001704930D01*
X0003443250Y0001703055D01*
X0003463873Y0001703055D01*
X0003443250Y0001703055D02*
X0003439501Y0001701181D01*
X0003437626Y0001697431D01*
X0003437626Y0001691807D01*
X0003439501Y0001688057D01*
X0003443250Y0001686182D01*
X0003463873Y0001686182D01*
X0003437626Y0001667435D02*
X0003476996Y0001667435D01*
X0003439501Y0001667435D02*
X0003437626Y0001663685D01*
X0003437626Y0001656186D01*
X0003439501Y0001652437D01*
X0003441376Y0001650562D01*
X0003445125Y0001648687D01*
X0003456374Y0001648687D01*
X0003460123Y0001650562D01*
X0003461998Y0001652437D01*
X0003463873Y0001656186D01*
X0003463873Y0001663685D01*
X0003461998Y0001667435D01*
X0003461998Y0001616816D02*
X0003463873Y0001620566D01*
X0003463873Y0001628065D01*
X0003461998Y0001631814D01*
X0003458248Y0001633689D01*
X0003443250Y0001633689D01*
X0003439501Y0001631814D01*
X0003437626Y0001628065D01*
X0003437626Y0001620566D01*
X0003439501Y0001616816D01*
X0003443250Y0001614941D01*
X0003447000Y0001614941D01*
X0003450749Y0001633689D01*
X0003463873Y0001598068D02*
X0003437626Y0001598068D01*
X0003445125Y0001598068D02*
X0003441376Y0001596194D01*
X0003439501Y0001594319D01*
X0003437626Y0001590569D01*
X0003437626Y0001586820D01*
X0003467622Y0001583070D02*
X0003467622Y0001553074D01*
X0003428252Y0001545575D02*
X0003426377Y0001543700D01*
X0003424503Y0001539951D01*
X0003424503Y0001530577D01*
X0003426377Y0001526827D01*
X0003428252Y0001524953D01*
X0003432002Y0001523078D01*
X0003435751Y0001523078D01*
X0003441376Y0001524953D01*
X0003463873Y0001547450D01*
X0003463873Y0001523078D01*
X0003467622Y0001515579D02*
X0003467622Y0001485583D01*
X0003443250Y0001463085D02*
X0003445125Y0001457461D01*
X0003447000Y0001455586D01*
X0003450749Y0001453712D01*
X0003456374Y0001453712D01*
X0003460123Y0001455586D01*
X0003461998Y0001457461D01*
X0003463873Y0001461211D01*
X0003463873Y0001476209D01*
X0003424503Y0001476209D01*
X0003424503Y0001463085D01*
X0003426377Y0001459336D01*
X0003428252Y0001457461D01*
X0003432002Y0001455586D01*
X0003435751Y0001455586D01*
X0003439501Y0001457461D01*
X0003441376Y0001459336D01*
X0003443250Y0001463085D01*
X0003443250Y0001476209D01*
X0003463873Y0001436839D02*
X0003437626Y0001436839D01*
X0003445125Y0001436839D02*
X0003441376Y0001434964D01*
X0003439501Y0001433089D01*
X0003437626Y0001429340D01*
X0003437626Y0001425590D01*
X0003463873Y0001412467D02*
X0003437626Y0001412467D01*
X0003424503Y0001412467D02*
X0003426377Y0001414341D01*
X0003428252Y0001412467D01*
X0003426377Y0001410592D01*
X0003424503Y0001412467D01*
X0003428252Y0001412467D01*
X0003463873Y0001376846D02*
X0003424503Y0001376846D01*
X0003461998Y0001376846D02*
X0003463873Y0001380596D01*
X0003463873Y0001388095D01*
X0003461998Y0001391844D01*
X0003460123Y0001393719D01*
X0003456374Y0001395594D01*
X0003445125Y0001395594D01*
X0003441376Y0001393719D01*
X0003439501Y0001391844D01*
X0003437626Y0001388095D01*
X0003437626Y0001380596D01*
X0003439501Y0001376846D01*
X0003437626Y0001341226D02*
X0003469497Y0001341226D01*
X0003473247Y0001343100D01*
X0003475121Y0001344975D01*
X0003476996Y0001348725D01*
X0003476996Y0001354349D01*
X0003475121Y0001358098D01*
X0003461998Y0001341226D02*
X0003463873Y0001344975D01*
X0003463873Y0001352474D01*
X0003461998Y0001356224D01*
X0003460123Y0001358098D01*
X0003456374Y0001359973D01*
X0003445125Y0001359973D01*
X0003441376Y0001358098D01*
X0003439501Y0001356224D01*
X0003437626Y0001352474D01*
X0003437626Y0001344975D01*
X0003439501Y0001341226D01*
X0003461998Y0001307480D02*
X0003463873Y0001311229D01*
X0003463873Y0001318728D01*
X0003461998Y0001322478D01*
X0003458248Y0001324353D01*
X0003443250Y0001324353D01*
X0003439501Y0001322478D01*
X0003437626Y0001318728D01*
X0003437626Y0001311229D01*
X0003439501Y0001307480D01*
X0003443250Y0001305605D01*
X0003447000Y0001305605D01*
X0003450749Y0001324353D01*
X0003463873Y0001271859D02*
X0003424503Y0001271859D01*
X0003461998Y0001271859D02*
X0003463873Y0001275609D01*
X0003463873Y0001283108D01*
X0003461998Y0001286857D01*
X0003460123Y0001288732D01*
X0003456374Y0001290607D01*
X0003445125Y0001290607D01*
X0003441376Y0001288732D01*
X0003439501Y0001286857D01*
X0003437626Y0001283108D01*
X0003437626Y0001275609D01*
X0003439501Y0001271859D01*
X0003316122Y0001565241D02*
X0003314248Y0001567116D01*
X0003308623Y0001568991D01*
X0003304874Y0001568991D01*
X0003299250Y0001567116D01*
X0003295500Y0001563367D01*
X0003293625Y0001559617D01*
X0003291751Y0001552118D01*
X0003291751Y0001546494D01*
X0003293625Y0001538995D01*
X0003295500Y0001535245D01*
X0003299250Y0001531496D01*
X0003304874Y0001529621D01*
X0003308623Y0001529621D01*
X0003314248Y0001531496D01*
X0003316122Y0001533370D01*
D34*
X0003301312Y0001613104D02*
X0003300562Y0001613854D01*
X0003298312Y0001614604D01*
X0003296812Y0001614604D01*
X0003294563Y0001613854D01*
X0003293063Y0001612354D01*
X0003292313Y0001610854D01*
X0003291563Y0001607855D01*
X0003291563Y0001605605D01*
X0003292313Y0001602605D01*
X0003293063Y0001601106D01*
X0003294563Y0001599606D01*
X0003296812Y0001598856D01*
X0003298312Y0001598856D01*
X0003300562Y0001599606D01*
X0003301312Y0001600356D01*
X0003316310Y0001614604D02*
X0003307311Y0001614604D01*
X0003311811Y0001614604D02*
X0003311811Y0001598856D01*
X0003310311Y0001601106D01*
X0003308811Y0001602605D01*
X0003307311Y0001603355D01*
G04 next file*
G04 #@! TF.GenerationSoftware,KiCad,Pcbnew,(5.1.0)-1*
G04 #@! TF.CreationDate,2019-07-24T00:39:13-06:00*
G04 #@! TF.ProjectId,twinkletwinkie,7477696e-6b6c-4657-9477-696e6b69652e,rev?*
G04 #@! TF.SameCoordinates,PX89e92d0PY44794c0*
G04 #@! TF.FileFunction,Other,Fab,Top*
G04 Gerber Fmt 4.6, Leading zero omitted, Abs format (unit mm)*
G04 Created by KiCad (PCBNEW (5.1.0)-1) date 2019-07-24 00:39:13*
G04 APERTURE LIST*
G04 APERTURE END LIST*
M02*